M48
; DRILL file {KiCad (5.1.9)-1} date 04/18/21 13:23:42
; FORMAT={-:-/ absolute / metric / decimal}
; #@! TF.CreationDate,2021-04-18T13:23:42+02:00
; #@! TF.GenerationSoftware,Kicad,Pcbnew,(5.1.9)-1
; #@! TF.FileFunction,Plated,1,2,PTH
FMAT,2
METRIC
T1C0.762
T2C1.100
T3C1.500
%
G90
G05
T1
X76.0Y-100.0
X76.0Y-105.0
X76.0Y-110.0
X76.0Y-115.0
X76.0Y-130.0
X76.0Y-135.0
X76.0Y-140.0
X76.0Y-145.0
X81.0Y-100.0
X81.0Y-105.0
X81.0Y-110.0
X81.0Y-115.0
X81.0Y-130.0
X81.0Y-135.0
X81.0Y-140.0
X81.0Y-145.0
T2
X56.529Y-139.3
X59.029Y-144.3
T3
X55.0Y-106.0
X55.0Y-111.0
X55.0Y-116.0
X55.0Y-131.0
X55.5Y-78.0
X55.5Y-100.0
X62.5Y-106.0
X62.5Y-111.0
X62.5Y-116.0
X62.5Y-131.0
T0
M30
