G04 #@! TF.GenerationSoftware,KiCad,Pcbnew,(5.1.9)-1*
G04 #@! TF.CreationDate,2021-04-18T13:23:29+02:00*
G04 #@! TF.ProjectId,relay-box,72656c61-792d-4626-9f78-2e6b69636164,rev?*
G04 #@! TF.SameCoordinates,Original*
G04 #@! TF.FileFunction,Copper,L2,Bot*
G04 #@! TF.FilePolarity,Positive*
%FSLAX46Y46*%
G04 Gerber Fmt 4.6, Leading zero omitted, Abs format (unit mm)*
G04 Created by KiCad (PCBNEW (5.1.9)-1) date 2021-04-18 13:23:29*
%MOMM*%
%LPD*%
G01*
G04 APERTURE LIST*
G04 #@! TA.AperFunction,ComponentPad*
%ADD10C,1.524000*%
G04 #@! TD*
G04 #@! TA.AperFunction,ComponentPad*
%ADD11O,1.650000X3.300000*%
G04 #@! TD*
G04 #@! TA.AperFunction,ComponentPad*
%ADD12O,2.500000X2.500000*%
G04 #@! TD*
G04 #@! TA.AperFunction,ComponentPad*
%ADD13R,2.500000X2.500000*%
G04 #@! TD*
G04 #@! TA.AperFunction,ComponentPad*
%ADD14O,2.500000X4.000000*%
G04 #@! TD*
G04 #@! TA.AperFunction,Conductor*
%ADD15C,2.000000*%
G04 #@! TD*
G04 #@! TA.AperFunction,Conductor*
%ADD16C,1.000000*%
G04 #@! TD*
G04 APERTURE END LIST*
D10*
X81000000Y-115000000D03*
X76000000Y-115000000D03*
X81000000Y-110000000D03*
X76000000Y-110000000D03*
X81000000Y-105000000D03*
X76000000Y-105000000D03*
X81000000Y-100000000D03*
X76000000Y-100000000D03*
X76000000Y-130000000D03*
X81000000Y-130000000D03*
X76000000Y-135000000D03*
X81000000Y-135000000D03*
X76000000Y-140000000D03*
X81000000Y-140000000D03*
X76000000Y-145000000D03*
X81000000Y-145000000D03*
D11*
X56528600Y-139300000D03*
X59028600Y-144300000D03*
D12*
X55000000Y-131000000D03*
X55000000Y-116000000D03*
X55000000Y-111000000D03*
X55000000Y-106000000D03*
X62500000Y-106000000D03*
X62500000Y-111000000D03*
X62500000Y-116000000D03*
D13*
X62500000Y-131000000D03*
D14*
X55500000Y-78000000D03*
X55500000Y-100000000D03*
D15*
X81000000Y-100000000D02*
X76000000Y-100000000D01*
X76000000Y-100000000D02*
X71500000Y-100000000D01*
X55500000Y-84000000D02*
X55500000Y-78000000D01*
X71500000Y-100000000D02*
X55500000Y-84000000D01*
X55500000Y-100000000D02*
X55000000Y-100500000D01*
X55000000Y-100500000D02*
X55000000Y-106000000D01*
D16*
X56528600Y-139300000D02*
X56528600Y-132528600D01*
X56528600Y-132528600D02*
X55000000Y-131000000D01*
D15*
X63500000Y-105000000D02*
X62500000Y-106000000D01*
X76000000Y-105000000D02*
X63500000Y-105000000D01*
X76000000Y-105000000D02*
X81000000Y-105000000D01*
X73500000Y-140000000D02*
X76000000Y-140000000D01*
X71500000Y-138000000D02*
X73500000Y-140000000D01*
X71500000Y-114500000D02*
X71500000Y-138000000D01*
X68000000Y-111000000D02*
X71500000Y-114500000D01*
X62500000Y-111000000D02*
X68000000Y-111000000D01*
X76000000Y-140000000D02*
X81000000Y-140000000D01*
D16*
X59028600Y-144300000D02*
X59028600Y-132971400D01*
X61000000Y-131000000D02*
X62500000Y-131000000D01*
X59028600Y-132971400D02*
X61000000Y-131000000D01*
D15*
X81000000Y-115000000D02*
X76000000Y-115000000D01*
X76000000Y-110000000D02*
X81000000Y-110000000D01*
X76000000Y-130000000D02*
X81000000Y-130000000D01*
X78500000Y-135000000D02*
X78500000Y-110000000D01*
X81000000Y-135000000D02*
X78500000Y-135000000D01*
X78500000Y-135000000D02*
X76000000Y-135000000D01*
X81000000Y-145000000D02*
X76000000Y-145000000D01*
X52000000Y-111500000D02*
X52500000Y-111000000D01*
X52000000Y-121000000D02*
X52000000Y-111500000D01*
X54500000Y-123500000D02*
X52000000Y-121000000D01*
X66500000Y-123500000D02*
X54500000Y-123500000D01*
X67500000Y-124500000D02*
X66500000Y-123500000D01*
X67500000Y-144000000D02*
X67500000Y-124500000D01*
X52500000Y-111000000D02*
X55000000Y-111000000D01*
X68500000Y-145000000D02*
X67500000Y-144000000D01*
X76000000Y-145000000D02*
X68500000Y-145000000D01*
M02*
