G04 #@! TF.GenerationSoftware,KiCad,Pcbnew,(5.1.9)-1*
G04 #@! TF.CreationDate,2021-04-18T13:23:29+02:00*
G04 #@! TF.ProjectId,relay-box,72656c61-792d-4626-9f78-2e6b69636164,rev?*
G04 #@! TF.SameCoordinates,Original*
G04 #@! TF.FileFunction,Profile,NP*
%FSLAX46Y46*%
G04 Gerber Fmt 4.6, Leading zero omitted, Abs format (unit mm)*
G04 Created by KiCad (PCBNEW (5.1.9)-1) date 2021-04-18 13:23:29*
%MOMM*%
%LPD*%
G01*
G04 APERTURE LIST*
G04 #@! TA.AperFunction,Profile*
%ADD10C,0.050000*%
G04 #@! TD*
G04 APERTURE END LIST*
D10*
X74500000Y-108000000D02*
G75*
G02*
X74500000Y-107000000I0J500000D01*
G01*
X74500000Y-103000000D02*
G75*
G02*
X74500000Y-102000000I0J500000D01*
G01*
X82500000Y-107000000D02*
G75*
G02*
X82500000Y-108000000I0J-500000D01*
G01*
X82500000Y-102000000D02*
G75*
G02*
X82500000Y-103000000I0J-500000D01*
G01*
X75000000Y-138000000D02*
G75*
G02*
X75000000Y-137000000I0J500000D01*
G01*
X74000000Y-136000000D02*
G75*
G02*
X73000000Y-136000000I-500000J0D01*
G01*
X74000000Y-143000000D02*
G75*
G02*
X74000000Y-142000000I0J500000D01*
G01*
X82500000Y-137000000D02*
G75*
G02*
X82500000Y-138000000I0J-500000D01*
G01*
X82500000Y-142000000D02*
G75*
G02*
X82500000Y-143000000I0J-500000D01*
G01*
X82500000Y-143000000D02*
X74000000Y-143000000D01*
X74000000Y-142000000D02*
X82500000Y-142000000D01*
X82500000Y-138000000D02*
X75000000Y-138000000D01*
X75000000Y-137000000D02*
X82500000Y-137000000D01*
X82500000Y-108000000D02*
X74500000Y-108000000D01*
X74500000Y-107000000D02*
X82500000Y-107000000D01*
X82500000Y-103000000D02*
X74500000Y-103000000D01*
X74500000Y-102000000D02*
X82500000Y-102000000D01*
X58000000Y-104000000D02*
G75*
G02*
X59000000Y-104000000I500000J0D01*
G01*
X59000000Y-117500000D02*
G75*
G02*
X58000000Y-117500000I-500000J0D01*
G01*
X59000000Y-104000000D02*
X59000000Y-117500000D01*
X58000000Y-117500000D02*
X58000000Y-104000000D01*
X73000000Y-110000000D02*
G75*
G02*
X74000000Y-110000000I500000J0D01*
G01*
X74000000Y-118500000D02*
G75*
G02*
X73000000Y-118500000I-500000J0D01*
G01*
X74000000Y-110000000D02*
X74000000Y-118500000D01*
X73000000Y-118500000D02*
X73000000Y-110000000D01*
X65000000Y-127000000D02*
G75*
G02*
X66000000Y-127000000I500000J0D01*
G01*
X66000000Y-134500000D02*
G75*
G02*
X65000000Y-134500000I-500000J0D01*
G01*
X65000000Y-127000000D02*
X65000000Y-134500000D01*
X66000000Y-134500000D02*
X66000000Y-127000000D01*
X73000000Y-127500000D02*
G75*
G02*
X74000000Y-127500000I500000J0D01*
G01*
X74000000Y-136000000D02*
X74000000Y-127500000D01*
X73000000Y-136000000D02*
X73000000Y-127500000D01*
X70000000Y-139000000D02*
G75*
G02*
X69000000Y-139000000I-500000J0D01*
G01*
X69000000Y-121000000D02*
G75*
G02*
X70000000Y-121000000I500000J0D01*
G01*
X69000000Y-139000000D02*
X69000000Y-121000000D01*
X70000000Y-139000000D02*
X70000000Y-121000000D01*
X70000000Y-93000000D02*
X70000000Y-75000000D01*
X85000000Y-93000000D02*
X70000000Y-93000000D01*
X85000000Y-95000000D02*
X85000000Y-93000000D01*
X50000000Y-95000000D02*
X50000000Y-75000000D01*
X85000000Y-150000000D02*
X50000000Y-150000000D01*
X85000000Y-95000000D02*
X85000000Y-150000000D01*
X50000000Y-75000000D02*
X70000000Y-75000000D01*
X50000000Y-150000000D02*
X50000000Y-95000000D01*
M02*
