%FSLAX45Y45*%
G04 Gerber Fmt 4.5, Leading zero omitted, Abs format (unit mm)*
G04 Created by KiCad (PCBNEW (5.1.9)-1) date 2021-04-18 13:23:44*
%MOMM*%
%LPD*%
G01*
G04 APERTURE LIST*
%TA.AperFunction,Profile*%
%ADD10C,0.050000*%
%TD*%
%ADD11C,0.200000*%
%ADD12C,0.300000*%
G04 APERTURE END LIST*
D10*
X7450000Y-10800000D02*
G75*
G02*
X7450000Y-10700000I0J50000D01*
G01*
X7450000Y-10300000D02*
G75*
G02*
X7450000Y-10200000I0J50000D01*
G01*
X8250000Y-10700000D02*
G75*
G02*
X8250000Y-10800000I0J-50000D01*
G01*
X8250000Y-10200000D02*
G75*
G02*
X8250000Y-10300000I0J-50000D01*
G01*
X7500000Y-13800000D02*
G75*
G02*
X7500000Y-13700000I0J50000D01*
G01*
X7400000Y-13600000D02*
G75*
G02*
X7300000Y-13600000I-50000J0D01*
G01*
X7400000Y-14300000D02*
G75*
G02*
X7400000Y-14200000I0J50000D01*
G01*
X8250000Y-13700000D02*
G75*
G02*
X8250000Y-13800000I0J-50000D01*
G01*
X8250000Y-14200000D02*
G75*
G02*
X8250000Y-14300000I0J-50000D01*
G01*
X8250000Y-14300000D02*
X7400000Y-14300000D01*
X7400000Y-14200000D02*
X8250000Y-14200000D01*
X8250000Y-13800000D02*
X7500000Y-13800000D01*
X7500000Y-13700000D02*
X8250000Y-13700000D01*
X8250000Y-10800000D02*
X7450000Y-10800000D01*
X7450000Y-10700000D02*
X8250000Y-10700000D01*
X8250000Y-10300000D02*
X7450000Y-10300000D01*
X7450000Y-10200000D02*
X8250000Y-10200000D01*
X5800000Y-10400000D02*
G75*
G02*
X5900000Y-10400000I50000J0D01*
G01*
X5900000Y-11750000D02*
G75*
G02*
X5800000Y-11750000I-50000J0D01*
G01*
X5900000Y-10400000D02*
X5900000Y-11750000D01*
X5800000Y-11750000D02*
X5800000Y-10400000D01*
X7300000Y-11000000D02*
G75*
G02*
X7400000Y-11000000I50000J0D01*
G01*
X7400000Y-11850000D02*
G75*
G02*
X7300000Y-11850000I-50000J0D01*
G01*
X7400000Y-11000000D02*
X7400000Y-11850000D01*
X7300000Y-11850000D02*
X7300000Y-11000000D01*
X6500000Y-12700000D02*
G75*
G02*
X6600000Y-12700000I50000J0D01*
G01*
X6600000Y-13450000D02*
G75*
G02*
X6500000Y-13450000I-50000J0D01*
G01*
X6500000Y-12700000D02*
X6500000Y-13450000D01*
X6600000Y-13450000D02*
X6600000Y-12700000D01*
X7300000Y-12750000D02*
G75*
G02*
X7400000Y-12750000I50000J0D01*
G01*
X7400000Y-13600000D02*
X7400000Y-12750000D01*
X7300000Y-13600000D02*
X7300000Y-12750000D01*
X7000000Y-13900000D02*
G75*
G02*
X6900000Y-13900000I-50000J0D01*
G01*
X6900000Y-12100000D02*
G75*
G02*
X7000000Y-12100000I50000J0D01*
G01*
X6900000Y-13900000D02*
X6900000Y-12100000D01*
X7000000Y-13900000D02*
X7000000Y-12100000D01*
X7000000Y-9300000D02*
X7000000Y-7500000D01*
X8500000Y-9300000D02*
X7000000Y-9300000D01*
X8500000Y-9500000D02*
X8500000Y-9300000D01*
X5000000Y-9500000D02*
X5000000Y-7500000D01*
X8500000Y-15000000D02*
X5000000Y-15000000D01*
X8500000Y-9500000D02*
X8500000Y-15000000D01*
X5000000Y-7500000D02*
X7000000Y-7500000D01*
X5000000Y-15000000D02*
X5000000Y-9500000D01*
D11*
D12*
X5283928Y-15468214D02*
X5283928Y-15168214D01*
X5355357Y-15168214D01*
X5398214Y-15182500D01*
X5426786Y-15211071D01*
X5441071Y-15239643D01*
X5455357Y-15296786D01*
X5455357Y-15339643D01*
X5441071Y-15396786D01*
X5426786Y-15425357D01*
X5398214Y-15453929D01*
X5355357Y-15468214D01*
X5283928Y-15468214D01*
X5583928Y-15468214D02*
X5583928Y-15268214D01*
X5583928Y-15325357D02*
X5598214Y-15296786D01*
X5612500Y-15282500D01*
X5641071Y-15268214D01*
X5669643Y-15268214D01*
X5769643Y-15468214D02*
X5769643Y-15268214D01*
X5769643Y-15168214D02*
X5755357Y-15182500D01*
X5769643Y-15196786D01*
X5783928Y-15182500D01*
X5769643Y-15168214D01*
X5769643Y-15196786D01*
X5955357Y-15468214D02*
X5926786Y-15453929D01*
X5912500Y-15425357D01*
X5912500Y-15168214D01*
X6112500Y-15468214D02*
X6083928Y-15453929D01*
X6069643Y-15425357D01*
X6069643Y-15168214D01*
X6455357Y-15468214D02*
X6455357Y-15168214D01*
X6555357Y-15382500D01*
X6655357Y-15168214D01*
X6655357Y-15468214D01*
X6926786Y-15468214D02*
X6926786Y-15311071D01*
X6912500Y-15282500D01*
X6883928Y-15268214D01*
X6826786Y-15268214D01*
X6798214Y-15282500D01*
X6926786Y-15453929D02*
X6898214Y-15468214D01*
X6826786Y-15468214D01*
X6798214Y-15453929D01*
X6783928Y-15425357D01*
X6783928Y-15396786D01*
X6798214Y-15368214D01*
X6826786Y-15353929D01*
X6898214Y-15353929D01*
X6926786Y-15339643D01*
X7069643Y-15268214D02*
X7069643Y-15568214D01*
X7069643Y-15282500D02*
X7098214Y-15268214D01*
X7155357Y-15268214D01*
X7183928Y-15282500D01*
X7198214Y-15296786D01*
X7212500Y-15325357D01*
X7212500Y-15411071D01*
X7198214Y-15439643D01*
X7183928Y-15453929D01*
X7155357Y-15468214D01*
X7098214Y-15468214D01*
X7069643Y-15453929D01*
X7341071Y-15439643D02*
X7355357Y-15453929D01*
X7341071Y-15468214D01*
X7326786Y-15453929D01*
X7341071Y-15439643D01*
X7341071Y-15468214D01*
X7341071Y-15282500D02*
X7355357Y-15296786D01*
X7341071Y-15311071D01*
X7326786Y-15296786D01*
X7341071Y-15282500D01*
X7341071Y-15311071D01*
M02*
