%FSLAX45Y45*%
G04 Gerber Fmt 4.5, Leading zero omitted, Abs format (unit mm)*
G04 Created by KiCad (PCBNEW (5.1.10)-1) date 2021-11-10 22:46:03*
%MOMM*%
%LPD*%
G01*
G04 APERTURE LIST*
%TA.AperFunction,Profile*%
%ADD10C,0.050000*%
%TD*%
%ADD11C,0.200000*%
%ADD12C,0.300000*%
G04 APERTURE END LIST*
D10*
X5000000Y-6400000D02*
X5000000Y-15000000D01*
X11700000Y-6400000D02*
X5000000Y-6400000D01*
X11700000Y-15000000D02*
X11700000Y-6400000D01*
X5000000Y-15000000D02*
X11700000Y-15000000D01*
D11*
X7707500Y-10396250D02*
X7727500Y-10416250D01*
X7727500Y-10396250D02*
X7707500Y-10416250D01*
X7707500Y-10496250D02*
X7727500Y-10516250D01*
X7727500Y-10496250D02*
X7707500Y-10516250D01*
X7707500Y-10596250D02*
X7727500Y-10616250D01*
X7727500Y-10596250D02*
X7707500Y-10616250D01*
X7807500Y-10396250D02*
X7827500Y-10416250D01*
X7827500Y-10396250D02*
X7807500Y-10416250D01*
X7807500Y-10496250D02*
X7827500Y-10516250D01*
X7827500Y-10496250D02*
X7807500Y-10516250D01*
X7807500Y-10596250D02*
X7827500Y-10616250D01*
X7827500Y-10596250D02*
X7807500Y-10616250D01*
X7907500Y-10396250D02*
X7927500Y-10416250D01*
X7927500Y-10396250D02*
X7907500Y-10416250D01*
X7907500Y-10496250D02*
X7927500Y-10516250D01*
X7927500Y-10496250D02*
X7907500Y-10516250D01*
X7907500Y-10596250D02*
X7927500Y-10616250D01*
X7927500Y-10596250D02*
X7907500Y-10616250D01*
X5170000Y-12120000D02*
G75*
G03*
X5170000Y-12120000I-20000J0D01*
G01*
X5180000Y-7860000D02*
G75*
G03*
X5180000Y-7860000I-20000J0D01*
G01*
X5280000Y-8890000D02*
G75*
G03*
X5280000Y-8890000I-20000J0D01*
G01*
X5290000Y-9930000D02*
G75*
G03*
X5290000Y-9930000I-20000J0D01*
G01*
X5400000Y-11010000D02*
G75*
G03*
X5400000Y-11010000I-20000J0D01*
G01*
X5430000Y-8170000D02*
G75*
G03*
X5430000Y-8170000I-20000J0D01*
G01*
X5490000Y-7640000D02*
G75*
G03*
X5490000Y-7640000I-20000J0D01*
G01*
X5610000Y-12200000D02*
G75*
G03*
X5610000Y-12200000I-20000J0D01*
G01*
X5660000Y-11810000D02*
G75*
G03*
X5660000Y-11810000I-20000J0D01*
G01*
X5790000Y-7700000D02*
G75*
G03*
X5790000Y-7700000I-20000J0D01*
G01*
X6160000Y-11010000D02*
G75*
G03*
X6160000Y-11010000I-20000J0D01*
G01*
X6260000Y-8680000D02*
G75*
G03*
X6260000Y-8680000I-20000J0D01*
G01*
X6410000Y-7960000D02*
G75*
G03*
X6410000Y-7960000I-20000J0D01*
G01*
X6490000Y-8390000D02*
G75*
G03*
X6490000Y-8390000I-20000J0D01*
G01*
X6640000Y-9970000D02*
G75*
G03*
X6640000Y-9970000I-20000J0D01*
G01*
X6670000Y-7680000D02*
G75*
G03*
X6670000Y-7680000I-20000J0D01*
G01*
X6680000Y-12100000D02*
G75*
G03*
X6680000Y-12100000I-20000J0D01*
G01*
X6694000Y-11766000D02*
G75*
G03*
X6694000Y-11766000I-20000J0D01*
G01*
X6750000Y-8690000D02*
G75*
G03*
X6750000Y-8690000I-20000J0D01*
G01*
X6790000Y-8050000D02*
G75*
G03*
X6790000Y-8050000I-20000J0D01*
G01*
X6830000Y-12800000D02*
G75*
G03*
X6830000Y-12800000I-20000J0D01*
G01*
X6950000Y-8420000D02*
G75*
G03*
X6950000Y-8420000I-20000J0D01*
G01*
X6994000Y-11766000D02*
G75*
G03*
X6994000Y-11766000I-20000J0D01*
G01*
X7120000Y-9070000D02*
G75*
G03*
X7120000Y-9070000I-20000J0D01*
G01*
X7208735Y-11508735D02*
G75*
G03*
X7208735Y-11508735I-20000J0D01*
G01*
X7260000Y-10530000D02*
G75*
G03*
X7260000Y-10530000I-20000J0D01*
G01*
X7280000Y-7950000D02*
G75*
G03*
X7280000Y-7950000I-20000J0D01*
G01*
X7300000Y-10700000D02*
G75*
G03*
X7300000Y-10700000I-20000J0D01*
G01*
X7340000Y-9880000D02*
G75*
G03*
X7340000Y-9880000I-20000J0D01*
G01*
X7370000Y-10590000D02*
G75*
G03*
X7370000Y-10590000I-20000J0D01*
G01*
X7390000Y-10820000D02*
G75*
G03*
X7390000Y-10820000I-20000J0D01*
G01*
X7420000Y-10160000D02*
G75*
G03*
X7420000Y-10160000I-20000J0D01*
G01*
X7420000Y-11370000D02*
G75*
G03*
X7420000Y-11370000I-20000J0D01*
G01*
X7460000Y-8930000D02*
G75*
G03*
X7460000Y-8930000I-20000J0D01*
G01*
X7530000Y-11520000D02*
G75*
G03*
X7530000Y-11520000I-20000J0D01*
G01*
X7560000Y-9800000D02*
G75*
G03*
X7560000Y-9800000I-20000J0D01*
G01*
X7632500Y-10130000D02*
G75*
G03*
X7632500Y-10130000I-20000J0D01*
G01*
X7640000Y-8690000D02*
G75*
G03*
X7640000Y-8690000I-20000J0D01*
G01*
X7640000Y-10000000D02*
G75*
G03*
X7640000Y-10000000I-20000J0D01*
G01*
X7660000Y-10930000D02*
G75*
G03*
X7660000Y-10930000I-20000J0D01*
G01*
X7780000Y-10940000D02*
G75*
G03*
X7780000Y-10940000I-20000J0D01*
G01*
X7850000Y-10090000D02*
G75*
G03*
X7850000Y-10090000I-20000J0D01*
G01*
X7850000Y-12150000D02*
G75*
G03*
X7850000Y-12150000I-20000J0D01*
G01*
X7890000Y-10940000D02*
G75*
G03*
X7890000Y-10940000I-20000J0D01*
G01*
X7910000Y-11740000D02*
G75*
G03*
X7910000Y-11740000I-20000J0D01*
G01*
X7920000Y-9910000D02*
G75*
G03*
X7920000Y-9910000I-20000J0D01*
G01*
X7970000Y-11400000D02*
G75*
G03*
X7970000Y-11400000I-20000J0D01*
G01*
X7998735Y-10101267D02*
G75*
G03*
X7998735Y-10101267I-20000J0D01*
G01*
X8210000Y-10110000D02*
G75*
G03*
X8210000Y-10110000I-20000J0D01*
G01*
X8280000Y-11970000D02*
G75*
G03*
X8280000Y-11970000I-20000J0D01*
G01*
X8290000Y-7960000D02*
G75*
G03*
X8290000Y-7960000I-20000J0D01*
G01*
X8320000Y-7620000D02*
G75*
G03*
X8320000Y-7620000I-20000J0D01*
G01*
X8360000Y-10620000D02*
G75*
G03*
X8360000Y-10620000I-20000J0D01*
G01*
X8380000Y-10750000D02*
G75*
G03*
X8380000Y-10750000I-20000J0D01*
G01*
X8530000Y-11630000D02*
G75*
G03*
X8530000Y-11630000I-20000J0D01*
G01*
X8530000Y-12100000D02*
G75*
G03*
X8530000Y-12100000I-20000J0D01*
G01*
X8550000Y-9970000D02*
G75*
G03*
X8550000Y-9970000I-20000J0D01*
G01*
X8590000Y-9370000D02*
G75*
G03*
X8590000Y-9370000I-20000J0D01*
G01*
X8615000Y-10125000D02*
G75*
G03*
X8615000Y-10125000I-20000J0D01*
G01*
X8640000Y-10730000D02*
G75*
G03*
X8640000Y-10730000I-20000J0D01*
G01*
X8710000Y-7610000D02*
G75*
G03*
X8710000Y-7610000I-20000J0D01*
G01*
X8720000Y-11750000D02*
G75*
G03*
X8720000Y-11750000I-20000J0D01*
G01*
X8750000Y-9280000D02*
G75*
G03*
X8750000Y-9280000I-20000J0D01*
G01*
X8750000Y-13040000D02*
G75*
G03*
X8750000Y-13040000I-20000J0D01*
G01*
X8780000Y-8150000D02*
G75*
G03*
X8780000Y-8150000I-20000J0D01*
G01*
X8780000Y-8730000D02*
G75*
G03*
X8780000Y-8730000I-20000J0D01*
G01*
X8780000Y-10560000D02*
G75*
G03*
X8780000Y-10560000I-20000J0D01*
G01*
X8810000Y-9990000D02*
G75*
G03*
X8810000Y-9990000I-20000J0D01*
G01*
X8920000Y-11700000D02*
G75*
G03*
X8920000Y-11700000I-20000J0D01*
G01*
X8930000Y-9180000D02*
G75*
G03*
X8930000Y-9180000I-20000J0D01*
G01*
X8950000Y-9760000D02*
G75*
G03*
X8950000Y-9760000I-20000J0D01*
G01*
X8970000Y-7690000D02*
G75*
G03*
X8970000Y-7690000I-20000J0D01*
G01*
X9090000Y-8020000D02*
G75*
G03*
X9090000Y-8020000I-20000J0D01*
G01*
X9220000Y-8650000D02*
G75*
G03*
X9220000Y-8650000I-20000J0D01*
G01*
X9280000Y-11940000D02*
G75*
G03*
X9280000Y-11940000I-20000J0D01*
G01*
X9320000Y-8350000D02*
G75*
G03*
X9320000Y-8350000I-20000J0D01*
G01*
X9350000Y-8700000D02*
G75*
G03*
X9350000Y-8700000I-20000J0D01*
G01*
X9430000Y-8780000D02*
G75*
G03*
X9430000Y-8780000I-20000J0D01*
G01*
X9440000Y-10210000D02*
G75*
G03*
X9440000Y-10210000I-20000J0D01*
G01*
X9490000Y-7940000D02*
G75*
G03*
X9490000Y-7940000I-20000J0D01*
G01*
X9550000Y-8380000D02*
G75*
G03*
X9550000Y-8380000I-20000J0D01*
G01*
X9570000Y-9950000D02*
G75*
G03*
X9570000Y-9950000I-20000J0D01*
G01*
X9570000Y-11452500D02*
G75*
G03*
X9570000Y-11452500I-20000J0D01*
G01*
X9640000Y-9530000D02*
G75*
G03*
X9640000Y-9530000I-20000J0D01*
G01*
X9650000Y-11162501D02*
G75*
G03*
X9650000Y-11162501I-20000J0D01*
G01*
X9690000Y-8380000D02*
G75*
G03*
X9690000Y-8380000I-20000J0D01*
G01*
X9690000Y-10620000D02*
G75*
G03*
X9690000Y-10620000I-20000J0D01*
G01*
X9695000Y-9795000D02*
G75*
G03*
X9695000Y-9795000I-20000J0D01*
G01*
X9770000Y-9420000D02*
G75*
G03*
X9770000Y-9420000I-20000J0D01*
G01*
X9770000Y-11600000D02*
G75*
G03*
X9770000Y-11600000I-20000J0D01*
G01*
X9810000Y-8520000D02*
G75*
G03*
X9810000Y-8520000I-20000J0D01*
G01*
X9840000Y-10410000D02*
G75*
G03*
X9840000Y-10410000I-20000J0D01*
G01*
X9917500Y-7672500D02*
G75*
G03*
X9917500Y-7672500I-20000J0D01*
G01*
X9930000Y-11440000D02*
G75*
G03*
X9930000Y-11440000I-20000J0D01*
G01*
X10020000Y-11180000D02*
G75*
G03*
X10020000Y-11180000I-20000J0D01*
G01*
X10060000Y-8520000D02*
G75*
G03*
X10060000Y-8520000I-20000J0D01*
G01*
X10060000Y-13070000D02*
G75*
G03*
X10060000Y-13070000I-20000J0D01*
G01*
X10080000Y-10670000D02*
G75*
G03*
X10080000Y-10670000I-20000J0D01*
G01*
X10100000Y-11840000D02*
G75*
G03*
X10100000Y-11840000I-20000J0D01*
G01*
X10150000Y-9450000D02*
G75*
G03*
X10150000Y-9450000I-20000J0D01*
G01*
X10170000Y-9950000D02*
G75*
G03*
X10170000Y-9950000I-20000J0D01*
G01*
X10220000Y-10410000D02*
G75*
G03*
X10220000Y-10410000I-20000J0D01*
G01*
X10270000Y-10620000D02*
G75*
G03*
X10270000Y-10620000I-20000J0D01*
G01*
X10330000Y-8610000D02*
G75*
G03*
X10330000Y-8610000I-20000J0D01*
G01*
X10450000Y-9460000D02*
G75*
G03*
X10450000Y-9460000I-20000J0D01*
G01*
X10450000Y-10680000D02*
G75*
G03*
X10450000Y-10680000I-20000J0D01*
G01*
X10579999Y-10570000D02*
G75*
G03*
X10579999Y-10570000I-20000J0D01*
G01*
X10580000Y-12810000D02*
G75*
G03*
X10580000Y-12810000I-20000J0D01*
G01*
X10610000Y-8720000D02*
G75*
G03*
X10610000Y-8720000I-20000J0D01*
G01*
X10630000Y-11140000D02*
G75*
G03*
X10630000Y-11140000I-20000J0D01*
G01*
X10740000Y-11950000D02*
G75*
G03*
X10740000Y-11950000I-20000J0D01*
G01*
X10820000Y-11360000D02*
G75*
G03*
X10820000Y-11360000I-20000J0D01*
G01*
X10830000Y-10300000D02*
G75*
G03*
X10830000Y-10300000I-20000J0D01*
G01*
X10850000Y-9510000D02*
G75*
G03*
X10850000Y-9510000I-20000J0D01*
G01*
X10860000Y-8850000D02*
G75*
G03*
X10860000Y-8850000I-20000J0D01*
G01*
X10860000Y-8940000D02*
G75*
G03*
X10860000Y-8940000I-20000J0D01*
G01*
X10860000Y-9030000D02*
G75*
G03*
X10860000Y-9030000I-20000J0D01*
G01*
X10890000Y-9950000D02*
G75*
G03*
X10890000Y-9950000I-20000J0D01*
G01*
X10900000Y-11510000D02*
G75*
G03*
X10900000Y-11510000I-20000J0D01*
G01*
X11040000Y-11930000D02*
G75*
G03*
X11040000Y-11930000I-20000J0D01*
G01*
X11110000Y-12950000D02*
G75*
G03*
X11110000Y-12950000I-20000J0D01*
G01*
X11390000Y-11960000D02*
G75*
G03*
X11390000Y-11960000I-20000J0D01*
G01*
X11440000Y-12530000D02*
G75*
G03*
X11440000Y-12530000I-20000J0D01*
G01*
X6170000Y-12420000D02*
X6170000Y-12500000D01*
X6130000Y-12460000D02*
X6210000Y-12460000D01*
X6520000Y-12420000D02*
X6520000Y-12500000D01*
X6480000Y-12460000D02*
X6560000Y-12460000D01*
X6466467Y-10565467D02*
X6466467Y-10502533D01*
X6403533Y-10502533D01*
X6403533Y-10565467D01*
X6466467Y-10565467D01*
X6466467Y-10819467D02*
X6466467Y-10756533D01*
X6403533Y-10756533D01*
X6403533Y-10819467D01*
X6466467Y-10819467D01*
X6466467Y-11073467D02*
X6466467Y-11010533D01*
X6403533Y-11010533D01*
X6403533Y-11073467D01*
X6466467Y-11073467D01*
X6466467Y-11327467D02*
X6466467Y-11264533D01*
X6403533Y-11264533D01*
X6403533Y-11327467D01*
X6466467Y-11327467D01*
X6720467Y-10692467D02*
X6720467Y-10629533D01*
X6657533Y-10629533D01*
X6657533Y-10692467D01*
X6720467Y-10692467D01*
X6720467Y-10946467D02*
X6720467Y-10883533D01*
X6657533Y-10883533D01*
X6657533Y-10946467D01*
X6720467Y-10946467D01*
X6720467Y-11200467D02*
X6720467Y-11137533D01*
X6657533Y-11137533D01*
X6657533Y-11200467D01*
X6720467Y-11200467D01*
X6720467Y-11454467D02*
X6720467Y-11391533D01*
X6657533Y-11391533D01*
X6657533Y-11454467D01*
X6720467Y-11454467D01*
X8330000Y-13095000D02*
X8375000Y-13050000D01*
X8330000Y-13005000D01*
X8285000Y-13050000D01*
X8330000Y-13095000D01*
X8330000Y-13349000D02*
X8375000Y-13304000D01*
X8330000Y-13259000D01*
X8285000Y-13304000D01*
X8330000Y-13349000D01*
X6100000Y-6900000D02*
X6200000Y-7000000D01*
X6200000Y-6900000D02*
X6100000Y-7000000D01*
X6200000Y-6950000D02*
G75*
G03*
X6200000Y-6950000I-50000J0D01*
G01*
X6150000Y-14400000D02*
X6250000Y-14500000D01*
X6250000Y-14400000D02*
X6150000Y-14500000D01*
X6250000Y-14450000D02*
G75*
G03*
X6250000Y-14450000I-50000J0D01*
G01*
X6354000Y-6900000D02*
X6454000Y-7000000D01*
X6454000Y-6900000D02*
X6354000Y-7000000D01*
X6454000Y-6950000D02*
G75*
G03*
X6454000Y-6950000I-50000J0D01*
G01*
X6404000Y-14400000D02*
X6504000Y-14500000D01*
X6504000Y-14400000D02*
X6404000Y-14500000D01*
X6504000Y-14450000D02*
G75*
G03*
X6504000Y-14450000I-50000J0D01*
G01*
X6996000Y-6900000D02*
X7096000Y-7000000D01*
X7096000Y-6900000D02*
X6996000Y-7000000D01*
X7096000Y-6950000D02*
G75*
G03*
X7096000Y-6950000I-50000J0D01*
G01*
X7090000Y-9330000D02*
X7190000Y-9430000D01*
X7190000Y-9330000D02*
X7090000Y-9430000D01*
X7190000Y-9380000D02*
G75*
G03*
X7190000Y-9380000I-50000J0D01*
G01*
X7250000Y-6900000D02*
X7350000Y-7000000D01*
X7350000Y-6900000D02*
X7250000Y-7000000D01*
X7350000Y-6950000D02*
G75*
G03*
X7350000Y-6950000I-50000J0D01*
G01*
X7310000Y-11900000D02*
X7410000Y-12000000D01*
X7410000Y-11900000D02*
X7310000Y-12000000D01*
X7410000Y-11950000D02*
G75*
G03*
X7410000Y-11950000I-50000J0D01*
G01*
X7310000Y-12154000D02*
X7410000Y-12254000D01*
X7410000Y-12154000D02*
X7310000Y-12254000D01*
X7410000Y-12204000D02*
G75*
G03*
X7410000Y-12204000I-50000J0D01*
G01*
X7310000Y-12408000D02*
X7410000Y-12508000D01*
X7410000Y-12408000D02*
X7310000Y-12508000D01*
X7410000Y-12458000D02*
G75*
G03*
X7410000Y-12458000I-50000J0D01*
G01*
X7344000Y-9330000D02*
X7444000Y-9430000D01*
X7444000Y-9330000D02*
X7344000Y-9430000D01*
X7444000Y-9380000D02*
G75*
G03*
X7444000Y-9380000I-50000J0D01*
G01*
X7776000Y-9330000D02*
X7876000Y-9430000D01*
X7876000Y-9330000D02*
X7776000Y-9430000D01*
X7876000Y-9380000D02*
G75*
G03*
X7876000Y-9380000I-50000J0D01*
G01*
X7900000Y-6900000D02*
X8000000Y-7000000D01*
X8000000Y-6900000D02*
X7900000Y-7000000D01*
X8000000Y-6950000D02*
G75*
G03*
X8000000Y-6950000I-50000J0D01*
G01*
X8005500Y-8067500D02*
X8105500Y-8167500D01*
X8105500Y-8067500D02*
X8005500Y-8167500D01*
X8105500Y-8117500D02*
G75*
G03*
X8105500Y-8117500I-50000J0D01*
G01*
X8005500Y-8321500D02*
X8105500Y-8421500D01*
X8105500Y-8321500D02*
X8005500Y-8421500D01*
X8105500Y-8371500D02*
G75*
G03*
X8105500Y-8371500I-50000J0D01*
G01*
X8005500Y-8575500D02*
X8105500Y-8675500D01*
X8105500Y-8575500D02*
X8005500Y-8675500D01*
X8105500Y-8625500D02*
G75*
G03*
X8105500Y-8625500I-50000J0D01*
G01*
X8005500Y-8829500D02*
X8105500Y-8929500D01*
X8105500Y-8829500D02*
X8005500Y-8929500D01*
X8105500Y-8879500D02*
G75*
G03*
X8105500Y-8879500I-50000J0D01*
G01*
X8030000Y-9330000D02*
X8130000Y-9430000D01*
X8130000Y-9330000D02*
X8030000Y-9430000D01*
X8130000Y-9380000D02*
G75*
G03*
X8130000Y-9380000I-50000J0D01*
G01*
X8154000Y-6900000D02*
X8254000Y-7000000D01*
X8254000Y-6900000D02*
X8154000Y-7000000D01*
X8254000Y-6950000D02*
G75*
G03*
X8254000Y-6950000I-50000J0D01*
G01*
X9300000Y-6900000D02*
X9400000Y-7000000D01*
X9400000Y-6900000D02*
X9300000Y-7000000D01*
X9400000Y-6950000D02*
G75*
G03*
X9400000Y-6950000I-50000J0D01*
G01*
X9550000Y-12170000D02*
X9650000Y-12270000D01*
X9650000Y-12170000D02*
X9550000Y-12270000D01*
X9650000Y-12220000D02*
G75*
G03*
X9650000Y-12220000I-50000J0D01*
G01*
X9550000Y-12424000D02*
X9650000Y-12524000D01*
X9650000Y-12424000D02*
X9550000Y-12524000D01*
X9650000Y-12474000D02*
G75*
G03*
X9650000Y-12474000I-50000J0D01*
G01*
X9550000Y-12678000D02*
X9650000Y-12778000D01*
X9650000Y-12678000D02*
X9550000Y-12778000D01*
X9650000Y-12728000D02*
G75*
G03*
X9650000Y-12728000I-50000J0D01*
G01*
X9550000Y-12932000D02*
X9650000Y-13032000D01*
X9650000Y-12932000D02*
X9550000Y-13032000D01*
X9650000Y-12982000D02*
G75*
G03*
X9650000Y-12982000I-50000J0D01*
G01*
X9554000Y-6900000D02*
X9654000Y-7000000D01*
X9654000Y-6900000D02*
X9554000Y-7000000D01*
X9654000Y-6950000D02*
G75*
G03*
X9654000Y-6950000I-50000J0D01*
G01*
X5259000Y-10295000D02*
X5361000Y-10397000D01*
X5361000Y-10295000D02*
X5259000Y-10397000D01*
X5310000Y-10295000D02*
X5310000Y-10397000D01*
X5259000Y-10346000D02*
X5361000Y-10346000D01*
X5259000Y-11306000D02*
X5361000Y-11408000D01*
X5361000Y-11306000D02*
X5259000Y-11408000D01*
X5310000Y-11306000D02*
X5310000Y-11408000D01*
X5259000Y-11357000D02*
X5361000Y-11357000D01*
X5411000Y-10549000D02*
X5513000Y-10651000D01*
X5513000Y-10549000D02*
X5411000Y-10651000D01*
X5462000Y-10549000D02*
X5462000Y-10651000D01*
X5411000Y-10600000D02*
X5513000Y-10600000D01*
X5411000Y-11560000D02*
X5513000Y-11662000D01*
X5513000Y-11560000D02*
X5411000Y-11662000D01*
X5462000Y-11560000D02*
X5462000Y-11662000D01*
X5411000Y-11611000D02*
X5513000Y-11611000D01*
X6025000Y-10111000D02*
X6185000Y-10271000D01*
X6185000Y-10111000D02*
X6025000Y-10271000D01*
X6161569Y-10247569D02*
X6161569Y-10134431D01*
X6048431Y-10134431D01*
X6048431Y-10247569D01*
X6161569Y-10247569D01*
X6025000Y-11686000D02*
X6185000Y-11846000D01*
X6185000Y-11686000D02*
X6025000Y-11846000D01*
X6161569Y-11822569D02*
X6161569Y-11709431D01*
X6048431Y-11709431D01*
X6048431Y-11822569D01*
X6161569Y-11822569D01*
D12*
X5283928Y-15468214D02*
X5283928Y-15168214D01*
X5355357Y-15168214D01*
X5398214Y-15182500D01*
X5426786Y-15211071D01*
X5441071Y-15239643D01*
X5455357Y-15296786D01*
X5455357Y-15339643D01*
X5441071Y-15396786D01*
X5426786Y-15425357D01*
X5398214Y-15453929D01*
X5355357Y-15468214D01*
X5283928Y-15468214D01*
X5583928Y-15468214D02*
X5583928Y-15268214D01*
X5583928Y-15325357D02*
X5598214Y-15296786D01*
X5612500Y-15282500D01*
X5641071Y-15268214D01*
X5669643Y-15268214D01*
X5769643Y-15468214D02*
X5769643Y-15268214D01*
X5769643Y-15168214D02*
X5755357Y-15182500D01*
X5769643Y-15196786D01*
X5783928Y-15182500D01*
X5769643Y-15168214D01*
X5769643Y-15196786D01*
X5955357Y-15468214D02*
X5926786Y-15453929D01*
X5912500Y-15425357D01*
X5912500Y-15168214D01*
X6112500Y-15468214D02*
X6083928Y-15453929D01*
X6069643Y-15425357D01*
X6069643Y-15168214D01*
X6455357Y-15468214D02*
X6455357Y-15168214D01*
X6555357Y-15382500D01*
X6655357Y-15168214D01*
X6655357Y-15468214D01*
X6926786Y-15468214D02*
X6926786Y-15311071D01*
X6912500Y-15282500D01*
X6883928Y-15268214D01*
X6826786Y-15268214D01*
X6798214Y-15282500D01*
X6926786Y-15453929D02*
X6898214Y-15468214D01*
X6826786Y-15468214D01*
X6798214Y-15453929D01*
X6783928Y-15425357D01*
X6783928Y-15396786D01*
X6798214Y-15368214D01*
X6826786Y-15353929D01*
X6898214Y-15353929D01*
X6926786Y-15339643D01*
X7069643Y-15268214D02*
X7069643Y-15568214D01*
X7069643Y-15282500D02*
X7098214Y-15268214D01*
X7155357Y-15268214D01*
X7183928Y-15282500D01*
X7198214Y-15296786D01*
X7212500Y-15325357D01*
X7212500Y-15411071D01*
X7198214Y-15439643D01*
X7183928Y-15453929D01*
X7155357Y-15468214D01*
X7098214Y-15468214D01*
X7069643Y-15453929D01*
X7341071Y-15439643D02*
X7355357Y-15453929D01*
X7341071Y-15468214D01*
X7326786Y-15453929D01*
X7341071Y-15439643D01*
X7341071Y-15468214D01*
X7341071Y-15282500D02*
X7355357Y-15296786D01*
X7341071Y-15311071D01*
X7326786Y-15296786D01*
X7341071Y-15282500D01*
X7341071Y-15311071D01*
X4977500Y-15952500D02*
X4997500Y-15972500D01*
X4997500Y-15952500D02*
X4977500Y-15972500D01*
X5341071Y-15798214D02*
X5369643Y-15798214D01*
X5398214Y-15812500D01*
X5412500Y-15826786D01*
X5426786Y-15855357D01*
X5441071Y-15912500D01*
X5441071Y-15983929D01*
X5426786Y-16041071D01*
X5412500Y-16069643D01*
X5398214Y-16083929D01*
X5369643Y-16098214D01*
X5341071Y-16098214D01*
X5312500Y-16083929D01*
X5298214Y-16069643D01*
X5283928Y-16041071D01*
X5269643Y-15983929D01*
X5269643Y-15912500D01*
X5283928Y-15855357D01*
X5298214Y-15826786D01*
X5312500Y-15812500D01*
X5341071Y-15798214D01*
X5569643Y-16069643D02*
X5583928Y-16083929D01*
X5569643Y-16098214D01*
X5555357Y-16083929D01*
X5569643Y-16069643D01*
X5569643Y-16098214D01*
X5698214Y-15826786D02*
X5712500Y-15812500D01*
X5741071Y-15798214D01*
X5812500Y-15798214D01*
X5841071Y-15812500D01*
X5855357Y-15826786D01*
X5869643Y-15855357D01*
X5869643Y-15883929D01*
X5855357Y-15926786D01*
X5683928Y-16098214D01*
X5869643Y-16098214D01*
X6055357Y-15798214D02*
X6083928Y-15798214D01*
X6112500Y-15812500D01*
X6126786Y-15826786D01*
X6141071Y-15855357D01*
X6155357Y-15912500D01*
X6155357Y-15983929D01*
X6141071Y-16041071D01*
X6126786Y-16069643D01*
X6112500Y-16083929D01*
X6083928Y-16098214D01*
X6055357Y-16098214D01*
X6026786Y-16083929D01*
X6012500Y-16069643D01*
X5998214Y-16041071D01*
X5983928Y-15983929D01*
X5983928Y-15912500D01*
X5998214Y-15855357D01*
X6012500Y-15826786D01*
X6026786Y-15812500D01*
X6055357Y-15798214D01*
X6341071Y-15798214D02*
X6369643Y-15798214D01*
X6398214Y-15812500D01*
X6412500Y-15826786D01*
X6426786Y-15855357D01*
X6441071Y-15912500D01*
X6441071Y-15983929D01*
X6426786Y-16041071D01*
X6412500Y-16069643D01*
X6398214Y-16083929D01*
X6369643Y-16098214D01*
X6341071Y-16098214D01*
X6312500Y-16083929D01*
X6298214Y-16069643D01*
X6283928Y-16041071D01*
X6269643Y-15983929D01*
X6269643Y-15912500D01*
X6283928Y-15855357D01*
X6298214Y-15826786D01*
X6312500Y-15812500D01*
X6341071Y-15798214D01*
X6569643Y-16098214D02*
X6569643Y-15898214D01*
X6569643Y-15926786D02*
X6583928Y-15912500D01*
X6612500Y-15898214D01*
X6655357Y-15898214D01*
X6683928Y-15912500D01*
X6698214Y-15941071D01*
X6698214Y-16098214D01*
X6698214Y-15941071D02*
X6712500Y-15912500D01*
X6741071Y-15898214D01*
X6783928Y-15898214D01*
X6812500Y-15912500D01*
X6826786Y-15941071D01*
X6826786Y-16098214D01*
X6969643Y-16098214D02*
X6969643Y-15898214D01*
X6969643Y-15926786D02*
X6983928Y-15912500D01*
X7012500Y-15898214D01*
X7055357Y-15898214D01*
X7083928Y-15912500D01*
X7098214Y-15941071D01*
X7098214Y-16098214D01*
X7098214Y-15941071D02*
X7112500Y-15912500D01*
X7141071Y-15898214D01*
X7183928Y-15898214D01*
X7212500Y-15912500D01*
X7226786Y-15941071D01*
X7226786Y-16098214D01*
X7812500Y-15783929D02*
X7555357Y-16169643D01*
X8198214Y-15798214D02*
X8226786Y-15798214D01*
X8255357Y-15812500D01*
X8269643Y-15826786D01*
X8283928Y-15855357D01*
X8298214Y-15912500D01*
X8298214Y-15983929D01*
X8283928Y-16041071D01*
X8269643Y-16069643D01*
X8255357Y-16083929D01*
X8226786Y-16098214D01*
X8198214Y-16098214D01*
X8169643Y-16083929D01*
X8155357Y-16069643D01*
X8141071Y-16041071D01*
X8126786Y-15983929D01*
X8126786Y-15912500D01*
X8141071Y-15855357D01*
X8155357Y-15826786D01*
X8169643Y-15812500D01*
X8198214Y-15798214D01*
X8426786Y-16069643D02*
X8441071Y-16083929D01*
X8426786Y-16098214D01*
X8412500Y-16083929D01*
X8426786Y-16069643D01*
X8426786Y-16098214D01*
X8626786Y-15798214D02*
X8655357Y-15798214D01*
X8683928Y-15812500D01*
X8698214Y-15826786D01*
X8712500Y-15855357D01*
X8726786Y-15912500D01*
X8726786Y-15983929D01*
X8712500Y-16041071D01*
X8698214Y-16069643D01*
X8683928Y-16083929D01*
X8655357Y-16098214D01*
X8626786Y-16098214D01*
X8598214Y-16083929D01*
X8583928Y-16069643D01*
X8569643Y-16041071D01*
X8555357Y-15983929D01*
X8555357Y-15912500D01*
X8569643Y-15855357D01*
X8583928Y-15826786D01*
X8598214Y-15812500D01*
X8626786Y-15798214D01*
X8912500Y-15798214D02*
X8941071Y-15798214D01*
X8969643Y-15812500D01*
X8983928Y-15826786D01*
X8998214Y-15855357D01*
X9012500Y-15912500D01*
X9012500Y-15983929D01*
X8998214Y-16041071D01*
X8983928Y-16069643D01*
X8969643Y-16083929D01*
X8941071Y-16098214D01*
X8912500Y-16098214D01*
X8883928Y-16083929D01*
X8869643Y-16069643D01*
X8855357Y-16041071D01*
X8841071Y-15983929D01*
X8841071Y-15912500D01*
X8855357Y-15855357D01*
X8869643Y-15826786D01*
X8883928Y-15812500D01*
X8912500Y-15798214D01*
X9112500Y-15798214D02*
X9312500Y-15798214D01*
X9183928Y-16098214D01*
X9441071Y-16098214D02*
X9498214Y-16098214D01*
X9526786Y-16083929D01*
X9541071Y-16069643D01*
X9569643Y-16026786D01*
X9583928Y-15969643D01*
X9583928Y-15855357D01*
X9569643Y-15826786D01*
X9555357Y-15812500D01*
X9526786Y-15798214D01*
X9469643Y-15798214D01*
X9441071Y-15812500D01*
X9426786Y-15826786D01*
X9412500Y-15855357D01*
X9412500Y-15926786D01*
X9426786Y-15955357D01*
X9441071Y-15969643D01*
X9469643Y-15983929D01*
X9526786Y-15983929D01*
X9555357Y-15969643D01*
X9569643Y-15955357D01*
X9583928Y-15926786D01*
X9698214Y-15798214D02*
X9698214Y-15855357D01*
X9812500Y-15798214D02*
X9812500Y-15855357D01*
X10255357Y-16212500D02*
X10241071Y-16198214D01*
X10212500Y-16155357D01*
X10198214Y-16126786D01*
X10183928Y-16083929D01*
X10169643Y-16012500D01*
X10169643Y-15955357D01*
X10183928Y-15883929D01*
X10198214Y-15841071D01*
X10212500Y-15812500D01*
X10241071Y-15769643D01*
X10255357Y-15755357D01*
X10383928Y-16098214D02*
X10441071Y-16098214D01*
X10469643Y-16083929D01*
X10483928Y-16069643D01*
X10512500Y-16026786D01*
X10526786Y-15969643D01*
X10526786Y-15855357D01*
X10512500Y-15826786D01*
X10498214Y-15812500D01*
X10469643Y-15798214D01*
X10412500Y-15798214D01*
X10383928Y-15812500D01*
X10369643Y-15826786D01*
X10355357Y-15855357D01*
X10355357Y-15926786D01*
X10369643Y-15955357D01*
X10383928Y-15969643D01*
X10412500Y-15983929D01*
X10469643Y-15983929D01*
X10498214Y-15969643D01*
X10512500Y-15955357D01*
X10526786Y-15926786D01*
X10883928Y-16098214D02*
X10883928Y-15798214D01*
X11012500Y-16098214D02*
X11012500Y-15941071D01*
X10998214Y-15912500D01*
X10969643Y-15898214D01*
X10926786Y-15898214D01*
X10898214Y-15912500D01*
X10883928Y-15926786D01*
X11198214Y-16098214D02*
X11169643Y-16083929D01*
X11155357Y-16069643D01*
X11141071Y-16041071D01*
X11141071Y-15955357D01*
X11155357Y-15926786D01*
X11169643Y-15912500D01*
X11198214Y-15898214D01*
X11241071Y-15898214D01*
X11269643Y-15912500D01*
X11283928Y-15926786D01*
X11298214Y-15955357D01*
X11298214Y-16041071D01*
X11283928Y-16069643D01*
X11269643Y-16083929D01*
X11241071Y-16098214D01*
X11198214Y-16098214D01*
X11469643Y-16098214D02*
X11441071Y-16083929D01*
X11426786Y-16055357D01*
X11426786Y-15798214D01*
X11698214Y-16083929D02*
X11669643Y-16098214D01*
X11612500Y-16098214D01*
X11583928Y-16083929D01*
X11569643Y-16055357D01*
X11569643Y-15941071D01*
X11583928Y-15912500D01*
X11612500Y-15898214D01*
X11669643Y-15898214D01*
X11698214Y-15912500D01*
X11712500Y-15941071D01*
X11712500Y-15969643D01*
X11569643Y-15998214D01*
X11826786Y-16083929D02*
X11855357Y-16098214D01*
X11912500Y-16098214D01*
X11941071Y-16083929D01*
X11955357Y-16055357D01*
X11955357Y-16041071D01*
X11941071Y-16012500D01*
X11912500Y-15998214D01*
X11869643Y-15998214D01*
X11841071Y-15983929D01*
X11826786Y-15955357D01*
X11826786Y-15941071D01*
X11841071Y-15912500D01*
X11869643Y-15898214D01*
X11912500Y-15898214D01*
X11941071Y-15912500D01*
X12055357Y-16212500D02*
X12069643Y-16198214D01*
X12098214Y-16155357D01*
X12112500Y-16126786D01*
X12126786Y-16083929D01*
X12141071Y-16012500D01*
X12141071Y-15955357D01*
X12126786Y-15883929D01*
X12112500Y-15841071D01*
X12098214Y-15812500D01*
X12069643Y-15769643D01*
X12055357Y-15755357D01*
X4997500Y-16358500D02*
G75*
G03*
X4997500Y-16358500I-20000J0D01*
G01*
X5341071Y-16194214D02*
X5369643Y-16194214D01*
X5398214Y-16208500D01*
X5412500Y-16222786D01*
X5426786Y-16251357D01*
X5441071Y-16308500D01*
X5441071Y-16379929D01*
X5426786Y-16437071D01*
X5412500Y-16465643D01*
X5398214Y-16479929D01*
X5369643Y-16494214D01*
X5341071Y-16494214D01*
X5312500Y-16479929D01*
X5298214Y-16465643D01*
X5283928Y-16437071D01*
X5269643Y-16379929D01*
X5269643Y-16308500D01*
X5283928Y-16251357D01*
X5298214Y-16222786D01*
X5312500Y-16208500D01*
X5341071Y-16194214D01*
X5569643Y-16465643D02*
X5583928Y-16479929D01*
X5569643Y-16494214D01*
X5555357Y-16479929D01*
X5569643Y-16465643D01*
X5569643Y-16494214D01*
X5841071Y-16294214D02*
X5841071Y-16494214D01*
X5769643Y-16179929D02*
X5698214Y-16394214D01*
X5883928Y-16394214D01*
X6055357Y-16194214D02*
X6083928Y-16194214D01*
X6112500Y-16208500D01*
X6126786Y-16222786D01*
X6141071Y-16251357D01*
X6155357Y-16308500D01*
X6155357Y-16379929D01*
X6141071Y-16437071D01*
X6126786Y-16465643D01*
X6112500Y-16479929D01*
X6083928Y-16494214D01*
X6055357Y-16494214D01*
X6026786Y-16479929D01*
X6012500Y-16465643D01*
X5998214Y-16437071D01*
X5983928Y-16379929D01*
X5983928Y-16308500D01*
X5998214Y-16251357D01*
X6012500Y-16222786D01*
X6026786Y-16208500D01*
X6055357Y-16194214D01*
X6341071Y-16194214D02*
X6369643Y-16194214D01*
X6398214Y-16208500D01*
X6412500Y-16222786D01*
X6426786Y-16251357D01*
X6441071Y-16308500D01*
X6441071Y-16379929D01*
X6426786Y-16437071D01*
X6412500Y-16465643D01*
X6398214Y-16479929D01*
X6369643Y-16494214D01*
X6341071Y-16494214D01*
X6312500Y-16479929D01*
X6298214Y-16465643D01*
X6283928Y-16437071D01*
X6269643Y-16379929D01*
X6269643Y-16308500D01*
X6283928Y-16251357D01*
X6298214Y-16222786D01*
X6312500Y-16208500D01*
X6341071Y-16194214D01*
X6569643Y-16494214D02*
X6569643Y-16294214D01*
X6569643Y-16322786D02*
X6583928Y-16308500D01*
X6612500Y-16294214D01*
X6655357Y-16294214D01*
X6683928Y-16308500D01*
X6698214Y-16337071D01*
X6698214Y-16494214D01*
X6698214Y-16337071D02*
X6712500Y-16308500D01*
X6741071Y-16294214D01*
X6783928Y-16294214D01*
X6812500Y-16308500D01*
X6826786Y-16337071D01*
X6826786Y-16494214D01*
X6969643Y-16494214D02*
X6969643Y-16294214D01*
X6969643Y-16322786D02*
X6983928Y-16308500D01*
X7012500Y-16294214D01*
X7055357Y-16294214D01*
X7083928Y-16308500D01*
X7098214Y-16337071D01*
X7098214Y-16494214D01*
X7098214Y-16337071D02*
X7112500Y-16308500D01*
X7141071Y-16294214D01*
X7183928Y-16294214D01*
X7212500Y-16308500D01*
X7226786Y-16337071D01*
X7226786Y-16494214D01*
X7812500Y-16179929D02*
X7555357Y-16565643D01*
X8198214Y-16194214D02*
X8226786Y-16194214D01*
X8255357Y-16208500D01*
X8269643Y-16222786D01*
X8283928Y-16251357D01*
X8298214Y-16308500D01*
X8298214Y-16379929D01*
X8283928Y-16437071D01*
X8269643Y-16465643D01*
X8255357Y-16479929D01*
X8226786Y-16494214D01*
X8198214Y-16494214D01*
X8169643Y-16479929D01*
X8155357Y-16465643D01*
X8141071Y-16437071D01*
X8126786Y-16379929D01*
X8126786Y-16308500D01*
X8141071Y-16251357D01*
X8155357Y-16222786D01*
X8169643Y-16208500D01*
X8198214Y-16194214D01*
X8426786Y-16465643D02*
X8441071Y-16479929D01*
X8426786Y-16494214D01*
X8412500Y-16479929D01*
X8426786Y-16465643D01*
X8426786Y-16494214D01*
X8626786Y-16194214D02*
X8655357Y-16194214D01*
X8683928Y-16208500D01*
X8698214Y-16222786D01*
X8712500Y-16251357D01*
X8726786Y-16308500D01*
X8726786Y-16379929D01*
X8712500Y-16437071D01*
X8698214Y-16465643D01*
X8683928Y-16479929D01*
X8655357Y-16494214D01*
X8626786Y-16494214D01*
X8598214Y-16479929D01*
X8583928Y-16465643D01*
X8569643Y-16437071D01*
X8555357Y-16379929D01*
X8555357Y-16308500D01*
X8569643Y-16251357D01*
X8583928Y-16222786D01*
X8598214Y-16208500D01*
X8626786Y-16194214D01*
X9012500Y-16494214D02*
X8841071Y-16494214D01*
X8926786Y-16494214D02*
X8926786Y-16194214D01*
X8898214Y-16237071D01*
X8869643Y-16265643D01*
X8841071Y-16279929D01*
X9283928Y-16194214D02*
X9141071Y-16194214D01*
X9126786Y-16337071D01*
X9141071Y-16322786D01*
X9169643Y-16308500D01*
X9241071Y-16308500D01*
X9269643Y-16322786D01*
X9283928Y-16337071D01*
X9298214Y-16365643D01*
X9298214Y-16437071D01*
X9283928Y-16465643D01*
X9269643Y-16479929D01*
X9241071Y-16494214D01*
X9169643Y-16494214D01*
X9141071Y-16479929D01*
X9126786Y-16465643D01*
X9398214Y-16194214D02*
X9598214Y-16194214D01*
X9469643Y-16494214D01*
X9698214Y-16194214D02*
X9698214Y-16251357D01*
X9812500Y-16194214D02*
X9812500Y-16251357D01*
X10255357Y-16608500D02*
X10241071Y-16594214D01*
X10212500Y-16551357D01*
X10198214Y-16522786D01*
X10183928Y-16479929D01*
X10169643Y-16408500D01*
X10169643Y-16351357D01*
X10183928Y-16279929D01*
X10198214Y-16237071D01*
X10212500Y-16208500D01*
X10241071Y-16165643D01*
X10255357Y-16151357D01*
X10526786Y-16494214D02*
X10355357Y-16494214D01*
X10441071Y-16494214D02*
X10441071Y-16194214D01*
X10412500Y-16237071D01*
X10383928Y-16265643D01*
X10355357Y-16279929D01*
X10641071Y-16222786D02*
X10655357Y-16208500D01*
X10683928Y-16194214D01*
X10755357Y-16194214D01*
X10783928Y-16208500D01*
X10798214Y-16222786D01*
X10812500Y-16251357D01*
X10812500Y-16279929D01*
X10798214Y-16322786D01*
X10626786Y-16494214D01*
X10812500Y-16494214D01*
X10912500Y-16194214D02*
X11098214Y-16194214D01*
X10998214Y-16308500D01*
X11041071Y-16308500D01*
X11069643Y-16322786D01*
X11083928Y-16337071D01*
X11098214Y-16365643D01*
X11098214Y-16437071D01*
X11083928Y-16465643D01*
X11069643Y-16479929D01*
X11041071Y-16494214D01*
X10955357Y-16494214D01*
X10926786Y-16479929D01*
X10912500Y-16465643D01*
X11455357Y-16494214D02*
X11455357Y-16194214D01*
X11583928Y-16494214D02*
X11583928Y-16337071D01*
X11569643Y-16308500D01*
X11541071Y-16294214D01*
X11498214Y-16294214D01*
X11469643Y-16308500D01*
X11455357Y-16322786D01*
X11769643Y-16494214D02*
X11741071Y-16479929D01*
X11726786Y-16465643D01*
X11712500Y-16437071D01*
X11712500Y-16351357D01*
X11726786Y-16322786D01*
X11741071Y-16308500D01*
X11769643Y-16294214D01*
X11812500Y-16294214D01*
X11841071Y-16308500D01*
X11855357Y-16322786D01*
X11869643Y-16351357D01*
X11869643Y-16437071D01*
X11855357Y-16465643D01*
X11841071Y-16479929D01*
X11812500Y-16494214D01*
X11769643Y-16494214D01*
X12041071Y-16494214D02*
X12012500Y-16479929D01*
X11998214Y-16451357D01*
X11998214Y-16194214D01*
X12269643Y-16479929D02*
X12241071Y-16494214D01*
X12183928Y-16494214D01*
X12155357Y-16479929D01*
X12141071Y-16451357D01*
X12141071Y-16337071D01*
X12155357Y-16308500D01*
X12183928Y-16294214D01*
X12241071Y-16294214D01*
X12269643Y-16308500D01*
X12283928Y-16337071D01*
X12283928Y-16365643D01*
X12141071Y-16394214D01*
X12398214Y-16479929D02*
X12426786Y-16494214D01*
X12483928Y-16494214D01*
X12512500Y-16479929D01*
X12526786Y-16451357D01*
X12526786Y-16437071D01*
X12512500Y-16408500D01*
X12483928Y-16394214D01*
X12441071Y-16394214D01*
X12412500Y-16379929D01*
X12398214Y-16351357D01*
X12398214Y-16337071D01*
X12412500Y-16308500D01*
X12441071Y-16294214D01*
X12483928Y-16294214D01*
X12512500Y-16308500D01*
X12626786Y-16608500D02*
X12641071Y-16594214D01*
X12669643Y-16551357D01*
X12683928Y-16522786D01*
X12698214Y-16479929D01*
X12712500Y-16408500D01*
X12712500Y-16351357D01*
X12698214Y-16279929D01*
X12683928Y-16237071D01*
X12669643Y-16208500D01*
X12641071Y-16165643D01*
X12626786Y-16151357D01*
X4957500Y-16714500D02*
X4957500Y-16794500D01*
X4917500Y-16754500D02*
X4997500Y-16754500D01*
X5341071Y-16590214D02*
X5369643Y-16590214D01*
X5398214Y-16604500D01*
X5412500Y-16618786D01*
X5426786Y-16647357D01*
X5441071Y-16704500D01*
X5441071Y-16775929D01*
X5426786Y-16833072D01*
X5412500Y-16861643D01*
X5398214Y-16875929D01*
X5369643Y-16890214D01*
X5341071Y-16890214D01*
X5312500Y-16875929D01*
X5298214Y-16861643D01*
X5283928Y-16833072D01*
X5269643Y-16775929D01*
X5269643Y-16704500D01*
X5283928Y-16647357D01*
X5298214Y-16618786D01*
X5312500Y-16604500D01*
X5341071Y-16590214D01*
X5569643Y-16861643D02*
X5583928Y-16875929D01*
X5569643Y-16890214D01*
X5555357Y-16875929D01*
X5569643Y-16861643D01*
X5569643Y-16890214D01*
X5755357Y-16718786D02*
X5726786Y-16704500D01*
X5712500Y-16690214D01*
X5698214Y-16661643D01*
X5698214Y-16647357D01*
X5712500Y-16618786D01*
X5726786Y-16604500D01*
X5755357Y-16590214D01*
X5812500Y-16590214D01*
X5841071Y-16604500D01*
X5855357Y-16618786D01*
X5869643Y-16647357D01*
X5869643Y-16661643D01*
X5855357Y-16690214D01*
X5841071Y-16704500D01*
X5812500Y-16718786D01*
X5755357Y-16718786D01*
X5726786Y-16733071D01*
X5712500Y-16747357D01*
X5698214Y-16775929D01*
X5698214Y-16833072D01*
X5712500Y-16861643D01*
X5726786Y-16875929D01*
X5755357Y-16890214D01*
X5812500Y-16890214D01*
X5841071Y-16875929D01*
X5855357Y-16861643D01*
X5869643Y-16833072D01*
X5869643Y-16775929D01*
X5855357Y-16747357D01*
X5841071Y-16733071D01*
X5812500Y-16718786D01*
X6055357Y-16590214D02*
X6083928Y-16590214D01*
X6112500Y-16604500D01*
X6126786Y-16618786D01*
X6141071Y-16647357D01*
X6155357Y-16704500D01*
X6155357Y-16775929D01*
X6141071Y-16833072D01*
X6126786Y-16861643D01*
X6112500Y-16875929D01*
X6083928Y-16890214D01*
X6055357Y-16890214D01*
X6026786Y-16875929D01*
X6012500Y-16861643D01*
X5998214Y-16833072D01*
X5983928Y-16775929D01*
X5983928Y-16704500D01*
X5998214Y-16647357D01*
X6012500Y-16618786D01*
X6026786Y-16604500D01*
X6055357Y-16590214D01*
X6341071Y-16590214D02*
X6369643Y-16590214D01*
X6398214Y-16604500D01*
X6412500Y-16618786D01*
X6426786Y-16647357D01*
X6441071Y-16704500D01*
X6441071Y-16775929D01*
X6426786Y-16833072D01*
X6412500Y-16861643D01*
X6398214Y-16875929D01*
X6369643Y-16890214D01*
X6341071Y-16890214D01*
X6312500Y-16875929D01*
X6298214Y-16861643D01*
X6283928Y-16833072D01*
X6269643Y-16775929D01*
X6269643Y-16704500D01*
X6283928Y-16647357D01*
X6298214Y-16618786D01*
X6312500Y-16604500D01*
X6341071Y-16590214D01*
X6569643Y-16890214D02*
X6569643Y-16690214D01*
X6569643Y-16718786D02*
X6583928Y-16704500D01*
X6612500Y-16690214D01*
X6655357Y-16690214D01*
X6683928Y-16704500D01*
X6698214Y-16733071D01*
X6698214Y-16890214D01*
X6698214Y-16733071D02*
X6712500Y-16704500D01*
X6741071Y-16690214D01*
X6783928Y-16690214D01*
X6812500Y-16704500D01*
X6826786Y-16733071D01*
X6826786Y-16890214D01*
X6969643Y-16890214D02*
X6969643Y-16690214D01*
X6969643Y-16718786D02*
X6983928Y-16704500D01*
X7012500Y-16690214D01*
X7055357Y-16690214D01*
X7083928Y-16704500D01*
X7098214Y-16733071D01*
X7098214Y-16890214D01*
X7098214Y-16733071D02*
X7112500Y-16704500D01*
X7141071Y-16690214D01*
X7183928Y-16690214D01*
X7212500Y-16704500D01*
X7226786Y-16733071D01*
X7226786Y-16890214D01*
X7812500Y-16575929D02*
X7555357Y-16961643D01*
X8198214Y-16590214D02*
X8226786Y-16590214D01*
X8255357Y-16604500D01*
X8269643Y-16618786D01*
X8283928Y-16647357D01*
X8298214Y-16704500D01*
X8298214Y-16775929D01*
X8283928Y-16833072D01*
X8269643Y-16861643D01*
X8255357Y-16875929D01*
X8226786Y-16890214D01*
X8198214Y-16890214D01*
X8169643Y-16875929D01*
X8155357Y-16861643D01*
X8141071Y-16833072D01*
X8126786Y-16775929D01*
X8126786Y-16704500D01*
X8141071Y-16647357D01*
X8155357Y-16618786D01*
X8169643Y-16604500D01*
X8198214Y-16590214D01*
X8426786Y-16861643D02*
X8441071Y-16875929D01*
X8426786Y-16890214D01*
X8412500Y-16875929D01*
X8426786Y-16861643D01*
X8426786Y-16890214D01*
X8626786Y-16590214D02*
X8655357Y-16590214D01*
X8683928Y-16604500D01*
X8698214Y-16618786D01*
X8712500Y-16647357D01*
X8726786Y-16704500D01*
X8726786Y-16775929D01*
X8712500Y-16833072D01*
X8698214Y-16861643D01*
X8683928Y-16875929D01*
X8655357Y-16890214D01*
X8626786Y-16890214D01*
X8598214Y-16875929D01*
X8583928Y-16861643D01*
X8569643Y-16833072D01*
X8555357Y-16775929D01*
X8555357Y-16704500D01*
X8569643Y-16647357D01*
X8583928Y-16618786D01*
X8598214Y-16604500D01*
X8626786Y-16590214D01*
X8826786Y-16590214D02*
X9012500Y-16590214D01*
X8912500Y-16704500D01*
X8955357Y-16704500D01*
X8983928Y-16718786D01*
X8998214Y-16733071D01*
X9012500Y-16761643D01*
X9012500Y-16833072D01*
X8998214Y-16861643D01*
X8983928Y-16875929D01*
X8955357Y-16890214D01*
X8869643Y-16890214D01*
X8841071Y-16875929D01*
X8826786Y-16861643D01*
X9298214Y-16890214D02*
X9126786Y-16890214D01*
X9212500Y-16890214D02*
X9212500Y-16590214D01*
X9183928Y-16633071D01*
X9155357Y-16661643D01*
X9126786Y-16675929D01*
X9569643Y-16590214D02*
X9426786Y-16590214D01*
X9412500Y-16733071D01*
X9426786Y-16718786D01*
X9455357Y-16704500D01*
X9526786Y-16704500D01*
X9555357Y-16718786D01*
X9569643Y-16733071D01*
X9583928Y-16761643D01*
X9583928Y-16833072D01*
X9569643Y-16861643D01*
X9555357Y-16875929D01*
X9526786Y-16890214D01*
X9455357Y-16890214D01*
X9426786Y-16875929D01*
X9412500Y-16861643D01*
X9698214Y-16590214D02*
X9698214Y-16647357D01*
X9812500Y-16590214D02*
X9812500Y-16647357D01*
X10255357Y-17004500D02*
X10241071Y-16990214D01*
X10212500Y-16947357D01*
X10198214Y-16918786D01*
X10183928Y-16875929D01*
X10169643Y-16804500D01*
X10169643Y-16747357D01*
X10183928Y-16675929D01*
X10198214Y-16633071D01*
X10212500Y-16604500D01*
X10241071Y-16561643D01*
X10255357Y-16547357D01*
X10355357Y-16618786D02*
X10369643Y-16604500D01*
X10398214Y-16590214D01*
X10469643Y-16590214D01*
X10498214Y-16604500D01*
X10512500Y-16618786D01*
X10526786Y-16647357D01*
X10526786Y-16675929D01*
X10512500Y-16718786D01*
X10341071Y-16890214D01*
X10526786Y-16890214D01*
X10883928Y-16890214D02*
X10883928Y-16590214D01*
X11012500Y-16890214D02*
X11012500Y-16733071D01*
X10998214Y-16704500D01*
X10969643Y-16690214D01*
X10926786Y-16690214D01*
X10898214Y-16704500D01*
X10883928Y-16718786D01*
X11198214Y-16890214D02*
X11169643Y-16875929D01*
X11155357Y-16861643D01*
X11141071Y-16833072D01*
X11141071Y-16747357D01*
X11155357Y-16718786D01*
X11169643Y-16704500D01*
X11198214Y-16690214D01*
X11241071Y-16690214D01*
X11269643Y-16704500D01*
X11283928Y-16718786D01*
X11298214Y-16747357D01*
X11298214Y-16833072D01*
X11283928Y-16861643D01*
X11269643Y-16875929D01*
X11241071Y-16890214D01*
X11198214Y-16890214D01*
X11469643Y-16890214D02*
X11441071Y-16875929D01*
X11426786Y-16847357D01*
X11426786Y-16590214D01*
X11698214Y-16875929D02*
X11669643Y-16890214D01*
X11612500Y-16890214D01*
X11583928Y-16875929D01*
X11569643Y-16847357D01*
X11569643Y-16733071D01*
X11583928Y-16704500D01*
X11612500Y-16690214D01*
X11669643Y-16690214D01*
X11698214Y-16704500D01*
X11712500Y-16733071D01*
X11712500Y-16761643D01*
X11569643Y-16790214D01*
X11826786Y-16875929D02*
X11855357Y-16890214D01*
X11912500Y-16890214D01*
X11941071Y-16875929D01*
X11955357Y-16847357D01*
X11955357Y-16833072D01*
X11941071Y-16804500D01*
X11912500Y-16790214D01*
X11869643Y-16790214D01*
X11841071Y-16775929D01*
X11826786Y-16747357D01*
X11826786Y-16733071D01*
X11841071Y-16704500D01*
X11869643Y-16690214D01*
X11912500Y-16690214D01*
X11941071Y-16704500D01*
X12055357Y-17004500D02*
X12069643Y-16990214D01*
X12098214Y-16947357D01*
X12112500Y-16918786D01*
X12126786Y-16875929D01*
X12141071Y-16804500D01*
X12141071Y-16747357D01*
X12126786Y-16675929D01*
X12112500Y-16633071D01*
X12098214Y-16604500D01*
X12069643Y-16561643D01*
X12055357Y-16547357D01*
X4984467Y-17181967D02*
X4984467Y-17119034D01*
X4921533Y-17119034D01*
X4921533Y-17181967D01*
X4984467Y-17181967D01*
X5341071Y-16986214D02*
X5369643Y-16986214D01*
X5398214Y-17000500D01*
X5412500Y-17014786D01*
X5426786Y-17043357D01*
X5441071Y-17100500D01*
X5441071Y-17171929D01*
X5426786Y-17229072D01*
X5412500Y-17257643D01*
X5398214Y-17271929D01*
X5369643Y-17286214D01*
X5341071Y-17286214D01*
X5312500Y-17271929D01*
X5298214Y-17257643D01*
X5283928Y-17229072D01*
X5269643Y-17171929D01*
X5269643Y-17100500D01*
X5283928Y-17043357D01*
X5298214Y-17014786D01*
X5312500Y-17000500D01*
X5341071Y-16986214D01*
X5569643Y-17257643D02*
X5583928Y-17271929D01*
X5569643Y-17286214D01*
X5555357Y-17271929D01*
X5569643Y-17257643D01*
X5569643Y-17286214D01*
X5755357Y-17114786D02*
X5726786Y-17100500D01*
X5712500Y-17086214D01*
X5698214Y-17057643D01*
X5698214Y-17043357D01*
X5712500Y-17014786D01*
X5726786Y-17000500D01*
X5755357Y-16986214D01*
X5812500Y-16986214D01*
X5841071Y-17000500D01*
X5855357Y-17014786D01*
X5869643Y-17043357D01*
X5869643Y-17057643D01*
X5855357Y-17086214D01*
X5841071Y-17100500D01*
X5812500Y-17114786D01*
X5755357Y-17114786D01*
X5726786Y-17129072D01*
X5712500Y-17143357D01*
X5698214Y-17171929D01*
X5698214Y-17229072D01*
X5712500Y-17257643D01*
X5726786Y-17271929D01*
X5755357Y-17286214D01*
X5812500Y-17286214D01*
X5841071Y-17271929D01*
X5855357Y-17257643D01*
X5869643Y-17229072D01*
X5869643Y-17171929D01*
X5855357Y-17143357D01*
X5841071Y-17129072D01*
X5812500Y-17114786D01*
X6012500Y-17286214D02*
X6069643Y-17286214D01*
X6098214Y-17271929D01*
X6112500Y-17257643D01*
X6141071Y-17214786D01*
X6155357Y-17157643D01*
X6155357Y-17043357D01*
X6141071Y-17014786D01*
X6126786Y-17000500D01*
X6098214Y-16986214D01*
X6041071Y-16986214D01*
X6012500Y-17000500D01*
X5998214Y-17014786D01*
X5983928Y-17043357D01*
X5983928Y-17114786D01*
X5998214Y-17143357D01*
X6012500Y-17157643D01*
X6041071Y-17171929D01*
X6098214Y-17171929D01*
X6126786Y-17157643D01*
X6141071Y-17143357D01*
X6155357Y-17114786D01*
X6341071Y-16986214D02*
X6369643Y-16986214D01*
X6398214Y-17000500D01*
X6412500Y-17014786D01*
X6426786Y-17043357D01*
X6441071Y-17100500D01*
X6441071Y-17171929D01*
X6426786Y-17229072D01*
X6412500Y-17257643D01*
X6398214Y-17271929D01*
X6369643Y-17286214D01*
X6341071Y-17286214D01*
X6312500Y-17271929D01*
X6298214Y-17257643D01*
X6283928Y-17229072D01*
X6269643Y-17171929D01*
X6269643Y-17100500D01*
X6283928Y-17043357D01*
X6298214Y-17014786D01*
X6312500Y-17000500D01*
X6341071Y-16986214D01*
X6569643Y-17286214D02*
X6569643Y-17086214D01*
X6569643Y-17114786D02*
X6583928Y-17100500D01*
X6612500Y-17086214D01*
X6655357Y-17086214D01*
X6683928Y-17100500D01*
X6698214Y-17129072D01*
X6698214Y-17286214D01*
X6698214Y-17129072D02*
X6712500Y-17100500D01*
X6741071Y-17086214D01*
X6783928Y-17086214D01*
X6812500Y-17100500D01*
X6826786Y-17129072D01*
X6826786Y-17286214D01*
X6969643Y-17286214D02*
X6969643Y-17086214D01*
X6969643Y-17114786D02*
X6983928Y-17100500D01*
X7012500Y-17086214D01*
X7055357Y-17086214D01*
X7083928Y-17100500D01*
X7098214Y-17129072D01*
X7098214Y-17286214D01*
X7098214Y-17129072D02*
X7112500Y-17100500D01*
X7141071Y-17086214D01*
X7183928Y-17086214D01*
X7212500Y-17100500D01*
X7226786Y-17129072D01*
X7226786Y-17286214D01*
X7812500Y-16971929D02*
X7555357Y-17357643D01*
X8198214Y-16986214D02*
X8226786Y-16986214D01*
X8255357Y-17000500D01*
X8269643Y-17014786D01*
X8283928Y-17043357D01*
X8298214Y-17100500D01*
X8298214Y-17171929D01*
X8283928Y-17229072D01*
X8269643Y-17257643D01*
X8255357Y-17271929D01*
X8226786Y-17286214D01*
X8198214Y-17286214D01*
X8169643Y-17271929D01*
X8155357Y-17257643D01*
X8141071Y-17229072D01*
X8126786Y-17171929D01*
X8126786Y-17100500D01*
X8141071Y-17043357D01*
X8155357Y-17014786D01*
X8169643Y-17000500D01*
X8198214Y-16986214D01*
X8426786Y-17257643D02*
X8441071Y-17271929D01*
X8426786Y-17286214D01*
X8412500Y-17271929D01*
X8426786Y-17257643D01*
X8426786Y-17286214D01*
X8626786Y-16986214D02*
X8655357Y-16986214D01*
X8683928Y-17000500D01*
X8698214Y-17014786D01*
X8712500Y-17043357D01*
X8726786Y-17100500D01*
X8726786Y-17171929D01*
X8712500Y-17229072D01*
X8698214Y-17257643D01*
X8683928Y-17271929D01*
X8655357Y-17286214D01*
X8626786Y-17286214D01*
X8598214Y-17271929D01*
X8583928Y-17257643D01*
X8569643Y-17229072D01*
X8555357Y-17171929D01*
X8555357Y-17100500D01*
X8569643Y-17043357D01*
X8583928Y-17014786D01*
X8598214Y-17000500D01*
X8626786Y-16986214D01*
X8826786Y-16986214D02*
X9012500Y-16986214D01*
X8912500Y-17100500D01*
X8955357Y-17100500D01*
X8983928Y-17114786D01*
X8998214Y-17129072D01*
X9012500Y-17157643D01*
X9012500Y-17229072D01*
X8998214Y-17257643D01*
X8983928Y-17271929D01*
X8955357Y-17286214D01*
X8869643Y-17286214D01*
X8841071Y-17271929D01*
X8826786Y-17257643D01*
X9283928Y-16986214D02*
X9141071Y-16986214D01*
X9126786Y-17129072D01*
X9141071Y-17114786D01*
X9169643Y-17100500D01*
X9241071Y-17100500D01*
X9269643Y-17114786D01*
X9283928Y-17129072D01*
X9298214Y-17157643D01*
X9298214Y-17229072D01*
X9283928Y-17257643D01*
X9269643Y-17271929D01*
X9241071Y-17286214D01*
X9169643Y-17286214D01*
X9141071Y-17271929D01*
X9126786Y-17257643D01*
X9483928Y-16986214D02*
X9512500Y-16986214D01*
X9541071Y-17000500D01*
X9555357Y-17014786D01*
X9569643Y-17043357D01*
X9583928Y-17100500D01*
X9583928Y-17171929D01*
X9569643Y-17229072D01*
X9555357Y-17257643D01*
X9541071Y-17271929D01*
X9512500Y-17286214D01*
X9483928Y-17286214D01*
X9455357Y-17271929D01*
X9441071Y-17257643D01*
X9426786Y-17229072D01*
X9412500Y-17171929D01*
X9412500Y-17100500D01*
X9426786Y-17043357D01*
X9441071Y-17014786D01*
X9455357Y-17000500D01*
X9483928Y-16986214D01*
X9698214Y-16986214D02*
X9698214Y-17043357D01*
X9812500Y-16986214D02*
X9812500Y-17043357D01*
X10255357Y-17400500D02*
X10241071Y-17386214D01*
X10212500Y-17343357D01*
X10198214Y-17314786D01*
X10183928Y-17271929D01*
X10169643Y-17200500D01*
X10169643Y-17143357D01*
X10183928Y-17071929D01*
X10198214Y-17029072D01*
X10212500Y-17000500D01*
X10241071Y-16957643D01*
X10255357Y-16943357D01*
X10412500Y-17114786D02*
X10383928Y-17100500D01*
X10369643Y-17086214D01*
X10355357Y-17057643D01*
X10355357Y-17043357D01*
X10369643Y-17014786D01*
X10383928Y-17000500D01*
X10412500Y-16986214D01*
X10469643Y-16986214D01*
X10498214Y-17000500D01*
X10512500Y-17014786D01*
X10526786Y-17043357D01*
X10526786Y-17057643D01*
X10512500Y-17086214D01*
X10498214Y-17100500D01*
X10469643Y-17114786D01*
X10412500Y-17114786D01*
X10383928Y-17129072D01*
X10369643Y-17143357D01*
X10355357Y-17171929D01*
X10355357Y-17229072D01*
X10369643Y-17257643D01*
X10383928Y-17271929D01*
X10412500Y-17286214D01*
X10469643Y-17286214D01*
X10498214Y-17271929D01*
X10512500Y-17257643D01*
X10526786Y-17229072D01*
X10526786Y-17171929D01*
X10512500Y-17143357D01*
X10498214Y-17129072D01*
X10469643Y-17114786D01*
X10883928Y-17286214D02*
X10883928Y-16986214D01*
X11012500Y-17286214D02*
X11012500Y-17129072D01*
X10998214Y-17100500D01*
X10969643Y-17086214D01*
X10926786Y-17086214D01*
X10898214Y-17100500D01*
X10883928Y-17114786D01*
X11198214Y-17286214D02*
X11169643Y-17271929D01*
X11155357Y-17257643D01*
X11141071Y-17229072D01*
X11141071Y-17143357D01*
X11155357Y-17114786D01*
X11169643Y-17100500D01*
X11198214Y-17086214D01*
X11241071Y-17086214D01*
X11269643Y-17100500D01*
X11283928Y-17114786D01*
X11298214Y-17143357D01*
X11298214Y-17229072D01*
X11283928Y-17257643D01*
X11269643Y-17271929D01*
X11241071Y-17286214D01*
X11198214Y-17286214D01*
X11469643Y-17286214D02*
X11441071Y-17271929D01*
X11426786Y-17243357D01*
X11426786Y-16986214D01*
X11698214Y-17271929D02*
X11669643Y-17286214D01*
X11612500Y-17286214D01*
X11583928Y-17271929D01*
X11569643Y-17243357D01*
X11569643Y-17129072D01*
X11583928Y-17100500D01*
X11612500Y-17086214D01*
X11669643Y-17086214D01*
X11698214Y-17100500D01*
X11712500Y-17129072D01*
X11712500Y-17157643D01*
X11569643Y-17186214D01*
X11826786Y-17271929D02*
X11855357Y-17286214D01*
X11912500Y-17286214D01*
X11941071Y-17271929D01*
X11955357Y-17243357D01*
X11955357Y-17229072D01*
X11941071Y-17200500D01*
X11912500Y-17186214D01*
X11869643Y-17186214D01*
X11841071Y-17171929D01*
X11826786Y-17143357D01*
X11826786Y-17129072D01*
X11841071Y-17100500D01*
X11869643Y-17086214D01*
X11912500Y-17086214D01*
X11941071Y-17100500D01*
X12055357Y-17400500D02*
X12069643Y-17386214D01*
X12098214Y-17343357D01*
X12112500Y-17314786D01*
X12126786Y-17271929D01*
X12141071Y-17200500D01*
X12141071Y-17143357D01*
X12126786Y-17071929D01*
X12112500Y-17029072D01*
X12098214Y-17000500D01*
X12069643Y-16957643D01*
X12055357Y-16943357D01*
X4952500Y-17591500D02*
X4997500Y-17546500D01*
X4952500Y-17501500D01*
X4907500Y-17546500D01*
X4952500Y-17591500D01*
X5341071Y-17382214D02*
X5369643Y-17382214D01*
X5398214Y-17396500D01*
X5412500Y-17410786D01*
X5426786Y-17439357D01*
X5441071Y-17496500D01*
X5441071Y-17567929D01*
X5426786Y-17625072D01*
X5412500Y-17653643D01*
X5398214Y-17667929D01*
X5369643Y-17682214D01*
X5341071Y-17682214D01*
X5312500Y-17667929D01*
X5298214Y-17653643D01*
X5283928Y-17625072D01*
X5269643Y-17567929D01*
X5269643Y-17496500D01*
X5283928Y-17439357D01*
X5298214Y-17410786D01*
X5312500Y-17396500D01*
X5341071Y-17382214D01*
X5569643Y-17653643D02*
X5583928Y-17667929D01*
X5569643Y-17682214D01*
X5555357Y-17667929D01*
X5569643Y-17653643D01*
X5569643Y-17682214D01*
X5726786Y-17682214D02*
X5783928Y-17682214D01*
X5812500Y-17667929D01*
X5826786Y-17653643D01*
X5855357Y-17610786D01*
X5869643Y-17553643D01*
X5869643Y-17439357D01*
X5855357Y-17410786D01*
X5841071Y-17396500D01*
X5812500Y-17382214D01*
X5755357Y-17382214D01*
X5726786Y-17396500D01*
X5712500Y-17410786D01*
X5698214Y-17439357D01*
X5698214Y-17510786D01*
X5712500Y-17539357D01*
X5726786Y-17553643D01*
X5755357Y-17567929D01*
X5812500Y-17567929D01*
X5841071Y-17553643D01*
X5855357Y-17539357D01*
X5869643Y-17510786D01*
X6055357Y-17382214D02*
X6083928Y-17382214D01*
X6112500Y-17396500D01*
X6126786Y-17410786D01*
X6141071Y-17439357D01*
X6155357Y-17496500D01*
X6155357Y-17567929D01*
X6141071Y-17625072D01*
X6126786Y-17653643D01*
X6112500Y-17667929D01*
X6083928Y-17682214D01*
X6055357Y-17682214D01*
X6026786Y-17667929D01*
X6012500Y-17653643D01*
X5998214Y-17625072D01*
X5983928Y-17567929D01*
X5983928Y-17496500D01*
X5998214Y-17439357D01*
X6012500Y-17410786D01*
X6026786Y-17396500D01*
X6055357Y-17382214D01*
X6341071Y-17382214D02*
X6369643Y-17382214D01*
X6398214Y-17396500D01*
X6412500Y-17410786D01*
X6426786Y-17439357D01*
X6441071Y-17496500D01*
X6441071Y-17567929D01*
X6426786Y-17625072D01*
X6412500Y-17653643D01*
X6398214Y-17667929D01*
X6369643Y-17682214D01*
X6341071Y-17682214D01*
X6312500Y-17667929D01*
X6298214Y-17653643D01*
X6283928Y-17625072D01*
X6269643Y-17567929D01*
X6269643Y-17496500D01*
X6283928Y-17439357D01*
X6298214Y-17410786D01*
X6312500Y-17396500D01*
X6341071Y-17382214D01*
X6569643Y-17682214D02*
X6569643Y-17482214D01*
X6569643Y-17510786D02*
X6583928Y-17496500D01*
X6612500Y-17482214D01*
X6655357Y-17482214D01*
X6683928Y-17496500D01*
X6698214Y-17525072D01*
X6698214Y-17682214D01*
X6698214Y-17525072D02*
X6712500Y-17496500D01*
X6741071Y-17482214D01*
X6783928Y-17482214D01*
X6812500Y-17496500D01*
X6826786Y-17525072D01*
X6826786Y-17682214D01*
X6969643Y-17682214D02*
X6969643Y-17482214D01*
X6969643Y-17510786D02*
X6983928Y-17496500D01*
X7012500Y-17482214D01*
X7055357Y-17482214D01*
X7083928Y-17496500D01*
X7098214Y-17525072D01*
X7098214Y-17682214D01*
X7098214Y-17525072D02*
X7112500Y-17496500D01*
X7141071Y-17482214D01*
X7183928Y-17482214D01*
X7212500Y-17496500D01*
X7226786Y-17525072D01*
X7226786Y-17682214D01*
X7812500Y-17367929D02*
X7555357Y-17753643D01*
X8198214Y-17382214D02*
X8226786Y-17382214D01*
X8255357Y-17396500D01*
X8269643Y-17410786D01*
X8283928Y-17439357D01*
X8298214Y-17496500D01*
X8298214Y-17567929D01*
X8283928Y-17625072D01*
X8269643Y-17653643D01*
X8255357Y-17667929D01*
X8226786Y-17682214D01*
X8198214Y-17682214D01*
X8169643Y-17667929D01*
X8155357Y-17653643D01*
X8141071Y-17625072D01*
X8126786Y-17567929D01*
X8126786Y-17496500D01*
X8141071Y-17439357D01*
X8155357Y-17410786D01*
X8169643Y-17396500D01*
X8198214Y-17382214D01*
X8426786Y-17653643D02*
X8441071Y-17667929D01*
X8426786Y-17682214D01*
X8412500Y-17667929D01*
X8426786Y-17653643D01*
X8426786Y-17682214D01*
X8626786Y-17382214D02*
X8655357Y-17382214D01*
X8683928Y-17396500D01*
X8698214Y-17410786D01*
X8712500Y-17439357D01*
X8726786Y-17496500D01*
X8726786Y-17567929D01*
X8712500Y-17625072D01*
X8698214Y-17653643D01*
X8683928Y-17667929D01*
X8655357Y-17682214D01*
X8626786Y-17682214D01*
X8598214Y-17667929D01*
X8583928Y-17653643D01*
X8569643Y-17625072D01*
X8555357Y-17567929D01*
X8555357Y-17496500D01*
X8569643Y-17439357D01*
X8583928Y-17410786D01*
X8598214Y-17396500D01*
X8626786Y-17382214D01*
X8826786Y-17382214D02*
X9012500Y-17382214D01*
X8912500Y-17496500D01*
X8955357Y-17496500D01*
X8983928Y-17510786D01*
X8998214Y-17525072D01*
X9012500Y-17553643D01*
X9012500Y-17625072D01*
X8998214Y-17653643D01*
X8983928Y-17667929D01*
X8955357Y-17682214D01*
X8869643Y-17682214D01*
X8841071Y-17667929D01*
X8826786Y-17653643D01*
X9283928Y-17382214D02*
X9141071Y-17382214D01*
X9126786Y-17525072D01*
X9141071Y-17510786D01*
X9169643Y-17496500D01*
X9241071Y-17496500D01*
X9269643Y-17510786D01*
X9283928Y-17525072D01*
X9298214Y-17553643D01*
X9298214Y-17625072D01*
X9283928Y-17653643D01*
X9269643Y-17667929D01*
X9241071Y-17682214D01*
X9169643Y-17682214D01*
X9141071Y-17667929D01*
X9126786Y-17653643D01*
X9555357Y-17482214D02*
X9555357Y-17682214D01*
X9483928Y-17367929D02*
X9412500Y-17582214D01*
X9598214Y-17582214D01*
X9698214Y-17382214D02*
X9698214Y-17439357D01*
X9812500Y-17382214D02*
X9812500Y-17439357D01*
X10255357Y-17796500D02*
X10241071Y-17782214D01*
X10212500Y-17739357D01*
X10198214Y-17710786D01*
X10183928Y-17667929D01*
X10169643Y-17596500D01*
X10169643Y-17539357D01*
X10183928Y-17467929D01*
X10198214Y-17425072D01*
X10212500Y-17396500D01*
X10241071Y-17353643D01*
X10255357Y-17339357D01*
X10355357Y-17410786D02*
X10369643Y-17396500D01*
X10398214Y-17382214D01*
X10469643Y-17382214D01*
X10498214Y-17396500D01*
X10512500Y-17410786D01*
X10526786Y-17439357D01*
X10526786Y-17467929D01*
X10512500Y-17510786D01*
X10341071Y-17682214D01*
X10526786Y-17682214D01*
X10883928Y-17682214D02*
X10883928Y-17382214D01*
X11012500Y-17682214D02*
X11012500Y-17525072D01*
X10998214Y-17496500D01*
X10969643Y-17482214D01*
X10926786Y-17482214D01*
X10898214Y-17496500D01*
X10883928Y-17510786D01*
X11198214Y-17682214D02*
X11169643Y-17667929D01*
X11155357Y-17653643D01*
X11141071Y-17625072D01*
X11141071Y-17539357D01*
X11155357Y-17510786D01*
X11169643Y-17496500D01*
X11198214Y-17482214D01*
X11241071Y-17482214D01*
X11269643Y-17496500D01*
X11283928Y-17510786D01*
X11298214Y-17539357D01*
X11298214Y-17625072D01*
X11283928Y-17653643D01*
X11269643Y-17667929D01*
X11241071Y-17682214D01*
X11198214Y-17682214D01*
X11469643Y-17682214D02*
X11441071Y-17667929D01*
X11426786Y-17639357D01*
X11426786Y-17382214D01*
X11698214Y-17667929D02*
X11669643Y-17682214D01*
X11612500Y-17682214D01*
X11583928Y-17667929D01*
X11569643Y-17639357D01*
X11569643Y-17525072D01*
X11583928Y-17496500D01*
X11612500Y-17482214D01*
X11669643Y-17482214D01*
X11698214Y-17496500D01*
X11712500Y-17525072D01*
X11712500Y-17553643D01*
X11569643Y-17582214D01*
X11826786Y-17667929D02*
X11855357Y-17682214D01*
X11912500Y-17682214D01*
X11941071Y-17667929D01*
X11955357Y-17639357D01*
X11955357Y-17625072D01*
X11941071Y-17596500D01*
X11912500Y-17582214D01*
X11869643Y-17582214D01*
X11841071Y-17567929D01*
X11826786Y-17539357D01*
X11826786Y-17525072D01*
X11841071Y-17496500D01*
X11869643Y-17482214D01*
X11912500Y-17482214D01*
X11941071Y-17496500D01*
X12055357Y-17796500D02*
X12069643Y-17782214D01*
X12098214Y-17739357D01*
X12112500Y-17710786D01*
X12126786Y-17667929D01*
X12141071Y-17596500D01*
X12141071Y-17539357D01*
X12126786Y-17467929D01*
X12112500Y-17425072D01*
X12098214Y-17396500D01*
X12069643Y-17353643D01*
X12055357Y-17339357D01*
X4897500Y-17892500D02*
X4997500Y-17992500D01*
X4997500Y-17892500D02*
X4897500Y-17992500D01*
X4997500Y-17942500D02*
G75*
G03*
X4997500Y-17942500I-50000J0D01*
G01*
X5441071Y-18078214D02*
X5269643Y-18078214D01*
X5355357Y-18078214D02*
X5355357Y-17778214D01*
X5326786Y-17821072D01*
X5298214Y-17849643D01*
X5269643Y-17863929D01*
X5569643Y-18049643D02*
X5583928Y-18063929D01*
X5569643Y-18078214D01*
X5555357Y-18063929D01*
X5569643Y-18049643D01*
X5569643Y-18078214D01*
X5769643Y-17778214D02*
X5798214Y-17778214D01*
X5826786Y-17792500D01*
X5841071Y-17806786D01*
X5855357Y-17835357D01*
X5869643Y-17892500D01*
X5869643Y-17963929D01*
X5855357Y-18021072D01*
X5841071Y-18049643D01*
X5826786Y-18063929D01*
X5798214Y-18078214D01*
X5769643Y-18078214D01*
X5741071Y-18063929D01*
X5726786Y-18049643D01*
X5712500Y-18021072D01*
X5698214Y-17963929D01*
X5698214Y-17892500D01*
X5712500Y-17835357D01*
X5726786Y-17806786D01*
X5741071Y-17792500D01*
X5769643Y-17778214D01*
X6055357Y-17778214D02*
X6083928Y-17778214D01*
X6112500Y-17792500D01*
X6126786Y-17806786D01*
X6141071Y-17835357D01*
X6155357Y-17892500D01*
X6155357Y-17963929D01*
X6141071Y-18021072D01*
X6126786Y-18049643D01*
X6112500Y-18063929D01*
X6083928Y-18078214D01*
X6055357Y-18078214D01*
X6026786Y-18063929D01*
X6012500Y-18049643D01*
X5998214Y-18021072D01*
X5983928Y-17963929D01*
X5983928Y-17892500D01*
X5998214Y-17835357D01*
X6012500Y-17806786D01*
X6026786Y-17792500D01*
X6055357Y-17778214D01*
X6341071Y-17778214D02*
X6369643Y-17778214D01*
X6398214Y-17792500D01*
X6412500Y-17806786D01*
X6426786Y-17835357D01*
X6441071Y-17892500D01*
X6441071Y-17963929D01*
X6426786Y-18021072D01*
X6412500Y-18049643D01*
X6398214Y-18063929D01*
X6369643Y-18078214D01*
X6341071Y-18078214D01*
X6312500Y-18063929D01*
X6298214Y-18049643D01*
X6283928Y-18021072D01*
X6269643Y-17963929D01*
X6269643Y-17892500D01*
X6283928Y-17835357D01*
X6298214Y-17806786D01*
X6312500Y-17792500D01*
X6341071Y-17778214D01*
X6569643Y-18078214D02*
X6569643Y-17878214D01*
X6569643Y-17906786D02*
X6583928Y-17892500D01*
X6612500Y-17878214D01*
X6655357Y-17878214D01*
X6683928Y-17892500D01*
X6698214Y-17921072D01*
X6698214Y-18078214D01*
X6698214Y-17921072D02*
X6712500Y-17892500D01*
X6741071Y-17878214D01*
X6783928Y-17878214D01*
X6812500Y-17892500D01*
X6826786Y-17921072D01*
X6826786Y-18078214D01*
X6969643Y-18078214D02*
X6969643Y-17878214D01*
X6969643Y-17906786D02*
X6983928Y-17892500D01*
X7012500Y-17878214D01*
X7055357Y-17878214D01*
X7083928Y-17892500D01*
X7098214Y-17921072D01*
X7098214Y-18078214D01*
X7098214Y-17921072D02*
X7112500Y-17892500D01*
X7141071Y-17878214D01*
X7183928Y-17878214D01*
X7212500Y-17892500D01*
X7226786Y-17921072D01*
X7226786Y-18078214D01*
X7812500Y-17763929D02*
X7555357Y-18149643D01*
X8198214Y-17778214D02*
X8226786Y-17778214D01*
X8255357Y-17792500D01*
X8269643Y-17806786D01*
X8283928Y-17835357D01*
X8298214Y-17892500D01*
X8298214Y-17963929D01*
X8283928Y-18021072D01*
X8269643Y-18049643D01*
X8255357Y-18063929D01*
X8226786Y-18078214D01*
X8198214Y-18078214D01*
X8169643Y-18063929D01*
X8155357Y-18049643D01*
X8141071Y-18021072D01*
X8126786Y-17963929D01*
X8126786Y-17892500D01*
X8141071Y-17835357D01*
X8155357Y-17806786D01*
X8169643Y-17792500D01*
X8198214Y-17778214D01*
X8426786Y-18049643D02*
X8441071Y-18063929D01*
X8426786Y-18078214D01*
X8412500Y-18063929D01*
X8426786Y-18049643D01*
X8426786Y-18078214D01*
X8626786Y-17778214D02*
X8655357Y-17778214D01*
X8683928Y-17792500D01*
X8698214Y-17806786D01*
X8712500Y-17835357D01*
X8726786Y-17892500D01*
X8726786Y-17963929D01*
X8712500Y-18021072D01*
X8698214Y-18049643D01*
X8683928Y-18063929D01*
X8655357Y-18078214D01*
X8626786Y-18078214D01*
X8598214Y-18063929D01*
X8583928Y-18049643D01*
X8569643Y-18021072D01*
X8555357Y-17963929D01*
X8555357Y-17892500D01*
X8569643Y-17835357D01*
X8583928Y-17806786D01*
X8598214Y-17792500D01*
X8626786Y-17778214D01*
X8826786Y-17778214D02*
X9012500Y-17778214D01*
X8912500Y-17892500D01*
X8955357Y-17892500D01*
X8983928Y-17906786D01*
X8998214Y-17921072D01*
X9012500Y-17949643D01*
X9012500Y-18021072D01*
X8998214Y-18049643D01*
X8983928Y-18063929D01*
X8955357Y-18078214D01*
X8869643Y-18078214D01*
X8841071Y-18063929D01*
X8826786Y-18049643D01*
X9155357Y-18078214D02*
X9212500Y-18078214D01*
X9241071Y-18063929D01*
X9255357Y-18049643D01*
X9283928Y-18006786D01*
X9298214Y-17949643D01*
X9298214Y-17835357D01*
X9283928Y-17806786D01*
X9269643Y-17792500D01*
X9241071Y-17778214D01*
X9183928Y-17778214D01*
X9155357Y-17792500D01*
X9141071Y-17806786D01*
X9126786Y-17835357D01*
X9126786Y-17906786D01*
X9141071Y-17935357D01*
X9155357Y-17949643D01*
X9183928Y-17963929D01*
X9241071Y-17963929D01*
X9269643Y-17949643D01*
X9283928Y-17935357D01*
X9298214Y-17906786D01*
X9555357Y-17878214D02*
X9555357Y-18078214D01*
X9483928Y-17763929D02*
X9412500Y-17978214D01*
X9598214Y-17978214D01*
X9698214Y-17778214D02*
X9698214Y-17835357D01*
X9812500Y-17778214D02*
X9812500Y-17835357D01*
X10255357Y-18192500D02*
X10241071Y-18178214D01*
X10212500Y-18135357D01*
X10198214Y-18106786D01*
X10183928Y-18063929D01*
X10169643Y-17992500D01*
X10169643Y-17935357D01*
X10183928Y-17863929D01*
X10198214Y-17821072D01*
X10212500Y-17792500D01*
X10241071Y-17749643D01*
X10255357Y-17735357D01*
X10355357Y-17806786D02*
X10369643Y-17792500D01*
X10398214Y-17778214D01*
X10469643Y-17778214D01*
X10498214Y-17792500D01*
X10512500Y-17806786D01*
X10526786Y-17835357D01*
X10526786Y-17863929D01*
X10512500Y-17906786D01*
X10341071Y-18078214D01*
X10526786Y-18078214D01*
X10798214Y-17778214D02*
X10655357Y-17778214D01*
X10641071Y-17921072D01*
X10655357Y-17906786D01*
X10683928Y-17892500D01*
X10755357Y-17892500D01*
X10783928Y-17906786D01*
X10798214Y-17921072D01*
X10812500Y-17949643D01*
X10812500Y-18021072D01*
X10798214Y-18049643D01*
X10783928Y-18063929D01*
X10755357Y-18078214D01*
X10683928Y-18078214D01*
X10655357Y-18063929D01*
X10641071Y-18049643D01*
X11169643Y-18078214D02*
X11169643Y-17778214D01*
X11298214Y-18078214D02*
X11298214Y-17921072D01*
X11283928Y-17892500D01*
X11255357Y-17878214D01*
X11212500Y-17878214D01*
X11183928Y-17892500D01*
X11169643Y-17906786D01*
X11483928Y-18078214D02*
X11455357Y-18063929D01*
X11441071Y-18049643D01*
X11426786Y-18021072D01*
X11426786Y-17935357D01*
X11441071Y-17906786D01*
X11455357Y-17892500D01*
X11483928Y-17878214D01*
X11526786Y-17878214D01*
X11555357Y-17892500D01*
X11569643Y-17906786D01*
X11583928Y-17935357D01*
X11583928Y-18021072D01*
X11569643Y-18049643D01*
X11555357Y-18063929D01*
X11526786Y-18078214D01*
X11483928Y-18078214D01*
X11755357Y-18078214D02*
X11726786Y-18063929D01*
X11712500Y-18035357D01*
X11712500Y-17778214D01*
X11983928Y-18063929D02*
X11955357Y-18078214D01*
X11898214Y-18078214D01*
X11869643Y-18063929D01*
X11855357Y-18035357D01*
X11855357Y-17921072D01*
X11869643Y-17892500D01*
X11898214Y-17878214D01*
X11955357Y-17878214D01*
X11983928Y-17892500D01*
X11998214Y-17921072D01*
X11998214Y-17949643D01*
X11855357Y-17978214D01*
X12112500Y-18063929D02*
X12141071Y-18078214D01*
X12198214Y-18078214D01*
X12226786Y-18063929D01*
X12241071Y-18035357D01*
X12241071Y-18021072D01*
X12226786Y-17992500D01*
X12198214Y-17978214D01*
X12155357Y-17978214D01*
X12126786Y-17963929D01*
X12112500Y-17935357D01*
X12112500Y-17921072D01*
X12126786Y-17892500D01*
X12155357Y-17878214D01*
X12198214Y-17878214D01*
X12226786Y-17892500D01*
X12341071Y-18192500D02*
X12355357Y-18178214D01*
X12383928Y-18135357D01*
X12398214Y-18106786D01*
X12412500Y-18063929D01*
X12426786Y-17992500D01*
X12426786Y-17935357D01*
X12412500Y-17863929D01*
X12398214Y-17821072D01*
X12383928Y-17792500D01*
X12355357Y-17749643D01*
X12341071Y-17735357D01*
X4895500Y-18287500D02*
X4997500Y-18389500D01*
X4997500Y-18287500D02*
X4895500Y-18389500D01*
X4946500Y-18287500D02*
X4946500Y-18389500D01*
X4895500Y-18338500D02*
X4997500Y-18338500D01*
X5441071Y-18474214D02*
X5269643Y-18474214D01*
X5355357Y-18474214D02*
X5355357Y-18174214D01*
X5326786Y-18217072D01*
X5298214Y-18245643D01*
X5269643Y-18259929D01*
X5569643Y-18445643D02*
X5583928Y-18459929D01*
X5569643Y-18474214D01*
X5555357Y-18459929D01*
X5569643Y-18445643D01*
X5569643Y-18474214D01*
X5769643Y-18174214D02*
X5798214Y-18174214D01*
X5826786Y-18188500D01*
X5841071Y-18202786D01*
X5855357Y-18231357D01*
X5869643Y-18288500D01*
X5869643Y-18359929D01*
X5855357Y-18417072D01*
X5841071Y-18445643D01*
X5826786Y-18459929D01*
X5798214Y-18474214D01*
X5769643Y-18474214D01*
X5741071Y-18459929D01*
X5726786Y-18445643D01*
X5712500Y-18417072D01*
X5698214Y-18359929D01*
X5698214Y-18288500D01*
X5712500Y-18231357D01*
X5726786Y-18202786D01*
X5741071Y-18188500D01*
X5769643Y-18174214D01*
X5983928Y-18202786D02*
X5998214Y-18188500D01*
X6026786Y-18174214D01*
X6098214Y-18174214D01*
X6126786Y-18188500D01*
X6141071Y-18202786D01*
X6155357Y-18231357D01*
X6155357Y-18259929D01*
X6141071Y-18302786D01*
X5969643Y-18474214D01*
X6155357Y-18474214D01*
X6341071Y-18174214D02*
X6369643Y-18174214D01*
X6398214Y-18188500D01*
X6412500Y-18202786D01*
X6426786Y-18231357D01*
X6441071Y-18288500D01*
X6441071Y-18359929D01*
X6426786Y-18417072D01*
X6412500Y-18445643D01*
X6398214Y-18459929D01*
X6369643Y-18474214D01*
X6341071Y-18474214D01*
X6312500Y-18459929D01*
X6298214Y-18445643D01*
X6283928Y-18417072D01*
X6269643Y-18359929D01*
X6269643Y-18288500D01*
X6283928Y-18231357D01*
X6298214Y-18202786D01*
X6312500Y-18188500D01*
X6341071Y-18174214D01*
X6569643Y-18474214D02*
X6569643Y-18274214D01*
X6569643Y-18302786D02*
X6583928Y-18288500D01*
X6612500Y-18274214D01*
X6655357Y-18274214D01*
X6683928Y-18288500D01*
X6698214Y-18317072D01*
X6698214Y-18474214D01*
X6698214Y-18317072D02*
X6712500Y-18288500D01*
X6741071Y-18274214D01*
X6783928Y-18274214D01*
X6812500Y-18288500D01*
X6826786Y-18317072D01*
X6826786Y-18474214D01*
X6969643Y-18474214D02*
X6969643Y-18274214D01*
X6969643Y-18302786D02*
X6983928Y-18288500D01*
X7012500Y-18274214D01*
X7055357Y-18274214D01*
X7083928Y-18288500D01*
X7098214Y-18317072D01*
X7098214Y-18474214D01*
X7098214Y-18317072D02*
X7112500Y-18288500D01*
X7141071Y-18274214D01*
X7183928Y-18274214D01*
X7212500Y-18288500D01*
X7226786Y-18317072D01*
X7226786Y-18474214D01*
X7812500Y-18159929D02*
X7555357Y-18545643D01*
X8198214Y-18174214D02*
X8226786Y-18174214D01*
X8255357Y-18188500D01*
X8269643Y-18202786D01*
X8283928Y-18231357D01*
X8298214Y-18288500D01*
X8298214Y-18359929D01*
X8283928Y-18417072D01*
X8269643Y-18445643D01*
X8255357Y-18459929D01*
X8226786Y-18474214D01*
X8198214Y-18474214D01*
X8169643Y-18459929D01*
X8155357Y-18445643D01*
X8141071Y-18417072D01*
X8126786Y-18359929D01*
X8126786Y-18288500D01*
X8141071Y-18231357D01*
X8155357Y-18202786D01*
X8169643Y-18188500D01*
X8198214Y-18174214D01*
X8426786Y-18445643D02*
X8441071Y-18459929D01*
X8426786Y-18474214D01*
X8412500Y-18459929D01*
X8426786Y-18445643D01*
X8426786Y-18474214D01*
X8626786Y-18174214D02*
X8655357Y-18174214D01*
X8683928Y-18188500D01*
X8698214Y-18202786D01*
X8712500Y-18231357D01*
X8726786Y-18288500D01*
X8726786Y-18359929D01*
X8712500Y-18417072D01*
X8698214Y-18445643D01*
X8683928Y-18459929D01*
X8655357Y-18474214D01*
X8626786Y-18474214D01*
X8598214Y-18459929D01*
X8583928Y-18445643D01*
X8569643Y-18417072D01*
X8555357Y-18359929D01*
X8555357Y-18288500D01*
X8569643Y-18231357D01*
X8583928Y-18202786D01*
X8598214Y-18188500D01*
X8626786Y-18174214D01*
X8983928Y-18274214D02*
X8983928Y-18474214D01*
X8912500Y-18159929D02*
X8841071Y-18374214D01*
X9026786Y-18374214D01*
X9198214Y-18174214D02*
X9226786Y-18174214D01*
X9255357Y-18188500D01*
X9269643Y-18202786D01*
X9283928Y-18231357D01*
X9298214Y-18288500D01*
X9298214Y-18359929D01*
X9283928Y-18417072D01*
X9269643Y-18445643D01*
X9255357Y-18459929D01*
X9226786Y-18474214D01*
X9198214Y-18474214D01*
X9169643Y-18459929D01*
X9155357Y-18445643D01*
X9141071Y-18417072D01*
X9126786Y-18359929D01*
X9126786Y-18288500D01*
X9141071Y-18231357D01*
X9155357Y-18202786D01*
X9169643Y-18188500D01*
X9198214Y-18174214D01*
X9412500Y-18202786D02*
X9426786Y-18188500D01*
X9455357Y-18174214D01*
X9526786Y-18174214D01*
X9555357Y-18188500D01*
X9569643Y-18202786D01*
X9583928Y-18231357D01*
X9583928Y-18259929D01*
X9569643Y-18302786D01*
X9398214Y-18474214D01*
X9583928Y-18474214D01*
X9698214Y-18174214D02*
X9698214Y-18231357D01*
X9812500Y-18174214D02*
X9812500Y-18231357D01*
X10255357Y-18588500D02*
X10241071Y-18574214D01*
X10212500Y-18531357D01*
X10198214Y-18502786D01*
X10183928Y-18459929D01*
X10169643Y-18388500D01*
X10169643Y-18331357D01*
X10183928Y-18259929D01*
X10198214Y-18217072D01*
X10212500Y-18188500D01*
X10241071Y-18145643D01*
X10255357Y-18131357D01*
X10498214Y-18274214D02*
X10498214Y-18474214D01*
X10426786Y-18159929D02*
X10355357Y-18374214D01*
X10541071Y-18374214D01*
X10883928Y-18474214D02*
X10883928Y-18174214D01*
X11012500Y-18474214D02*
X11012500Y-18317072D01*
X10998214Y-18288500D01*
X10969643Y-18274214D01*
X10926786Y-18274214D01*
X10898214Y-18288500D01*
X10883928Y-18302786D01*
X11198214Y-18474214D02*
X11169643Y-18459929D01*
X11155357Y-18445643D01*
X11141071Y-18417072D01*
X11141071Y-18331357D01*
X11155357Y-18302786D01*
X11169643Y-18288500D01*
X11198214Y-18274214D01*
X11241071Y-18274214D01*
X11269643Y-18288500D01*
X11283928Y-18302786D01*
X11298214Y-18331357D01*
X11298214Y-18417072D01*
X11283928Y-18445643D01*
X11269643Y-18459929D01*
X11241071Y-18474214D01*
X11198214Y-18474214D01*
X11469643Y-18474214D02*
X11441071Y-18459929D01*
X11426786Y-18431357D01*
X11426786Y-18174214D01*
X11698214Y-18459929D02*
X11669643Y-18474214D01*
X11612500Y-18474214D01*
X11583928Y-18459929D01*
X11569643Y-18431357D01*
X11569643Y-18317072D01*
X11583928Y-18288500D01*
X11612500Y-18274214D01*
X11669643Y-18274214D01*
X11698214Y-18288500D01*
X11712500Y-18317072D01*
X11712500Y-18345643D01*
X11569643Y-18374214D01*
X11826786Y-18459929D02*
X11855357Y-18474214D01*
X11912500Y-18474214D01*
X11941071Y-18459929D01*
X11955357Y-18431357D01*
X11955357Y-18417072D01*
X11941071Y-18388500D01*
X11912500Y-18374214D01*
X11869643Y-18374214D01*
X11841071Y-18359929D01*
X11826786Y-18331357D01*
X11826786Y-18317072D01*
X11841071Y-18288500D01*
X11869643Y-18274214D01*
X11912500Y-18274214D01*
X11941071Y-18288500D01*
X12055357Y-18588500D02*
X12069643Y-18574214D01*
X12098214Y-18531357D01*
X12112500Y-18502786D01*
X12126786Y-18459929D01*
X12141071Y-18388500D01*
X12141071Y-18331357D01*
X12126786Y-18259929D01*
X12112500Y-18217072D01*
X12098214Y-18188500D01*
X12069643Y-18145643D01*
X12055357Y-18131357D01*
X4837500Y-18654500D02*
X4997500Y-18814500D01*
X4997500Y-18654500D02*
X4837500Y-18814500D01*
X4974069Y-18791069D02*
X4974069Y-18677931D01*
X4860931Y-18677931D01*
X4860931Y-18791069D01*
X4974069Y-18791069D01*
X5441071Y-18870214D02*
X5269643Y-18870214D01*
X5355357Y-18870214D02*
X5355357Y-18570214D01*
X5326786Y-18613072D01*
X5298214Y-18641643D01*
X5269643Y-18655929D01*
X5569643Y-18841643D02*
X5583928Y-18855929D01*
X5569643Y-18870214D01*
X5555357Y-18855929D01*
X5569643Y-18841643D01*
X5569643Y-18870214D01*
X5841071Y-18570214D02*
X5783928Y-18570214D01*
X5755357Y-18584500D01*
X5741071Y-18598786D01*
X5712500Y-18641643D01*
X5698214Y-18698786D01*
X5698214Y-18813072D01*
X5712500Y-18841643D01*
X5726786Y-18855929D01*
X5755357Y-18870214D01*
X5812500Y-18870214D01*
X5841071Y-18855929D01*
X5855357Y-18841643D01*
X5869643Y-18813072D01*
X5869643Y-18741643D01*
X5855357Y-18713072D01*
X5841071Y-18698786D01*
X5812500Y-18684500D01*
X5755357Y-18684500D01*
X5726786Y-18698786D01*
X5712500Y-18713072D01*
X5698214Y-18741643D01*
X6055357Y-18570214D02*
X6083928Y-18570214D01*
X6112500Y-18584500D01*
X6126786Y-18598786D01*
X6141071Y-18627357D01*
X6155357Y-18684500D01*
X6155357Y-18755929D01*
X6141071Y-18813072D01*
X6126786Y-18841643D01*
X6112500Y-18855929D01*
X6083928Y-18870214D01*
X6055357Y-18870214D01*
X6026786Y-18855929D01*
X6012500Y-18841643D01*
X5998214Y-18813072D01*
X5983928Y-18755929D01*
X5983928Y-18684500D01*
X5998214Y-18627357D01*
X6012500Y-18598786D01*
X6026786Y-18584500D01*
X6055357Y-18570214D01*
X6341071Y-18570214D02*
X6369643Y-18570214D01*
X6398214Y-18584500D01*
X6412500Y-18598786D01*
X6426786Y-18627357D01*
X6441071Y-18684500D01*
X6441071Y-18755929D01*
X6426786Y-18813072D01*
X6412500Y-18841643D01*
X6398214Y-18855929D01*
X6369643Y-18870214D01*
X6341071Y-18870214D01*
X6312500Y-18855929D01*
X6298214Y-18841643D01*
X6283928Y-18813072D01*
X6269643Y-18755929D01*
X6269643Y-18684500D01*
X6283928Y-18627357D01*
X6298214Y-18598786D01*
X6312500Y-18584500D01*
X6341071Y-18570214D01*
X6569643Y-18870214D02*
X6569643Y-18670214D01*
X6569643Y-18698786D02*
X6583928Y-18684500D01*
X6612500Y-18670214D01*
X6655357Y-18670214D01*
X6683928Y-18684500D01*
X6698214Y-18713072D01*
X6698214Y-18870214D01*
X6698214Y-18713072D02*
X6712500Y-18684500D01*
X6741071Y-18670214D01*
X6783928Y-18670214D01*
X6812500Y-18684500D01*
X6826786Y-18713072D01*
X6826786Y-18870214D01*
X6969643Y-18870214D02*
X6969643Y-18670214D01*
X6969643Y-18698786D02*
X6983928Y-18684500D01*
X7012500Y-18670214D01*
X7055357Y-18670214D01*
X7083928Y-18684500D01*
X7098214Y-18713072D01*
X7098214Y-18870214D01*
X7098214Y-18713072D02*
X7112500Y-18684500D01*
X7141071Y-18670214D01*
X7183928Y-18670214D01*
X7212500Y-18684500D01*
X7226786Y-18713072D01*
X7226786Y-18870214D01*
X7812500Y-18555929D02*
X7555357Y-18941643D01*
X8198214Y-18570214D02*
X8226786Y-18570214D01*
X8255357Y-18584500D01*
X8269643Y-18598786D01*
X8283928Y-18627357D01*
X8298214Y-18684500D01*
X8298214Y-18755929D01*
X8283928Y-18813072D01*
X8269643Y-18841643D01*
X8255357Y-18855929D01*
X8226786Y-18870214D01*
X8198214Y-18870214D01*
X8169643Y-18855929D01*
X8155357Y-18841643D01*
X8141071Y-18813072D01*
X8126786Y-18755929D01*
X8126786Y-18684500D01*
X8141071Y-18627357D01*
X8155357Y-18598786D01*
X8169643Y-18584500D01*
X8198214Y-18570214D01*
X8426786Y-18841643D02*
X8441071Y-18855929D01*
X8426786Y-18870214D01*
X8412500Y-18855929D01*
X8426786Y-18841643D01*
X8426786Y-18870214D01*
X8626786Y-18570214D02*
X8655357Y-18570214D01*
X8683928Y-18584500D01*
X8698214Y-18598786D01*
X8712500Y-18627357D01*
X8726786Y-18684500D01*
X8726786Y-18755929D01*
X8712500Y-18813072D01*
X8698214Y-18841643D01*
X8683928Y-18855929D01*
X8655357Y-18870214D01*
X8626786Y-18870214D01*
X8598214Y-18855929D01*
X8583928Y-18841643D01*
X8569643Y-18813072D01*
X8555357Y-18755929D01*
X8555357Y-18684500D01*
X8569643Y-18627357D01*
X8583928Y-18598786D01*
X8598214Y-18584500D01*
X8626786Y-18570214D01*
X8983928Y-18570214D02*
X8926786Y-18570214D01*
X8898214Y-18584500D01*
X8883928Y-18598786D01*
X8855357Y-18641643D01*
X8841071Y-18698786D01*
X8841071Y-18813072D01*
X8855357Y-18841643D01*
X8869643Y-18855929D01*
X8898214Y-18870214D01*
X8955357Y-18870214D01*
X8983928Y-18855929D01*
X8998214Y-18841643D01*
X9012500Y-18813072D01*
X9012500Y-18741643D01*
X8998214Y-18713072D01*
X8983928Y-18698786D01*
X8955357Y-18684500D01*
X8898214Y-18684500D01*
X8869643Y-18698786D01*
X8855357Y-18713072D01*
X8841071Y-18741643D01*
X9112500Y-18570214D02*
X9298214Y-18570214D01*
X9198214Y-18684500D01*
X9241071Y-18684500D01*
X9269643Y-18698786D01*
X9283928Y-18713072D01*
X9298214Y-18741643D01*
X9298214Y-18813072D01*
X9283928Y-18841643D01*
X9269643Y-18855929D01*
X9241071Y-18870214D01*
X9155357Y-18870214D01*
X9126786Y-18855929D01*
X9112500Y-18841643D01*
X9483928Y-18570214D02*
X9512500Y-18570214D01*
X9541071Y-18584500D01*
X9555357Y-18598786D01*
X9569643Y-18627357D01*
X9583928Y-18684500D01*
X9583928Y-18755929D01*
X9569643Y-18813072D01*
X9555357Y-18841643D01*
X9541071Y-18855929D01*
X9512500Y-18870214D01*
X9483928Y-18870214D01*
X9455357Y-18855929D01*
X9441071Y-18841643D01*
X9426786Y-18813072D01*
X9412500Y-18755929D01*
X9412500Y-18684500D01*
X9426786Y-18627357D01*
X9441071Y-18598786D01*
X9455357Y-18584500D01*
X9483928Y-18570214D01*
X9698214Y-18570214D02*
X9698214Y-18627357D01*
X9812500Y-18570214D02*
X9812500Y-18627357D01*
X10255357Y-18984500D02*
X10241071Y-18970214D01*
X10212500Y-18927357D01*
X10198214Y-18898786D01*
X10183928Y-18855929D01*
X10169643Y-18784500D01*
X10169643Y-18727357D01*
X10183928Y-18655929D01*
X10198214Y-18613072D01*
X10212500Y-18584500D01*
X10241071Y-18541643D01*
X10255357Y-18527357D01*
X10355357Y-18598786D02*
X10369643Y-18584500D01*
X10398214Y-18570214D01*
X10469643Y-18570214D01*
X10498214Y-18584500D01*
X10512500Y-18598786D01*
X10526786Y-18627357D01*
X10526786Y-18655929D01*
X10512500Y-18698786D01*
X10341071Y-18870214D01*
X10526786Y-18870214D01*
X10883928Y-18870214D02*
X10883928Y-18570214D01*
X11012500Y-18870214D02*
X11012500Y-18713072D01*
X10998214Y-18684500D01*
X10969643Y-18670214D01*
X10926786Y-18670214D01*
X10898214Y-18684500D01*
X10883928Y-18698786D01*
X11198214Y-18870214D02*
X11169643Y-18855929D01*
X11155357Y-18841643D01*
X11141071Y-18813072D01*
X11141071Y-18727357D01*
X11155357Y-18698786D01*
X11169643Y-18684500D01*
X11198214Y-18670214D01*
X11241071Y-18670214D01*
X11269643Y-18684500D01*
X11283928Y-18698786D01*
X11298214Y-18727357D01*
X11298214Y-18813072D01*
X11283928Y-18841643D01*
X11269643Y-18855929D01*
X11241071Y-18870214D01*
X11198214Y-18870214D01*
X11469643Y-18870214D02*
X11441071Y-18855929D01*
X11426786Y-18827357D01*
X11426786Y-18570214D01*
X11698214Y-18855929D02*
X11669643Y-18870214D01*
X11612500Y-18870214D01*
X11583928Y-18855929D01*
X11569643Y-18827357D01*
X11569643Y-18713072D01*
X11583928Y-18684500D01*
X11612500Y-18670214D01*
X11669643Y-18670214D01*
X11698214Y-18684500D01*
X11712500Y-18713072D01*
X11712500Y-18741643D01*
X11569643Y-18770214D01*
X11826786Y-18855929D02*
X11855357Y-18870214D01*
X11912500Y-18870214D01*
X11941071Y-18855929D01*
X11955357Y-18827357D01*
X11955357Y-18813072D01*
X11941071Y-18784500D01*
X11912500Y-18770214D01*
X11869643Y-18770214D01*
X11841071Y-18755929D01*
X11826786Y-18727357D01*
X11826786Y-18713072D01*
X11841071Y-18684500D01*
X11869643Y-18670214D01*
X11912500Y-18670214D01*
X11941071Y-18684500D01*
X12055357Y-18984500D02*
X12069643Y-18970214D01*
X12098214Y-18927357D01*
X12112500Y-18898786D01*
X12126786Y-18855929D01*
X12141071Y-18784500D01*
X12141071Y-18727357D01*
X12126786Y-18655929D01*
X12112500Y-18613072D01*
X12098214Y-18584500D01*
X12069643Y-18541643D01*
X12055357Y-18527357D01*
M02*
