M48
; DRILL file {KiCad (5.1.10)-1} date 11/10/21 22:46:03
; FORMAT={-:-/ absolute / metric / decimal}
; #@! TF.CreationDate,2021-11-10T22:46:03+01:00
; #@! TF.GenerationSoftware,Kicad,Pcbnew,(5.1.10)-1
; #@! TF.FileFunction,Plated,1,2,PTH
FMAT,2
METRIC
T1C0.200
T2C0.400
T3C0.800
T4C0.890
T5C0.900
T6C1.000
T7C1.020
T8C1.600
%
G90
G05
T1
X77.175Y-104.062
X77.175Y-105.062
X77.175Y-106.062
X78.175Y-104.062
X78.175Y-105.062
X78.175Y-106.062
X79.175Y-104.062
X79.175Y-105.062
X79.175Y-106.062
T2
X51.5Y-121.2
X51.6Y-78.6
X52.6Y-88.9
X52.7Y-99.3
X53.8Y-110.1
X54.1Y-81.7
X54.7Y-76.4
X55.9Y-122.0
X56.4Y-118.1
X57.7Y-77.0
X61.4Y-110.1
X62.4Y-86.8
X63.9Y-79.6
X64.7Y-83.9
X66.2Y-99.7
X66.5Y-76.8
X66.6Y-121.0
X66.74Y-117.66
X67.3Y-86.9
X67.7Y-80.5
X68.1Y-128.0
X69.3Y-84.2
X69.74Y-117.66
X71.0Y-90.7
X71.887Y-115.087
X72.4Y-105.3
X72.6Y-79.5
X72.8Y-107.0
X73.2Y-98.8
X73.5Y-105.9
X73.7Y-108.2
X74.0Y-101.6
X74.0Y-113.7
X74.4Y-89.3
X75.1Y-115.2
X75.4Y-98.0
X76.125Y-101.3
X76.2Y-86.9
X76.2Y-100.0
X76.4Y-109.3
X77.6Y-109.4
X78.3Y-100.9
X78.3Y-121.5
X78.7Y-109.4
X78.9Y-117.4
X79.0Y-99.1
X79.5Y-114.0
X79.787Y-101.013
X81.9Y-101.1
X82.6Y-119.7
X82.7Y-79.6
X83.0Y-76.2
X83.4Y-106.2
X83.6Y-107.5
X85.1Y-116.3
X85.1Y-121.0
X85.3Y-99.7
X85.7Y-93.7
X85.95Y-101.25
X86.2Y-107.3
X86.9Y-76.1
X87.0Y-117.5
X87.3Y-92.8
X87.3Y-130.4
X87.6Y-81.5
X87.6Y-87.3
X87.6Y-105.6
X87.9Y-99.9
X89.0Y-117.0
X89.1Y-91.8
X89.3Y-97.6
X89.5Y-76.9
X90.7Y-80.2
X92.0Y-86.5
X92.6Y-119.4
X93.0Y-83.5
X93.3Y-87.0
X94.1Y-87.8
X94.2Y-102.1
X94.7Y-79.4
X95.3Y-83.8
X95.5Y-99.5
X95.5Y-114.525
X96.2Y-95.3
X96.3Y-111.625
X96.7Y-83.8
X96.7Y-106.2
X96.75Y-97.95
X97.5Y-94.2
X97.5Y-116.0
X97.9Y-85.2
X98.2Y-104.1
X98.975Y-76.725
X99.1Y-114.4
X100.0Y-111.8
X100.4Y-85.2
X100.4Y-130.7
X100.6Y-106.7
X100.8Y-118.4
X101.3Y-94.5
X101.5Y-99.5
X102.0Y-104.1
X102.5Y-106.2
X103.1Y-86.1
X104.3Y-94.6
X104.3Y-106.8
X105.6Y-105.7
X105.6Y-128.1
X105.9Y-87.2
X106.1Y-111.4
X107.2Y-119.5
X108.0Y-113.6
X108.1Y-103.0
X108.3Y-95.1
X108.4Y-88.5
X108.4Y-89.4
X108.4Y-90.3
X108.7Y-99.5
X108.8Y-115.1
X110.2Y-119.3
X110.9Y-129.5
X113.7Y-119.6
X114.2Y-125.3
T3
X61.7Y-124.6
X65.2Y-124.6
T4
X64.35Y-105.34
X64.35Y-107.88
X64.35Y-110.42
X64.35Y-112.96
X66.89Y-106.61
X66.89Y-109.15
X66.89Y-111.69
X66.89Y-114.23
T5
X83.3Y-130.5
X83.3Y-133.04
T6
X61.5Y-69.5
X62.0Y-144.5
X64.04Y-69.5
X64.54Y-144.5
X70.46Y-69.5
X71.4Y-93.8
X73.0Y-69.5
X73.6Y-119.5
X73.6Y-122.04
X73.6Y-124.58
X73.94Y-93.8
X78.26Y-93.8
X79.5Y-69.5
X80.555Y-81.175
X80.555Y-83.715
X80.555Y-86.255
X80.555Y-88.795
X80.8Y-93.8
X82.04Y-69.5
X93.5Y-69.5
X96.0Y-122.2
X96.0Y-124.74
X96.0Y-127.28
X96.0Y-129.82
X96.04Y-69.5
T7
X53.1Y-103.46
X53.1Y-113.57
X54.62Y-106.0
X54.62Y-116.11
T8
X61.05Y-101.91
X61.05Y-117.66
T0
M30
