G04 #@! TF.GenerationSoftware,KiCad,Pcbnew,(5.1.10)-1*
G04 #@! TF.CreationDate,2021-11-10T22:46:01+01:00*
G04 #@! TF.ProjectId,RS485-DIN-PCB,52533438-352d-4444-994e-2d5043422e6b,rev?*
G04 #@! TF.SameCoordinates,Original*
G04 #@! TF.FileFunction,Legend,Top*
G04 #@! TF.FilePolarity,Positive*
%FSLAX46Y46*%
G04 Gerber Fmt 4.6, Leading zero omitted, Abs format (unit mm)*
G04 Created by KiCad (PCBNEW (5.1.10)-1) date 2021-11-10 22:46:01*
%MOMM*%
%LPD*%
G01*
G04 APERTURE LIST*
%ADD10C,0.200000*%
%ADD11C,0.300000*%
%ADD12C,0.120000*%
%ADD13C,0.150000*%
%ADD14C,0.250000*%
%ADD15C,0.040000*%
%ADD16R,1.600000X1.600000*%
%ADD17C,1.600000*%
%ADD18O,1.700000X1.700000*%
%ADD19R,1.700000X1.700000*%
%ADD20R,3.300000X3.300000*%
%ADD21R,0.510000X0.700000*%
%ADD22O,2.300000X1.500000*%
%ADD23R,2.300000X1.500000*%
%ADD24R,0.900000X2.000000*%
%ADD25R,2.000000X0.900000*%
%ADD26R,5.000000X5.000000*%
%ADD27R,0.500000X0.900000*%
%ADD28R,0.900000X0.500000*%
%ADD29R,0.900000X0.800000*%
%ADD30R,0.400000X0.650000*%
%ADD31R,1.200000X0.900000*%
%ADD32C,3.200000*%
%ADD33C,4.300000*%
%ADD34R,1.800000X1.800000*%
%ADD35C,1.800000*%
%ADD36R,1.800000X2.500000*%
%ADD37R,0.750000X0.800000*%
%ADD38R,0.800000X0.750000*%
%ADD39R,1.000000X1.250000*%
G04 APERTURE END LIST*
D10*
X90271428Y-136642857D02*
X90271428Y-135442857D01*
X90271428Y-136014285D02*
X90957142Y-136014285D01*
X90957142Y-136642857D02*
X90957142Y-135442857D01*
X92042857Y-135842857D02*
X92042857Y-136642857D01*
X91528571Y-135842857D02*
X91528571Y-136471428D01*
X91585714Y-136585714D01*
X91700000Y-136642857D01*
X91871428Y-136642857D01*
X91985714Y-136585714D01*
X92042857Y-136528571D01*
X92442857Y-135842857D02*
X92900000Y-135842857D01*
X92614285Y-135442857D02*
X92614285Y-136471428D01*
X92671428Y-136585714D01*
X92785714Y-136642857D01*
X92900000Y-136642857D01*
X93242857Y-136585714D02*
X93357142Y-136642857D01*
X93585714Y-136642857D01*
X93700000Y-136585714D01*
X93757142Y-136471428D01*
X93757142Y-136414285D01*
X93700000Y-136300000D01*
X93585714Y-136242857D01*
X93414285Y-136242857D01*
X93300000Y-136185714D01*
X93242857Y-136071428D01*
X93242857Y-136014285D01*
X93300000Y-135900000D01*
X93414285Y-135842857D01*
X93585714Y-135842857D01*
X93700000Y-135900000D01*
X94785714Y-136585714D02*
X94671428Y-136642857D01*
X94442857Y-136642857D01*
X94328571Y-136585714D01*
X94271428Y-136528571D01*
X94214285Y-136414285D01*
X94214285Y-136071428D01*
X94271428Y-135957142D01*
X94328571Y-135900000D01*
X94442857Y-135842857D01*
X94671428Y-135842857D01*
X94785714Y-135900000D01*
X95300000Y-136642857D02*
X95300000Y-135442857D01*
X95814285Y-136642857D02*
X95814285Y-136014285D01*
X95757142Y-135900000D01*
X95642857Y-135842857D01*
X95471428Y-135842857D01*
X95357142Y-135900000D01*
X95300000Y-135957142D01*
X96385714Y-136642857D02*
X96385714Y-135842857D01*
X96385714Y-135442857D02*
X96328571Y-135500000D01*
X96385714Y-135557142D01*
X96442857Y-135500000D01*
X96385714Y-135442857D01*
X96385714Y-135557142D01*
X97414285Y-136585714D02*
X97300000Y-136642857D01*
X97071428Y-136642857D01*
X96957142Y-136585714D01*
X96900000Y-136471428D01*
X96900000Y-136014285D01*
X96957142Y-135900000D01*
X97071428Y-135842857D01*
X97300000Y-135842857D01*
X97414285Y-135900000D01*
X97471428Y-136014285D01*
X97471428Y-136128571D01*
X96900000Y-136242857D01*
X97985714Y-135842857D02*
X97985714Y-136642857D01*
X97985714Y-135957142D02*
X98042857Y-135900000D01*
X98157142Y-135842857D01*
X98328571Y-135842857D01*
X98442857Y-135900000D01*
X98500000Y-136014285D01*
X98500000Y-136642857D01*
X99528571Y-136585714D02*
X99414285Y-136642857D01*
X99185714Y-136642857D01*
X99071428Y-136585714D01*
X99014285Y-136471428D01*
X99014285Y-136014285D01*
X99071428Y-135900000D01*
X99185714Y-135842857D01*
X99414285Y-135842857D01*
X99528571Y-135900000D01*
X99585714Y-136014285D01*
X99585714Y-136128571D01*
X99014285Y-136242857D01*
X100100000Y-136528571D02*
X100157142Y-136585714D01*
X100100000Y-136642857D01*
X100042857Y-136585714D01*
X100100000Y-136528571D01*
X100100000Y-136642857D01*
X100100000Y-135900000D02*
X100157142Y-135957142D01*
X100100000Y-136014285D01*
X100042857Y-135957142D01*
X100100000Y-135900000D01*
X100100000Y-136014285D01*
X101585714Y-136014285D02*
X101985714Y-136014285D01*
X102157142Y-136642857D02*
X101585714Y-136642857D01*
X101585714Y-135442857D01*
X102157142Y-135442857D01*
X102614285Y-136585714D02*
X102785714Y-136642857D01*
X103071428Y-136642857D01*
X103185714Y-136585714D01*
X103242857Y-136528571D01*
X103300000Y-136414285D01*
X103300000Y-136300000D01*
X103242857Y-136185714D01*
X103185714Y-136128571D01*
X103071428Y-136071428D01*
X102842857Y-136014285D01*
X102728571Y-135957142D01*
X102671428Y-135900000D01*
X102614285Y-135785714D01*
X102614285Y-135671428D01*
X102671428Y-135557142D01*
X102728571Y-135500000D01*
X102842857Y-135442857D01*
X103128571Y-135442857D01*
X103300000Y-135500000D01*
X103814285Y-136642857D02*
X103814285Y-135442857D01*
X104271428Y-135442857D01*
X104385714Y-135500000D01*
X104442857Y-135557142D01*
X104500000Y-135671428D01*
X104500000Y-135842857D01*
X104442857Y-135957142D01*
X104385714Y-136014285D01*
X104271428Y-136071428D01*
X103814285Y-136071428D01*
X104900000Y-135442857D02*
X105642857Y-135442857D01*
X105242857Y-135900000D01*
X105414285Y-135900000D01*
X105528571Y-135957142D01*
X105585714Y-136014285D01*
X105642857Y-136128571D01*
X105642857Y-136414285D01*
X105585714Y-136528571D01*
X105528571Y-136585714D01*
X105414285Y-136642857D01*
X105071428Y-136642857D01*
X104957142Y-136585714D01*
X104900000Y-136528571D01*
X106100000Y-135557142D02*
X106157142Y-135500000D01*
X106271428Y-135442857D01*
X106557142Y-135442857D01*
X106671428Y-135500000D01*
X106728571Y-135557142D01*
X106785714Y-135671428D01*
X106785714Y-135785714D01*
X106728571Y-135957142D01*
X106042857Y-136642857D01*
X106785714Y-136642857D01*
X83300000Y-137842857D02*
X83928571Y-137842857D01*
X83300000Y-138642857D01*
X83928571Y-138642857D01*
X84900000Y-137842857D02*
X84900000Y-138642857D01*
X84385714Y-137842857D02*
X84385714Y-138471428D01*
X84442857Y-138585714D01*
X84557142Y-138642857D01*
X84728571Y-138642857D01*
X84842857Y-138585714D01*
X84900000Y-138528571D01*
X86385714Y-138642857D02*
X86385714Y-137442857D01*
X86785714Y-138300000D01*
X87185714Y-137442857D01*
X87185714Y-138642857D01*
X87985714Y-137442857D02*
X88214285Y-137442857D01*
X88328571Y-137500000D01*
X88442857Y-137614285D01*
X88500000Y-137842857D01*
X88500000Y-138242857D01*
X88442857Y-138471428D01*
X88328571Y-138585714D01*
X88214285Y-138642857D01*
X87985714Y-138642857D01*
X87871428Y-138585714D01*
X87757142Y-138471428D01*
X87700000Y-138242857D01*
X87700000Y-137842857D01*
X87757142Y-137614285D01*
X87871428Y-137500000D01*
X87985714Y-137442857D01*
X89014285Y-138642857D02*
X89014285Y-137442857D01*
X89300000Y-137442857D01*
X89471428Y-137500000D01*
X89585714Y-137614285D01*
X89642857Y-137728571D01*
X89700000Y-137957142D01*
X89700000Y-138128571D01*
X89642857Y-138357142D01*
X89585714Y-138471428D01*
X89471428Y-138585714D01*
X89300000Y-138642857D01*
X89014285Y-138642857D01*
X90614285Y-138014285D02*
X90785714Y-138071428D01*
X90842857Y-138128571D01*
X90900000Y-138242857D01*
X90900000Y-138414285D01*
X90842857Y-138528571D01*
X90785714Y-138585714D01*
X90671428Y-138642857D01*
X90214285Y-138642857D01*
X90214285Y-137442857D01*
X90614285Y-137442857D01*
X90728571Y-137500000D01*
X90785714Y-137557142D01*
X90842857Y-137671428D01*
X90842857Y-137785714D01*
X90785714Y-137900000D01*
X90728571Y-137957142D01*
X90614285Y-138014285D01*
X90214285Y-138014285D01*
X91414285Y-137442857D02*
X91414285Y-138414285D01*
X91471428Y-138528571D01*
X91528571Y-138585714D01*
X91642857Y-138642857D01*
X91871428Y-138642857D01*
X91985714Y-138585714D01*
X92042857Y-138528571D01*
X92100000Y-138414285D01*
X92100000Y-137442857D01*
X92614285Y-138585714D02*
X92785714Y-138642857D01*
X93071428Y-138642857D01*
X93185714Y-138585714D01*
X93242857Y-138528571D01*
X93300000Y-138414285D01*
X93300000Y-138300000D01*
X93242857Y-138185714D01*
X93185714Y-138128571D01*
X93071428Y-138071428D01*
X92842857Y-138014285D01*
X92728571Y-137957142D01*
X92671428Y-137900000D01*
X92614285Y-137785714D01*
X92614285Y-137671428D01*
X92671428Y-137557142D01*
X92728571Y-137500000D01*
X92842857Y-137442857D01*
X93128571Y-137442857D01*
X93300000Y-137500000D01*
X94728571Y-138185714D02*
X95642857Y-138185714D01*
X95185714Y-138642857D02*
X95185714Y-137728571D01*
X97814285Y-138642857D02*
X97414285Y-138071428D01*
X97128571Y-138642857D02*
X97128571Y-137442857D01*
X97585714Y-137442857D01*
X97700000Y-137500000D01*
X97757142Y-137557142D01*
X97814285Y-137671428D01*
X97814285Y-137842857D01*
X97757142Y-137957142D01*
X97700000Y-138014285D01*
X97585714Y-138071428D01*
X97128571Y-138071428D01*
X98271428Y-138585714D02*
X98442857Y-138642857D01*
X98728571Y-138642857D01*
X98842857Y-138585714D01*
X98900000Y-138528571D01*
X98957142Y-138414285D01*
X98957142Y-138300000D01*
X98900000Y-138185714D01*
X98842857Y-138128571D01*
X98728571Y-138071428D01*
X98500000Y-138014285D01*
X98385714Y-137957142D01*
X98328571Y-137900000D01*
X98271428Y-137785714D01*
X98271428Y-137671428D01*
X98328571Y-137557142D01*
X98385714Y-137500000D01*
X98500000Y-137442857D01*
X98785714Y-137442857D01*
X98957142Y-137500000D01*
X99985714Y-137842857D02*
X99985714Y-138642857D01*
X99700000Y-137385714D02*
X99414285Y-138242857D01*
X100157142Y-138242857D01*
X100785714Y-137957142D02*
X100671428Y-137900000D01*
X100614285Y-137842857D01*
X100557142Y-137728571D01*
X100557142Y-137671428D01*
X100614285Y-137557142D01*
X100671428Y-137500000D01*
X100785714Y-137442857D01*
X101014285Y-137442857D01*
X101128571Y-137500000D01*
X101185714Y-137557142D01*
X101242857Y-137671428D01*
X101242857Y-137728571D01*
X101185714Y-137842857D01*
X101128571Y-137900000D01*
X101014285Y-137957142D01*
X100785714Y-137957142D01*
X100671428Y-138014285D01*
X100614285Y-138071428D01*
X100557142Y-138185714D01*
X100557142Y-138414285D01*
X100614285Y-138528571D01*
X100671428Y-138585714D01*
X100785714Y-138642857D01*
X101014285Y-138642857D01*
X101128571Y-138585714D01*
X101185714Y-138528571D01*
X101242857Y-138414285D01*
X101242857Y-138185714D01*
X101185714Y-138071428D01*
X101128571Y-138014285D01*
X101014285Y-137957142D01*
X102328571Y-137442857D02*
X101757142Y-137442857D01*
X101700000Y-138014285D01*
X101757142Y-137957142D01*
X101871428Y-137900000D01*
X102157142Y-137900000D01*
X102271428Y-137957142D01*
X102328571Y-138014285D01*
X102385714Y-138128571D01*
X102385714Y-138414285D01*
X102328571Y-138528571D01*
X102271428Y-138585714D01*
X102157142Y-138642857D01*
X101871428Y-138642857D01*
X101757142Y-138585714D01*
X101700000Y-138528571D01*
X103642857Y-137442857D02*
X104042857Y-138642857D01*
X104442857Y-137442857D01*
X105014285Y-138642857D02*
X104900000Y-138585714D01*
X104842857Y-138528571D01*
X104785714Y-138414285D01*
X104785714Y-138071428D01*
X104842857Y-137957142D01*
X104900000Y-137900000D01*
X105014285Y-137842857D01*
X105185714Y-137842857D01*
X105300000Y-137900000D01*
X105357142Y-137957142D01*
X105414285Y-138071428D01*
X105414285Y-138414285D01*
X105357142Y-138528571D01*
X105300000Y-138585714D01*
X105185714Y-138642857D01*
X105014285Y-138642857D01*
X106100000Y-138642857D02*
X105985714Y-138585714D01*
X105928571Y-138471428D01*
X105928571Y-137442857D01*
X106728571Y-138642857D02*
X106614285Y-138585714D01*
X106557142Y-138471428D01*
X106557142Y-137442857D01*
X107700000Y-138642857D02*
X107700000Y-137442857D01*
X107700000Y-138585714D02*
X107585714Y-138642857D01*
X107357142Y-138642857D01*
X107242857Y-138585714D01*
X107185714Y-138528571D01*
X107128571Y-138414285D01*
X107128571Y-138071428D01*
X107185714Y-137957142D01*
X107242857Y-137900000D01*
X107357142Y-137842857D01*
X107585714Y-137842857D01*
X107700000Y-137900000D01*
X108785714Y-137842857D02*
X108785714Y-138642857D01*
X108271428Y-137842857D02*
X108271428Y-138471428D01*
X108328571Y-138585714D01*
X108442857Y-138642857D01*
X108614285Y-138642857D01*
X108728571Y-138585714D01*
X108785714Y-138528571D01*
X109357142Y-137842857D02*
X109357142Y-139042857D01*
X109357142Y-137900000D02*
X109471428Y-137842857D01*
X109700000Y-137842857D01*
X109814285Y-137900000D01*
X109871428Y-137957142D01*
X109928571Y-138071428D01*
X109928571Y-138414285D01*
X109871428Y-138528571D01*
X109814285Y-138585714D01*
X109700000Y-138642857D01*
X109471428Y-138642857D01*
X109357142Y-138585714D01*
X110442857Y-137842857D02*
X110442857Y-139042857D01*
X110442857Y-137900000D02*
X110557142Y-137842857D01*
X110785714Y-137842857D01*
X110900000Y-137900000D01*
X110957142Y-137957142D01*
X111014285Y-138071428D01*
X111014285Y-138414285D01*
X110957142Y-138528571D01*
X110900000Y-138585714D01*
X110785714Y-138642857D01*
X110557142Y-138642857D01*
X110442857Y-138585714D01*
X111700000Y-138642857D02*
X111585714Y-138585714D01*
X111528571Y-138471428D01*
X111528571Y-137442857D01*
X112614285Y-138585714D02*
X112500000Y-138642857D01*
X112271428Y-138642857D01*
X112157142Y-138585714D01*
X112100000Y-138471428D01*
X112100000Y-138014285D01*
X112157142Y-137900000D01*
X112271428Y-137842857D01*
X112500000Y-137842857D01*
X112614285Y-137900000D01*
X112671428Y-138014285D01*
X112671428Y-138128571D01*
X112100000Y-138242857D01*
X113071428Y-138642857D02*
X113700000Y-137842857D01*
X113071428Y-137842857D02*
X113700000Y-138642857D01*
X88385714Y-140642857D02*
X88385714Y-139842857D01*
X88385714Y-139957142D02*
X88442857Y-139900000D01*
X88557142Y-139842857D01*
X88728571Y-139842857D01*
X88842857Y-139900000D01*
X88900000Y-140014285D01*
X88900000Y-140642857D01*
X88900000Y-140014285D02*
X88957142Y-139900000D01*
X89071428Y-139842857D01*
X89242857Y-139842857D01*
X89357142Y-139900000D01*
X89414285Y-140014285D01*
X89414285Y-140642857D01*
X89985714Y-140642857D02*
X89985714Y-139842857D01*
X89985714Y-139442857D02*
X89928571Y-139500000D01*
X89985714Y-139557142D01*
X90042857Y-139500000D01*
X89985714Y-139442857D01*
X89985714Y-139557142D01*
X90385714Y-139842857D02*
X90842857Y-139842857D01*
X90557142Y-139442857D02*
X90557142Y-140471428D01*
X90614285Y-140585714D01*
X90728571Y-140642857D01*
X90842857Y-140642857D01*
X92157142Y-140014285D02*
X92557142Y-140014285D01*
X92728571Y-140642857D02*
X92157142Y-140642857D01*
X92157142Y-139442857D01*
X92728571Y-139442857D01*
X93071428Y-139842857D02*
X93528571Y-139842857D01*
X93242857Y-139442857D02*
X93242857Y-140471428D01*
X93300000Y-140585714D01*
X93414285Y-140642857D01*
X93528571Y-140642857D01*
X93928571Y-140642857D02*
X93928571Y-139442857D01*
X94442857Y-140642857D02*
X94442857Y-140014285D01*
X94385714Y-139900000D01*
X94271428Y-139842857D01*
X94100000Y-139842857D01*
X93985714Y-139900000D01*
X93928571Y-139957142D01*
X95471428Y-140585714D02*
X95357142Y-140642857D01*
X95128571Y-140642857D01*
X95014285Y-140585714D01*
X94957142Y-140471428D01*
X94957142Y-140014285D01*
X95014285Y-139900000D01*
X95128571Y-139842857D01*
X95357142Y-139842857D01*
X95471428Y-139900000D01*
X95528571Y-140014285D01*
X95528571Y-140128571D01*
X94957142Y-140242857D01*
X96042857Y-140642857D02*
X96042857Y-139842857D01*
X96042857Y-140071428D02*
X96100000Y-139957142D01*
X96157142Y-139900000D01*
X96271428Y-139842857D01*
X96385714Y-139842857D01*
X96785714Y-139842857D02*
X96785714Y-140642857D01*
X96785714Y-139957142D02*
X96842857Y-139900000D01*
X96957142Y-139842857D01*
X97128571Y-139842857D01*
X97242857Y-139900000D01*
X97300000Y-140014285D01*
X97300000Y-140642857D01*
X98328571Y-140585714D02*
X98214285Y-140642857D01*
X97985714Y-140642857D01*
X97871428Y-140585714D01*
X97814285Y-140471428D01*
X97814285Y-140014285D01*
X97871428Y-139900000D01*
X97985714Y-139842857D01*
X98214285Y-139842857D01*
X98328571Y-139900000D01*
X98385714Y-140014285D01*
X98385714Y-140128571D01*
X97814285Y-140242857D01*
X98728571Y-139842857D02*
X99185714Y-139842857D01*
X98900000Y-139442857D02*
X98900000Y-140471428D01*
X98957142Y-140585714D01*
X99071428Y-140642857D01*
X99185714Y-140642857D01*
X101014285Y-139842857D02*
X101014285Y-140642857D01*
X100500000Y-139842857D02*
X100500000Y-140471428D01*
X100557142Y-140585714D01*
X100671428Y-140642857D01*
X100842857Y-140642857D01*
X100957142Y-140585714D01*
X101014285Y-140528571D01*
X101585714Y-139842857D02*
X101585714Y-140642857D01*
X101585714Y-139957142D02*
X101642857Y-139900000D01*
X101757142Y-139842857D01*
X101928571Y-139842857D01*
X102042857Y-139900000D01*
X102100000Y-140014285D01*
X102100000Y-140642857D01*
X103185714Y-140642857D02*
X103185714Y-139442857D01*
X103185714Y-140585714D02*
X103071428Y-140642857D01*
X102842857Y-140642857D01*
X102728571Y-140585714D01*
X102671428Y-140528571D01*
X102614285Y-140414285D01*
X102614285Y-140071428D01*
X102671428Y-139957142D01*
X102728571Y-139900000D01*
X102842857Y-139842857D01*
X103071428Y-139842857D01*
X103185714Y-139900000D01*
X104900000Y-139442857D02*
X105128571Y-139442857D01*
X105242857Y-139500000D01*
X105357142Y-139614285D01*
X105414285Y-139842857D01*
X105414285Y-140242857D01*
X105357142Y-140471428D01*
X105242857Y-140585714D01*
X105128571Y-140642857D01*
X104900000Y-140642857D01*
X104785714Y-140585714D01*
X104671428Y-140471428D01*
X104614285Y-140242857D01*
X104614285Y-139842857D01*
X104671428Y-139614285D01*
X104785714Y-139500000D01*
X104900000Y-139442857D01*
X106500000Y-140642857D02*
X105928571Y-140642857D01*
X105928571Y-139442857D01*
X106900000Y-140014285D02*
X107300000Y-140014285D01*
X107471428Y-140642857D02*
X106900000Y-140642857D01*
X106900000Y-139442857D01*
X107471428Y-139442857D01*
X107985714Y-140642857D02*
X107985714Y-139442857D01*
X108271428Y-139442857D01*
X108442857Y-139500000D01*
X108557142Y-139614285D01*
X108614285Y-139728571D01*
X108671428Y-139957142D01*
X108671428Y-140128571D01*
X108614285Y-140357142D01*
X108557142Y-140471428D01*
X108442857Y-140585714D01*
X108271428Y-140642857D01*
X107985714Y-140642857D01*
X54671428Y-98142857D02*
X53985714Y-98142857D01*
X54328571Y-98142857D02*
X54328571Y-96942857D01*
X54214285Y-97114285D01*
X54100000Y-97228571D01*
X53985714Y-97285714D01*
X55414285Y-96942857D02*
X55528571Y-96942857D01*
X55642857Y-97000000D01*
X55700000Y-97057142D01*
X55757142Y-97171428D01*
X55814285Y-97400000D01*
X55814285Y-97685714D01*
X55757142Y-97914285D01*
X55700000Y-98028571D01*
X55642857Y-98085714D01*
X55528571Y-98142857D01*
X55414285Y-98142857D01*
X55300000Y-98085714D01*
X55242857Y-98028571D01*
X55185714Y-97914285D01*
X55128571Y-97685714D01*
X55128571Y-97400000D01*
X55185714Y-97171428D01*
X55242857Y-97057142D01*
X55300000Y-97000000D01*
X55414285Y-96942857D01*
X56328571Y-98028571D02*
X56385714Y-98085714D01*
X56328571Y-98142857D01*
X56271428Y-98085714D01*
X56328571Y-98028571D01*
X56328571Y-98142857D01*
X57528571Y-98142857D02*
X56842857Y-98142857D01*
X57185714Y-98142857D02*
X57185714Y-96942857D01*
X57071428Y-97114285D01*
X56957142Y-97228571D01*
X56842857Y-97285714D01*
X58671428Y-98142857D02*
X57985714Y-98142857D01*
X58328571Y-98142857D02*
X58328571Y-96942857D01*
X58214285Y-97114285D01*
X58100000Y-97228571D01*
X57985714Y-97285714D01*
X59185714Y-98028571D02*
X59242857Y-98085714D01*
X59185714Y-98142857D01*
X59128571Y-98085714D01*
X59185714Y-98028571D01*
X59185714Y-98142857D01*
X59700000Y-97057142D02*
X59757142Y-97000000D01*
X59871428Y-96942857D01*
X60157142Y-96942857D01*
X60271428Y-97000000D01*
X60328571Y-97057142D01*
X60385714Y-97171428D01*
X60385714Y-97285714D01*
X60328571Y-97457142D01*
X59642857Y-98142857D01*
X60385714Y-98142857D01*
X61128571Y-96942857D02*
X61242857Y-96942857D01*
X61357142Y-97000000D01*
X61414285Y-97057142D01*
X61471428Y-97171428D01*
X61528571Y-97400000D01*
X61528571Y-97685714D01*
X61471428Y-97914285D01*
X61414285Y-98028571D01*
X61357142Y-98085714D01*
X61242857Y-98142857D01*
X61128571Y-98142857D01*
X61014285Y-98085714D01*
X60957142Y-98028571D01*
X60900000Y-97914285D01*
X60842857Y-97685714D01*
X60842857Y-97400000D01*
X60900000Y-97171428D01*
X60957142Y-97057142D01*
X61014285Y-97000000D01*
X61128571Y-96942857D01*
X61985714Y-97057142D02*
X62042857Y-97000000D01*
X62157142Y-96942857D01*
X62442857Y-96942857D01*
X62557142Y-97000000D01*
X62614285Y-97057142D01*
X62671428Y-97171428D01*
X62671428Y-97285714D01*
X62614285Y-97457142D01*
X61928571Y-98142857D01*
X62671428Y-98142857D01*
X63814285Y-98142857D02*
X63128571Y-98142857D01*
X63471428Y-98142857D02*
X63471428Y-96942857D01*
X63357142Y-97114285D01*
X63242857Y-97228571D01*
X63128571Y-97285714D01*
X52342857Y-95985714D02*
X52457142Y-96042857D01*
X52685714Y-96042857D01*
X52800000Y-95985714D01*
X52857142Y-95871428D01*
X52857142Y-95814285D01*
X52800000Y-95700000D01*
X52685714Y-95642857D01*
X52514285Y-95642857D01*
X52400000Y-95585714D01*
X52342857Y-95471428D01*
X52342857Y-95414285D01*
X52400000Y-95300000D01*
X52514285Y-95242857D01*
X52685714Y-95242857D01*
X52800000Y-95300000D01*
X53885714Y-96042857D02*
X53885714Y-94842857D01*
X53885714Y-95985714D02*
X53771428Y-96042857D01*
X53542857Y-96042857D01*
X53428571Y-95985714D01*
X53371428Y-95928571D01*
X53314285Y-95814285D01*
X53314285Y-95471428D01*
X53371428Y-95357142D01*
X53428571Y-95300000D01*
X53542857Y-95242857D01*
X53771428Y-95242857D01*
X53885714Y-95300000D01*
X54457142Y-96042857D02*
X54457142Y-94842857D01*
X54457142Y-95300000D02*
X54571428Y-95242857D01*
X54800000Y-95242857D01*
X54914285Y-95300000D01*
X54971428Y-95357142D01*
X55028571Y-95471428D01*
X55028571Y-95814285D01*
X54971428Y-95928571D01*
X54914285Y-95985714D01*
X54800000Y-96042857D01*
X54571428Y-96042857D01*
X54457142Y-95985714D01*
X55542857Y-95928571D02*
X55600000Y-95985714D01*
X55542857Y-96042857D01*
X55485714Y-95985714D01*
X55542857Y-95928571D01*
X55542857Y-96042857D01*
X56114285Y-95242857D02*
X56114285Y-96271428D01*
X56057142Y-96385714D01*
X55942857Y-96442857D01*
X55885714Y-96442857D01*
X56114285Y-94842857D02*
X56057142Y-94900000D01*
X56114285Y-94957142D01*
X56171428Y-94900000D01*
X56114285Y-94842857D01*
X56114285Y-94957142D01*
X57200000Y-95242857D02*
X57200000Y-96042857D01*
X56685714Y-95242857D02*
X56685714Y-95871428D01*
X56742857Y-95985714D01*
X56857142Y-96042857D01*
X57028571Y-96042857D01*
X57142857Y-95985714D01*
X57200000Y-95928571D01*
X57942857Y-96042857D02*
X57828571Y-95985714D01*
X57771428Y-95871428D01*
X57771428Y-94842857D01*
X58400000Y-96042857D02*
X58400000Y-95242857D01*
X58400000Y-94842857D02*
X58342857Y-94900000D01*
X58400000Y-94957142D01*
X58457142Y-94900000D01*
X58400000Y-94842857D01*
X58400000Y-94957142D01*
X59485714Y-96042857D02*
X59485714Y-95414285D01*
X59428571Y-95300000D01*
X59314285Y-95242857D01*
X59085714Y-95242857D01*
X58971428Y-95300000D01*
X59485714Y-95985714D02*
X59371428Y-96042857D01*
X59085714Y-96042857D01*
X58971428Y-95985714D01*
X58914285Y-95871428D01*
X58914285Y-95757142D01*
X58971428Y-95642857D01*
X59085714Y-95585714D01*
X59371428Y-95585714D01*
X59485714Y-95528571D01*
X60057142Y-95242857D02*
X60057142Y-96042857D01*
X60057142Y-95357142D02*
X60114285Y-95300000D01*
X60228571Y-95242857D01*
X60400000Y-95242857D01*
X60514285Y-95300000D01*
X60571428Y-95414285D01*
X60571428Y-96042857D01*
X61142857Y-95585714D02*
X62057142Y-95585714D01*
X62514285Y-95242857D02*
X62742857Y-96042857D01*
X62971428Y-95471428D01*
X63200000Y-96042857D01*
X63428571Y-95242857D01*
X63885714Y-95928571D02*
X63942857Y-95985714D01*
X63885714Y-96042857D01*
X63828571Y-95985714D01*
X63885714Y-95928571D01*
X63885714Y-96042857D01*
X64971428Y-96042857D02*
X64971428Y-94842857D01*
X64971428Y-95985714D02*
X64857142Y-96042857D01*
X64628571Y-96042857D01*
X64514285Y-95985714D01*
X64457142Y-95928571D01*
X64400000Y-95814285D01*
X64400000Y-95471428D01*
X64457142Y-95357142D01*
X64514285Y-95300000D01*
X64628571Y-95242857D01*
X64857142Y-95242857D01*
X64971428Y-95300000D01*
X66000000Y-95985714D02*
X65885714Y-96042857D01*
X65657142Y-96042857D01*
X65542857Y-95985714D01*
X65485714Y-95871428D01*
X65485714Y-95414285D01*
X65542857Y-95300000D01*
X65657142Y-95242857D01*
X65885714Y-95242857D01*
X66000000Y-95300000D01*
X66057142Y-95414285D01*
X66057142Y-95528571D01*
X65485714Y-95642857D01*
D11*
X54278571Y-93807142D02*
X54492857Y-93878571D01*
X54850000Y-93878571D01*
X54992857Y-93807142D01*
X55064285Y-93735714D01*
X55135714Y-93592857D01*
X55135714Y-93450000D01*
X55064285Y-93307142D01*
X54992857Y-93235714D01*
X54850000Y-93164285D01*
X54564285Y-93092857D01*
X54421428Y-93021428D01*
X54350000Y-92950000D01*
X54278571Y-92807142D01*
X54278571Y-92664285D01*
X54350000Y-92521428D01*
X54421428Y-92450000D01*
X54564285Y-92378571D01*
X54921428Y-92378571D01*
X55135714Y-92450000D01*
X55778571Y-93878571D02*
X55778571Y-92378571D01*
X56135714Y-92378571D01*
X56350000Y-92450000D01*
X56492857Y-92592857D01*
X56564285Y-92735714D01*
X56635714Y-93021428D01*
X56635714Y-93235714D01*
X56564285Y-93521428D01*
X56492857Y-93664285D01*
X56350000Y-93807142D01*
X56135714Y-93878571D01*
X55778571Y-93878571D01*
X57778571Y-93092857D02*
X57992857Y-93164285D01*
X58064285Y-93235714D01*
X58135714Y-93378571D01*
X58135714Y-93592857D01*
X58064285Y-93735714D01*
X57992857Y-93807142D01*
X57850000Y-93878571D01*
X57278571Y-93878571D01*
X57278571Y-92378571D01*
X57778571Y-92378571D01*
X57921428Y-92450000D01*
X57992857Y-92521428D01*
X58064285Y-92664285D01*
X58064285Y-92807142D01*
X57992857Y-92950000D01*
X57921428Y-93021428D01*
X57778571Y-93092857D01*
X57278571Y-93092857D01*
X58707142Y-92878571D02*
X59778571Y-92878571D01*
X59135714Y-92235714D02*
X58707142Y-94164285D01*
X59635714Y-93521428D02*
X58564285Y-93521428D01*
X59207142Y-94164285D02*
X59635714Y-92235714D01*
X60564285Y-92378571D02*
X60707142Y-92378571D01*
X60850000Y-92450000D01*
X60921428Y-92521428D01*
X60992857Y-92664285D01*
X61064285Y-92950000D01*
X61064285Y-93307142D01*
X60992857Y-93592857D01*
X60921428Y-93735714D01*
X60850000Y-93807142D01*
X60707142Y-93878571D01*
X60564285Y-93878571D01*
X60421428Y-93807142D01*
X60350000Y-93735714D01*
X60278571Y-93592857D01*
X60207142Y-93307142D01*
X60207142Y-92950000D01*
X60278571Y-92664285D01*
X60350000Y-92521428D01*
X60421428Y-92450000D01*
X60564285Y-92378571D01*
X61564285Y-92378571D02*
X62492857Y-92378571D01*
X61992857Y-92950000D01*
X62207142Y-92950000D01*
X62350000Y-93021428D01*
X62421428Y-93092857D01*
X62492857Y-93235714D01*
X62492857Y-93592857D01*
X62421428Y-93735714D01*
X62350000Y-93807142D01*
X62207142Y-93878571D01*
X61778571Y-93878571D01*
X61635714Y-93807142D01*
X61564285Y-93735714D01*
X63921428Y-93878571D02*
X63064285Y-93878571D01*
X63492857Y-93878571D02*
X63492857Y-92378571D01*
X63350000Y-92592857D01*
X63207142Y-92735714D01*
X63064285Y-92807142D01*
X88592857Y-128978571D02*
X88592857Y-130192857D01*
X88664285Y-130335714D01*
X88735714Y-130407142D01*
X88878571Y-130478571D01*
X89164285Y-130478571D01*
X89307142Y-130407142D01*
X89378571Y-130335714D01*
X89450000Y-130192857D01*
X89450000Y-128978571D01*
X90164285Y-130478571D02*
X90164285Y-128978571D01*
X90521428Y-128978571D01*
X90735714Y-129050000D01*
X90878571Y-129192857D01*
X90950000Y-129335714D01*
X91021428Y-129621428D01*
X91021428Y-129835714D01*
X90950000Y-130121428D01*
X90878571Y-130264285D01*
X90735714Y-130407142D01*
X90521428Y-130478571D01*
X90164285Y-130478571D01*
X91664285Y-129907142D02*
X92807142Y-129907142D01*
X88492857Y-126578571D02*
X88492857Y-127792857D01*
X88564285Y-127935714D01*
X88635714Y-128007142D01*
X88778571Y-128078571D01*
X89064285Y-128078571D01*
X89207142Y-128007142D01*
X89278571Y-127935714D01*
X89350000Y-127792857D01*
X89350000Y-126578571D01*
X90064285Y-128078571D02*
X90064285Y-126578571D01*
X90421428Y-126578571D01*
X90635714Y-126650000D01*
X90778571Y-126792857D01*
X90850000Y-126935714D01*
X90921428Y-127221428D01*
X90921428Y-127435714D01*
X90850000Y-127721428D01*
X90778571Y-127864285D01*
X90635714Y-128007142D01*
X90421428Y-128078571D01*
X90064285Y-128078571D01*
X91564285Y-127507142D02*
X92707142Y-127507142D01*
X92135714Y-128078571D02*
X92135714Y-126935714D01*
X90514285Y-121378571D02*
X89800000Y-121378571D01*
X89728571Y-122092857D01*
X89800000Y-122021428D01*
X89942857Y-121950000D01*
X90300000Y-121950000D01*
X90442857Y-122021428D01*
X90514285Y-122092857D01*
X90585714Y-122235714D01*
X90585714Y-122592857D01*
X90514285Y-122735714D01*
X90442857Y-122807142D01*
X90300000Y-122878571D01*
X89942857Y-122878571D01*
X89800000Y-122807142D01*
X89728571Y-122735714D01*
X91014285Y-121378571D02*
X91514285Y-122878571D01*
X92014285Y-121378571D01*
X89657142Y-124050000D02*
X89514285Y-123978571D01*
X89300000Y-123978571D01*
X89085714Y-124050000D01*
X88942857Y-124192857D01*
X88871428Y-124335714D01*
X88800000Y-124621428D01*
X88800000Y-124835714D01*
X88871428Y-125121428D01*
X88942857Y-125264285D01*
X89085714Y-125407142D01*
X89300000Y-125478571D01*
X89442857Y-125478571D01*
X89657142Y-125407142D01*
X89728571Y-125335714D01*
X89728571Y-124835714D01*
X89442857Y-124835714D01*
X90371428Y-125478571D02*
X90371428Y-123978571D01*
X91228571Y-125478571D01*
X91228571Y-123978571D01*
X91942857Y-125478571D02*
X91942857Y-123978571D01*
X92300000Y-123978571D01*
X92514285Y-124050000D01*
X92657142Y-124192857D01*
X92728571Y-124335714D01*
X92800000Y-124621428D01*
X92800000Y-124835714D01*
X92728571Y-125121428D01*
X92657142Y-125264285D01*
X92514285Y-125407142D01*
X92300000Y-125478571D01*
X91942857Y-125478571D01*
X54457142Y-143750000D02*
X54314285Y-143678571D01*
X54100000Y-143678571D01*
X53885714Y-143750000D01*
X53742857Y-143892857D01*
X53671428Y-144035714D01*
X53600000Y-144321428D01*
X53600000Y-144535714D01*
X53671428Y-144821428D01*
X53742857Y-144964285D01*
X53885714Y-145107142D01*
X54100000Y-145178571D01*
X54242857Y-145178571D01*
X54457142Y-145107142D01*
X54528571Y-145035714D01*
X54528571Y-144535714D01*
X54242857Y-144535714D01*
X55171428Y-145178571D02*
X55171428Y-143678571D01*
X56028571Y-145178571D01*
X56028571Y-143678571D01*
X56742857Y-145178571D02*
X56742857Y-143678571D01*
X57100000Y-143678571D01*
X57314285Y-143750000D01*
X57457142Y-143892857D01*
X57528571Y-144035714D01*
X57600000Y-144321428D01*
X57600000Y-144535714D01*
X57528571Y-144821428D01*
X57457142Y-144964285D01*
X57314285Y-145107142D01*
X57100000Y-145178571D01*
X56742857Y-145178571D01*
X68300000Y-143978571D02*
X68800000Y-145478571D01*
X69300000Y-143978571D01*
X70657142Y-145335714D02*
X70585714Y-145407142D01*
X70371428Y-145478571D01*
X70228571Y-145478571D01*
X70014285Y-145407142D01*
X69871428Y-145264285D01*
X69800000Y-145121428D01*
X69728571Y-144835714D01*
X69728571Y-144621428D01*
X69800000Y-144335714D01*
X69871428Y-144192857D01*
X70014285Y-144050000D01*
X70228571Y-143978571D01*
X70371428Y-143978571D01*
X70585714Y-144050000D01*
X70657142Y-144121428D01*
X72157142Y-145335714D02*
X72085714Y-145407142D01*
X71871428Y-145478571D01*
X71728571Y-145478571D01*
X71514285Y-145407142D01*
X71371428Y-145264285D01*
X71300000Y-145121428D01*
X71228571Y-144835714D01*
X71228571Y-144621428D01*
X71300000Y-144335714D01*
X71371428Y-144192857D01*
X71514285Y-144050000D01*
X71728571Y-143978571D01*
X71871428Y-143978571D01*
X72085714Y-144050000D01*
X72157142Y-144121428D01*
X74371428Y-146050000D02*
X74300000Y-145978571D01*
X74157142Y-145764285D01*
X74085714Y-145621428D01*
X74014285Y-145407142D01*
X73942857Y-145050000D01*
X73942857Y-144764285D01*
X74014285Y-144407142D01*
X74085714Y-144192857D01*
X74157142Y-144050000D01*
X74300000Y-143835714D01*
X74371428Y-143764285D01*
X74942857Y-145478571D02*
X74942857Y-144478571D01*
X74942857Y-144621428D02*
X75014285Y-144550000D01*
X75157142Y-144478571D01*
X75371428Y-144478571D01*
X75514285Y-144550000D01*
X75585714Y-144692857D01*
X75585714Y-145478571D01*
X75585714Y-144692857D02*
X75657142Y-144550000D01*
X75800000Y-144478571D01*
X76014285Y-144478571D01*
X76157142Y-144550000D01*
X76228571Y-144692857D01*
X76228571Y-145478571D01*
X77585714Y-145478571D02*
X77585714Y-144692857D01*
X77514285Y-144550000D01*
X77371428Y-144478571D01*
X77085714Y-144478571D01*
X76942857Y-144550000D01*
X77585714Y-145407142D02*
X77442857Y-145478571D01*
X77085714Y-145478571D01*
X76942857Y-145407142D01*
X76871428Y-145264285D01*
X76871428Y-145121428D01*
X76942857Y-144978571D01*
X77085714Y-144907142D01*
X77442857Y-144907142D01*
X77585714Y-144835714D01*
X78157142Y-145478571D02*
X78942857Y-144478571D01*
X78157142Y-144478571D02*
X78942857Y-145478571D01*
X80585714Y-144121428D02*
X80657142Y-144050000D01*
X80800000Y-143978571D01*
X81157142Y-143978571D01*
X81300000Y-144050000D01*
X81371428Y-144121428D01*
X81442857Y-144264285D01*
X81442857Y-144407142D01*
X81371428Y-144621428D01*
X80514285Y-145478571D01*
X81442857Y-145478571D01*
X82300000Y-144621428D02*
X82157142Y-144550000D01*
X82085714Y-144478571D01*
X82014285Y-144335714D01*
X82014285Y-144264285D01*
X82085714Y-144121428D01*
X82157142Y-144050000D01*
X82300000Y-143978571D01*
X82585714Y-143978571D01*
X82728571Y-144050000D01*
X82800000Y-144121428D01*
X82871428Y-144264285D01*
X82871428Y-144335714D01*
X82800000Y-144478571D01*
X82728571Y-144550000D01*
X82585714Y-144621428D01*
X82300000Y-144621428D01*
X82157142Y-144692857D01*
X82085714Y-144764285D01*
X82014285Y-144907142D01*
X82014285Y-145192857D01*
X82085714Y-145335714D01*
X82157142Y-145407142D01*
X82300000Y-145478571D01*
X82585714Y-145478571D01*
X82728571Y-145407142D01*
X82800000Y-145335714D01*
X82871428Y-145192857D01*
X82871428Y-144907142D01*
X82800000Y-144764285D01*
X82728571Y-144692857D01*
X82585714Y-144621428D01*
X83300000Y-143978571D02*
X83800000Y-145478571D01*
X84300000Y-143978571D01*
X84657142Y-146050000D02*
X84728571Y-145978571D01*
X84871428Y-145764285D01*
X84942857Y-145621428D01*
X85014285Y-145407142D01*
X85085714Y-145050000D01*
X85085714Y-144764285D01*
X85014285Y-144407142D01*
X84942857Y-144192857D01*
X84871428Y-144050000D01*
X84728571Y-143835714D01*
X84657142Y-143764285D01*
X99085714Y-64521428D02*
X99085714Y-66021428D01*
X98585714Y-64950000D01*
X98085714Y-66021428D01*
X98085714Y-64521428D01*
X97085714Y-66021428D02*
X96800000Y-66021428D01*
X96657142Y-65950000D01*
X96514285Y-65807142D01*
X96442857Y-65521428D01*
X96442857Y-65021428D01*
X96514285Y-64735714D01*
X96657142Y-64592857D01*
X96800000Y-64521428D01*
X97085714Y-64521428D01*
X97228571Y-64592857D01*
X97371428Y-64735714D01*
X97442857Y-65021428D01*
X97442857Y-65521428D01*
X97371428Y-65807142D01*
X97228571Y-65950000D01*
X97085714Y-66021428D01*
X95800000Y-64521428D02*
X95800000Y-66021428D01*
X95442857Y-66021428D01*
X95228571Y-65950000D01*
X95085714Y-65807142D01*
X95014285Y-65664285D01*
X94942857Y-65378571D01*
X94942857Y-65164285D01*
X95014285Y-64878571D01*
X95085714Y-64735714D01*
X95228571Y-64592857D01*
X95442857Y-64521428D01*
X95800000Y-64521428D01*
X93800000Y-65307142D02*
X93585714Y-65235714D01*
X93514285Y-65164285D01*
X93442857Y-65021428D01*
X93442857Y-64807142D01*
X93514285Y-64664285D01*
X93585714Y-64592857D01*
X93728571Y-64521428D01*
X94300000Y-64521428D01*
X94300000Y-66021428D01*
X93800000Y-66021428D01*
X93657142Y-65950000D01*
X93585714Y-65878571D01*
X93514285Y-65735714D01*
X93514285Y-65592857D01*
X93585714Y-65450000D01*
X93657142Y-65378571D01*
X93800000Y-65307142D01*
X94300000Y-65307142D01*
X92800000Y-66021428D02*
X92800000Y-64807142D01*
X92728571Y-64664285D01*
X92657142Y-64592857D01*
X92514285Y-64521428D01*
X92228571Y-64521428D01*
X92085714Y-64592857D01*
X92014285Y-64664285D01*
X91942857Y-64807142D01*
X91942857Y-66021428D01*
X91300000Y-64592857D02*
X91085714Y-64521428D01*
X90728571Y-64521428D01*
X90585714Y-64592857D01*
X90514285Y-64664285D01*
X90442857Y-64807142D01*
X90442857Y-64950000D01*
X90514285Y-65092857D01*
X90585714Y-65164285D01*
X90728571Y-65235714D01*
X91014285Y-65307142D01*
X91157142Y-65378571D01*
X91228571Y-65450000D01*
X91300000Y-65592857D01*
X91300000Y-65735714D01*
X91228571Y-65878571D01*
X91157142Y-65950000D01*
X91014285Y-66021428D01*
X90657142Y-66021428D01*
X90442857Y-65950000D01*
X71950000Y-64621428D02*
X72450000Y-65335714D01*
X72807142Y-64621428D02*
X72807142Y-66121428D01*
X72235714Y-66121428D01*
X72092857Y-66050000D01*
X72021428Y-65978571D01*
X71950000Y-65835714D01*
X71950000Y-65621428D01*
X72021428Y-65478571D01*
X72092857Y-65407142D01*
X72235714Y-65335714D01*
X72807142Y-65335714D01*
X71450000Y-66121428D02*
X70450000Y-64621428D01*
X70450000Y-66121428D02*
X71450000Y-64621428D01*
X63942857Y-66121428D02*
X63085714Y-66121428D01*
X63514285Y-64621428D02*
X63514285Y-66121428D01*
X62728571Y-66121428D02*
X61728571Y-64621428D01*
X61728571Y-66121428D02*
X62728571Y-64621428D01*
X78475000Y-73407142D02*
X78403571Y-73550000D01*
X78403571Y-73764285D01*
X78475000Y-73978571D01*
X78617857Y-74121428D01*
X78760714Y-74192857D01*
X79046428Y-74264285D01*
X79260714Y-74264285D01*
X79546428Y-74192857D01*
X79689285Y-74121428D01*
X79832142Y-73978571D01*
X79903571Y-73764285D01*
X79903571Y-73621428D01*
X79832142Y-73407142D01*
X79760714Y-73335714D01*
X79260714Y-73335714D01*
X79260714Y-73621428D01*
X81025000Y-73407142D02*
X80953571Y-73550000D01*
X80953571Y-73764285D01*
X81025000Y-73978571D01*
X81167857Y-74121428D01*
X81310714Y-74192857D01*
X81596428Y-74264285D01*
X81810714Y-74264285D01*
X82096428Y-74192857D01*
X82239285Y-74121428D01*
X82382142Y-73978571D01*
X82453571Y-73764285D01*
X82453571Y-73621428D01*
X82382142Y-73407142D01*
X82310714Y-73335714D01*
X81810714Y-73335714D01*
X81810714Y-73621428D01*
X93617857Y-73892857D02*
X93689285Y-73678571D01*
X93760714Y-73607142D01*
X93903571Y-73535714D01*
X94117857Y-73535714D01*
X94260714Y-73607142D01*
X94332142Y-73678571D01*
X94403571Y-73821428D01*
X94403571Y-74392857D01*
X92903571Y-74392857D01*
X92903571Y-73892857D01*
X92975000Y-73750000D01*
X93046428Y-73678571D01*
X93189285Y-73607142D01*
X93332142Y-73607142D01*
X93475000Y-73678571D01*
X93546428Y-73750000D01*
X93617857Y-73892857D01*
X93617857Y-74392857D01*
X96525000Y-74357142D02*
X96525000Y-73642857D01*
X96953571Y-74500000D02*
X95453571Y-74000000D01*
X96953571Y-73500000D01*
X70617857Y-73792857D02*
X70689285Y-73578571D01*
X70760714Y-73507142D01*
X70903571Y-73435714D01*
X71117857Y-73435714D01*
X71260714Y-73507142D01*
X71332142Y-73578571D01*
X71403571Y-73721428D01*
X71403571Y-74292857D01*
X69903571Y-74292857D01*
X69903571Y-73792857D01*
X69975000Y-73650000D01*
X70046428Y-73578571D01*
X70189285Y-73507142D01*
X70332142Y-73507142D01*
X70475000Y-73578571D01*
X70546428Y-73650000D01*
X70617857Y-73792857D01*
X70617857Y-74292857D01*
X73525000Y-74257142D02*
X73525000Y-73542857D01*
X73953571Y-74400000D02*
X72453571Y-73900000D01*
X73953571Y-73400000D01*
X61317857Y-74092857D02*
X61389285Y-73878571D01*
X61460714Y-73807142D01*
X61603571Y-73735714D01*
X61817857Y-73735714D01*
X61960714Y-73807142D01*
X62032142Y-73878571D01*
X62103571Y-74021428D01*
X62103571Y-74592857D01*
X60603571Y-74592857D01*
X60603571Y-74092857D01*
X60675000Y-73950000D01*
X60746428Y-73878571D01*
X60889285Y-73807142D01*
X61032142Y-73807142D01*
X61175000Y-73878571D01*
X61246428Y-73950000D01*
X61317857Y-74092857D01*
X61317857Y-74592857D01*
X64225000Y-74557142D02*
X64225000Y-73842857D01*
X64653571Y-74700000D02*
X63153571Y-74200000D01*
X64653571Y-73700000D01*
D12*
G04 #@! TO.C,C24*
X66800000Y-125250000D02*
X66800000Y-123950000D01*
X67400000Y-124600000D02*
X66200000Y-124600000D01*
X59369000Y-124846000D02*
X59369000Y-124354000D01*
X59409000Y-125198000D02*
X59409000Y-124002000D01*
X59449000Y-125414000D02*
X59449000Y-123786000D01*
X59489000Y-125583000D02*
X59489000Y-123617000D01*
X59529000Y-125727000D02*
X59529000Y-123473000D01*
X59569000Y-125854000D02*
X59569000Y-123346000D01*
X59609000Y-125969000D02*
X59609000Y-123231000D01*
X59649000Y-126073000D02*
X59649000Y-123127000D01*
X59689000Y-126170000D02*
X59689000Y-123030000D01*
X59729000Y-126260000D02*
X59729000Y-122940000D01*
X59769000Y-126345000D02*
X59769000Y-122855000D01*
X59809000Y-126426000D02*
X59809000Y-122774000D01*
X59849000Y-126502000D02*
X59849000Y-122698000D01*
X59889000Y-126574000D02*
X59889000Y-122626000D01*
X59929000Y-126643000D02*
X59929000Y-122557000D01*
X59969000Y-126709000D02*
X59969000Y-122491000D01*
X60009000Y-126773000D02*
X60009000Y-122427000D01*
X60049000Y-126834000D02*
X60049000Y-122366000D01*
X60089000Y-126893000D02*
X60089000Y-122307000D01*
X60129000Y-126949000D02*
X60129000Y-122251000D01*
X60169000Y-127004000D02*
X60169000Y-122196000D01*
X60209000Y-127057000D02*
X60209000Y-122143000D01*
X60249000Y-127108000D02*
X60249000Y-122092000D01*
X60289000Y-127157000D02*
X60289000Y-122043000D01*
X60329000Y-127205000D02*
X60329000Y-121995000D01*
X60369000Y-127252000D02*
X60369000Y-121948000D01*
X60409000Y-127297000D02*
X60409000Y-121903000D01*
X60449000Y-127340000D02*
X60449000Y-121860000D01*
X60489000Y-127383000D02*
X60489000Y-121817000D01*
X60529000Y-127424000D02*
X60529000Y-121776000D01*
X60569000Y-127465000D02*
X60569000Y-121735000D01*
X60609000Y-127504000D02*
X60609000Y-121696000D01*
X60649000Y-127542000D02*
X60649000Y-121658000D01*
X60689000Y-127579000D02*
X60689000Y-121621000D01*
X60729000Y-123620000D02*
X60729000Y-121585000D01*
X60729000Y-127615000D02*
X60729000Y-125580000D01*
X60769000Y-123620000D02*
X60769000Y-121550000D01*
X60769000Y-127650000D02*
X60769000Y-125580000D01*
X60809000Y-123620000D02*
X60809000Y-121516000D01*
X60809000Y-127684000D02*
X60809000Y-125580000D01*
X60849000Y-123620000D02*
X60849000Y-121482000D01*
X60849000Y-127718000D02*
X60849000Y-125580000D01*
X60889000Y-123620000D02*
X60889000Y-121450000D01*
X60889000Y-127750000D02*
X60889000Y-125580000D01*
X60929000Y-123620000D02*
X60929000Y-121418000D01*
X60929000Y-127782000D02*
X60929000Y-125580000D01*
X60969000Y-123620000D02*
X60969000Y-121387000D01*
X60969000Y-127813000D02*
X60969000Y-125580000D01*
X61009000Y-123620000D02*
X61009000Y-121357000D01*
X61009000Y-127843000D02*
X61009000Y-125580000D01*
X61049000Y-123620000D02*
X61049000Y-121328000D01*
X61049000Y-127872000D02*
X61049000Y-125580000D01*
X61089000Y-123620000D02*
X61089000Y-121299000D01*
X61089000Y-127901000D02*
X61089000Y-125580000D01*
X61129000Y-123620000D02*
X61129000Y-121271000D01*
X61129000Y-127929000D02*
X61129000Y-125580000D01*
X61169000Y-123620000D02*
X61169000Y-121244000D01*
X61169000Y-127956000D02*
X61169000Y-125580000D01*
X61209000Y-123620000D02*
X61209000Y-121217000D01*
X61209000Y-127983000D02*
X61209000Y-125580000D01*
X61249000Y-123620000D02*
X61249000Y-121192000D01*
X61249000Y-128008000D02*
X61249000Y-125580000D01*
X61289000Y-123620000D02*
X61289000Y-121166000D01*
X61289000Y-128034000D02*
X61289000Y-125580000D01*
X61329000Y-123620000D02*
X61329000Y-121142000D01*
X61329000Y-128058000D02*
X61329000Y-125580000D01*
X61369000Y-123620000D02*
X61369000Y-121118000D01*
X61369000Y-128082000D02*
X61369000Y-125580000D01*
X61409000Y-123620000D02*
X61409000Y-121095000D01*
X61409000Y-128105000D02*
X61409000Y-125580000D01*
X61449000Y-123620000D02*
X61449000Y-121072000D01*
X61449000Y-128128000D02*
X61449000Y-125580000D01*
X61489000Y-123620000D02*
X61489000Y-121050000D01*
X61489000Y-128150000D02*
X61489000Y-125580000D01*
X61529000Y-123620000D02*
X61529000Y-121028000D01*
X61529000Y-128172000D02*
X61529000Y-125580000D01*
X61569000Y-123620000D02*
X61569000Y-121007000D01*
X61569000Y-128193000D02*
X61569000Y-125580000D01*
X61609000Y-123620000D02*
X61609000Y-120987000D01*
X61609000Y-128213000D02*
X61609000Y-125580000D01*
X61649000Y-123620000D02*
X61649000Y-120967000D01*
X61649000Y-128233000D02*
X61649000Y-125580000D01*
X61689000Y-123620000D02*
X61689000Y-120948000D01*
X61689000Y-128252000D02*
X61689000Y-125580000D01*
X61729000Y-123620000D02*
X61729000Y-120929000D01*
X61729000Y-128271000D02*
X61729000Y-125580000D01*
X61769000Y-123620000D02*
X61769000Y-120910000D01*
X61769000Y-128290000D02*
X61769000Y-125580000D01*
X61809000Y-123620000D02*
X61809000Y-120893000D01*
X61809000Y-128307000D02*
X61809000Y-125580000D01*
X61849000Y-123620000D02*
X61849000Y-120875000D01*
X61849000Y-128325000D02*
X61849000Y-125580000D01*
X61889000Y-123620000D02*
X61889000Y-120859000D01*
X61889000Y-128341000D02*
X61889000Y-125580000D01*
X61929000Y-123620000D02*
X61929000Y-120842000D01*
X61929000Y-128358000D02*
X61929000Y-125580000D01*
X61969000Y-123620000D02*
X61969000Y-120827000D01*
X61969000Y-128373000D02*
X61969000Y-125580000D01*
X62009000Y-123620000D02*
X62009000Y-120811000D01*
X62009000Y-128389000D02*
X62009000Y-125580000D01*
X62049000Y-123620000D02*
X62049000Y-120797000D01*
X62049000Y-128403000D02*
X62049000Y-125580000D01*
X62089000Y-123620000D02*
X62089000Y-120782000D01*
X62089000Y-128418000D02*
X62089000Y-125580000D01*
X62129000Y-123620000D02*
X62129000Y-120768000D01*
X62129000Y-128432000D02*
X62129000Y-125580000D01*
X62169000Y-123620000D02*
X62169000Y-120755000D01*
X62169000Y-128445000D02*
X62169000Y-125580000D01*
X62209000Y-123620000D02*
X62209000Y-120742000D01*
X62209000Y-128458000D02*
X62209000Y-125580000D01*
X62249000Y-123620000D02*
X62249000Y-120730000D01*
X62249000Y-128470000D02*
X62249000Y-125580000D01*
X62289000Y-123620000D02*
X62289000Y-120717000D01*
X62289000Y-128483000D02*
X62289000Y-125580000D01*
X62329000Y-123620000D02*
X62329000Y-120706000D01*
X62329000Y-128494000D02*
X62329000Y-125580000D01*
X62369000Y-123620000D02*
X62369000Y-120695000D01*
X62369000Y-128505000D02*
X62369000Y-125580000D01*
X62409000Y-123620000D02*
X62409000Y-120684000D01*
X62409000Y-128516000D02*
X62409000Y-125580000D01*
X62449000Y-123620000D02*
X62449000Y-120674000D01*
X62449000Y-128526000D02*
X62449000Y-125580000D01*
X62489000Y-123620000D02*
X62489000Y-120664000D01*
X62489000Y-128536000D02*
X62489000Y-125580000D01*
X62529000Y-123620000D02*
X62529000Y-120654000D01*
X62529000Y-128546000D02*
X62529000Y-125580000D01*
X62569000Y-123620000D02*
X62569000Y-120645000D01*
X62569000Y-128555000D02*
X62569000Y-125580000D01*
X62609000Y-123620000D02*
X62609000Y-120637000D01*
X62609000Y-128563000D02*
X62609000Y-125580000D01*
X62649000Y-123620000D02*
X62649000Y-120629000D01*
X62649000Y-128571000D02*
X62649000Y-125580000D01*
X62689000Y-128579000D02*
X62689000Y-120621000D01*
X62729000Y-128587000D02*
X62729000Y-120613000D01*
X62770000Y-128594000D02*
X62770000Y-120606000D01*
X62810000Y-128600000D02*
X62810000Y-120600000D01*
X62850000Y-128606000D02*
X62850000Y-120594000D01*
X62890000Y-128612000D02*
X62890000Y-120588000D01*
X62930000Y-128617000D02*
X62930000Y-120583000D01*
X62970000Y-128622000D02*
X62970000Y-120578000D01*
X63010000Y-128627000D02*
X63010000Y-120573000D01*
X63050000Y-128631000D02*
X63050000Y-120569000D01*
X63090000Y-128635000D02*
X63090000Y-120565000D01*
X63130000Y-128638000D02*
X63130000Y-120562000D01*
X63170000Y-128641000D02*
X63170000Y-120559000D01*
X63210000Y-128643000D02*
X63210000Y-120557000D01*
X63250000Y-128646000D02*
X63250000Y-120554000D01*
X63290000Y-128647000D02*
X63290000Y-120553000D01*
X63330000Y-128649000D02*
X63330000Y-120551000D01*
X63370000Y-128650000D02*
X63370000Y-120550000D01*
X63410000Y-128650000D02*
X63410000Y-120550000D01*
X63450000Y-128650000D02*
X63450000Y-120550000D01*
X67540000Y-124600000D02*
G75*
G03*
X67540000Y-124600000I-4090000J0D01*
G01*
G04 #@! TO.C,J10*
X83370000Y-70830000D02*
X83370000Y-68170000D01*
X80770000Y-70830000D02*
X83370000Y-70830000D01*
X80770000Y-68170000D02*
X83370000Y-68170000D01*
X80770000Y-70830000D02*
X80770000Y-68170000D01*
X79500000Y-70830000D02*
X78170000Y-70830000D01*
X78170000Y-70830000D02*
X78170000Y-69500000D01*
G04 #@! TO.C,U8*
X65325000Y-79500000D02*
X65325000Y-77550000D01*
X65325000Y-79500000D02*
X65325000Y-81450000D01*
X60205000Y-79500000D02*
X60205000Y-77550000D01*
X60205000Y-79500000D02*
X60205000Y-82950000D01*
G04 #@! TO.C,U7*
X75565000Y-102927500D02*
X75565000Y-102452500D01*
X75565000Y-102452500D02*
X76040000Y-102452500D01*
X80785000Y-107197500D02*
X80785000Y-107672500D01*
X80785000Y-107672500D02*
X80310000Y-107672500D01*
X80785000Y-102927500D02*
X80785000Y-102452500D01*
X80785000Y-102452500D02*
X80310000Y-102452500D01*
X75565000Y-107197500D02*
X75565000Y-107672500D01*
G04 #@! TO.C,U6*
X73860000Y-79300000D02*
X73860000Y-77350000D01*
X73860000Y-79300000D02*
X73860000Y-81250000D01*
X68740000Y-79300000D02*
X68740000Y-77350000D01*
X68740000Y-79300000D02*
X68740000Y-82750000D01*
G04 #@! TO.C,U5*
X86600000Y-119300000D02*
X86600000Y-117700000D01*
X83400000Y-117700000D02*
X83400000Y-120000000D01*
G04 #@! TO.C,U4*
X71540000Y-127850000D02*
X71540000Y-116230000D01*
X80160000Y-127850000D02*
X80160000Y-116230000D01*
X71540000Y-127850000D02*
X80160000Y-127850000D01*
X71540000Y-116230000D02*
X80160000Y-116230000D01*
X72540000Y-128090000D02*
X71300000Y-128090000D01*
X71300000Y-128090000D02*
X71300000Y-126850000D01*
G04 #@! TO.C,U3*
X97360000Y-79200000D02*
X97360000Y-77250000D01*
X97360000Y-79200000D02*
X97360000Y-81150000D01*
X92240000Y-79200000D02*
X92240000Y-77250000D01*
X92240000Y-79200000D02*
X92240000Y-82650000D01*
G04 #@! TO.C,U2*
X105575000Y-131935000D02*
X107525000Y-131935000D01*
X105575000Y-131935000D02*
X103625000Y-131935000D01*
X105575000Y-121815000D02*
X107525000Y-121815000D01*
X105575000Y-121815000D02*
X102125000Y-121815000D01*
G04 #@! TO.C,U1*
X91645000Y-91380000D02*
X90865000Y-91380000D01*
X90865000Y-91380000D02*
X90865000Y-92380000D01*
X91645000Y-109620000D02*
X90865000Y-109620000D01*
X90865000Y-109620000D02*
X90865000Y-108620000D01*
X116610000Y-91380000D02*
X116610000Y-109620000D01*
X116610000Y-109620000D02*
X110190000Y-109620000D01*
X116610000Y-91380000D02*
X110190000Y-91380000D01*
X110190000Y-91380000D02*
X110190000Y-91000000D01*
G04 #@! TO.C,R26*
X70000000Y-111820000D02*
X71000000Y-111820000D01*
X71000000Y-113180000D02*
X70000000Y-113180000D01*
G04 #@! TO.C,R25*
X70000000Y-102320000D02*
X71000000Y-102320000D01*
X71000000Y-103680000D02*
X70000000Y-103680000D01*
G04 #@! TO.C,R24*
X70000000Y-108820000D02*
X71000000Y-108820000D01*
X71000000Y-110180000D02*
X70000000Y-110180000D01*
G04 #@! TO.C,R23*
X70000000Y-106820000D02*
X71000000Y-106820000D01*
X71000000Y-108180000D02*
X70000000Y-108180000D01*
G04 #@! TO.C,R22*
X70000000Y-105320000D02*
X71000000Y-105320000D01*
X71000000Y-106680000D02*
X70000000Y-106680000D01*
G04 #@! TO.C,R21*
X73820000Y-112000000D02*
X73820000Y-111000000D01*
X75180000Y-111000000D02*
X75180000Y-112000000D01*
G04 #@! TO.C,R20*
X70000000Y-103820000D02*
X71000000Y-103820000D01*
X71000000Y-105180000D02*
X70000000Y-105180000D01*
G04 #@! TO.C,R19*
X81320000Y-99250000D02*
X81320000Y-98250000D01*
X82680000Y-98250000D02*
X82680000Y-99250000D01*
G04 #@! TO.C,R18*
X83250000Y-111320000D02*
X84250000Y-111320000D01*
X84250000Y-112680000D02*
X83250000Y-112680000D01*
G04 #@! TO.C,R17*
X83250000Y-109820000D02*
X84250000Y-109820000D01*
X84250000Y-111180000D02*
X83250000Y-111180000D01*
G04 #@! TO.C,R16*
X83250000Y-108320000D02*
X84250000Y-108320000D01*
X84250000Y-109680000D02*
X83250000Y-109680000D01*
G04 #@! TO.C,R15*
X76820000Y-99250000D02*
X76820000Y-98250000D01*
X78180000Y-98250000D02*
X78180000Y-99250000D01*
G04 #@! TO.C,R14*
X78320000Y-99250000D02*
X78320000Y-98250000D01*
X79680000Y-98250000D02*
X79680000Y-99250000D01*
G04 #@! TO.C,R13*
X79820000Y-99250000D02*
X79820000Y-98250000D01*
X81180000Y-98250000D02*
X81180000Y-99250000D01*
G04 #@! TO.C,R12*
X83250000Y-105320000D02*
X84250000Y-105320000D01*
X84250000Y-106680000D02*
X83250000Y-106680000D01*
G04 #@! TO.C,R11*
X83250000Y-106820000D02*
X84250000Y-106820000D01*
X84250000Y-108180000D02*
X83250000Y-108180000D01*
G04 #@! TO.C,R10*
X87920000Y-114800000D02*
X87920000Y-113800000D01*
X89280000Y-113800000D02*
X89280000Y-114800000D01*
G04 #@! TO.C,R9*
X101400000Y-81620000D02*
X102400000Y-81620000D01*
X102400000Y-82980000D02*
X101400000Y-82980000D01*
G04 #@! TO.C,R7*
X88035000Y-131600000D02*
X88035000Y-132600000D01*
X86675000Y-132600000D02*
X86675000Y-131600000D01*
G04 #@! TO.C,R6*
X101350000Y-83320000D02*
X102350000Y-83320000D01*
X102350000Y-84680000D02*
X101350000Y-84680000D01*
G04 #@! TO.C,R5*
X84850000Y-86880000D02*
X83850000Y-86880000D01*
X83850000Y-85520000D02*
X84850000Y-85520000D01*
G04 #@! TO.C,R4*
X83850000Y-88120000D02*
X84850000Y-88120000D01*
X84850000Y-89480000D02*
X83850000Y-89480000D01*
G04 #@! TO.C,R3*
X108280000Y-116800000D02*
X108280000Y-117800000D01*
X106920000Y-117800000D02*
X106920000Y-116800000D01*
G04 #@! TO.C,R2*
X100020000Y-116100000D02*
X100020000Y-115100000D01*
X101380000Y-115100000D02*
X101380000Y-116100000D01*
G04 #@! TO.C,R1*
X103680000Y-87100000D02*
X103680000Y-88100000D01*
X102320000Y-88100000D02*
X102320000Y-87100000D01*
G04 #@! TO.C,Q2*
X90640000Y-112720000D02*
X90640000Y-113650000D01*
X90640000Y-115880000D02*
X90640000Y-114950000D01*
X90640000Y-115880000D02*
X92800000Y-115880000D01*
X90640000Y-112720000D02*
X92100000Y-112720000D01*
G04 #@! TO.C,Q1*
X111140000Y-121400000D02*
X111140000Y-123300000D01*
X113460000Y-122800000D02*
X113460000Y-121400000D01*
G04 #@! TO.C,L1*
X82500000Y-113320000D02*
X83500000Y-113320000D01*
X83500000Y-114680000D02*
X82500000Y-114680000D01*
G04 #@! TO.C,J9*
X65370000Y-70830000D02*
X65370000Y-68170000D01*
X62770000Y-70830000D02*
X65370000Y-70830000D01*
X62770000Y-68170000D02*
X65370000Y-68170000D01*
X62770000Y-70830000D02*
X62770000Y-68170000D01*
X61500000Y-70830000D02*
X60170000Y-70830000D01*
X60170000Y-70830000D02*
X60170000Y-69500000D01*
D13*
G04 #@! TO.C,J8*
X68800000Y-101655000D02*
X62650000Y-101655000D01*
X68800000Y-117915000D02*
X68800000Y-101655000D01*
X68800000Y-117915000D02*
X62650000Y-117915000D01*
D14*
X64475000Y-100235000D02*
G75*
G03*
X64475000Y-100235000I-125000J0D01*
G01*
D13*
X59005000Y-101655000D02*
X51005000Y-101655000D01*
X51005000Y-117915000D02*
X59005000Y-117915000D01*
D12*
G04 #@! TO.C,J7*
X74330000Y-70830000D02*
X74330000Y-68170000D01*
X71730000Y-70830000D02*
X74330000Y-70830000D01*
X71730000Y-68170000D02*
X74330000Y-68170000D01*
X71730000Y-70830000D02*
X71730000Y-68170000D01*
X70460000Y-70830000D02*
X69130000Y-70830000D01*
X69130000Y-70830000D02*
X69130000Y-69500000D01*
G04 #@! TO.C,J6*
X97370000Y-70830000D02*
X97370000Y-68170000D01*
X94770000Y-70830000D02*
X97370000Y-70830000D01*
X94770000Y-68170000D02*
X97370000Y-68170000D01*
X94770000Y-70830000D02*
X94770000Y-68170000D01*
X93500000Y-70830000D02*
X92170000Y-70830000D01*
X92170000Y-70830000D02*
X92170000Y-69500000D01*
G04 #@! TO.C,J5*
X82130000Y-95130000D02*
X82130000Y-92470000D01*
X79530000Y-95130000D02*
X82130000Y-95130000D01*
X79530000Y-92470000D02*
X82130000Y-92470000D01*
X79530000Y-95130000D02*
X79530000Y-92470000D01*
X78260000Y-95130000D02*
X76930000Y-95130000D01*
X76930000Y-95130000D02*
X76930000Y-93800000D01*
G04 #@! TO.C,J4*
X70070000Y-92470000D02*
X70070000Y-95130000D01*
X72670000Y-92470000D02*
X70070000Y-92470000D01*
X72670000Y-95130000D02*
X70070000Y-95130000D01*
X72670000Y-92470000D02*
X72670000Y-95130000D01*
X73940000Y-92470000D02*
X75270000Y-92470000D01*
X75270000Y-92470000D02*
X75270000Y-93800000D01*
D15*
G04 #@! TO.C,J3*
X47554999Y-78984999D02*
X47554999Y-90984999D01*
X77054999Y-78984999D02*
X77054999Y-90984999D01*
X82054999Y-78984999D02*
X44054999Y-78984999D01*
X44054999Y-78984999D02*
X44054999Y-90984999D01*
X44054999Y-90984999D02*
X82054999Y-90984999D01*
X82054999Y-90984999D02*
X82054999Y-78984999D01*
D12*
G04 #@! TO.C,J2*
X65870000Y-145830000D02*
X65870000Y-143170000D01*
X63270000Y-145830000D02*
X65870000Y-145830000D01*
X63270000Y-143170000D02*
X65870000Y-143170000D01*
X63270000Y-145830000D02*
X63270000Y-143170000D01*
X62000000Y-145830000D02*
X60670000Y-145830000D01*
X60670000Y-145830000D02*
X60670000Y-144500000D01*
G04 #@! TO.C,J1*
X97330000Y-120870000D02*
X94670000Y-120870000D01*
X97330000Y-128550000D02*
X97330000Y-120870000D01*
X94670000Y-128550000D02*
X94670000Y-120870000D01*
X97330000Y-128550000D02*
X94670000Y-128550000D01*
X97330000Y-129820000D02*
X97330000Y-131150000D01*
X97330000Y-131150000D02*
X96000000Y-131150000D01*
G04 #@! TO.C,D5*
X82220000Y-130210000D02*
X82064000Y-130210000D01*
X84536000Y-130210000D02*
X84380000Y-130210000D01*
X84378608Y-133442335D02*
G75*
G03*
X84535516Y-130210000I-1078608J1672335D01*
G01*
X82221392Y-133442335D02*
G75*
G02*
X82064484Y-130210000I1078608J1672335D01*
G01*
X84379837Y-132811130D02*
G75*
G03*
X84380000Y-130729039I-1079837J1041130D01*
G01*
X82220163Y-132811130D02*
G75*
G02*
X82220000Y-130729039I1079837J1041130D01*
G01*
G04 #@! TO.C,D4*
X87840000Y-107220000D02*
X87840000Y-108150000D01*
X87840000Y-110380000D02*
X87840000Y-109450000D01*
X87840000Y-110380000D02*
X90000000Y-110380000D01*
X87840000Y-107220000D02*
X89300000Y-107220000D01*
G04 #@! TO.C,D3*
X106300000Y-114200000D02*
X106300000Y-118100000D01*
X104300000Y-114200000D02*
X104300000Y-118100000D01*
X106300000Y-114200000D02*
X104300000Y-114200000D01*
G04 #@! TO.C,D2*
X101800000Y-118700000D02*
X101800000Y-114800000D01*
X103800000Y-118700000D02*
X103800000Y-114800000D01*
X101800000Y-118700000D02*
X103800000Y-118700000D01*
G04 #@! TO.C,D1*
X74650000Y-128600000D02*
X74650000Y-134000000D01*
X71350000Y-128600000D02*
X71350000Y-134000000D01*
X74650000Y-128600000D02*
X71350000Y-128600000D01*
G04 #@! TO.C,C23*
X76900000Y-111850000D02*
X76900000Y-111150000D01*
X78100000Y-111150000D02*
X78100000Y-111850000D01*
G04 #@! TO.C,C22*
X75400000Y-111850000D02*
X75400000Y-111150000D01*
X76600000Y-111150000D02*
X76600000Y-111850000D01*
G04 #@! TO.C,C21*
X70150000Y-100900000D02*
X70850000Y-100900000D01*
X70850000Y-102100000D02*
X70150000Y-102100000D01*
G04 #@! TO.C,C20*
X91700000Y-77200000D02*
X91700000Y-77900000D01*
X90500000Y-77900000D02*
X90500000Y-77200000D01*
G04 #@! TO.C,C19*
X71100000Y-111600000D02*
X70400000Y-111600000D01*
X70400000Y-110400000D02*
X71100000Y-110400000D01*
G04 #@! TO.C,C18*
X78400000Y-111850000D02*
X78400000Y-111150000D01*
X79600000Y-111150000D02*
X79600000Y-111850000D01*
G04 #@! TO.C,C17*
X79900000Y-111850000D02*
X79900000Y-111150000D01*
X81100000Y-111150000D02*
X81100000Y-111850000D01*
G04 #@! TO.C,C16*
X82650000Y-114900000D02*
X83350000Y-114900000D01*
X83350000Y-116100000D02*
X82650000Y-116100000D01*
G04 #@! TO.C,C15*
X68400000Y-77200000D02*
X68400000Y-77900000D01*
X67200000Y-77900000D02*
X67200000Y-77200000D01*
G04 #@! TO.C,C14*
X83850000Y-103600000D02*
X83150000Y-103600000D01*
X83150000Y-102400000D02*
X83850000Y-102400000D01*
G04 #@! TO.C,C13*
X83850000Y-105100000D02*
X83150000Y-105100000D01*
X83150000Y-103900000D02*
X83850000Y-103900000D01*
G04 #@! TO.C,C12*
X69350000Y-120300000D02*
X68650000Y-120300000D01*
X68650000Y-119100000D02*
X69350000Y-119100000D01*
G04 #@! TO.C,C11*
X69350000Y-121700000D02*
X68650000Y-121700000D01*
X68650000Y-120500000D02*
X69350000Y-120500000D01*
G04 #@! TO.C,C10*
X59400000Y-77500000D02*
X59400000Y-78200000D01*
X58200000Y-78200000D02*
X58200000Y-77500000D01*
G04 #@! TO.C,C9*
X87500000Y-113950000D02*
X87500000Y-114650000D01*
X86300000Y-114650000D02*
X86300000Y-113950000D01*
G04 #@! TO.C,C8*
X69600000Y-124950000D02*
X68600000Y-124950000D01*
X68600000Y-126650000D02*
X69600000Y-126650000D01*
G04 #@! TO.C,C7*
X69600000Y-122950000D02*
X68600000Y-122950000D01*
X68600000Y-124650000D02*
X69600000Y-124650000D01*
G04 #@! TO.C,C6*
X99700000Y-125850000D02*
X99700000Y-125150000D01*
X100900000Y-125150000D02*
X100900000Y-125850000D01*
G04 #@! TO.C,C5*
X100900000Y-121850000D02*
X100900000Y-122550000D01*
X99700000Y-122550000D02*
X99700000Y-121850000D01*
G04 #@! TO.C,C4*
X108550000Y-120000000D02*
X109250000Y-120000000D01*
X109250000Y-121200000D02*
X108550000Y-121200000D01*
G04 #@! TO.C,C3*
X103900000Y-88050000D02*
X103900000Y-87350000D01*
X105100000Y-87350000D02*
X105100000Y-88050000D01*
G04 #@! TO.C,C2*
X108400000Y-112900000D02*
X108400000Y-112200000D01*
X109600000Y-112200000D02*
X109600000Y-112900000D01*
G04 #@! TO.C,C1*
X107150000Y-89100000D02*
X106450000Y-89100000D01*
X106450000Y-87900000D02*
X107150000Y-87900000D01*
G04 #@! TO.C,J3*
D13*
X78251427Y-87884284D02*
X78215713Y-87991427D01*
X78215713Y-88169999D01*
X78251427Y-88241427D01*
X78287141Y-88277141D01*
X78358570Y-88312856D01*
X78429999Y-88312856D01*
X78501427Y-88277141D01*
X78537141Y-88241427D01*
X78572856Y-88169999D01*
X78608570Y-88027141D01*
X78644284Y-87955713D01*
X78679999Y-87919999D01*
X78751427Y-87884284D01*
X78822856Y-87884284D01*
X78894284Y-87919999D01*
X78929999Y-87955713D01*
X78965713Y-88027141D01*
X78965713Y-88205713D01*
X78929999Y-88312856D01*
X78215713Y-88634284D02*
X78965713Y-88634284D01*
X78965713Y-88812856D01*
X78929999Y-88919999D01*
X78858570Y-88991427D01*
X78787141Y-89027141D01*
X78644284Y-89062856D01*
X78537141Y-89062856D01*
X78394284Y-89027141D01*
X78322856Y-88991427D01*
X78251427Y-88919999D01*
X78215713Y-88812856D01*
X78215713Y-88634284D01*
X78429999Y-89348570D02*
X78429999Y-89705713D01*
X78215713Y-89277141D02*
X78965713Y-89527141D01*
X78215713Y-89777141D01*
X78251427Y-85362141D02*
X78215713Y-85469284D01*
X78215713Y-85647856D01*
X78251427Y-85719284D01*
X78287141Y-85754999D01*
X78358570Y-85790713D01*
X78429999Y-85790713D01*
X78501427Y-85754999D01*
X78537141Y-85719284D01*
X78572856Y-85647856D01*
X78608570Y-85504999D01*
X78644284Y-85433570D01*
X78679999Y-85397856D01*
X78751427Y-85362141D01*
X78822856Y-85362141D01*
X78894284Y-85397856D01*
X78929999Y-85433570D01*
X78965713Y-85504999D01*
X78965713Y-85683570D01*
X78929999Y-85790713D01*
X78287141Y-86540713D02*
X78251427Y-86504999D01*
X78215713Y-86397856D01*
X78215713Y-86326427D01*
X78251427Y-86219284D01*
X78322856Y-86147856D01*
X78394284Y-86112141D01*
X78537141Y-86076427D01*
X78644284Y-86076427D01*
X78787141Y-86112141D01*
X78858570Y-86147856D01*
X78929999Y-86219284D01*
X78965713Y-86326427D01*
X78965713Y-86397856D01*
X78929999Y-86504999D01*
X78894284Y-86540713D01*
X78215713Y-87219284D02*
X78215713Y-86862141D01*
X78965713Y-86862141D01*
X78965713Y-82714999D02*
X78215713Y-82964999D01*
X78965713Y-83214999D01*
X78287141Y-83893570D02*
X78251427Y-83857856D01*
X78215713Y-83750713D01*
X78215713Y-83679284D01*
X78251427Y-83572141D01*
X78322856Y-83500713D01*
X78394284Y-83464999D01*
X78537141Y-83429284D01*
X78644284Y-83429284D01*
X78787141Y-83464999D01*
X78858570Y-83500713D01*
X78929999Y-83572141D01*
X78965713Y-83679284D01*
X78965713Y-83750713D01*
X78929999Y-83857856D01*
X78894284Y-83893570D01*
X78287141Y-84643570D02*
X78251427Y-84607856D01*
X78215713Y-84500713D01*
X78215713Y-84429284D01*
X78251427Y-84322141D01*
X78322856Y-84250713D01*
X78394284Y-84214999D01*
X78537141Y-84179284D01*
X78644284Y-84179284D01*
X78787141Y-84214999D01*
X78858570Y-84250713D01*
X78929999Y-84322141D01*
X78965713Y-84429284D01*
X78965713Y-84500713D01*
X78929999Y-84607856D01*
X78894284Y-84643570D01*
X78929999Y-80603570D02*
X78965713Y-80532141D01*
X78965713Y-80424999D01*
X78929999Y-80317856D01*
X78858570Y-80246427D01*
X78787141Y-80210713D01*
X78644284Y-80174999D01*
X78537141Y-80174999D01*
X78394284Y-80210713D01*
X78322856Y-80246427D01*
X78251427Y-80317856D01*
X78215713Y-80424999D01*
X78215713Y-80496427D01*
X78251427Y-80603570D01*
X78287141Y-80639284D01*
X78537141Y-80639284D01*
X78537141Y-80496427D01*
X78215713Y-80960713D02*
X78965713Y-80960713D01*
X78215713Y-81389284D01*
X78965713Y-81389284D01*
X78215713Y-81746427D02*
X78965713Y-81746427D01*
X78965713Y-81924999D01*
X78929999Y-82032141D01*
X78858570Y-82103570D01*
X78787141Y-82139284D01*
X78644284Y-82174999D01*
X78537141Y-82174999D01*
X78394284Y-82139284D01*
X78322856Y-82103570D01*
X78251427Y-82032141D01*
X78215713Y-81924999D01*
X78215713Y-81746427D01*
X59126427Y-84437379D02*
X59316903Y-84437379D01*
X59412141Y-84484999D01*
X59507379Y-84580237D01*
X59554999Y-84770713D01*
X59554999Y-85104046D01*
X59507379Y-85294522D01*
X59412141Y-85389760D01*
X59316903Y-85437379D01*
X59126427Y-85437379D01*
X59031189Y-85389760D01*
X58935951Y-85294522D01*
X58888332Y-85104046D01*
X58888332Y-84770713D01*
X58935951Y-84580237D01*
X59031189Y-84484999D01*
X59126427Y-84437379D01*
X60459760Y-85437379D02*
X59983570Y-85437379D01*
X59983570Y-84437379D01*
X60793094Y-84913570D02*
X61126427Y-84913570D01*
X61269284Y-85437379D02*
X60793094Y-85437379D01*
X60793094Y-84437379D01*
X61269284Y-84437379D01*
X61697856Y-85437379D02*
X61697856Y-84437379D01*
X61935951Y-84437379D01*
X62078808Y-84484999D01*
X62174046Y-84580237D01*
X62221665Y-84675475D01*
X62269284Y-84865951D01*
X62269284Y-85008808D01*
X62221665Y-85199284D01*
X62174046Y-85294522D01*
X62078808Y-85389760D01*
X61935951Y-85437379D01*
X61697856Y-85437379D01*
X63459760Y-85437379D02*
X63459760Y-84437379D01*
X63840713Y-84437379D01*
X63935951Y-84484999D01*
X63983570Y-84532618D01*
X64031189Y-84627856D01*
X64031189Y-84770713D01*
X63983570Y-84865951D01*
X63935951Y-84913570D01*
X63840713Y-84961189D01*
X63459760Y-84961189D01*
X64888332Y-85437379D02*
X64888332Y-84913570D01*
X64840713Y-84818332D01*
X64745475Y-84770713D01*
X64554999Y-84770713D01*
X64459760Y-84818332D01*
X64888332Y-85389760D02*
X64793094Y-85437379D01*
X64554999Y-85437379D01*
X64459760Y-85389760D01*
X64412141Y-85294522D01*
X64412141Y-85199284D01*
X64459760Y-85104046D01*
X64554999Y-85056427D01*
X64793094Y-85056427D01*
X64888332Y-85008808D01*
X65364522Y-84770713D02*
X65364522Y-85437379D01*
X65364522Y-84865951D02*
X65412141Y-84818332D01*
X65507379Y-84770713D01*
X65650237Y-84770713D01*
X65745475Y-84818332D01*
X65793094Y-84913570D01*
X65793094Y-85437379D01*
X66650237Y-85389760D02*
X66554999Y-85437379D01*
X66364522Y-85437379D01*
X66269284Y-85389760D01*
X66221665Y-85294522D01*
X66221665Y-84913570D01*
X66269284Y-84818332D01*
X66364522Y-84770713D01*
X66554999Y-84770713D01*
X66650237Y-84818332D01*
X66697856Y-84913570D01*
X66697856Y-85008808D01*
X66221665Y-85104046D01*
X67269284Y-85437379D02*
X67174046Y-85389760D01*
X67126427Y-85294522D01*
X67126427Y-84437379D01*
G04 #@! TD*
%LPC*%
D16*
G04 #@! TO.C,C24*
X65200000Y-124600000D03*
D17*
X61700000Y-124600000D03*
G04 #@! TD*
D18*
G04 #@! TO.C,J10*
X82040000Y-69500000D03*
D19*
X79500000Y-69500000D03*
G04 #@! TD*
G04 #@! TO.C,U8*
G36*
G01*
X61010000Y-78000000D02*
X60710000Y-78000000D01*
G75*
G02*
X60560000Y-77850000I0J150000D01*
G01*
X60560000Y-76200000D01*
G75*
G02*
X60710000Y-76050000I150000J0D01*
G01*
X61010000Y-76050000D01*
G75*
G02*
X61160000Y-76200000I0J-150000D01*
G01*
X61160000Y-77850000D01*
G75*
G02*
X61010000Y-78000000I-150000J0D01*
G01*
G37*
G36*
G01*
X62280000Y-78000000D02*
X61980000Y-78000000D01*
G75*
G02*
X61830000Y-77850000I0J150000D01*
G01*
X61830000Y-76200000D01*
G75*
G02*
X61980000Y-76050000I150000J0D01*
G01*
X62280000Y-76050000D01*
G75*
G02*
X62430000Y-76200000I0J-150000D01*
G01*
X62430000Y-77850000D01*
G75*
G02*
X62280000Y-78000000I-150000J0D01*
G01*
G37*
G36*
G01*
X63550000Y-78000000D02*
X63250000Y-78000000D01*
G75*
G02*
X63100000Y-77850000I0J150000D01*
G01*
X63100000Y-76200000D01*
G75*
G02*
X63250000Y-76050000I150000J0D01*
G01*
X63550000Y-76050000D01*
G75*
G02*
X63700000Y-76200000I0J-150000D01*
G01*
X63700000Y-77850000D01*
G75*
G02*
X63550000Y-78000000I-150000J0D01*
G01*
G37*
G36*
G01*
X64820000Y-78000000D02*
X64520000Y-78000000D01*
G75*
G02*
X64370000Y-77850000I0J150000D01*
G01*
X64370000Y-76200000D01*
G75*
G02*
X64520000Y-76050000I150000J0D01*
G01*
X64820000Y-76050000D01*
G75*
G02*
X64970000Y-76200000I0J-150000D01*
G01*
X64970000Y-77850000D01*
G75*
G02*
X64820000Y-78000000I-150000J0D01*
G01*
G37*
G36*
G01*
X64820000Y-82950000D02*
X64520000Y-82950000D01*
G75*
G02*
X64370000Y-82800000I0J150000D01*
G01*
X64370000Y-81150000D01*
G75*
G02*
X64520000Y-81000000I150000J0D01*
G01*
X64820000Y-81000000D01*
G75*
G02*
X64970000Y-81150000I0J-150000D01*
G01*
X64970000Y-82800000D01*
G75*
G02*
X64820000Y-82950000I-150000J0D01*
G01*
G37*
G36*
G01*
X63550000Y-82950000D02*
X63250000Y-82950000D01*
G75*
G02*
X63100000Y-82800000I0J150000D01*
G01*
X63100000Y-81150000D01*
G75*
G02*
X63250000Y-81000000I150000J0D01*
G01*
X63550000Y-81000000D01*
G75*
G02*
X63700000Y-81150000I0J-150000D01*
G01*
X63700000Y-82800000D01*
G75*
G02*
X63550000Y-82950000I-150000J0D01*
G01*
G37*
G36*
G01*
X62280000Y-82950000D02*
X61980000Y-82950000D01*
G75*
G02*
X61830000Y-82800000I0J150000D01*
G01*
X61830000Y-81150000D01*
G75*
G02*
X61980000Y-81000000I150000J0D01*
G01*
X62280000Y-81000000D01*
G75*
G02*
X62430000Y-81150000I0J-150000D01*
G01*
X62430000Y-82800000D01*
G75*
G02*
X62280000Y-82950000I-150000J0D01*
G01*
G37*
G36*
G01*
X61010000Y-82950000D02*
X60710000Y-82950000D01*
G75*
G02*
X60560000Y-82800000I0J150000D01*
G01*
X60560000Y-81150000D01*
G75*
G02*
X60710000Y-81000000I150000J0D01*
G01*
X61010000Y-81000000D01*
G75*
G02*
X61160000Y-81150000I0J-150000D01*
G01*
X61160000Y-82800000D01*
G75*
G02*
X61010000Y-82950000I-150000J0D01*
G01*
G37*
G04 #@! TD*
D20*
G04 #@! TO.C,U7*
X78175000Y-105062500D03*
G36*
G01*
X76112500Y-106937500D02*
X75362500Y-106937500D01*
G75*
G02*
X75300000Y-106875000I0J62500D01*
G01*
X75300000Y-106750000D01*
G75*
G02*
X75362500Y-106687500I62500J0D01*
G01*
X76112500Y-106687500D01*
G75*
G02*
X76175000Y-106750000I0J-62500D01*
G01*
X76175000Y-106875000D01*
G75*
G02*
X76112500Y-106937500I-62500J0D01*
G01*
G37*
G36*
G01*
X76112500Y-106437500D02*
X75362500Y-106437500D01*
G75*
G02*
X75300000Y-106375000I0J62500D01*
G01*
X75300000Y-106250000D01*
G75*
G02*
X75362500Y-106187500I62500J0D01*
G01*
X76112500Y-106187500D01*
G75*
G02*
X76175000Y-106250000I0J-62500D01*
G01*
X76175000Y-106375000D01*
G75*
G02*
X76112500Y-106437500I-62500J0D01*
G01*
G37*
G36*
G01*
X76112500Y-105937500D02*
X75362500Y-105937500D01*
G75*
G02*
X75300000Y-105875000I0J62500D01*
G01*
X75300000Y-105750000D01*
G75*
G02*
X75362500Y-105687500I62500J0D01*
G01*
X76112500Y-105687500D01*
G75*
G02*
X76175000Y-105750000I0J-62500D01*
G01*
X76175000Y-105875000D01*
G75*
G02*
X76112500Y-105937500I-62500J0D01*
G01*
G37*
G36*
G01*
X76112500Y-105437500D02*
X75362500Y-105437500D01*
G75*
G02*
X75300000Y-105375000I0J62500D01*
G01*
X75300000Y-105250000D01*
G75*
G02*
X75362500Y-105187500I62500J0D01*
G01*
X76112500Y-105187500D01*
G75*
G02*
X76175000Y-105250000I0J-62500D01*
G01*
X76175000Y-105375000D01*
G75*
G02*
X76112500Y-105437500I-62500J0D01*
G01*
G37*
G36*
G01*
X76112500Y-104937500D02*
X75362500Y-104937500D01*
G75*
G02*
X75300000Y-104875000I0J62500D01*
G01*
X75300000Y-104750000D01*
G75*
G02*
X75362500Y-104687500I62500J0D01*
G01*
X76112500Y-104687500D01*
G75*
G02*
X76175000Y-104750000I0J-62500D01*
G01*
X76175000Y-104875000D01*
G75*
G02*
X76112500Y-104937500I-62500J0D01*
G01*
G37*
G36*
G01*
X76112500Y-104437500D02*
X75362500Y-104437500D01*
G75*
G02*
X75300000Y-104375000I0J62500D01*
G01*
X75300000Y-104250000D01*
G75*
G02*
X75362500Y-104187500I62500J0D01*
G01*
X76112500Y-104187500D01*
G75*
G02*
X76175000Y-104250000I0J-62500D01*
G01*
X76175000Y-104375000D01*
G75*
G02*
X76112500Y-104437500I-62500J0D01*
G01*
G37*
G36*
G01*
X76112500Y-103937500D02*
X75362500Y-103937500D01*
G75*
G02*
X75300000Y-103875000I0J62500D01*
G01*
X75300000Y-103750000D01*
G75*
G02*
X75362500Y-103687500I62500J0D01*
G01*
X76112500Y-103687500D01*
G75*
G02*
X76175000Y-103750000I0J-62500D01*
G01*
X76175000Y-103875000D01*
G75*
G02*
X76112500Y-103937500I-62500J0D01*
G01*
G37*
G36*
G01*
X76112500Y-103437500D02*
X75362500Y-103437500D01*
G75*
G02*
X75300000Y-103375000I0J62500D01*
G01*
X75300000Y-103250000D01*
G75*
G02*
X75362500Y-103187500I62500J0D01*
G01*
X76112500Y-103187500D01*
G75*
G02*
X76175000Y-103250000I0J-62500D01*
G01*
X76175000Y-103375000D01*
G75*
G02*
X76112500Y-103437500I-62500J0D01*
G01*
G37*
G36*
G01*
X76487500Y-103062500D02*
X76362500Y-103062500D01*
G75*
G02*
X76300000Y-103000000I0J62500D01*
G01*
X76300000Y-102250000D01*
G75*
G02*
X76362500Y-102187500I62500J0D01*
G01*
X76487500Y-102187500D01*
G75*
G02*
X76550000Y-102250000I0J-62500D01*
G01*
X76550000Y-103000000D01*
G75*
G02*
X76487500Y-103062500I-62500J0D01*
G01*
G37*
G36*
G01*
X76987500Y-103062500D02*
X76862500Y-103062500D01*
G75*
G02*
X76800000Y-103000000I0J62500D01*
G01*
X76800000Y-102250000D01*
G75*
G02*
X76862500Y-102187500I62500J0D01*
G01*
X76987500Y-102187500D01*
G75*
G02*
X77050000Y-102250000I0J-62500D01*
G01*
X77050000Y-103000000D01*
G75*
G02*
X76987500Y-103062500I-62500J0D01*
G01*
G37*
G36*
G01*
X77487500Y-103062500D02*
X77362500Y-103062500D01*
G75*
G02*
X77300000Y-103000000I0J62500D01*
G01*
X77300000Y-102250000D01*
G75*
G02*
X77362500Y-102187500I62500J0D01*
G01*
X77487500Y-102187500D01*
G75*
G02*
X77550000Y-102250000I0J-62500D01*
G01*
X77550000Y-103000000D01*
G75*
G02*
X77487500Y-103062500I-62500J0D01*
G01*
G37*
G36*
G01*
X77987500Y-103062500D02*
X77862500Y-103062500D01*
G75*
G02*
X77800000Y-103000000I0J62500D01*
G01*
X77800000Y-102250000D01*
G75*
G02*
X77862500Y-102187500I62500J0D01*
G01*
X77987500Y-102187500D01*
G75*
G02*
X78050000Y-102250000I0J-62500D01*
G01*
X78050000Y-103000000D01*
G75*
G02*
X77987500Y-103062500I-62500J0D01*
G01*
G37*
G36*
G01*
X78487500Y-103062500D02*
X78362500Y-103062500D01*
G75*
G02*
X78300000Y-103000000I0J62500D01*
G01*
X78300000Y-102250000D01*
G75*
G02*
X78362500Y-102187500I62500J0D01*
G01*
X78487500Y-102187500D01*
G75*
G02*
X78550000Y-102250000I0J-62500D01*
G01*
X78550000Y-103000000D01*
G75*
G02*
X78487500Y-103062500I-62500J0D01*
G01*
G37*
G36*
G01*
X78987500Y-103062500D02*
X78862500Y-103062500D01*
G75*
G02*
X78800000Y-103000000I0J62500D01*
G01*
X78800000Y-102250000D01*
G75*
G02*
X78862500Y-102187500I62500J0D01*
G01*
X78987500Y-102187500D01*
G75*
G02*
X79050000Y-102250000I0J-62500D01*
G01*
X79050000Y-103000000D01*
G75*
G02*
X78987500Y-103062500I-62500J0D01*
G01*
G37*
G36*
G01*
X79487500Y-103062500D02*
X79362500Y-103062500D01*
G75*
G02*
X79300000Y-103000000I0J62500D01*
G01*
X79300000Y-102250000D01*
G75*
G02*
X79362500Y-102187500I62500J0D01*
G01*
X79487500Y-102187500D01*
G75*
G02*
X79550000Y-102250000I0J-62500D01*
G01*
X79550000Y-103000000D01*
G75*
G02*
X79487500Y-103062500I-62500J0D01*
G01*
G37*
G36*
G01*
X79987500Y-103062500D02*
X79862500Y-103062500D01*
G75*
G02*
X79800000Y-103000000I0J62500D01*
G01*
X79800000Y-102250000D01*
G75*
G02*
X79862500Y-102187500I62500J0D01*
G01*
X79987500Y-102187500D01*
G75*
G02*
X80050000Y-102250000I0J-62500D01*
G01*
X80050000Y-103000000D01*
G75*
G02*
X79987500Y-103062500I-62500J0D01*
G01*
G37*
G36*
G01*
X80987500Y-103437500D02*
X80237500Y-103437500D01*
G75*
G02*
X80175000Y-103375000I0J62500D01*
G01*
X80175000Y-103250000D01*
G75*
G02*
X80237500Y-103187500I62500J0D01*
G01*
X80987500Y-103187500D01*
G75*
G02*
X81050000Y-103250000I0J-62500D01*
G01*
X81050000Y-103375000D01*
G75*
G02*
X80987500Y-103437500I-62500J0D01*
G01*
G37*
G36*
G01*
X80987500Y-103937500D02*
X80237500Y-103937500D01*
G75*
G02*
X80175000Y-103875000I0J62500D01*
G01*
X80175000Y-103750000D01*
G75*
G02*
X80237500Y-103687500I62500J0D01*
G01*
X80987500Y-103687500D01*
G75*
G02*
X81050000Y-103750000I0J-62500D01*
G01*
X81050000Y-103875000D01*
G75*
G02*
X80987500Y-103937500I-62500J0D01*
G01*
G37*
G36*
G01*
X80987500Y-104437500D02*
X80237500Y-104437500D01*
G75*
G02*
X80175000Y-104375000I0J62500D01*
G01*
X80175000Y-104250000D01*
G75*
G02*
X80237500Y-104187500I62500J0D01*
G01*
X80987500Y-104187500D01*
G75*
G02*
X81050000Y-104250000I0J-62500D01*
G01*
X81050000Y-104375000D01*
G75*
G02*
X80987500Y-104437500I-62500J0D01*
G01*
G37*
G36*
G01*
X80987500Y-104937500D02*
X80237500Y-104937500D01*
G75*
G02*
X80175000Y-104875000I0J62500D01*
G01*
X80175000Y-104750000D01*
G75*
G02*
X80237500Y-104687500I62500J0D01*
G01*
X80987500Y-104687500D01*
G75*
G02*
X81050000Y-104750000I0J-62500D01*
G01*
X81050000Y-104875000D01*
G75*
G02*
X80987500Y-104937500I-62500J0D01*
G01*
G37*
G36*
G01*
X80987500Y-105437500D02*
X80237500Y-105437500D01*
G75*
G02*
X80175000Y-105375000I0J62500D01*
G01*
X80175000Y-105250000D01*
G75*
G02*
X80237500Y-105187500I62500J0D01*
G01*
X80987500Y-105187500D01*
G75*
G02*
X81050000Y-105250000I0J-62500D01*
G01*
X81050000Y-105375000D01*
G75*
G02*
X80987500Y-105437500I-62500J0D01*
G01*
G37*
G36*
G01*
X80987500Y-105937500D02*
X80237500Y-105937500D01*
G75*
G02*
X80175000Y-105875000I0J62500D01*
G01*
X80175000Y-105750000D01*
G75*
G02*
X80237500Y-105687500I62500J0D01*
G01*
X80987500Y-105687500D01*
G75*
G02*
X81050000Y-105750000I0J-62500D01*
G01*
X81050000Y-105875000D01*
G75*
G02*
X80987500Y-105937500I-62500J0D01*
G01*
G37*
G36*
G01*
X80987500Y-106437500D02*
X80237500Y-106437500D01*
G75*
G02*
X80175000Y-106375000I0J62500D01*
G01*
X80175000Y-106250000D01*
G75*
G02*
X80237500Y-106187500I62500J0D01*
G01*
X80987500Y-106187500D01*
G75*
G02*
X81050000Y-106250000I0J-62500D01*
G01*
X81050000Y-106375000D01*
G75*
G02*
X80987500Y-106437500I-62500J0D01*
G01*
G37*
G36*
G01*
X80987500Y-106937500D02*
X80237500Y-106937500D01*
G75*
G02*
X80175000Y-106875000I0J62500D01*
G01*
X80175000Y-106750000D01*
G75*
G02*
X80237500Y-106687500I62500J0D01*
G01*
X80987500Y-106687500D01*
G75*
G02*
X81050000Y-106750000I0J-62500D01*
G01*
X81050000Y-106875000D01*
G75*
G02*
X80987500Y-106937500I-62500J0D01*
G01*
G37*
G36*
G01*
X79987500Y-107937500D02*
X79862500Y-107937500D01*
G75*
G02*
X79800000Y-107875000I0J62500D01*
G01*
X79800000Y-107125000D01*
G75*
G02*
X79862500Y-107062500I62500J0D01*
G01*
X79987500Y-107062500D01*
G75*
G02*
X80050000Y-107125000I0J-62500D01*
G01*
X80050000Y-107875000D01*
G75*
G02*
X79987500Y-107937500I-62500J0D01*
G01*
G37*
G36*
G01*
X79487500Y-107937500D02*
X79362500Y-107937500D01*
G75*
G02*
X79300000Y-107875000I0J62500D01*
G01*
X79300000Y-107125000D01*
G75*
G02*
X79362500Y-107062500I62500J0D01*
G01*
X79487500Y-107062500D01*
G75*
G02*
X79550000Y-107125000I0J-62500D01*
G01*
X79550000Y-107875000D01*
G75*
G02*
X79487500Y-107937500I-62500J0D01*
G01*
G37*
G36*
G01*
X78987500Y-107937500D02*
X78862500Y-107937500D01*
G75*
G02*
X78800000Y-107875000I0J62500D01*
G01*
X78800000Y-107125000D01*
G75*
G02*
X78862500Y-107062500I62500J0D01*
G01*
X78987500Y-107062500D01*
G75*
G02*
X79050000Y-107125000I0J-62500D01*
G01*
X79050000Y-107875000D01*
G75*
G02*
X78987500Y-107937500I-62500J0D01*
G01*
G37*
G36*
G01*
X78487500Y-107937500D02*
X78362500Y-107937500D01*
G75*
G02*
X78300000Y-107875000I0J62500D01*
G01*
X78300000Y-107125000D01*
G75*
G02*
X78362500Y-107062500I62500J0D01*
G01*
X78487500Y-107062500D01*
G75*
G02*
X78550000Y-107125000I0J-62500D01*
G01*
X78550000Y-107875000D01*
G75*
G02*
X78487500Y-107937500I-62500J0D01*
G01*
G37*
G36*
G01*
X77987500Y-107937500D02*
X77862500Y-107937500D01*
G75*
G02*
X77800000Y-107875000I0J62500D01*
G01*
X77800000Y-107125000D01*
G75*
G02*
X77862500Y-107062500I62500J0D01*
G01*
X77987500Y-107062500D01*
G75*
G02*
X78050000Y-107125000I0J-62500D01*
G01*
X78050000Y-107875000D01*
G75*
G02*
X77987500Y-107937500I-62500J0D01*
G01*
G37*
G36*
G01*
X77487500Y-107937500D02*
X77362500Y-107937500D01*
G75*
G02*
X77300000Y-107875000I0J62500D01*
G01*
X77300000Y-107125000D01*
G75*
G02*
X77362500Y-107062500I62500J0D01*
G01*
X77487500Y-107062500D01*
G75*
G02*
X77550000Y-107125000I0J-62500D01*
G01*
X77550000Y-107875000D01*
G75*
G02*
X77487500Y-107937500I-62500J0D01*
G01*
G37*
G36*
G01*
X76987500Y-107937500D02*
X76862500Y-107937500D01*
G75*
G02*
X76800000Y-107875000I0J62500D01*
G01*
X76800000Y-107125000D01*
G75*
G02*
X76862500Y-107062500I62500J0D01*
G01*
X76987500Y-107062500D01*
G75*
G02*
X77050000Y-107125000I0J-62500D01*
G01*
X77050000Y-107875000D01*
G75*
G02*
X76987500Y-107937500I-62500J0D01*
G01*
G37*
G36*
G01*
X76487500Y-107937500D02*
X76362500Y-107937500D01*
G75*
G02*
X76300000Y-107875000I0J62500D01*
G01*
X76300000Y-107125000D01*
G75*
G02*
X76362500Y-107062500I62500J0D01*
G01*
X76487500Y-107062500D01*
G75*
G02*
X76550000Y-107125000I0J-62500D01*
G01*
X76550000Y-107875000D01*
G75*
G02*
X76487500Y-107937500I-62500J0D01*
G01*
G37*
G04 #@! TD*
G04 #@! TO.C,U6*
G36*
G01*
X69545000Y-77800000D02*
X69245000Y-77800000D01*
G75*
G02*
X69095000Y-77650000I0J150000D01*
G01*
X69095000Y-76000000D01*
G75*
G02*
X69245000Y-75850000I150000J0D01*
G01*
X69545000Y-75850000D01*
G75*
G02*
X69695000Y-76000000I0J-150000D01*
G01*
X69695000Y-77650000D01*
G75*
G02*
X69545000Y-77800000I-150000J0D01*
G01*
G37*
G36*
G01*
X70815000Y-77800000D02*
X70515000Y-77800000D01*
G75*
G02*
X70365000Y-77650000I0J150000D01*
G01*
X70365000Y-76000000D01*
G75*
G02*
X70515000Y-75850000I150000J0D01*
G01*
X70815000Y-75850000D01*
G75*
G02*
X70965000Y-76000000I0J-150000D01*
G01*
X70965000Y-77650000D01*
G75*
G02*
X70815000Y-77800000I-150000J0D01*
G01*
G37*
G36*
G01*
X72085000Y-77800000D02*
X71785000Y-77800000D01*
G75*
G02*
X71635000Y-77650000I0J150000D01*
G01*
X71635000Y-76000000D01*
G75*
G02*
X71785000Y-75850000I150000J0D01*
G01*
X72085000Y-75850000D01*
G75*
G02*
X72235000Y-76000000I0J-150000D01*
G01*
X72235000Y-77650000D01*
G75*
G02*
X72085000Y-77800000I-150000J0D01*
G01*
G37*
G36*
G01*
X73355000Y-77800000D02*
X73055000Y-77800000D01*
G75*
G02*
X72905000Y-77650000I0J150000D01*
G01*
X72905000Y-76000000D01*
G75*
G02*
X73055000Y-75850000I150000J0D01*
G01*
X73355000Y-75850000D01*
G75*
G02*
X73505000Y-76000000I0J-150000D01*
G01*
X73505000Y-77650000D01*
G75*
G02*
X73355000Y-77800000I-150000J0D01*
G01*
G37*
G36*
G01*
X73355000Y-82750000D02*
X73055000Y-82750000D01*
G75*
G02*
X72905000Y-82600000I0J150000D01*
G01*
X72905000Y-80950000D01*
G75*
G02*
X73055000Y-80800000I150000J0D01*
G01*
X73355000Y-80800000D01*
G75*
G02*
X73505000Y-80950000I0J-150000D01*
G01*
X73505000Y-82600000D01*
G75*
G02*
X73355000Y-82750000I-150000J0D01*
G01*
G37*
G36*
G01*
X72085000Y-82750000D02*
X71785000Y-82750000D01*
G75*
G02*
X71635000Y-82600000I0J150000D01*
G01*
X71635000Y-80950000D01*
G75*
G02*
X71785000Y-80800000I150000J0D01*
G01*
X72085000Y-80800000D01*
G75*
G02*
X72235000Y-80950000I0J-150000D01*
G01*
X72235000Y-82600000D01*
G75*
G02*
X72085000Y-82750000I-150000J0D01*
G01*
G37*
G36*
G01*
X70815000Y-82750000D02*
X70515000Y-82750000D01*
G75*
G02*
X70365000Y-82600000I0J150000D01*
G01*
X70365000Y-80950000D01*
G75*
G02*
X70515000Y-80800000I150000J0D01*
G01*
X70815000Y-80800000D01*
G75*
G02*
X70965000Y-80950000I0J-150000D01*
G01*
X70965000Y-82600000D01*
G75*
G02*
X70815000Y-82750000I-150000J0D01*
G01*
G37*
G36*
G01*
X69545000Y-82750000D02*
X69245000Y-82750000D01*
G75*
G02*
X69095000Y-82600000I0J150000D01*
G01*
X69095000Y-80950000D01*
G75*
G02*
X69245000Y-80800000I150000J0D01*
G01*
X69545000Y-80800000D01*
G75*
G02*
X69695000Y-80950000I0J-150000D01*
G01*
X69695000Y-82600000D01*
G75*
G02*
X69545000Y-82750000I-150000J0D01*
G01*
G37*
G04 #@! TD*
D21*
G04 #@! TO.C,U5*
X84050000Y-117340000D03*
X85000000Y-117340000D03*
X85950000Y-117340000D03*
X85950000Y-119660000D03*
X85000000Y-119660000D03*
X84050000Y-119660000D03*
G04 #@! TD*
D22*
G04 #@! TO.C,U4*
X73600000Y-119500000D03*
X73600000Y-122040000D03*
D23*
X73600000Y-124580000D03*
G04 #@! TD*
G04 #@! TO.C,U3*
G36*
G01*
X93045000Y-77700000D02*
X92745000Y-77700000D01*
G75*
G02*
X92595000Y-77550000I0J150000D01*
G01*
X92595000Y-75900000D01*
G75*
G02*
X92745000Y-75750000I150000J0D01*
G01*
X93045000Y-75750000D01*
G75*
G02*
X93195000Y-75900000I0J-150000D01*
G01*
X93195000Y-77550000D01*
G75*
G02*
X93045000Y-77700000I-150000J0D01*
G01*
G37*
G36*
G01*
X94315000Y-77700000D02*
X94015000Y-77700000D01*
G75*
G02*
X93865000Y-77550000I0J150000D01*
G01*
X93865000Y-75900000D01*
G75*
G02*
X94015000Y-75750000I150000J0D01*
G01*
X94315000Y-75750000D01*
G75*
G02*
X94465000Y-75900000I0J-150000D01*
G01*
X94465000Y-77550000D01*
G75*
G02*
X94315000Y-77700000I-150000J0D01*
G01*
G37*
G36*
G01*
X95585000Y-77700000D02*
X95285000Y-77700000D01*
G75*
G02*
X95135000Y-77550000I0J150000D01*
G01*
X95135000Y-75900000D01*
G75*
G02*
X95285000Y-75750000I150000J0D01*
G01*
X95585000Y-75750000D01*
G75*
G02*
X95735000Y-75900000I0J-150000D01*
G01*
X95735000Y-77550000D01*
G75*
G02*
X95585000Y-77700000I-150000J0D01*
G01*
G37*
G36*
G01*
X96855000Y-77700000D02*
X96555000Y-77700000D01*
G75*
G02*
X96405000Y-77550000I0J150000D01*
G01*
X96405000Y-75900000D01*
G75*
G02*
X96555000Y-75750000I150000J0D01*
G01*
X96855000Y-75750000D01*
G75*
G02*
X97005000Y-75900000I0J-150000D01*
G01*
X97005000Y-77550000D01*
G75*
G02*
X96855000Y-77700000I-150000J0D01*
G01*
G37*
G36*
G01*
X96855000Y-82650000D02*
X96555000Y-82650000D01*
G75*
G02*
X96405000Y-82500000I0J150000D01*
G01*
X96405000Y-80850000D01*
G75*
G02*
X96555000Y-80700000I150000J0D01*
G01*
X96855000Y-80700000D01*
G75*
G02*
X97005000Y-80850000I0J-150000D01*
G01*
X97005000Y-82500000D01*
G75*
G02*
X96855000Y-82650000I-150000J0D01*
G01*
G37*
G36*
G01*
X95585000Y-82650000D02*
X95285000Y-82650000D01*
G75*
G02*
X95135000Y-82500000I0J150000D01*
G01*
X95135000Y-80850000D01*
G75*
G02*
X95285000Y-80700000I150000J0D01*
G01*
X95585000Y-80700000D01*
G75*
G02*
X95735000Y-80850000I0J-150000D01*
G01*
X95735000Y-82500000D01*
G75*
G02*
X95585000Y-82650000I-150000J0D01*
G01*
G37*
G36*
G01*
X94315000Y-82650000D02*
X94015000Y-82650000D01*
G75*
G02*
X93865000Y-82500000I0J150000D01*
G01*
X93865000Y-80850000D01*
G75*
G02*
X94015000Y-80700000I150000J0D01*
G01*
X94315000Y-80700000D01*
G75*
G02*
X94465000Y-80850000I0J-150000D01*
G01*
X94465000Y-82500000D01*
G75*
G02*
X94315000Y-82650000I-150000J0D01*
G01*
G37*
G36*
G01*
X93045000Y-82650000D02*
X92745000Y-82650000D01*
G75*
G02*
X92595000Y-82500000I0J150000D01*
G01*
X92595000Y-80850000D01*
G75*
G02*
X92745000Y-80700000I150000J0D01*
G01*
X93045000Y-80700000D01*
G75*
G02*
X93195000Y-80850000I0J-150000D01*
G01*
X93195000Y-82500000D01*
G75*
G02*
X93045000Y-82650000I-150000J0D01*
G01*
G37*
G04 #@! TD*
G04 #@! TO.C,U2*
G36*
G01*
X107075000Y-122580000D02*
X107075000Y-122280000D01*
G75*
G02*
X107225000Y-122130000I150000J0D01*
G01*
X108875000Y-122130000D01*
G75*
G02*
X109025000Y-122280000I0J-150000D01*
G01*
X109025000Y-122580000D01*
G75*
G02*
X108875000Y-122730000I-150000J0D01*
G01*
X107225000Y-122730000D01*
G75*
G02*
X107075000Y-122580000I0J150000D01*
G01*
G37*
G36*
G01*
X107075000Y-123850000D02*
X107075000Y-123550000D01*
G75*
G02*
X107225000Y-123400000I150000J0D01*
G01*
X108875000Y-123400000D01*
G75*
G02*
X109025000Y-123550000I0J-150000D01*
G01*
X109025000Y-123850000D01*
G75*
G02*
X108875000Y-124000000I-150000J0D01*
G01*
X107225000Y-124000000D01*
G75*
G02*
X107075000Y-123850000I0J150000D01*
G01*
G37*
G36*
G01*
X107075000Y-125120000D02*
X107075000Y-124820000D01*
G75*
G02*
X107225000Y-124670000I150000J0D01*
G01*
X108875000Y-124670000D01*
G75*
G02*
X109025000Y-124820000I0J-150000D01*
G01*
X109025000Y-125120000D01*
G75*
G02*
X108875000Y-125270000I-150000J0D01*
G01*
X107225000Y-125270000D01*
G75*
G02*
X107075000Y-125120000I0J150000D01*
G01*
G37*
G36*
G01*
X107075000Y-126390000D02*
X107075000Y-126090000D01*
G75*
G02*
X107225000Y-125940000I150000J0D01*
G01*
X108875000Y-125940000D01*
G75*
G02*
X109025000Y-126090000I0J-150000D01*
G01*
X109025000Y-126390000D01*
G75*
G02*
X108875000Y-126540000I-150000J0D01*
G01*
X107225000Y-126540000D01*
G75*
G02*
X107075000Y-126390000I0J150000D01*
G01*
G37*
G36*
G01*
X107075000Y-127660000D02*
X107075000Y-127360000D01*
G75*
G02*
X107225000Y-127210000I150000J0D01*
G01*
X108875000Y-127210000D01*
G75*
G02*
X109025000Y-127360000I0J-150000D01*
G01*
X109025000Y-127660000D01*
G75*
G02*
X108875000Y-127810000I-150000J0D01*
G01*
X107225000Y-127810000D01*
G75*
G02*
X107075000Y-127660000I0J150000D01*
G01*
G37*
G36*
G01*
X107075000Y-128930000D02*
X107075000Y-128630000D01*
G75*
G02*
X107225000Y-128480000I150000J0D01*
G01*
X108875000Y-128480000D01*
G75*
G02*
X109025000Y-128630000I0J-150000D01*
G01*
X109025000Y-128930000D01*
G75*
G02*
X108875000Y-129080000I-150000J0D01*
G01*
X107225000Y-129080000D01*
G75*
G02*
X107075000Y-128930000I0J150000D01*
G01*
G37*
G36*
G01*
X107075000Y-130200000D02*
X107075000Y-129900000D01*
G75*
G02*
X107225000Y-129750000I150000J0D01*
G01*
X108875000Y-129750000D01*
G75*
G02*
X109025000Y-129900000I0J-150000D01*
G01*
X109025000Y-130200000D01*
G75*
G02*
X108875000Y-130350000I-150000J0D01*
G01*
X107225000Y-130350000D01*
G75*
G02*
X107075000Y-130200000I0J150000D01*
G01*
G37*
G36*
G01*
X107075000Y-131470000D02*
X107075000Y-131170000D01*
G75*
G02*
X107225000Y-131020000I150000J0D01*
G01*
X108875000Y-131020000D01*
G75*
G02*
X109025000Y-131170000I0J-150000D01*
G01*
X109025000Y-131470000D01*
G75*
G02*
X108875000Y-131620000I-150000J0D01*
G01*
X107225000Y-131620000D01*
G75*
G02*
X107075000Y-131470000I0J150000D01*
G01*
G37*
G36*
G01*
X102125000Y-131470000D02*
X102125000Y-131170000D01*
G75*
G02*
X102275000Y-131020000I150000J0D01*
G01*
X103925000Y-131020000D01*
G75*
G02*
X104075000Y-131170000I0J-150000D01*
G01*
X104075000Y-131470000D01*
G75*
G02*
X103925000Y-131620000I-150000J0D01*
G01*
X102275000Y-131620000D01*
G75*
G02*
X102125000Y-131470000I0J150000D01*
G01*
G37*
G36*
G01*
X102125000Y-130200000D02*
X102125000Y-129900000D01*
G75*
G02*
X102275000Y-129750000I150000J0D01*
G01*
X103925000Y-129750000D01*
G75*
G02*
X104075000Y-129900000I0J-150000D01*
G01*
X104075000Y-130200000D01*
G75*
G02*
X103925000Y-130350000I-150000J0D01*
G01*
X102275000Y-130350000D01*
G75*
G02*
X102125000Y-130200000I0J150000D01*
G01*
G37*
G36*
G01*
X102125000Y-128930000D02*
X102125000Y-128630000D01*
G75*
G02*
X102275000Y-128480000I150000J0D01*
G01*
X103925000Y-128480000D01*
G75*
G02*
X104075000Y-128630000I0J-150000D01*
G01*
X104075000Y-128930000D01*
G75*
G02*
X103925000Y-129080000I-150000J0D01*
G01*
X102275000Y-129080000D01*
G75*
G02*
X102125000Y-128930000I0J150000D01*
G01*
G37*
G36*
G01*
X102125000Y-127660000D02*
X102125000Y-127360000D01*
G75*
G02*
X102275000Y-127210000I150000J0D01*
G01*
X103925000Y-127210000D01*
G75*
G02*
X104075000Y-127360000I0J-150000D01*
G01*
X104075000Y-127660000D01*
G75*
G02*
X103925000Y-127810000I-150000J0D01*
G01*
X102275000Y-127810000D01*
G75*
G02*
X102125000Y-127660000I0J150000D01*
G01*
G37*
G36*
G01*
X102125000Y-126390000D02*
X102125000Y-126090000D01*
G75*
G02*
X102275000Y-125940000I150000J0D01*
G01*
X103925000Y-125940000D01*
G75*
G02*
X104075000Y-126090000I0J-150000D01*
G01*
X104075000Y-126390000D01*
G75*
G02*
X103925000Y-126540000I-150000J0D01*
G01*
X102275000Y-126540000D01*
G75*
G02*
X102125000Y-126390000I0J150000D01*
G01*
G37*
G36*
G01*
X102125000Y-125120000D02*
X102125000Y-124820000D01*
G75*
G02*
X102275000Y-124670000I150000J0D01*
G01*
X103925000Y-124670000D01*
G75*
G02*
X104075000Y-124820000I0J-150000D01*
G01*
X104075000Y-125120000D01*
G75*
G02*
X103925000Y-125270000I-150000J0D01*
G01*
X102275000Y-125270000D01*
G75*
G02*
X102125000Y-125120000I0J150000D01*
G01*
G37*
G36*
G01*
X102125000Y-123850000D02*
X102125000Y-123550000D01*
G75*
G02*
X102275000Y-123400000I150000J0D01*
G01*
X103925000Y-123400000D01*
G75*
G02*
X104075000Y-123550000I0J-150000D01*
G01*
X104075000Y-123850000D01*
G75*
G02*
X103925000Y-124000000I-150000J0D01*
G01*
X102275000Y-124000000D01*
G75*
G02*
X102125000Y-123850000I0J150000D01*
G01*
G37*
G36*
G01*
X102125000Y-122580000D02*
X102125000Y-122280000D01*
G75*
G02*
X102275000Y-122130000I150000J0D01*
G01*
X103925000Y-122130000D01*
G75*
G02*
X104075000Y-122280000I0J-150000D01*
G01*
X104075000Y-122580000D01*
G75*
G02*
X103925000Y-122730000I-150000J0D01*
G01*
X102275000Y-122730000D01*
G75*
G02*
X102125000Y-122580000I0J150000D01*
G01*
G37*
G04 #@! TD*
D24*
G04 #@! TO.C,U1*
X109000000Y-109000000D03*
X107730000Y-109000000D03*
X106460000Y-109000000D03*
X105190000Y-109000000D03*
X103920000Y-109000000D03*
X102650000Y-109000000D03*
X101380000Y-109000000D03*
X100110000Y-109000000D03*
X98840000Y-109000000D03*
X97570000Y-109000000D03*
X96300000Y-109000000D03*
X95030000Y-109000000D03*
X93760000Y-109000000D03*
X92490000Y-109000000D03*
D25*
X91490000Y-106215000D03*
X91490000Y-104945000D03*
X91490000Y-103675000D03*
X91490000Y-102405000D03*
X91490000Y-101135000D03*
X91490000Y-99865000D03*
X91490000Y-98595000D03*
X91490000Y-97325000D03*
X91490000Y-96055000D03*
X91490000Y-94785000D03*
D24*
X92490000Y-92000000D03*
X93760000Y-92000000D03*
X95030000Y-92000000D03*
X96300000Y-92000000D03*
X97570000Y-92000000D03*
X98840000Y-92000000D03*
X100110000Y-92000000D03*
X101380000Y-92000000D03*
X102650000Y-92000000D03*
X103920000Y-92000000D03*
X105190000Y-92000000D03*
X106460000Y-92000000D03*
X107730000Y-92000000D03*
X109000000Y-92000000D03*
D26*
X101500000Y-99500000D03*
G04 #@! TD*
D27*
G04 #@! TO.C,R26*
X69750000Y-112500000D03*
X71250000Y-112500000D03*
G04 #@! TD*
G04 #@! TO.C,R25*
X69750000Y-103000000D03*
X71250000Y-103000000D03*
G04 #@! TD*
G04 #@! TO.C,R24*
X69750000Y-109500000D03*
X71250000Y-109500000D03*
G04 #@! TD*
G04 #@! TO.C,R23*
X69750000Y-107500000D03*
X71250000Y-107500000D03*
G04 #@! TD*
G04 #@! TO.C,R22*
X69750000Y-106000000D03*
X71250000Y-106000000D03*
G04 #@! TD*
D28*
G04 #@! TO.C,R21*
X74500000Y-112250000D03*
X74500000Y-110750000D03*
G04 #@! TD*
D27*
G04 #@! TO.C,R20*
X69750000Y-104500000D03*
X71250000Y-104500000D03*
G04 #@! TD*
D28*
G04 #@! TO.C,R19*
X82000000Y-99500000D03*
X82000000Y-98000000D03*
G04 #@! TD*
D27*
G04 #@! TO.C,R18*
X83000000Y-112000000D03*
X84500000Y-112000000D03*
G04 #@! TD*
G04 #@! TO.C,R17*
X83000000Y-110500000D03*
X84500000Y-110500000D03*
G04 #@! TD*
G04 #@! TO.C,R16*
X83000000Y-109000000D03*
X84500000Y-109000000D03*
G04 #@! TD*
D28*
G04 #@! TO.C,R15*
X77500000Y-99500000D03*
X77500000Y-98000000D03*
G04 #@! TD*
G04 #@! TO.C,R14*
X79000000Y-99500000D03*
X79000000Y-98000000D03*
G04 #@! TD*
G04 #@! TO.C,R13*
X80500000Y-99500000D03*
X80500000Y-98000000D03*
G04 #@! TD*
D27*
G04 #@! TO.C,R12*
X83000000Y-106000000D03*
X84500000Y-106000000D03*
G04 #@! TD*
G04 #@! TO.C,R11*
X83000000Y-107500000D03*
X84500000Y-107500000D03*
G04 #@! TD*
D28*
G04 #@! TO.C,R10*
X88600000Y-115050000D03*
X88600000Y-113550000D03*
G04 #@! TD*
D27*
G04 #@! TO.C,R9*
X101150000Y-82300000D03*
X102650000Y-82300000D03*
G04 #@! TD*
D28*
G04 #@! TO.C,R7*
X87355000Y-131350000D03*
X87355000Y-132850000D03*
G04 #@! TD*
D27*
G04 #@! TO.C,R6*
X101100000Y-84000000D03*
X102600000Y-84000000D03*
G04 #@! TD*
G04 #@! TO.C,R5*
X85100000Y-86200000D03*
X83600000Y-86200000D03*
G04 #@! TD*
G04 #@! TO.C,R4*
X83600000Y-88800000D03*
X85100000Y-88800000D03*
G04 #@! TD*
D28*
G04 #@! TO.C,R3*
X107600000Y-116550000D03*
X107600000Y-118050000D03*
G04 #@! TD*
G04 #@! TO.C,R2*
X100700000Y-116350000D03*
X100700000Y-114850000D03*
G04 #@! TD*
G04 #@! TO.C,R1*
X103000000Y-86850000D03*
X103000000Y-88350000D03*
G04 #@! TD*
D29*
G04 #@! TO.C,Q2*
X90400000Y-114300000D03*
X92400000Y-113350000D03*
X92400000Y-115250000D03*
G04 #@! TD*
D30*
G04 #@! TO.C,Q1*
X111650000Y-121150000D03*
X112950000Y-121150000D03*
X112300000Y-123050000D03*
X112300000Y-121150000D03*
X112950000Y-123050000D03*
X111650000Y-123050000D03*
G04 #@! TD*
D31*
G04 #@! TO.C,L1*
X81900000Y-114000000D03*
X84100000Y-114000000D03*
G04 #@! TD*
D18*
G04 #@! TO.C,J9*
X64040000Y-69500000D03*
D19*
X61500000Y-69500000D03*
G04 #@! TD*
D32*
G04 #@! TO.C,J8*
X58000000Y-115500000D03*
X58000000Y-104070000D03*
G04 #@! TD*
D18*
G04 #@! TO.C,J7*
X73000000Y-69500000D03*
D19*
X70460000Y-69500000D03*
G04 #@! TD*
D18*
G04 #@! TO.C,J6*
X96040000Y-69500000D03*
D19*
X93500000Y-69500000D03*
G04 #@! TD*
D18*
G04 #@! TO.C,J5*
X80800000Y-93800000D03*
D19*
X78260000Y-93800000D03*
G04 #@! TD*
D18*
G04 #@! TO.C,J4*
X71400000Y-93800000D03*
D19*
X73940000Y-93800000D03*
G04 #@! TD*
D18*
G04 #@! TO.C,J3*
X80554999Y-88794999D03*
X80554999Y-86254999D03*
X80554999Y-83714999D03*
D19*
X80554999Y-81174999D03*
G04 #@! TD*
D18*
G04 #@! TO.C,J2*
X64540000Y-144500000D03*
D19*
X62000000Y-144500000D03*
G04 #@! TD*
D18*
G04 #@! TO.C,J1*
X96000000Y-122200000D03*
X96000000Y-124740000D03*
X96000000Y-127280000D03*
D19*
X96000000Y-129820000D03*
G04 #@! TD*
D33*
G04 #@! TO.C,H2*
X56750000Y-133000000D03*
G04 #@! TD*
G04 #@! TO.C,H1*
X110250000Y-81000000D03*
G04 #@! TD*
D34*
G04 #@! TO.C,D5*
X83300000Y-130500000D03*
D35*
X83300000Y-133040000D03*
G04 #@! TD*
D29*
G04 #@! TO.C,D4*
X87600000Y-108800000D03*
X89600000Y-107850000D03*
X89600000Y-109750000D03*
G04 #@! TD*
D31*
G04 #@! TO.C,D3*
X105300000Y-114800000D03*
X105300000Y-118100000D03*
G04 #@! TD*
G04 #@! TO.C,D2*
X102800000Y-118100000D03*
X102800000Y-114800000D03*
G04 #@! TD*
D36*
G04 #@! TO.C,D1*
X73000000Y-130000000D03*
X73000000Y-134000000D03*
G04 #@! TD*
D37*
G04 #@! TO.C,C23*
X77500000Y-110750000D03*
X77500000Y-112250000D03*
G04 #@! TD*
G04 #@! TO.C,C22*
X76000000Y-110750000D03*
X76000000Y-112250000D03*
G04 #@! TD*
D38*
G04 #@! TO.C,C21*
X71250000Y-101500000D03*
X69750000Y-101500000D03*
G04 #@! TD*
D37*
G04 #@! TO.C,C20*
X91100000Y-78300000D03*
X91100000Y-76800000D03*
G04 #@! TD*
D38*
G04 #@! TO.C,C19*
X70000000Y-111000000D03*
X71500000Y-111000000D03*
G04 #@! TD*
D37*
G04 #@! TO.C,C18*
X79000000Y-110750000D03*
X79000000Y-112250000D03*
G04 #@! TD*
G04 #@! TO.C,C17*
X80500000Y-110750000D03*
X80500000Y-112250000D03*
G04 #@! TD*
D38*
G04 #@! TO.C,C16*
X83750000Y-115500000D03*
X82250000Y-115500000D03*
G04 #@! TD*
D37*
G04 #@! TO.C,C15*
X67800000Y-78300000D03*
X67800000Y-76800000D03*
G04 #@! TD*
D38*
G04 #@! TO.C,C14*
X82750000Y-103000000D03*
X84250000Y-103000000D03*
G04 #@! TD*
G04 #@! TO.C,C13*
X82750000Y-104500000D03*
X84250000Y-104500000D03*
G04 #@! TD*
G04 #@! TO.C,C12*
X68250000Y-119700000D03*
X69750000Y-119700000D03*
G04 #@! TD*
G04 #@! TO.C,C11*
X68250000Y-121100000D03*
X69750000Y-121100000D03*
G04 #@! TD*
D37*
G04 #@! TO.C,C10*
X58800000Y-78600000D03*
X58800000Y-77100000D03*
G04 #@! TD*
G04 #@! TO.C,C9*
X86900000Y-115050000D03*
X86900000Y-113550000D03*
G04 #@! TD*
D39*
G04 #@! TO.C,C8*
X70100000Y-125800000D03*
X68100000Y-125800000D03*
G04 #@! TD*
G04 #@! TO.C,C7*
X70100000Y-123800000D03*
X68100000Y-123800000D03*
G04 #@! TD*
D37*
G04 #@! TO.C,C6*
X100300000Y-124750000D03*
X100300000Y-126250000D03*
G04 #@! TD*
G04 #@! TO.C,C5*
X100300000Y-122950000D03*
X100300000Y-121450000D03*
G04 #@! TD*
D38*
G04 #@! TO.C,C4*
X109650000Y-120600000D03*
X108150000Y-120600000D03*
G04 #@! TD*
D37*
G04 #@! TO.C,C3*
X104500000Y-86950000D03*
X104500000Y-88450000D03*
G04 #@! TD*
G04 #@! TO.C,C2*
X109000000Y-111800000D03*
X109000000Y-113300000D03*
G04 #@! TD*
D38*
G04 #@! TO.C,C1*
X106050000Y-88500000D03*
X107550000Y-88500000D03*
G04 #@! TD*
M02*
