G04 #@! TF.GenerationSoftware,KiCad,Pcbnew,(5.1.10)-1*
G04 #@! TF.CreationDate,2021-11-10T22:46:01+01:00*
G04 #@! TF.ProjectId,RS485-DIN-PCB,52533438-352d-4444-994e-2d5043422e6b,rev?*
G04 #@! TF.SameCoordinates,Original*
G04 #@! TF.FileFunction,Paste,Top*
G04 #@! TF.FilePolarity,Positive*
%FSLAX46Y46*%
G04 Gerber Fmt 4.6, Leading zero omitted, Abs format (unit mm)*
G04 Created by KiCad (PCBNEW (5.1.10)-1) date 2021-11-10 22:46:01*
%MOMM*%
%LPD*%
G01*
G04 APERTURE LIST*
%ADD10C,0.100000*%
%ADD11R,0.510000X0.700000*%
%ADD12R,0.900000X2.000000*%
%ADD13R,2.000000X0.900000*%
%ADD14R,5.000000X5.000000*%
%ADD15R,0.500000X0.900000*%
%ADD16R,0.900000X0.500000*%
%ADD17R,0.900000X0.800000*%
%ADD18R,0.400000X0.650000*%
%ADD19R,1.200000X0.900000*%
%ADD20R,1.800000X2.500000*%
%ADD21R,0.750000X0.800000*%
%ADD22R,0.800000X0.750000*%
%ADD23R,1.000000X1.250000*%
G04 APERTURE END LIST*
G04 #@! TO.C,U8*
G36*
G01*
X61010000Y-78000000D02*
X60710000Y-78000000D01*
G75*
G02*
X60560000Y-77850000I0J150000D01*
G01*
X60560000Y-76200000D01*
G75*
G02*
X60710000Y-76050000I150000J0D01*
G01*
X61010000Y-76050000D01*
G75*
G02*
X61160000Y-76200000I0J-150000D01*
G01*
X61160000Y-77850000D01*
G75*
G02*
X61010000Y-78000000I-150000J0D01*
G01*
G37*
G36*
G01*
X62280000Y-78000000D02*
X61980000Y-78000000D01*
G75*
G02*
X61830000Y-77850000I0J150000D01*
G01*
X61830000Y-76200000D01*
G75*
G02*
X61980000Y-76050000I150000J0D01*
G01*
X62280000Y-76050000D01*
G75*
G02*
X62430000Y-76200000I0J-150000D01*
G01*
X62430000Y-77850000D01*
G75*
G02*
X62280000Y-78000000I-150000J0D01*
G01*
G37*
G36*
G01*
X63550000Y-78000000D02*
X63250000Y-78000000D01*
G75*
G02*
X63100000Y-77850000I0J150000D01*
G01*
X63100000Y-76200000D01*
G75*
G02*
X63250000Y-76050000I150000J0D01*
G01*
X63550000Y-76050000D01*
G75*
G02*
X63700000Y-76200000I0J-150000D01*
G01*
X63700000Y-77850000D01*
G75*
G02*
X63550000Y-78000000I-150000J0D01*
G01*
G37*
G36*
G01*
X64820000Y-78000000D02*
X64520000Y-78000000D01*
G75*
G02*
X64370000Y-77850000I0J150000D01*
G01*
X64370000Y-76200000D01*
G75*
G02*
X64520000Y-76050000I150000J0D01*
G01*
X64820000Y-76050000D01*
G75*
G02*
X64970000Y-76200000I0J-150000D01*
G01*
X64970000Y-77850000D01*
G75*
G02*
X64820000Y-78000000I-150000J0D01*
G01*
G37*
G36*
G01*
X64820000Y-82950000D02*
X64520000Y-82950000D01*
G75*
G02*
X64370000Y-82800000I0J150000D01*
G01*
X64370000Y-81150000D01*
G75*
G02*
X64520000Y-81000000I150000J0D01*
G01*
X64820000Y-81000000D01*
G75*
G02*
X64970000Y-81150000I0J-150000D01*
G01*
X64970000Y-82800000D01*
G75*
G02*
X64820000Y-82950000I-150000J0D01*
G01*
G37*
G36*
G01*
X63550000Y-82950000D02*
X63250000Y-82950000D01*
G75*
G02*
X63100000Y-82800000I0J150000D01*
G01*
X63100000Y-81150000D01*
G75*
G02*
X63250000Y-81000000I150000J0D01*
G01*
X63550000Y-81000000D01*
G75*
G02*
X63700000Y-81150000I0J-150000D01*
G01*
X63700000Y-82800000D01*
G75*
G02*
X63550000Y-82950000I-150000J0D01*
G01*
G37*
G36*
G01*
X62280000Y-82950000D02*
X61980000Y-82950000D01*
G75*
G02*
X61830000Y-82800000I0J150000D01*
G01*
X61830000Y-81150000D01*
G75*
G02*
X61980000Y-81000000I150000J0D01*
G01*
X62280000Y-81000000D01*
G75*
G02*
X62430000Y-81150000I0J-150000D01*
G01*
X62430000Y-82800000D01*
G75*
G02*
X62280000Y-82950000I-150000J0D01*
G01*
G37*
G36*
G01*
X61010000Y-82950000D02*
X60710000Y-82950000D01*
G75*
G02*
X60560000Y-82800000I0J150000D01*
G01*
X60560000Y-81150000D01*
G75*
G02*
X60710000Y-81000000I150000J0D01*
G01*
X61010000Y-81000000D01*
G75*
G02*
X61160000Y-81150000I0J-150000D01*
G01*
X61160000Y-82800000D01*
G75*
G02*
X61010000Y-82950000I-150000J0D01*
G01*
G37*
G04 #@! TD*
D10*
G04 #@! TO.C,U7*
G36*
X79240109Y-103564771D02*
G01*
X79246422Y-103543960D01*
X79256673Y-103524781D01*
X79270470Y-103507970D01*
X79287281Y-103494173D01*
X79306460Y-103483922D01*
X79327271Y-103477609D01*
X79348914Y-103475477D01*
X79651086Y-103475477D01*
X79672729Y-103477609D01*
X79693540Y-103483922D01*
X79712719Y-103494173D01*
X79729530Y-103507970D01*
X79743327Y-103524781D01*
X79753578Y-103543960D01*
X79759891Y-103564771D01*
X79762023Y-103586414D01*
X79762023Y-103888586D01*
X79759891Y-103910229D01*
X79753578Y-103931040D01*
X79743327Y-103950219D01*
X79729530Y-103967030D01*
X79712719Y-103980827D01*
X79693540Y-103991078D01*
X79672729Y-103997391D01*
X79651086Y-103999523D01*
X79440818Y-103999523D01*
X79419175Y-103997391D01*
X79398364Y-103991078D01*
X79379185Y-103980827D01*
X79362374Y-103967030D01*
X79270470Y-103875126D01*
X79256673Y-103858315D01*
X79246422Y-103839136D01*
X79240109Y-103818325D01*
X79237977Y-103796682D01*
X79237977Y-103586414D01*
X79240109Y-103564771D01*
G37*
G36*
X76590109Y-103564771D02*
G01*
X76596422Y-103543960D01*
X76606673Y-103524781D01*
X76620470Y-103507970D01*
X76637281Y-103494173D01*
X76656460Y-103483922D01*
X76677271Y-103477609D01*
X76698914Y-103475477D01*
X77001086Y-103475477D01*
X77022729Y-103477609D01*
X77043540Y-103483922D01*
X77062719Y-103494173D01*
X77079530Y-103507970D01*
X77093327Y-103524781D01*
X77103578Y-103543960D01*
X77109891Y-103564771D01*
X77112023Y-103586414D01*
X77112023Y-103796682D01*
X77109891Y-103818325D01*
X77103578Y-103839136D01*
X77093327Y-103858315D01*
X77079530Y-103875126D01*
X76987626Y-103967030D01*
X76970815Y-103980827D01*
X76951636Y-103991078D01*
X76930825Y-103997391D01*
X76909182Y-103999523D01*
X76698914Y-103999523D01*
X76677271Y-103997391D01*
X76656460Y-103991078D01*
X76637281Y-103980827D01*
X76620470Y-103967030D01*
X76606673Y-103950219D01*
X76596422Y-103931040D01*
X76590109Y-103910229D01*
X76587977Y-103888586D01*
X76587977Y-103586414D01*
X76590109Y-103564771D01*
G37*
G36*
X79240109Y-106306675D02*
G01*
X79246422Y-106285864D01*
X79256673Y-106266685D01*
X79270470Y-106249874D01*
X79362374Y-106157970D01*
X79379185Y-106144173D01*
X79398364Y-106133922D01*
X79419175Y-106127609D01*
X79440818Y-106125477D01*
X79651086Y-106125477D01*
X79672729Y-106127609D01*
X79693540Y-106133922D01*
X79712719Y-106144173D01*
X79729530Y-106157970D01*
X79743327Y-106174781D01*
X79753578Y-106193960D01*
X79759891Y-106214771D01*
X79762023Y-106236414D01*
X79762023Y-106538586D01*
X79759891Y-106560229D01*
X79753578Y-106581040D01*
X79743327Y-106600219D01*
X79729530Y-106617030D01*
X79712719Y-106630827D01*
X79693540Y-106641078D01*
X79672729Y-106647391D01*
X79651086Y-106649523D01*
X79348914Y-106649523D01*
X79327271Y-106647391D01*
X79306460Y-106641078D01*
X79287281Y-106630827D01*
X79270470Y-106617030D01*
X79256673Y-106600219D01*
X79246422Y-106581040D01*
X79240109Y-106560229D01*
X79237977Y-106538586D01*
X79237977Y-106328318D01*
X79240109Y-106306675D01*
G37*
G36*
X76590109Y-106214771D02*
G01*
X76596422Y-106193960D01*
X76606673Y-106174781D01*
X76620470Y-106157970D01*
X76637281Y-106144173D01*
X76656460Y-106133922D01*
X76677271Y-106127609D01*
X76698914Y-106125477D01*
X76909182Y-106125477D01*
X76930825Y-106127609D01*
X76951636Y-106133922D01*
X76970815Y-106144173D01*
X76987626Y-106157970D01*
X77079530Y-106249874D01*
X77093327Y-106266685D01*
X77103578Y-106285864D01*
X77109891Y-106306675D01*
X77112023Y-106328318D01*
X77112023Y-106538586D01*
X77109891Y-106560229D01*
X77103578Y-106581040D01*
X77093327Y-106600219D01*
X77079530Y-106617030D01*
X77062719Y-106630827D01*
X77043540Y-106641078D01*
X77022729Y-106647391D01*
X77001086Y-106649523D01*
X76698914Y-106649523D01*
X76677271Y-106647391D01*
X76656460Y-106641078D01*
X76637281Y-106630827D01*
X76620470Y-106617030D01*
X76606673Y-106600219D01*
X76596422Y-106581040D01*
X76590109Y-106560229D01*
X76587977Y-106538586D01*
X76587977Y-106236414D01*
X76590109Y-106214771D01*
G37*
G36*
X79239648Y-104301421D02*
G01*
X79244596Y-104285108D01*
X79252632Y-104270074D01*
X79263446Y-104256897D01*
X79335485Y-104184857D01*
X79348663Y-104174043D01*
X79363697Y-104166007D01*
X79380010Y-104161058D01*
X79396975Y-104159387D01*
X79675064Y-104159387D01*
X79692029Y-104161058D01*
X79708342Y-104166006D01*
X79723376Y-104174042D01*
X79736553Y-104184857D01*
X79747368Y-104198034D01*
X79755404Y-104213068D01*
X79760352Y-104229381D01*
X79762023Y-104246346D01*
X79762023Y-104878654D01*
X79760352Y-104895619D01*
X79755404Y-104911932D01*
X79747368Y-104926966D01*
X79736553Y-104940143D01*
X79723376Y-104950958D01*
X79708342Y-104958994D01*
X79692029Y-104963942D01*
X79675064Y-104965613D01*
X79396975Y-104965613D01*
X79380010Y-104963942D01*
X79363697Y-104958994D01*
X79348663Y-104950958D01*
X79335485Y-104940143D01*
X79263446Y-104868103D01*
X79252632Y-104854925D01*
X79244596Y-104839891D01*
X79239648Y-104823578D01*
X79237977Y-104806614D01*
X79237977Y-104318386D01*
X79239648Y-104301421D01*
G37*
G36*
X79239648Y-105301421D02*
G01*
X79244596Y-105285108D01*
X79252632Y-105270074D01*
X79263446Y-105256897D01*
X79335485Y-105184857D01*
X79348663Y-105174043D01*
X79363697Y-105166007D01*
X79380010Y-105161058D01*
X79396975Y-105159387D01*
X79675064Y-105159387D01*
X79692029Y-105161058D01*
X79708342Y-105166006D01*
X79723376Y-105174042D01*
X79736553Y-105184857D01*
X79747368Y-105198034D01*
X79755404Y-105213068D01*
X79760352Y-105229381D01*
X79762023Y-105246346D01*
X79762023Y-105878654D01*
X79760352Y-105895619D01*
X79755404Y-105911932D01*
X79747368Y-105926966D01*
X79736553Y-105940143D01*
X79723376Y-105950958D01*
X79708342Y-105958994D01*
X79692029Y-105963942D01*
X79675064Y-105965613D01*
X79396975Y-105965613D01*
X79380010Y-105963942D01*
X79363697Y-105958994D01*
X79348663Y-105950958D01*
X79335485Y-105940143D01*
X79263446Y-105868103D01*
X79252632Y-105854925D01*
X79244596Y-105839891D01*
X79239648Y-105823578D01*
X79237977Y-105806614D01*
X79237977Y-105318386D01*
X79239648Y-105301421D01*
G37*
G36*
X76589648Y-104229381D02*
G01*
X76594596Y-104213068D01*
X76602632Y-104198034D01*
X76613447Y-104184857D01*
X76626624Y-104174042D01*
X76641658Y-104166006D01*
X76657971Y-104161058D01*
X76674936Y-104159387D01*
X76953025Y-104159387D01*
X76969990Y-104161058D01*
X76986303Y-104166006D01*
X77001337Y-104174042D01*
X77014515Y-104184857D01*
X77086554Y-104256897D01*
X77097368Y-104270075D01*
X77105404Y-104285109D01*
X77110352Y-104301422D01*
X77112023Y-104318386D01*
X77112023Y-104806614D01*
X77110352Y-104823579D01*
X77105404Y-104839892D01*
X77097368Y-104854926D01*
X77086554Y-104868103D01*
X77014515Y-104940143D01*
X77001337Y-104950957D01*
X76986303Y-104958993D01*
X76969990Y-104963942D01*
X76953025Y-104965613D01*
X76674936Y-104965613D01*
X76657971Y-104963942D01*
X76641658Y-104958994D01*
X76626624Y-104950958D01*
X76613447Y-104940143D01*
X76602632Y-104926966D01*
X76594596Y-104911932D01*
X76589648Y-104895619D01*
X76587977Y-104878654D01*
X76587977Y-104246346D01*
X76589648Y-104229381D01*
G37*
G36*
X76589648Y-105229381D02*
G01*
X76594596Y-105213068D01*
X76602632Y-105198034D01*
X76613447Y-105184857D01*
X76626624Y-105174042D01*
X76641658Y-105166006D01*
X76657971Y-105161058D01*
X76674936Y-105159387D01*
X76953025Y-105159387D01*
X76969990Y-105161058D01*
X76986303Y-105166006D01*
X77001337Y-105174042D01*
X77014515Y-105184857D01*
X77086554Y-105256897D01*
X77097368Y-105270075D01*
X77105404Y-105285109D01*
X77110352Y-105301422D01*
X77112023Y-105318386D01*
X77112023Y-105806614D01*
X77110352Y-105823579D01*
X77105404Y-105839892D01*
X77097368Y-105854926D01*
X77086554Y-105868103D01*
X77014515Y-105940143D01*
X77001337Y-105950957D01*
X76986303Y-105958993D01*
X76969990Y-105963942D01*
X76953025Y-105965613D01*
X76674936Y-105965613D01*
X76657971Y-105963942D01*
X76641658Y-105958994D01*
X76626624Y-105950958D01*
X76613447Y-105940143D01*
X76602632Y-105926966D01*
X76594596Y-105911932D01*
X76589648Y-105895619D01*
X76587977Y-105878654D01*
X76587977Y-105246346D01*
X76589648Y-105229381D01*
G37*
G36*
X78273558Y-103545471D02*
G01*
X78278506Y-103529158D01*
X78286542Y-103514124D01*
X78297357Y-103500947D01*
X78310534Y-103490132D01*
X78325568Y-103482096D01*
X78341881Y-103477148D01*
X78358846Y-103475477D01*
X78991154Y-103475477D01*
X79008119Y-103477148D01*
X79024432Y-103482096D01*
X79039466Y-103490132D01*
X79052643Y-103500947D01*
X79063458Y-103514124D01*
X79071494Y-103529158D01*
X79076442Y-103545471D01*
X79078113Y-103562436D01*
X79078113Y-103840525D01*
X79076442Y-103857490D01*
X79071494Y-103873803D01*
X79063458Y-103888837D01*
X79052643Y-103902015D01*
X78980603Y-103974054D01*
X78967425Y-103984868D01*
X78952391Y-103992904D01*
X78936078Y-103997852D01*
X78919114Y-103999523D01*
X78430886Y-103999523D01*
X78413921Y-103997852D01*
X78397608Y-103992904D01*
X78382574Y-103984868D01*
X78369397Y-103974054D01*
X78297357Y-103902015D01*
X78286543Y-103888837D01*
X78278507Y-103873803D01*
X78273558Y-103857490D01*
X78271887Y-103840525D01*
X78271887Y-103562436D01*
X78273558Y-103545471D01*
G37*
G36*
X77273558Y-103545471D02*
G01*
X77278506Y-103529158D01*
X77286542Y-103514124D01*
X77297357Y-103500947D01*
X77310534Y-103490132D01*
X77325568Y-103482096D01*
X77341881Y-103477148D01*
X77358846Y-103475477D01*
X77991154Y-103475477D01*
X78008119Y-103477148D01*
X78024432Y-103482096D01*
X78039466Y-103490132D01*
X78052643Y-103500947D01*
X78063458Y-103514124D01*
X78071494Y-103529158D01*
X78076442Y-103545471D01*
X78078113Y-103562436D01*
X78078113Y-103840525D01*
X78076442Y-103857490D01*
X78071494Y-103873803D01*
X78063458Y-103888837D01*
X78052643Y-103902015D01*
X77980603Y-103974054D01*
X77967425Y-103984868D01*
X77952391Y-103992904D01*
X77936078Y-103997852D01*
X77919114Y-103999523D01*
X77430886Y-103999523D01*
X77413921Y-103997852D01*
X77397608Y-103992904D01*
X77382574Y-103984868D01*
X77369397Y-103974054D01*
X77297357Y-103902015D01*
X77286543Y-103888837D01*
X77278507Y-103873803D01*
X77273558Y-103857490D01*
X77271887Y-103840525D01*
X77271887Y-103562436D01*
X77273558Y-103545471D01*
G37*
G36*
X78273558Y-106267510D02*
G01*
X78278506Y-106251197D01*
X78286542Y-106236163D01*
X78297357Y-106222985D01*
X78369397Y-106150946D01*
X78382575Y-106140132D01*
X78397609Y-106132096D01*
X78413922Y-106127148D01*
X78430886Y-106125477D01*
X78919114Y-106125477D01*
X78936079Y-106127148D01*
X78952392Y-106132096D01*
X78967426Y-106140132D01*
X78980603Y-106150946D01*
X79052643Y-106222985D01*
X79063457Y-106236163D01*
X79071493Y-106251197D01*
X79076442Y-106267510D01*
X79078113Y-106284475D01*
X79078113Y-106562564D01*
X79076442Y-106579529D01*
X79071494Y-106595842D01*
X79063458Y-106610876D01*
X79052643Y-106624053D01*
X79039466Y-106634868D01*
X79024432Y-106642904D01*
X79008119Y-106647852D01*
X78991154Y-106649523D01*
X78358846Y-106649523D01*
X78341881Y-106647852D01*
X78325568Y-106642904D01*
X78310534Y-106634868D01*
X78297357Y-106624053D01*
X78286542Y-106610876D01*
X78278506Y-106595842D01*
X78273558Y-106579529D01*
X78271887Y-106562564D01*
X78271887Y-106284475D01*
X78273558Y-106267510D01*
G37*
G36*
X77273558Y-106267510D02*
G01*
X77278506Y-106251197D01*
X77286542Y-106236163D01*
X77297357Y-106222985D01*
X77369397Y-106150946D01*
X77382575Y-106140132D01*
X77397609Y-106132096D01*
X77413922Y-106127148D01*
X77430886Y-106125477D01*
X77919114Y-106125477D01*
X77936079Y-106127148D01*
X77952392Y-106132096D01*
X77967426Y-106140132D01*
X77980603Y-106150946D01*
X78052643Y-106222985D01*
X78063457Y-106236163D01*
X78071493Y-106251197D01*
X78076442Y-106267510D01*
X78078113Y-106284475D01*
X78078113Y-106562564D01*
X78076442Y-106579529D01*
X78071494Y-106595842D01*
X78063458Y-106610876D01*
X78052643Y-106624053D01*
X78039466Y-106634868D01*
X78024432Y-106642904D01*
X78008119Y-106647852D01*
X77991154Y-106649523D01*
X77358846Y-106649523D01*
X77341881Y-106647852D01*
X77325568Y-106642904D01*
X77310534Y-106634868D01*
X77297357Y-106624053D01*
X77286542Y-106610876D01*
X77278506Y-106595842D01*
X77273558Y-106579529D01*
X77271887Y-106562564D01*
X77271887Y-106284475D01*
X77273558Y-106267510D01*
G37*
G36*
G01*
X78876557Y-104965613D02*
X78473443Y-104965613D01*
G75*
G02*
X78271887Y-104764057I0J201556D01*
G01*
X78271887Y-104360943D01*
G75*
G02*
X78473443Y-104159387I201556J0D01*
G01*
X78876557Y-104159387D01*
G75*
G02*
X79078113Y-104360943I0J-201556D01*
G01*
X79078113Y-104764057D01*
G75*
G02*
X78876557Y-104965613I-201556J0D01*
G01*
G37*
G36*
G01*
X77876557Y-104965613D02*
X77473443Y-104965613D01*
G75*
G02*
X77271887Y-104764057I0J201556D01*
G01*
X77271887Y-104360943D01*
G75*
G02*
X77473443Y-104159387I201556J0D01*
G01*
X77876557Y-104159387D01*
G75*
G02*
X78078113Y-104360943I0J-201556D01*
G01*
X78078113Y-104764057D01*
G75*
G02*
X77876557Y-104965613I-201556J0D01*
G01*
G37*
G36*
G01*
X78876557Y-105965613D02*
X78473443Y-105965613D01*
G75*
G02*
X78271887Y-105764057I0J201556D01*
G01*
X78271887Y-105360943D01*
G75*
G02*
X78473443Y-105159387I201556J0D01*
G01*
X78876557Y-105159387D01*
G75*
G02*
X79078113Y-105360943I0J-201556D01*
G01*
X79078113Y-105764057D01*
G75*
G02*
X78876557Y-105965613I-201556J0D01*
G01*
G37*
G36*
G01*
X77876557Y-105965613D02*
X77473443Y-105965613D01*
G75*
G02*
X77271887Y-105764057I0J201556D01*
G01*
X77271887Y-105360943D01*
G75*
G02*
X77473443Y-105159387I201556J0D01*
G01*
X77876557Y-105159387D01*
G75*
G02*
X78078113Y-105360943I0J-201556D01*
G01*
X78078113Y-105764057D01*
G75*
G02*
X77876557Y-105965613I-201556J0D01*
G01*
G37*
G36*
G01*
X76112500Y-106937500D02*
X75362500Y-106937500D01*
G75*
G02*
X75300000Y-106875000I0J62500D01*
G01*
X75300000Y-106750000D01*
G75*
G02*
X75362500Y-106687500I62500J0D01*
G01*
X76112500Y-106687500D01*
G75*
G02*
X76175000Y-106750000I0J-62500D01*
G01*
X76175000Y-106875000D01*
G75*
G02*
X76112500Y-106937500I-62500J0D01*
G01*
G37*
G36*
G01*
X76112500Y-106437500D02*
X75362500Y-106437500D01*
G75*
G02*
X75300000Y-106375000I0J62500D01*
G01*
X75300000Y-106250000D01*
G75*
G02*
X75362500Y-106187500I62500J0D01*
G01*
X76112500Y-106187500D01*
G75*
G02*
X76175000Y-106250000I0J-62500D01*
G01*
X76175000Y-106375000D01*
G75*
G02*
X76112500Y-106437500I-62500J0D01*
G01*
G37*
G36*
G01*
X76112500Y-105937500D02*
X75362500Y-105937500D01*
G75*
G02*
X75300000Y-105875000I0J62500D01*
G01*
X75300000Y-105750000D01*
G75*
G02*
X75362500Y-105687500I62500J0D01*
G01*
X76112500Y-105687500D01*
G75*
G02*
X76175000Y-105750000I0J-62500D01*
G01*
X76175000Y-105875000D01*
G75*
G02*
X76112500Y-105937500I-62500J0D01*
G01*
G37*
G36*
G01*
X76112500Y-105437500D02*
X75362500Y-105437500D01*
G75*
G02*
X75300000Y-105375000I0J62500D01*
G01*
X75300000Y-105250000D01*
G75*
G02*
X75362500Y-105187500I62500J0D01*
G01*
X76112500Y-105187500D01*
G75*
G02*
X76175000Y-105250000I0J-62500D01*
G01*
X76175000Y-105375000D01*
G75*
G02*
X76112500Y-105437500I-62500J0D01*
G01*
G37*
G36*
G01*
X76112500Y-104937500D02*
X75362500Y-104937500D01*
G75*
G02*
X75300000Y-104875000I0J62500D01*
G01*
X75300000Y-104750000D01*
G75*
G02*
X75362500Y-104687500I62500J0D01*
G01*
X76112500Y-104687500D01*
G75*
G02*
X76175000Y-104750000I0J-62500D01*
G01*
X76175000Y-104875000D01*
G75*
G02*
X76112500Y-104937500I-62500J0D01*
G01*
G37*
G36*
G01*
X76112500Y-104437500D02*
X75362500Y-104437500D01*
G75*
G02*
X75300000Y-104375000I0J62500D01*
G01*
X75300000Y-104250000D01*
G75*
G02*
X75362500Y-104187500I62500J0D01*
G01*
X76112500Y-104187500D01*
G75*
G02*
X76175000Y-104250000I0J-62500D01*
G01*
X76175000Y-104375000D01*
G75*
G02*
X76112500Y-104437500I-62500J0D01*
G01*
G37*
G36*
G01*
X76112500Y-103937500D02*
X75362500Y-103937500D01*
G75*
G02*
X75300000Y-103875000I0J62500D01*
G01*
X75300000Y-103750000D01*
G75*
G02*
X75362500Y-103687500I62500J0D01*
G01*
X76112500Y-103687500D01*
G75*
G02*
X76175000Y-103750000I0J-62500D01*
G01*
X76175000Y-103875000D01*
G75*
G02*
X76112500Y-103937500I-62500J0D01*
G01*
G37*
G36*
G01*
X76112500Y-103437500D02*
X75362500Y-103437500D01*
G75*
G02*
X75300000Y-103375000I0J62500D01*
G01*
X75300000Y-103250000D01*
G75*
G02*
X75362500Y-103187500I62500J0D01*
G01*
X76112500Y-103187500D01*
G75*
G02*
X76175000Y-103250000I0J-62500D01*
G01*
X76175000Y-103375000D01*
G75*
G02*
X76112500Y-103437500I-62500J0D01*
G01*
G37*
G36*
G01*
X76487500Y-103062500D02*
X76362500Y-103062500D01*
G75*
G02*
X76300000Y-103000000I0J62500D01*
G01*
X76300000Y-102250000D01*
G75*
G02*
X76362500Y-102187500I62500J0D01*
G01*
X76487500Y-102187500D01*
G75*
G02*
X76550000Y-102250000I0J-62500D01*
G01*
X76550000Y-103000000D01*
G75*
G02*
X76487500Y-103062500I-62500J0D01*
G01*
G37*
G36*
G01*
X76987500Y-103062500D02*
X76862500Y-103062500D01*
G75*
G02*
X76800000Y-103000000I0J62500D01*
G01*
X76800000Y-102250000D01*
G75*
G02*
X76862500Y-102187500I62500J0D01*
G01*
X76987500Y-102187500D01*
G75*
G02*
X77050000Y-102250000I0J-62500D01*
G01*
X77050000Y-103000000D01*
G75*
G02*
X76987500Y-103062500I-62500J0D01*
G01*
G37*
G36*
G01*
X77487500Y-103062500D02*
X77362500Y-103062500D01*
G75*
G02*
X77300000Y-103000000I0J62500D01*
G01*
X77300000Y-102250000D01*
G75*
G02*
X77362500Y-102187500I62500J0D01*
G01*
X77487500Y-102187500D01*
G75*
G02*
X77550000Y-102250000I0J-62500D01*
G01*
X77550000Y-103000000D01*
G75*
G02*
X77487500Y-103062500I-62500J0D01*
G01*
G37*
G36*
G01*
X77987500Y-103062500D02*
X77862500Y-103062500D01*
G75*
G02*
X77800000Y-103000000I0J62500D01*
G01*
X77800000Y-102250000D01*
G75*
G02*
X77862500Y-102187500I62500J0D01*
G01*
X77987500Y-102187500D01*
G75*
G02*
X78050000Y-102250000I0J-62500D01*
G01*
X78050000Y-103000000D01*
G75*
G02*
X77987500Y-103062500I-62500J0D01*
G01*
G37*
G36*
G01*
X78487500Y-103062500D02*
X78362500Y-103062500D01*
G75*
G02*
X78300000Y-103000000I0J62500D01*
G01*
X78300000Y-102250000D01*
G75*
G02*
X78362500Y-102187500I62500J0D01*
G01*
X78487500Y-102187500D01*
G75*
G02*
X78550000Y-102250000I0J-62500D01*
G01*
X78550000Y-103000000D01*
G75*
G02*
X78487500Y-103062500I-62500J0D01*
G01*
G37*
G36*
G01*
X78987500Y-103062500D02*
X78862500Y-103062500D01*
G75*
G02*
X78800000Y-103000000I0J62500D01*
G01*
X78800000Y-102250000D01*
G75*
G02*
X78862500Y-102187500I62500J0D01*
G01*
X78987500Y-102187500D01*
G75*
G02*
X79050000Y-102250000I0J-62500D01*
G01*
X79050000Y-103000000D01*
G75*
G02*
X78987500Y-103062500I-62500J0D01*
G01*
G37*
G36*
G01*
X79487500Y-103062500D02*
X79362500Y-103062500D01*
G75*
G02*
X79300000Y-103000000I0J62500D01*
G01*
X79300000Y-102250000D01*
G75*
G02*
X79362500Y-102187500I62500J0D01*
G01*
X79487500Y-102187500D01*
G75*
G02*
X79550000Y-102250000I0J-62500D01*
G01*
X79550000Y-103000000D01*
G75*
G02*
X79487500Y-103062500I-62500J0D01*
G01*
G37*
G36*
G01*
X79987500Y-103062500D02*
X79862500Y-103062500D01*
G75*
G02*
X79800000Y-103000000I0J62500D01*
G01*
X79800000Y-102250000D01*
G75*
G02*
X79862500Y-102187500I62500J0D01*
G01*
X79987500Y-102187500D01*
G75*
G02*
X80050000Y-102250000I0J-62500D01*
G01*
X80050000Y-103000000D01*
G75*
G02*
X79987500Y-103062500I-62500J0D01*
G01*
G37*
G36*
G01*
X80987500Y-103437500D02*
X80237500Y-103437500D01*
G75*
G02*
X80175000Y-103375000I0J62500D01*
G01*
X80175000Y-103250000D01*
G75*
G02*
X80237500Y-103187500I62500J0D01*
G01*
X80987500Y-103187500D01*
G75*
G02*
X81050000Y-103250000I0J-62500D01*
G01*
X81050000Y-103375000D01*
G75*
G02*
X80987500Y-103437500I-62500J0D01*
G01*
G37*
G36*
G01*
X80987500Y-103937500D02*
X80237500Y-103937500D01*
G75*
G02*
X80175000Y-103875000I0J62500D01*
G01*
X80175000Y-103750000D01*
G75*
G02*
X80237500Y-103687500I62500J0D01*
G01*
X80987500Y-103687500D01*
G75*
G02*
X81050000Y-103750000I0J-62500D01*
G01*
X81050000Y-103875000D01*
G75*
G02*
X80987500Y-103937500I-62500J0D01*
G01*
G37*
G36*
G01*
X80987500Y-104437500D02*
X80237500Y-104437500D01*
G75*
G02*
X80175000Y-104375000I0J62500D01*
G01*
X80175000Y-104250000D01*
G75*
G02*
X80237500Y-104187500I62500J0D01*
G01*
X80987500Y-104187500D01*
G75*
G02*
X81050000Y-104250000I0J-62500D01*
G01*
X81050000Y-104375000D01*
G75*
G02*
X80987500Y-104437500I-62500J0D01*
G01*
G37*
G36*
G01*
X80987500Y-104937500D02*
X80237500Y-104937500D01*
G75*
G02*
X80175000Y-104875000I0J62500D01*
G01*
X80175000Y-104750000D01*
G75*
G02*
X80237500Y-104687500I62500J0D01*
G01*
X80987500Y-104687500D01*
G75*
G02*
X81050000Y-104750000I0J-62500D01*
G01*
X81050000Y-104875000D01*
G75*
G02*
X80987500Y-104937500I-62500J0D01*
G01*
G37*
G36*
G01*
X80987500Y-105437500D02*
X80237500Y-105437500D01*
G75*
G02*
X80175000Y-105375000I0J62500D01*
G01*
X80175000Y-105250000D01*
G75*
G02*
X80237500Y-105187500I62500J0D01*
G01*
X80987500Y-105187500D01*
G75*
G02*
X81050000Y-105250000I0J-62500D01*
G01*
X81050000Y-105375000D01*
G75*
G02*
X80987500Y-105437500I-62500J0D01*
G01*
G37*
G36*
G01*
X80987500Y-105937500D02*
X80237500Y-105937500D01*
G75*
G02*
X80175000Y-105875000I0J62500D01*
G01*
X80175000Y-105750000D01*
G75*
G02*
X80237500Y-105687500I62500J0D01*
G01*
X80987500Y-105687500D01*
G75*
G02*
X81050000Y-105750000I0J-62500D01*
G01*
X81050000Y-105875000D01*
G75*
G02*
X80987500Y-105937500I-62500J0D01*
G01*
G37*
G36*
G01*
X80987500Y-106437500D02*
X80237500Y-106437500D01*
G75*
G02*
X80175000Y-106375000I0J62500D01*
G01*
X80175000Y-106250000D01*
G75*
G02*
X80237500Y-106187500I62500J0D01*
G01*
X80987500Y-106187500D01*
G75*
G02*
X81050000Y-106250000I0J-62500D01*
G01*
X81050000Y-106375000D01*
G75*
G02*
X80987500Y-106437500I-62500J0D01*
G01*
G37*
G36*
G01*
X80987500Y-106937500D02*
X80237500Y-106937500D01*
G75*
G02*
X80175000Y-106875000I0J62500D01*
G01*
X80175000Y-106750000D01*
G75*
G02*
X80237500Y-106687500I62500J0D01*
G01*
X80987500Y-106687500D01*
G75*
G02*
X81050000Y-106750000I0J-62500D01*
G01*
X81050000Y-106875000D01*
G75*
G02*
X80987500Y-106937500I-62500J0D01*
G01*
G37*
G36*
G01*
X79987500Y-107937500D02*
X79862500Y-107937500D01*
G75*
G02*
X79800000Y-107875000I0J62500D01*
G01*
X79800000Y-107125000D01*
G75*
G02*
X79862500Y-107062500I62500J0D01*
G01*
X79987500Y-107062500D01*
G75*
G02*
X80050000Y-107125000I0J-62500D01*
G01*
X80050000Y-107875000D01*
G75*
G02*
X79987500Y-107937500I-62500J0D01*
G01*
G37*
G36*
G01*
X79487500Y-107937500D02*
X79362500Y-107937500D01*
G75*
G02*
X79300000Y-107875000I0J62500D01*
G01*
X79300000Y-107125000D01*
G75*
G02*
X79362500Y-107062500I62500J0D01*
G01*
X79487500Y-107062500D01*
G75*
G02*
X79550000Y-107125000I0J-62500D01*
G01*
X79550000Y-107875000D01*
G75*
G02*
X79487500Y-107937500I-62500J0D01*
G01*
G37*
G36*
G01*
X78987500Y-107937500D02*
X78862500Y-107937500D01*
G75*
G02*
X78800000Y-107875000I0J62500D01*
G01*
X78800000Y-107125000D01*
G75*
G02*
X78862500Y-107062500I62500J0D01*
G01*
X78987500Y-107062500D01*
G75*
G02*
X79050000Y-107125000I0J-62500D01*
G01*
X79050000Y-107875000D01*
G75*
G02*
X78987500Y-107937500I-62500J0D01*
G01*
G37*
G36*
G01*
X78487500Y-107937500D02*
X78362500Y-107937500D01*
G75*
G02*
X78300000Y-107875000I0J62500D01*
G01*
X78300000Y-107125000D01*
G75*
G02*
X78362500Y-107062500I62500J0D01*
G01*
X78487500Y-107062500D01*
G75*
G02*
X78550000Y-107125000I0J-62500D01*
G01*
X78550000Y-107875000D01*
G75*
G02*
X78487500Y-107937500I-62500J0D01*
G01*
G37*
G36*
G01*
X77987500Y-107937500D02*
X77862500Y-107937500D01*
G75*
G02*
X77800000Y-107875000I0J62500D01*
G01*
X77800000Y-107125000D01*
G75*
G02*
X77862500Y-107062500I62500J0D01*
G01*
X77987500Y-107062500D01*
G75*
G02*
X78050000Y-107125000I0J-62500D01*
G01*
X78050000Y-107875000D01*
G75*
G02*
X77987500Y-107937500I-62500J0D01*
G01*
G37*
G36*
G01*
X77487500Y-107937500D02*
X77362500Y-107937500D01*
G75*
G02*
X77300000Y-107875000I0J62500D01*
G01*
X77300000Y-107125000D01*
G75*
G02*
X77362500Y-107062500I62500J0D01*
G01*
X77487500Y-107062500D01*
G75*
G02*
X77550000Y-107125000I0J-62500D01*
G01*
X77550000Y-107875000D01*
G75*
G02*
X77487500Y-107937500I-62500J0D01*
G01*
G37*
G36*
G01*
X76987500Y-107937500D02*
X76862500Y-107937500D01*
G75*
G02*
X76800000Y-107875000I0J62500D01*
G01*
X76800000Y-107125000D01*
G75*
G02*
X76862500Y-107062500I62500J0D01*
G01*
X76987500Y-107062500D01*
G75*
G02*
X77050000Y-107125000I0J-62500D01*
G01*
X77050000Y-107875000D01*
G75*
G02*
X76987500Y-107937500I-62500J0D01*
G01*
G37*
G36*
G01*
X76487500Y-107937500D02*
X76362500Y-107937500D01*
G75*
G02*
X76300000Y-107875000I0J62500D01*
G01*
X76300000Y-107125000D01*
G75*
G02*
X76362500Y-107062500I62500J0D01*
G01*
X76487500Y-107062500D01*
G75*
G02*
X76550000Y-107125000I0J-62500D01*
G01*
X76550000Y-107875000D01*
G75*
G02*
X76487500Y-107937500I-62500J0D01*
G01*
G37*
G04 #@! TD*
G04 #@! TO.C,U6*
G36*
G01*
X69545000Y-77800000D02*
X69245000Y-77800000D01*
G75*
G02*
X69095000Y-77650000I0J150000D01*
G01*
X69095000Y-76000000D01*
G75*
G02*
X69245000Y-75850000I150000J0D01*
G01*
X69545000Y-75850000D01*
G75*
G02*
X69695000Y-76000000I0J-150000D01*
G01*
X69695000Y-77650000D01*
G75*
G02*
X69545000Y-77800000I-150000J0D01*
G01*
G37*
G36*
G01*
X70815000Y-77800000D02*
X70515000Y-77800000D01*
G75*
G02*
X70365000Y-77650000I0J150000D01*
G01*
X70365000Y-76000000D01*
G75*
G02*
X70515000Y-75850000I150000J0D01*
G01*
X70815000Y-75850000D01*
G75*
G02*
X70965000Y-76000000I0J-150000D01*
G01*
X70965000Y-77650000D01*
G75*
G02*
X70815000Y-77800000I-150000J0D01*
G01*
G37*
G36*
G01*
X72085000Y-77800000D02*
X71785000Y-77800000D01*
G75*
G02*
X71635000Y-77650000I0J150000D01*
G01*
X71635000Y-76000000D01*
G75*
G02*
X71785000Y-75850000I150000J0D01*
G01*
X72085000Y-75850000D01*
G75*
G02*
X72235000Y-76000000I0J-150000D01*
G01*
X72235000Y-77650000D01*
G75*
G02*
X72085000Y-77800000I-150000J0D01*
G01*
G37*
G36*
G01*
X73355000Y-77800000D02*
X73055000Y-77800000D01*
G75*
G02*
X72905000Y-77650000I0J150000D01*
G01*
X72905000Y-76000000D01*
G75*
G02*
X73055000Y-75850000I150000J0D01*
G01*
X73355000Y-75850000D01*
G75*
G02*
X73505000Y-76000000I0J-150000D01*
G01*
X73505000Y-77650000D01*
G75*
G02*
X73355000Y-77800000I-150000J0D01*
G01*
G37*
G36*
G01*
X73355000Y-82750000D02*
X73055000Y-82750000D01*
G75*
G02*
X72905000Y-82600000I0J150000D01*
G01*
X72905000Y-80950000D01*
G75*
G02*
X73055000Y-80800000I150000J0D01*
G01*
X73355000Y-80800000D01*
G75*
G02*
X73505000Y-80950000I0J-150000D01*
G01*
X73505000Y-82600000D01*
G75*
G02*
X73355000Y-82750000I-150000J0D01*
G01*
G37*
G36*
G01*
X72085000Y-82750000D02*
X71785000Y-82750000D01*
G75*
G02*
X71635000Y-82600000I0J150000D01*
G01*
X71635000Y-80950000D01*
G75*
G02*
X71785000Y-80800000I150000J0D01*
G01*
X72085000Y-80800000D01*
G75*
G02*
X72235000Y-80950000I0J-150000D01*
G01*
X72235000Y-82600000D01*
G75*
G02*
X72085000Y-82750000I-150000J0D01*
G01*
G37*
G36*
G01*
X70815000Y-82750000D02*
X70515000Y-82750000D01*
G75*
G02*
X70365000Y-82600000I0J150000D01*
G01*
X70365000Y-80950000D01*
G75*
G02*
X70515000Y-80800000I150000J0D01*
G01*
X70815000Y-80800000D01*
G75*
G02*
X70965000Y-80950000I0J-150000D01*
G01*
X70965000Y-82600000D01*
G75*
G02*
X70815000Y-82750000I-150000J0D01*
G01*
G37*
G36*
G01*
X69545000Y-82750000D02*
X69245000Y-82750000D01*
G75*
G02*
X69095000Y-82600000I0J150000D01*
G01*
X69095000Y-80950000D01*
G75*
G02*
X69245000Y-80800000I150000J0D01*
G01*
X69545000Y-80800000D01*
G75*
G02*
X69695000Y-80950000I0J-150000D01*
G01*
X69695000Y-82600000D01*
G75*
G02*
X69545000Y-82750000I-150000J0D01*
G01*
G37*
G04 #@! TD*
D11*
G04 #@! TO.C,U5*
X84050000Y-117340000D03*
X85000000Y-117340000D03*
X85950000Y-117340000D03*
X85950000Y-119660000D03*
X85000000Y-119660000D03*
X84050000Y-119660000D03*
G04 #@! TD*
G04 #@! TO.C,U3*
G36*
G01*
X93045000Y-77700000D02*
X92745000Y-77700000D01*
G75*
G02*
X92595000Y-77550000I0J150000D01*
G01*
X92595000Y-75900000D01*
G75*
G02*
X92745000Y-75750000I150000J0D01*
G01*
X93045000Y-75750000D01*
G75*
G02*
X93195000Y-75900000I0J-150000D01*
G01*
X93195000Y-77550000D01*
G75*
G02*
X93045000Y-77700000I-150000J0D01*
G01*
G37*
G36*
G01*
X94315000Y-77700000D02*
X94015000Y-77700000D01*
G75*
G02*
X93865000Y-77550000I0J150000D01*
G01*
X93865000Y-75900000D01*
G75*
G02*
X94015000Y-75750000I150000J0D01*
G01*
X94315000Y-75750000D01*
G75*
G02*
X94465000Y-75900000I0J-150000D01*
G01*
X94465000Y-77550000D01*
G75*
G02*
X94315000Y-77700000I-150000J0D01*
G01*
G37*
G36*
G01*
X95585000Y-77700000D02*
X95285000Y-77700000D01*
G75*
G02*
X95135000Y-77550000I0J150000D01*
G01*
X95135000Y-75900000D01*
G75*
G02*
X95285000Y-75750000I150000J0D01*
G01*
X95585000Y-75750000D01*
G75*
G02*
X95735000Y-75900000I0J-150000D01*
G01*
X95735000Y-77550000D01*
G75*
G02*
X95585000Y-77700000I-150000J0D01*
G01*
G37*
G36*
G01*
X96855000Y-77700000D02*
X96555000Y-77700000D01*
G75*
G02*
X96405000Y-77550000I0J150000D01*
G01*
X96405000Y-75900000D01*
G75*
G02*
X96555000Y-75750000I150000J0D01*
G01*
X96855000Y-75750000D01*
G75*
G02*
X97005000Y-75900000I0J-150000D01*
G01*
X97005000Y-77550000D01*
G75*
G02*
X96855000Y-77700000I-150000J0D01*
G01*
G37*
G36*
G01*
X96855000Y-82650000D02*
X96555000Y-82650000D01*
G75*
G02*
X96405000Y-82500000I0J150000D01*
G01*
X96405000Y-80850000D01*
G75*
G02*
X96555000Y-80700000I150000J0D01*
G01*
X96855000Y-80700000D01*
G75*
G02*
X97005000Y-80850000I0J-150000D01*
G01*
X97005000Y-82500000D01*
G75*
G02*
X96855000Y-82650000I-150000J0D01*
G01*
G37*
G36*
G01*
X95585000Y-82650000D02*
X95285000Y-82650000D01*
G75*
G02*
X95135000Y-82500000I0J150000D01*
G01*
X95135000Y-80850000D01*
G75*
G02*
X95285000Y-80700000I150000J0D01*
G01*
X95585000Y-80700000D01*
G75*
G02*
X95735000Y-80850000I0J-150000D01*
G01*
X95735000Y-82500000D01*
G75*
G02*
X95585000Y-82650000I-150000J0D01*
G01*
G37*
G36*
G01*
X94315000Y-82650000D02*
X94015000Y-82650000D01*
G75*
G02*
X93865000Y-82500000I0J150000D01*
G01*
X93865000Y-80850000D01*
G75*
G02*
X94015000Y-80700000I150000J0D01*
G01*
X94315000Y-80700000D01*
G75*
G02*
X94465000Y-80850000I0J-150000D01*
G01*
X94465000Y-82500000D01*
G75*
G02*
X94315000Y-82650000I-150000J0D01*
G01*
G37*
G36*
G01*
X93045000Y-82650000D02*
X92745000Y-82650000D01*
G75*
G02*
X92595000Y-82500000I0J150000D01*
G01*
X92595000Y-80850000D01*
G75*
G02*
X92745000Y-80700000I150000J0D01*
G01*
X93045000Y-80700000D01*
G75*
G02*
X93195000Y-80850000I0J-150000D01*
G01*
X93195000Y-82500000D01*
G75*
G02*
X93045000Y-82650000I-150000J0D01*
G01*
G37*
G04 #@! TD*
G04 #@! TO.C,U2*
G36*
G01*
X107075000Y-122580000D02*
X107075000Y-122280000D01*
G75*
G02*
X107225000Y-122130000I150000J0D01*
G01*
X108875000Y-122130000D01*
G75*
G02*
X109025000Y-122280000I0J-150000D01*
G01*
X109025000Y-122580000D01*
G75*
G02*
X108875000Y-122730000I-150000J0D01*
G01*
X107225000Y-122730000D01*
G75*
G02*
X107075000Y-122580000I0J150000D01*
G01*
G37*
G36*
G01*
X107075000Y-123850000D02*
X107075000Y-123550000D01*
G75*
G02*
X107225000Y-123400000I150000J0D01*
G01*
X108875000Y-123400000D01*
G75*
G02*
X109025000Y-123550000I0J-150000D01*
G01*
X109025000Y-123850000D01*
G75*
G02*
X108875000Y-124000000I-150000J0D01*
G01*
X107225000Y-124000000D01*
G75*
G02*
X107075000Y-123850000I0J150000D01*
G01*
G37*
G36*
G01*
X107075000Y-125120000D02*
X107075000Y-124820000D01*
G75*
G02*
X107225000Y-124670000I150000J0D01*
G01*
X108875000Y-124670000D01*
G75*
G02*
X109025000Y-124820000I0J-150000D01*
G01*
X109025000Y-125120000D01*
G75*
G02*
X108875000Y-125270000I-150000J0D01*
G01*
X107225000Y-125270000D01*
G75*
G02*
X107075000Y-125120000I0J150000D01*
G01*
G37*
G36*
G01*
X107075000Y-126390000D02*
X107075000Y-126090000D01*
G75*
G02*
X107225000Y-125940000I150000J0D01*
G01*
X108875000Y-125940000D01*
G75*
G02*
X109025000Y-126090000I0J-150000D01*
G01*
X109025000Y-126390000D01*
G75*
G02*
X108875000Y-126540000I-150000J0D01*
G01*
X107225000Y-126540000D01*
G75*
G02*
X107075000Y-126390000I0J150000D01*
G01*
G37*
G36*
G01*
X107075000Y-127660000D02*
X107075000Y-127360000D01*
G75*
G02*
X107225000Y-127210000I150000J0D01*
G01*
X108875000Y-127210000D01*
G75*
G02*
X109025000Y-127360000I0J-150000D01*
G01*
X109025000Y-127660000D01*
G75*
G02*
X108875000Y-127810000I-150000J0D01*
G01*
X107225000Y-127810000D01*
G75*
G02*
X107075000Y-127660000I0J150000D01*
G01*
G37*
G36*
G01*
X107075000Y-128930000D02*
X107075000Y-128630000D01*
G75*
G02*
X107225000Y-128480000I150000J0D01*
G01*
X108875000Y-128480000D01*
G75*
G02*
X109025000Y-128630000I0J-150000D01*
G01*
X109025000Y-128930000D01*
G75*
G02*
X108875000Y-129080000I-150000J0D01*
G01*
X107225000Y-129080000D01*
G75*
G02*
X107075000Y-128930000I0J150000D01*
G01*
G37*
G36*
G01*
X107075000Y-130200000D02*
X107075000Y-129900000D01*
G75*
G02*
X107225000Y-129750000I150000J0D01*
G01*
X108875000Y-129750000D01*
G75*
G02*
X109025000Y-129900000I0J-150000D01*
G01*
X109025000Y-130200000D01*
G75*
G02*
X108875000Y-130350000I-150000J0D01*
G01*
X107225000Y-130350000D01*
G75*
G02*
X107075000Y-130200000I0J150000D01*
G01*
G37*
G36*
G01*
X107075000Y-131470000D02*
X107075000Y-131170000D01*
G75*
G02*
X107225000Y-131020000I150000J0D01*
G01*
X108875000Y-131020000D01*
G75*
G02*
X109025000Y-131170000I0J-150000D01*
G01*
X109025000Y-131470000D01*
G75*
G02*
X108875000Y-131620000I-150000J0D01*
G01*
X107225000Y-131620000D01*
G75*
G02*
X107075000Y-131470000I0J150000D01*
G01*
G37*
G36*
G01*
X102125000Y-131470000D02*
X102125000Y-131170000D01*
G75*
G02*
X102275000Y-131020000I150000J0D01*
G01*
X103925000Y-131020000D01*
G75*
G02*
X104075000Y-131170000I0J-150000D01*
G01*
X104075000Y-131470000D01*
G75*
G02*
X103925000Y-131620000I-150000J0D01*
G01*
X102275000Y-131620000D01*
G75*
G02*
X102125000Y-131470000I0J150000D01*
G01*
G37*
G36*
G01*
X102125000Y-130200000D02*
X102125000Y-129900000D01*
G75*
G02*
X102275000Y-129750000I150000J0D01*
G01*
X103925000Y-129750000D01*
G75*
G02*
X104075000Y-129900000I0J-150000D01*
G01*
X104075000Y-130200000D01*
G75*
G02*
X103925000Y-130350000I-150000J0D01*
G01*
X102275000Y-130350000D01*
G75*
G02*
X102125000Y-130200000I0J150000D01*
G01*
G37*
G36*
G01*
X102125000Y-128930000D02*
X102125000Y-128630000D01*
G75*
G02*
X102275000Y-128480000I150000J0D01*
G01*
X103925000Y-128480000D01*
G75*
G02*
X104075000Y-128630000I0J-150000D01*
G01*
X104075000Y-128930000D01*
G75*
G02*
X103925000Y-129080000I-150000J0D01*
G01*
X102275000Y-129080000D01*
G75*
G02*
X102125000Y-128930000I0J150000D01*
G01*
G37*
G36*
G01*
X102125000Y-127660000D02*
X102125000Y-127360000D01*
G75*
G02*
X102275000Y-127210000I150000J0D01*
G01*
X103925000Y-127210000D01*
G75*
G02*
X104075000Y-127360000I0J-150000D01*
G01*
X104075000Y-127660000D01*
G75*
G02*
X103925000Y-127810000I-150000J0D01*
G01*
X102275000Y-127810000D01*
G75*
G02*
X102125000Y-127660000I0J150000D01*
G01*
G37*
G36*
G01*
X102125000Y-126390000D02*
X102125000Y-126090000D01*
G75*
G02*
X102275000Y-125940000I150000J0D01*
G01*
X103925000Y-125940000D01*
G75*
G02*
X104075000Y-126090000I0J-150000D01*
G01*
X104075000Y-126390000D01*
G75*
G02*
X103925000Y-126540000I-150000J0D01*
G01*
X102275000Y-126540000D01*
G75*
G02*
X102125000Y-126390000I0J150000D01*
G01*
G37*
G36*
G01*
X102125000Y-125120000D02*
X102125000Y-124820000D01*
G75*
G02*
X102275000Y-124670000I150000J0D01*
G01*
X103925000Y-124670000D01*
G75*
G02*
X104075000Y-124820000I0J-150000D01*
G01*
X104075000Y-125120000D01*
G75*
G02*
X103925000Y-125270000I-150000J0D01*
G01*
X102275000Y-125270000D01*
G75*
G02*
X102125000Y-125120000I0J150000D01*
G01*
G37*
G36*
G01*
X102125000Y-123850000D02*
X102125000Y-123550000D01*
G75*
G02*
X102275000Y-123400000I150000J0D01*
G01*
X103925000Y-123400000D01*
G75*
G02*
X104075000Y-123550000I0J-150000D01*
G01*
X104075000Y-123850000D01*
G75*
G02*
X103925000Y-124000000I-150000J0D01*
G01*
X102275000Y-124000000D01*
G75*
G02*
X102125000Y-123850000I0J150000D01*
G01*
G37*
G36*
G01*
X102125000Y-122580000D02*
X102125000Y-122280000D01*
G75*
G02*
X102275000Y-122130000I150000J0D01*
G01*
X103925000Y-122130000D01*
G75*
G02*
X104075000Y-122280000I0J-150000D01*
G01*
X104075000Y-122580000D01*
G75*
G02*
X103925000Y-122730000I-150000J0D01*
G01*
X102275000Y-122730000D01*
G75*
G02*
X102125000Y-122580000I0J150000D01*
G01*
G37*
G04 #@! TD*
D12*
G04 #@! TO.C,U1*
X109000000Y-109000000D03*
X107730000Y-109000000D03*
X106460000Y-109000000D03*
X105190000Y-109000000D03*
X103920000Y-109000000D03*
X102650000Y-109000000D03*
X101380000Y-109000000D03*
X100110000Y-109000000D03*
X98840000Y-109000000D03*
X97570000Y-109000000D03*
X96300000Y-109000000D03*
X95030000Y-109000000D03*
X93760000Y-109000000D03*
X92490000Y-109000000D03*
D13*
X91490000Y-106215000D03*
X91490000Y-104945000D03*
X91490000Y-103675000D03*
X91490000Y-102405000D03*
X91490000Y-101135000D03*
X91490000Y-99865000D03*
X91490000Y-98595000D03*
X91490000Y-97325000D03*
X91490000Y-96055000D03*
X91490000Y-94785000D03*
D12*
X92490000Y-92000000D03*
X93760000Y-92000000D03*
X95030000Y-92000000D03*
X96300000Y-92000000D03*
X97570000Y-92000000D03*
X98840000Y-92000000D03*
X100110000Y-92000000D03*
X101380000Y-92000000D03*
X102650000Y-92000000D03*
X103920000Y-92000000D03*
X105190000Y-92000000D03*
X106460000Y-92000000D03*
X107730000Y-92000000D03*
X109000000Y-92000000D03*
D14*
X101500000Y-99500000D03*
G04 #@! TD*
D15*
G04 #@! TO.C,R26*
X69750000Y-112500000D03*
X71250000Y-112500000D03*
G04 #@! TD*
G04 #@! TO.C,R25*
X69750000Y-103000000D03*
X71250000Y-103000000D03*
G04 #@! TD*
G04 #@! TO.C,R24*
X69750000Y-109500000D03*
X71250000Y-109500000D03*
G04 #@! TD*
G04 #@! TO.C,R23*
X69750000Y-107500000D03*
X71250000Y-107500000D03*
G04 #@! TD*
G04 #@! TO.C,R22*
X69750000Y-106000000D03*
X71250000Y-106000000D03*
G04 #@! TD*
D16*
G04 #@! TO.C,R21*
X74500000Y-112250000D03*
X74500000Y-110750000D03*
G04 #@! TD*
D15*
G04 #@! TO.C,R20*
X69750000Y-104500000D03*
X71250000Y-104500000D03*
G04 #@! TD*
D16*
G04 #@! TO.C,R19*
X82000000Y-99500000D03*
X82000000Y-98000000D03*
G04 #@! TD*
D15*
G04 #@! TO.C,R18*
X83000000Y-112000000D03*
X84500000Y-112000000D03*
G04 #@! TD*
G04 #@! TO.C,R17*
X83000000Y-110500000D03*
X84500000Y-110500000D03*
G04 #@! TD*
G04 #@! TO.C,R16*
X83000000Y-109000000D03*
X84500000Y-109000000D03*
G04 #@! TD*
D16*
G04 #@! TO.C,R15*
X77500000Y-99500000D03*
X77500000Y-98000000D03*
G04 #@! TD*
G04 #@! TO.C,R14*
X79000000Y-99500000D03*
X79000000Y-98000000D03*
G04 #@! TD*
G04 #@! TO.C,R13*
X80500000Y-99500000D03*
X80500000Y-98000000D03*
G04 #@! TD*
D15*
G04 #@! TO.C,R12*
X83000000Y-106000000D03*
X84500000Y-106000000D03*
G04 #@! TD*
G04 #@! TO.C,R11*
X83000000Y-107500000D03*
X84500000Y-107500000D03*
G04 #@! TD*
D16*
G04 #@! TO.C,R10*
X88600000Y-115050000D03*
X88600000Y-113550000D03*
G04 #@! TD*
D15*
G04 #@! TO.C,R9*
X101150000Y-82300000D03*
X102650000Y-82300000D03*
G04 #@! TD*
D16*
G04 #@! TO.C,R7*
X87355000Y-131350000D03*
X87355000Y-132850000D03*
G04 #@! TD*
D15*
G04 #@! TO.C,R6*
X101100000Y-84000000D03*
X102600000Y-84000000D03*
G04 #@! TD*
G04 #@! TO.C,R5*
X85100000Y-86200000D03*
X83600000Y-86200000D03*
G04 #@! TD*
G04 #@! TO.C,R4*
X83600000Y-88800000D03*
X85100000Y-88800000D03*
G04 #@! TD*
D16*
G04 #@! TO.C,R3*
X107600000Y-116550000D03*
X107600000Y-118050000D03*
G04 #@! TD*
G04 #@! TO.C,R2*
X100700000Y-116350000D03*
X100700000Y-114850000D03*
G04 #@! TD*
G04 #@! TO.C,R1*
X103000000Y-86850000D03*
X103000000Y-88350000D03*
G04 #@! TD*
D17*
G04 #@! TO.C,Q2*
X90400000Y-114300000D03*
X92400000Y-113350000D03*
X92400000Y-115250000D03*
G04 #@! TD*
D18*
G04 #@! TO.C,Q1*
X111650000Y-121150000D03*
X112950000Y-121150000D03*
X112300000Y-123050000D03*
X112300000Y-121150000D03*
X112950000Y-123050000D03*
X111650000Y-123050000D03*
G04 #@! TD*
D19*
G04 #@! TO.C,L1*
X81900000Y-114000000D03*
X84100000Y-114000000D03*
G04 #@! TD*
D17*
G04 #@! TO.C,D4*
X87600000Y-108800000D03*
X89600000Y-107850000D03*
X89600000Y-109750000D03*
G04 #@! TD*
D19*
G04 #@! TO.C,D3*
X105300000Y-114800000D03*
X105300000Y-118100000D03*
G04 #@! TD*
G04 #@! TO.C,D2*
X102800000Y-118100000D03*
X102800000Y-114800000D03*
G04 #@! TD*
D20*
G04 #@! TO.C,D1*
X73000000Y-130000000D03*
X73000000Y-134000000D03*
G04 #@! TD*
D21*
G04 #@! TO.C,C23*
X77500000Y-110750000D03*
X77500000Y-112250000D03*
G04 #@! TD*
G04 #@! TO.C,C22*
X76000000Y-110750000D03*
X76000000Y-112250000D03*
G04 #@! TD*
D22*
G04 #@! TO.C,C21*
X71250000Y-101500000D03*
X69750000Y-101500000D03*
G04 #@! TD*
D21*
G04 #@! TO.C,C20*
X91100000Y-78300000D03*
X91100000Y-76800000D03*
G04 #@! TD*
D22*
G04 #@! TO.C,C19*
X70000000Y-111000000D03*
X71500000Y-111000000D03*
G04 #@! TD*
D21*
G04 #@! TO.C,C18*
X79000000Y-110750000D03*
X79000000Y-112250000D03*
G04 #@! TD*
G04 #@! TO.C,C17*
X80500000Y-110750000D03*
X80500000Y-112250000D03*
G04 #@! TD*
D22*
G04 #@! TO.C,C16*
X83750000Y-115500000D03*
X82250000Y-115500000D03*
G04 #@! TD*
D21*
G04 #@! TO.C,C15*
X67800000Y-78300000D03*
X67800000Y-76800000D03*
G04 #@! TD*
D22*
G04 #@! TO.C,C14*
X82750000Y-103000000D03*
X84250000Y-103000000D03*
G04 #@! TD*
G04 #@! TO.C,C13*
X82750000Y-104500000D03*
X84250000Y-104500000D03*
G04 #@! TD*
G04 #@! TO.C,C12*
X68250000Y-119700000D03*
X69750000Y-119700000D03*
G04 #@! TD*
G04 #@! TO.C,C11*
X68250000Y-121100000D03*
X69750000Y-121100000D03*
G04 #@! TD*
D21*
G04 #@! TO.C,C10*
X58800000Y-78600000D03*
X58800000Y-77100000D03*
G04 #@! TD*
G04 #@! TO.C,C9*
X86900000Y-115050000D03*
X86900000Y-113550000D03*
G04 #@! TD*
D23*
G04 #@! TO.C,C8*
X70100000Y-125800000D03*
X68100000Y-125800000D03*
G04 #@! TD*
G04 #@! TO.C,C7*
X70100000Y-123800000D03*
X68100000Y-123800000D03*
G04 #@! TD*
D21*
G04 #@! TO.C,C6*
X100300000Y-124750000D03*
X100300000Y-126250000D03*
G04 #@! TD*
G04 #@! TO.C,C5*
X100300000Y-122950000D03*
X100300000Y-121450000D03*
G04 #@! TD*
D22*
G04 #@! TO.C,C4*
X109650000Y-120600000D03*
X108150000Y-120600000D03*
G04 #@! TD*
D21*
G04 #@! TO.C,C3*
X104500000Y-86950000D03*
X104500000Y-88450000D03*
G04 #@! TD*
G04 #@! TO.C,C2*
X109000000Y-111800000D03*
X109000000Y-113300000D03*
G04 #@! TD*
D22*
G04 #@! TO.C,C1*
X106050000Y-88500000D03*
X107550000Y-88500000D03*
G04 #@! TD*
M02*
