%FSLAX45Y45*%
G04 Gerber Fmt 4.5, Leading zero omitted, Abs format (unit mm)*
G04 Created by KiCad (PCBNEW (5.1.10)-1) date 2021-11-10 22:46:03*
%MOMM*%
%LPD*%
G01*
G04 APERTURE LIST*
%TA.AperFunction,Profile*%
%ADD10C,0.050000*%
%TD*%
%ADD11C,0.200000*%
%ADD12C,0.300000*%
G04 APERTURE END LIST*
D10*
X5000000Y-6400000D02*
X5000000Y-15000000D01*
X11700000Y-6400000D02*
X5000000Y-6400000D01*
X11700000Y-15000000D02*
X11700000Y-6400000D01*
X5000000Y-15000000D02*
X11700000Y-15000000D01*
D11*
X5640000Y-10247000D02*
X5960000Y-10567000D01*
X5960000Y-10247000D02*
X5640000Y-10567000D01*
X5640000Y-11390000D02*
X5960000Y-11710000D01*
X5960000Y-11390000D02*
X5640000Y-11710000D01*
X5890000Y-13300000D02*
G75*
G03*
X5890000Y-13300000I-215000J0D01*
G01*
X11240000Y-8100000D02*
G75*
G03*
X11240000Y-8100000I-215000J0D01*
G01*
D12*
X5283928Y-15468214D02*
X5283928Y-15168214D01*
X5355357Y-15168214D01*
X5398214Y-15182500D01*
X5426786Y-15211071D01*
X5441071Y-15239643D01*
X5455357Y-15296786D01*
X5455357Y-15339643D01*
X5441071Y-15396786D01*
X5426786Y-15425357D01*
X5398214Y-15453929D01*
X5355357Y-15468214D01*
X5283928Y-15468214D01*
X5583928Y-15468214D02*
X5583928Y-15268214D01*
X5583928Y-15325357D02*
X5598214Y-15296786D01*
X5612500Y-15282500D01*
X5641071Y-15268214D01*
X5669643Y-15268214D01*
X5769643Y-15468214D02*
X5769643Y-15268214D01*
X5769643Y-15168214D02*
X5755357Y-15182500D01*
X5769643Y-15196786D01*
X5783928Y-15182500D01*
X5769643Y-15168214D01*
X5769643Y-15196786D01*
X5955357Y-15468214D02*
X5926786Y-15453929D01*
X5912500Y-15425357D01*
X5912500Y-15168214D01*
X6112500Y-15468214D02*
X6083928Y-15453929D01*
X6069643Y-15425357D01*
X6069643Y-15168214D01*
X6455357Y-15468214D02*
X6455357Y-15168214D01*
X6555357Y-15382500D01*
X6655357Y-15168214D01*
X6655357Y-15468214D01*
X6926786Y-15468214D02*
X6926786Y-15311071D01*
X6912500Y-15282500D01*
X6883928Y-15268214D01*
X6826786Y-15268214D01*
X6798214Y-15282500D01*
X6926786Y-15453929D02*
X6898214Y-15468214D01*
X6826786Y-15468214D01*
X6798214Y-15453929D01*
X6783928Y-15425357D01*
X6783928Y-15396786D01*
X6798214Y-15368214D01*
X6826786Y-15353929D01*
X6898214Y-15353929D01*
X6926786Y-15339643D01*
X7069643Y-15268214D02*
X7069643Y-15568214D01*
X7069643Y-15282500D02*
X7098214Y-15268214D01*
X7155357Y-15268214D01*
X7183928Y-15282500D01*
X7198214Y-15296786D01*
X7212500Y-15325357D01*
X7212500Y-15411071D01*
X7198214Y-15439643D01*
X7183928Y-15453929D01*
X7155357Y-15468214D01*
X7098214Y-15468214D01*
X7069643Y-15453929D01*
X7341071Y-15439643D02*
X7355357Y-15453929D01*
X7341071Y-15468214D01*
X7326786Y-15453929D01*
X7341071Y-15439643D01*
X7341071Y-15468214D01*
X7341071Y-15282500D02*
X7355357Y-15296786D01*
X7341071Y-15311071D01*
X7326786Y-15296786D01*
X7341071Y-15282500D01*
X7341071Y-15311071D01*
X4677500Y-15802500D02*
X4997500Y-16122500D01*
X4997500Y-15802500D02*
X4677500Y-16122500D01*
X5255357Y-15798214D02*
X5441071Y-15798214D01*
X5341071Y-15912500D01*
X5383928Y-15912500D01*
X5412500Y-15926786D01*
X5426786Y-15941071D01*
X5441071Y-15969643D01*
X5441071Y-16041071D01*
X5426786Y-16069643D01*
X5412500Y-16083929D01*
X5383928Y-16098214D01*
X5298214Y-16098214D01*
X5269643Y-16083929D01*
X5255357Y-16069643D01*
X5569643Y-16069643D02*
X5583928Y-16083929D01*
X5569643Y-16098214D01*
X5555357Y-16083929D01*
X5569643Y-16069643D01*
X5569643Y-16098214D01*
X5698214Y-15826786D02*
X5712500Y-15812500D01*
X5741071Y-15798214D01*
X5812500Y-15798214D01*
X5841071Y-15812500D01*
X5855357Y-15826786D01*
X5869643Y-15855357D01*
X5869643Y-15883929D01*
X5855357Y-15926786D01*
X5683928Y-16098214D01*
X5869643Y-16098214D01*
X6055357Y-15798214D02*
X6083928Y-15798214D01*
X6112500Y-15812500D01*
X6126786Y-15826786D01*
X6141071Y-15855357D01*
X6155357Y-15912500D01*
X6155357Y-15983929D01*
X6141071Y-16041071D01*
X6126786Y-16069643D01*
X6112500Y-16083929D01*
X6083928Y-16098214D01*
X6055357Y-16098214D01*
X6026786Y-16083929D01*
X6012500Y-16069643D01*
X5998214Y-16041071D01*
X5983928Y-15983929D01*
X5983928Y-15912500D01*
X5998214Y-15855357D01*
X6012500Y-15826786D01*
X6026786Y-15812500D01*
X6055357Y-15798214D01*
X6341071Y-15798214D02*
X6369643Y-15798214D01*
X6398214Y-15812500D01*
X6412500Y-15826786D01*
X6426786Y-15855357D01*
X6441071Y-15912500D01*
X6441071Y-15983929D01*
X6426786Y-16041071D01*
X6412500Y-16069643D01*
X6398214Y-16083929D01*
X6369643Y-16098214D01*
X6341071Y-16098214D01*
X6312500Y-16083929D01*
X6298214Y-16069643D01*
X6283928Y-16041071D01*
X6269643Y-15983929D01*
X6269643Y-15912500D01*
X6283928Y-15855357D01*
X6298214Y-15826786D01*
X6312500Y-15812500D01*
X6341071Y-15798214D01*
X6569643Y-16098214D02*
X6569643Y-15898214D01*
X6569643Y-15926786D02*
X6583928Y-15912500D01*
X6612500Y-15898214D01*
X6655357Y-15898214D01*
X6683928Y-15912500D01*
X6698214Y-15941071D01*
X6698214Y-16098214D01*
X6698214Y-15941071D02*
X6712500Y-15912500D01*
X6741071Y-15898214D01*
X6783928Y-15898214D01*
X6812500Y-15912500D01*
X6826786Y-15941071D01*
X6826786Y-16098214D01*
X6969643Y-16098214D02*
X6969643Y-15898214D01*
X6969643Y-15926786D02*
X6983928Y-15912500D01*
X7012500Y-15898214D01*
X7055357Y-15898214D01*
X7083928Y-15912500D01*
X7098214Y-15941071D01*
X7098214Y-16098214D01*
X7098214Y-15941071D02*
X7112500Y-15912500D01*
X7141071Y-15898214D01*
X7183928Y-15898214D01*
X7212500Y-15912500D01*
X7226786Y-15941071D01*
X7226786Y-16098214D01*
X7812500Y-15783929D02*
X7555357Y-16169643D01*
X8198214Y-15798214D02*
X8226786Y-15798214D01*
X8255357Y-15812500D01*
X8269643Y-15826786D01*
X8283928Y-15855357D01*
X8298214Y-15912500D01*
X8298214Y-15983929D01*
X8283928Y-16041071D01*
X8269643Y-16069643D01*
X8255357Y-16083929D01*
X8226786Y-16098214D01*
X8198214Y-16098214D01*
X8169643Y-16083929D01*
X8155357Y-16069643D01*
X8141071Y-16041071D01*
X8126786Y-15983929D01*
X8126786Y-15912500D01*
X8141071Y-15855357D01*
X8155357Y-15826786D01*
X8169643Y-15812500D01*
X8198214Y-15798214D01*
X8426786Y-16069643D02*
X8441071Y-16083929D01*
X8426786Y-16098214D01*
X8412500Y-16083929D01*
X8426786Y-16069643D01*
X8426786Y-16098214D01*
X8726786Y-16098214D02*
X8555357Y-16098214D01*
X8641071Y-16098214D02*
X8641071Y-15798214D01*
X8612500Y-15841071D01*
X8583928Y-15869643D01*
X8555357Y-15883929D01*
X8841071Y-15826786D02*
X8855357Y-15812500D01*
X8883928Y-15798214D01*
X8955357Y-15798214D01*
X8983928Y-15812500D01*
X8998214Y-15826786D01*
X9012500Y-15855357D01*
X9012500Y-15883929D01*
X8998214Y-15926786D01*
X8826786Y-16098214D01*
X9012500Y-16098214D01*
X9269643Y-15798214D02*
X9212500Y-15798214D01*
X9183928Y-15812500D01*
X9169643Y-15826786D01*
X9141071Y-15869643D01*
X9126786Y-15926786D01*
X9126786Y-16041071D01*
X9141071Y-16069643D01*
X9155357Y-16083929D01*
X9183928Y-16098214D01*
X9241071Y-16098214D01*
X9269643Y-16083929D01*
X9283928Y-16069643D01*
X9298214Y-16041071D01*
X9298214Y-15969643D01*
X9283928Y-15941071D01*
X9269643Y-15926786D01*
X9241071Y-15912500D01*
X9183928Y-15912500D01*
X9155357Y-15926786D01*
X9141071Y-15941071D01*
X9126786Y-15969643D01*
X9483928Y-15798214D02*
X9512500Y-15798214D01*
X9541071Y-15812500D01*
X9555357Y-15826786D01*
X9569643Y-15855357D01*
X9583928Y-15912500D01*
X9583928Y-15983929D01*
X9569643Y-16041071D01*
X9555357Y-16069643D01*
X9541071Y-16083929D01*
X9512500Y-16098214D01*
X9483928Y-16098214D01*
X9455357Y-16083929D01*
X9441071Y-16069643D01*
X9426786Y-16041071D01*
X9412500Y-15983929D01*
X9412500Y-15912500D01*
X9426786Y-15855357D01*
X9441071Y-15826786D01*
X9455357Y-15812500D01*
X9483928Y-15798214D01*
X9698214Y-15798214D02*
X9698214Y-15855357D01*
X9812500Y-15798214D02*
X9812500Y-15855357D01*
X10255357Y-16212500D02*
X10241071Y-16198214D01*
X10212500Y-16155357D01*
X10198214Y-16126786D01*
X10183928Y-16083929D01*
X10169643Y-16012500D01*
X10169643Y-15955357D01*
X10183928Y-15883929D01*
X10198214Y-15841071D01*
X10212500Y-15812500D01*
X10241071Y-15769643D01*
X10255357Y-15755357D01*
X10355357Y-15826786D02*
X10369643Y-15812500D01*
X10398214Y-15798214D01*
X10469643Y-15798214D01*
X10498214Y-15812500D01*
X10512500Y-15826786D01*
X10526786Y-15855357D01*
X10526786Y-15883929D01*
X10512500Y-15926786D01*
X10341071Y-16098214D01*
X10526786Y-16098214D01*
X10883928Y-16098214D02*
X10883928Y-15798214D01*
X11012500Y-16098214D02*
X11012500Y-15941071D01*
X10998214Y-15912500D01*
X10969643Y-15898214D01*
X10926786Y-15898214D01*
X10898214Y-15912500D01*
X10883928Y-15926786D01*
X11198214Y-16098214D02*
X11169643Y-16083929D01*
X11155357Y-16069643D01*
X11141071Y-16041071D01*
X11141071Y-15955357D01*
X11155357Y-15926786D01*
X11169643Y-15912500D01*
X11198214Y-15898214D01*
X11241071Y-15898214D01*
X11269643Y-15912500D01*
X11283928Y-15926786D01*
X11298214Y-15955357D01*
X11298214Y-16041071D01*
X11283928Y-16069643D01*
X11269643Y-16083929D01*
X11241071Y-16098214D01*
X11198214Y-16098214D01*
X11469643Y-16098214D02*
X11441071Y-16083929D01*
X11426786Y-16055357D01*
X11426786Y-15798214D01*
X11698214Y-16083929D02*
X11669643Y-16098214D01*
X11612500Y-16098214D01*
X11583928Y-16083929D01*
X11569643Y-16055357D01*
X11569643Y-15941071D01*
X11583928Y-15912500D01*
X11612500Y-15898214D01*
X11669643Y-15898214D01*
X11698214Y-15912500D01*
X11712500Y-15941071D01*
X11712500Y-15969643D01*
X11569643Y-15998214D01*
X11826786Y-16083929D02*
X11855357Y-16098214D01*
X11912500Y-16098214D01*
X11941071Y-16083929D01*
X11955357Y-16055357D01*
X11955357Y-16041071D01*
X11941071Y-16012500D01*
X11912500Y-15998214D01*
X11869643Y-15998214D01*
X11841071Y-15983929D01*
X11826786Y-15955357D01*
X11826786Y-15941071D01*
X11841071Y-15912500D01*
X11869643Y-15898214D01*
X11912500Y-15898214D01*
X11941071Y-15912500D01*
X12055357Y-16212500D02*
X12069643Y-16198214D01*
X12098214Y-16155357D01*
X12112500Y-16126786D01*
X12126786Y-16083929D01*
X12141071Y-16012500D01*
X12141071Y-15955357D01*
X12126786Y-15883929D01*
X12112500Y-15841071D01*
X12098214Y-15812500D01*
X12069643Y-15769643D01*
X12055357Y-15755357D01*
X12598214Y-16212500D02*
X12583928Y-16198214D01*
X12555357Y-16155357D01*
X12541071Y-16126786D01*
X12526786Y-16083929D01*
X12512500Y-16012500D01*
X12512500Y-15955357D01*
X12526786Y-15883929D01*
X12541071Y-15841071D01*
X12555357Y-15812500D01*
X12583928Y-15769643D01*
X12598214Y-15755357D01*
X12712500Y-15898214D02*
X12712500Y-16098214D01*
X12712500Y-15926786D02*
X12726786Y-15912500D01*
X12755357Y-15898214D01*
X12798214Y-15898214D01*
X12826786Y-15912500D01*
X12841071Y-15941071D01*
X12841071Y-16098214D01*
X13026786Y-16098214D02*
X12998214Y-16083929D01*
X12983928Y-16069643D01*
X12969643Y-16041071D01*
X12969643Y-15955357D01*
X12983928Y-15926786D01*
X12998214Y-15912500D01*
X13026786Y-15898214D01*
X13069643Y-15898214D01*
X13098214Y-15912500D01*
X13112500Y-15926786D01*
X13126786Y-15955357D01*
X13126786Y-16041071D01*
X13112500Y-16069643D01*
X13098214Y-16083929D01*
X13069643Y-16098214D01*
X13026786Y-16098214D01*
X13212500Y-15898214D02*
X13326786Y-15898214D01*
X13255357Y-15798214D02*
X13255357Y-16055357D01*
X13269643Y-16083929D01*
X13298214Y-16098214D01*
X13326786Y-16098214D01*
X13655357Y-15898214D02*
X13655357Y-16198214D01*
X13655357Y-15912500D02*
X13683928Y-15898214D01*
X13741071Y-15898214D01*
X13769643Y-15912500D01*
X13783928Y-15926786D01*
X13798214Y-15955357D01*
X13798214Y-16041071D01*
X13783928Y-16069643D01*
X13769643Y-16083929D01*
X13741071Y-16098214D01*
X13683928Y-16098214D01*
X13655357Y-16083929D01*
X13969643Y-16098214D02*
X13941071Y-16083929D01*
X13926786Y-16055357D01*
X13926786Y-15798214D01*
X14212500Y-16098214D02*
X14212500Y-15941071D01*
X14198214Y-15912500D01*
X14169643Y-15898214D01*
X14112500Y-15898214D01*
X14083928Y-15912500D01*
X14212500Y-16083929D02*
X14183928Y-16098214D01*
X14112500Y-16098214D01*
X14083928Y-16083929D01*
X14069643Y-16055357D01*
X14069643Y-16026786D01*
X14083928Y-15998214D01*
X14112500Y-15983929D01*
X14183928Y-15983929D01*
X14212500Y-15969643D01*
X14312500Y-15898214D02*
X14426786Y-15898214D01*
X14355357Y-15798214D02*
X14355357Y-16055357D01*
X14369643Y-16083929D01*
X14398214Y-16098214D01*
X14426786Y-16098214D01*
X14641071Y-16083929D02*
X14612500Y-16098214D01*
X14555357Y-16098214D01*
X14526786Y-16083929D01*
X14512500Y-16055357D01*
X14512500Y-15941071D01*
X14526786Y-15912500D01*
X14555357Y-15898214D01*
X14612500Y-15898214D01*
X14641071Y-15912500D01*
X14655357Y-15941071D01*
X14655357Y-15969643D01*
X14512500Y-15998214D01*
X14912500Y-16098214D02*
X14912500Y-15798214D01*
X14912500Y-16083929D02*
X14883928Y-16098214D01*
X14826786Y-16098214D01*
X14798214Y-16083929D01*
X14783928Y-16069643D01*
X14769643Y-16041071D01*
X14769643Y-15955357D01*
X14783928Y-15926786D01*
X14798214Y-15912500D01*
X14826786Y-15898214D01*
X14883928Y-15898214D01*
X14912500Y-15912500D01*
X15026786Y-16212500D02*
X15041071Y-16198214D01*
X15069643Y-16155357D01*
X15083928Y-16126786D01*
X15098214Y-16083929D01*
X15112500Y-16012500D01*
X15112500Y-15955357D01*
X15098214Y-15883929D01*
X15083928Y-15841071D01*
X15069643Y-15812500D01*
X15041071Y-15769643D01*
X15026786Y-15755357D01*
X4997500Y-16412500D02*
G75*
G03*
X4997500Y-16412500I-215000J0D01*
G01*
X5412500Y-16348214D02*
X5412500Y-16548214D01*
X5341071Y-16233929D02*
X5269643Y-16448214D01*
X5455357Y-16448214D01*
X5569643Y-16519643D02*
X5583928Y-16533929D01*
X5569643Y-16548214D01*
X5555357Y-16533929D01*
X5569643Y-16519643D01*
X5569643Y-16548214D01*
X5683928Y-16248214D02*
X5869643Y-16248214D01*
X5769643Y-16362500D01*
X5812500Y-16362500D01*
X5841071Y-16376786D01*
X5855357Y-16391071D01*
X5869643Y-16419643D01*
X5869643Y-16491071D01*
X5855357Y-16519643D01*
X5841071Y-16533929D01*
X5812500Y-16548214D01*
X5726786Y-16548214D01*
X5698214Y-16533929D01*
X5683928Y-16519643D01*
X6055357Y-16248214D02*
X6083928Y-16248214D01*
X6112500Y-16262500D01*
X6126786Y-16276786D01*
X6141071Y-16305357D01*
X6155357Y-16362500D01*
X6155357Y-16433929D01*
X6141071Y-16491071D01*
X6126786Y-16519643D01*
X6112500Y-16533929D01*
X6083928Y-16548214D01*
X6055357Y-16548214D01*
X6026786Y-16533929D01*
X6012500Y-16519643D01*
X5998214Y-16491071D01*
X5983928Y-16433929D01*
X5983928Y-16362500D01*
X5998214Y-16305357D01*
X6012500Y-16276786D01*
X6026786Y-16262500D01*
X6055357Y-16248214D01*
X6341071Y-16248214D02*
X6369643Y-16248214D01*
X6398214Y-16262500D01*
X6412500Y-16276786D01*
X6426786Y-16305357D01*
X6441071Y-16362500D01*
X6441071Y-16433929D01*
X6426786Y-16491071D01*
X6412500Y-16519643D01*
X6398214Y-16533929D01*
X6369643Y-16548214D01*
X6341071Y-16548214D01*
X6312500Y-16533929D01*
X6298214Y-16519643D01*
X6283928Y-16491071D01*
X6269643Y-16433929D01*
X6269643Y-16362500D01*
X6283928Y-16305357D01*
X6298214Y-16276786D01*
X6312500Y-16262500D01*
X6341071Y-16248214D01*
X6569643Y-16548214D02*
X6569643Y-16348214D01*
X6569643Y-16376786D02*
X6583928Y-16362500D01*
X6612500Y-16348214D01*
X6655357Y-16348214D01*
X6683928Y-16362500D01*
X6698214Y-16391071D01*
X6698214Y-16548214D01*
X6698214Y-16391071D02*
X6712500Y-16362500D01*
X6741071Y-16348214D01*
X6783928Y-16348214D01*
X6812500Y-16362500D01*
X6826786Y-16391071D01*
X6826786Y-16548214D01*
X6969643Y-16548214D02*
X6969643Y-16348214D01*
X6969643Y-16376786D02*
X6983928Y-16362500D01*
X7012500Y-16348214D01*
X7055357Y-16348214D01*
X7083928Y-16362500D01*
X7098214Y-16391071D01*
X7098214Y-16548214D01*
X7098214Y-16391071D02*
X7112500Y-16362500D01*
X7141071Y-16348214D01*
X7183928Y-16348214D01*
X7212500Y-16362500D01*
X7226786Y-16391071D01*
X7226786Y-16548214D01*
X7812500Y-16233929D02*
X7555357Y-16619643D01*
X8198214Y-16248214D02*
X8226786Y-16248214D01*
X8255357Y-16262500D01*
X8269643Y-16276786D01*
X8283928Y-16305357D01*
X8298214Y-16362500D01*
X8298214Y-16433929D01*
X8283928Y-16491071D01*
X8269643Y-16519643D01*
X8255357Y-16533929D01*
X8226786Y-16548214D01*
X8198214Y-16548214D01*
X8169643Y-16533929D01*
X8155357Y-16519643D01*
X8141071Y-16491071D01*
X8126786Y-16433929D01*
X8126786Y-16362500D01*
X8141071Y-16305357D01*
X8155357Y-16276786D01*
X8169643Y-16262500D01*
X8198214Y-16248214D01*
X8426786Y-16519643D02*
X8441071Y-16533929D01*
X8426786Y-16548214D01*
X8412500Y-16533929D01*
X8426786Y-16519643D01*
X8426786Y-16548214D01*
X8726786Y-16548214D02*
X8555357Y-16548214D01*
X8641071Y-16548214D02*
X8641071Y-16248214D01*
X8612500Y-16291071D01*
X8583928Y-16319643D01*
X8555357Y-16333929D01*
X8983928Y-16248214D02*
X8926786Y-16248214D01*
X8898214Y-16262500D01*
X8883928Y-16276786D01*
X8855357Y-16319643D01*
X8841071Y-16376786D01*
X8841071Y-16491071D01*
X8855357Y-16519643D01*
X8869643Y-16533929D01*
X8898214Y-16548214D01*
X8955357Y-16548214D01*
X8983928Y-16533929D01*
X8998214Y-16519643D01*
X9012500Y-16491071D01*
X9012500Y-16419643D01*
X8998214Y-16391071D01*
X8983928Y-16376786D01*
X8955357Y-16362500D01*
X8898214Y-16362500D01*
X8869643Y-16376786D01*
X8855357Y-16391071D01*
X8841071Y-16419643D01*
X9155357Y-16548214D02*
X9212500Y-16548214D01*
X9241071Y-16533929D01*
X9255357Y-16519643D01*
X9283928Y-16476786D01*
X9298214Y-16419643D01*
X9298214Y-16305357D01*
X9283928Y-16276786D01*
X9269643Y-16262500D01*
X9241071Y-16248214D01*
X9183928Y-16248214D01*
X9155357Y-16262500D01*
X9141071Y-16276786D01*
X9126786Y-16305357D01*
X9126786Y-16376786D01*
X9141071Y-16405357D01*
X9155357Y-16419643D01*
X9183928Y-16433929D01*
X9241071Y-16433929D01*
X9269643Y-16419643D01*
X9283928Y-16405357D01*
X9298214Y-16376786D01*
X9398214Y-16248214D02*
X9583928Y-16248214D01*
X9483928Y-16362500D01*
X9526786Y-16362500D01*
X9555357Y-16376786D01*
X9569643Y-16391071D01*
X9583928Y-16419643D01*
X9583928Y-16491071D01*
X9569643Y-16519643D01*
X9555357Y-16533929D01*
X9526786Y-16548214D01*
X9441071Y-16548214D01*
X9412500Y-16533929D01*
X9398214Y-16519643D01*
X9698214Y-16248214D02*
X9698214Y-16305357D01*
X9812500Y-16248214D02*
X9812500Y-16305357D01*
X10255357Y-16662500D02*
X10241071Y-16648214D01*
X10212500Y-16605357D01*
X10198214Y-16576786D01*
X10183928Y-16533929D01*
X10169643Y-16462500D01*
X10169643Y-16405357D01*
X10183928Y-16333929D01*
X10198214Y-16291071D01*
X10212500Y-16262500D01*
X10241071Y-16219643D01*
X10255357Y-16205357D01*
X10355357Y-16276786D02*
X10369643Y-16262500D01*
X10398214Y-16248214D01*
X10469643Y-16248214D01*
X10498214Y-16262500D01*
X10512500Y-16276786D01*
X10526786Y-16305357D01*
X10526786Y-16333929D01*
X10512500Y-16376786D01*
X10341071Y-16548214D01*
X10526786Y-16548214D01*
X10883928Y-16548214D02*
X10883928Y-16248214D01*
X11012500Y-16548214D02*
X11012500Y-16391071D01*
X10998214Y-16362500D01*
X10969643Y-16348214D01*
X10926786Y-16348214D01*
X10898214Y-16362500D01*
X10883928Y-16376786D01*
X11198214Y-16548214D02*
X11169643Y-16533929D01*
X11155357Y-16519643D01*
X11141071Y-16491071D01*
X11141071Y-16405357D01*
X11155357Y-16376786D01*
X11169643Y-16362500D01*
X11198214Y-16348214D01*
X11241071Y-16348214D01*
X11269643Y-16362500D01*
X11283928Y-16376786D01*
X11298214Y-16405357D01*
X11298214Y-16491071D01*
X11283928Y-16519643D01*
X11269643Y-16533929D01*
X11241071Y-16548214D01*
X11198214Y-16548214D01*
X11469643Y-16548214D02*
X11441071Y-16533929D01*
X11426786Y-16505357D01*
X11426786Y-16248214D01*
X11698214Y-16533929D02*
X11669643Y-16548214D01*
X11612500Y-16548214D01*
X11583928Y-16533929D01*
X11569643Y-16505357D01*
X11569643Y-16391071D01*
X11583928Y-16362500D01*
X11612500Y-16348214D01*
X11669643Y-16348214D01*
X11698214Y-16362500D01*
X11712500Y-16391071D01*
X11712500Y-16419643D01*
X11569643Y-16448214D01*
X11826786Y-16533929D02*
X11855357Y-16548214D01*
X11912500Y-16548214D01*
X11941071Y-16533929D01*
X11955357Y-16505357D01*
X11955357Y-16491071D01*
X11941071Y-16462500D01*
X11912500Y-16448214D01*
X11869643Y-16448214D01*
X11841071Y-16433929D01*
X11826786Y-16405357D01*
X11826786Y-16391071D01*
X11841071Y-16362500D01*
X11869643Y-16348214D01*
X11912500Y-16348214D01*
X11941071Y-16362500D01*
X12055357Y-16662500D02*
X12069643Y-16648214D01*
X12098214Y-16605357D01*
X12112500Y-16576786D01*
X12126786Y-16533929D01*
X12141071Y-16462500D01*
X12141071Y-16405357D01*
X12126786Y-16333929D01*
X12112500Y-16291071D01*
X12098214Y-16262500D01*
X12069643Y-16219643D01*
X12055357Y-16205357D01*
X12598214Y-16662500D02*
X12583928Y-16648214D01*
X12555357Y-16605357D01*
X12541071Y-16576786D01*
X12526786Y-16533929D01*
X12512500Y-16462500D01*
X12512500Y-16405357D01*
X12526786Y-16333929D01*
X12541071Y-16291071D01*
X12555357Y-16262500D01*
X12583928Y-16219643D01*
X12598214Y-16205357D01*
X12712500Y-16348214D02*
X12712500Y-16548214D01*
X12712500Y-16376786D02*
X12726786Y-16362500D01*
X12755357Y-16348214D01*
X12798214Y-16348214D01*
X12826786Y-16362500D01*
X12841071Y-16391071D01*
X12841071Y-16548214D01*
X13026786Y-16548214D02*
X12998214Y-16533929D01*
X12983928Y-16519643D01*
X12969643Y-16491071D01*
X12969643Y-16405357D01*
X12983928Y-16376786D01*
X12998214Y-16362500D01*
X13026786Y-16348214D01*
X13069643Y-16348214D01*
X13098214Y-16362500D01*
X13112500Y-16376786D01*
X13126786Y-16405357D01*
X13126786Y-16491071D01*
X13112500Y-16519643D01*
X13098214Y-16533929D01*
X13069643Y-16548214D01*
X13026786Y-16548214D01*
X13212500Y-16348214D02*
X13326786Y-16348214D01*
X13255357Y-16248214D02*
X13255357Y-16505357D01*
X13269643Y-16533929D01*
X13298214Y-16548214D01*
X13326786Y-16548214D01*
X13655357Y-16348214D02*
X13655357Y-16648214D01*
X13655357Y-16362500D02*
X13683928Y-16348214D01*
X13741071Y-16348214D01*
X13769643Y-16362500D01*
X13783928Y-16376786D01*
X13798214Y-16405357D01*
X13798214Y-16491071D01*
X13783928Y-16519643D01*
X13769643Y-16533929D01*
X13741071Y-16548214D01*
X13683928Y-16548214D01*
X13655357Y-16533929D01*
X13969643Y-16548214D02*
X13941071Y-16533929D01*
X13926786Y-16505357D01*
X13926786Y-16248214D01*
X14212500Y-16548214D02*
X14212500Y-16391071D01*
X14198214Y-16362500D01*
X14169643Y-16348214D01*
X14112500Y-16348214D01*
X14083928Y-16362500D01*
X14212500Y-16533929D02*
X14183928Y-16548214D01*
X14112500Y-16548214D01*
X14083928Y-16533929D01*
X14069643Y-16505357D01*
X14069643Y-16476786D01*
X14083928Y-16448214D01*
X14112500Y-16433929D01*
X14183928Y-16433929D01*
X14212500Y-16419643D01*
X14312500Y-16348214D02*
X14426786Y-16348214D01*
X14355357Y-16248214D02*
X14355357Y-16505357D01*
X14369643Y-16533929D01*
X14398214Y-16548214D01*
X14426786Y-16548214D01*
X14641071Y-16533929D02*
X14612500Y-16548214D01*
X14555357Y-16548214D01*
X14526786Y-16533929D01*
X14512500Y-16505357D01*
X14512500Y-16391071D01*
X14526786Y-16362500D01*
X14555357Y-16348214D01*
X14612500Y-16348214D01*
X14641071Y-16362500D01*
X14655357Y-16391071D01*
X14655357Y-16419643D01*
X14512500Y-16448214D01*
X14912500Y-16548214D02*
X14912500Y-16248214D01*
X14912500Y-16533929D02*
X14883928Y-16548214D01*
X14826786Y-16548214D01*
X14798214Y-16533929D01*
X14783928Y-16519643D01*
X14769643Y-16491071D01*
X14769643Y-16405357D01*
X14783928Y-16376786D01*
X14798214Y-16362500D01*
X14826786Y-16348214D01*
X14883928Y-16348214D01*
X14912500Y-16362500D01*
X15026786Y-16662500D02*
X15041071Y-16648214D01*
X15069643Y-16605357D01*
X15083928Y-16576786D01*
X15098214Y-16533929D01*
X15112500Y-16462500D01*
X15112500Y-16405357D01*
X15098214Y-16333929D01*
X15083928Y-16291071D01*
X15069643Y-16262500D01*
X15041071Y-16219643D01*
X15026786Y-16205357D01*
M02*
