G04 #@! TF.GenerationSoftware,KiCad,Pcbnew,(5.1.9)-1*
G04 #@! TF.CreationDate,2021-04-25T02:40:10+02:00*
G04 #@! TF.ProjectId,water-pump-control,77617465-722d-4707-956d-702d636f6e74,rev?*
G04 #@! TF.SameCoordinates,Original*
G04 #@! TF.FileFunction,Soldermask,Top*
G04 #@! TF.FilePolarity,Negative*
%FSLAX46Y46*%
G04 Gerber Fmt 4.6, Leading zero omitted, Abs format (unit mm)*
G04 Created by KiCad (PCBNEW (5.1.9)-1) date 2021-04-25 02:40:10*
%MOMM*%
%LPD*%
G01*
G04 APERTURE LIST*
%ADD10C,2.000000*%
%ADD11R,1.200000X0.900000*%
%ADD12O,1.700000X1.700000*%
%ADD13R,1.700000X1.700000*%
%ADD14O,3.600000X1.800000*%
%ADD15R,0.400000X0.650000*%
%ADD16C,1.400000*%
%ADD17C,3.000000*%
%ADD18R,1.400000X1.400000*%
%ADD19C,4.300000*%
%ADD20C,1.524000*%
%ADD21R,0.650000X1.060000*%
%ADD22R,0.400000X0.600000*%
%ADD23R,2.400000X1.500000*%
%ADD24R,0.380000X0.350000*%
%ADD25R,10.840000X7.620000*%
%ADD26R,0.990000X3.790000*%
%ADD27R,2.000000X0.900000*%
%ADD28R,0.900000X2.000000*%
%ADD29R,5.000000X5.000000*%
%ADD30O,1.500000X2.300000*%
%ADD31R,1.500000X2.300000*%
%ADD32R,3.100000X4.000000*%
%ADD33R,0.900000X1.200000*%
%ADD34R,0.900000X0.800000*%
%ADD35R,0.800000X0.900000*%
%ADD36R,0.650000X0.400000*%
%ADD37O,2.080000X3.600000*%
%ADD38C,3.650000*%
%ADD39R,1.500000X1.500000*%
%ADD40C,1.500000*%
%ADD41R,1.520000X1.520000*%
%ADD42C,3.250000*%
%ADD43C,1.520000*%
%ADD44R,0.450000X1.425000*%
%ADD45O,2.500000X4.000000*%
%ADD46R,1.500000X1.000000*%
%ADD47R,2.300000X3.500000*%
%ADD48R,1.700000X2.000000*%
%ADD49R,0.750000X1.200000*%
%ADD50R,1.200000X0.750000*%
%ADD51R,2.000000X2.000000*%
G04 APERTURE END LIST*
D10*
X59400000Y-72100000D03*
X54900000Y-72100000D03*
X59400000Y-65600000D03*
X54900000Y-65600000D03*
D11*
X89800000Y-59900000D03*
X92000000Y-59900000D03*
D12*
X92820000Y-53200000D03*
X90280000Y-53200000D03*
X87740000Y-53200000D03*
D13*
X85200000Y-53200000D03*
D14*
X194000000Y-81000000D03*
X194000000Y-84500000D03*
X194000000Y-88000000D03*
G36*
G01*
X195550000Y-92400000D02*
X192450000Y-92400000D01*
G75*
G02*
X192200000Y-92150000I0J250000D01*
G01*
X192200000Y-90850000D01*
G75*
G02*
X192450000Y-90600000I250000J0D01*
G01*
X195550000Y-90600000D01*
G75*
G02*
X195800000Y-90850000I0J-250000D01*
G01*
X195800000Y-92150000D01*
G75*
G02*
X195550000Y-92400000I-250000J0D01*
G01*
G37*
X194000000Y-116500000D03*
X194000000Y-120000000D03*
X194000000Y-123500000D03*
G36*
G01*
X195550000Y-127900000D02*
X192450000Y-127900000D01*
G75*
G02*
X192200000Y-127650000I0J250000D01*
G01*
X192200000Y-126350000D01*
G75*
G02*
X192450000Y-126100000I250000J0D01*
G01*
X195550000Y-126100000D01*
G75*
G02*
X195800000Y-126350000I0J-250000D01*
G01*
X195800000Y-127650000D01*
G75*
G02*
X195550000Y-127900000I-250000J0D01*
G01*
G37*
X194000000Y-98500000D03*
X194000000Y-102000000D03*
X194000000Y-105500000D03*
G36*
G01*
X195550000Y-109900000D02*
X192450000Y-109900000D01*
G75*
G02*
X192200000Y-109650000I0J250000D01*
G01*
X192200000Y-108350000D01*
G75*
G02*
X192450000Y-108100000I250000J0D01*
G01*
X195550000Y-108100000D01*
G75*
G02*
X195800000Y-108350000I0J-250000D01*
G01*
X195800000Y-109650000D01*
G75*
G02*
X195550000Y-109900000I-250000J0D01*
G01*
G37*
D15*
X113350000Y-105050000D03*
X114650000Y-105050000D03*
X114000000Y-106950000D03*
X114000000Y-105050000D03*
X114650000Y-106950000D03*
X113350000Y-106950000D03*
D14*
X165000000Y-104980000D03*
X165000000Y-101480000D03*
X165000000Y-97980000D03*
G36*
G01*
X163450000Y-93580000D02*
X166550000Y-93580000D01*
G75*
G02*
X166800000Y-93830000I0J-250000D01*
G01*
X166800000Y-95130000D01*
G75*
G02*
X166550000Y-95380000I-250000J0D01*
G01*
X163450000Y-95380000D01*
G75*
G02*
X163200000Y-95130000I0J250000D01*
G01*
X163200000Y-93830000D01*
G75*
G02*
X163450000Y-93580000I250000J0D01*
G01*
G37*
X165000000Y-123000000D03*
X165000000Y-119500000D03*
X165000000Y-116000000D03*
G36*
G01*
X163450000Y-111600000D02*
X166550000Y-111600000D01*
G75*
G02*
X166800000Y-111850000I0J-250000D01*
G01*
X166800000Y-113150000D01*
G75*
G02*
X166550000Y-113400000I-250000J0D01*
G01*
X163450000Y-113400000D01*
G75*
G02*
X163200000Y-113150000I0J250000D01*
G01*
X163200000Y-111850000D01*
G75*
G02*
X163450000Y-111600000I250000J0D01*
G01*
G37*
X165000000Y-87000000D03*
X165000000Y-83500000D03*
X165000000Y-80000000D03*
G36*
G01*
X163450000Y-75600000D02*
X166550000Y-75600000D01*
G75*
G02*
X166800000Y-75850000I0J-250000D01*
G01*
X166800000Y-77150000D01*
G75*
G02*
X166550000Y-77400000I-250000J0D01*
G01*
X163450000Y-77400000D01*
G75*
G02*
X163200000Y-77150000I0J250000D01*
G01*
X163200000Y-75850000D01*
G75*
G02*
X163450000Y-75600000I250000J0D01*
G01*
G37*
D11*
X88400000Y-93500000D03*
X90600000Y-93500000D03*
D16*
X155500000Y-46000000D03*
D17*
X150730000Y-48710000D03*
D18*
X158000000Y-46000000D03*
D16*
X155500000Y-49200000D03*
X158000000Y-49200000D03*
D17*
X162770000Y-48710000D03*
D19*
X200000000Y-72000000D03*
X70000000Y-137000000D03*
X200000000Y-137000000D03*
X70000000Y-72000000D03*
D20*
X103000000Y-110800000D03*
X83900000Y-124900000D03*
X83900000Y-122360000D03*
X83900000Y-113440000D03*
X83900000Y-110900000D03*
X109900000Y-124900000D03*
X109900000Y-122360000D03*
X109900000Y-113440000D03*
X109900000Y-110900000D03*
D21*
X66950000Y-94100000D03*
X65050000Y-94100000D03*
X65050000Y-91900000D03*
X66000000Y-91900000D03*
X66950000Y-91900000D03*
D22*
X53150000Y-81600000D03*
X54100000Y-81600000D03*
X55050000Y-81600000D03*
X55050000Y-84400000D03*
X54100000Y-84400000D03*
X53150000Y-84400000D03*
D23*
X54100000Y-83000000D03*
D24*
X55035000Y-103800000D03*
X55035000Y-103300000D03*
X55035000Y-102800000D03*
X55550000Y-102535000D03*
X56050000Y-102535000D03*
X56565000Y-102800000D03*
X56565000Y-103300000D03*
X56565000Y-103800000D03*
X56050000Y-104065000D03*
X55550000Y-104065000D03*
D25*
X126000000Y-91000000D03*
D26*
X128540000Y-101880000D03*
X126000000Y-101880000D03*
X123460000Y-101880000D03*
G36*
G01*
X169125000Y-61875000D02*
X169125000Y-61675000D01*
G75*
G02*
X169225000Y-61575000I100000J0D01*
G01*
X170500000Y-61575000D01*
G75*
G02*
X170600000Y-61675000I0J-100000D01*
G01*
X170600000Y-61875000D01*
G75*
G02*
X170500000Y-61975000I-100000J0D01*
G01*
X169225000Y-61975000D01*
G75*
G02*
X169125000Y-61875000I0J100000D01*
G01*
G37*
G36*
G01*
X169125000Y-62525000D02*
X169125000Y-62325000D01*
G75*
G02*
X169225000Y-62225000I100000J0D01*
G01*
X170500000Y-62225000D01*
G75*
G02*
X170600000Y-62325000I0J-100000D01*
G01*
X170600000Y-62525000D01*
G75*
G02*
X170500000Y-62625000I-100000J0D01*
G01*
X169225000Y-62625000D01*
G75*
G02*
X169125000Y-62525000I0J100000D01*
G01*
G37*
G36*
G01*
X169125000Y-63175000D02*
X169125000Y-62975000D01*
G75*
G02*
X169225000Y-62875000I100000J0D01*
G01*
X170500000Y-62875000D01*
G75*
G02*
X170600000Y-62975000I0J-100000D01*
G01*
X170600000Y-63175000D01*
G75*
G02*
X170500000Y-63275000I-100000J0D01*
G01*
X169225000Y-63275000D01*
G75*
G02*
X169125000Y-63175000I0J100000D01*
G01*
G37*
G36*
G01*
X169125000Y-63825000D02*
X169125000Y-63625000D01*
G75*
G02*
X169225000Y-63525000I100000J0D01*
G01*
X170500000Y-63525000D01*
G75*
G02*
X170600000Y-63625000I0J-100000D01*
G01*
X170600000Y-63825000D01*
G75*
G02*
X170500000Y-63925000I-100000J0D01*
G01*
X169225000Y-63925000D01*
G75*
G02*
X169125000Y-63825000I0J100000D01*
G01*
G37*
G36*
G01*
X169125000Y-64475000D02*
X169125000Y-64275000D01*
G75*
G02*
X169225000Y-64175000I100000J0D01*
G01*
X170500000Y-64175000D01*
G75*
G02*
X170600000Y-64275000I0J-100000D01*
G01*
X170600000Y-64475000D01*
G75*
G02*
X170500000Y-64575000I-100000J0D01*
G01*
X169225000Y-64575000D01*
G75*
G02*
X169125000Y-64475000I0J100000D01*
G01*
G37*
G36*
G01*
X169125000Y-65125000D02*
X169125000Y-64925000D01*
G75*
G02*
X169225000Y-64825000I100000J0D01*
G01*
X170500000Y-64825000D01*
G75*
G02*
X170600000Y-64925000I0J-100000D01*
G01*
X170600000Y-65125000D01*
G75*
G02*
X170500000Y-65225000I-100000J0D01*
G01*
X169225000Y-65225000D01*
G75*
G02*
X169125000Y-65125000I0J100000D01*
G01*
G37*
G36*
G01*
X169125000Y-65775000D02*
X169125000Y-65575000D01*
G75*
G02*
X169225000Y-65475000I100000J0D01*
G01*
X170500000Y-65475000D01*
G75*
G02*
X170600000Y-65575000I0J-100000D01*
G01*
X170600000Y-65775000D01*
G75*
G02*
X170500000Y-65875000I-100000J0D01*
G01*
X169225000Y-65875000D01*
G75*
G02*
X169125000Y-65775000I0J100000D01*
G01*
G37*
G36*
G01*
X169125000Y-66425000D02*
X169125000Y-66225000D01*
G75*
G02*
X169225000Y-66125000I100000J0D01*
G01*
X170500000Y-66125000D01*
G75*
G02*
X170600000Y-66225000I0J-100000D01*
G01*
X170600000Y-66425000D01*
G75*
G02*
X170500000Y-66525000I-100000J0D01*
G01*
X169225000Y-66525000D01*
G75*
G02*
X169125000Y-66425000I0J100000D01*
G01*
G37*
G36*
G01*
X169125000Y-67075000D02*
X169125000Y-66875000D01*
G75*
G02*
X169225000Y-66775000I100000J0D01*
G01*
X170500000Y-66775000D01*
G75*
G02*
X170600000Y-66875000I0J-100000D01*
G01*
X170600000Y-67075000D01*
G75*
G02*
X170500000Y-67175000I-100000J0D01*
G01*
X169225000Y-67175000D01*
G75*
G02*
X169125000Y-67075000I0J100000D01*
G01*
G37*
G36*
G01*
X169125000Y-67725000D02*
X169125000Y-67525000D01*
G75*
G02*
X169225000Y-67425000I100000J0D01*
G01*
X170500000Y-67425000D01*
G75*
G02*
X170600000Y-67525000I0J-100000D01*
G01*
X170600000Y-67725000D01*
G75*
G02*
X170500000Y-67825000I-100000J0D01*
G01*
X169225000Y-67825000D01*
G75*
G02*
X169125000Y-67725000I0J100000D01*
G01*
G37*
G36*
G01*
X169125000Y-68375000D02*
X169125000Y-68175000D01*
G75*
G02*
X169225000Y-68075000I100000J0D01*
G01*
X170500000Y-68075000D01*
G75*
G02*
X170600000Y-68175000I0J-100000D01*
G01*
X170600000Y-68375000D01*
G75*
G02*
X170500000Y-68475000I-100000J0D01*
G01*
X169225000Y-68475000D01*
G75*
G02*
X169125000Y-68375000I0J100000D01*
G01*
G37*
G36*
G01*
X169125000Y-69025000D02*
X169125000Y-68825000D01*
G75*
G02*
X169225000Y-68725000I100000J0D01*
G01*
X170500000Y-68725000D01*
G75*
G02*
X170600000Y-68825000I0J-100000D01*
G01*
X170600000Y-69025000D01*
G75*
G02*
X170500000Y-69125000I-100000J0D01*
G01*
X169225000Y-69125000D01*
G75*
G02*
X169125000Y-69025000I0J100000D01*
G01*
G37*
G36*
G01*
X169125000Y-69675000D02*
X169125000Y-69475000D01*
G75*
G02*
X169225000Y-69375000I100000J0D01*
G01*
X170500000Y-69375000D01*
G75*
G02*
X170600000Y-69475000I0J-100000D01*
G01*
X170600000Y-69675000D01*
G75*
G02*
X170500000Y-69775000I-100000J0D01*
G01*
X169225000Y-69775000D01*
G75*
G02*
X169125000Y-69675000I0J100000D01*
G01*
G37*
G36*
G01*
X169125000Y-70325000D02*
X169125000Y-70125000D01*
G75*
G02*
X169225000Y-70025000I100000J0D01*
G01*
X170500000Y-70025000D01*
G75*
G02*
X170600000Y-70125000I0J-100000D01*
G01*
X170600000Y-70325000D01*
G75*
G02*
X170500000Y-70425000I-100000J0D01*
G01*
X169225000Y-70425000D01*
G75*
G02*
X169125000Y-70325000I0J100000D01*
G01*
G37*
G36*
G01*
X163400000Y-70325000D02*
X163400000Y-70125000D01*
G75*
G02*
X163500000Y-70025000I100000J0D01*
G01*
X164775000Y-70025000D01*
G75*
G02*
X164875000Y-70125000I0J-100000D01*
G01*
X164875000Y-70325000D01*
G75*
G02*
X164775000Y-70425000I-100000J0D01*
G01*
X163500000Y-70425000D01*
G75*
G02*
X163400000Y-70325000I0J100000D01*
G01*
G37*
G36*
G01*
X163400000Y-69675000D02*
X163400000Y-69475000D01*
G75*
G02*
X163500000Y-69375000I100000J0D01*
G01*
X164775000Y-69375000D01*
G75*
G02*
X164875000Y-69475000I0J-100000D01*
G01*
X164875000Y-69675000D01*
G75*
G02*
X164775000Y-69775000I-100000J0D01*
G01*
X163500000Y-69775000D01*
G75*
G02*
X163400000Y-69675000I0J100000D01*
G01*
G37*
G36*
G01*
X163400000Y-69025000D02*
X163400000Y-68825000D01*
G75*
G02*
X163500000Y-68725000I100000J0D01*
G01*
X164775000Y-68725000D01*
G75*
G02*
X164875000Y-68825000I0J-100000D01*
G01*
X164875000Y-69025000D01*
G75*
G02*
X164775000Y-69125000I-100000J0D01*
G01*
X163500000Y-69125000D01*
G75*
G02*
X163400000Y-69025000I0J100000D01*
G01*
G37*
G36*
G01*
X163400000Y-68375000D02*
X163400000Y-68175000D01*
G75*
G02*
X163500000Y-68075000I100000J0D01*
G01*
X164775000Y-68075000D01*
G75*
G02*
X164875000Y-68175000I0J-100000D01*
G01*
X164875000Y-68375000D01*
G75*
G02*
X164775000Y-68475000I-100000J0D01*
G01*
X163500000Y-68475000D01*
G75*
G02*
X163400000Y-68375000I0J100000D01*
G01*
G37*
G36*
G01*
X163400000Y-67725000D02*
X163400000Y-67525000D01*
G75*
G02*
X163500000Y-67425000I100000J0D01*
G01*
X164775000Y-67425000D01*
G75*
G02*
X164875000Y-67525000I0J-100000D01*
G01*
X164875000Y-67725000D01*
G75*
G02*
X164775000Y-67825000I-100000J0D01*
G01*
X163500000Y-67825000D01*
G75*
G02*
X163400000Y-67725000I0J100000D01*
G01*
G37*
G36*
G01*
X163400000Y-67075000D02*
X163400000Y-66875000D01*
G75*
G02*
X163500000Y-66775000I100000J0D01*
G01*
X164775000Y-66775000D01*
G75*
G02*
X164875000Y-66875000I0J-100000D01*
G01*
X164875000Y-67075000D01*
G75*
G02*
X164775000Y-67175000I-100000J0D01*
G01*
X163500000Y-67175000D01*
G75*
G02*
X163400000Y-67075000I0J100000D01*
G01*
G37*
G36*
G01*
X163400000Y-66425000D02*
X163400000Y-66225000D01*
G75*
G02*
X163500000Y-66125000I100000J0D01*
G01*
X164775000Y-66125000D01*
G75*
G02*
X164875000Y-66225000I0J-100000D01*
G01*
X164875000Y-66425000D01*
G75*
G02*
X164775000Y-66525000I-100000J0D01*
G01*
X163500000Y-66525000D01*
G75*
G02*
X163400000Y-66425000I0J100000D01*
G01*
G37*
G36*
G01*
X163400000Y-65775000D02*
X163400000Y-65575000D01*
G75*
G02*
X163500000Y-65475000I100000J0D01*
G01*
X164775000Y-65475000D01*
G75*
G02*
X164875000Y-65575000I0J-100000D01*
G01*
X164875000Y-65775000D01*
G75*
G02*
X164775000Y-65875000I-100000J0D01*
G01*
X163500000Y-65875000D01*
G75*
G02*
X163400000Y-65775000I0J100000D01*
G01*
G37*
G36*
G01*
X163400000Y-65125000D02*
X163400000Y-64925000D01*
G75*
G02*
X163500000Y-64825000I100000J0D01*
G01*
X164775000Y-64825000D01*
G75*
G02*
X164875000Y-64925000I0J-100000D01*
G01*
X164875000Y-65125000D01*
G75*
G02*
X164775000Y-65225000I-100000J0D01*
G01*
X163500000Y-65225000D01*
G75*
G02*
X163400000Y-65125000I0J100000D01*
G01*
G37*
G36*
G01*
X163400000Y-64475000D02*
X163400000Y-64275000D01*
G75*
G02*
X163500000Y-64175000I100000J0D01*
G01*
X164775000Y-64175000D01*
G75*
G02*
X164875000Y-64275000I0J-100000D01*
G01*
X164875000Y-64475000D01*
G75*
G02*
X164775000Y-64575000I-100000J0D01*
G01*
X163500000Y-64575000D01*
G75*
G02*
X163400000Y-64475000I0J100000D01*
G01*
G37*
G36*
G01*
X163400000Y-63825000D02*
X163400000Y-63625000D01*
G75*
G02*
X163500000Y-63525000I100000J0D01*
G01*
X164775000Y-63525000D01*
G75*
G02*
X164875000Y-63625000I0J-100000D01*
G01*
X164875000Y-63825000D01*
G75*
G02*
X164775000Y-63925000I-100000J0D01*
G01*
X163500000Y-63925000D01*
G75*
G02*
X163400000Y-63825000I0J100000D01*
G01*
G37*
G36*
G01*
X163400000Y-63175000D02*
X163400000Y-62975000D01*
G75*
G02*
X163500000Y-62875000I100000J0D01*
G01*
X164775000Y-62875000D01*
G75*
G02*
X164875000Y-62975000I0J-100000D01*
G01*
X164875000Y-63175000D01*
G75*
G02*
X164775000Y-63275000I-100000J0D01*
G01*
X163500000Y-63275000D01*
G75*
G02*
X163400000Y-63175000I0J100000D01*
G01*
G37*
G36*
G01*
X163400000Y-62525000D02*
X163400000Y-62325000D01*
G75*
G02*
X163500000Y-62225000I100000J0D01*
G01*
X164775000Y-62225000D01*
G75*
G02*
X164875000Y-62325000I0J-100000D01*
G01*
X164875000Y-62525000D01*
G75*
G02*
X164775000Y-62625000I-100000J0D01*
G01*
X163500000Y-62625000D01*
G75*
G02*
X163400000Y-62525000I0J100000D01*
G01*
G37*
G36*
G01*
X163400000Y-61875000D02*
X163400000Y-61675000D01*
G75*
G02*
X163500000Y-61575000I100000J0D01*
G01*
X164775000Y-61575000D01*
G75*
G02*
X164875000Y-61675000I0J-100000D01*
G01*
X164875000Y-61875000D01*
G75*
G02*
X164775000Y-61975000I-100000J0D01*
G01*
X163500000Y-61975000D01*
G75*
G02*
X163400000Y-61875000I0J100000D01*
G01*
G37*
G36*
G01*
X91255000Y-89200000D02*
X91555000Y-89200000D01*
G75*
G02*
X91705000Y-89350000I0J-150000D01*
G01*
X91705000Y-91000000D01*
G75*
G02*
X91555000Y-91150000I-150000J0D01*
G01*
X91255000Y-91150000D01*
G75*
G02*
X91105000Y-91000000I0J150000D01*
G01*
X91105000Y-89350000D01*
G75*
G02*
X91255000Y-89200000I150000J0D01*
G01*
G37*
G36*
G01*
X89985000Y-89200000D02*
X90285000Y-89200000D01*
G75*
G02*
X90435000Y-89350000I0J-150000D01*
G01*
X90435000Y-91000000D01*
G75*
G02*
X90285000Y-91150000I-150000J0D01*
G01*
X89985000Y-91150000D01*
G75*
G02*
X89835000Y-91000000I0J150000D01*
G01*
X89835000Y-89350000D01*
G75*
G02*
X89985000Y-89200000I150000J0D01*
G01*
G37*
G36*
G01*
X88715000Y-89200000D02*
X89015000Y-89200000D01*
G75*
G02*
X89165000Y-89350000I0J-150000D01*
G01*
X89165000Y-91000000D01*
G75*
G02*
X89015000Y-91150000I-150000J0D01*
G01*
X88715000Y-91150000D01*
G75*
G02*
X88565000Y-91000000I0J150000D01*
G01*
X88565000Y-89350000D01*
G75*
G02*
X88715000Y-89200000I150000J0D01*
G01*
G37*
G36*
G01*
X87445000Y-89200000D02*
X87745000Y-89200000D01*
G75*
G02*
X87895000Y-89350000I0J-150000D01*
G01*
X87895000Y-91000000D01*
G75*
G02*
X87745000Y-91150000I-150000J0D01*
G01*
X87445000Y-91150000D01*
G75*
G02*
X87295000Y-91000000I0J150000D01*
G01*
X87295000Y-89350000D01*
G75*
G02*
X87445000Y-89200000I150000J0D01*
G01*
G37*
G36*
G01*
X87445000Y-84250000D02*
X87745000Y-84250000D01*
G75*
G02*
X87895000Y-84400000I0J-150000D01*
G01*
X87895000Y-86050000D01*
G75*
G02*
X87745000Y-86200000I-150000J0D01*
G01*
X87445000Y-86200000D01*
G75*
G02*
X87295000Y-86050000I0J150000D01*
G01*
X87295000Y-84400000D01*
G75*
G02*
X87445000Y-84250000I150000J0D01*
G01*
G37*
G36*
G01*
X88715000Y-84250000D02*
X89015000Y-84250000D01*
G75*
G02*
X89165000Y-84400000I0J-150000D01*
G01*
X89165000Y-86050000D01*
G75*
G02*
X89015000Y-86200000I-150000J0D01*
G01*
X88715000Y-86200000D01*
G75*
G02*
X88565000Y-86050000I0J150000D01*
G01*
X88565000Y-84400000D01*
G75*
G02*
X88715000Y-84250000I150000J0D01*
G01*
G37*
G36*
G01*
X89985000Y-84250000D02*
X90285000Y-84250000D01*
G75*
G02*
X90435000Y-84400000I0J-150000D01*
G01*
X90435000Y-86050000D01*
G75*
G02*
X90285000Y-86200000I-150000J0D01*
G01*
X89985000Y-86200000D01*
G75*
G02*
X89835000Y-86050000I0J150000D01*
G01*
X89835000Y-84400000D01*
G75*
G02*
X89985000Y-84250000I150000J0D01*
G01*
G37*
G36*
G01*
X91255000Y-84250000D02*
X91555000Y-84250000D01*
G75*
G02*
X91705000Y-84400000I0J-150000D01*
G01*
X91705000Y-86050000D01*
G75*
G02*
X91555000Y-86200000I-150000J0D01*
G01*
X91255000Y-86200000D01*
G75*
G02*
X91105000Y-86050000I0J150000D01*
G01*
X91105000Y-84400000D01*
G75*
G02*
X91255000Y-84250000I150000J0D01*
G01*
G37*
G36*
G01*
X217155000Y-121600000D02*
X217455000Y-121600000D01*
G75*
G02*
X217605000Y-121750000I0J-150000D01*
G01*
X217605000Y-123400000D01*
G75*
G02*
X217455000Y-123550000I-150000J0D01*
G01*
X217155000Y-123550000D01*
G75*
G02*
X217005000Y-123400000I0J150000D01*
G01*
X217005000Y-121750000D01*
G75*
G02*
X217155000Y-121600000I150000J0D01*
G01*
G37*
G36*
G01*
X215885000Y-121600000D02*
X216185000Y-121600000D01*
G75*
G02*
X216335000Y-121750000I0J-150000D01*
G01*
X216335000Y-123400000D01*
G75*
G02*
X216185000Y-123550000I-150000J0D01*
G01*
X215885000Y-123550000D01*
G75*
G02*
X215735000Y-123400000I0J150000D01*
G01*
X215735000Y-121750000D01*
G75*
G02*
X215885000Y-121600000I150000J0D01*
G01*
G37*
G36*
G01*
X214615000Y-121600000D02*
X214915000Y-121600000D01*
G75*
G02*
X215065000Y-121750000I0J-150000D01*
G01*
X215065000Y-123400000D01*
G75*
G02*
X214915000Y-123550000I-150000J0D01*
G01*
X214615000Y-123550000D01*
G75*
G02*
X214465000Y-123400000I0J150000D01*
G01*
X214465000Y-121750000D01*
G75*
G02*
X214615000Y-121600000I150000J0D01*
G01*
G37*
G36*
G01*
X213345000Y-121600000D02*
X213645000Y-121600000D01*
G75*
G02*
X213795000Y-121750000I0J-150000D01*
G01*
X213795000Y-123400000D01*
G75*
G02*
X213645000Y-123550000I-150000J0D01*
G01*
X213345000Y-123550000D01*
G75*
G02*
X213195000Y-123400000I0J150000D01*
G01*
X213195000Y-121750000D01*
G75*
G02*
X213345000Y-121600000I150000J0D01*
G01*
G37*
G36*
G01*
X213345000Y-116650000D02*
X213645000Y-116650000D01*
G75*
G02*
X213795000Y-116800000I0J-150000D01*
G01*
X213795000Y-118450000D01*
G75*
G02*
X213645000Y-118600000I-150000J0D01*
G01*
X213345000Y-118600000D01*
G75*
G02*
X213195000Y-118450000I0J150000D01*
G01*
X213195000Y-116800000D01*
G75*
G02*
X213345000Y-116650000I150000J0D01*
G01*
G37*
G36*
G01*
X214615000Y-116650000D02*
X214915000Y-116650000D01*
G75*
G02*
X215065000Y-116800000I0J-150000D01*
G01*
X215065000Y-118450000D01*
G75*
G02*
X214915000Y-118600000I-150000J0D01*
G01*
X214615000Y-118600000D01*
G75*
G02*
X214465000Y-118450000I0J150000D01*
G01*
X214465000Y-116800000D01*
G75*
G02*
X214615000Y-116650000I150000J0D01*
G01*
G37*
G36*
G01*
X215885000Y-116650000D02*
X216185000Y-116650000D01*
G75*
G02*
X216335000Y-116800000I0J-150000D01*
G01*
X216335000Y-118450000D01*
G75*
G02*
X216185000Y-118600000I-150000J0D01*
G01*
X215885000Y-118600000D01*
G75*
G02*
X215735000Y-118450000I0J150000D01*
G01*
X215735000Y-116800000D01*
G75*
G02*
X215885000Y-116650000I150000J0D01*
G01*
G37*
G36*
G01*
X217155000Y-116650000D02*
X217455000Y-116650000D01*
G75*
G02*
X217605000Y-116800000I0J-150000D01*
G01*
X217605000Y-118450000D01*
G75*
G02*
X217455000Y-118600000I-150000J0D01*
G01*
X217155000Y-118600000D01*
G75*
G02*
X217005000Y-118450000I0J150000D01*
G01*
X217005000Y-116800000D01*
G75*
G02*
X217155000Y-116650000I150000J0D01*
G01*
G37*
G36*
G01*
X139500000Y-51295000D02*
X139500000Y-51595000D01*
G75*
G02*
X139350000Y-51745000I-150000J0D01*
G01*
X137700000Y-51745000D01*
G75*
G02*
X137550000Y-51595000I0J150000D01*
G01*
X137550000Y-51295000D01*
G75*
G02*
X137700000Y-51145000I150000J0D01*
G01*
X139350000Y-51145000D01*
G75*
G02*
X139500000Y-51295000I0J-150000D01*
G01*
G37*
G36*
G01*
X139500000Y-50025000D02*
X139500000Y-50325000D01*
G75*
G02*
X139350000Y-50475000I-150000J0D01*
G01*
X137700000Y-50475000D01*
G75*
G02*
X137550000Y-50325000I0J150000D01*
G01*
X137550000Y-50025000D01*
G75*
G02*
X137700000Y-49875000I150000J0D01*
G01*
X139350000Y-49875000D01*
G75*
G02*
X139500000Y-50025000I0J-150000D01*
G01*
G37*
G36*
G01*
X139500000Y-48755000D02*
X139500000Y-49055000D01*
G75*
G02*
X139350000Y-49205000I-150000J0D01*
G01*
X137700000Y-49205000D01*
G75*
G02*
X137550000Y-49055000I0J150000D01*
G01*
X137550000Y-48755000D01*
G75*
G02*
X137700000Y-48605000I150000J0D01*
G01*
X139350000Y-48605000D01*
G75*
G02*
X139500000Y-48755000I0J-150000D01*
G01*
G37*
G36*
G01*
X139500000Y-47485000D02*
X139500000Y-47785000D01*
G75*
G02*
X139350000Y-47935000I-150000J0D01*
G01*
X137700000Y-47935000D01*
G75*
G02*
X137550000Y-47785000I0J150000D01*
G01*
X137550000Y-47485000D01*
G75*
G02*
X137700000Y-47335000I150000J0D01*
G01*
X139350000Y-47335000D01*
G75*
G02*
X139500000Y-47485000I0J-150000D01*
G01*
G37*
G36*
G01*
X139500000Y-46215000D02*
X139500000Y-46515000D01*
G75*
G02*
X139350000Y-46665000I-150000J0D01*
G01*
X137700000Y-46665000D01*
G75*
G02*
X137550000Y-46515000I0J150000D01*
G01*
X137550000Y-46215000D01*
G75*
G02*
X137700000Y-46065000I150000J0D01*
G01*
X139350000Y-46065000D01*
G75*
G02*
X139500000Y-46215000I0J-150000D01*
G01*
G37*
G36*
G01*
X139500000Y-44945000D02*
X139500000Y-45245000D01*
G75*
G02*
X139350000Y-45395000I-150000J0D01*
G01*
X137700000Y-45395000D01*
G75*
G02*
X137550000Y-45245000I0J150000D01*
G01*
X137550000Y-44945000D01*
G75*
G02*
X137700000Y-44795000I150000J0D01*
G01*
X139350000Y-44795000D01*
G75*
G02*
X139500000Y-44945000I0J-150000D01*
G01*
G37*
G36*
G01*
X139500000Y-43675000D02*
X139500000Y-43975000D01*
G75*
G02*
X139350000Y-44125000I-150000J0D01*
G01*
X137700000Y-44125000D01*
G75*
G02*
X137550000Y-43975000I0J150000D01*
G01*
X137550000Y-43675000D01*
G75*
G02*
X137700000Y-43525000I150000J0D01*
G01*
X139350000Y-43525000D01*
G75*
G02*
X139500000Y-43675000I0J-150000D01*
G01*
G37*
G36*
G01*
X139500000Y-42405000D02*
X139500000Y-42705000D01*
G75*
G02*
X139350000Y-42855000I-150000J0D01*
G01*
X137700000Y-42855000D01*
G75*
G02*
X137550000Y-42705000I0J150000D01*
G01*
X137550000Y-42405000D01*
G75*
G02*
X137700000Y-42255000I150000J0D01*
G01*
X139350000Y-42255000D01*
G75*
G02*
X139500000Y-42405000I0J-150000D01*
G01*
G37*
G36*
G01*
X144450000Y-42405000D02*
X144450000Y-42705000D01*
G75*
G02*
X144300000Y-42855000I-150000J0D01*
G01*
X142650000Y-42855000D01*
G75*
G02*
X142500000Y-42705000I0J150000D01*
G01*
X142500000Y-42405000D01*
G75*
G02*
X142650000Y-42255000I150000J0D01*
G01*
X144300000Y-42255000D01*
G75*
G02*
X144450000Y-42405000I0J-150000D01*
G01*
G37*
G36*
G01*
X144450000Y-43675000D02*
X144450000Y-43975000D01*
G75*
G02*
X144300000Y-44125000I-150000J0D01*
G01*
X142650000Y-44125000D01*
G75*
G02*
X142500000Y-43975000I0J150000D01*
G01*
X142500000Y-43675000D01*
G75*
G02*
X142650000Y-43525000I150000J0D01*
G01*
X144300000Y-43525000D01*
G75*
G02*
X144450000Y-43675000I0J-150000D01*
G01*
G37*
G36*
G01*
X144450000Y-44945000D02*
X144450000Y-45245000D01*
G75*
G02*
X144300000Y-45395000I-150000J0D01*
G01*
X142650000Y-45395000D01*
G75*
G02*
X142500000Y-45245000I0J150000D01*
G01*
X142500000Y-44945000D01*
G75*
G02*
X142650000Y-44795000I150000J0D01*
G01*
X144300000Y-44795000D01*
G75*
G02*
X144450000Y-44945000I0J-150000D01*
G01*
G37*
G36*
G01*
X144450000Y-46215000D02*
X144450000Y-46515000D01*
G75*
G02*
X144300000Y-46665000I-150000J0D01*
G01*
X142650000Y-46665000D01*
G75*
G02*
X142500000Y-46515000I0J150000D01*
G01*
X142500000Y-46215000D01*
G75*
G02*
X142650000Y-46065000I150000J0D01*
G01*
X144300000Y-46065000D01*
G75*
G02*
X144450000Y-46215000I0J-150000D01*
G01*
G37*
G36*
G01*
X144450000Y-47485000D02*
X144450000Y-47785000D01*
G75*
G02*
X144300000Y-47935000I-150000J0D01*
G01*
X142650000Y-47935000D01*
G75*
G02*
X142500000Y-47785000I0J150000D01*
G01*
X142500000Y-47485000D01*
G75*
G02*
X142650000Y-47335000I150000J0D01*
G01*
X144300000Y-47335000D01*
G75*
G02*
X144450000Y-47485000I0J-150000D01*
G01*
G37*
G36*
G01*
X144450000Y-48755000D02*
X144450000Y-49055000D01*
G75*
G02*
X144300000Y-49205000I-150000J0D01*
G01*
X142650000Y-49205000D01*
G75*
G02*
X142500000Y-49055000I0J150000D01*
G01*
X142500000Y-48755000D01*
G75*
G02*
X142650000Y-48605000I150000J0D01*
G01*
X144300000Y-48605000D01*
G75*
G02*
X144450000Y-48755000I0J-150000D01*
G01*
G37*
G36*
G01*
X144450000Y-50025000D02*
X144450000Y-50325000D01*
G75*
G02*
X144300000Y-50475000I-150000J0D01*
G01*
X142650000Y-50475000D01*
G75*
G02*
X142500000Y-50325000I0J150000D01*
G01*
X142500000Y-50025000D01*
G75*
G02*
X142650000Y-49875000I150000J0D01*
G01*
X144300000Y-49875000D01*
G75*
G02*
X144450000Y-50025000I0J-150000D01*
G01*
G37*
G36*
G01*
X144450000Y-51295000D02*
X144450000Y-51595000D01*
G75*
G02*
X144300000Y-51745000I-150000J0D01*
G01*
X142650000Y-51745000D01*
G75*
G02*
X142500000Y-51595000I0J150000D01*
G01*
X142500000Y-51295000D01*
G75*
G02*
X142650000Y-51145000I150000J0D01*
G01*
X144300000Y-51145000D01*
G75*
G02*
X144450000Y-51295000I0J-150000D01*
G01*
G37*
D27*
X121500000Y-48745000D03*
X121500000Y-50015000D03*
X121500000Y-51285000D03*
X121500000Y-52555000D03*
X121500000Y-53825000D03*
X121500000Y-55095000D03*
X121500000Y-56365000D03*
X121500000Y-57635000D03*
X121500000Y-58905000D03*
X121500000Y-60175000D03*
X121500000Y-61445000D03*
X121500000Y-62715000D03*
X121500000Y-63985000D03*
X121500000Y-65255000D03*
D28*
X118715000Y-66255000D03*
X117445000Y-66255000D03*
X116175000Y-66255000D03*
X114905000Y-66255000D03*
X113635000Y-66255000D03*
X112365000Y-66255000D03*
X111095000Y-66255000D03*
X109825000Y-66255000D03*
X108555000Y-66255000D03*
X107285000Y-66255000D03*
D27*
X104500000Y-65255000D03*
X104500000Y-63985000D03*
X104500000Y-62715000D03*
X104500000Y-61445000D03*
X104500000Y-60175000D03*
X104500000Y-58905000D03*
X104500000Y-57635000D03*
X104500000Y-56365000D03*
X104500000Y-55095000D03*
X104500000Y-53825000D03*
X104500000Y-52555000D03*
X104500000Y-51285000D03*
X104500000Y-50015000D03*
X104500000Y-48745000D03*
D29*
X112000000Y-56245000D03*
D30*
X97920000Y-101000000D03*
X100460000Y-101000000D03*
D31*
X103000000Y-101000000D03*
D11*
X102100000Y-92000000D03*
X99900000Y-92000000D03*
D32*
X116200000Y-101000000D03*
X111800000Y-101000000D03*
D11*
X111100000Y-107000000D03*
X108900000Y-107000000D03*
D33*
X67000000Y-85900000D03*
X67000000Y-88100000D03*
D11*
X107100000Y-92000000D03*
X104900000Y-92000000D03*
D33*
X207000000Y-81900000D03*
X207000000Y-84100000D03*
X209000000Y-81900000D03*
X209000000Y-84100000D03*
X207000000Y-86900000D03*
X207000000Y-89100000D03*
X209000000Y-86900000D03*
X209000000Y-89100000D03*
X207000000Y-92000000D03*
X207000000Y-94200000D03*
X209000000Y-91900000D03*
X209000000Y-94100000D03*
D11*
X77100000Y-90000000D03*
X74900000Y-90000000D03*
X77100000Y-87000000D03*
X74900000Y-87000000D03*
D33*
X207000000Y-115900000D03*
X207000000Y-118100000D03*
X209000000Y-115900000D03*
X209000000Y-118100000D03*
X207000000Y-120900000D03*
X207000000Y-123100000D03*
X209000000Y-120900000D03*
X209000000Y-123100000D03*
X207000000Y-125900000D03*
X207000000Y-128100000D03*
X209000000Y-125900000D03*
X209000000Y-128100000D03*
X75000000Y-109100000D03*
X75000000Y-106900000D03*
X74000000Y-130100000D03*
X74000000Y-127900000D03*
X69000000Y-109100000D03*
X69000000Y-106900000D03*
X207000000Y-98900000D03*
X207000000Y-101100000D03*
X209000000Y-98900000D03*
X209000000Y-101100000D03*
X207000000Y-103900000D03*
X207000000Y-106100000D03*
X209000000Y-103800000D03*
X209000000Y-106000000D03*
X207000000Y-108900000D03*
X207000000Y-111100000D03*
X209000000Y-108900000D03*
X209000000Y-111100000D03*
X67000000Y-130100000D03*
X67000000Y-127900000D03*
D11*
X213400000Y-125400000D03*
X215600000Y-125400000D03*
X142900000Y-81000000D03*
X145100000Y-81000000D03*
X142900000Y-79000000D03*
X145100000Y-79000000D03*
X142900000Y-101000000D03*
X145100000Y-101000000D03*
X142900000Y-99000000D03*
X145100000Y-99000000D03*
X142900000Y-121000000D03*
X145100000Y-121000000D03*
X142900000Y-119000000D03*
X145100000Y-119000000D03*
X94900000Y-59000000D03*
X97100000Y-59000000D03*
X97100000Y-57000000D03*
X94900000Y-57000000D03*
X54900000Y-129000000D03*
X57100000Y-129000000D03*
D33*
X129200000Y-60800000D03*
X129200000Y-63000000D03*
X133200000Y-60800000D03*
X133200000Y-63000000D03*
X137000000Y-54900000D03*
X137000000Y-57100000D03*
X127200000Y-51600000D03*
X127200000Y-53800000D03*
D11*
X96800000Y-52400000D03*
X99000000Y-52400000D03*
X142900000Y-70000000D03*
X145100000Y-70000000D03*
X142900000Y-68000000D03*
X145100000Y-68000000D03*
X142900000Y-91000000D03*
X145100000Y-91000000D03*
X142900000Y-89000000D03*
X145100000Y-89000000D03*
X142900000Y-111000000D03*
X145100000Y-111000000D03*
X142900000Y-109000000D03*
X145100000Y-109000000D03*
D34*
X203000000Y-83000000D03*
X205000000Y-82050000D03*
X205000000Y-83950000D03*
X203000000Y-88000000D03*
X205000000Y-87050000D03*
X205000000Y-88950000D03*
X203000000Y-93000000D03*
X205000000Y-92050000D03*
X205000000Y-93950000D03*
X203000000Y-117000000D03*
X205000000Y-116050000D03*
X205000000Y-117950000D03*
X203000000Y-122000000D03*
X205000000Y-121050000D03*
X205000000Y-122950000D03*
X203000000Y-127000000D03*
X205000000Y-126050000D03*
X205000000Y-127950000D03*
X73000000Y-108000000D03*
X71000000Y-108950000D03*
X71000000Y-107050000D03*
X203000000Y-100000000D03*
X205000000Y-99050000D03*
X205000000Y-100950000D03*
X203000000Y-105000000D03*
X205000000Y-104050000D03*
X205000000Y-105950000D03*
X203000000Y-110000000D03*
X205000000Y-109050000D03*
X205000000Y-110950000D03*
X71000000Y-129000000D03*
X69000000Y-129950000D03*
X69000000Y-128050000D03*
D35*
X144000000Y-85000000D03*
X143050000Y-83000000D03*
X144950000Y-83000000D03*
X144000000Y-105000000D03*
X143050000Y-103000000D03*
X144950000Y-103000000D03*
X144000000Y-125000000D03*
X143050000Y-123000000D03*
X144950000Y-123000000D03*
D36*
X132050000Y-48650000D03*
X132050000Y-47350000D03*
X133950000Y-48000000D03*
X132050000Y-48000000D03*
X133950000Y-47350000D03*
X133950000Y-48650000D03*
D35*
X144000000Y-74000000D03*
X143050000Y-72000000D03*
X144950000Y-72000000D03*
X144000000Y-95000000D03*
X143050000Y-93000000D03*
X144950000Y-93000000D03*
X144000000Y-115000000D03*
X143050000Y-113000000D03*
X144950000Y-113000000D03*
D37*
X120920000Y-143000000D03*
G36*
G01*
X127040000Y-141449999D02*
X127040000Y-144550001D01*
G75*
G02*
X126790001Y-144800000I-249999J0D01*
G01*
X125209999Y-144800000D01*
G75*
G02*
X124960000Y-144550001I0J249999D01*
G01*
X124960000Y-141449999D01*
G75*
G02*
X125209999Y-141200000I249999J0D01*
G01*
X126790001Y-141200000D01*
G75*
G02*
X127040000Y-141449999I0J-249999D01*
G01*
G37*
X110160000Y-144000000D03*
X105080000Y-144000000D03*
G36*
G01*
X98960000Y-145550001D02*
X98960000Y-142449999D01*
G75*
G02*
X99209999Y-142200000I249999J0D01*
G01*
X100790001Y-142200000D01*
G75*
G02*
X101040000Y-142449999I0J-249999D01*
G01*
X101040000Y-145550001D01*
G75*
G02*
X100790001Y-145800000I-249999J0D01*
G01*
X99209999Y-145800000D01*
G75*
G02*
X98960000Y-145550001I0J249999D01*
G01*
G37*
X89160000Y-144000000D03*
X84080000Y-144000000D03*
G36*
G01*
X77960000Y-145550001D02*
X77960000Y-142449999D01*
G75*
G02*
X78209999Y-142200000I249999J0D01*
G01*
X79790001Y-142200000D01*
G75*
G02*
X80040000Y-142449999I0J-249999D01*
G01*
X80040000Y-145550001D01*
G75*
G02*
X79790001Y-145800000I-249999J0D01*
G01*
X78209999Y-145800000D01*
G75*
G02*
X77960000Y-145550001I0J249999D01*
G01*
G37*
D38*
X163160000Y-141350000D03*
X151730000Y-141350000D03*
D39*
X153000000Y-135000000D03*
D40*
X154270000Y-132460000D03*
X155540000Y-135000000D03*
X156810000Y-132460000D03*
X158080000Y-135000000D03*
X159350000Y-132460000D03*
X160620000Y-135000000D03*
X161890000Y-132460000D03*
D41*
X137000000Y-131000000D03*
D42*
X135090000Y-139890000D03*
D43*
X138270000Y-133540000D03*
X139540000Y-131000000D03*
X140810000Y-133540000D03*
X142080000Y-131000000D03*
X143350000Y-133540000D03*
D42*
X145250000Y-139890000D03*
D20*
X215160000Y-141380000D03*
X215160000Y-136300000D03*
X212620000Y-136300000D03*
X212620000Y-141380000D03*
X210080000Y-136300000D03*
X210080000Y-141380000D03*
X207540000Y-136300000D03*
X207540000Y-141380000D03*
X58620000Y-136300000D03*
X58620000Y-141380000D03*
X56080000Y-136300000D03*
X56080000Y-141380000D03*
X53540000Y-136300000D03*
X53540000Y-141380000D03*
X193160000Y-51380000D03*
X193160000Y-46300000D03*
X190620000Y-46300000D03*
X190620000Y-51380000D03*
X188080000Y-46300000D03*
X188080000Y-51380000D03*
X185540000Y-46300000D03*
X185540000Y-51380000D03*
X176160000Y-51380000D03*
X176160000Y-46300000D03*
X173620000Y-46300000D03*
X173620000Y-51380000D03*
X171080000Y-46300000D03*
X171080000Y-51380000D03*
X168540000Y-46300000D03*
X168540000Y-51380000D03*
D44*
X70125000Y-84863000D03*
X70775000Y-84863000D03*
X71425000Y-84863000D03*
X72075000Y-84863000D03*
X72075000Y-89287000D03*
X71425000Y-89287000D03*
X70775000Y-89287000D03*
X70125000Y-89287000D03*
D45*
X121000000Y-107000000D03*
X121000000Y-129000000D03*
D46*
X74450000Y-115600000D03*
X74450000Y-112400000D03*
X69550000Y-115600000D03*
X69550000Y-112400000D03*
D47*
X78000000Y-116700000D03*
X78000000Y-111300000D03*
D46*
X74450000Y-125600000D03*
X74450000Y-122400000D03*
X69550000Y-125600000D03*
X69550000Y-122400000D03*
D47*
X78000000Y-126700000D03*
X78000000Y-121300000D03*
X131000000Y-113700000D03*
X131000000Y-108300000D03*
X149000000Y-79000000D03*
X149000000Y-84400000D03*
X149000000Y-99300000D03*
X149000000Y-104700000D03*
X149000000Y-119300000D03*
X149000000Y-124700000D03*
D35*
X122000000Y-71000000D03*
X121050000Y-69000000D03*
X122950000Y-69000000D03*
D47*
X139000000Y-84700000D03*
X139000000Y-79300000D03*
X139000000Y-104700000D03*
X139000000Y-99300000D03*
X139000000Y-124700000D03*
X139000000Y-119300000D03*
D48*
X129200000Y-65900000D03*
X129200000Y-69900000D03*
X133200000Y-65900000D03*
X133200000Y-69900000D03*
D11*
X140000000Y-58650000D03*
X140000000Y-55350000D03*
X143000000Y-55350000D03*
X143000000Y-58650000D03*
D47*
X149000000Y-68300000D03*
X149000000Y-73700000D03*
X149000000Y-89300000D03*
X149000000Y-94700000D03*
X149000000Y-109300000D03*
X149000000Y-114700000D03*
X139000000Y-73700000D03*
X139000000Y-68300000D03*
X139000000Y-94700000D03*
X139000000Y-89300000D03*
X139000000Y-114700000D03*
X139000000Y-109300000D03*
D49*
X114000000Y-109050000D03*
X114000000Y-110950000D03*
D50*
X109050000Y-105000000D03*
X110950000Y-105000000D03*
X66950000Y-96000000D03*
X65050000Y-96000000D03*
D49*
X65000000Y-87950000D03*
X65000000Y-86050000D03*
X58100000Y-83950000D03*
X58100000Y-82050000D03*
D50*
X66900000Y-90000000D03*
X65000000Y-90000000D03*
D49*
X52100000Y-104150000D03*
X52100000Y-102250000D03*
D51*
X129000000Y-80000000D03*
D10*
X124000000Y-80000000D03*
D51*
X129672144Y-82000000D03*
D10*
X123327856Y-78000000D03*
D49*
X131000000Y-102050000D03*
X131000000Y-103950000D03*
X163900000Y-57550000D03*
X163900000Y-59450000D03*
D51*
X114000000Y-95000000D03*
D10*
X114000000Y-90000000D03*
D51*
X112000000Y-95672144D03*
D10*
X116000000Y-89327856D03*
D50*
X119850000Y-102000000D03*
X121750000Y-102000000D03*
X90450000Y-82700000D03*
X88550000Y-82700000D03*
D49*
X217300000Y-126950000D03*
X217300000Y-125050000D03*
X98000000Y-105050000D03*
X98000000Y-106950000D03*
X96000000Y-105050000D03*
X96000000Y-106950000D03*
X146000000Y-48050000D03*
X146000000Y-49950000D03*
D50*
X136950000Y-53000000D03*
X135050000Y-53000000D03*
D49*
X146000000Y-53950000D03*
X146000000Y-52050000D03*
X100000000Y-105050000D03*
X100000000Y-106950000D03*
D50*
X98850000Y-54100000D03*
X96950000Y-54100000D03*
D49*
X102000000Y-105050000D03*
X102000000Y-106950000D03*
D50*
X98850000Y-50800000D03*
X96950000Y-50800000D03*
X98900000Y-49200000D03*
X97000000Y-49200000D03*
M02*
