M48
; DRILL file {KiCad (5.1.9)-1} date 04/25/21 02:37:30
; FORMAT={-:-/ absolute / metric / decimal}
; #@! TF.CreationDate,2021-04-25T02:37:30+02:00
; #@! TF.GenerationSoftware,Kicad,Pcbnew,(5.1.9)-1
; #@! TF.FileFunction,Plated,1,2,PTH
FMAT,2
METRIC
T1C0.400
T2C0.760
T3C0.762
T4C0.900
T5C0.920
T6C1.000
T7C1.100
T8C1.200
T9C1.400
T10C1.500
T11C2.300
%
G90
G05
T1
X52.1Y-130.4
X53.7Y-101.1
X53.7Y-104.5
X54.7Y-105.9
X55.9Y-101.1
X55.9Y-132.1
X57.1Y-113.3
X58.4Y-103.3
X59.2Y-83.9
X59.7Y-101.2
X60.2Y-130.5
X60.4Y-104.5
X61.5Y-139.2
X62.3Y-80.1
X62.3Y-101.3
X62.6Y-114.5
X62.7Y-90.6
X62.8Y-110.9
X63.0Y-96.1
X63.3Y-87.8
X64.2Y-108.4
X64.75Y-99.35
X64.8Y-83.0
X65.1Y-117.8
X65.1Y-125.2
X65.3Y-80.0
X65.4Y-112.7
X65.7Y-129.8
X65.8Y-88.1
X66.2Y-64.5
X67.6Y-67.0
X68.1Y-104.4
X68.3Y-125.5
X68.4Y-84.2
X68.7Y-90.2
X68.8Y-87.4
X68.9Y-101.3
X69.5Y-95.1
X69.8Y-96.9
X69.8Y-120.4
X69.9Y-106.9
X70.7Y-118.6
X71.2Y-80.1
X71.2Y-103.3
X71.8Y-119.9
X73.7Y-84.6
X75.45Y-110.65
X75.6Y-81.9
X75.9Y-133.1
X77.4Y-72.7
X77.5Y-68.5
X77.8Y-76.1
X78.0Y-121.3
X78.1Y-111.3
X78.4Y-84.0
X78.4Y-97.3
X78.6Y-93.6
X78.8Y-103.0
X79.0Y-107.4
X79.5Y-114.0
X79.9Y-104.5
X79.9Y-119.0
X80.4Y-74.0
X80.4Y-77.1
X81.5Y-80.2
X81.7Y-137.2
X81.8Y-82.1
X82.3Y-75.6
X82.3Y-96.1
X82.5Y-99.0
X83.2Y-93.2
X84.3Y-87.5
X85.3Y-73.8
X86.3Y-116.3
X86.3Y-120.0
X86.4Y-50.0
X87.4Y-73.7
X89.3Y-64.1
X89.8Y-59.9
X89.8Y-127.4
X90.2Y-137.7
X91.9Y-70.8
X92.1Y-48.0
X93.6Y-92.3
X93.9Y-48.1
X94.3Y-143.4
X94.4Y-106.0
X94.6Y-84.7
X94.7Y-133.0
X95.0Y-52.1
X95.2Y-93.4
X95.3Y-101.7
X95.4Y-87.9
X96.1Y-97.8
X96.4Y-62.8
X96.7Y-95.1
X96.9Y-89.4
X97.1Y-57.0
X97.1Y-59.0
X97.6Y-109.4
X97.6Y-136.9
X97.8Y-115.0
X98.1Y-65.0
X98.3Y-74.0
X98.3Y-90.8
X98.4Y-80.6
X99.678Y-55.422
X99.8Y-66.3
X99.9Y-109.5
X100.1Y-123.4
X100.46Y-95.46
X101.0Y-72.4
X101.5Y-54.9
X101.5Y-87.2
X101.7Y-50.0
X102.0Y-137.5
X102.1Y-48.0
X104.0Y-84.6
X104.4Y-96.6
X104.5Y-71.6
X104.8Y-68.1
X104.8Y-89.7
X104.8Y-127.8
X106.8Y-54.5
X107.0Y-52.6
X107.5Y-137.5
X108.9Y-104.4
X110.2Y-117.0
X110.7Y-50.4
X110.8Y-81.8
X111.0Y-75.6
X111.6Y-84.5
X111.7Y-104.9
X112.4Y-70.3
X112.4Y-130.4
X112.6Y-62.0
X113.0Y-75.9
X114.3Y-68.5
X114.65Y-108.05
X114.8Y-50.6
X114.9Y-128.1
X115.1Y-138.1
X115.4Y-144.1
X115.7Y-72.6
X116.5Y-60.5
X117.6Y-81.6
X117.855Y-48.745
X118.0Y-53.6
X118.7Y-63.7
X119.0Y-70.7
X119.0Y-101.0
X119.4Y-85.6
X120.05Y-117.05
X120.4Y-78.0
X120.6Y-103.4
X122.35Y-119.35
X123.6Y-91.0
X123.8Y-48.4
X126.0Y-91.0
X126.0Y-97.9
X126.0Y-101.88
X126.0Y-103.1
X126.0Y-122.2
X126.0Y-124.0
X126.0Y-125.5
X126.0Y-127.0
X126.0Y-128.6
X126.0Y-137.6
X126.4Y-56.3
X127.2Y-50.9
X128.3Y-48.0
X128.6Y-91.0
X128.9Y-85.1
X129.1Y-76.7
X130.5Y-58.4
X130.6Y-74.6
X131.0Y-104.0
X131.2Y-68.0
X131.4Y-45.8
X131.7Y-51.8
X131.7Y-137.7
X132.0Y-73.2
X132.2Y-42.8
X132.3Y-100.6
X132.5Y-105.4
X133.4Y-51.0
X134.1Y-112.9
X134.5Y-80.2
X134.5Y-117.7
X134.7Y-41.9
X135.8Y-50.4
X135.9Y-122.7
X136.0Y-83.0
X136.1Y-69.6
X136.3Y-46.4
X136.4Y-63.2
X136.7Y-86.8
X136.8Y-92.0
X136.8Y-96.7
X137.0Y-57.1
X137.0Y-76.7
X137.4Y-102.0
X138.1Y-136.2
X139.1Y-79.3
X140.0Y-55.35
X141.1Y-47.0
X141.2Y-88.8
X141.2Y-99.0
X141.2Y-108.5
X141.3Y-112.3
X141.45Y-102.45
X141.5Y-76.3
X141.5Y-80.0
X141.6Y-64.4
X141.6Y-92.6
X141.6Y-117.2
X141.7Y-82.7
X142.0Y-72.0
X144.6Y-61.0
X144.7Y-55.2
X145.2Y-87.0
X145.2Y-97.1
X145.6Y-107.0
X146.0Y-76.3
X146.0Y-117.0
X146.2Y-136.0
X147.0Y-41.7
X147.9Y-50.4
X148.2Y-56.0
X148.5Y-65.2
X150.0Y-65.1
X150.1Y-41.7
X150.2Y-58.5
X151.7Y-65.0
X153.3Y-65.0
X154.9Y-64.9
X156.1Y-41.9
X161.0Y-61.5
X161.6Y-45.3
X163.1Y-41.8
X163.9Y-133.0
X166.975Y-63.925
X167.0Y-69.6
X167.4Y-132.9
X167.8Y-73.1
X169.6Y-101.9
X169.6Y-113.8
X169.6Y-117.7
X169.6Y-121.2
X169.7Y-105.4
X169.7Y-110.1
X169.8Y-77.8
X169.8Y-94.0
X169.8Y-98.1
X169.9Y-89.6
X170.0Y-81.4
X170.0Y-85.6
X170.1Y-55.8
X170.1Y-123.8
X170.8Y-132.9
X171.4Y-42.3
X172.4Y-72.2
X172.8Y-58.0
X173.9Y-123.7
X175.3Y-132.8
X177.0Y-58.3
X177.8Y-123.7
X178.3Y-72.3
X178.6Y-55.8
X178.8Y-52.4
X178.8Y-64.4
X179.0Y-45.5
X179.7Y-42.3
X180.7Y-132.7
X182.4Y-51.0
X182.5Y-123.6
X183.2Y-64.4
X183.9Y-130.8
X184.2Y-85.3
X184.2Y-91.1
X184.2Y-121.4
X184.3Y-96.5
X184.3Y-101.3
X184.3Y-106.3
X184.3Y-111.7
X184.3Y-116.8
X184.8Y-72.3
X185.4Y-54.1
X185.6Y-81.6
X187.5Y-128.7
X188.3Y-79.0
X188.7Y-42.1
X188.9Y-58.3
X189.2Y-54.1
X190.6Y-109.0
X190.8Y-103.7
X190.9Y-86.4
X190.9Y-89.7
X191.0Y-125.3
X191.2Y-72.4
X191.4Y-121.7
X193.8Y-77.7
X196.0Y-46.8
X196.3Y-59.8
X196.6Y-42.1
X201.9Y-124.5
X202.1Y-114.9
X202.2Y-119.4
X203.7Y-85.5
X203.7Y-90.3
X203.7Y-102.4
X203.9Y-107.5
X205.3Y-69.1
X205.9Y-97.7
X205.9Y-102.8
X205.9Y-107.9
X205.9Y-114.8
X205.9Y-119.7
X206.0Y-80.8
X206.0Y-85.7
X206.0Y-90.8
X206.0Y-124.7
X207.4Y-79.9
X207.6Y-73.0
X207.7Y-78.5
X207.7Y-96.5
X208.5Y-130.0
X208.6Y-114.1
X210.1Y-113.1
X210.5Y-96.6
X210.6Y-107.0
X210.9Y-100.4
X211.7Y-126.5
X211.9Y-110.7
X212.1Y-122.7
X213.3Y-116.7
X213.5Y-64.7
X213.8Y-120.0
X214.6Y-114.9
X214.8Y-129.9
X215.4Y-117.5
X215.8Y-113.5
X218.4Y-135.4
T2
X137.0Y-131.0
X138.27Y-133.54
X139.54Y-131.0
X140.81Y-133.54
X142.08Y-131.0
X143.35Y-133.54
T3
X53.54Y-136.3
X53.54Y-141.38
X56.08Y-136.3
X56.08Y-141.38
X58.62Y-136.3
X58.62Y-141.38
X83.9Y-110.9
X83.9Y-113.44
X83.9Y-122.36
X83.9Y-124.9
X103.0Y-110.8
X109.9Y-110.9
X109.9Y-113.44
X109.9Y-122.36
X109.9Y-124.9
X168.54Y-46.3
X168.54Y-51.38
X171.08Y-46.3
X171.08Y-51.38
X173.62Y-46.3
X173.62Y-51.38
X176.16Y-46.3
X176.16Y-51.38
X185.54Y-46.3
X185.54Y-51.38
X188.08Y-46.3
X188.08Y-51.38
X190.62Y-46.3
X190.62Y-51.38
X193.16Y-46.3
X193.16Y-51.38
X207.54Y-136.3
X207.54Y-141.38
X210.08Y-136.3
X210.08Y-141.38
X212.62Y-136.3
X212.62Y-141.38
X215.16Y-136.3
X215.16Y-141.38
T4
X153.0Y-135.0
X154.27Y-132.46
X155.54Y-135.0
X156.81Y-132.46
X158.08Y-135.0
X159.35Y-132.46
X160.62Y-135.0
X161.89Y-132.46
T5
X155.5Y-46.0
X155.5Y-49.2
X158.0Y-46.0
X158.0Y-49.2
T6
X85.2Y-53.2
X87.74Y-53.2
X90.28Y-53.2
X92.82Y-53.2
X97.92Y-101.0
X100.46Y-101.0
X103.0Y-101.0
X112.0Y-95.672
X114.0Y-90.0
X114.0Y-95.0
X116.0Y-89.328
X123.328Y-78.0
X124.0Y-80.0
X129.0Y-80.0
X129.672Y-82.0
T7
X54.9Y-65.6
X54.9Y-72.1
X59.4Y-65.6
X59.4Y-72.1
T8
X165.0Y-76.5
X165.0Y-80.0
X165.0Y-83.5
X165.0Y-87.0
X165.0Y-94.48
X165.0Y-97.98
X165.0Y-101.48
X165.0Y-104.98
X165.0Y-112.5
X165.0Y-116.0
X165.0Y-119.5
X165.0Y-123.0
X194.0Y-81.0
X194.0Y-84.5
X194.0Y-88.0
X194.0Y-91.5
X194.0Y-98.5
X194.0Y-102.0
X194.0Y-105.5
X194.0Y-109.0
X194.0Y-116.5
X194.0Y-120.0
X194.0Y-123.5
X194.0Y-127.0
T9
X79.0Y-144.0
X84.08Y-144.0
X89.16Y-144.0
X100.0Y-144.0
X105.08Y-144.0
X110.16Y-144.0
X120.92Y-143.0
X126.0Y-143.0
T10
X121.0Y-107.0
X121.0Y-129.0
T11
X150.73Y-48.71
X162.77Y-48.71
T0
M30
