%FSLAX45Y45*%
G04 Gerber Fmt 4.5, Leading zero omitted, Abs format (unit mm)*
G04 Created by KiCad (PCBNEW (5.1.9)-1) date 2021-04-25 02:37:30*
%MOMM*%
%LPD*%
G01*
G04 APERTURE LIST*
%TA.AperFunction,Profile*%
%ADD10C,0.050000*%
%TD*%
%ADD11C,0.200000*%
%ADD12C,0.300000*%
G04 APERTURE END LIST*
D10*
X6100000Y-9800000D02*
G75*
G02*
X6100000Y-10000000I0J-100000D01*
G01*
X6100000Y-10700000D02*
G75*
G02*
X6100000Y-10900000I0J-100000D01*
G01*
X6100000Y-10900000D02*
X5000000Y-10900000D01*
X5000000Y-10700000D02*
X6100000Y-10700000D01*
X5000000Y-10000000D02*
X5000000Y-10700000D01*
X6100000Y-10000000D02*
X5000000Y-10000000D01*
X5000000Y-9800000D02*
X6100000Y-9800000D01*
X6100000Y-7700000D02*
G75*
G02*
X6100000Y-7900000I0J-100000D01*
G01*
X6100000Y-8700000D02*
G75*
G02*
X6100000Y-8900000I0J-100000D01*
G01*
X6100000Y-8900000D02*
X5000000Y-8900000D01*
X5000000Y-8700000D02*
X6100000Y-8700000D01*
X6100000Y-7700000D02*
X5000000Y-7700000D01*
X5000000Y-7900000D02*
X6100000Y-7900000D01*
X5000000Y-8700000D02*
X5000000Y-7900000D01*
X5000000Y-9800000D02*
X5000000Y-8900000D01*
X5000000Y-7700000D02*
X5000000Y-6000000D01*
X13000000Y-4700000D02*
X13000000Y-4000000D01*
X9600000Y-4700000D02*
X13000000Y-4700000D01*
X9600000Y-4000000D02*
X9600000Y-4700000D01*
X13000000Y-4000000D02*
X20000000Y-4000000D01*
X20000000Y-6000000D02*
X22000000Y-6000000D01*
X20000000Y-4000000D02*
X20000000Y-6000000D01*
X7000000Y-4000000D02*
X9600000Y-4000000D01*
X7000000Y-6000000D02*
X7000000Y-4000000D01*
X5000000Y-6000000D02*
X7000000Y-6000000D01*
X5000000Y-15000000D02*
X5000000Y-10900000D01*
X22000000Y-15000000D02*
X22000000Y-6000000D01*
X5000000Y-15000000D02*
X22000000Y-15000000D01*
D11*
X5190000Y-13020000D02*
X5230000Y-13060000D01*
X5230000Y-13020000D02*
X5190000Y-13060000D01*
X5350000Y-10090000D02*
X5390000Y-10130000D01*
X5390000Y-10090000D02*
X5350000Y-10130000D01*
X5350000Y-10430000D02*
X5390000Y-10470000D01*
X5390000Y-10430000D02*
X5350000Y-10470000D01*
X5450000Y-10570000D02*
X5490000Y-10610000D01*
X5490000Y-10570000D02*
X5450000Y-10610000D01*
X5570000Y-10090000D02*
X5610000Y-10130000D01*
X5610000Y-10090000D02*
X5570000Y-10130000D01*
X5570000Y-13190000D02*
X5610000Y-13230000D01*
X5610000Y-13190000D02*
X5570000Y-13230000D01*
X5690000Y-11310000D02*
X5730000Y-11350000D01*
X5730000Y-11310000D02*
X5690000Y-11350000D01*
X5820000Y-10310000D02*
X5860000Y-10350000D01*
X5860000Y-10310000D02*
X5820000Y-10350000D01*
X5900000Y-8370000D02*
X5940000Y-8410000D01*
X5940000Y-8370000D02*
X5900000Y-8410000D01*
X5950000Y-10100000D02*
X5990000Y-10140000D01*
X5990000Y-10100000D02*
X5950000Y-10140000D01*
X6000000Y-13030000D02*
X6040000Y-13070000D01*
X6040000Y-13030000D02*
X6000000Y-13070000D01*
X6020000Y-10430000D02*
X6060000Y-10470000D01*
X6060000Y-10430000D02*
X6020000Y-10470000D01*
X6130000Y-13900000D02*
X6170000Y-13940000D01*
X6170000Y-13900000D02*
X6130000Y-13940000D01*
X6210000Y-7990000D02*
X6250000Y-8030000D01*
X6250000Y-7990000D02*
X6210000Y-8030000D01*
X6210000Y-10110000D02*
X6250000Y-10150000D01*
X6250000Y-10110000D02*
X6210000Y-10150000D01*
X6240000Y-11430000D02*
X6280000Y-11470000D01*
X6280000Y-11430000D02*
X6240000Y-11470000D01*
X6250000Y-9040000D02*
X6290000Y-9080000D01*
X6290000Y-9040000D02*
X6250000Y-9080000D01*
X6260000Y-11070000D02*
X6300000Y-11110000D01*
X6300000Y-11070000D02*
X6260000Y-11110000D01*
X6280000Y-9590000D02*
X6320000Y-9630000D01*
X6320000Y-9590000D02*
X6280000Y-9630000D01*
X6310000Y-8760000D02*
X6350000Y-8800000D01*
X6350000Y-8760000D02*
X6310000Y-8800000D01*
X6400000Y-10820000D02*
X6440000Y-10860000D01*
X6440000Y-10820000D02*
X6400000Y-10860000D01*
X6455000Y-9915000D02*
X6495000Y-9955000D01*
X6495000Y-9915000D02*
X6455000Y-9955000D01*
X6460000Y-8280000D02*
X6500000Y-8320000D01*
X6500000Y-8280000D02*
X6460000Y-8320000D01*
X6490000Y-11760000D02*
X6530000Y-11800000D01*
X6530000Y-11760000D02*
X6490000Y-11800000D01*
X6490000Y-12500000D02*
X6530000Y-12540000D01*
X6530000Y-12500000D02*
X6490000Y-12540000D01*
X6510000Y-7980000D02*
X6550000Y-8020000D01*
X6550000Y-7980000D02*
X6510000Y-8020000D01*
X6520000Y-11250000D02*
X6560000Y-11290000D01*
X6560000Y-11250000D02*
X6520000Y-11290000D01*
X6550000Y-12960000D02*
X6590000Y-13000000D01*
X6590000Y-12960000D02*
X6550000Y-13000000D01*
X6560000Y-8790000D02*
X6600000Y-8830000D01*
X6600000Y-8790000D02*
X6560000Y-8830000D01*
X6600000Y-6430000D02*
X6640000Y-6470000D01*
X6640000Y-6430000D02*
X6600000Y-6470000D01*
X6740000Y-6680000D02*
X6780000Y-6720000D01*
X6780000Y-6680000D02*
X6740000Y-6720000D01*
X6790000Y-10420000D02*
X6830000Y-10460000D01*
X6830000Y-10420000D02*
X6790000Y-10460000D01*
X6810000Y-12530000D02*
X6850000Y-12570000D01*
X6850000Y-12530000D02*
X6810000Y-12570000D01*
X6820000Y-8400000D02*
X6860000Y-8440000D01*
X6860000Y-8400000D02*
X6820000Y-8440000D01*
X6850000Y-9000000D02*
X6890000Y-9040000D01*
X6890000Y-9000000D02*
X6850000Y-9040000D01*
X6860000Y-8720000D02*
X6900000Y-8760000D01*
X6900000Y-8720000D02*
X6860000Y-8760000D01*
X6870000Y-10110000D02*
X6910000Y-10150000D01*
X6910000Y-10110000D02*
X6870000Y-10150000D01*
X6930000Y-9490000D02*
X6970000Y-9530000D01*
X6970000Y-9490000D02*
X6930000Y-9530000D01*
X6960000Y-9670000D02*
X7000000Y-9710000D01*
X7000000Y-9670000D02*
X6960000Y-9710000D01*
X6960000Y-12020000D02*
X7000000Y-12060000D01*
X7000000Y-12020000D02*
X6960000Y-12060000D01*
X6970000Y-10670000D02*
X7010000Y-10710000D01*
X7010000Y-10670000D02*
X6970000Y-10710000D01*
X7050000Y-11840000D02*
X7090000Y-11880000D01*
X7090000Y-11840000D02*
X7050000Y-11880000D01*
X7100000Y-7990000D02*
X7140000Y-8030000D01*
X7140000Y-7990000D02*
X7100000Y-8030000D01*
X7100000Y-10310000D02*
X7140000Y-10350000D01*
X7140000Y-10310000D02*
X7100000Y-10350000D01*
X7160000Y-11970000D02*
X7200000Y-12010000D01*
X7200000Y-11970000D02*
X7160000Y-12010000D01*
X7350000Y-8440000D02*
X7390000Y-8480000D01*
X7390000Y-8440000D02*
X7350000Y-8480000D01*
X7525000Y-11045000D02*
X7565000Y-11085000D01*
X7565000Y-11045000D02*
X7525000Y-11085000D01*
X7540000Y-8170000D02*
X7580000Y-8210000D01*
X7580000Y-8170000D02*
X7540000Y-8210000D01*
X7570000Y-13290000D02*
X7610000Y-13330000D01*
X7610000Y-13290000D02*
X7570000Y-13330000D01*
X7720000Y-7250000D02*
X7760000Y-7290000D01*
X7760000Y-7250000D02*
X7720000Y-7290000D01*
X7730000Y-6830000D02*
X7770000Y-6870000D01*
X7770000Y-6830000D02*
X7730000Y-6870000D01*
X7760000Y-7590000D02*
X7800000Y-7630000D01*
X7800000Y-7590000D02*
X7760000Y-7630000D01*
X7780000Y-12110000D02*
X7820000Y-12150000D01*
X7820000Y-12110000D02*
X7780000Y-12150000D01*
X7790000Y-11110000D02*
X7830000Y-11150000D01*
X7830000Y-11110000D02*
X7790000Y-11150000D01*
X7820000Y-8380000D02*
X7860000Y-8420000D01*
X7860000Y-8380000D02*
X7820000Y-8420000D01*
X7820000Y-9710000D02*
X7860000Y-9750000D01*
X7860000Y-9710000D02*
X7820000Y-9750000D01*
X7840000Y-9340000D02*
X7880000Y-9380000D01*
X7880000Y-9340000D02*
X7840000Y-9380000D01*
X7860000Y-10280000D02*
X7900000Y-10320000D01*
X7900000Y-10280000D02*
X7860000Y-10320000D01*
X7880000Y-10720000D02*
X7920000Y-10760000D01*
X7920000Y-10720000D02*
X7880000Y-10760000D01*
X7930000Y-11380000D02*
X7970000Y-11420000D01*
X7970000Y-11380000D02*
X7930000Y-11420000D01*
X7970000Y-10430000D02*
X8010000Y-10470000D01*
X8010000Y-10430000D02*
X7970000Y-10470000D01*
X7970000Y-11880000D02*
X8010000Y-11920000D01*
X8010000Y-11880000D02*
X7970000Y-11920000D01*
X8020000Y-7380000D02*
X8060000Y-7420000D01*
X8060000Y-7380000D02*
X8020000Y-7420000D01*
X8020000Y-7690000D02*
X8060000Y-7730000D01*
X8060000Y-7690000D02*
X8020000Y-7730000D01*
X8130000Y-8000000D02*
X8170000Y-8040000D01*
X8170000Y-8000000D02*
X8130000Y-8040000D01*
X8150000Y-13700000D02*
X8190000Y-13740000D01*
X8190000Y-13700000D02*
X8150000Y-13740000D01*
X8160000Y-8190000D02*
X8200000Y-8230000D01*
X8200000Y-8190000D02*
X8160000Y-8230000D01*
X8210000Y-7540000D02*
X8250000Y-7580000D01*
X8250000Y-7540000D02*
X8210000Y-7580000D01*
X8210000Y-9590000D02*
X8250000Y-9630000D01*
X8250000Y-9590000D02*
X8210000Y-9630000D01*
X8230000Y-9880000D02*
X8270000Y-9920000D01*
X8270000Y-9880000D02*
X8230000Y-9920000D01*
X8300000Y-9300000D02*
X8340000Y-9340000D01*
X8340000Y-9300000D02*
X8300000Y-9340000D01*
X8410000Y-8730000D02*
X8450000Y-8770000D01*
X8450000Y-8730000D02*
X8410000Y-8770000D01*
X8510000Y-7360000D02*
X8550000Y-7400000D01*
X8550000Y-7360000D02*
X8510000Y-7400000D01*
X8610000Y-11610000D02*
X8650000Y-11650000D01*
X8650000Y-11610000D02*
X8610000Y-11650000D01*
X8610000Y-11980000D02*
X8650000Y-12020000D01*
X8650000Y-11980000D02*
X8610000Y-12020000D01*
X8620000Y-4980000D02*
X8660000Y-5020000D01*
X8660000Y-4980000D02*
X8620000Y-5020000D01*
X8720000Y-7350000D02*
X8760000Y-7390000D01*
X8760000Y-7350000D02*
X8720000Y-7390000D01*
X8910000Y-6390000D02*
X8950000Y-6430000D01*
X8950000Y-6390000D02*
X8910000Y-6430000D01*
X8960000Y-5970000D02*
X9000000Y-6010000D01*
X9000000Y-5970000D02*
X8960000Y-6010000D01*
X8960000Y-12720000D02*
X9000000Y-12760000D01*
X9000000Y-12720000D02*
X8960000Y-12760000D01*
X9000000Y-13750000D02*
X9040000Y-13790000D01*
X9040000Y-13750000D02*
X9000000Y-13790000D01*
X9170000Y-7060000D02*
X9210000Y-7100000D01*
X9210000Y-7060000D02*
X9170000Y-7100000D01*
X9190000Y-4780000D02*
X9230000Y-4820000D01*
X9230000Y-4780000D02*
X9190000Y-4820000D01*
X9340000Y-9210000D02*
X9380000Y-9250000D01*
X9380000Y-9210000D02*
X9340000Y-9250000D01*
X9370000Y-4790000D02*
X9410000Y-4830000D01*
X9410000Y-4790000D02*
X9370000Y-4830000D01*
X9410000Y-14320000D02*
X9450000Y-14360000D01*
X9450000Y-14320000D02*
X9410000Y-14360000D01*
X9420000Y-10580000D02*
X9460000Y-10620000D01*
X9460000Y-10580000D02*
X9420000Y-10620000D01*
X9440000Y-8450000D02*
X9480000Y-8490000D01*
X9480000Y-8450000D02*
X9440000Y-8490000D01*
X9450000Y-13280000D02*
X9490000Y-13320000D01*
X9490000Y-13280000D02*
X9450000Y-13320000D01*
X9480000Y-5190000D02*
X9520000Y-5230000D01*
X9520000Y-5190000D02*
X9480000Y-5230000D01*
X9500000Y-9320000D02*
X9540000Y-9360000D01*
X9540000Y-9320000D02*
X9500000Y-9360000D01*
X9510000Y-10150000D02*
X9550000Y-10190000D01*
X9550000Y-10150000D02*
X9510000Y-10190000D01*
X9520000Y-8770000D02*
X9560000Y-8810000D01*
X9560000Y-8770000D02*
X9520000Y-8810000D01*
X9590000Y-9760000D02*
X9630000Y-9800000D01*
X9630000Y-9760000D02*
X9590000Y-9800000D01*
X9620000Y-6260000D02*
X9660000Y-6300000D01*
X9660000Y-6260000D02*
X9620000Y-6300000D01*
X9650000Y-9490000D02*
X9690000Y-9530000D01*
X9690000Y-9490000D02*
X9650000Y-9530000D01*
X9670000Y-8920000D02*
X9710000Y-8960000D01*
X9710000Y-8920000D02*
X9670000Y-8960000D01*
X9689999Y-5680000D02*
X9729999Y-5720000D01*
X9729999Y-5680000D02*
X9689999Y-5720000D01*
X9690000Y-5880000D02*
X9730000Y-5920000D01*
X9730000Y-5880000D02*
X9690000Y-5920000D01*
X9740000Y-10920000D02*
X9780000Y-10960000D01*
X9780000Y-10920000D02*
X9740000Y-10960000D01*
X9740000Y-13670000D02*
X9780000Y-13710000D01*
X9780000Y-13670000D02*
X9740000Y-13710000D01*
X9760000Y-11480000D02*
X9800000Y-11520000D01*
X9800000Y-11480000D02*
X9760000Y-11520000D01*
X9790000Y-6480000D02*
X9830000Y-6520000D01*
X9830000Y-6480000D02*
X9790000Y-6520000D01*
X9810000Y-7380000D02*
X9850000Y-7420000D01*
X9850000Y-7380000D02*
X9810000Y-7420000D01*
X9810000Y-9060000D02*
X9850000Y-9100000D01*
X9850000Y-9060000D02*
X9810000Y-9100000D01*
X9820000Y-8040000D02*
X9860000Y-8080000D01*
X9860000Y-8040000D02*
X9820000Y-8080000D01*
X9947782Y-5522218D02*
X9987782Y-5562218D01*
X9987782Y-5522218D02*
X9947782Y-5562218D01*
X9960000Y-6610000D02*
X10000000Y-6650000D01*
X10000000Y-6610000D02*
X9960000Y-6650000D01*
X9970000Y-10930000D02*
X10010000Y-10970000D01*
X10010000Y-10930000D02*
X9970000Y-10970000D01*
X9990000Y-12320000D02*
X10030000Y-12360000D01*
X10030000Y-12320000D02*
X9990000Y-12360000D01*
X10026000Y-9526000D02*
X10066000Y-9566000D01*
X10066000Y-9526000D02*
X10026000Y-9566000D01*
X10080000Y-7220000D02*
X10120000Y-7260000D01*
X10120000Y-7220000D02*
X10080000Y-7260000D01*
X10130000Y-5470000D02*
X10170000Y-5510000D01*
X10170000Y-5470000D02*
X10130000Y-5510000D01*
X10130000Y-8700000D02*
X10170000Y-8740000D01*
X10170000Y-8700000D02*
X10130000Y-8740000D01*
X10150000Y-4980000D02*
X10190000Y-5020000D01*
X10190000Y-4980000D02*
X10150000Y-5020000D01*
X10180000Y-13730000D02*
X10220000Y-13770000D01*
X10220000Y-13730000D02*
X10180000Y-13770000D01*
X10190000Y-4780000D02*
X10230000Y-4820000D01*
X10230000Y-4780000D02*
X10190000Y-4820000D01*
X10380000Y-8440000D02*
X10420000Y-8480000D01*
X10420000Y-8440000D02*
X10380000Y-8480000D01*
X10420000Y-9640000D02*
X10460000Y-9680000D01*
X10460000Y-9640000D02*
X10420000Y-9680000D01*
X10430000Y-7140000D02*
X10470000Y-7180000D01*
X10470000Y-7140000D02*
X10430000Y-7180000D01*
X10460000Y-6790000D02*
X10500000Y-6830000D01*
X10500000Y-6790000D02*
X10460000Y-6830000D01*
X10460000Y-8950000D02*
X10500000Y-8990000D01*
X10500000Y-8950000D02*
X10460000Y-8990000D01*
X10460000Y-12760000D02*
X10500000Y-12800000D01*
X10500000Y-12760000D02*
X10460000Y-12800000D01*
X10660000Y-5430000D02*
X10700000Y-5470000D01*
X10700000Y-5430000D02*
X10660000Y-5470000D01*
X10680000Y-5240000D02*
X10720000Y-5280000D01*
X10720000Y-5240000D02*
X10680000Y-5280000D01*
X10730000Y-13730000D02*
X10770000Y-13770000D01*
X10770000Y-13730000D02*
X10730000Y-13770000D01*
X10870000Y-10420000D02*
X10910000Y-10460000D01*
X10910000Y-10420000D02*
X10870000Y-10460000D01*
X11000000Y-11680000D02*
X11040000Y-11720000D01*
X11040000Y-11680000D02*
X11000000Y-11720000D01*
X11050000Y-5020000D02*
X11090000Y-5060000D01*
X11090000Y-5020000D02*
X11050000Y-5060000D01*
X11060000Y-8160000D02*
X11100000Y-8200000D01*
X11100000Y-8160000D02*
X11060000Y-8200000D01*
X11080000Y-7540000D02*
X11120000Y-7580000D01*
X11120000Y-7540000D02*
X11080000Y-7580000D01*
X11140000Y-8430000D02*
X11180000Y-8470000D01*
X11180000Y-8430000D02*
X11140000Y-8470000D01*
X11150000Y-10470000D02*
X11190000Y-10510000D01*
X11190000Y-10470000D02*
X11150000Y-10510000D01*
X11220000Y-7010000D02*
X11260000Y-7050000D01*
X11260000Y-7010000D02*
X11220000Y-7050000D01*
X11220000Y-13020000D02*
X11260000Y-13060000D01*
X11260000Y-13020000D02*
X11220000Y-13060000D01*
X11240000Y-6180000D02*
X11280000Y-6220000D01*
X11280000Y-6180000D02*
X11240000Y-6220000D01*
X11280000Y-7570000D02*
X11320000Y-7610000D01*
X11320000Y-7570000D02*
X11280000Y-7610000D01*
X11410000Y-6830000D02*
X11450000Y-6870000D01*
X11450000Y-6830000D02*
X11410000Y-6870000D01*
X11445000Y-10785000D02*
X11485000Y-10825000D01*
X11485000Y-10785000D02*
X11445000Y-10825000D01*
X11460000Y-5040000D02*
X11500000Y-5080000D01*
X11500000Y-5040000D02*
X11460000Y-5080000D01*
X11470000Y-12790000D02*
X11510000Y-12830000D01*
X11510000Y-12790000D02*
X11470000Y-12830000D01*
X11490000Y-13790000D02*
X11530000Y-13830000D01*
X11530000Y-13790000D02*
X11490000Y-13830000D01*
X11520000Y-14390000D02*
X11560000Y-14430000D01*
X11560000Y-14390000D02*
X11520000Y-14430000D01*
X11550000Y-7240000D02*
X11590000Y-7280000D01*
X11590000Y-7240000D02*
X11550000Y-7280000D01*
X11630000Y-6030000D02*
X11670000Y-6070000D01*
X11670000Y-6030000D02*
X11630000Y-6070000D01*
X11740000Y-8140000D02*
X11780000Y-8180000D01*
X11780000Y-8140000D02*
X11740000Y-8180000D01*
X11765500Y-4854500D02*
X11805500Y-4894500D01*
X11805500Y-4854500D02*
X11765500Y-4894500D01*
X11780000Y-5340000D02*
X11820000Y-5380000D01*
X11820000Y-5340000D02*
X11780000Y-5380000D01*
X11850000Y-6350000D02*
X11890000Y-6390000D01*
X11890000Y-6350000D02*
X11850000Y-6390000D01*
X11880000Y-7050000D02*
X11920000Y-7090000D01*
X11920000Y-7050000D02*
X11880000Y-7090000D01*
X11880000Y-10080000D02*
X11920000Y-10120000D01*
X11920000Y-10080000D02*
X11880000Y-10120000D01*
X11920000Y-8540000D02*
X11960000Y-8580000D01*
X11960000Y-8540000D02*
X11920000Y-8580000D01*
X11985000Y-11685000D02*
X12025000Y-11725000D01*
X12025000Y-11685000D02*
X11985000Y-11725000D01*
X12020000Y-7780000D02*
X12060000Y-7820000D01*
X12060000Y-7780000D02*
X12020000Y-7820000D01*
X12040000Y-10320000D02*
X12080000Y-10360000D01*
X12080000Y-10320000D02*
X12040000Y-10360000D01*
X12215000Y-11915000D02*
X12255000Y-11955000D01*
X12255000Y-11915000D02*
X12215000Y-11955000D01*
X12340000Y-9080000D02*
X12380000Y-9120000D01*
X12380000Y-9080000D02*
X12340000Y-9120000D01*
X12360000Y-4820000D02*
X12400000Y-4860000D01*
X12400000Y-4820000D02*
X12360000Y-4860000D01*
X12580000Y-9080000D02*
X12620000Y-9120000D01*
X12620000Y-9080000D02*
X12580000Y-9120000D01*
X12580000Y-9770000D02*
X12620000Y-9810000D01*
X12620000Y-9770000D02*
X12580000Y-9810000D01*
X12580000Y-10168000D02*
X12620000Y-10208000D01*
X12620000Y-10168000D02*
X12580000Y-10208000D01*
X12580000Y-10290000D02*
X12620000Y-10330000D01*
X12620000Y-10290000D02*
X12580000Y-10330000D01*
X12580000Y-12200000D02*
X12620000Y-12240000D01*
X12620000Y-12200000D02*
X12580000Y-12240000D01*
X12580000Y-12380000D02*
X12620000Y-12420000D01*
X12620000Y-12380000D02*
X12580000Y-12420000D01*
X12580000Y-12530000D02*
X12620000Y-12570000D01*
X12620000Y-12530000D02*
X12580000Y-12570000D01*
X12580000Y-12680000D02*
X12620000Y-12720000D01*
X12620000Y-12680000D02*
X12580000Y-12720000D01*
X12580000Y-12840000D02*
X12620000Y-12880000D01*
X12620000Y-12840000D02*
X12580000Y-12880000D01*
X12580000Y-13740000D02*
X12620000Y-13780000D01*
X12620000Y-13740000D02*
X12580000Y-13780000D01*
X12620000Y-5610000D02*
X12660000Y-5650000D01*
X12660000Y-5610000D02*
X12620000Y-5650000D01*
X12700000Y-5070000D02*
X12740000Y-5110000D01*
X12740000Y-5070000D02*
X12700000Y-5110000D01*
X12810000Y-4780000D02*
X12850000Y-4820000D01*
X12850000Y-4780000D02*
X12810000Y-4820000D01*
X12840000Y-9080000D02*
X12880000Y-9120000D01*
X12880000Y-9080000D02*
X12840000Y-9120000D01*
X12870000Y-8490000D02*
X12910000Y-8530000D01*
X12910000Y-8490000D02*
X12870000Y-8530000D01*
X12890000Y-7650000D02*
X12930000Y-7690000D01*
X12930000Y-7650000D02*
X12890000Y-7690000D01*
X13030000Y-5820000D02*
X13070000Y-5860000D01*
X13070000Y-5820000D02*
X13030000Y-5860000D01*
X13040000Y-7440000D02*
X13080000Y-7480000D01*
X13080000Y-7440000D02*
X13040000Y-7480000D01*
X13080000Y-10380000D02*
X13120000Y-10420000D01*
X13120000Y-10380000D02*
X13080000Y-10420000D01*
X13100000Y-6780000D02*
X13140000Y-6820000D01*
X13140000Y-6780000D02*
X13100000Y-6820000D01*
X13120000Y-4560000D02*
X13160000Y-4600000D01*
X13160000Y-4560000D02*
X13120000Y-4600000D01*
X13150000Y-5160000D02*
X13190000Y-5200000D01*
X13190000Y-5160000D02*
X13150000Y-5200000D01*
X13150000Y-13750000D02*
X13190000Y-13790000D01*
X13190000Y-13750000D02*
X13150000Y-13790000D01*
X13180000Y-7300000D02*
X13220000Y-7340000D01*
X13220000Y-7300000D02*
X13180000Y-7340000D01*
X13200000Y-4260000D02*
X13240000Y-4300000D01*
X13240000Y-4260000D02*
X13200000Y-4300000D01*
X13210000Y-10040000D02*
X13250000Y-10080000D01*
X13250000Y-10040000D02*
X13210000Y-10080000D01*
X13230000Y-10520000D02*
X13270000Y-10560000D01*
X13270000Y-10520000D02*
X13230000Y-10560000D01*
X13320000Y-5080000D02*
X13360000Y-5120000D01*
X13360000Y-5080000D02*
X13320000Y-5120000D01*
X13390000Y-11270000D02*
X13430000Y-11310000D01*
X13430000Y-11270000D02*
X13390000Y-11310000D01*
X13430000Y-8000000D02*
X13470000Y-8040000D01*
X13470000Y-8000000D02*
X13430000Y-8040000D01*
X13430000Y-11750000D02*
X13470000Y-11790000D01*
X13470000Y-11750000D02*
X13430000Y-11790000D01*
X13450000Y-4170000D02*
X13490000Y-4210000D01*
X13490000Y-4170000D02*
X13450000Y-4210000D01*
X13560000Y-5020000D02*
X13600000Y-5060000D01*
X13600000Y-5020000D02*
X13560000Y-5060000D01*
X13570000Y-12250000D02*
X13610000Y-12290000D01*
X13610000Y-12250000D02*
X13570000Y-12290000D01*
X13580000Y-8280000D02*
X13620000Y-8320000D01*
X13620000Y-8280000D02*
X13580000Y-8320000D01*
X13590000Y-6940000D02*
X13630000Y-6980000D01*
X13630000Y-6940000D02*
X13590000Y-6980000D01*
X13610000Y-4620000D02*
X13650000Y-4660000D01*
X13650000Y-4620000D02*
X13610000Y-4660000D01*
X13620000Y-6300000D02*
X13660000Y-6340000D01*
X13660000Y-6300000D02*
X13620000Y-6340000D01*
X13650000Y-8660000D02*
X13690000Y-8700000D01*
X13690000Y-8660000D02*
X13650000Y-8700000D01*
X13660000Y-9180000D02*
X13700000Y-9220000D01*
X13700000Y-9180000D02*
X13660000Y-9220000D01*
X13660000Y-9650000D02*
X13700000Y-9690000D01*
X13700000Y-9650000D02*
X13660000Y-9690000D01*
X13680000Y-5690000D02*
X13720000Y-5730000D01*
X13720000Y-5690000D02*
X13680000Y-5730000D01*
X13680000Y-7650000D02*
X13720000Y-7690000D01*
X13720000Y-7650000D02*
X13680000Y-7690000D01*
X13720000Y-10180000D02*
X13760000Y-10220000D01*
X13760000Y-10180000D02*
X13720000Y-10220000D01*
X13790000Y-13600000D02*
X13830000Y-13640000D01*
X13830000Y-13600000D02*
X13790000Y-13640000D01*
X13890000Y-7910000D02*
X13930000Y-7950000D01*
X13930000Y-7910000D02*
X13890000Y-7950000D01*
X13980000Y-5514998D02*
X14020000Y-5554998D01*
X14020000Y-5514998D02*
X13980000Y-5554998D01*
X14090000Y-4680000D02*
X14130000Y-4720000D01*
X14130000Y-4680000D02*
X14090000Y-4720000D01*
X14100000Y-8860000D02*
X14140000Y-8900000D01*
X14140000Y-8860000D02*
X14100000Y-8900000D01*
X14100000Y-9880000D02*
X14140000Y-9920000D01*
X14140000Y-9880000D02*
X14100000Y-9920000D01*
X14100000Y-10830000D02*
X14140000Y-10870000D01*
X14140000Y-10830000D02*
X14100000Y-10870000D01*
X14110000Y-11210000D02*
X14150000Y-11250000D01*
X14150000Y-11210000D02*
X14110000Y-11250000D01*
X14125000Y-10225000D02*
X14165000Y-10265000D01*
X14165000Y-10225000D02*
X14125000Y-10265000D01*
X14130000Y-7610000D02*
X14170000Y-7650000D01*
X14170000Y-7610000D02*
X14130000Y-7650000D01*
X14130000Y-7980000D02*
X14170000Y-8020000D01*
X14170000Y-7980000D02*
X14130000Y-8020000D01*
X14140000Y-6420000D02*
X14180000Y-6460000D01*
X14180000Y-6420000D02*
X14140000Y-6460000D01*
X14140000Y-9240000D02*
X14180000Y-9280000D01*
X14180000Y-9240000D02*
X14140000Y-9280000D01*
X14140000Y-11700000D02*
X14180000Y-11740000D01*
X14180000Y-11700000D02*
X14140000Y-11740000D01*
X14150000Y-8250000D02*
X14190000Y-8290000D01*
X14190000Y-8250000D02*
X14150000Y-8290000D01*
X14180000Y-7180000D02*
X14220000Y-7220000D01*
X14220000Y-7180000D02*
X14180000Y-7220000D01*
X14440000Y-6080000D02*
X14480000Y-6120000D01*
X14480000Y-6080000D02*
X14440000Y-6120000D01*
X14450000Y-5500000D02*
X14490000Y-5540000D01*
X14490000Y-5500000D02*
X14450000Y-5540000D01*
X14500000Y-8680000D02*
X14540000Y-8720000D01*
X14540000Y-8680000D02*
X14500000Y-8720000D01*
X14500000Y-9690000D02*
X14540000Y-9730000D01*
X14540000Y-9690000D02*
X14500000Y-9730000D01*
X14540000Y-10680000D02*
X14580000Y-10720000D01*
X14580000Y-10680000D02*
X14540000Y-10720000D01*
X14580000Y-7610000D02*
X14620000Y-7650000D01*
X14620000Y-7610000D02*
X14580000Y-7650000D01*
X14580000Y-11680000D02*
X14620000Y-11720000D01*
X14620000Y-11680000D02*
X14580000Y-11720000D01*
X14600000Y-13580000D02*
X14640000Y-13620000D01*
X14640000Y-13580000D02*
X14600000Y-13620000D01*
X14680000Y-4150000D02*
X14720000Y-4190000D01*
X14720000Y-4150000D02*
X14680000Y-4190000D01*
X14770000Y-5020000D02*
X14810000Y-5060000D01*
X14810000Y-5020000D02*
X14770000Y-5060000D01*
X14800000Y-5580000D02*
X14840000Y-5620000D01*
X14840000Y-5580000D02*
X14800000Y-5620000D01*
X14830000Y-6500000D02*
X14870000Y-6540000D01*
X14870000Y-6500000D02*
X14830000Y-6540000D01*
X14980000Y-6490000D02*
X15020000Y-6530000D01*
X15020000Y-6490000D02*
X14980000Y-6530000D01*
X14990000Y-4150000D02*
X15030000Y-4190000D01*
X15030000Y-4150000D02*
X14990000Y-4190000D01*
X15000000Y-5830000D02*
X15040000Y-5870000D01*
X15040000Y-5830000D02*
X15000000Y-5870000D01*
X15150000Y-6480000D02*
X15190000Y-6520000D01*
X15190000Y-6480000D02*
X15150000Y-6520000D01*
X15310000Y-6480000D02*
X15350000Y-6520000D01*
X15350000Y-6480000D02*
X15310000Y-6520000D01*
X15470000Y-6470000D02*
X15510000Y-6510000D01*
X15510000Y-6470000D02*
X15470000Y-6510000D01*
X15590000Y-4170000D02*
X15630000Y-4210000D01*
X15630000Y-4170000D02*
X15590000Y-4210000D01*
X16080000Y-6130000D02*
X16120000Y-6170000D01*
X16120000Y-6130000D02*
X16080000Y-6170000D01*
X16140000Y-4510000D02*
X16180000Y-4550000D01*
X16180000Y-4510000D02*
X16140000Y-4550000D01*
X16290000Y-4160000D02*
X16330000Y-4200000D01*
X16330000Y-4160000D02*
X16290000Y-4200000D01*
X16370000Y-13280000D02*
X16410000Y-13320000D01*
X16410000Y-13280000D02*
X16370000Y-13320000D01*
X16677500Y-6372500D02*
X16717500Y-6412500D01*
X16717500Y-6372500D02*
X16677500Y-6412500D01*
X16680000Y-6940000D02*
X16720000Y-6980000D01*
X16720000Y-6940000D02*
X16680000Y-6980000D01*
X16720000Y-13270000D02*
X16760000Y-13310000D01*
X16760000Y-13270000D02*
X16720000Y-13310000D01*
X16760000Y-7290000D02*
X16800000Y-7330000D01*
X16800000Y-7290000D02*
X16760000Y-7330000D01*
X16940000Y-10170000D02*
X16980000Y-10210000D01*
X16980000Y-10170000D02*
X16940000Y-10210000D01*
X16940000Y-11360000D02*
X16980000Y-11400000D01*
X16980000Y-11360000D02*
X16940000Y-11400000D01*
X16940000Y-11750000D02*
X16980000Y-11790000D01*
X16980000Y-11750000D02*
X16940000Y-11790000D01*
X16940000Y-12100000D02*
X16980000Y-12140000D01*
X16980000Y-12100000D02*
X16940000Y-12140000D01*
X16950000Y-10520000D02*
X16990000Y-10560000D01*
X16990000Y-10520000D02*
X16950000Y-10560000D01*
X16950000Y-10990000D02*
X16990000Y-11030000D01*
X16990000Y-10990000D02*
X16950000Y-11030000D01*
X16960000Y-7760000D02*
X17000000Y-7800000D01*
X17000000Y-7760000D02*
X16960000Y-7800000D01*
X16960000Y-9380000D02*
X17000000Y-9420000D01*
X17000000Y-9380000D02*
X16960000Y-9420000D01*
X16960000Y-9790000D02*
X17000000Y-9830000D01*
X17000000Y-9790000D02*
X16960000Y-9830000D01*
X16970000Y-8940000D02*
X17010000Y-8980000D01*
X17010000Y-8940000D02*
X16970000Y-8980000D01*
X16980000Y-8120000D02*
X17020000Y-8160000D01*
X17020000Y-8120000D02*
X16980000Y-8160000D01*
X16980000Y-8540000D02*
X17020000Y-8580000D01*
X17020000Y-8540000D02*
X16980000Y-8580000D01*
X16990000Y-5560000D02*
X17030000Y-5600000D01*
X17030000Y-5560000D02*
X16990000Y-5600000D01*
X16990000Y-12360000D02*
X17030000Y-12400000D01*
X17030000Y-12360000D02*
X16990000Y-12400000D01*
X17060000Y-13270000D02*
X17100000Y-13310000D01*
X17100000Y-13270000D02*
X17060000Y-13310000D01*
X17120000Y-4210000D02*
X17160000Y-4250000D01*
X17160000Y-4210000D02*
X17120000Y-4250000D01*
X17220000Y-7200000D02*
X17260000Y-7240000D01*
X17260000Y-7200000D02*
X17220000Y-7240000D01*
X17260000Y-5780000D02*
X17300000Y-5820000D01*
X17300000Y-5780000D02*
X17260000Y-5820000D01*
X17370000Y-12350000D02*
X17410000Y-12390000D01*
X17410000Y-12350000D02*
X17370000Y-12390000D01*
X17510000Y-13260000D02*
X17550000Y-13300000D01*
X17550000Y-13260000D02*
X17510000Y-13300000D01*
X17680000Y-5810000D02*
X17720000Y-5850000D01*
X17720000Y-5810000D02*
X17680000Y-5850000D01*
X17760000Y-12350000D02*
X17800000Y-12390000D01*
X17800000Y-12350000D02*
X17760000Y-12390000D01*
X17810000Y-7210000D02*
X17850000Y-7250000D01*
X17850000Y-7210000D02*
X17810000Y-7250000D01*
X17840000Y-5560000D02*
X17880000Y-5600000D01*
X17880000Y-5560000D02*
X17840000Y-5600000D01*
X17860000Y-5220000D02*
X17900000Y-5260000D01*
X17900000Y-5220000D02*
X17860000Y-5260000D01*
X17860000Y-6420000D02*
X17900000Y-6460000D01*
X17900000Y-6420000D02*
X17860000Y-6460000D01*
X17880000Y-4530000D02*
X17920000Y-4570000D01*
X17920000Y-4530000D02*
X17880000Y-4570000D01*
X17950000Y-4210000D02*
X17990000Y-4250000D01*
X17990000Y-4210000D02*
X17950000Y-4250000D01*
X18050000Y-13250000D02*
X18090000Y-13290000D01*
X18090000Y-13250000D02*
X18050000Y-13290000D01*
X18220000Y-5080000D02*
X18260000Y-5120000D01*
X18260000Y-5080000D02*
X18220000Y-5120000D01*
X18230000Y-12340000D02*
X18270000Y-12380000D01*
X18270000Y-12340000D02*
X18230000Y-12380000D01*
X18300000Y-6420000D02*
X18340000Y-6460000D01*
X18340000Y-6420000D02*
X18300000Y-6460000D01*
X18370000Y-13060000D02*
X18410000Y-13100000D01*
X18410000Y-13060000D02*
X18370000Y-13100000D01*
X18400000Y-8510000D02*
X18440000Y-8550000D01*
X18440000Y-8510000D02*
X18400000Y-8550000D01*
X18400000Y-9090000D02*
X18440000Y-9130000D01*
X18440000Y-9090000D02*
X18400000Y-9130000D01*
X18400000Y-12120000D02*
X18440000Y-12160000D01*
X18440000Y-12120000D02*
X18400000Y-12160000D01*
X18410000Y-9630000D02*
X18450000Y-9670000D01*
X18450000Y-9630000D02*
X18410000Y-9670000D01*
X18410000Y-10110000D02*
X18450000Y-10150000D01*
X18450000Y-10110000D02*
X18410000Y-10150000D01*
X18410000Y-10610000D02*
X18450000Y-10650000D01*
X18450000Y-10610000D02*
X18410000Y-10650000D01*
X18410000Y-11150000D02*
X18450000Y-11190000D01*
X18450000Y-11150000D02*
X18410000Y-11190000D01*
X18410000Y-11660000D02*
X18450000Y-11700000D01*
X18450000Y-11660000D02*
X18410000Y-11700000D01*
X18460000Y-7210000D02*
X18500000Y-7250000D01*
X18500000Y-7210000D02*
X18460000Y-7250000D01*
X18520000Y-5390000D02*
X18560000Y-5430000D01*
X18560000Y-5390000D02*
X18520000Y-5430000D01*
X18540000Y-8140000D02*
X18580000Y-8180000D01*
X18580000Y-8140000D02*
X18540000Y-8180000D01*
X18730000Y-12850000D02*
X18770000Y-12890000D01*
X18770000Y-12850000D02*
X18730000Y-12890000D01*
X18810000Y-7880000D02*
X18850000Y-7920000D01*
X18850000Y-7880000D02*
X18810000Y-7920000D01*
X18850000Y-4190000D02*
X18890000Y-4230000D01*
X18890000Y-4190000D02*
X18850000Y-4230000D01*
X18870000Y-5810000D02*
X18910000Y-5850000D01*
X18910000Y-5810000D02*
X18870000Y-5850000D01*
X18900000Y-5390000D02*
X18940000Y-5430000D01*
X18940000Y-5390000D02*
X18900000Y-5430000D01*
X19040000Y-10880000D02*
X19080000Y-10920000D01*
X19080000Y-10880000D02*
X19040000Y-10920000D01*
X19060000Y-10350000D02*
X19100000Y-10390000D01*
X19100000Y-10350000D02*
X19060000Y-10390000D01*
X19070000Y-8620000D02*
X19110000Y-8660000D01*
X19110000Y-8620000D02*
X19070000Y-8660000D01*
X19070000Y-8950000D02*
X19110000Y-8990000D01*
X19110000Y-8950000D02*
X19070000Y-8990000D01*
X19080000Y-12510000D02*
X19120000Y-12550000D01*
X19120000Y-12510000D02*
X19080000Y-12550000D01*
X19100000Y-7220000D02*
X19140000Y-7260000D01*
X19140000Y-7220000D02*
X19100000Y-7260000D01*
X19120000Y-12150000D02*
X19160000Y-12190000D01*
X19160000Y-12150000D02*
X19120000Y-12190000D01*
X19360000Y-7750000D02*
X19400000Y-7790000D01*
X19400000Y-7750000D02*
X19360000Y-7790000D01*
X19580000Y-4660000D02*
X19620000Y-4700000D01*
X19620000Y-4660000D02*
X19580000Y-4700000D01*
X19610000Y-5960000D02*
X19650000Y-6000000D01*
X19650000Y-5960000D02*
X19610000Y-6000000D01*
X19640000Y-4190000D02*
X19680000Y-4230000D01*
X19680000Y-4190000D02*
X19640000Y-4230000D01*
X20170000Y-12430000D02*
X20210000Y-12470000D01*
X20210000Y-12430000D02*
X20170000Y-12470000D01*
X20190000Y-11470000D02*
X20230000Y-11510000D01*
X20230000Y-11470000D02*
X20190000Y-11510000D01*
X20200000Y-11920000D02*
X20240000Y-11960000D01*
X20240000Y-11920000D02*
X20200000Y-11960000D01*
X20350000Y-8530000D02*
X20390000Y-8570000D01*
X20390000Y-8530000D02*
X20350000Y-8570000D01*
X20350000Y-9010000D02*
X20390000Y-9050000D01*
X20390000Y-9010000D02*
X20350000Y-9050000D01*
X20350000Y-10220000D02*
X20390000Y-10260000D01*
X20390000Y-10220000D02*
X20350000Y-10260000D01*
X20370000Y-10730000D02*
X20410000Y-10770000D01*
X20410000Y-10730000D02*
X20370000Y-10770000D01*
X20510000Y-6890000D02*
X20550000Y-6930000D01*
X20550000Y-6890000D02*
X20510000Y-6930000D01*
X20570000Y-9750000D02*
X20610000Y-9790000D01*
X20610000Y-9750000D02*
X20570000Y-9790000D01*
X20570000Y-10260000D02*
X20610000Y-10300000D01*
X20610000Y-10260000D02*
X20570000Y-10300000D01*
X20570000Y-10770000D02*
X20610000Y-10810000D01*
X20610000Y-10770000D02*
X20570000Y-10810000D01*
X20570000Y-11460000D02*
X20610000Y-11500000D01*
X20610000Y-11460000D02*
X20570000Y-11500000D01*
X20570000Y-11950000D02*
X20610000Y-11990000D01*
X20610000Y-11950000D02*
X20570000Y-11990000D01*
X20580000Y-8060000D02*
X20620000Y-8100000D01*
X20620000Y-8060000D02*
X20580000Y-8100000D01*
X20580000Y-8550000D02*
X20620000Y-8590000D01*
X20620000Y-8550000D02*
X20580000Y-8590000D01*
X20580000Y-9060000D02*
X20620000Y-9100000D01*
X20620000Y-9060000D02*
X20580000Y-9100000D01*
X20580000Y-12450000D02*
X20620000Y-12490000D01*
X20620000Y-12450000D02*
X20580000Y-12490000D01*
X20720000Y-7970000D02*
X20760000Y-8010000D01*
X20760000Y-7970000D02*
X20720000Y-8010000D01*
X20740000Y-7280000D02*
X20780000Y-7320000D01*
X20780000Y-7280000D02*
X20740000Y-7320000D01*
X20750000Y-7830000D02*
X20790000Y-7870000D01*
X20790000Y-7830000D02*
X20750000Y-7870000D01*
X20750000Y-9630000D02*
X20790000Y-9670000D01*
X20790000Y-9630000D02*
X20750000Y-9670000D01*
X20830000Y-12980000D02*
X20870000Y-13020000D01*
X20870000Y-12980000D02*
X20830000Y-13020000D01*
X20840000Y-11390000D02*
X20880000Y-11430000D01*
X20880000Y-11390000D02*
X20840000Y-11430000D01*
X20990000Y-11290000D02*
X21030000Y-11330000D01*
X21030000Y-11290000D02*
X20990000Y-11330000D01*
X21030000Y-9640000D02*
X21070000Y-9680000D01*
X21070000Y-9640000D02*
X21030000Y-9680000D01*
X21040000Y-10680000D02*
X21080000Y-10720000D01*
X21080000Y-10680000D02*
X21040000Y-10720000D01*
X21070000Y-10020000D02*
X21110000Y-10060000D01*
X21110000Y-10020000D02*
X21070000Y-10060000D01*
X21150000Y-12630000D02*
X21190000Y-12670000D01*
X21190000Y-12630000D02*
X21150000Y-12670000D01*
X21170000Y-11050000D02*
X21210000Y-11090000D01*
X21210000Y-11050000D02*
X21170000Y-11090000D01*
X21190000Y-12250000D02*
X21230000Y-12290000D01*
X21230000Y-12250000D02*
X21190000Y-12290000D01*
X21310000Y-11650000D02*
X21350000Y-11690000D01*
X21350000Y-11650000D02*
X21310000Y-11690000D01*
X21330000Y-6450000D02*
X21370000Y-6490000D01*
X21370000Y-6450000D02*
X21330000Y-6490000D01*
X21360000Y-11980000D02*
X21400000Y-12020000D01*
X21400000Y-11980000D02*
X21360000Y-12020000D01*
X21440000Y-11470000D02*
X21480000Y-11510000D01*
X21480000Y-11470000D02*
X21440000Y-11510000D01*
X21460000Y-12970000D02*
X21500000Y-13010000D01*
X21500000Y-12970000D02*
X21460000Y-13010000D01*
X21520000Y-11730000D02*
X21560000Y-11770000D01*
X21560000Y-11730000D02*
X21520000Y-11770000D01*
X21560000Y-11330000D02*
X21600000Y-11370000D01*
X21600000Y-11330000D02*
X21560000Y-11370000D01*
X21820000Y-13520000D02*
X21860000Y-13560000D01*
X21860000Y-13520000D02*
X21820000Y-13560000D01*
X13738000Y-13100000D02*
G75*
G03*
X13738000Y-13100000I-38000J0D01*
G01*
X13865000Y-13354000D02*
G75*
G03*
X13865000Y-13354000I-38000J0D01*
G01*
X13992000Y-13100000D02*
G75*
G03*
X13992000Y-13100000I-38000J0D01*
G01*
X14119000Y-13354000D02*
G75*
G03*
X14119000Y-13354000I-38000J0D01*
G01*
X14246000Y-13100000D02*
G75*
G03*
X14246000Y-13100000I-38000J0D01*
G01*
X14373000Y-13354000D02*
G75*
G03*
X14373000Y-13354000I-38000J0D01*
G01*
X5354000Y-13591900D02*
X5354000Y-13668100D01*
X5315900Y-13630000D02*
X5392100Y-13630000D01*
X5354000Y-14099900D02*
X5354000Y-14176100D01*
X5315900Y-14138000D02*
X5392100Y-14138000D01*
X5608000Y-13591900D02*
X5608000Y-13668100D01*
X5569900Y-13630000D02*
X5646100Y-13630000D01*
X5608000Y-14099900D02*
X5608000Y-14176100D01*
X5569900Y-14138000D02*
X5646100Y-14138000D01*
X5862000Y-13591900D02*
X5862000Y-13668100D01*
X5823900Y-13630000D02*
X5900100Y-13630000D01*
X5862000Y-14099900D02*
X5862000Y-14176100D01*
X5823900Y-14138000D02*
X5900100Y-14138000D01*
X8390000Y-11051900D02*
X8390000Y-11128100D01*
X8351900Y-11090000D02*
X8428100Y-11090000D01*
X8390000Y-11305900D02*
X8390000Y-11382100D01*
X8351900Y-11344000D02*
X8428100Y-11344000D01*
X8390000Y-12197900D02*
X8390000Y-12274100D01*
X8351900Y-12236000D02*
X8428100Y-12236000D01*
X8390000Y-12451900D02*
X8390000Y-12528100D01*
X8351900Y-12490000D02*
X8428100Y-12490000D01*
X10300000Y-11041900D02*
X10300000Y-11118100D01*
X10261900Y-11080000D02*
X10338100Y-11080000D01*
X10990000Y-11051900D02*
X10990000Y-11128100D01*
X10951900Y-11090000D02*
X11028100Y-11090000D01*
X10990000Y-11305900D02*
X10990000Y-11382100D01*
X10951900Y-11344000D02*
X11028100Y-11344000D01*
X10990000Y-12197900D02*
X10990000Y-12274100D01*
X10951900Y-12236000D02*
X11028100Y-12236000D01*
X10990000Y-12451900D02*
X10990000Y-12528100D01*
X10951900Y-12490000D02*
X11028100Y-12490000D01*
X16854000Y-4591900D02*
X16854000Y-4668100D01*
X16815900Y-4630000D02*
X16892100Y-4630000D01*
X16854000Y-5099900D02*
X16854000Y-5176100D01*
X16815900Y-5138000D02*
X16892100Y-5138000D01*
X17108000Y-4591900D02*
X17108000Y-4668100D01*
X17069900Y-4630000D02*
X17146100Y-4630000D01*
X17108000Y-5099900D02*
X17108000Y-5176100D01*
X17069900Y-5138000D02*
X17146100Y-5138000D01*
X17362000Y-4591900D02*
X17362000Y-4668100D01*
X17323900Y-4630000D02*
X17400100Y-4630000D01*
X17362000Y-5099900D02*
X17362000Y-5176100D01*
X17323900Y-5138000D02*
X17400100Y-5138000D01*
X17616000Y-4591900D02*
X17616000Y-4668100D01*
X17577900Y-4630000D02*
X17654100Y-4630000D01*
X17616000Y-5099900D02*
X17616000Y-5176100D01*
X17577900Y-5138000D02*
X17654100Y-5138000D01*
X18554000Y-4591900D02*
X18554000Y-4668100D01*
X18515900Y-4630000D02*
X18592100Y-4630000D01*
X18554000Y-5099900D02*
X18554000Y-5176100D01*
X18515900Y-5138000D02*
X18592100Y-5138000D01*
X18808000Y-4591900D02*
X18808000Y-4668100D01*
X18769900Y-4630000D02*
X18846100Y-4630000D01*
X18808000Y-5099900D02*
X18808000Y-5176100D01*
X18769900Y-5138000D02*
X18846100Y-5138000D01*
X19062000Y-4591900D02*
X19062000Y-4668100D01*
X19023900Y-4630000D02*
X19100100Y-4630000D01*
X19062000Y-5099900D02*
X19062000Y-5176100D01*
X19023900Y-5138000D02*
X19100100Y-5138000D01*
X19316000Y-4591900D02*
X19316000Y-4668100D01*
X19277900Y-4630000D02*
X19354100Y-4630000D01*
X19316000Y-5099900D02*
X19316000Y-5176100D01*
X19277900Y-5138000D02*
X19354100Y-5138000D01*
X20754000Y-13591900D02*
X20754000Y-13668100D01*
X20715900Y-13630000D02*
X20792100Y-13630000D01*
X20754000Y-14099900D02*
X20754000Y-14176100D01*
X20715900Y-14138000D02*
X20792100Y-14138000D01*
X21008000Y-13591900D02*
X21008000Y-13668100D01*
X20969900Y-13630000D02*
X21046100Y-13630000D01*
X21008000Y-14099900D02*
X21008000Y-14176100D01*
X20969900Y-14138000D02*
X21046100Y-14138000D01*
X21262000Y-13591900D02*
X21262000Y-13668100D01*
X21223900Y-13630000D02*
X21300100Y-13630000D01*
X21262000Y-14099900D02*
X21262000Y-14176100D01*
X21223900Y-14138000D02*
X21300100Y-14138000D01*
X21516000Y-13591900D02*
X21516000Y-13668100D01*
X21477900Y-13630000D02*
X21554100Y-13630000D01*
X21516000Y-14099900D02*
X21516000Y-14176100D01*
X21477900Y-14138000D02*
X21554100Y-14138000D01*
X15331820Y-13531820D02*
X15331820Y-13468180D01*
X15268180Y-13468180D01*
X15268180Y-13531820D01*
X15331820Y-13531820D01*
X15458820Y-13277820D02*
X15458820Y-13214180D01*
X15395180Y-13214180D01*
X15395180Y-13277820D01*
X15458820Y-13277820D01*
X15585820Y-13531820D02*
X15585820Y-13468180D01*
X15522180Y-13468180D01*
X15522180Y-13531820D01*
X15585820Y-13531820D01*
X15712820Y-13277820D02*
X15712820Y-13214180D01*
X15649180Y-13214180D01*
X15649180Y-13277820D01*
X15712820Y-13277820D01*
X15839820Y-13531820D02*
X15839820Y-13468180D01*
X15776180Y-13468180D01*
X15776180Y-13531820D01*
X15839820Y-13531820D01*
X15966820Y-13277820D02*
X15966820Y-13214180D01*
X15903180Y-13214180D01*
X15903180Y-13277820D01*
X15966820Y-13277820D01*
X16093820Y-13531820D02*
X16093820Y-13468180D01*
X16030180Y-13468180D01*
X16030180Y-13531820D01*
X16093820Y-13531820D01*
X16220820Y-13277820D02*
X16220820Y-13214180D01*
X16157180Y-13214180D01*
X16157180Y-13277820D01*
X16220820Y-13277820D01*
X15550000Y-4646000D02*
X15596000Y-4600000D01*
X15550000Y-4554000D01*
X15504000Y-4600000D01*
X15550000Y-4646000D01*
X15550000Y-4966000D02*
X15596000Y-4920000D01*
X15550000Y-4874000D01*
X15504000Y-4920000D01*
X15550000Y-4966000D01*
X15800000Y-4646000D02*
X15846000Y-4600000D01*
X15800000Y-4554000D01*
X15754000Y-4600000D01*
X15800000Y-4646000D01*
X15800000Y-4966000D02*
X15846000Y-4920000D01*
X15800000Y-4874000D01*
X15754000Y-4920000D01*
X15800000Y-4966000D01*
X8470000Y-5270000D02*
X8570000Y-5370000D01*
X8570000Y-5270000D02*
X8470000Y-5370000D01*
X8570000Y-5320000D02*
G75*
G03*
X8570000Y-5320000I-50000J0D01*
G01*
X8724000Y-5270000D02*
X8824000Y-5370000D01*
X8824000Y-5270000D02*
X8724000Y-5370000D01*
X8824000Y-5320000D02*
G75*
G03*
X8824000Y-5320000I-50000J0D01*
G01*
X8978000Y-5270000D02*
X9078000Y-5370000D01*
X9078000Y-5270000D02*
X8978000Y-5370000D01*
X9078000Y-5320000D02*
G75*
G03*
X9078000Y-5320000I-50000J0D01*
G01*
X9232000Y-5270000D02*
X9332000Y-5370000D01*
X9332000Y-5270000D02*
X9232000Y-5370000D01*
X9332000Y-5320000D02*
G75*
G03*
X9332000Y-5320000I-50000J0D01*
G01*
X9742000Y-10050000D02*
X9842000Y-10150000D01*
X9842000Y-10050000D02*
X9742000Y-10150000D01*
X9842000Y-10100000D02*
G75*
G03*
X9842000Y-10100000I-50000J0D01*
G01*
X9996000Y-10050000D02*
X10096000Y-10150000D01*
X10096000Y-10050000D02*
X9996000Y-10150000D01*
X10096000Y-10100000D02*
G75*
G03*
X10096000Y-10100000I-50000J0D01*
G01*
X10250000Y-10050000D02*
X10350000Y-10150000D01*
X10350000Y-10050000D02*
X10250000Y-10150000D01*
X10350000Y-10100000D02*
G75*
G03*
X10350000Y-10100000I-50000J0D01*
G01*
X11150000Y-9517214D02*
X11250000Y-9617214D01*
X11250000Y-9517214D02*
X11150000Y-9617214D01*
X11250000Y-9567214D02*
G75*
G03*
X11250000Y-9567214I-50000J0D01*
G01*
X11350000Y-8950000D02*
X11450000Y-9050000D01*
X11450000Y-8950000D02*
X11350000Y-9050000D01*
X11450000Y-9000000D02*
G75*
G03*
X11450000Y-9000000I-50000J0D01*
G01*
X11350000Y-9450000D02*
X11450000Y-9550000D01*
X11450000Y-9450000D02*
X11350000Y-9550000D01*
X11450000Y-9500000D02*
G75*
G03*
X11450000Y-9500000I-50000J0D01*
G01*
X11550000Y-8882786D02*
X11650000Y-8982786D01*
X11650000Y-8882786D02*
X11550000Y-8982786D01*
X11650000Y-8932786D02*
G75*
G03*
X11650000Y-8932786I-50000J0D01*
G01*
X12282786Y-7750000D02*
X12382786Y-7850000D01*
X12382786Y-7750000D02*
X12282786Y-7850000D01*
X12382786Y-7800000D02*
G75*
G03*
X12382786Y-7800000I-50000J0D01*
G01*
X12350000Y-7950000D02*
X12450000Y-8050000D01*
X12450000Y-7950000D02*
X12350000Y-8050000D01*
X12450000Y-8000000D02*
G75*
G03*
X12450000Y-8000000I-50000J0D01*
G01*
X12850000Y-7950000D02*
X12950000Y-8050000D01*
X12950000Y-7950000D02*
X12850000Y-8050000D01*
X12950000Y-8000000D02*
G75*
G03*
X12950000Y-8000000I-50000J0D01*
G01*
X12917214Y-8150000D02*
X13017214Y-8250000D01*
X13017214Y-8150000D02*
X12917214Y-8250000D01*
X13017214Y-8200000D02*
G75*
G03*
X13017214Y-8200000I-50000J0D01*
G01*
X5435000Y-6505000D02*
X5545000Y-6615000D01*
X5545000Y-6505000D02*
X5435000Y-6615000D01*
X5490000Y-6505000D02*
X5490000Y-6615000D01*
X5435000Y-6560000D02*
X5545000Y-6560000D01*
X5435000Y-7155000D02*
X5545000Y-7265000D01*
X5545000Y-7155000D02*
X5435000Y-7265000D01*
X5490000Y-7155000D02*
X5490000Y-7265000D01*
X5435000Y-7210000D02*
X5545000Y-7210000D01*
X5885000Y-6505000D02*
X5995000Y-6615000D01*
X5995000Y-6505000D02*
X5885000Y-6615000D01*
X5940000Y-6505000D02*
X5940000Y-6615000D01*
X5885000Y-6560000D02*
X5995000Y-6560000D01*
X5885000Y-7155000D02*
X5995000Y-7265000D01*
X5995000Y-7155000D02*
X5885000Y-7265000D01*
X5940000Y-7155000D02*
X5940000Y-7265000D01*
X5885000Y-7210000D02*
X5995000Y-7210000D01*
X16440000Y-7590000D02*
X16560000Y-7710000D01*
X16560000Y-7590000D02*
X16440000Y-7710000D01*
X16542427Y-7692427D02*
X16542427Y-7607573D01*
X16457573Y-7607573D01*
X16457573Y-7692427D01*
X16542427Y-7692427D01*
X16440000Y-7940000D02*
X16560000Y-8060000D01*
X16560000Y-7940000D02*
X16440000Y-8060000D01*
X16542427Y-8042427D02*
X16542427Y-7957573D01*
X16457573Y-7957573D01*
X16457573Y-8042427D01*
X16542427Y-8042427D01*
X16440000Y-8290000D02*
X16560000Y-8410000D01*
X16560000Y-8290000D02*
X16440000Y-8410000D01*
X16542427Y-8392427D02*
X16542427Y-8307573D01*
X16457573Y-8307573D01*
X16457573Y-8392427D01*
X16542427Y-8392427D01*
X16440000Y-8640000D02*
X16560000Y-8760000D01*
X16560000Y-8640000D02*
X16440000Y-8760000D01*
X16542427Y-8742427D02*
X16542427Y-8657573D01*
X16457573Y-8657573D01*
X16457573Y-8742427D01*
X16542427Y-8742427D01*
X16440000Y-9388000D02*
X16560000Y-9508000D01*
X16560000Y-9388000D02*
X16440000Y-9508000D01*
X16542427Y-9490427D02*
X16542427Y-9405573D01*
X16457573Y-9405573D01*
X16457573Y-9490427D01*
X16542427Y-9490427D01*
X16440000Y-9738000D02*
X16560000Y-9858000D01*
X16560000Y-9738000D02*
X16440000Y-9858000D01*
X16542427Y-9840427D02*
X16542427Y-9755573D01*
X16457573Y-9755573D01*
X16457573Y-9840427D01*
X16542427Y-9840427D01*
X16440000Y-10088000D02*
X16560000Y-10208000D01*
X16560000Y-10088000D02*
X16440000Y-10208000D01*
X16542427Y-10190427D02*
X16542427Y-10105573D01*
X16457573Y-10105573D01*
X16457573Y-10190427D01*
X16542427Y-10190427D01*
X16440000Y-10438000D02*
X16560000Y-10558000D01*
X16560000Y-10438000D02*
X16440000Y-10558000D01*
X16542427Y-10540427D02*
X16542427Y-10455573D01*
X16457573Y-10455573D01*
X16457573Y-10540427D01*
X16542427Y-10540427D01*
X16440000Y-11190000D02*
X16560000Y-11310000D01*
X16560000Y-11190000D02*
X16440000Y-11310000D01*
X16542427Y-11292427D02*
X16542427Y-11207573D01*
X16457573Y-11207573D01*
X16457573Y-11292427D01*
X16542427Y-11292427D01*
X16440000Y-11540000D02*
X16560000Y-11660000D01*
X16560000Y-11540000D02*
X16440000Y-11660000D01*
X16542427Y-11642427D02*
X16542427Y-11557573D01*
X16457573Y-11557573D01*
X16457573Y-11642427D01*
X16542427Y-11642427D01*
X16440000Y-11890000D02*
X16560000Y-12010000D01*
X16560000Y-11890000D02*
X16440000Y-12010000D01*
X16542427Y-11992427D02*
X16542427Y-11907573D01*
X16457573Y-11907573D01*
X16457573Y-11992427D01*
X16542427Y-11992427D01*
X16440000Y-12240000D02*
X16560000Y-12360000D01*
X16560000Y-12240000D02*
X16440000Y-12360000D01*
X16542427Y-12342427D02*
X16542427Y-12257573D01*
X16457573Y-12257573D01*
X16457573Y-12342427D01*
X16542427Y-12342427D01*
X19340000Y-8040000D02*
X19460000Y-8160000D01*
X19460000Y-8040000D02*
X19340000Y-8160000D01*
X19442427Y-8142427D02*
X19442427Y-8057573D01*
X19357573Y-8057573D01*
X19357573Y-8142427D01*
X19442427Y-8142427D01*
X19340000Y-8390000D02*
X19460000Y-8510000D01*
X19460000Y-8390000D02*
X19340000Y-8510000D01*
X19442427Y-8492427D02*
X19442427Y-8407573D01*
X19357573Y-8407573D01*
X19357573Y-8492427D01*
X19442427Y-8492427D01*
X19340000Y-8740000D02*
X19460000Y-8860000D01*
X19460000Y-8740000D02*
X19340000Y-8860000D01*
X19442427Y-8842427D02*
X19442427Y-8757573D01*
X19357573Y-8757573D01*
X19357573Y-8842427D01*
X19442427Y-8842427D01*
X19340000Y-9090000D02*
X19460000Y-9210000D01*
X19460000Y-9090000D02*
X19340000Y-9210000D01*
X19442427Y-9192427D02*
X19442427Y-9107573D01*
X19357573Y-9107573D01*
X19357573Y-9192427D01*
X19442427Y-9192427D01*
X19340000Y-9790000D02*
X19460000Y-9910000D01*
X19460000Y-9790000D02*
X19340000Y-9910000D01*
X19442427Y-9892427D02*
X19442427Y-9807573D01*
X19357573Y-9807573D01*
X19357573Y-9892427D01*
X19442427Y-9892427D01*
X19340000Y-10140000D02*
X19460000Y-10260000D01*
X19460000Y-10140000D02*
X19340000Y-10260000D01*
X19442427Y-10242427D02*
X19442427Y-10157573D01*
X19357573Y-10157573D01*
X19357573Y-10242427D01*
X19442427Y-10242427D01*
X19340000Y-10490000D02*
X19460000Y-10610000D01*
X19460000Y-10490000D02*
X19340000Y-10610000D01*
X19442427Y-10592427D02*
X19442427Y-10507573D01*
X19357573Y-10507573D01*
X19357573Y-10592427D01*
X19442427Y-10592427D01*
X19340000Y-10840000D02*
X19460000Y-10960000D01*
X19460000Y-10840000D02*
X19340000Y-10960000D01*
X19442427Y-10942427D02*
X19442427Y-10857573D01*
X19357573Y-10857573D01*
X19357573Y-10942427D01*
X19442427Y-10942427D01*
X19340000Y-11590000D02*
X19460000Y-11710000D01*
X19460000Y-11590000D02*
X19340000Y-11710000D01*
X19442427Y-11692427D02*
X19442427Y-11607573D01*
X19357573Y-11607573D01*
X19357573Y-11692427D01*
X19442427Y-11692427D01*
X19340000Y-11940000D02*
X19460000Y-12060000D01*
X19460000Y-11940000D02*
X19340000Y-12060000D01*
X19442427Y-12042427D02*
X19442427Y-11957573D01*
X19357573Y-11957573D01*
X19357573Y-12042427D01*
X19442427Y-12042427D01*
X19340000Y-12290000D02*
X19460000Y-12410000D01*
X19460000Y-12290000D02*
X19340000Y-12410000D01*
X19442427Y-12392427D02*
X19442427Y-12307573D01*
X19357573Y-12307573D01*
X19357573Y-12392427D01*
X19442427Y-12392427D01*
X19340000Y-12640000D02*
X19460000Y-12760000D01*
X19460000Y-12640000D02*
X19340000Y-12760000D01*
X19442427Y-12742427D02*
X19442427Y-12657573D01*
X19357573Y-12657573D01*
X19357573Y-12742427D01*
X19442427Y-12742427D01*
X7830000Y-14330000D02*
X7970000Y-14470000D01*
X7970000Y-14330000D02*
X7830000Y-14470000D01*
X7900000Y-14470000D02*
X7970000Y-14400000D01*
X7900000Y-14330000D01*
X7830000Y-14400000D01*
X7900000Y-14470000D01*
X8338000Y-14330000D02*
X8478000Y-14470000D01*
X8478000Y-14330000D02*
X8338000Y-14470000D01*
X8408000Y-14470000D02*
X8478000Y-14400000D01*
X8408000Y-14330000D01*
X8338000Y-14400000D01*
X8408000Y-14470000D01*
X8846000Y-14330000D02*
X8986000Y-14470000D01*
X8986000Y-14330000D02*
X8846000Y-14470000D01*
X8916000Y-14470000D02*
X8986000Y-14400000D01*
X8916000Y-14330000D01*
X8846000Y-14400000D01*
X8916000Y-14470000D01*
X9930000Y-14330000D02*
X10070000Y-14470000D01*
X10070000Y-14330000D02*
X9930000Y-14470000D01*
X10000000Y-14470000D02*
X10070000Y-14400000D01*
X10000000Y-14330000D01*
X9930000Y-14400000D01*
X10000000Y-14470000D01*
X10438000Y-14330000D02*
X10578000Y-14470000D01*
X10578000Y-14330000D02*
X10438000Y-14470000D01*
X10508000Y-14470000D02*
X10578000Y-14400000D01*
X10508000Y-14330000D01*
X10438000Y-14400000D01*
X10508000Y-14470000D01*
X10946000Y-14330000D02*
X11086000Y-14470000D01*
X11086000Y-14330000D02*
X10946000Y-14470000D01*
X11016000Y-14470000D02*
X11086000Y-14400000D01*
X11016000Y-14330000D01*
X10946000Y-14400000D01*
X11016000Y-14470000D01*
X12022000Y-14230000D02*
X12162000Y-14370000D01*
X12162000Y-14230000D02*
X12022000Y-14370000D01*
X12092000Y-14370000D02*
X12162000Y-14300000D01*
X12092000Y-14230000D01*
X12022000Y-14300000D01*
X12092000Y-14370000D01*
X12530000Y-14230000D02*
X12670000Y-14370000D01*
X12670000Y-14230000D02*
X12530000Y-14370000D01*
X12600000Y-14370000D02*
X12670000Y-14300000D01*
X12600000Y-14230000D01*
X12530000Y-14300000D01*
X12600000Y-14370000D01*
X12100000Y-10625000D02*
X12100000Y-10775000D01*
X12025000Y-10700000D02*
X12175000Y-10700000D01*
X12175000Y-10700000D02*
G75*
G03*
X12175000Y-10700000I-75000J0D01*
G01*
X12100000Y-12825000D02*
X12100000Y-12975000D01*
X12025000Y-12900000D02*
X12175000Y-12900000D01*
X12175000Y-12900000D02*
G75*
G03*
X12175000Y-12900000I-75000J0D01*
G01*
X15154318Y-4952318D02*
X15154318Y-4789682D01*
X14991682Y-4789682D01*
X14991682Y-4952318D01*
X15154318Y-4952318D01*
X15188000Y-4871000D02*
G75*
G03*
X15188000Y-4871000I-115000J0D01*
G01*
X16358318Y-4952318D02*
X16358318Y-4789682D01*
X16195682Y-4789682D01*
X16195682Y-4952318D01*
X16358318Y-4952318D01*
X16392000Y-4871000D02*
G75*
G03*
X16392000Y-4871000I-115000J0D01*
G01*
D12*
X5283928Y-15468214D02*
X5283928Y-15168214D01*
X5355357Y-15168214D01*
X5398214Y-15182500D01*
X5426786Y-15211071D01*
X5441071Y-15239643D01*
X5455357Y-15296786D01*
X5455357Y-15339643D01*
X5441071Y-15396786D01*
X5426786Y-15425357D01*
X5398214Y-15453929D01*
X5355357Y-15468214D01*
X5283928Y-15468214D01*
X5583928Y-15468214D02*
X5583928Y-15268214D01*
X5583928Y-15325357D02*
X5598214Y-15296786D01*
X5612500Y-15282500D01*
X5641071Y-15268214D01*
X5669643Y-15268214D01*
X5769643Y-15468214D02*
X5769643Y-15268214D01*
X5769643Y-15168214D02*
X5755357Y-15182500D01*
X5769643Y-15196786D01*
X5783928Y-15182500D01*
X5769643Y-15168214D01*
X5769643Y-15196786D01*
X5955357Y-15468214D02*
X5926786Y-15453929D01*
X5912500Y-15425357D01*
X5912500Y-15168214D01*
X6112500Y-15468214D02*
X6083928Y-15453929D01*
X6069643Y-15425357D01*
X6069643Y-15168214D01*
X6455357Y-15468214D02*
X6455357Y-15168214D01*
X6555357Y-15382500D01*
X6655357Y-15168214D01*
X6655357Y-15468214D01*
X6926786Y-15468214D02*
X6926786Y-15311071D01*
X6912500Y-15282500D01*
X6883928Y-15268214D01*
X6826786Y-15268214D01*
X6798214Y-15282500D01*
X6926786Y-15453929D02*
X6898214Y-15468214D01*
X6826786Y-15468214D01*
X6798214Y-15453929D01*
X6783928Y-15425357D01*
X6783928Y-15396786D01*
X6798214Y-15368214D01*
X6826786Y-15353929D01*
X6898214Y-15353929D01*
X6926786Y-15339643D01*
X7069643Y-15268214D02*
X7069643Y-15568214D01*
X7069643Y-15282500D02*
X7098214Y-15268214D01*
X7155357Y-15268214D01*
X7183928Y-15282500D01*
X7198214Y-15296786D01*
X7212500Y-15325357D01*
X7212500Y-15411071D01*
X7198214Y-15439643D01*
X7183928Y-15453929D01*
X7155357Y-15468214D01*
X7098214Y-15468214D01*
X7069643Y-15453929D01*
X7341071Y-15439643D02*
X7355357Y-15453929D01*
X7341071Y-15468214D01*
X7326786Y-15453929D01*
X7341071Y-15439643D01*
X7341071Y-15468214D01*
X7341071Y-15282500D02*
X7355357Y-15296786D01*
X7341071Y-15311071D01*
X7326786Y-15296786D01*
X7341071Y-15282500D01*
X7341071Y-15311071D01*
X4957500Y-15942500D02*
X4997500Y-15982500D01*
X4997500Y-15942500D02*
X4957500Y-15982500D01*
X5341071Y-15798214D02*
X5369643Y-15798214D01*
X5398214Y-15812500D01*
X5412500Y-15826786D01*
X5426786Y-15855357D01*
X5441071Y-15912500D01*
X5441071Y-15983929D01*
X5426786Y-16041071D01*
X5412500Y-16069643D01*
X5398214Y-16083929D01*
X5369643Y-16098214D01*
X5341071Y-16098214D01*
X5312500Y-16083929D01*
X5298214Y-16069643D01*
X5283928Y-16041071D01*
X5269643Y-15983929D01*
X5269643Y-15912500D01*
X5283928Y-15855357D01*
X5298214Y-15826786D01*
X5312500Y-15812500D01*
X5341071Y-15798214D01*
X5569643Y-16069643D02*
X5583928Y-16083929D01*
X5569643Y-16098214D01*
X5555357Y-16083929D01*
X5569643Y-16069643D01*
X5569643Y-16098214D01*
X5841071Y-15898214D02*
X5841071Y-16098214D01*
X5769643Y-15783929D02*
X5698214Y-15998214D01*
X5883928Y-15998214D01*
X6055357Y-15798214D02*
X6083928Y-15798214D01*
X6112500Y-15812500D01*
X6126786Y-15826786D01*
X6141071Y-15855357D01*
X6155357Y-15912500D01*
X6155357Y-15983929D01*
X6141071Y-16041071D01*
X6126786Y-16069643D01*
X6112500Y-16083929D01*
X6083928Y-16098214D01*
X6055357Y-16098214D01*
X6026786Y-16083929D01*
X6012500Y-16069643D01*
X5998214Y-16041071D01*
X5983928Y-15983929D01*
X5983928Y-15912500D01*
X5998214Y-15855357D01*
X6012500Y-15826786D01*
X6026786Y-15812500D01*
X6055357Y-15798214D01*
X6283928Y-16098214D02*
X6283928Y-15898214D01*
X6283928Y-15926786D02*
X6298214Y-15912500D01*
X6326786Y-15898214D01*
X6369643Y-15898214D01*
X6398214Y-15912500D01*
X6412500Y-15941071D01*
X6412500Y-16098214D01*
X6412500Y-15941071D02*
X6426786Y-15912500D01*
X6455357Y-15898214D01*
X6498214Y-15898214D01*
X6526786Y-15912500D01*
X6541071Y-15941071D01*
X6541071Y-16098214D01*
X6683928Y-16098214D02*
X6683928Y-15898214D01*
X6683928Y-15926786D02*
X6698214Y-15912500D01*
X6726786Y-15898214D01*
X6769643Y-15898214D01*
X6798214Y-15912500D01*
X6812500Y-15941071D01*
X6812500Y-16098214D01*
X6812500Y-15941071D02*
X6826786Y-15912500D01*
X6855357Y-15898214D01*
X6898214Y-15898214D01*
X6926786Y-15912500D01*
X6941071Y-15941071D01*
X6941071Y-16098214D01*
X7526786Y-15783929D02*
X7269643Y-16169643D01*
X7912500Y-15798214D02*
X7941071Y-15798214D01*
X7969643Y-15812500D01*
X7983928Y-15826786D01*
X7998214Y-15855357D01*
X8012500Y-15912500D01*
X8012500Y-15983929D01*
X7998214Y-16041071D01*
X7983928Y-16069643D01*
X7969643Y-16083929D01*
X7941071Y-16098214D01*
X7912500Y-16098214D01*
X7883928Y-16083929D01*
X7869643Y-16069643D01*
X7855357Y-16041071D01*
X7841071Y-15983929D01*
X7841071Y-15912500D01*
X7855357Y-15855357D01*
X7869643Y-15826786D01*
X7883928Y-15812500D01*
X7912500Y-15798214D01*
X8141071Y-16069643D02*
X8155357Y-16083929D01*
X8141071Y-16098214D01*
X8126786Y-16083929D01*
X8141071Y-16069643D01*
X8141071Y-16098214D01*
X8341071Y-15798214D02*
X8369643Y-15798214D01*
X8398214Y-15812500D01*
X8412500Y-15826786D01*
X8426786Y-15855357D01*
X8441071Y-15912500D01*
X8441071Y-15983929D01*
X8426786Y-16041071D01*
X8412500Y-16069643D01*
X8398214Y-16083929D01*
X8369643Y-16098214D01*
X8341071Y-16098214D01*
X8312500Y-16083929D01*
X8298214Y-16069643D01*
X8283928Y-16041071D01*
X8269643Y-15983929D01*
X8269643Y-15912500D01*
X8283928Y-15855357D01*
X8298214Y-15826786D01*
X8312500Y-15812500D01*
X8341071Y-15798214D01*
X8726786Y-16098214D02*
X8555357Y-16098214D01*
X8641071Y-16098214D02*
X8641071Y-15798214D01*
X8612500Y-15841071D01*
X8583928Y-15869643D01*
X8555357Y-15883929D01*
X8983928Y-15798214D02*
X8926786Y-15798214D01*
X8898214Y-15812500D01*
X8883928Y-15826786D01*
X8855357Y-15869643D01*
X8841071Y-15926786D01*
X8841071Y-16041071D01*
X8855357Y-16069643D01*
X8869643Y-16083929D01*
X8898214Y-16098214D01*
X8955357Y-16098214D01*
X8983928Y-16083929D01*
X8998214Y-16069643D01*
X9012500Y-16041071D01*
X9012500Y-15969643D01*
X8998214Y-15941071D01*
X8983928Y-15926786D01*
X8955357Y-15912500D01*
X8898214Y-15912500D01*
X8869643Y-15926786D01*
X8855357Y-15941071D01*
X8841071Y-15969643D01*
X9126786Y-15798214D02*
X9126786Y-15855357D01*
X9241071Y-15798214D02*
X9241071Y-15855357D01*
X9683928Y-16212500D02*
X9669643Y-16198214D01*
X9641071Y-16155357D01*
X9626786Y-16126786D01*
X9612500Y-16083929D01*
X9598214Y-16012500D01*
X9598214Y-15955357D01*
X9612500Y-15883929D01*
X9626786Y-15841071D01*
X9641071Y-15812500D01*
X9669643Y-15769643D01*
X9683928Y-15755357D01*
X9769643Y-15798214D02*
X9955357Y-15798214D01*
X9855357Y-15912500D01*
X9898214Y-15912500D01*
X9926786Y-15926786D01*
X9941071Y-15941071D01*
X9955357Y-15969643D01*
X9955357Y-16041071D01*
X9941071Y-16069643D01*
X9926786Y-16083929D01*
X9898214Y-16098214D01*
X9812500Y-16098214D01*
X9783928Y-16083929D01*
X9769643Y-16069643D01*
X10212500Y-15898214D02*
X10212500Y-16098214D01*
X10141071Y-15783929D02*
X10069643Y-15998214D01*
X10255357Y-15998214D01*
X10341071Y-15798214D02*
X10526786Y-15798214D01*
X10426786Y-15912500D01*
X10469643Y-15912500D01*
X10498214Y-15926786D01*
X10512500Y-15941071D01*
X10526786Y-15969643D01*
X10526786Y-16041071D01*
X10512500Y-16069643D01*
X10498214Y-16083929D01*
X10469643Y-16098214D01*
X10383928Y-16098214D01*
X10355357Y-16083929D01*
X10341071Y-16069643D01*
X10883928Y-16098214D02*
X10883928Y-15798214D01*
X11012500Y-16098214D02*
X11012500Y-15941071D01*
X10998214Y-15912500D01*
X10969643Y-15898214D01*
X10926786Y-15898214D01*
X10898214Y-15912500D01*
X10883928Y-15926786D01*
X11198214Y-16098214D02*
X11169643Y-16083929D01*
X11155357Y-16069643D01*
X11141071Y-16041071D01*
X11141071Y-15955357D01*
X11155357Y-15926786D01*
X11169643Y-15912500D01*
X11198214Y-15898214D01*
X11241071Y-15898214D01*
X11269643Y-15912500D01*
X11283928Y-15926786D01*
X11298214Y-15955357D01*
X11298214Y-16041071D01*
X11283928Y-16069643D01*
X11269643Y-16083929D01*
X11241071Y-16098214D01*
X11198214Y-16098214D01*
X11469643Y-16098214D02*
X11441071Y-16083929D01*
X11426786Y-16055357D01*
X11426786Y-15798214D01*
X11698214Y-16083929D02*
X11669643Y-16098214D01*
X11612500Y-16098214D01*
X11583928Y-16083929D01*
X11569643Y-16055357D01*
X11569643Y-15941071D01*
X11583928Y-15912500D01*
X11612500Y-15898214D01*
X11669643Y-15898214D01*
X11698214Y-15912500D01*
X11712500Y-15941071D01*
X11712500Y-15969643D01*
X11569643Y-15998214D01*
X11826786Y-16083929D02*
X11855357Y-16098214D01*
X11912500Y-16098214D01*
X11941071Y-16083929D01*
X11955357Y-16055357D01*
X11955357Y-16041071D01*
X11941071Y-16012500D01*
X11912500Y-15998214D01*
X11869643Y-15998214D01*
X11841071Y-15983929D01*
X11826786Y-15955357D01*
X11826786Y-15941071D01*
X11841071Y-15912500D01*
X11869643Y-15898214D01*
X11912500Y-15898214D01*
X11941071Y-15912500D01*
X12055357Y-16212500D02*
X12069643Y-16198214D01*
X12098214Y-16155357D01*
X12112500Y-16126786D01*
X12126786Y-16083929D01*
X12141071Y-16012500D01*
X12141071Y-15955357D01*
X12126786Y-15883929D01*
X12112500Y-15841071D01*
X12098214Y-15812500D01*
X12069643Y-15769643D01*
X12055357Y-15755357D01*
X4997500Y-16358500D02*
G75*
G03*
X4997500Y-16358500I-38000J0D01*
G01*
X5341071Y-16194214D02*
X5369643Y-16194214D01*
X5398214Y-16208500D01*
X5412500Y-16222786D01*
X5426786Y-16251357D01*
X5441071Y-16308500D01*
X5441071Y-16379929D01*
X5426786Y-16437071D01*
X5412500Y-16465643D01*
X5398214Y-16479929D01*
X5369643Y-16494214D01*
X5341071Y-16494214D01*
X5312500Y-16479929D01*
X5298214Y-16465643D01*
X5283928Y-16437071D01*
X5269643Y-16379929D01*
X5269643Y-16308500D01*
X5283928Y-16251357D01*
X5298214Y-16222786D01*
X5312500Y-16208500D01*
X5341071Y-16194214D01*
X5569643Y-16465643D02*
X5583928Y-16479929D01*
X5569643Y-16494214D01*
X5555357Y-16479929D01*
X5569643Y-16465643D01*
X5569643Y-16494214D01*
X5683928Y-16194214D02*
X5883928Y-16194214D01*
X5755357Y-16494214D01*
X6126786Y-16194214D02*
X6069643Y-16194214D01*
X6041071Y-16208500D01*
X6026786Y-16222786D01*
X5998214Y-16265643D01*
X5983928Y-16322786D01*
X5983928Y-16437071D01*
X5998214Y-16465643D01*
X6012500Y-16479929D01*
X6041071Y-16494214D01*
X6098214Y-16494214D01*
X6126786Y-16479929D01*
X6141071Y-16465643D01*
X6155357Y-16437071D01*
X6155357Y-16365643D01*
X6141071Y-16337071D01*
X6126786Y-16322786D01*
X6098214Y-16308500D01*
X6041071Y-16308500D01*
X6012500Y-16322786D01*
X5998214Y-16337071D01*
X5983928Y-16365643D01*
X6283928Y-16494214D02*
X6283928Y-16294214D01*
X6283928Y-16322786D02*
X6298214Y-16308500D01*
X6326786Y-16294214D01*
X6369643Y-16294214D01*
X6398214Y-16308500D01*
X6412500Y-16337071D01*
X6412500Y-16494214D01*
X6412500Y-16337071D02*
X6426786Y-16308500D01*
X6455357Y-16294214D01*
X6498214Y-16294214D01*
X6526786Y-16308500D01*
X6541071Y-16337071D01*
X6541071Y-16494214D01*
X6683928Y-16494214D02*
X6683928Y-16294214D01*
X6683928Y-16322786D02*
X6698214Y-16308500D01*
X6726786Y-16294214D01*
X6769643Y-16294214D01*
X6798214Y-16308500D01*
X6812500Y-16337071D01*
X6812500Y-16494214D01*
X6812500Y-16337071D02*
X6826786Y-16308500D01*
X6855357Y-16294214D01*
X6898214Y-16294214D01*
X6926786Y-16308500D01*
X6941071Y-16337071D01*
X6941071Y-16494214D01*
X7526786Y-16179929D02*
X7269643Y-16565643D01*
X7912500Y-16194214D02*
X7941071Y-16194214D01*
X7969643Y-16208500D01*
X7983928Y-16222786D01*
X7998214Y-16251357D01*
X8012500Y-16308500D01*
X8012500Y-16379929D01*
X7998214Y-16437071D01*
X7983928Y-16465643D01*
X7969643Y-16479929D01*
X7941071Y-16494214D01*
X7912500Y-16494214D01*
X7883928Y-16479929D01*
X7869643Y-16465643D01*
X7855357Y-16437071D01*
X7841071Y-16379929D01*
X7841071Y-16308500D01*
X7855357Y-16251357D01*
X7869643Y-16222786D01*
X7883928Y-16208500D01*
X7912500Y-16194214D01*
X8141071Y-16465643D02*
X8155357Y-16479929D01*
X8141071Y-16494214D01*
X8126786Y-16479929D01*
X8141071Y-16465643D01*
X8141071Y-16494214D01*
X8341071Y-16194214D02*
X8369643Y-16194214D01*
X8398214Y-16208500D01*
X8412500Y-16222786D01*
X8426786Y-16251357D01*
X8441071Y-16308500D01*
X8441071Y-16379929D01*
X8426786Y-16437071D01*
X8412500Y-16465643D01*
X8398214Y-16479929D01*
X8369643Y-16494214D01*
X8341071Y-16494214D01*
X8312500Y-16479929D01*
X8298214Y-16465643D01*
X8283928Y-16437071D01*
X8269643Y-16379929D01*
X8269643Y-16308500D01*
X8283928Y-16251357D01*
X8298214Y-16222786D01*
X8312500Y-16208500D01*
X8341071Y-16194214D01*
X8541071Y-16194214D02*
X8726786Y-16194214D01*
X8626786Y-16308500D01*
X8669643Y-16308500D01*
X8698214Y-16322786D01*
X8712500Y-16337071D01*
X8726786Y-16365643D01*
X8726786Y-16437071D01*
X8712500Y-16465643D01*
X8698214Y-16479929D01*
X8669643Y-16494214D01*
X8583928Y-16494214D01*
X8555357Y-16479929D01*
X8541071Y-16465643D01*
X8912500Y-16194214D02*
X8941071Y-16194214D01*
X8969643Y-16208500D01*
X8983928Y-16222786D01*
X8998214Y-16251357D01*
X9012500Y-16308500D01*
X9012500Y-16379929D01*
X8998214Y-16437071D01*
X8983928Y-16465643D01*
X8969643Y-16479929D01*
X8941071Y-16494214D01*
X8912500Y-16494214D01*
X8883928Y-16479929D01*
X8869643Y-16465643D01*
X8855357Y-16437071D01*
X8841071Y-16379929D01*
X8841071Y-16308500D01*
X8855357Y-16251357D01*
X8869643Y-16222786D01*
X8883928Y-16208500D01*
X8912500Y-16194214D01*
X9126786Y-16194214D02*
X9126786Y-16251357D01*
X9241071Y-16194214D02*
X9241071Y-16251357D01*
X9683928Y-16608500D02*
X9669643Y-16594214D01*
X9641071Y-16551357D01*
X9626786Y-16522786D01*
X9612500Y-16479929D01*
X9598214Y-16408500D01*
X9598214Y-16351357D01*
X9612500Y-16279929D01*
X9626786Y-16237071D01*
X9641071Y-16208500D01*
X9669643Y-16165643D01*
X9683928Y-16151357D01*
X9926786Y-16194214D02*
X9869643Y-16194214D01*
X9841071Y-16208500D01*
X9826786Y-16222786D01*
X9798214Y-16265643D01*
X9783928Y-16322786D01*
X9783928Y-16437071D01*
X9798214Y-16465643D01*
X9812500Y-16479929D01*
X9841071Y-16494214D01*
X9898214Y-16494214D01*
X9926786Y-16479929D01*
X9941071Y-16465643D01*
X9955357Y-16437071D01*
X9955357Y-16365643D01*
X9941071Y-16337071D01*
X9926786Y-16322786D01*
X9898214Y-16308500D01*
X9841071Y-16308500D01*
X9812500Y-16322786D01*
X9798214Y-16337071D01*
X9783928Y-16365643D01*
X10312500Y-16494214D02*
X10312500Y-16194214D01*
X10441071Y-16494214D02*
X10441071Y-16337071D01*
X10426786Y-16308500D01*
X10398214Y-16294214D01*
X10355357Y-16294214D01*
X10326786Y-16308500D01*
X10312500Y-16322786D01*
X10626786Y-16494214D02*
X10598214Y-16479929D01*
X10583928Y-16465643D01*
X10569643Y-16437071D01*
X10569643Y-16351357D01*
X10583928Y-16322786D01*
X10598214Y-16308500D01*
X10626786Y-16294214D01*
X10669643Y-16294214D01*
X10698214Y-16308500D01*
X10712500Y-16322786D01*
X10726786Y-16351357D01*
X10726786Y-16437071D01*
X10712500Y-16465643D01*
X10698214Y-16479929D01*
X10669643Y-16494214D01*
X10626786Y-16494214D01*
X10898214Y-16494214D02*
X10869643Y-16479929D01*
X10855357Y-16451357D01*
X10855357Y-16194214D01*
X11126786Y-16479929D02*
X11098214Y-16494214D01*
X11041071Y-16494214D01*
X11012500Y-16479929D01*
X10998214Y-16451357D01*
X10998214Y-16337071D01*
X11012500Y-16308500D01*
X11041071Y-16294214D01*
X11098214Y-16294214D01*
X11126786Y-16308500D01*
X11141071Y-16337071D01*
X11141071Y-16365643D01*
X10998214Y-16394214D01*
X11255357Y-16479929D02*
X11283928Y-16494214D01*
X11341071Y-16494214D01*
X11369643Y-16479929D01*
X11383928Y-16451357D01*
X11383928Y-16437071D01*
X11369643Y-16408500D01*
X11341071Y-16394214D01*
X11298214Y-16394214D01*
X11269643Y-16379929D01*
X11255357Y-16351357D01*
X11255357Y-16337071D01*
X11269643Y-16308500D01*
X11298214Y-16294214D01*
X11341071Y-16294214D01*
X11369643Y-16308500D01*
X11483928Y-16608500D02*
X11498214Y-16594214D01*
X11526786Y-16551357D01*
X11541071Y-16522786D01*
X11555357Y-16479929D01*
X11569643Y-16408500D01*
X11569643Y-16351357D01*
X11555357Y-16279929D01*
X11541071Y-16237071D01*
X11526786Y-16208500D01*
X11498214Y-16165643D01*
X11483928Y-16151357D01*
X4959400Y-16716400D02*
X4959400Y-16792600D01*
X4921300Y-16754500D02*
X4997500Y-16754500D01*
X5341071Y-16590214D02*
X5369643Y-16590214D01*
X5398214Y-16604500D01*
X5412500Y-16618786D01*
X5426786Y-16647357D01*
X5441071Y-16704500D01*
X5441071Y-16775929D01*
X5426786Y-16833072D01*
X5412500Y-16861643D01*
X5398214Y-16875929D01*
X5369643Y-16890214D01*
X5341071Y-16890214D01*
X5312500Y-16875929D01*
X5298214Y-16861643D01*
X5283928Y-16833072D01*
X5269643Y-16775929D01*
X5269643Y-16704500D01*
X5283928Y-16647357D01*
X5298214Y-16618786D01*
X5312500Y-16604500D01*
X5341071Y-16590214D01*
X5569643Y-16861643D02*
X5583928Y-16875929D01*
X5569643Y-16890214D01*
X5555357Y-16875929D01*
X5569643Y-16861643D01*
X5569643Y-16890214D01*
X5683928Y-16590214D02*
X5883928Y-16590214D01*
X5755357Y-16890214D01*
X6126786Y-16590214D02*
X6069643Y-16590214D01*
X6041071Y-16604500D01*
X6026786Y-16618786D01*
X5998214Y-16661643D01*
X5983928Y-16718786D01*
X5983928Y-16833072D01*
X5998214Y-16861643D01*
X6012500Y-16875929D01*
X6041071Y-16890214D01*
X6098214Y-16890214D01*
X6126786Y-16875929D01*
X6141071Y-16861643D01*
X6155357Y-16833072D01*
X6155357Y-16761643D01*
X6141071Y-16733071D01*
X6126786Y-16718786D01*
X6098214Y-16704500D01*
X6041071Y-16704500D01*
X6012500Y-16718786D01*
X5998214Y-16733071D01*
X5983928Y-16761643D01*
X6283928Y-16890214D02*
X6283928Y-16690214D01*
X6283928Y-16718786D02*
X6298214Y-16704500D01*
X6326786Y-16690214D01*
X6369643Y-16690214D01*
X6398214Y-16704500D01*
X6412500Y-16733071D01*
X6412500Y-16890214D01*
X6412500Y-16733071D02*
X6426786Y-16704500D01*
X6455357Y-16690214D01*
X6498214Y-16690214D01*
X6526786Y-16704500D01*
X6541071Y-16733071D01*
X6541071Y-16890214D01*
X6683928Y-16890214D02*
X6683928Y-16690214D01*
X6683928Y-16718786D02*
X6698214Y-16704500D01*
X6726786Y-16690214D01*
X6769643Y-16690214D01*
X6798214Y-16704500D01*
X6812500Y-16733071D01*
X6812500Y-16890214D01*
X6812500Y-16733071D02*
X6826786Y-16704500D01*
X6855357Y-16690214D01*
X6898214Y-16690214D01*
X6926786Y-16704500D01*
X6941071Y-16733071D01*
X6941071Y-16890214D01*
X7526786Y-16575929D02*
X7269643Y-16961643D01*
X7912500Y-16590214D02*
X7941071Y-16590214D01*
X7969643Y-16604500D01*
X7983928Y-16618786D01*
X7998214Y-16647357D01*
X8012500Y-16704500D01*
X8012500Y-16775929D01*
X7998214Y-16833072D01*
X7983928Y-16861643D01*
X7969643Y-16875929D01*
X7941071Y-16890214D01*
X7912500Y-16890214D01*
X7883928Y-16875929D01*
X7869643Y-16861643D01*
X7855357Y-16833072D01*
X7841071Y-16775929D01*
X7841071Y-16704500D01*
X7855357Y-16647357D01*
X7869643Y-16618786D01*
X7883928Y-16604500D01*
X7912500Y-16590214D01*
X8141071Y-16861643D02*
X8155357Y-16875929D01*
X8141071Y-16890214D01*
X8126786Y-16875929D01*
X8141071Y-16861643D01*
X8141071Y-16890214D01*
X8341071Y-16590214D02*
X8369643Y-16590214D01*
X8398214Y-16604500D01*
X8412500Y-16618786D01*
X8426786Y-16647357D01*
X8441071Y-16704500D01*
X8441071Y-16775929D01*
X8426786Y-16833072D01*
X8412500Y-16861643D01*
X8398214Y-16875929D01*
X8369643Y-16890214D01*
X8341071Y-16890214D01*
X8312500Y-16875929D01*
X8298214Y-16861643D01*
X8283928Y-16833072D01*
X8269643Y-16775929D01*
X8269643Y-16704500D01*
X8283928Y-16647357D01*
X8298214Y-16618786D01*
X8312500Y-16604500D01*
X8341071Y-16590214D01*
X8541071Y-16590214D02*
X8726786Y-16590214D01*
X8626786Y-16704500D01*
X8669643Y-16704500D01*
X8698214Y-16718786D01*
X8712500Y-16733071D01*
X8726786Y-16761643D01*
X8726786Y-16833072D01*
X8712500Y-16861643D01*
X8698214Y-16875929D01*
X8669643Y-16890214D01*
X8583928Y-16890214D01*
X8555357Y-16875929D01*
X8541071Y-16861643D01*
X8912500Y-16590214D02*
X8941071Y-16590214D01*
X8969643Y-16604500D01*
X8983928Y-16618786D01*
X8998214Y-16647357D01*
X9012500Y-16704500D01*
X9012500Y-16775929D01*
X8998214Y-16833072D01*
X8983928Y-16861643D01*
X8969643Y-16875929D01*
X8941071Y-16890214D01*
X8912500Y-16890214D01*
X8883928Y-16875929D01*
X8869643Y-16861643D01*
X8855357Y-16833072D01*
X8841071Y-16775929D01*
X8841071Y-16704500D01*
X8855357Y-16647357D01*
X8869643Y-16618786D01*
X8883928Y-16604500D01*
X8912500Y-16590214D01*
X9126786Y-16590214D02*
X9126786Y-16647357D01*
X9241071Y-16590214D02*
X9241071Y-16647357D01*
X9683928Y-17004500D02*
X9669643Y-16990214D01*
X9641071Y-16947357D01*
X9626786Y-16918786D01*
X9612500Y-16875929D01*
X9598214Y-16804500D01*
X9598214Y-16747357D01*
X9612500Y-16675929D01*
X9626786Y-16633071D01*
X9641071Y-16604500D01*
X9669643Y-16561643D01*
X9683928Y-16547357D01*
X9769643Y-16590214D02*
X9955357Y-16590214D01*
X9855357Y-16704500D01*
X9898214Y-16704500D01*
X9926786Y-16718786D01*
X9941071Y-16733071D01*
X9955357Y-16761643D01*
X9955357Y-16833072D01*
X9941071Y-16861643D01*
X9926786Y-16875929D01*
X9898214Y-16890214D01*
X9812500Y-16890214D01*
X9783928Y-16875929D01*
X9769643Y-16861643D01*
X10098214Y-16890214D02*
X10155357Y-16890214D01*
X10183928Y-16875929D01*
X10198214Y-16861643D01*
X10226786Y-16818786D01*
X10241071Y-16761643D01*
X10241071Y-16647357D01*
X10226786Y-16618786D01*
X10212500Y-16604500D01*
X10183928Y-16590214D01*
X10126786Y-16590214D01*
X10098214Y-16604500D01*
X10083928Y-16618786D01*
X10069643Y-16647357D01*
X10069643Y-16718786D01*
X10083928Y-16747357D01*
X10098214Y-16761643D01*
X10126786Y-16775929D01*
X10183928Y-16775929D01*
X10212500Y-16761643D01*
X10226786Y-16747357D01*
X10241071Y-16718786D01*
X10598214Y-16890214D02*
X10598214Y-16590214D01*
X10726786Y-16890214D02*
X10726786Y-16733071D01*
X10712500Y-16704500D01*
X10683928Y-16690214D01*
X10641071Y-16690214D01*
X10612500Y-16704500D01*
X10598214Y-16718786D01*
X10912500Y-16890214D02*
X10883928Y-16875929D01*
X10869643Y-16861643D01*
X10855357Y-16833072D01*
X10855357Y-16747357D01*
X10869643Y-16718786D01*
X10883928Y-16704500D01*
X10912500Y-16690214D01*
X10955357Y-16690214D01*
X10983928Y-16704500D01*
X10998214Y-16718786D01*
X11012500Y-16747357D01*
X11012500Y-16833072D01*
X10998214Y-16861643D01*
X10983928Y-16875929D01*
X10955357Y-16890214D01*
X10912500Y-16890214D01*
X11183928Y-16890214D02*
X11155357Y-16875929D01*
X11141071Y-16847357D01*
X11141071Y-16590214D01*
X11412500Y-16875929D02*
X11383928Y-16890214D01*
X11326786Y-16890214D01*
X11298214Y-16875929D01*
X11283928Y-16847357D01*
X11283928Y-16733071D01*
X11298214Y-16704500D01*
X11326786Y-16690214D01*
X11383928Y-16690214D01*
X11412500Y-16704500D01*
X11426786Y-16733071D01*
X11426786Y-16761643D01*
X11283928Y-16790214D01*
X11541071Y-16875929D02*
X11569643Y-16890214D01*
X11626786Y-16890214D01*
X11655357Y-16875929D01*
X11669643Y-16847357D01*
X11669643Y-16833072D01*
X11655357Y-16804500D01*
X11626786Y-16790214D01*
X11583928Y-16790214D01*
X11555357Y-16775929D01*
X11541071Y-16747357D01*
X11541071Y-16733071D01*
X11555357Y-16704500D01*
X11583928Y-16690214D01*
X11626786Y-16690214D01*
X11655357Y-16704500D01*
X11769643Y-17004500D02*
X11783928Y-16990214D01*
X11812500Y-16947357D01*
X11826786Y-16918786D01*
X11841071Y-16875929D01*
X11855357Y-16804500D01*
X11855357Y-16747357D01*
X11841071Y-16675929D01*
X11826786Y-16633071D01*
X11812500Y-16604500D01*
X11783928Y-16561643D01*
X11769643Y-16547357D01*
X4984320Y-17182320D02*
X4984320Y-17118680D01*
X4920680Y-17118680D01*
X4920680Y-17182320D01*
X4984320Y-17182320D01*
X5341071Y-16986214D02*
X5369643Y-16986214D01*
X5398214Y-17000500D01*
X5412500Y-17014786D01*
X5426786Y-17043357D01*
X5441071Y-17100500D01*
X5441071Y-17171929D01*
X5426786Y-17229072D01*
X5412500Y-17257643D01*
X5398214Y-17271929D01*
X5369643Y-17286214D01*
X5341071Y-17286214D01*
X5312500Y-17271929D01*
X5298214Y-17257643D01*
X5283928Y-17229072D01*
X5269643Y-17171929D01*
X5269643Y-17100500D01*
X5283928Y-17043357D01*
X5298214Y-17014786D01*
X5312500Y-17000500D01*
X5341071Y-16986214D01*
X5569643Y-17257643D02*
X5583928Y-17271929D01*
X5569643Y-17286214D01*
X5555357Y-17271929D01*
X5569643Y-17257643D01*
X5569643Y-17286214D01*
X5726786Y-17286214D02*
X5783928Y-17286214D01*
X5812500Y-17271929D01*
X5826786Y-17257643D01*
X5855357Y-17214786D01*
X5869643Y-17157643D01*
X5869643Y-17043357D01*
X5855357Y-17014786D01*
X5841071Y-17000500D01*
X5812500Y-16986214D01*
X5755357Y-16986214D01*
X5726786Y-17000500D01*
X5712500Y-17014786D01*
X5698214Y-17043357D01*
X5698214Y-17114786D01*
X5712500Y-17143357D01*
X5726786Y-17157643D01*
X5755357Y-17171929D01*
X5812500Y-17171929D01*
X5841071Y-17157643D01*
X5855357Y-17143357D01*
X5869643Y-17114786D01*
X6055357Y-16986214D02*
X6083928Y-16986214D01*
X6112500Y-17000500D01*
X6126786Y-17014786D01*
X6141071Y-17043357D01*
X6155357Y-17100500D01*
X6155357Y-17171929D01*
X6141071Y-17229072D01*
X6126786Y-17257643D01*
X6112500Y-17271929D01*
X6083928Y-17286214D01*
X6055357Y-17286214D01*
X6026786Y-17271929D01*
X6012500Y-17257643D01*
X5998214Y-17229072D01*
X5983928Y-17171929D01*
X5983928Y-17100500D01*
X5998214Y-17043357D01*
X6012500Y-17014786D01*
X6026786Y-17000500D01*
X6055357Y-16986214D01*
X6283928Y-17286214D02*
X6283928Y-17086214D01*
X6283928Y-17114786D02*
X6298214Y-17100500D01*
X6326786Y-17086214D01*
X6369643Y-17086214D01*
X6398214Y-17100500D01*
X6412500Y-17129072D01*
X6412500Y-17286214D01*
X6412500Y-17129072D02*
X6426786Y-17100500D01*
X6455357Y-17086214D01*
X6498214Y-17086214D01*
X6526786Y-17100500D01*
X6541071Y-17129072D01*
X6541071Y-17286214D01*
X6683928Y-17286214D02*
X6683928Y-17086214D01*
X6683928Y-17114786D02*
X6698214Y-17100500D01*
X6726786Y-17086214D01*
X6769643Y-17086214D01*
X6798214Y-17100500D01*
X6812500Y-17129072D01*
X6812500Y-17286214D01*
X6812500Y-17129072D02*
X6826786Y-17100500D01*
X6855357Y-17086214D01*
X6898214Y-17086214D01*
X6926786Y-17100500D01*
X6941071Y-17129072D01*
X6941071Y-17286214D01*
X7526786Y-16971929D02*
X7269643Y-17357643D01*
X7912500Y-16986214D02*
X7941071Y-16986214D01*
X7969643Y-17000500D01*
X7983928Y-17014786D01*
X7998214Y-17043357D01*
X8012500Y-17100500D01*
X8012500Y-17171929D01*
X7998214Y-17229072D01*
X7983928Y-17257643D01*
X7969643Y-17271929D01*
X7941071Y-17286214D01*
X7912500Y-17286214D01*
X7883928Y-17271929D01*
X7869643Y-17257643D01*
X7855357Y-17229072D01*
X7841071Y-17171929D01*
X7841071Y-17100500D01*
X7855357Y-17043357D01*
X7869643Y-17014786D01*
X7883928Y-17000500D01*
X7912500Y-16986214D01*
X8141071Y-17257643D02*
X8155357Y-17271929D01*
X8141071Y-17286214D01*
X8126786Y-17271929D01*
X8141071Y-17257643D01*
X8141071Y-17286214D01*
X8341071Y-16986214D02*
X8369643Y-16986214D01*
X8398214Y-17000500D01*
X8412500Y-17014786D01*
X8426786Y-17043357D01*
X8441071Y-17100500D01*
X8441071Y-17171929D01*
X8426786Y-17229072D01*
X8412500Y-17257643D01*
X8398214Y-17271929D01*
X8369643Y-17286214D01*
X8341071Y-17286214D01*
X8312500Y-17271929D01*
X8298214Y-17257643D01*
X8283928Y-17229072D01*
X8269643Y-17171929D01*
X8269643Y-17100500D01*
X8283928Y-17043357D01*
X8298214Y-17014786D01*
X8312500Y-17000500D01*
X8341071Y-16986214D01*
X8541071Y-16986214D02*
X8726786Y-16986214D01*
X8626786Y-17100500D01*
X8669643Y-17100500D01*
X8698214Y-17114786D01*
X8712500Y-17129072D01*
X8726786Y-17157643D01*
X8726786Y-17229072D01*
X8712500Y-17257643D01*
X8698214Y-17271929D01*
X8669643Y-17286214D01*
X8583928Y-17286214D01*
X8555357Y-17271929D01*
X8541071Y-17257643D01*
X8998214Y-16986214D02*
X8855357Y-16986214D01*
X8841071Y-17129072D01*
X8855357Y-17114786D01*
X8883928Y-17100500D01*
X8955357Y-17100500D01*
X8983928Y-17114786D01*
X8998214Y-17129072D01*
X9012500Y-17157643D01*
X9012500Y-17229072D01*
X8998214Y-17257643D01*
X8983928Y-17271929D01*
X8955357Y-17286214D01*
X8883928Y-17286214D01*
X8855357Y-17271929D01*
X8841071Y-17257643D01*
X9126786Y-16986214D02*
X9126786Y-17043357D01*
X9241071Y-16986214D02*
X9241071Y-17043357D01*
X9683928Y-17400500D02*
X9669643Y-17386214D01*
X9641071Y-17343357D01*
X9626786Y-17314786D01*
X9612500Y-17271929D01*
X9598214Y-17200500D01*
X9598214Y-17143357D01*
X9612500Y-17071929D01*
X9626786Y-17029072D01*
X9641071Y-17000500D01*
X9669643Y-16957643D01*
X9683928Y-16943357D01*
X9841071Y-17114786D02*
X9812500Y-17100500D01*
X9798214Y-17086214D01*
X9783928Y-17057643D01*
X9783928Y-17043357D01*
X9798214Y-17014786D01*
X9812500Y-17000500D01*
X9841071Y-16986214D01*
X9898214Y-16986214D01*
X9926786Y-17000500D01*
X9941071Y-17014786D01*
X9955357Y-17043357D01*
X9955357Y-17057643D01*
X9941071Y-17086214D01*
X9926786Y-17100500D01*
X9898214Y-17114786D01*
X9841071Y-17114786D01*
X9812500Y-17129072D01*
X9798214Y-17143357D01*
X9783928Y-17171929D01*
X9783928Y-17229072D01*
X9798214Y-17257643D01*
X9812500Y-17271929D01*
X9841071Y-17286214D01*
X9898214Y-17286214D01*
X9926786Y-17271929D01*
X9941071Y-17257643D01*
X9955357Y-17229072D01*
X9955357Y-17171929D01*
X9941071Y-17143357D01*
X9926786Y-17129072D01*
X9898214Y-17114786D01*
X10312500Y-17286214D02*
X10312500Y-16986214D01*
X10441071Y-17286214D02*
X10441071Y-17129072D01*
X10426786Y-17100500D01*
X10398214Y-17086214D01*
X10355357Y-17086214D01*
X10326786Y-17100500D01*
X10312500Y-17114786D01*
X10626786Y-17286214D02*
X10598214Y-17271929D01*
X10583928Y-17257643D01*
X10569643Y-17229072D01*
X10569643Y-17143357D01*
X10583928Y-17114786D01*
X10598214Y-17100500D01*
X10626786Y-17086214D01*
X10669643Y-17086214D01*
X10698214Y-17100500D01*
X10712500Y-17114786D01*
X10726786Y-17143357D01*
X10726786Y-17229072D01*
X10712500Y-17257643D01*
X10698214Y-17271929D01*
X10669643Y-17286214D01*
X10626786Y-17286214D01*
X10898214Y-17286214D02*
X10869643Y-17271929D01*
X10855357Y-17243357D01*
X10855357Y-16986214D01*
X11126786Y-17271929D02*
X11098214Y-17286214D01*
X11041071Y-17286214D01*
X11012500Y-17271929D01*
X10998214Y-17243357D01*
X10998214Y-17129072D01*
X11012500Y-17100500D01*
X11041071Y-17086214D01*
X11098214Y-17086214D01*
X11126786Y-17100500D01*
X11141071Y-17129072D01*
X11141071Y-17157643D01*
X10998214Y-17186214D01*
X11255357Y-17271929D02*
X11283928Y-17286214D01*
X11341071Y-17286214D01*
X11369643Y-17271929D01*
X11383928Y-17243357D01*
X11383928Y-17229072D01*
X11369643Y-17200500D01*
X11341071Y-17186214D01*
X11298214Y-17186214D01*
X11269643Y-17171929D01*
X11255357Y-17143357D01*
X11255357Y-17129072D01*
X11269643Y-17100500D01*
X11298214Y-17086214D01*
X11341071Y-17086214D01*
X11369643Y-17100500D01*
X11483928Y-17400500D02*
X11498214Y-17386214D01*
X11526786Y-17343357D01*
X11541071Y-17314786D01*
X11555357Y-17271929D01*
X11569643Y-17200500D01*
X11569643Y-17143357D01*
X11555357Y-17071929D01*
X11541071Y-17029072D01*
X11526786Y-17000500D01*
X11498214Y-16957643D01*
X11483928Y-16943357D01*
X4951500Y-17592500D02*
X4997500Y-17546500D01*
X4951500Y-17500500D01*
X4905500Y-17546500D01*
X4951500Y-17592500D01*
X5341071Y-17382214D02*
X5369643Y-17382214D01*
X5398214Y-17396500D01*
X5412500Y-17410786D01*
X5426786Y-17439357D01*
X5441071Y-17496500D01*
X5441071Y-17567929D01*
X5426786Y-17625072D01*
X5412500Y-17653643D01*
X5398214Y-17667929D01*
X5369643Y-17682214D01*
X5341071Y-17682214D01*
X5312500Y-17667929D01*
X5298214Y-17653643D01*
X5283928Y-17625072D01*
X5269643Y-17567929D01*
X5269643Y-17496500D01*
X5283928Y-17439357D01*
X5298214Y-17410786D01*
X5312500Y-17396500D01*
X5341071Y-17382214D01*
X5569643Y-17653643D02*
X5583928Y-17667929D01*
X5569643Y-17682214D01*
X5555357Y-17667929D01*
X5569643Y-17653643D01*
X5569643Y-17682214D01*
X5726786Y-17682214D02*
X5783928Y-17682214D01*
X5812500Y-17667929D01*
X5826786Y-17653643D01*
X5855357Y-17610786D01*
X5869643Y-17553643D01*
X5869643Y-17439357D01*
X5855357Y-17410786D01*
X5841071Y-17396500D01*
X5812500Y-17382214D01*
X5755357Y-17382214D01*
X5726786Y-17396500D01*
X5712500Y-17410786D01*
X5698214Y-17439357D01*
X5698214Y-17510786D01*
X5712500Y-17539357D01*
X5726786Y-17553643D01*
X5755357Y-17567929D01*
X5812500Y-17567929D01*
X5841071Y-17553643D01*
X5855357Y-17539357D01*
X5869643Y-17510786D01*
X5983928Y-17410786D02*
X5998214Y-17396500D01*
X6026786Y-17382214D01*
X6098214Y-17382214D01*
X6126786Y-17396500D01*
X6141071Y-17410786D01*
X6155357Y-17439357D01*
X6155357Y-17467929D01*
X6141071Y-17510786D01*
X5969643Y-17682214D01*
X6155357Y-17682214D01*
X6283928Y-17682214D02*
X6283928Y-17482214D01*
X6283928Y-17510786D02*
X6298214Y-17496500D01*
X6326786Y-17482214D01*
X6369643Y-17482214D01*
X6398214Y-17496500D01*
X6412500Y-17525072D01*
X6412500Y-17682214D01*
X6412500Y-17525072D02*
X6426786Y-17496500D01*
X6455357Y-17482214D01*
X6498214Y-17482214D01*
X6526786Y-17496500D01*
X6541071Y-17525072D01*
X6541071Y-17682214D01*
X6683928Y-17682214D02*
X6683928Y-17482214D01*
X6683928Y-17510786D02*
X6698214Y-17496500D01*
X6726786Y-17482214D01*
X6769643Y-17482214D01*
X6798214Y-17496500D01*
X6812500Y-17525072D01*
X6812500Y-17682214D01*
X6812500Y-17525072D02*
X6826786Y-17496500D01*
X6855357Y-17482214D01*
X6898214Y-17482214D01*
X6926786Y-17496500D01*
X6941071Y-17525072D01*
X6941071Y-17682214D01*
X7526786Y-17367929D02*
X7269643Y-17753643D01*
X7912500Y-17382214D02*
X7941071Y-17382214D01*
X7969643Y-17396500D01*
X7983928Y-17410786D01*
X7998214Y-17439357D01*
X8012500Y-17496500D01*
X8012500Y-17567929D01*
X7998214Y-17625072D01*
X7983928Y-17653643D01*
X7969643Y-17667929D01*
X7941071Y-17682214D01*
X7912500Y-17682214D01*
X7883928Y-17667929D01*
X7869643Y-17653643D01*
X7855357Y-17625072D01*
X7841071Y-17567929D01*
X7841071Y-17496500D01*
X7855357Y-17439357D01*
X7869643Y-17410786D01*
X7883928Y-17396500D01*
X7912500Y-17382214D01*
X8141071Y-17653643D02*
X8155357Y-17667929D01*
X8141071Y-17682214D01*
X8126786Y-17667929D01*
X8141071Y-17653643D01*
X8141071Y-17682214D01*
X8341071Y-17382214D02*
X8369643Y-17382214D01*
X8398214Y-17396500D01*
X8412500Y-17410786D01*
X8426786Y-17439357D01*
X8441071Y-17496500D01*
X8441071Y-17567929D01*
X8426786Y-17625072D01*
X8412500Y-17653643D01*
X8398214Y-17667929D01*
X8369643Y-17682214D01*
X8341071Y-17682214D01*
X8312500Y-17667929D01*
X8298214Y-17653643D01*
X8283928Y-17625072D01*
X8269643Y-17567929D01*
X8269643Y-17496500D01*
X8283928Y-17439357D01*
X8298214Y-17410786D01*
X8312500Y-17396500D01*
X8341071Y-17382214D01*
X8541071Y-17382214D02*
X8726786Y-17382214D01*
X8626786Y-17496500D01*
X8669643Y-17496500D01*
X8698214Y-17510786D01*
X8712500Y-17525072D01*
X8726786Y-17553643D01*
X8726786Y-17625072D01*
X8712500Y-17653643D01*
X8698214Y-17667929D01*
X8669643Y-17682214D01*
X8583928Y-17682214D01*
X8555357Y-17667929D01*
X8541071Y-17653643D01*
X8983928Y-17382214D02*
X8926786Y-17382214D01*
X8898214Y-17396500D01*
X8883928Y-17410786D01*
X8855357Y-17453643D01*
X8841071Y-17510786D01*
X8841071Y-17625072D01*
X8855357Y-17653643D01*
X8869643Y-17667929D01*
X8898214Y-17682214D01*
X8955357Y-17682214D01*
X8983928Y-17667929D01*
X8998214Y-17653643D01*
X9012500Y-17625072D01*
X9012500Y-17553643D01*
X8998214Y-17525072D01*
X8983928Y-17510786D01*
X8955357Y-17496500D01*
X8898214Y-17496500D01*
X8869643Y-17510786D01*
X8855357Y-17525072D01*
X8841071Y-17553643D01*
X9126786Y-17382214D02*
X9126786Y-17439357D01*
X9241071Y-17382214D02*
X9241071Y-17439357D01*
X9683928Y-17796500D02*
X9669643Y-17782214D01*
X9641071Y-17739357D01*
X9626786Y-17710786D01*
X9612500Y-17667929D01*
X9598214Y-17596500D01*
X9598214Y-17539357D01*
X9612500Y-17467929D01*
X9626786Y-17425072D01*
X9641071Y-17396500D01*
X9669643Y-17353643D01*
X9683928Y-17339357D01*
X9926786Y-17482214D02*
X9926786Y-17682214D01*
X9855357Y-17367929D02*
X9783928Y-17582214D01*
X9969643Y-17582214D01*
X10312500Y-17682214D02*
X10312500Y-17382214D01*
X10441071Y-17682214D02*
X10441071Y-17525072D01*
X10426786Y-17496500D01*
X10398214Y-17482214D01*
X10355357Y-17482214D01*
X10326786Y-17496500D01*
X10312500Y-17510786D01*
X10626786Y-17682214D02*
X10598214Y-17667929D01*
X10583928Y-17653643D01*
X10569643Y-17625072D01*
X10569643Y-17539357D01*
X10583928Y-17510786D01*
X10598214Y-17496500D01*
X10626786Y-17482214D01*
X10669643Y-17482214D01*
X10698214Y-17496500D01*
X10712500Y-17510786D01*
X10726786Y-17539357D01*
X10726786Y-17625072D01*
X10712500Y-17653643D01*
X10698214Y-17667929D01*
X10669643Y-17682214D01*
X10626786Y-17682214D01*
X10898214Y-17682214D02*
X10869643Y-17667929D01*
X10855357Y-17639357D01*
X10855357Y-17382214D01*
X11126786Y-17667929D02*
X11098214Y-17682214D01*
X11041071Y-17682214D01*
X11012500Y-17667929D01*
X10998214Y-17639357D01*
X10998214Y-17525072D01*
X11012500Y-17496500D01*
X11041071Y-17482214D01*
X11098214Y-17482214D01*
X11126786Y-17496500D01*
X11141071Y-17525072D01*
X11141071Y-17553643D01*
X10998214Y-17582214D01*
X11255357Y-17667929D02*
X11283928Y-17682214D01*
X11341071Y-17682214D01*
X11369643Y-17667929D01*
X11383928Y-17639357D01*
X11383928Y-17625072D01*
X11369643Y-17596500D01*
X11341071Y-17582214D01*
X11298214Y-17582214D01*
X11269643Y-17567929D01*
X11255357Y-17539357D01*
X11255357Y-17525072D01*
X11269643Y-17496500D01*
X11298214Y-17482214D01*
X11341071Y-17482214D01*
X11369643Y-17496500D01*
X11483928Y-17796500D02*
X11498214Y-17782214D01*
X11526786Y-17739357D01*
X11541071Y-17710786D01*
X11555357Y-17667929D01*
X11569643Y-17596500D01*
X11569643Y-17539357D01*
X11555357Y-17467929D01*
X11541071Y-17425072D01*
X11526786Y-17396500D01*
X11498214Y-17353643D01*
X11483928Y-17339357D01*
X4897500Y-17892500D02*
X4997500Y-17992500D01*
X4997500Y-17892500D02*
X4897500Y-17992500D01*
X4997500Y-17942500D02*
G75*
G03*
X4997500Y-17942500I-50000J0D01*
G01*
X5441071Y-18078214D02*
X5269643Y-18078214D01*
X5355357Y-18078214D02*
X5355357Y-17778214D01*
X5326786Y-17821072D01*
X5298214Y-17849643D01*
X5269643Y-17863929D01*
X5569643Y-18049643D02*
X5583928Y-18063929D01*
X5569643Y-18078214D01*
X5555357Y-18063929D01*
X5569643Y-18049643D01*
X5569643Y-18078214D01*
X5769643Y-17778214D02*
X5798214Y-17778214D01*
X5826786Y-17792500D01*
X5841071Y-17806786D01*
X5855357Y-17835357D01*
X5869643Y-17892500D01*
X5869643Y-17963929D01*
X5855357Y-18021072D01*
X5841071Y-18049643D01*
X5826786Y-18063929D01*
X5798214Y-18078214D01*
X5769643Y-18078214D01*
X5741071Y-18063929D01*
X5726786Y-18049643D01*
X5712500Y-18021072D01*
X5698214Y-17963929D01*
X5698214Y-17892500D01*
X5712500Y-17835357D01*
X5726786Y-17806786D01*
X5741071Y-17792500D01*
X5769643Y-17778214D01*
X6055357Y-17778214D02*
X6083928Y-17778214D01*
X6112500Y-17792500D01*
X6126786Y-17806786D01*
X6141071Y-17835357D01*
X6155357Y-17892500D01*
X6155357Y-17963929D01*
X6141071Y-18021072D01*
X6126786Y-18049643D01*
X6112500Y-18063929D01*
X6083928Y-18078214D01*
X6055357Y-18078214D01*
X6026786Y-18063929D01*
X6012500Y-18049643D01*
X5998214Y-18021072D01*
X5983928Y-17963929D01*
X5983928Y-17892500D01*
X5998214Y-17835357D01*
X6012500Y-17806786D01*
X6026786Y-17792500D01*
X6055357Y-17778214D01*
X6283928Y-18078214D02*
X6283928Y-17878214D01*
X6283928Y-17906786D02*
X6298214Y-17892500D01*
X6326786Y-17878214D01*
X6369643Y-17878214D01*
X6398214Y-17892500D01*
X6412500Y-17921072D01*
X6412500Y-18078214D01*
X6412500Y-17921072D02*
X6426786Y-17892500D01*
X6455357Y-17878214D01*
X6498214Y-17878214D01*
X6526786Y-17892500D01*
X6541071Y-17921072D01*
X6541071Y-18078214D01*
X6683928Y-18078214D02*
X6683928Y-17878214D01*
X6683928Y-17906786D02*
X6698214Y-17892500D01*
X6726786Y-17878214D01*
X6769643Y-17878214D01*
X6798214Y-17892500D01*
X6812500Y-17921072D01*
X6812500Y-18078214D01*
X6812500Y-17921072D02*
X6826786Y-17892500D01*
X6855357Y-17878214D01*
X6898214Y-17878214D01*
X6926786Y-17892500D01*
X6941071Y-17921072D01*
X6941071Y-18078214D01*
X7526786Y-17763929D02*
X7269643Y-18149643D01*
X7912500Y-17778214D02*
X7941071Y-17778214D01*
X7969643Y-17792500D01*
X7983928Y-17806786D01*
X7998214Y-17835357D01*
X8012500Y-17892500D01*
X8012500Y-17963929D01*
X7998214Y-18021072D01*
X7983928Y-18049643D01*
X7969643Y-18063929D01*
X7941071Y-18078214D01*
X7912500Y-18078214D01*
X7883928Y-18063929D01*
X7869643Y-18049643D01*
X7855357Y-18021072D01*
X7841071Y-17963929D01*
X7841071Y-17892500D01*
X7855357Y-17835357D01*
X7869643Y-17806786D01*
X7883928Y-17792500D01*
X7912500Y-17778214D01*
X8141071Y-18049643D02*
X8155357Y-18063929D01*
X8141071Y-18078214D01*
X8126786Y-18063929D01*
X8141071Y-18049643D01*
X8141071Y-18078214D01*
X8341071Y-17778214D02*
X8369643Y-17778214D01*
X8398214Y-17792500D01*
X8412500Y-17806786D01*
X8426786Y-17835357D01*
X8441071Y-17892500D01*
X8441071Y-17963929D01*
X8426786Y-18021072D01*
X8412500Y-18049643D01*
X8398214Y-18063929D01*
X8369643Y-18078214D01*
X8341071Y-18078214D01*
X8312500Y-18063929D01*
X8298214Y-18049643D01*
X8283928Y-18021072D01*
X8269643Y-17963929D01*
X8269643Y-17892500D01*
X8283928Y-17835357D01*
X8298214Y-17806786D01*
X8312500Y-17792500D01*
X8341071Y-17778214D01*
X8541071Y-17778214D02*
X8726786Y-17778214D01*
X8626786Y-17892500D01*
X8669643Y-17892500D01*
X8698214Y-17906786D01*
X8712500Y-17921072D01*
X8726786Y-17949643D01*
X8726786Y-18021072D01*
X8712500Y-18049643D01*
X8698214Y-18063929D01*
X8669643Y-18078214D01*
X8583928Y-18078214D01*
X8555357Y-18063929D01*
X8541071Y-18049643D01*
X8869643Y-18078214D02*
X8926786Y-18078214D01*
X8955357Y-18063929D01*
X8969643Y-18049643D01*
X8998214Y-18006786D01*
X9012500Y-17949643D01*
X9012500Y-17835357D01*
X8998214Y-17806786D01*
X8983928Y-17792500D01*
X8955357Y-17778214D01*
X8898214Y-17778214D01*
X8869643Y-17792500D01*
X8855357Y-17806786D01*
X8841071Y-17835357D01*
X8841071Y-17906786D01*
X8855357Y-17935357D01*
X8869643Y-17949643D01*
X8898214Y-17963929D01*
X8955357Y-17963929D01*
X8983928Y-17949643D01*
X8998214Y-17935357D01*
X9012500Y-17906786D01*
X9126786Y-17778214D02*
X9126786Y-17835357D01*
X9241071Y-17778214D02*
X9241071Y-17835357D01*
X9683928Y-18192500D02*
X9669643Y-18178214D01*
X9641071Y-18135357D01*
X9626786Y-18106786D01*
X9612500Y-18063929D01*
X9598214Y-17992500D01*
X9598214Y-17935357D01*
X9612500Y-17863929D01*
X9626786Y-17821072D01*
X9641071Y-17792500D01*
X9669643Y-17749643D01*
X9683928Y-17735357D01*
X9955357Y-18078214D02*
X9783928Y-18078214D01*
X9869643Y-18078214D02*
X9869643Y-17778214D01*
X9841071Y-17821072D01*
X9812500Y-17849643D01*
X9783928Y-17863929D01*
X10226786Y-17778214D02*
X10083928Y-17778214D01*
X10069643Y-17921072D01*
X10083928Y-17906786D01*
X10112500Y-17892500D01*
X10183928Y-17892500D01*
X10212500Y-17906786D01*
X10226786Y-17921072D01*
X10241071Y-17949643D01*
X10241071Y-18021072D01*
X10226786Y-18049643D01*
X10212500Y-18063929D01*
X10183928Y-18078214D01*
X10112500Y-18078214D01*
X10083928Y-18063929D01*
X10069643Y-18049643D01*
X10598214Y-18078214D02*
X10598214Y-17778214D01*
X10726786Y-18078214D02*
X10726786Y-17921072D01*
X10712500Y-17892500D01*
X10683928Y-17878214D01*
X10641071Y-17878214D01*
X10612500Y-17892500D01*
X10598214Y-17906786D01*
X10912500Y-18078214D02*
X10883928Y-18063929D01*
X10869643Y-18049643D01*
X10855357Y-18021072D01*
X10855357Y-17935357D01*
X10869643Y-17906786D01*
X10883928Y-17892500D01*
X10912500Y-17878214D01*
X10955357Y-17878214D01*
X10983928Y-17892500D01*
X10998214Y-17906786D01*
X11012500Y-17935357D01*
X11012500Y-18021072D01*
X10998214Y-18049643D01*
X10983928Y-18063929D01*
X10955357Y-18078214D01*
X10912500Y-18078214D01*
X11183928Y-18078214D02*
X11155357Y-18063929D01*
X11141071Y-18035357D01*
X11141071Y-17778214D01*
X11412500Y-18063929D02*
X11383928Y-18078214D01*
X11326786Y-18078214D01*
X11298214Y-18063929D01*
X11283928Y-18035357D01*
X11283928Y-17921072D01*
X11298214Y-17892500D01*
X11326786Y-17878214D01*
X11383928Y-17878214D01*
X11412500Y-17892500D01*
X11426786Y-17921072D01*
X11426786Y-17949643D01*
X11283928Y-17978214D01*
X11541071Y-18063929D02*
X11569643Y-18078214D01*
X11626786Y-18078214D01*
X11655357Y-18063929D01*
X11669643Y-18035357D01*
X11669643Y-18021072D01*
X11655357Y-17992500D01*
X11626786Y-17978214D01*
X11583928Y-17978214D01*
X11555357Y-17963929D01*
X11541071Y-17935357D01*
X11541071Y-17921072D01*
X11555357Y-17892500D01*
X11583928Y-17878214D01*
X11626786Y-17878214D01*
X11655357Y-17892500D01*
X11769643Y-18192500D02*
X11783928Y-18178214D01*
X11812500Y-18135357D01*
X11826786Y-18106786D01*
X11841071Y-18063929D01*
X11855357Y-17992500D01*
X11855357Y-17935357D01*
X11841071Y-17863929D01*
X11826786Y-17821072D01*
X11812500Y-17792500D01*
X11783928Y-17749643D01*
X11769643Y-17735357D01*
X4887500Y-18283500D02*
X4997500Y-18393500D01*
X4997500Y-18283500D02*
X4887500Y-18393500D01*
X4942500Y-18283500D02*
X4942500Y-18393500D01*
X4887500Y-18338500D02*
X4997500Y-18338500D01*
X5441071Y-18474214D02*
X5269643Y-18474214D01*
X5355357Y-18474214D02*
X5355357Y-18174214D01*
X5326786Y-18217072D01*
X5298214Y-18245643D01*
X5269643Y-18259929D01*
X5569643Y-18445643D02*
X5583928Y-18459929D01*
X5569643Y-18474214D01*
X5555357Y-18459929D01*
X5569643Y-18445643D01*
X5569643Y-18474214D01*
X5869643Y-18474214D02*
X5698214Y-18474214D01*
X5783928Y-18474214D02*
X5783928Y-18174214D01*
X5755357Y-18217072D01*
X5726786Y-18245643D01*
X5698214Y-18259929D01*
X6055357Y-18174214D02*
X6083928Y-18174214D01*
X6112500Y-18188500D01*
X6126786Y-18202786D01*
X6141071Y-18231357D01*
X6155357Y-18288500D01*
X6155357Y-18359929D01*
X6141071Y-18417072D01*
X6126786Y-18445643D01*
X6112500Y-18459929D01*
X6083928Y-18474214D01*
X6055357Y-18474214D01*
X6026786Y-18459929D01*
X6012500Y-18445643D01*
X5998214Y-18417072D01*
X5983928Y-18359929D01*
X5983928Y-18288500D01*
X5998214Y-18231357D01*
X6012500Y-18202786D01*
X6026786Y-18188500D01*
X6055357Y-18174214D01*
X6283928Y-18474214D02*
X6283928Y-18274214D01*
X6283928Y-18302786D02*
X6298214Y-18288500D01*
X6326786Y-18274214D01*
X6369643Y-18274214D01*
X6398214Y-18288500D01*
X6412500Y-18317072D01*
X6412500Y-18474214D01*
X6412500Y-18317072D02*
X6426786Y-18288500D01*
X6455357Y-18274214D01*
X6498214Y-18274214D01*
X6526786Y-18288500D01*
X6541071Y-18317072D01*
X6541071Y-18474214D01*
X6683928Y-18474214D02*
X6683928Y-18274214D01*
X6683928Y-18302786D02*
X6698214Y-18288500D01*
X6726786Y-18274214D01*
X6769643Y-18274214D01*
X6798214Y-18288500D01*
X6812500Y-18317072D01*
X6812500Y-18474214D01*
X6812500Y-18317072D02*
X6826786Y-18288500D01*
X6855357Y-18274214D01*
X6898214Y-18274214D01*
X6926786Y-18288500D01*
X6941071Y-18317072D01*
X6941071Y-18474214D01*
X7526786Y-18159929D02*
X7269643Y-18545643D01*
X7912500Y-18174214D02*
X7941071Y-18174214D01*
X7969643Y-18188500D01*
X7983928Y-18202786D01*
X7998214Y-18231357D01*
X8012500Y-18288500D01*
X8012500Y-18359929D01*
X7998214Y-18417072D01*
X7983928Y-18445643D01*
X7969643Y-18459929D01*
X7941071Y-18474214D01*
X7912500Y-18474214D01*
X7883928Y-18459929D01*
X7869643Y-18445643D01*
X7855357Y-18417072D01*
X7841071Y-18359929D01*
X7841071Y-18288500D01*
X7855357Y-18231357D01*
X7869643Y-18202786D01*
X7883928Y-18188500D01*
X7912500Y-18174214D01*
X8141071Y-18445643D02*
X8155357Y-18459929D01*
X8141071Y-18474214D01*
X8126786Y-18459929D01*
X8141071Y-18445643D01*
X8141071Y-18474214D01*
X8341071Y-18174214D02*
X8369643Y-18174214D01*
X8398214Y-18188500D01*
X8412500Y-18202786D01*
X8426786Y-18231357D01*
X8441071Y-18288500D01*
X8441071Y-18359929D01*
X8426786Y-18417072D01*
X8412500Y-18445643D01*
X8398214Y-18459929D01*
X8369643Y-18474214D01*
X8341071Y-18474214D01*
X8312500Y-18459929D01*
X8298214Y-18445643D01*
X8283928Y-18417072D01*
X8269643Y-18359929D01*
X8269643Y-18288500D01*
X8283928Y-18231357D01*
X8298214Y-18202786D01*
X8312500Y-18188500D01*
X8341071Y-18174214D01*
X8698214Y-18274214D02*
X8698214Y-18474214D01*
X8626786Y-18159929D02*
X8555357Y-18374214D01*
X8741071Y-18374214D01*
X8826786Y-18174214D02*
X9012500Y-18174214D01*
X8912500Y-18288500D01*
X8955357Y-18288500D01*
X8983928Y-18302786D01*
X8998214Y-18317072D01*
X9012500Y-18345643D01*
X9012500Y-18417072D01*
X8998214Y-18445643D01*
X8983928Y-18459929D01*
X8955357Y-18474214D01*
X8869643Y-18474214D01*
X8841071Y-18459929D01*
X8826786Y-18445643D01*
X9126786Y-18174214D02*
X9126786Y-18231357D01*
X9241071Y-18174214D02*
X9241071Y-18231357D01*
X9683928Y-18588500D02*
X9669643Y-18574214D01*
X9641071Y-18531357D01*
X9626786Y-18502786D01*
X9612500Y-18459929D01*
X9598214Y-18388500D01*
X9598214Y-18331357D01*
X9612500Y-18259929D01*
X9626786Y-18217072D01*
X9641071Y-18188500D01*
X9669643Y-18145643D01*
X9683928Y-18131357D01*
X9926786Y-18274214D02*
X9926786Y-18474214D01*
X9855357Y-18159929D02*
X9783928Y-18374214D01*
X9969643Y-18374214D01*
X10312500Y-18474214D02*
X10312500Y-18174214D01*
X10441071Y-18474214D02*
X10441071Y-18317072D01*
X10426786Y-18288500D01*
X10398214Y-18274214D01*
X10355357Y-18274214D01*
X10326786Y-18288500D01*
X10312500Y-18302786D01*
X10626786Y-18474214D02*
X10598214Y-18459929D01*
X10583928Y-18445643D01*
X10569643Y-18417072D01*
X10569643Y-18331357D01*
X10583928Y-18302786D01*
X10598214Y-18288500D01*
X10626786Y-18274214D01*
X10669643Y-18274214D01*
X10698214Y-18288500D01*
X10712500Y-18302786D01*
X10726786Y-18331357D01*
X10726786Y-18417072D01*
X10712500Y-18445643D01*
X10698214Y-18459929D01*
X10669643Y-18474214D01*
X10626786Y-18474214D01*
X10898214Y-18474214D02*
X10869643Y-18459929D01*
X10855357Y-18431357D01*
X10855357Y-18174214D01*
X11126786Y-18459929D02*
X11098214Y-18474214D01*
X11041071Y-18474214D01*
X11012500Y-18459929D01*
X10998214Y-18431357D01*
X10998214Y-18317072D01*
X11012500Y-18288500D01*
X11041071Y-18274214D01*
X11098214Y-18274214D01*
X11126786Y-18288500D01*
X11141071Y-18317072D01*
X11141071Y-18345643D01*
X10998214Y-18374214D01*
X11255357Y-18459929D02*
X11283928Y-18474214D01*
X11341071Y-18474214D01*
X11369643Y-18459929D01*
X11383928Y-18431357D01*
X11383928Y-18417072D01*
X11369643Y-18388500D01*
X11341071Y-18374214D01*
X11298214Y-18374214D01*
X11269643Y-18359929D01*
X11255357Y-18331357D01*
X11255357Y-18317072D01*
X11269643Y-18288500D01*
X11298214Y-18274214D01*
X11341071Y-18274214D01*
X11369643Y-18288500D01*
X11483928Y-18588500D02*
X11498214Y-18574214D01*
X11526786Y-18531357D01*
X11541071Y-18502786D01*
X11555357Y-18459929D01*
X11569643Y-18388500D01*
X11569643Y-18331357D01*
X11555357Y-18259929D01*
X11541071Y-18217072D01*
X11526786Y-18188500D01*
X11498214Y-18145643D01*
X11483928Y-18131357D01*
X4877500Y-18674500D02*
X4997500Y-18794500D01*
X4997500Y-18674500D02*
X4877500Y-18794500D01*
X4979927Y-18776927D02*
X4979927Y-18692073D01*
X4895073Y-18692073D01*
X4895073Y-18776927D01*
X4979927Y-18776927D01*
X5441071Y-18870214D02*
X5269643Y-18870214D01*
X5355357Y-18870214D02*
X5355357Y-18570214D01*
X5326786Y-18613072D01*
X5298214Y-18641643D01*
X5269643Y-18655929D01*
X5569643Y-18841643D02*
X5583928Y-18855929D01*
X5569643Y-18870214D01*
X5555357Y-18855929D01*
X5569643Y-18841643D01*
X5569643Y-18870214D01*
X5698214Y-18598786D02*
X5712500Y-18584500D01*
X5741071Y-18570214D01*
X5812500Y-18570214D01*
X5841071Y-18584500D01*
X5855357Y-18598786D01*
X5869643Y-18627357D01*
X5869643Y-18655929D01*
X5855357Y-18698786D01*
X5683928Y-18870214D01*
X5869643Y-18870214D01*
X6055357Y-18570214D02*
X6083928Y-18570214D01*
X6112500Y-18584500D01*
X6126786Y-18598786D01*
X6141071Y-18627357D01*
X6155357Y-18684500D01*
X6155357Y-18755929D01*
X6141071Y-18813072D01*
X6126786Y-18841643D01*
X6112500Y-18855929D01*
X6083928Y-18870214D01*
X6055357Y-18870214D01*
X6026786Y-18855929D01*
X6012500Y-18841643D01*
X5998214Y-18813072D01*
X5983928Y-18755929D01*
X5983928Y-18684500D01*
X5998214Y-18627357D01*
X6012500Y-18598786D01*
X6026786Y-18584500D01*
X6055357Y-18570214D01*
X6283928Y-18870214D02*
X6283928Y-18670214D01*
X6283928Y-18698786D02*
X6298214Y-18684500D01*
X6326786Y-18670214D01*
X6369643Y-18670214D01*
X6398214Y-18684500D01*
X6412500Y-18713072D01*
X6412500Y-18870214D01*
X6412500Y-18713072D02*
X6426786Y-18684500D01*
X6455357Y-18670214D01*
X6498214Y-18670214D01*
X6526786Y-18684500D01*
X6541071Y-18713072D01*
X6541071Y-18870214D01*
X6683928Y-18870214D02*
X6683928Y-18670214D01*
X6683928Y-18698786D02*
X6698214Y-18684500D01*
X6726786Y-18670214D01*
X6769643Y-18670214D01*
X6798214Y-18684500D01*
X6812500Y-18713072D01*
X6812500Y-18870214D01*
X6812500Y-18713072D02*
X6826786Y-18684500D01*
X6855357Y-18670214D01*
X6898214Y-18670214D01*
X6926786Y-18684500D01*
X6941071Y-18713072D01*
X6941071Y-18870214D01*
X7526786Y-18555929D02*
X7269643Y-18941643D01*
X7912500Y-18570214D02*
X7941071Y-18570214D01*
X7969643Y-18584500D01*
X7983928Y-18598786D01*
X7998214Y-18627357D01*
X8012500Y-18684500D01*
X8012500Y-18755929D01*
X7998214Y-18813072D01*
X7983928Y-18841643D01*
X7969643Y-18855929D01*
X7941071Y-18870214D01*
X7912500Y-18870214D01*
X7883928Y-18855929D01*
X7869643Y-18841643D01*
X7855357Y-18813072D01*
X7841071Y-18755929D01*
X7841071Y-18684500D01*
X7855357Y-18627357D01*
X7869643Y-18598786D01*
X7883928Y-18584500D01*
X7912500Y-18570214D01*
X8141071Y-18841643D02*
X8155357Y-18855929D01*
X8141071Y-18870214D01*
X8126786Y-18855929D01*
X8141071Y-18841643D01*
X8141071Y-18870214D01*
X8341071Y-18570214D02*
X8369643Y-18570214D01*
X8398214Y-18584500D01*
X8412500Y-18598786D01*
X8426786Y-18627357D01*
X8441071Y-18684500D01*
X8441071Y-18755929D01*
X8426786Y-18813072D01*
X8412500Y-18841643D01*
X8398214Y-18855929D01*
X8369643Y-18870214D01*
X8341071Y-18870214D01*
X8312500Y-18855929D01*
X8298214Y-18841643D01*
X8283928Y-18813072D01*
X8269643Y-18755929D01*
X8269643Y-18684500D01*
X8283928Y-18627357D01*
X8298214Y-18598786D01*
X8312500Y-18584500D01*
X8341071Y-18570214D01*
X8698214Y-18670214D02*
X8698214Y-18870214D01*
X8626786Y-18555929D02*
X8555357Y-18770214D01*
X8741071Y-18770214D01*
X8826786Y-18570214D02*
X9026786Y-18570214D01*
X8898214Y-18870214D01*
X9126786Y-18570214D02*
X9126786Y-18627357D01*
X9241071Y-18570214D02*
X9241071Y-18627357D01*
X9683928Y-18984500D02*
X9669643Y-18970214D01*
X9641071Y-18927357D01*
X9626786Y-18898786D01*
X9612500Y-18855929D01*
X9598214Y-18784500D01*
X9598214Y-18727357D01*
X9612500Y-18655929D01*
X9626786Y-18613072D01*
X9641071Y-18584500D01*
X9669643Y-18541643D01*
X9683928Y-18527357D01*
X9783928Y-18598786D02*
X9798214Y-18584500D01*
X9826786Y-18570214D01*
X9898214Y-18570214D01*
X9926786Y-18584500D01*
X9941071Y-18598786D01*
X9955357Y-18627357D01*
X9955357Y-18655929D01*
X9941071Y-18698786D01*
X9769643Y-18870214D01*
X9955357Y-18870214D01*
X10212500Y-18670214D02*
X10212500Y-18870214D01*
X10141071Y-18555929D02*
X10069643Y-18770214D01*
X10255357Y-18770214D01*
X10598214Y-18870214D02*
X10598214Y-18570214D01*
X10726786Y-18870214D02*
X10726786Y-18713072D01*
X10712500Y-18684500D01*
X10683928Y-18670214D01*
X10641071Y-18670214D01*
X10612500Y-18684500D01*
X10598214Y-18698786D01*
X10912500Y-18870214D02*
X10883928Y-18855929D01*
X10869643Y-18841643D01*
X10855357Y-18813072D01*
X10855357Y-18727357D01*
X10869643Y-18698786D01*
X10883928Y-18684500D01*
X10912500Y-18670214D01*
X10955357Y-18670214D01*
X10983928Y-18684500D01*
X10998214Y-18698786D01*
X11012500Y-18727357D01*
X11012500Y-18813072D01*
X10998214Y-18841643D01*
X10983928Y-18855929D01*
X10955357Y-18870214D01*
X10912500Y-18870214D01*
X11183928Y-18870214D02*
X11155357Y-18855929D01*
X11141071Y-18827357D01*
X11141071Y-18570214D01*
X11412500Y-18855929D02*
X11383928Y-18870214D01*
X11326786Y-18870214D01*
X11298214Y-18855929D01*
X11283928Y-18827357D01*
X11283928Y-18713072D01*
X11298214Y-18684500D01*
X11326786Y-18670214D01*
X11383928Y-18670214D01*
X11412500Y-18684500D01*
X11426786Y-18713072D01*
X11426786Y-18741643D01*
X11283928Y-18770214D01*
X11541071Y-18855929D02*
X11569643Y-18870214D01*
X11626786Y-18870214D01*
X11655357Y-18855929D01*
X11669643Y-18827357D01*
X11669643Y-18813072D01*
X11655357Y-18784500D01*
X11626786Y-18770214D01*
X11583928Y-18770214D01*
X11555357Y-18755929D01*
X11541071Y-18727357D01*
X11541071Y-18713072D01*
X11555357Y-18684500D01*
X11583928Y-18670214D01*
X11626786Y-18670214D01*
X11655357Y-18684500D01*
X11769643Y-18984500D02*
X11783928Y-18970214D01*
X11812500Y-18927357D01*
X11826786Y-18898786D01*
X11841071Y-18855929D01*
X11855357Y-18784500D01*
X11855357Y-18727357D01*
X11841071Y-18655929D01*
X11826786Y-18613072D01*
X11812500Y-18584500D01*
X11783928Y-18541643D01*
X11769643Y-18527357D01*
X4857500Y-19060500D02*
X4997500Y-19200500D01*
X4997500Y-19060500D02*
X4857500Y-19200500D01*
X4927500Y-19200500D02*
X4997500Y-19130500D01*
X4927500Y-19060500D01*
X4857500Y-19130500D01*
X4927500Y-19200500D01*
X5441071Y-19266214D02*
X5269643Y-19266214D01*
X5355357Y-19266214D02*
X5355357Y-18966214D01*
X5326786Y-19009072D01*
X5298214Y-19037643D01*
X5269643Y-19051929D01*
X5569643Y-19237643D02*
X5583928Y-19251929D01*
X5569643Y-19266214D01*
X5555357Y-19251929D01*
X5569643Y-19237643D01*
X5569643Y-19266214D01*
X5841071Y-19066214D02*
X5841071Y-19266214D01*
X5769643Y-18951929D02*
X5698214Y-19166214D01*
X5883928Y-19166214D01*
X6055357Y-18966214D02*
X6083928Y-18966214D01*
X6112500Y-18980500D01*
X6126786Y-18994786D01*
X6141071Y-19023357D01*
X6155357Y-19080500D01*
X6155357Y-19151929D01*
X6141071Y-19209072D01*
X6126786Y-19237643D01*
X6112500Y-19251929D01*
X6083928Y-19266214D01*
X6055357Y-19266214D01*
X6026786Y-19251929D01*
X6012500Y-19237643D01*
X5998214Y-19209072D01*
X5983928Y-19151929D01*
X5983928Y-19080500D01*
X5998214Y-19023357D01*
X6012500Y-18994786D01*
X6026786Y-18980500D01*
X6055357Y-18966214D01*
X6283928Y-19266214D02*
X6283928Y-19066214D01*
X6283928Y-19094786D02*
X6298214Y-19080500D01*
X6326786Y-19066214D01*
X6369643Y-19066214D01*
X6398214Y-19080500D01*
X6412500Y-19109072D01*
X6412500Y-19266214D01*
X6412500Y-19109072D02*
X6426786Y-19080500D01*
X6455357Y-19066214D01*
X6498214Y-19066214D01*
X6526786Y-19080500D01*
X6541071Y-19109072D01*
X6541071Y-19266214D01*
X6683928Y-19266214D02*
X6683928Y-19066214D01*
X6683928Y-19094786D02*
X6698214Y-19080500D01*
X6726786Y-19066214D01*
X6769643Y-19066214D01*
X6798214Y-19080500D01*
X6812500Y-19109072D01*
X6812500Y-19266214D01*
X6812500Y-19109072D02*
X6826786Y-19080500D01*
X6855357Y-19066214D01*
X6898214Y-19066214D01*
X6926786Y-19080500D01*
X6941071Y-19109072D01*
X6941071Y-19266214D01*
X7526786Y-18951929D02*
X7269643Y-19337643D01*
X7912500Y-18966214D02*
X7941071Y-18966214D01*
X7969643Y-18980500D01*
X7983928Y-18994786D01*
X7998214Y-19023357D01*
X8012500Y-19080500D01*
X8012500Y-19151929D01*
X7998214Y-19209072D01*
X7983928Y-19237643D01*
X7969643Y-19251929D01*
X7941071Y-19266214D01*
X7912500Y-19266214D01*
X7883928Y-19251929D01*
X7869643Y-19237643D01*
X7855357Y-19209072D01*
X7841071Y-19151929D01*
X7841071Y-19080500D01*
X7855357Y-19023357D01*
X7869643Y-18994786D01*
X7883928Y-18980500D01*
X7912500Y-18966214D01*
X8141071Y-19237643D02*
X8155357Y-19251929D01*
X8141071Y-19266214D01*
X8126786Y-19251929D01*
X8141071Y-19237643D01*
X8141071Y-19266214D01*
X8341071Y-18966214D02*
X8369643Y-18966214D01*
X8398214Y-18980500D01*
X8412500Y-18994786D01*
X8426786Y-19023357D01*
X8441071Y-19080500D01*
X8441071Y-19151929D01*
X8426786Y-19209072D01*
X8412500Y-19237643D01*
X8398214Y-19251929D01*
X8369643Y-19266214D01*
X8341071Y-19266214D01*
X8312500Y-19251929D01*
X8298214Y-19237643D01*
X8283928Y-19209072D01*
X8269643Y-19151929D01*
X8269643Y-19080500D01*
X8283928Y-19023357D01*
X8298214Y-18994786D01*
X8312500Y-18980500D01*
X8341071Y-18966214D01*
X8712500Y-18966214D02*
X8569643Y-18966214D01*
X8555357Y-19109072D01*
X8569643Y-19094786D01*
X8598214Y-19080500D01*
X8669643Y-19080500D01*
X8698214Y-19094786D01*
X8712500Y-19109072D01*
X8726786Y-19137643D01*
X8726786Y-19209072D01*
X8712500Y-19237643D01*
X8698214Y-19251929D01*
X8669643Y-19266214D01*
X8598214Y-19266214D01*
X8569643Y-19251929D01*
X8555357Y-19237643D01*
X8998214Y-18966214D02*
X8855357Y-18966214D01*
X8841071Y-19109072D01*
X8855357Y-19094786D01*
X8883928Y-19080500D01*
X8955357Y-19080500D01*
X8983928Y-19094786D01*
X8998214Y-19109072D01*
X9012500Y-19137643D01*
X9012500Y-19209072D01*
X8998214Y-19237643D01*
X8983928Y-19251929D01*
X8955357Y-19266214D01*
X8883928Y-19266214D01*
X8855357Y-19251929D01*
X8841071Y-19237643D01*
X9126786Y-18966214D02*
X9126786Y-19023357D01*
X9241071Y-18966214D02*
X9241071Y-19023357D01*
X9683928Y-19380500D02*
X9669643Y-19366214D01*
X9641071Y-19323357D01*
X9626786Y-19294786D01*
X9612500Y-19251929D01*
X9598214Y-19180500D01*
X9598214Y-19123357D01*
X9612500Y-19051929D01*
X9626786Y-19009072D01*
X9641071Y-18980500D01*
X9669643Y-18937643D01*
X9683928Y-18923357D01*
X9841071Y-19094786D02*
X9812500Y-19080500D01*
X9798214Y-19066214D01*
X9783928Y-19037643D01*
X9783928Y-19023357D01*
X9798214Y-18994786D01*
X9812500Y-18980500D01*
X9841071Y-18966214D01*
X9898214Y-18966214D01*
X9926786Y-18980500D01*
X9941071Y-18994786D01*
X9955357Y-19023357D01*
X9955357Y-19037643D01*
X9941071Y-19066214D01*
X9926786Y-19080500D01*
X9898214Y-19094786D01*
X9841071Y-19094786D01*
X9812500Y-19109072D01*
X9798214Y-19123357D01*
X9783928Y-19151929D01*
X9783928Y-19209072D01*
X9798214Y-19237643D01*
X9812500Y-19251929D01*
X9841071Y-19266214D01*
X9898214Y-19266214D01*
X9926786Y-19251929D01*
X9941071Y-19237643D01*
X9955357Y-19209072D01*
X9955357Y-19151929D01*
X9941071Y-19123357D01*
X9926786Y-19109072D01*
X9898214Y-19094786D01*
X10312500Y-19266214D02*
X10312500Y-18966214D01*
X10441071Y-19266214D02*
X10441071Y-19109072D01*
X10426786Y-19080500D01*
X10398214Y-19066214D01*
X10355357Y-19066214D01*
X10326786Y-19080500D01*
X10312500Y-19094786D01*
X10626786Y-19266214D02*
X10598214Y-19251929D01*
X10583928Y-19237643D01*
X10569643Y-19209072D01*
X10569643Y-19123357D01*
X10583928Y-19094786D01*
X10598214Y-19080500D01*
X10626786Y-19066214D01*
X10669643Y-19066214D01*
X10698214Y-19080500D01*
X10712500Y-19094786D01*
X10726786Y-19123357D01*
X10726786Y-19209072D01*
X10712500Y-19237643D01*
X10698214Y-19251929D01*
X10669643Y-19266214D01*
X10626786Y-19266214D01*
X10898214Y-19266214D02*
X10869643Y-19251929D01*
X10855357Y-19223357D01*
X10855357Y-18966214D01*
X11126786Y-19251929D02*
X11098214Y-19266214D01*
X11041071Y-19266214D01*
X11012500Y-19251929D01*
X10998214Y-19223357D01*
X10998214Y-19109072D01*
X11012500Y-19080500D01*
X11041071Y-19066214D01*
X11098214Y-19066214D01*
X11126786Y-19080500D01*
X11141071Y-19109072D01*
X11141071Y-19137643D01*
X10998214Y-19166214D01*
X11255357Y-19251929D02*
X11283928Y-19266214D01*
X11341071Y-19266214D01*
X11369643Y-19251929D01*
X11383928Y-19223357D01*
X11383928Y-19209072D01*
X11369643Y-19180500D01*
X11341071Y-19166214D01*
X11298214Y-19166214D01*
X11269643Y-19151929D01*
X11255357Y-19123357D01*
X11255357Y-19109072D01*
X11269643Y-19080500D01*
X11298214Y-19066214D01*
X11341071Y-19066214D01*
X11369643Y-19080500D01*
X11483928Y-19380500D02*
X11498214Y-19366214D01*
X11526786Y-19323357D01*
X11541071Y-19294786D01*
X11555357Y-19251929D01*
X11569643Y-19180500D01*
X11569643Y-19123357D01*
X11555357Y-19051929D01*
X11541071Y-19009072D01*
X11526786Y-18980500D01*
X11498214Y-18937643D01*
X11483928Y-18923357D01*
X4922500Y-19451500D02*
X4922500Y-19601500D01*
X4847500Y-19526500D02*
X4997500Y-19526500D01*
X4997500Y-19526500D02*
G75*
G03*
X4997500Y-19526500I-75000J0D01*
G01*
X5441071Y-19662214D02*
X5269643Y-19662214D01*
X5355357Y-19662214D02*
X5355357Y-19362214D01*
X5326786Y-19405072D01*
X5298214Y-19433643D01*
X5269643Y-19447929D01*
X5569643Y-19633643D02*
X5583928Y-19647929D01*
X5569643Y-19662214D01*
X5555357Y-19647929D01*
X5569643Y-19633643D01*
X5569643Y-19662214D01*
X5855357Y-19362214D02*
X5712500Y-19362214D01*
X5698214Y-19505072D01*
X5712500Y-19490786D01*
X5741071Y-19476500D01*
X5812500Y-19476500D01*
X5841071Y-19490786D01*
X5855357Y-19505072D01*
X5869643Y-19533643D01*
X5869643Y-19605072D01*
X5855357Y-19633643D01*
X5841071Y-19647929D01*
X5812500Y-19662214D01*
X5741071Y-19662214D01*
X5712500Y-19647929D01*
X5698214Y-19633643D01*
X6055357Y-19362214D02*
X6083928Y-19362214D01*
X6112500Y-19376500D01*
X6126786Y-19390786D01*
X6141071Y-19419357D01*
X6155357Y-19476500D01*
X6155357Y-19547929D01*
X6141071Y-19605072D01*
X6126786Y-19633643D01*
X6112500Y-19647929D01*
X6083928Y-19662214D01*
X6055357Y-19662214D01*
X6026786Y-19647929D01*
X6012500Y-19633643D01*
X5998214Y-19605072D01*
X5983928Y-19547929D01*
X5983928Y-19476500D01*
X5998214Y-19419357D01*
X6012500Y-19390786D01*
X6026786Y-19376500D01*
X6055357Y-19362214D01*
X6283928Y-19662214D02*
X6283928Y-19462214D01*
X6283928Y-19490786D02*
X6298214Y-19476500D01*
X6326786Y-19462214D01*
X6369643Y-19462214D01*
X6398214Y-19476500D01*
X6412500Y-19505072D01*
X6412500Y-19662214D01*
X6412500Y-19505072D02*
X6426786Y-19476500D01*
X6455357Y-19462214D01*
X6498214Y-19462214D01*
X6526786Y-19476500D01*
X6541071Y-19505072D01*
X6541071Y-19662214D01*
X6683928Y-19662214D02*
X6683928Y-19462214D01*
X6683928Y-19490786D02*
X6698214Y-19476500D01*
X6726786Y-19462214D01*
X6769643Y-19462214D01*
X6798214Y-19476500D01*
X6812500Y-19505072D01*
X6812500Y-19662214D01*
X6812500Y-19505072D02*
X6826786Y-19476500D01*
X6855357Y-19462214D01*
X6898214Y-19462214D01*
X6926786Y-19476500D01*
X6941071Y-19505072D01*
X6941071Y-19662214D01*
X7526786Y-19347929D02*
X7269643Y-19733643D01*
X7912500Y-19362214D02*
X7941071Y-19362214D01*
X7969643Y-19376500D01*
X7983928Y-19390786D01*
X7998214Y-19419357D01*
X8012500Y-19476500D01*
X8012500Y-19547929D01*
X7998214Y-19605072D01*
X7983928Y-19633643D01*
X7969643Y-19647929D01*
X7941071Y-19662214D01*
X7912500Y-19662214D01*
X7883928Y-19647929D01*
X7869643Y-19633643D01*
X7855357Y-19605072D01*
X7841071Y-19547929D01*
X7841071Y-19476500D01*
X7855357Y-19419357D01*
X7869643Y-19390786D01*
X7883928Y-19376500D01*
X7912500Y-19362214D01*
X8141071Y-19633643D02*
X8155357Y-19647929D01*
X8141071Y-19662214D01*
X8126786Y-19647929D01*
X8141071Y-19633643D01*
X8141071Y-19662214D01*
X8341071Y-19362214D02*
X8369643Y-19362214D01*
X8398214Y-19376500D01*
X8412500Y-19390786D01*
X8426786Y-19419357D01*
X8441071Y-19476500D01*
X8441071Y-19547929D01*
X8426786Y-19605072D01*
X8412500Y-19633643D01*
X8398214Y-19647929D01*
X8369643Y-19662214D01*
X8341071Y-19662214D01*
X8312500Y-19647929D01*
X8298214Y-19633643D01*
X8283928Y-19605072D01*
X8269643Y-19547929D01*
X8269643Y-19476500D01*
X8283928Y-19419357D01*
X8298214Y-19390786D01*
X8312500Y-19376500D01*
X8341071Y-19362214D01*
X8712500Y-19362214D02*
X8569643Y-19362214D01*
X8555357Y-19505072D01*
X8569643Y-19490786D01*
X8598214Y-19476500D01*
X8669643Y-19476500D01*
X8698214Y-19490786D01*
X8712500Y-19505072D01*
X8726786Y-19533643D01*
X8726786Y-19605072D01*
X8712500Y-19633643D01*
X8698214Y-19647929D01*
X8669643Y-19662214D01*
X8598214Y-19662214D01*
X8569643Y-19647929D01*
X8555357Y-19633643D01*
X8869643Y-19662214D02*
X8926786Y-19662214D01*
X8955357Y-19647929D01*
X8969643Y-19633643D01*
X8998214Y-19590786D01*
X9012500Y-19533643D01*
X9012500Y-19419357D01*
X8998214Y-19390786D01*
X8983928Y-19376500D01*
X8955357Y-19362214D01*
X8898214Y-19362214D01*
X8869643Y-19376500D01*
X8855357Y-19390786D01*
X8841071Y-19419357D01*
X8841071Y-19490786D01*
X8855357Y-19519357D01*
X8869643Y-19533643D01*
X8898214Y-19547929D01*
X8955357Y-19547929D01*
X8983928Y-19533643D01*
X8998214Y-19519357D01*
X9012500Y-19490786D01*
X9126786Y-19362214D02*
X9126786Y-19419357D01*
X9241071Y-19362214D02*
X9241071Y-19419357D01*
X9683928Y-19776500D02*
X9669643Y-19762214D01*
X9641071Y-19719357D01*
X9626786Y-19690786D01*
X9612500Y-19647929D01*
X9598214Y-19576500D01*
X9598214Y-19519357D01*
X9612500Y-19447929D01*
X9626786Y-19405072D01*
X9641071Y-19376500D01*
X9669643Y-19333643D01*
X9683928Y-19319357D01*
X9783928Y-19390786D02*
X9798214Y-19376500D01*
X9826786Y-19362214D01*
X9898214Y-19362214D01*
X9926786Y-19376500D01*
X9941071Y-19390786D01*
X9955357Y-19419357D01*
X9955357Y-19447929D01*
X9941071Y-19490786D01*
X9769643Y-19662214D01*
X9955357Y-19662214D01*
X10312500Y-19662214D02*
X10312500Y-19362214D01*
X10441071Y-19662214D02*
X10441071Y-19505072D01*
X10426786Y-19476500D01*
X10398214Y-19462214D01*
X10355357Y-19462214D01*
X10326786Y-19476500D01*
X10312500Y-19490786D01*
X10626786Y-19662214D02*
X10598214Y-19647929D01*
X10583928Y-19633643D01*
X10569643Y-19605072D01*
X10569643Y-19519357D01*
X10583928Y-19490786D01*
X10598214Y-19476500D01*
X10626786Y-19462214D01*
X10669643Y-19462214D01*
X10698214Y-19476500D01*
X10712500Y-19490786D01*
X10726786Y-19519357D01*
X10726786Y-19605072D01*
X10712500Y-19633643D01*
X10698214Y-19647929D01*
X10669643Y-19662214D01*
X10626786Y-19662214D01*
X10898214Y-19662214D02*
X10869643Y-19647929D01*
X10855357Y-19619357D01*
X10855357Y-19362214D01*
X11126786Y-19647929D02*
X11098214Y-19662214D01*
X11041071Y-19662214D01*
X11012500Y-19647929D01*
X10998214Y-19619357D01*
X10998214Y-19505072D01*
X11012500Y-19476500D01*
X11041071Y-19462214D01*
X11098214Y-19462214D01*
X11126786Y-19476500D01*
X11141071Y-19505072D01*
X11141071Y-19533643D01*
X10998214Y-19562214D01*
X11255357Y-19647929D02*
X11283928Y-19662214D01*
X11341071Y-19662214D01*
X11369643Y-19647929D01*
X11383928Y-19619357D01*
X11383928Y-19605072D01*
X11369643Y-19576500D01*
X11341071Y-19562214D01*
X11298214Y-19562214D01*
X11269643Y-19547929D01*
X11255357Y-19519357D01*
X11255357Y-19505072D01*
X11269643Y-19476500D01*
X11298214Y-19462214D01*
X11341071Y-19462214D01*
X11369643Y-19476500D01*
X11483928Y-19776500D02*
X11498214Y-19762214D01*
X11526786Y-19719357D01*
X11541071Y-19690786D01*
X11555357Y-19647929D01*
X11569643Y-19576500D01*
X11569643Y-19519357D01*
X11555357Y-19447929D01*
X11541071Y-19405072D01*
X11526786Y-19376500D01*
X11498214Y-19333643D01*
X11483928Y-19319357D01*
X4963818Y-20003818D02*
X4963818Y-19841182D01*
X4801182Y-19841182D01*
X4801182Y-20003818D01*
X4963818Y-20003818D01*
X4997500Y-19922500D02*
G75*
G03*
X4997500Y-19922500I-115000J0D01*
G01*
X5269643Y-19786786D02*
X5283928Y-19772500D01*
X5312500Y-19758214D01*
X5383928Y-19758214D01*
X5412500Y-19772500D01*
X5426786Y-19786786D01*
X5441071Y-19815357D01*
X5441071Y-19843929D01*
X5426786Y-19886786D01*
X5255357Y-20058214D01*
X5441071Y-20058214D01*
X5569643Y-20029643D02*
X5583928Y-20043929D01*
X5569643Y-20058214D01*
X5555357Y-20043929D01*
X5569643Y-20029643D01*
X5569643Y-20058214D01*
X5683928Y-19758214D02*
X5869643Y-19758214D01*
X5769643Y-19872500D01*
X5812500Y-19872500D01*
X5841071Y-19886786D01*
X5855357Y-19901072D01*
X5869643Y-19929643D01*
X5869643Y-20001072D01*
X5855357Y-20029643D01*
X5841071Y-20043929D01*
X5812500Y-20058214D01*
X5726786Y-20058214D01*
X5698214Y-20043929D01*
X5683928Y-20029643D01*
X6055357Y-19758214D02*
X6083928Y-19758214D01*
X6112500Y-19772500D01*
X6126786Y-19786786D01*
X6141071Y-19815357D01*
X6155357Y-19872500D01*
X6155357Y-19943929D01*
X6141071Y-20001072D01*
X6126786Y-20029643D01*
X6112500Y-20043929D01*
X6083928Y-20058214D01*
X6055357Y-20058214D01*
X6026786Y-20043929D01*
X6012500Y-20029643D01*
X5998214Y-20001072D01*
X5983928Y-19943929D01*
X5983928Y-19872500D01*
X5998214Y-19815357D01*
X6012500Y-19786786D01*
X6026786Y-19772500D01*
X6055357Y-19758214D01*
X6283928Y-20058214D02*
X6283928Y-19858214D01*
X6283928Y-19886786D02*
X6298214Y-19872500D01*
X6326786Y-19858214D01*
X6369643Y-19858214D01*
X6398214Y-19872500D01*
X6412500Y-19901072D01*
X6412500Y-20058214D01*
X6412500Y-19901072D02*
X6426786Y-19872500D01*
X6455357Y-19858214D01*
X6498214Y-19858214D01*
X6526786Y-19872500D01*
X6541071Y-19901072D01*
X6541071Y-20058214D01*
X6683928Y-20058214D02*
X6683928Y-19858214D01*
X6683928Y-19886786D02*
X6698214Y-19872500D01*
X6726786Y-19858214D01*
X6769643Y-19858214D01*
X6798214Y-19872500D01*
X6812500Y-19901072D01*
X6812500Y-20058214D01*
X6812500Y-19901072D02*
X6826786Y-19872500D01*
X6855357Y-19858214D01*
X6898214Y-19858214D01*
X6926786Y-19872500D01*
X6941071Y-19901072D01*
X6941071Y-20058214D01*
X7526786Y-19743929D02*
X7269643Y-20129643D01*
X7912500Y-19758214D02*
X7941071Y-19758214D01*
X7969643Y-19772500D01*
X7983928Y-19786786D01*
X7998214Y-19815357D01*
X8012500Y-19872500D01*
X8012500Y-19943929D01*
X7998214Y-20001072D01*
X7983928Y-20029643D01*
X7969643Y-20043929D01*
X7941071Y-20058214D01*
X7912500Y-20058214D01*
X7883928Y-20043929D01*
X7869643Y-20029643D01*
X7855357Y-20001072D01*
X7841071Y-19943929D01*
X7841071Y-19872500D01*
X7855357Y-19815357D01*
X7869643Y-19786786D01*
X7883928Y-19772500D01*
X7912500Y-19758214D01*
X8141071Y-20029643D02*
X8155357Y-20043929D01*
X8141071Y-20058214D01*
X8126786Y-20043929D01*
X8141071Y-20029643D01*
X8141071Y-20058214D01*
X8341071Y-19758214D02*
X8369643Y-19758214D01*
X8398214Y-19772500D01*
X8412500Y-19786786D01*
X8426786Y-19815357D01*
X8441071Y-19872500D01*
X8441071Y-19943929D01*
X8426786Y-20001072D01*
X8412500Y-20029643D01*
X8398214Y-20043929D01*
X8369643Y-20058214D01*
X8341071Y-20058214D01*
X8312500Y-20043929D01*
X8298214Y-20029643D01*
X8283928Y-20001072D01*
X8269643Y-19943929D01*
X8269643Y-19872500D01*
X8283928Y-19815357D01*
X8298214Y-19786786D01*
X8312500Y-19772500D01*
X8341071Y-19758214D01*
X8583928Y-20058214D02*
X8641071Y-20058214D01*
X8669643Y-20043929D01*
X8683928Y-20029643D01*
X8712500Y-19986786D01*
X8726786Y-19929643D01*
X8726786Y-19815357D01*
X8712500Y-19786786D01*
X8698214Y-19772500D01*
X8669643Y-19758214D01*
X8612500Y-19758214D01*
X8583928Y-19772500D01*
X8569643Y-19786786D01*
X8555357Y-19815357D01*
X8555357Y-19886786D01*
X8569643Y-19915357D01*
X8583928Y-19929643D01*
X8612500Y-19943929D01*
X8669643Y-19943929D01*
X8698214Y-19929643D01*
X8712500Y-19915357D01*
X8726786Y-19886786D01*
X9012500Y-20058214D02*
X8841071Y-20058214D01*
X8926786Y-20058214D02*
X8926786Y-19758214D01*
X8898214Y-19801072D01*
X8869643Y-19829643D01*
X8841071Y-19843929D01*
X9126786Y-19758214D02*
X9126786Y-19815357D01*
X9241071Y-19758214D02*
X9241071Y-19815357D01*
X9683928Y-20172500D02*
X9669643Y-20158214D01*
X9641071Y-20115357D01*
X9626786Y-20086786D01*
X9612500Y-20043929D01*
X9598214Y-19972500D01*
X9598214Y-19915357D01*
X9612500Y-19843929D01*
X9626786Y-19801072D01*
X9641071Y-19772500D01*
X9669643Y-19729643D01*
X9683928Y-19715357D01*
X9783928Y-19786786D02*
X9798214Y-19772500D01*
X9826786Y-19758214D01*
X9898214Y-19758214D01*
X9926786Y-19772500D01*
X9941071Y-19786786D01*
X9955357Y-19815357D01*
X9955357Y-19843929D01*
X9941071Y-19886786D01*
X9769643Y-20058214D01*
X9955357Y-20058214D01*
X10312500Y-20058214D02*
X10312500Y-19758214D01*
X10441071Y-20058214D02*
X10441071Y-19901072D01*
X10426786Y-19872500D01*
X10398214Y-19858214D01*
X10355357Y-19858214D01*
X10326786Y-19872500D01*
X10312500Y-19886786D01*
X10626786Y-20058214D02*
X10598214Y-20043929D01*
X10583928Y-20029643D01*
X10569643Y-20001072D01*
X10569643Y-19915357D01*
X10583928Y-19886786D01*
X10598214Y-19872500D01*
X10626786Y-19858214D01*
X10669643Y-19858214D01*
X10698214Y-19872500D01*
X10712500Y-19886786D01*
X10726786Y-19915357D01*
X10726786Y-20001072D01*
X10712500Y-20029643D01*
X10698214Y-20043929D01*
X10669643Y-20058214D01*
X10626786Y-20058214D01*
X10898214Y-20058214D02*
X10869643Y-20043929D01*
X10855357Y-20015357D01*
X10855357Y-19758214D01*
X11126786Y-20043929D02*
X11098214Y-20058214D01*
X11041071Y-20058214D01*
X11012500Y-20043929D01*
X10998214Y-20015357D01*
X10998214Y-19901072D01*
X11012500Y-19872500D01*
X11041071Y-19858214D01*
X11098214Y-19858214D01*
X11126786Y-19872500D01*
X11141071Y-19901072D01*
X11141071Y-19929643D01*
X10998214Y-19958214D01*
X11255357Y-20043929D02*
X11283928Y-20058214D01*
X11341071Y-20058214D01*
X11369643Y-20043929D01*
X11383928Y-20015357D01*
X11383928Y-20001072D01*
X11369643Y-19972500D01*
X11341071Y-19958214D01*
X11298214Y-19958214D01*
X11269643Y-19943929D01*
X11255357Y-19915357D01*
X11255357Y-19901072D01*
X11269643Y-19872500D01*
X11298214Y-19858214D01*
X11341071Y-19858214D01*
X11369643Y-19872500D01*
X11483928Y-20172500D02*
X11498214Y-20158214D01*
X11526786Y-20115357D01*
X11541071Y-20086786D01*
X11555357Y-20043929D01*
X11569643Y-19972500D01*
X11569643Y-19915357D01*
X11555357Y-19843929D01*
X11541071Y-19801072D01*
X11526786Y-19772500D01*
X11498214Y-19729643D01*
X11483928Y-19715357D01*
M02*
