G04 #@! TF.GenerationSoftware,KiCad,Pcbnew,(5.1.9)-1*
G04 #@! TF.CreationDate,2021-04-25T02:40:10+02:00*
G04 #@! TF.ProjectId,water-pump-control,77617465-722d-4707-956d-702d636f6e74,rev?*
G04 #@! TF.SameCoordinates,Original*
G04 #@! TF.FileFunction,Profile,NP*
%FSLAX46Y46*%
G04 Gerber Fmt 4.6, Leading zero omitted, Abs format (unit mm)*
G04 Created by KiCad (PCBNEW (5.1.9)-1) date 2021-04-25 02:40:10*
%MOMM*%
%LPD*%
G01*
G04 APERTURE LIST*
G04 #@! TA.AperFunction,Profile*
%ADD10C,0.050000*%
G04 #@! TD*
G04 APERTURE END LIST*
D10*
X61000000Y-98000000D02*
G75*
G02*
X61000000Y-100000000I0J-1000000D01*
G01*
X61000000Y-107000000D02*
G75*
G02*
X61000000Y-109000000I0J-1000000D01*
G01*
X61000000Y-109000000D02*
X50000000Y-109000000D01*
X50000000Y-107000000D02*
X61000000Y-107000000D01*
X50000000Y-100000000D02*
X50000000Y-107000000D01*
X61000000Y-100000000D02*
X50000000Y-100000000D01*
X50000000Y-98000000D02*
X61000000Y-98000000D01*
X61000000Y-77000000D02*
G75*
G02*
X61000000Y-79000000I0J-1000000D01*
G01*
X61000000Y-87000000D02*
G75*
G02*
X61000000Y-89000000I0J-1000000D01*
G01*
X61000000Y-89000000D02*
X50000000Y-89000000D01*
X50000000Y-87000000D02*
X61000000Y-87000000D01*
X61000000Y-77000000D02*
X50000000Y-77000000D01*
X50000000Y-79000000D02*
X61000000Y-79000000D01*
X50000000Y-87000000D02*
X50000000Y-79000000D01*
X50000000Y-98000000D02*
X50000000Y-89000000D01*
X50000000Y-77000000D02*
X50000000Y-60000000D01*
X130000000Y-47000000D02*
X130000000Y-40000000D01*
X96000000Y-47000000D02*
X130000000Y-47000000D01*
X96000000Y-40000000D02*
X96000000Y-47000000D01*
X130000000Y-40000000D02*
X200000000Y-40000000D01*
X200000000Y-60000000D02*
X220000000Y-60000000D01*
X200000000Y-40000000D02*
X200000000Y-60000000D01*
X70000000Y-40000000D02*
X96000000Y-40000000D01*
X70000000Y-60000000D02*
X70000000Y-40000000D01*
X50000000Y-60000000D02*
X70000000Y-60000000D01*
X50000000Y-150000000D02*
X50000000Y-109000000D01*
X220000000Y-150000000D02*
X220000000Y-60000000D01*
X50000000Y-150000000D02*
X220000000Y-150000000D01*
M02*
