%TF.GenerationSoftware,KiCad,Pcbnew,(6.0.7)*%
%TF.CreationDate,2022-10-27T00:54:25+02:00*%
%TF.ProjectId,flipdot-brose-esp32,666c6970-646f-4742-9d62-726f73652d65,rev?*%
%TF.SameCoordinates,Original*%
%TF.FileFunction,Profile,NP*%
%FSLAX46Y46*%
G04 Gerber Fmt 4.6, Leading zero omitted, Abs format (unit mm)*
G04 Created by KiCad (PCBNEW (6.0.7)) date 2022-10-27 00:54:25*
%MOMM*%
%LPD*%
G01*
G04 APERTURE LIST*
%TA.AperFunction,Profile*%
%ADD10C,0.050000*%
%TD*%
%TA.AperFunction,Profile*%
%ADD11C,0.010000*%
%TD*%
G04 APERTURE END LIST*
D10*
X116000000Y-141000000D02*
X36000000Y-141000000D01*
X116000000Y-34000000D02*
X116000000Y-141000000D01*
X36000000Y-34000000D02*
X116000000Y-34000000D01*
X36000000Y-141000000D02*
X36000000Y-34000000D01*
D11*
%TO.C,J6*%
X108042500Y-43675000D02*
G75*
G03*
X108342500Y-43975000I300000J0D01*
G01*
X108342500Y-43375000D02*
G75*
G03*
X108042500Y-43675000I0J-300000D01*
G01*
X108342500Y-43375000D02*
X109442500Y-43375000D01*
X109742500Y-43675000D02*
G75*
G03*
X109442500Y-43375000I-300000J0D01*
G01*
X109442500Y-43975000D02*
G75*
G03*
X109742500Y-43675000I0J300000D01*
G01*
X109442500Y-43975000D02*
X108342500Y-43975000D01*
X108042500Y-35025000D02*
G75*
G03*
X108342500Y-35325000I300000J0D01*
G01*
X108342500Y-34725000D02*
G75*
G03*
X108042500Y-35025000I0J-300000D01*
G01*
X108342500Y-34725000D02*
X109442500Y-34725000D01*
X109742500Y-35025000D02*
G75*
G03*
X109442500Y-34725000I-300000J0D01*
G01*
X109442500Y-35325000D02*
G75*
G03*
X109742500Y-35025000I0J300000D01*
G01*
X109442500Y-35325000D02*
X108342500Y-35325000D01*
X112362500Y-43675000D02*
G75*
G03*
X112662500Y-43975000I300000J0D01*
G01*
X112662500Y-43375000D02*
G75*
G03*
X112362500Y-43675000I0J-300000D01*
G01*
X112662500Y-43375000D02*
X113462500Y-43375000D01*
X113762500Y-43675000D02*
G75*
G03*
X113462500Y-43375000I-300000J0D01*
G01*
X113462500Y-43975000D02*
G75*
G03*
X113762500Y-43675000I0J300000D01*
G01*
X113462500Y-43975000D02*
X112662500Y-43975000D01*
X112362500Y-35025000D02*
G75*
G03*
X112662500Y-35325000I300000J0D01*
G01*
X112662500Y-34725000D02*
G75*
G03*
X112362500Y-35025000I0J-300000D01*
G01*
X112662500Y-34725000D02*
X113462500Y-34725000D01*
X113762500Y-35025000D02*
G75*
G03*
X113462500Y-34725000I-300000J0D01*
G01*
X113462500Y-35325000D02*
G75*
G03*
X113762500Y-35025000I0J300000D01*
G01*
X113462500Y-35325000D02*
X112662500Y-35325000D01*
%TD*%
M02*
