%TF.GenerationSoftware,KiCad,Pcbnew,(6.0.7)*%
%TF.CreationDate,2022-10-27T00:55:33+02:00*%
%TF.ProjectId,flipdot-brose-esp32,666c6970-646f-4742-9d62-726f73652d65,rev?*%
%TF.SameCoordinates,Original*%
%TF.FileFunction,Legend,Top*%
%TF.FilePolarity,Positive*%
%FSLAX46Y46*%
G04 Gerber Fmt 4.6, Leading zero omitted, Abs format (unit mm)*
G04 Created by KiCad (PCBNEW (6.0.7)) date 2022-10-27 00:55:33*
%MOMM*%
%LPD*%
G01*
G04 APERTURE LIST*
%ADD10C,0.150000*%
%ADD11C,0.250000*%
%ADD12C,0.200000*%
%ADD13C,0.120000*%
%ADD14C,0.127000*%
%ADD15C,0.040000*%
G04 APERTURE END LIST*
D10*
X76461904Y-58795238D02*
X77033333Y-58795238D01*
X77147619Y-58833333D01*
X77223809Y-58909523D01*
X77261904Y-59023809D01*
X77261904Y-59100000D01*
X77261904Y-58033333D02*
X77261904Y-58414285D01*
X76461904Y-58414285D01*
X77185714Y-57309523D02*
X77223809Y-57347619D01*
X77261904Y-57461904D01*
X77261904Y-57538095D01*
X77223809Y-57652380D01*
X77147619Y-57728571D01*
X77071428Y-57766666D01*
X76919047Y-57804761D01*
X76804761Y-57804761D01*
X76652380Y-57766666D01*
X76576190Y-57728571D01*
X76500000Y-57652380D01*
X76461904Y-57538095D01*
X76461904Y-57461904D01*
X76500000Y-57347619D01*
X76538095Y-57309523D01*
X76461904Y-56738095D02*
X77033333Y-56738095D01*
X77147619Y-56776190D01*
X77223809Y-56852380D01*
X77261904Y-56966666D01*
X77261904Y-57042857D01*
X77261904Y-55976190D02*
X77261904Y-56357142D01*
X76461904Y-56357142D01*
X77185714Y-55252380D02*
X77223809Y-55290476D01*
X77261904Y-55404761D01*
X77261904Y-55480952D01*
X77223809Y-55595238D01*
X77147619Y-55671428D01*
X77071428Y-55709523D01*
X76919047Y-55747619D01*
X76804761Y-55747619D01*
X76652380Y-55709523D01*
X76576190Y-55671428D01*
X76500000Y-55595238D01*
X76461904Y-55480952D01*
X76461904Y-55404761D01*
X76500000Y-55290476D01*
X76538095Y-55252380D01*
X76461904Y-54680952D02*
X77033333Y-54680952D01*
X77147619Y-54719047D01*
X77223809Y-54795238D01*
X77261904Y-54909523D01*
X77261904Y-54985714D01*
X77261904Y-53919047D02*
X77261904Y-54300000D01*
X76461904Y-54300000D01*
X77185714Y-53195238D02*
X77223809Y-53233333D01*
X77261904Y-53347619D01*
X77261904Y-53423809D01*
X77223809Y-53538095D01*
X77147619Y-53614285D01*
X77071428Y-53652380D01*
X76919047Y-53690476D01*
X76804761Y-53690476D01*
X76652380Y-53652380D01*
X76576190Y-53614285D01*
X76500000Y-53538095D01*
X76461904Y-53423809D01*
X76461904Y-53347619D01*
X76500000Y-53233333D01*
X76538095Y-53195238D01*
X76461904Y-52623809D02*
X77033333Y-52623809D01*
X77147619Y-52661904D01*
X77223809Y-52738095D01*
X77261904Y-52852380D01*
X77261904Y-52928571D01*
X77261904Y-51861904D02*
X77261904Y-52242857D01*
X76461904Y-52242857D01*
X77185714Y-51138095D02*
X77223809Y-51176190D01*
X77261904Y-51290476D01*
X77261904Y-51366666D01*
X77223809Y-51480952D01*
X77147619Y-51557142D01*
X77071428Y-51595238D01*
X76919047Y-51633333D01*
X76804761Y-51633333D01*
X76652380Y-51595238D01*
X76576190Y-51557142D01*
X76500000Y-51480952D01*
X76461904Y-51366666D01*
X76461904Y-51290476D01*
X76500000Y-51176190D01*
X76538095Y-51138095D01*
D11*
X103621428Y-138485714D02*
X103550000Y-138414285D01*
X103478571Y-138271428D01*
X103478571Y-137914285D01*
X103550000Y-137771428D01*
X103621428Y-137700000D01*
X103764285Y-137628571D01*
X103907142Y-137628571D01*
X104121428Y-137700000D01*
X104978571Y-138557142D01*
X104978571Y-137628571D01*
X103978571Y-136342857D02*
X104978571Y-136342857D01*
X103407142Y-136700000D02*
X104478571Y-137057142D01*
X104478571Y-136128571D01*
X103478571Y-135771428D02*
X104978571Y-135271428D01*
X103478571Y-134771428D01*
X97921428Y-128085714D02*
X97850000Y-128014285D01*
X97778571Y-127871428D01*
X97778571Y-127514285D01*
X97850000Y-127371428D01*
X97921428Y-127300000D01*
X98064285Y-127228571D01*
X98207142Y-127228571D01*
X98421428Y-127300000D01*
X99278571Y-128157142D01*
X99278571Y-127228571D01*
X98278571Y-125942857D02*
X99278571Y-125942857D01*
X97707142Y-126300000D02*
X98778571Y-126657142D01*
X98778571Y-125728571D01*
X97778571Y-125371428D02*
X99278571Y-124871428D01*
X97778571Y-124371428D01*
D12*
X95052380Y-37852380D02*
X94719047Y-37376190D01*
X94480952Y-37852380D02*
X94480952Y-36852380D01*
X94861904Y-36852380D01*
X94957142Y-36900000D01*
X95004761Y-36947619D01*
X95052380Y-37042857D01*
X95052380Y-37185714D01*
X95004761Y-37280952D01*
X94957142Y-37328571D01*
X94861904Y-37376190D01*
X94480952Y-37376190D01*
X95433333Y-37804761D02*
X95576190Y-37852380D01*
X95814285Y-37852380D01*
X95909523Y-37804761D01*
X95957142Y-37757142D01*
X96004761Y-37661904D01*
X96004761Y-37566666D01*
X95957142Y-37471428D01*
X95909523Y-37423809D01*
X95814285Y-37376190D01*
X95623809Y-37328571D01*
X95528571Y-37280952D01*
X95480952Y-37233333D01*
X95433333Y-37138095D01*
X95433333Y-37042857D01*
X95480952Y-36947619D01*
X95528571Y-36900000D01*
X95623809Y-36852380D01*
X95861904Y-36852380D01*
X96004761Y-36900000D01*
X96290476Y-36852380D02*
X96861904Y-36852380D01*
X96576190Y-37852380D02*
X96576190Y-36852380D01*
X38485714Y-130752380D02*
X38152380Y-130276190D01*
X37914285Y-130752380D02*
X37914285Y-129752380D01*
X38295238Y-129752380D01*
X38390476Y-129800000D01*
X38438095Y-129847619D01*
X38485714Y-129942857D01*
X38485714Y-130085714D01*
X38438095Y-130180952D01*
X38390476Y-130228571D01*
X38295238Y-130276190D01*
X37914285Y-130276190D01*
X38914285Y-130371428D02*
X39676190Y-130371428D01*
X40057142Y-129752380D02*
X40723809Y-129752380D01*
X40295238Y-130752380D01*
X41247619Y-130180952D02*
X41152380Y-130133333D01*
X41104761Y-130085714D01*
X41057142Y-129990476D01*
X41057142Y-129942857D01*
X41104761Y-129847619D01*
X41152380Y-129800000D01*
X41247619Y-129752380D01*
X41438095Y-129752380D01*
X41533333Y-129800000D01*
X41580952Y-129847619D01*
X41628571Y-129942857D01*
X41628571Y-129990476D01*
X41580952Y-130085714D01*
X41533333Y-130133333D01*
X41438095Y-130180952D01*
X41247619Y-130180952D01*
X41152380Y-130228571D01*
X41104761Y-130276190D01*
X41057142Y-130371428D01*
X41057142Y-130561904D01*
X41104761Y-130657142D01*
X41152380Y-130704761D01*
X41247619Y-130752380D01*
X41438095Y-130752380D01*
X41533333Y-130704761D01*
X41580952Y-130657142D01*
X41628571Y-130561904D01*
X41628571Y-130371428D01*
X41580952Y-130276190D01*
X41533333Y-130228571D01*
X41438095Y-130180952D01*
X42057142Y-130228571D02*
X42390476Y-130228571D01*
X42533333Y-130752380D02*
X42057142Y-130752380D01*
X42057142Y-129752380D01*
X42533333Y-129752380D01*
X43438095Y-129752380D02*
X42961904Y-129752380D01*
X42914285Y-130228571D01*
X42961904Y-130180952D01*
X43057142Y-130133333D01*
X43295238Y-130133333D01*
X43390476Y-130180952D01*
X43438095Y-130228571D01*
X43485714Y-130323809D01*
X43485714Y-130561904D01*
X43438095Y-130657142D01*
X43390476Y-130704761D01*
X43295238Y-130752380D01*
X43057142Y-130752380D01*
X42961904Y-130704761D01*
X42914285Y-130657142D01*
X43914285Y-130657142D02*
X43961904Y-130704761D01*
X43914285Y-130752380D01*
X43866666Y-130704761D01*
X43914285Y-130657142D01*
X43914285Y-130752380D01*
X44580952Y-129752380D02*
X44676190Y-129752380D01*
X44771428Y-129800000D01*
X44819047Y-129847619D01*
X44866666Y-129942857D01*
X44914285Y-130133333D01*
X44914285Y-130371428D01*
X44866666Y-130561904D01*
X44819047Y-130657142D01*
X44771428Y-130704761D01*
X44676190Y-130752380D01*
X44580952Y-130752380D01*
X44485714Y-130704761D01*
X44438095Y-130657142D01*
X44390476Y-130561904D01*
X44342857Y-130371428D01*
X44342857Y-130133333D01*
X44390476Y-129942857D01*
X44438095Y-129847619D01*
X44485714Y-129800000D01*
X44580952Y-129752380D01*
X45342857Y-130371428D02*
X46104761Y-130371428D01*
X47104761Y-130752380D02*
X46533333Y-130752380D01*
X46819047Y-130752380D02*
X46819047Y-129752380D01*
X46723809Y-129895238D01*
X46628571Y-129990476D01*
X46533333Y-130038095D01*
X47533333Y-130657142D02*
X47580952Y-130704761D01*
X47533333Y-130752380D01*
X47485714Y-130704761D01*
X47533333Y-130657142D01*
X47533333Y-130752380D01*
X48200000Y-129752380D02*
X48295238Y-129752380D01*
X48390476Y-129800000D01*
X48438095Y-129847619D01*
X48485714Y-129942857D01*
X48533333Y-130133333D01*
X48533333Y-130371428D01*
X48485714Y-130561904D01*
X48438095Y-130657142D01*
X48390476Y-130704761D01*
X48295238Y-130752380D01*
X48200000Y-130752380D01*
X48104761Y-130704761D01*
X48057142Y-130657142D01*
X48009523Y-130561904D01*
X47961904Y-130371428D01*
X47961904Y-130133333D01*
X48009523Y-129942857D01*
X48057142Y-129847619D01*
X48104761Y-129800000D01*
X48200000Y-129752380D01*
X112652380Y-117814285D02*
X112176190Y-118147619D01*
X112652380Y-118385714D02*
X111652380Y-118385714D01*
X111652380Y-118004761D01*
X111700000Y-117909523D01*
X111747619Y-117861904D01*
X111842857Y-117814285D01*
X111985714Y-117814285D01*
X112080952Y-117861904D01*
X112128571Y-117909523D01*
X112176190Y-118004761D01*
X112176190Y-118385714D01*
X112271428Y-117385714D02*
X112271428Y-116623809D01*
X111652380Y-116242857D02*
X111652380Y-115576190D01*
X112652380Y-116004761D01*
X112080952Y-115052380D02*
X112033333Y-115147619D01*
X111985714Y-115195238D01*
X111890476Y-115242857D01*
X111842857Y-115242857D01*
X111747619Y-115195238D01*
X111700000Y-115147619D01*
X111652380Y-115052380D01*
X111652380Y-114861904D01*
X111700000Y-114766666D01*
X111747619Y-114719047D01*
X111842857Y-114671428D01*
X111890476Y-114671428D01*
X111985714Y-114719047D01*
X112033333Y-114766666D01*
X112080952Y-114861904D01*
X112080952Y-115052380D01*
X112128571Y-115147619D01*
X112176190Y-115195238D01*
X112271428Y-115242857D01*
X112461904Y-115242857D01*
X112557142Y-115195238D01*
X112604761Y-115147619D01*
X112652380Y-115052380D01*
X112652380Y-114861904D01*
X112604761Y-114766666D01*
X112557142Y-114719047D01*
X112461904Y-114671428D01*
X112271428Y-114671428D01*
X112176190Y-114719047D01*
X112128571Y-114766666D01*
X112080952Y-114861904D01*
X112128571Y-114242857D02*
X112128571Y-113909523D01*
X112652380Y-113766666D02*
X112652380Y-114242857D01*
X111652380Y-114242857D01*
X111652380Y-113766666D01*
X111652380Y-113433333D02*
X111652380Y-112814285D01*
X112033333Y-113147619D01*
X112033333Y-113004761D01*
X112080952Y-112909523D01*
X112128571Y-112861904D01*
X112223809Y-112814285D01*
X112461904Y-112814285D01*
X112557142Y-112861904D01*
X112604761Y-112909523D01*
X112652380Y-113004761D01*
X112652380Y-113290476D01*
X112604761Y-113385714D01*
X112557142Y-113433333D01*
X112557142Y-112385714D02*
X112604761Y-112338095D01*
X112652380Y-112385714D01*
X112604761Y-112433333D01*
X112557142Y-112385714D01*
X112652380Y-112385714D01*
X111652380Y-112004761D02*
X111652380Y-111385714D01*
X112033333Y-111719047D01*
X112033333Y-111576190D01*
X112080952Y-111480952D01*
X112128571Y-111433333D01*
X112223809Y-111385714D01*
X112461904Y-111385714D01*
X112557142Y-111433333D01*
X112604761Y-111480952D01*
X112652380Y-111576190D01*
X112652380Y-111861904D01*
X112604761Y-111957142D01*
X112557142Y-112004761D01*
X112271428Y-110957142D02*
X112271428Y-110195238D01*
X111652380Y-109528571D02*
X111652380Y-109433333D01*
X111700000Y-109338095D01*
X111747619Y-109290476D01*
X111842857Y-109242857D01*
X112033333Y-109195238D01*
X112271428Y-109195238D01*
X112461904Y-109242857D01*
X112557142Y-109290476D01*
X112604761Y-109338095D01*
X112652380Y-109433333D01*
X112652380Y-109528571D01*
X112604761Y-109623809D01*
X112557142Y-109671428D01*
X112461904Y-109719047D01*
X112271428Y-109766666D01*
X112033333Y-109766666D01*
X111842857Y-109719047D01*
X111747619Y-109671428D01*
X111700000Y-109623809D01*
X111652380Y-109528571D01*
X112557142Y-108766666D02*
X112604761Y-108719047D01*
X112652380Y-108766666D01*
X112604761Y-108814285D01*
X112557142Y-108766666D01*
X112652380Y-108766666D01*
X111652380Y-107814285D02*
X111652380Y-108290476D01*
X112128571Y-108338095D01*
X112080952Y-108290476D01*
X112033333Y-108195238D01*
X112033333Y-107957142D01*
X112080952Y-107861904D01*
X112128571Y-107814285D01*
X112223809Y-107766666D01*
X112461904Y-107766666D01*
X112557142Y-107814285D01*
X112604761Y-107861904D01*
X112652380Y-107957142D01*
X112652380Y-108195238D01*
X112604761Y-108290476D01*
X112557142Y-108338095D01*
X102328571Y-56485714D02*
X102500000Y-56542857D01*
X102785714Y-56542857D01*
X102900000Y-56485714D01*
X102957142Y-56428571D01*
X103014285Y-56314285D01*
X103014285Y-56200000D01*
X102957142Y-56085714D01*
X102900000Y-56028571D01*
X102785714Y-55971428D01*
X102557142Y-55914285D01*
X102442857Y-55857142D01*
X102385714Y-55800000D01*
X102328571Y-55685714D01*
X102328571Y-55571428D01*
X102385714Y-55457142D01*
X102442857Y-55400000D01*
X102557142Y-55342857D01*
X102842857Y-55342857D01*
X103014285Y-55400000D01*
X103357142Y-55342857D02*
X104042857Y-55342857D01*
X103700000Y-56542857D02*
X103700000Y-55342857D01*
X104385714Y-56200000D02*
X104957142Y-56200000D01*
X104271428Y-56542857D02*
X104671428Y-55342857D01*
X105071428Y-56542857D01*
X105300000Y-55342857D02*
X105985714Y-55342857D01*
X105642857Y-56542857D02*
X105642857Y-55342857D01*
X114442857Y-50900000D02*
X113242857Y-50900000D01*
X113242857Y-50442857D01*
X113300000Y-50328571D01*
X113357142Y-50271428D01*
X113471428Y-50214285D01*
X113642857Y-50214285D01*
X113757142Y-50271428D01*
X113814285Y-50328571D01*
X113871428Y-50442857D01*
X113871428Y-50900000D01*
X113242857Y-49814285D02*
X114442857Y-49528571D01*
X113585714Y-49300000D01*
X114442857Y-49071428D01*
X113242857Y-48785714D01*
X114442857Y-47642857D02*
X113871428Y-48042857D01*
X114442857Y-48328571D02*
X113242857Y-48328571D01*
X113242857Y-47871428D01*
X113300000Y-47757142D01*
X113357142Y-47700000D01*
X113471428Y-47642857D01*
X113642857Y-47642857D01*
X113757142Y-47700000D01*
X113814285Y-47757142D01*
X113871428Y-47871428D01*
X113871428Y-48328571D01*
X95957142Y-103985714D02*
X96128571Y-104042857D01*
X96414285Y-104042857D01*
X96528571Y-103985714D01*
X96585714Y-103928571D01*
X96642857Y-103814285D01*
X96642857Y-103700000D01*
X96585714Y-103585714D01*
X96528571Y-103528571D01*
X96414285Y-103471428D01*
X96185714Y-103414285D01*
X96071428Y-103357142D01*
X96014285Y-103300000D01*
X95957142Y-103185714D01*
X95957142Y-103071428D01*
X96014285Y-102957142D01*
X96071428Y-102900000D01*
X96185714Y-102842857D01*
X96471428Y-102842857D01*
X96642857Y-102900000D01*
X114971428Y-104028571D02*
X114914285Y-104085714D01*
X114742857Y-104142857D01*
X114628571Y-104142857D01*
X114457142Y-104085714D01*
X114342857Y-103971428D01*
X114285714Y-103857142D01*
X114228571Y-103628571D01*
X114228571Y-103457142D01*
X114285714Y-103228571D01*
X114342857Y-103114285D01*
X114457142Y-103000000D01*
X114628571Y-102942857D01*
X114742857Y-102942857D01*
X114914285Y-103000000D01*
X114971428Y-103057142D01*
D11*
X105728571Y-134807142D02*
X106871428Y-134807142D01*
X105728571Y-137807142D02*
X106871428Y-137807142D01*
X106300000Y-138378571D02*
X106300000Y-137235714D01*
X41485357Y-79271428D02*
X41485357Y-79771428D01*
X42271071Y-79771428D02*
X40771071Y-79771428D01*
X40771071Y-79057142D01*
X42271071Y-78271428D02*
X42199642Y-78414285D01*
X42056785Y-78485714D01*
X40771071Y-78485714D01*
X42271071Y-77700000D02*
X41271071Y-77700000D01*
X40771071Y-77700000D02*
X40842500Y-77771428D01*
X40913928Y-77700000D01*
X40842500Y-77628571D01*
X40771071Y-77700000D01*
X40913928Y-77700000D01*
X41271071Y-76985714D02*
X42771071Y-76985714D01*
X41342500Y-76985714D02*
X41271071Y-76842857D01*
X41271071Y-76557142D01*
X41342500Y-76414285D01*
X41413928Y-76342857D01*
X41556785Y-76271428D01*
X41985357Y-76271428D01*
X42128214Y-76342857D01*
X42199642Y-76414285D01*
X42271071Y-76557142D01*
X42271071Y-76842857D01*
X42199642Y-76985714D01*
X42271071Y-75628571D02*
X40771071Y-75628571D01*
X40771071Y-75271428D01*
X40842500Y-75057142D01*
X40985357Y-74914285D01*
X41128214Y-74842857D01*
X41413928Y-74771428D01*
X41628214Y-74771428D01*
X41913928Y-74842857D01*
X42056785Y-74914285D01*
X42199642Y-75057142D01*
X42271071Y-75271428D01*
X42271071Y-75628571D01*
X42271071Y-73914285D02*
X42199642Y-74057142D01*
X42128214Y-74128571D01*
X41985357Y-74200000D01*
X41556785Y-74200000D01*
X41413928Y-74128571D01*
X41342500Y-74057142D01*
X41271071Y-73914285D01*
X41271071Y-73700000D01*
X41342500Y-73557142D01*
X41413928Y-73485714D01*
X41556785Y-73414285D01*
X41985357Y-73414285D01*
X42128214Y-73485714D01*
X42199642Y-73557142D01*
X42271071Y-73700000D01*
X42271071Y-73914285D01*
X41271071Y-72985714D02*
X41271071Y-72414285D01*
X40771071Y-72771428D02*
X42056785Y-72771428D01*
X42199642Y-72700000D01*
X42271071Y-72557142D01*
X42271071Y-72414285D01*
X41485357Y-70271428D02*
X41556785Y-70057142D01*
X41628214Y-69985714D01*
X41771071Y-69914285D01*
X41985357Y-69914285D01*
X42128214Y-69985714D01*
X42199642Y-70057142D01*
X42271071Y-70200000D01*
X42271071Y-70771428D01*
X40771071Y-70771428D01*
X40771071Y-70271428D01*
X40842500Y-70128571D01*
X40913928Y-70057142D01*
X41056785Y-69985714D01*
X41199642Y-69985714D01*
X41342500Y-70057142D01*
X41413928Y-70128571D01*
X41485357Y-70271428D01*
X41485357Y-70771428D01*
X42271071Y-69271428D02*
X41271071Y-69271428D01*
X41556785Y-69271428D02*
X41413928Y-69200000D01*
X41342500Y-69128571D01*
X41271071Y-68985714D01*
X41271071Y-68842857D01*
X42271071Y-68128571D02*
X42199642Y-68271428D01*
X42128214Y-68342857D01*
X41985357Y-68414285D01*
X41556785Y-68414285D01*
X41413928Y-68342857D01*
X41342500Y-68271428D01*
X41271071Y-68128571D01*
X41271071Y-67914285D01*
X41342500Y-67771428D01*
X41413928Y-67700000D01*
X41556785Y-67628571D01*
X41985357Y-67628571D01*
X42128214Y-67700000D01*
X42199642Y-67771428D01*
X42271071Y-67914285D01*
X42271071Y-68128571D01*
X42199642Y-67057142D02*
X42271071Y-66914285D01*
X42271071Y-66628571D01*
X42199642Y-66485714D01*
X42056785Y-66414285D01*
X41985357Y-66414285D01*
X41842500Y-66485714D01*
X41771071Y-66628571D01*
X41771071Y-66842857D01*
X41699642Y-66985714D01*
X41556785Y-67057142D01*
X41485357Y-67057142D01*
X41342500Y-66985714D01*
X41271071Y-66842857D01*
X41271071Y-66628571D01*
X41342500Y-66485714D01*
X42199642Y-65200000D02*
X42271071Y-65342857D01*
X42271071Y-65628571D01*
X42199642Y-65771428D01*
X42056785Y-65842857D01*
X41485357Y-65842857D01*
X41342500Y-65771428D01*
X41271071Y-65628571D01*
X41271071Y-65342857D01*
X41342500Y-65200000D01*
X41485357Y-65128571D01*
X41628214Y-65128571D01*
X41771071Y-65842857D01*
X41485357Y-63342857D02*
X41485357Y-62842857D01*
X42271071Y-62628571D02*
X42271071Y-63342857D01*
X40771071Y-63342857D01*
X40771071Y-62628571D01*
X42199642Y-62057142D02*
X42271071Y-61842857D01*
X42271071Y-61485714D01*
X42199642Y-61342857D01*
X42128214Y-61271428D01*
X41985357Y-61200000D01*
X41842500Y-61200000D01*
X41699642Y-61271428D01*
X41628214Y-61342857D01*
X41556785Y-61485714D01*
X41485357Y-61771428D01*
X41413928Y-61914285D01*
X41342500Y-61985714D01*
X41199642Y-62057142D01*
X41056785Y-62057142D01*
X40913928Y-61985714D01*
X40842500Y-61914285D01*
X40771071Y-61771428D01*
X40771071Y-61414285D01*
X40842500Y-61200000D01*
X42271071Y-60557142D02*
X40771071Y-60557142D01*
X40771071Y-59985714D01*
X40842500Y-59842857D01*
X40913928Y-59771428D01*
X41056785Y-59700000D01*
X41271071Y-59700000D01*
X41413928Y-59771428D01*
X41485357Y-59842857D01*
X41556785Y-59985714D01*
X41556785Y-60557142D01*
X40771071Y-59200000D02*
X40771071Y-58271428D01*
X41342500Y-58771428D01*
X41342500Y-58557142D01*
X41413928Y-58414285D01*
X41485357Y-58342857D01*
X41628214Y-58271428D01*
X41985357Y-58271428D01*
X42128214Y-58342857D01*
X42199642Y-58414285D01*
X42271071Y-58557142D01*
X42271071Y-58985714D01*
X42199642Y-59128571D01*
X42128214Y-59200000D01*
X40913928Y-57700000D02*
X40842500Y-57628571D01*
X40771071Y-57485714D01*
X40771071Y-57128571D01*
X40842500Y-56985714D01*
X40913928Y-56914285D01*
X41056785Y-56842857D01*
X41199642Y-56842857D01*
X41413928Y-56914285D01*
X42271071Y-57771428D01*
X42271071Y-56842857D01*
X42128214Y-54200000D02*
X42199642Y-54271428D01*
X42271071Y-54485714D01*
X42271071Y-54628571D01*
X42199642Y-54842857D01*
X42056785Y-54985714D01*
X41913928Y-55057142D01*
X41628214Y-55128571D01*
X41413928Y-55128571D01*
X41128214Y-55057142D01*
X40985357Y-54985714D01*
X40842500Y-54842857D01*
X40771071Y-54628571D01*
X40771071Y-54485714D01*
X40842500Y-54271428D01*
X40913928Y-54200000D01*
X42271071Y-53342857D02*
X42199642Y-53485714D01*
X42128214Y-53557142D01*
X41985357Y-53628571D01*
X41556785Y-53628571D01*
X41413928Y-53557142D01*
X41342500Y-53485714D01*
X41271071Y-53342857D01*
X41271071Y-53128571D01*
X41342500Y-52985714D01*
X41413928Y-52914285D01*
X41556785Y-52842857D01*
X41985357Y-52842857D01*
X42128214Y-52914285D01*
X42199642Y-52985714D01*
X42271071Y-53128571D01*
X42271071Y-53342857D01*
X41271071Y-52200000D02*
X42271071Y-52200000D01*
X41413928Y-52200000D02*
X41342500Y-52128571D01*
X41271071Y-51985714D01*
X41271071Y-51771428D01*
X41342500Y-51628571D01*
X41485357Y-51557142D01*
X42271071Y-51557142D01*
X41271071Y-51057142D02*
X41271071Y-50485714D01*
X40771071Y-50842857D02*
X42056785Y-50842857D01*
X42199642Y-50771428D01*
X42271071Y-50628571D01*
X42271071Y-50485714D01*
X42271071Y-49985714D02*
X41271071Y-49985714D01*
X41556785Y-49985714D02*
X41413928Y-49914285D01*
X41342500Y-49842857D01*
X41271071Y-49700000D01*
X41271071Y-49557142D01*
X42271071Y-48842857D02*
X42199642Y-48985714D01*
X42128214Y-49057142D01*
X41985357Y-49128571D01*
X41556785Y-49128571D01*
X41413928Y-49057142D01*
X41342500Y-48985714D01*
X41271071Y-48842857D01*
X41271071Y-48628571D01*
X41342500Y-48485714D01*
X41413928Y-48414285D01*
X41556785Y-48342857D01*
X41985357Y-48342857D01*
X42128214Y-48414285D01*
X42199642Y-48485714D01*
X42271071Y-48628571D01*
X42271071Y-48842857D01*
X42271071Y-47485714D02*
X42199642Y-47628571D01*
X42056785Y-47700000D01*
X40771071Y-47700000D01*
X42271071Y-46700000D02*
X42199642Y-46842857D01*
X42056785Y-46914285D01*
X40771071Y-46914285D01*
X42199642Y-45557142D02*
X42271071Y-45700000D01*
X42271071Y-45985714D01*
X42199642Y-46128571D01*
X42056785Y-46200000D01*
X41485357Y-46200000D01*
X41342500Y-46128571D01*
X41271071Y-45985714D01*
X41271071Y-45700000D01*
X41342500Y-45557142D01*
X41485357Y-45485714D01*
X41628214Y-45485714D01*
X41771071Y-46200000D01*
X42271071Y-44842857D02*
X41271071Y-44842857D01*
X41556785Y-44842857D02*
X41413928Y-44771428D01*
X41342500Y-44700000D01*
X41271071Y-44557142D01*
X41271071Y-44414285D01*
X44686071Y-79164285D02*
X43186071Y-79164285D01*
X43757500Y-79164285D02*
X43686071Y-79021428D01*
X43686071Y-78735714D01*
X43757500Y-78592857D01*
X43828928Y-78521428D01*
X43971785Y-78450000D01*
X44400357Y-78450000D01*
X44543214Y-78521428D01*
X44614642Y-78592857D01*
X44686071Y-78735714D01*
X44686071Y-79021428D01*
X44614642Y-79164285D01*
X43686071Y-77950000D02*
X44686071Y-77592857D01*
X43686071Y-77235714D02*
X44686071Y-77592857D01*
X45043214Y-77735714D01*
X45114642Y-77807142D01*
X45186071Y-77950000D01*
X43186071Y-75092857D02*
X44257500Y-75092857D01*
X44471785Y-75164285D01*
X44614642Y-75307142D01*
X44686071Y-75521428D01*
X44686071Y-75664285D01*
X43686071Y-73735714D02*
X44686071Y-73735714D01*
X43686071Y-74378571D02*
X44471785Y-74378571D01*
X44614642Y-74307142D01*
X44686071Y-74164285D01*
X44686071Y-73950000D01*
X44614642Y-73807142D01*
X44543214Y-73735714D01*
X44686071Y-72807142D02*
X44614642Y-72950000D01*
X44471785Y-73021428D01*
X43186071Y-73021428D01*
X44686071Y-72235714D02*
X43686071Y-72235714D01*
X43186071Y-72235714D02*
X43257500Y-72307142D01*
X43328928Y-72235714D01*
X43257500Y-72164285D01*
X43186071Y-72235714D01*
X43328928Y-72235714D01*
X44686071Y-70878571D02*
X43900357Y-70878571D01*
X43757500Y-70950000D01*
X43686071Y-71092857D01*
X43686071Y-71378571D01*
X43757500Y-71521428D01*
X44614642Y-70878571D02*
X44686071Y-71021428D01*
X44686071Y-71378571D01*
X44614642Y-71521428D01*
X44471785Y-71592857D01*
X44328928Y-71592857D01*
X44186071Y-71521428D01*
X44114642Y-71378571D01*
X44114642Y-71021428D01*
X44043214Y-70878571D01*
X43686071Y-70164285D02*
X44686071Y-70164285D01*
X43828928Y-70164285D02*
X43757500Y-70092857D01*
X43686071Y-69950000D01*
X43686071Y-69735714D01*
X43757500Y-69592857D01*
X43900357Y-69521428D01*
X44686071Y-69521428D01*
X43186071Y-67807142D02*
X44686071Y-67450000D01*
X43614642Y-67164285D01*
X44686071Y-66878571D01*
X43186071Y-66521428D01*
X44686071Y-65735714D02*
X44614642Y-65878571D01*
X44543214Y-65950000D01*
X44400357Y-66021428D01*
X43971785Y-66021428D01*
X43828928Y-65950000D01*
X43757500Y-65878571D01*
X43686071Y-65735714D01*
X43686071Y-65521428D01*
X43757500Y-65378571D01*
X43828928Y-65307142D01*
X43971785Y-65235714D01*
X44400357Y-65235714D01*
X44543214Y-65307142D01*
X44614642Y-65378571D01*
X44686071Y-65521428D01*
X44686071Y-65735714D01*
X44686071Y-64378571D02*
X44614642Y-64521428D01*
X44471785Y-64592857D01*
X43186071Y-64592857D01*
X43686071Y-64021428D02*
X43686071Y-63450000D01*
X43186071Y-63807142D02*
X44471785Y-63807142D01*
X44614642Y-63735714D01*
X44686071Y-63592857D01*
X44686071Y-63450000D01*
X44614642Y-62378571D02*
X44686071Y-62521428D01*
X44686071Y-62807142D01*
X44614642Y-62950000D01*
X44471785Y-63021428D01*
X43900357Y-63021428D01*
X43757500Y-62950000D01*
X43686071Y-62807142D01*
X43686071Y-62521428D01*
X43757500Y-62378571D01*
X43900357Y-62307142D01*
X44043214Y-62307142D01*
X44186071Y-63021428D01*
X44686071Y-61664285D02*
X43686071Y-61664285D01*
X43971785Y-61664285D02*
X43828928Y-61592857D01*
X43757500Y-61521428D01*
X43686071Y-61378571D01*
X43686071Y-61235714D01*
X45257500Y-59164285D02*
X45186071Y-59235714D01*
X44971785Y-59378571D01*
X44828928Y-59450000D01*
X44614642Y-59521428D01*
X44257500Y-59592857D01*
X43971785Y-59592857D01*
X43614642Y-59521428D01*
X43400357Y-59450000D01*
X43257500Y-59378571D01*
X43043214Y-59235714D01*
X42971785Y-59164285D01*
X43686071Y-58592857D02*
X44971785Y-58592857D01*
X45114642Y-58664285D01*
X45186071Y-58807142D01*
X45186071Y-58878571D01*
X43186071Y-58592857D02*
X43257500Y-58664285D01*
X43328928Y-58592857D01*
X43257500Y-58521428D01*
X43186071Y-58592857D01*
X43328928Y-58592857D01*
X43686071Y-57235714D02*
X44686071Y-57235714D01*
X43686071Y-57878571D02*
X44471785Y-57878571D01*
X44614642Y-57807142D01*
X44686071Y-57664285D01*
X44686071Y-57450000D01*
X44614642Y-57307142D01*
X44543214Y-57235714D01*
X44686071Y-56307142D02*
X44614642Y-56450000D01*
X44471785Y-56521428D01*
X43186071Y-56521428D01*
X44686071Y-55735714D02*
X43686071Y-55735714D01*
X43186071Y-55735714D02*
X43257500Y-55807142D01*
X43328928Y-55735714D01*
X43257500Y-55664285D01*
X43186071Y-55735714D01*
X43328928Y-55735714D01*
X44686071Y-54378571D02*
X43900357Y-54378571D01*
X43757500Y-54450000D01*
X43686071Y-54592857D01*
X43686071Y-54878571D01*
X43757500Y-55021428D01*
X44614642Y-54378571D02*
X44686071Y-54521428D01*
X44686071Y-54878571D01*
X44614642Y-55021428D01*
X44471785Y-55092857D01*
X44328928Y-55092857D01*
X44186071Y-55021428D01*
X44114642Y-54878571D01*
X44114642Y-54521428D01*
X44043214Y-54378571D01*
X43686071Y-53664285D02*
X44686071Y-53664285D01*
X43828928Y-53664285D02*
X43757500Y-53592857D01*
X43686071Y-53450000D01*
X43686071Y-53235714D01*
X43757500Y-53092857D01*
X43900357Y-53021428D01*
X44686071Y-53021428D01*
X44114642Y-52307142D02*
X44114642Y-51164285D01*
X43686071Y-50592857D02*
X44686071Y-50307142D01*
X43971785Y-50021428D01*
X44686071Y-49735714D01*
X43686071Y-49450000D01*
X44543214Y-48878571D02*
X44614642Y-48807142D01*
X44686071Y-48878571D01*
X44614642Y-48950000D01*
X44543214Y-48878571D01*
X44686071Y-48878571D01*
X44686071Y-47521428D02*
X43186071Y-47521428D01*
X44614642Y-47521428D02*
X44686071Y-47664285D01*
X44686071Y-47950000D01*
X44614642Y-48092857D01*
X44543214Y-48164285D01*
X44400357Y-48235714D01*
X43971785Y-48235714D01*
X43828928Y-48164285D01*
X43757500Y-48092857D01*
X43686071Y-47950000D01*
X43686071Y-47664285D01*
X43757500Y-47521428D01*
X44614642Y-46235714D02*
X44686071Y-46378571D01*
X44686071Y-46664285D01*
X44614642Y-46807142D01*
X44471785Y-46878571D01*
X43900357Y-46878571D01*
X43757500Y-46807142D01*
X43686071Y-46664285D01*
X43686071Y-46378571D01*
X43757500Y-46235714D01*
X43900357Y-46164285D01*
X44043214Y-46164285D01*
X44186071Y-46878571D01*
X45257500Y-45664285D02*
X45186071Y-45592857D01*
X44971785Y-45450000D01*
X44828928Y-45378571D01*
X44614642Y-45307142D01*
X44257500Y-45235714D01*
X43971785Y-45235714D01*
X43614642Y-45307142D01*
X43400357Y-45378571D01*
X43257500Y-45450000D01*
X43043214Y-45592857D01*
X42971785Y-45664285D01*
D12*
X61742857Y-36685714D02*
X61914285Y-36742857D01*
X62200000Y-36742857D01*
X62314285Y-36685714D01*
X62371428Y-36628571D01*
X62428571Y-36514285D01*
X62428571Y-36400000D01*
X62371428Y-36285714D01*
X62314285Y-36228571D01*
X62200000Y-36171428D01*
X61971428Y-36114285D01*
X61857142Y-36057142D01*
X61800000Y-36000000D01*
X61742857Y-35885714D01*
X61742857Y-35771428D01*
X61800000Y-35657142D01*
X61857142Y-35600000D01*
X61971428Y-35542857D01*
X62257142Y-35542857D01*
X62428571Y-35600000D01*
X62942857Y-36742857D02*
X62942857Y-35542857D01*
X63228571Y-35542857D01*
X63400000Y-35600000D01*
X63514285Y-35714285D01*
X63571428Y-35828571D01*
X63628571Y-36057142D01*
X63628571Y-36228571D01*
X63571428Y-36457142D01*
X63514285Y-36571428D01*
X63400000Y-36685714D01*
X63228571Y-36742857D01*
X62942857Y-36742857D01*
X64542857Y-36114285D02*
X64714285Y-36171428D01*
X64771428Y-36228571D01*
X64828571Y-36342857D01*
X64828571Y-36514285D01*
X64771428Y-36628571D01*
X64714285Y-36685714D01*
X64600000Y-36742857D01*
X64142857Y-36742857D01*
X64142857Y-35542857D01*
X64542857Y-35542857D01*
X64657142Y-35600000D01*
X64714285Y-35657142D01*
X64771428Y-35771428D01*
X64771428Y-35885714D01*
X64714285Y-36000000D01*
X64657142Y-36057142D01*
X64542857Y-36114285D01*
X64142857Y-36114285D01*
X65285714Y-35942857D02*
X66142857Y-35942857D01*
X65628571Y-35428571D02*
X65285714Y-36971428D01*
X66028571Y-36457142D02*
X65171428Y-36457142D01*
X65685714Y-36971428D02*
X66028571Y-35428571D01*
X66771428Y-35542857D02*
X66885714Y-35542857D01*
X67000000Y-35600000D01*
X67057142Y-35657142D01*
X67114285Y-35771428D01*
X67171428Y-36000000D01*
X67171428Y-36285714D01*
X67114285Y-36514285D01*
X67057142Y-36628571D01*
X67000000Y-36685714D01*
X66885714Y-36742857D01*
X66771428Y-36742857D01*
X66657142Y-36685714D01*
X66600000Y-36628571D01*
X66542857Y-36514285D01*
X66485714Y-36285714D01*
X66485714Y-36000000D01*
X66542857Y-35771428D01*
X66600000Y-35657142D01*
X66657142Y-35600000D01*
X66771428Y-35542857D01*
X67571428Y-35542857D02*
X68314285Y-35542857D01*
X67914285Y-36000000D01*
X68085714Y-36000000D01*
X68200000Y-36057142D01*
X68257142Y-36114285D01*
X68314285Y-36228571D01*
X68314285Y-36514285D01*
X68257142Y-36628571D01*
X68200000Y-36685714D01*
X68085714Y-36742857D01*
X67742857Y-36742857D01*
X67628571Y-36685714D01*
X67571428Y-36628571D01*
X69342857Y-35942857D02*
X69342857Y-36742857D01*
X69057142Y-35485714D02*
X68771428Y-36342857D01*
X69514285Y-36342857D01*
D10*
%TO.C,J5*%
X92386428Y-93067380D02*
X92576904Y-93067380D01*
X92672142Y-93115000D01*
X92767380Y-93210238D01*
X92815000Y-93400714D01*
X92815000Y-93734047D01*
X92767380Y-93924523D01*
X92672142Y-94019761D01*
X92576904Y-94067380D01*
X92386428Y-94067380D01*
X92291190Y-94019761D01*
X92195952Y-93924523D01*
X92148333Y-93734047D01*
X92148333Y-93400714D01*
X92195952Y-93210238D01*
X92291190Y-93115000D01*
X92386428Y-93067380D01*
X93719761Y-94067380D02*
X93243571Y-94067380D01*
X93243571Y-93067380D01*
X94053095Y-93543571D02*
X94386428Y-93543571D01*
X94529285Y-94067380D02*
X94053095Y-94067380D01*
X94053095Y-93067380D01*
X94529285Y-93067380D01*
X94957857Y-94067380D02*
X94957857Y-93067380D01*
X95195952Y-93067380D01*
X95338809Y-93115000D01*
X95434047Y-93210238D01*
X95481666Y-93305476D01*
X95529285Y-93495952D01*
X95529285Y-93638809D01*
X95481666Y-93829285D01*
X95434047Y-93924523D01*
X95338809Y-94019761D01*
X95195952Y-94067380D01*
X94957857Y-94067380D01*
X96719761Y-94067380D02*
X96719761Y-93067380D01*
X97100714Y-93067380D01*
X97195952Y-93115000D01*
X97243571Y-93162619D01*
X97291190Y-93257857D01*
X97291190Y-93400714D01*
X97243571Y-93495952D01*
X97195952Y-93543571D01*
X97100714Y-93591190D01*
X96719761Y-93591190D01*
X98148333Y-94067380D02*
X98148333Y-93543571D01*
X98100714Y-93448333D01*
X98005476Y-93400714D01*
X97815000Y-93400714D01*
X97719761Y-93448333D01*
X98148333Y-94019761D02*
X98053095Y-94067380D01*
X97815000Y-94067380D01*
X97719761Y-94019761D01*
X97672142Y-93924523D01*
X97672142Y-93829285D01*
X97719761Y-93734047D01*
X97815000Y-93686428D01*
X98053095Y-93686428D01*
X98148333Y-93638809D01*
X98624523Y-93400714D02*
X98624523Y-94067380D01*
X98624523Y-93495952D02*
X98672142Y-93448333D01*
X98767380Y-93400714D01*
X98910238Y-93400714D01*
X99005476Y-93448333D01*
X99053095Y-93543571D01*
X99053095Y-94067380D01*
X99910238Y-94019761D02*
X99815000Y-94067380D01*
X99624523Y-94067380D01*
X99529285Y-94019761D01*
X99481666Y-93924523D01*
X99481666Y-93543571D01*
X99529285Y-93448333D01*
X99624523Y-93400714D01*
X99815000Y-93400714D01*
X99910238Y-93448333D01*
X99957857Y-93543571D01*
X99957857Y-93638809D01*
X99481666Y-93734047D01*
X100529285Y-94067380D02*
X100434047Y-94019761D01*
X100386428Y-93924523D01*
X100386428Y-93067380D01*
X111440000Y-90376428D02*
X111404285Y-90447857D01*
X111404285Y-90555000D01*
X111440000Y-90662142D01*
X111511428Y-90733571D01*
X111582857Y-90769285D01*
X111725714Y-90805000D01*
X111832857Y-90805000D01*
X111975714Y-90769285D01*
X112047142Y-90733571D01*
X112118571Y-90662142D01*
X112154285Y-90555000D01*
X112154285Y-90483571D01*
X112118571Y-90376428D01*
X112082857Y-90340714D01*
X111832857Y-90340714D01*
X111832857Y-90483571D01*
X112154285Y-90019285D02*
X111404285Y-90019285D01*
X112154285Y-89590714D01*
X111404285Y-89590714D01*
X112154285Y-89233571D02*
X111404285Y-89233571D01*
X111404285Y-89055000D01*
X111440000Y-88947857D01*
X111511428Y-88876428D01*
X111582857Y-88840714D01*
X111725714Y-88805000D01*
X111832857Y-88805000D01*
X111975714Y-88840714D01*
X112047142Y-88876428D01*
X112118571Y-88947857D01*
X112154285Y-89055000D01*
X112154285Y-89233571D01*
X111404285Y-93345000D02*
X112154285Y-93095000D01*
X111404285Y-92845000D01*
X112082857Y-92166428D02*
X112118571Y-92202142D01*
X112154285Y-92309285D01*
X112154285Y-92380714D01*
X112118571Y-92487857D01*
X112047142Y-92559285D01*
X111975714Y-92595000D01*
X111832857Y-92630714D01*
X111725714Y-92630714D01*
X111582857Y-92595000D01*
X111511428Y-92559285D01*
X111440000Y-92487857D01*
X111404285Y-92380714D01*
X111404285Y-92309285D01*
X111440000Y-92202142D01*
X111475714Y-92166428D01*
X112082857Y-91416428D02*
X112118571Y-91452142D01*
X112154285Y-91559285D01*
X112154285Y-91630714D01*
X112118571Y-91737857D01*
X112047142Y-91809285D01*
X111975714Y-91845000D01*
X111832857Y-91880714D01*
X111725714Y-91880714D01*
X111582857Y-91845000D01*
X111511428Y-91809285D01*
X111440000Y-91737857D01*
X111404285Y-91630714D01*
X111404285Y-91559285D01*
X111440000Y-91452142D01*
X111475714Y-91416428D01*
X112118571Y-95777857D02*
X112154285Y-95670714D01*
X112154285Y-95492142D01*
X112118571Y-95420714D01*
X112082857Y-95385000D01*
X112011428Y-95349285D01*
X111940000Y-95349285D01*
X111868571Y-95385000D01*
X111832857Y-95420714D01*
X111797142Y-95492142D01*
X111761428Y-95635000D01*
X111725714Y-95706428D01*
X111690000Y-95742142D01*
X111618571Y-95777857D01*
X111547142Y-95777857D01*
X111475714Y-95742142D01*
X111440000Y-95706428D01*
X111404285Y-95635000D01*
X111404285Y-95456428D01*
X111440000Y-95349285D01*
X112082857Y-94599285D02*
X112118571Y-94635000D01*
X112154285Y-94742142D01*
X112154285Y-94813571D01*
X112118571Y-94920714D01*
X112047142Y-94992142D01*
X111975714Y-95027857D01*
X111832857Y-95063571D01*
X111725714Y-95063571D01*
X111582857Y-95027857D01*
X111511428Y-94992142D01*
X111440000Y-94920714D01*
X111404285Y-94813571D01*
X111404285Y-94742142D01*
X111440000Y-94635000D01*
X111475714Y-94599285D01*
X112154285Y-93920714D02*
X112154285Y-94277857D01*
X111404285Y-94277857D01*
X112118571Y-98335714D02*
X112154285Y-98228571D01*
X112154285Y-98050000D01*
X112118571Y-97978571D01*
X112082857Y-97942857D01*
X112011428Y-97907142D01*
X111940000Y-97907142D01*
X111868571Y-97942857D01*
X111832857Y-97978571D01*
X111797142Y-98050000D01*
X111761428Y-98192857D01*
X111725714Y-98264285D01*
X111690000Y-98300000D01*
X111618571Y-98335714D01*
X111547142Y-98335714D01*
X111475714Y-98300000D01*
X111440000Y-98264285D01*
X111404285Y-98192857D01*
X111404285Y-98014285D01*
X111440000Y-97907142D01*
X112154285Y-97585714D02*
X111404285Y-97585714D01*
X111404285Y-97407142D01*
X111440000Y-97300000D01*
X111511428Y-97228571D01*
X111582857Y-97192857D01*
X111725714Y-97157142D01*
X111832857Y-97157142D01*
X111975714Y-97192857D01*
X112047142Y-97228571D01*
X112118571Y-97300000D01*
X112154285Y-97407142D01*
X112154285Y-97585714D01*
X111940000Y-96871428D02*
X111940000Y-96514285D01*
X112154285Y-96942857D02*
X111404285Y-96692857D01*
X112154285Y-96442857D01*
D13*
%TO.C,D1*%
X99000000Y-131050000D02*
X104400000Y-131050000D01*
X99000000Y-134350000D02*
X104400000Y-134350000D01*
X99000000Y-131050000D02*
X99000000Y-134350000D01*
%TO.C,J3*%
X115260000Y-140260000D02*
X115260000Y-131640000D01*
X107790000Y-140260000D02*
X115260000Y-140260000D01*
X112950000Y-136200000D02*
X112950000Y-136950000D01*
X112950000Y-132700000D02*
X112950000Y-133450000D01*
X112950000Y-134950000D02*
X112950000Y-135700000D01*
X113300000Y-132950000D02*
X114300000Y-132700000D01*
X113300000Y-135450000D02*
X113300000Y-134950000D01*
X108650000Y-136950000D02*
X108650000Y-136200000D01*
X114400000Y-131250000D02*
X115650000Y-131250000D01*
X113300000Y-134950000D02*
X112950000Y-134950000D01*
X115260000Y-131640000D02*
X107790000Y-131640000D01*
X114300000Y-139200000D02*
X113300000Y-138950000D01*
X108650000Y-133450000D02*
X108650000Y-132700000D01*
X108650000Y-135700000D02*
X108650000Y-134950000D01*
X112950000Y-139200000D02*
X108650000Y-139200000D01*
X112950000Y-133450000D02*
X113300000Y-133450000D01*
X108650000Y-139200000D02*
X108650000Y-138450000D01*
X112950000Y-136950000D02*
X113300000Y-136950000D01*
X113300000Y-133450000D02*
X113300000Y-132950000D01*
X114300000Y-135700000D02*
X113300000Y-135450000D01*
X108650000Y-136200000D02*
X112950000Y-136200000D01*
X115650000Y-131250000D02*
X115650000Y-133250000D01*
X113300000Y-136950000D02*
X113300000Y-136450000D01*
X113300000Y-138450000D02*
X112950000Y-138450000D01*
X107790000Y-131640000D02*
X107790000Y-140260000D01*
X113300000Y-136450000D02*
X114300000Y-136200000D01*
X114300000Y-132700000D02*
X114300000Y-135700000D01*
X112950000Y-138450000D02*
X112950000Y-139200000D01*
X112950000Y-135700000D02*
X108650000Y-135700000D01*
X114300000Y-136200000D02*
X114300000Y-139200000D01*
X113300000Y-138950000D02*
X113300000Y-138450000D01*
X108650000Y-132700000D02*
X112950000Y-132700000D01*
X108650155Y-134949647D02*
G75*
G03*
X108650000Y-133450000I-1700155J749647D01*
G01*
X108650155Y-138449647D02*
G75*
G03*
X108650000Y-136950000I-1700155J749647D01*
G01*
%TO.C,J2*%
X115800000Y-130857500D02*
X101100000Y-130857500D01*
X115800000Y-121657500D02*
X115800000Y-130857500D01*
X101100000Y-121657500D02*
X103000000Y-121657500D01*
X101100000Y-124357500D02*
X101100000Y-121657500D01*
X101100000Y-130857500D02*
X101100000Y-128257500D01*
X107000000Y-121657500D02*
X115800000Y-121657500D01*
X100900000Y-130007500D02*
X100900000Y-131057500D01*
X101950000Y-131057500D02*
X100900000Y-131057500D01*
%TO.C,C21*%
X102559420Y-88410000D02*
X102840580Y-88410000D01*
X102559420Y-87390000D02*
X102840580Y-87390000D01*
%TO.C,C31*%
X90884420Y-108910000D02*
X91165580Y-108910000D01*
X90884420Y-107890000D02*
X91165580Y-107890000D01*
%TO.C,C30*%
X89659420Y-41910000D02*
X89940580Y-41910000D01*
X89659420Y-40890000D02*
X89940580Y-40890000D01*
%TO.C,C29*%
X90684420Y-95810000D02*
X90965580Y-95810000D01*
X90684420Y-94790000D02*
X90965580Y-94790000D01*
%TO.C,C28*%
X90790000Y-81459420D02*
X90790000Y-81740580D01*
X91810000Y-81459420D02*
X91810000Y-81740580D01*
%TO.C,C27*%
X90859420Y-121910000D02*
X91140580Y-121910000D01*
X90859420Y-120890000D02*
X91140580Y-120890000D01*
%TO.C,C26*%
X89584420Y-55810000D02*
X89865580Y-55810000D01*
X89584420Y-54790000D02*
X89865580Y-54790000D01*
%TO.C,C25*%
X89884420Y-129710000D02*
X90165580Y-129710000D01*
X89884420Y-128690000D02*
X90165580Y-128690000D01*
%TO.C,U23*%
X45460000Y-105300000D02*
X45460000Y-101850000D01*
X40340000Y-105300000D02*
X40340000Y-107250000D01*
X45460000Y-105300000D02*
X45460000Y-107250000D01*
X40340000Y-105300000D02*
X40340000Y-103350000D01*
%TO.C,U22*%
X49118000Y-133252500D02*
X49118000Y-124632500D01*
X49358000Y-125632500D02*
X49358000Y-124392500D01*
X49118000Y-124632500D02*
X37397000Y-124632500D01*
X49358000Y-124392500D02*
X48118000Y-124392500D01*
X37397000Y-133252500D02*
X37397000Y-124632500D01*
X49118000Y-133252500D02*
X37397000Y-133252500D01*
%TO.C,R4*%
X43237258Y-100022500D02*
X42762742Y-100022500D01*
X43237258Y-98977500D02*
X42762742Y-98977500D01*
%TO.C,R3*%
X39622500Y-105337742D02*
X39622500Y-105812258D01*
X38577500Y-105337742D02*
X38577500Y-105812258D01*
%TO.C,C24*%
X45445563Y-98010000D02*
X39690000Y-98010000D01*
X46510000Y-92254437D02*
X45445563Y-91190000D01*
X46510000Y-92254437D02*
X46510000Y-93540000D01*
X39690000Y-98010000D02*
X39690000Y-95660000D01*
X45445563Y-91190000D02*
X39690000Y-91190000D01*
X46510000Y-96945563D02*
X45445563Y-98010000D01*
X46510000Y-96945563D02*
X46510000Y-95660000D01*
X39690000Y-91190000D02*
X39690000Y-93540000D01*
%TO.C,C19*%
X45445563Y-90510000D02*
X39690000Y-90510000D01*
X46510000Y-84754437D02*
X45445563Y-83690000D01*
X46510000Y-84754437D02*
X46510000Y-86040000D01*
X39690000Y-90510000D02*
X39690000Y-88160000D01*
X45445563Y-83690000D02*
X39690000Y-83690000D01*
X46510000Y-89445563D02*
X45445563Y-90510000D01*
X46510000Y-89445563D02*
X46510000Y-88160000D01*
X39690000Y-83690000D02*
X39690000Y-86040000D01*
%TO.C,C7*%
X45483063Y-116710000D02*
X39727500Y-116710000D01*
X46547500Y-110954437D02*
X45483063Y-109890000D01*
X46547500Y-110954437D02*
X46547500Y-112240000D01*
X39727500Y-116710000D02*
X39727500Y-114360000D01*
X45483063Y-109890000D02*
X39727500Y-109890000D01*
X46547500Y-115645563D02*
X45483063Y-116710000D01*
X46547500Y-115645563D02*
X46547500Y-114360000D01*
X39727500Y-109890000D02*
X39727500Y-112240000D01*
%TO.C,C6*%
X41234420Y-124110000D02*
X41515580Y-124110000D01*
X41234420Y-123090000D02*
X41515580Y-123090000D01*
%TO.C,C5*%
X40888748Y-122435000D02*
X41411252Y-122435000D01*
X40888748Y-120965000D02*
X41411252Y-120965000D01*
%TO.C,C4*%
X40888748Y-120335000D02*
X41411252Y-120335000D01*
X40888748Y-118865000D02*
X41411252Y-118865000D01*
%TO.C,C3*%
X44961252Y-122465000D02*
X44438748Y-122465000D01*
X44961252Y-123935000D02*
X44438748Y-123935000D01*
%TO.C,C1*%
X44961252Y-120365000D02*
X44438748Y-120365000D01*
X44961252Y-121835000D02*
X44438748Y-121835000D01*
%TO.C,U9*%
X90000000Y-101735000D02*
X92200000Y-101735000D01*
X90000000Y-96265000D02*
X86400000Y-96265000D01*
X90000000Y-96265000D02*
X92200000Y-96265000D01*
X90000000Y-101735000D02*
X87800000Y-101735000D01*
%TO.C,U21*%
X80610000Y-75360000D02*
X80610000Y-74640000D01*
X77000000Y-75360000D02*
X73390000Y-75360000D01*
X77000000Y-62640000D02*
X73390000Y-62640000D01*
X77000000Y-62640000D02*
X80610000Y-62640000D01*
X73390000Y-75360000D02*
X73390000Y-74640000D01*
X80610000Y-62640000D02*
X80610000Y-63360000D01*
X77000000Y-75360000D02*
X80610000Y-75360000D01*
X80610000Y-74640000D02*
X82650000Y-74640000D01*
X73390000Y-62640000D02*
X73390000Y-63360000D01*
%TO.C,U20*%
X80860000Y-87885000D02*
X80860000Y-87640000D01*
X77000000Y-87885000D02*
X73140000Y-87885000D01*
X77000000Y-76115000D02*
X73140000Y-76115000D01*
X80860000Y-87640000D02*
X82675000Y-87640000D01*
X77000000Y-87885000D02*
X80860000Y-87885000D01*
X77000000Y-76115000D02*
X80860000Y-76115000D01*
X73140000Y-87885000D02*
X73140000Y-87640000D01*
X73140000Y-76115000D02*
X73140000Y-76360000D01*
X80860000Y-76115000D02*
X80860000Y-76360000D01*
%TO.C,U19*%
X73390000Y-48640000D02*
X73390000Y-49360000D01*
X80610000Y-60640000D02*
X82650000Y-60640000D01*
X77000000Y-61360000D02*
X80610000Y-61360000D01*
X80610000Y-48640000D02*
X80610000Y-49360000D01*
X73390000Y-61360000D02*
X73390000Y-60640000D01*
X77000000Y-48640000D02*
X80610000Y-48640000D01*
X77000000Y-48640000D02*
X73390000Y-48640000D01*
X77000000Y-61360000D02*
X73390000Y-61360000D01*
X80610000Y-61360000D02*
X80610000Y-60640000D01*
%TO.C,U18*%
X80860000Y-126885000D02*
X80860000Y-126640000D01*
X77000000Y-126885000D02*
X73140000Y-126885000D01*
X77000000Y-115115000D02*
X73140000Y-115115000D01*
X80860000Y-126640000D02*
X82675000Y-126640000D01*
X77000000Y-126885000D02*
X80860000Y-126885000D01*
X77000000Y-115115000D02*
X80860000Y-115115000D01*
X73140000Y-126885000D02*
X73140000Y-126640000D01*
X73140000Y-115115000D02*
X73140000Y-115360000D01*
X80860000Y-115115000D02*
X80860000Y-115360000D01*
%TO.C,U17*%
X80860000Y-100885000D02*
X80860000Y-100640000D01*
X77000000Y-100885000D02*
X73140000Y-100885000D01*
X77000000Y-89115000D02*
X73140000Y-89115000D01*
X80860000Y-100640000D02*
X82675000Y-100640000D01*
X77000000Y-100885000D02*
X80860000Y-100885000D01*
X77000000Y-89115000D02*
X80860000Y-89115000D01*
X73140000Y-100885000D02*
X73140000Y-100640000D01*
X73140000Y-89115000D02*
X73140000Y-89360000D01*
X80860000Y-89115000D02*
X80860000Y-89360000D01*
%TO.C,U16*%
X73390000Y-34640000D02*
X73390000Y-35360000D01*
X80610000Y-46640000D02*
X82650000Y-46640000D01*
X77000000Y-47360000D02*
X80610000Y-47360000D01*
X80610000Y-34640000D02*
X80610000Y-35360000D01*
X73390000Y-47360000D02*
X73390000Y-46640000D01*
X77000000Y-34640000D02*
X80610000Y-34640000D01*
X77000000Y-34640000D02*
X73390000Y-34640000D01*
X77000000Y-47360000D02*
X73390000Y-47360000D01*
X80610000Y-47360000D02*
X80610000Y-46640000D01*
%TO.C,U15*%
X80860000Y-139885000D02*
X80860000Y-139640000D01*
X77000000Y-139885000D02*
X73140000Y-139885000D01*
X77000000Y-128115000D02*
X73140000Y-128115000D01*
X80860000Y-139640000D02*
X82675000Y-139640000D01*
X77000000Y-139885000D02*
X80860000Y-139885000D01*
X77000000Y-128115000D02*
X80860000Y-128115000D01*
X73140000Y-139885000D02*
X73140000Y-139640000D01*
X73140000Y-128115000D02*
X73140000Y-128360000D01*
X80860000Y-128115000D02*
X80860000Y-128360000D01*
%TO.C,U14*%
X80860000Y-113885000D02*
X80860000Y-113640000D01*
X77000000Y-113885000D02*
X73140000Y-113885000D01*
X77000000Y-102115000D02*
X73140000Y-102115000D01*
X80860000Y-113640000D02*
X82675000Y-113640000D01*
X77000000Y-113885000D02*
X80860000Y-113885000D01*
X77000000Y-102115000D02*
X80860000Y-102115000D01*
X73140000Y-113885000D02*
X73140000Y-113640000D01*
X73140000Y-102115000D02*
X73140000Y-102360000D01*
X80860000Y-102115000D02*
X80860000Y-102360000D01*
%TO.C,U13*%
X90000000Y-127735000D02*
X87800000Y-127735000D01*
X90000000Y-122265000D02*
X92200000Y-122265000D01*
X90000000Y-122265000D02*
X86400000Y-122265000D01*
X90000000Y-127735000D02*
X92200000Y-127735000D01*
%TO.C,U12*%
X90000000Y-88735000D02*
X87800000Y-88735000D01*
X90000000Y-83265000D02*
X92200000Y-83265000D01*
X90000000Y-83265000D02*
X86400000Y-83265000D01*
X90000000Y-88735000D02*
X92200000Y-88735000D01*
%TO.C,U11*%
X90000000Y-114735000D02*
X87800000Y-114735000D01*
X90000000Y-109265000D02*
X92200000Y-109265000D01*
X90000000Y-109265000D02*
X86400000Y-109265000D01*
X90000000Y-114735000D02*
X92200000Y-114735000D01*
%TO.C,U10*%
X89000000Y-61735000D02*
X86800000Y-61735000D01*
X89000000Y-56265000D02*
X91200000Y-56265000D01*
X89000000Y-56265000D02*
X85400000Y-56265000D01*
X89000000Y-61735000D02*
X91200000Y-61735000D01*
%TO.C,U8*%
X101000000Y-42140000D02*
X102950000Y-42140000D01*
X101000000Y-52260000D02*
X99050000Y-52260000D01*
X101000000Y-42140000D02*
X99050000Y-42140000D01*
X101000000Y-52260000D02*
X104450000Y-52260000D01*
%TO.C,U5*%
X115260000Y-107329000D02*
X106640000Y-107329000D01*
X107640000Y-107089000D02*
X106400000Y-107089000D01*
X106640000Y-107329000D02*
X106640000Y-119050000D01*
X106400000Y-107089000D02*
X106400000Y-108329000D01*
X115260000Y-119050000D02*
X106640000Y-119050000D01*
X115260000Y-107329000D02*
X115260000Y-119050000D01*
%TO.C,U4*%
X90000000Y-138735000D02*
X87800000Y-138735000D01*
X90000000Y-133265000D02*
X92200000Y-133265000D01*
X90000000Y-133265000D02*
X86400000Y-133265000D01*
X90000000Y-138735000D02*
X92200000Y-138735000D01*
%TO.C,U3*%
X89000000Y-47735000D02*
X86800000Y-47735000D01*
X89000000Y-42265000D02*
X91200000Y-42265000D01*
X89000000Y-42265000D02*
X85400000Y-42265000D01*
X89000000Y-47735000D02*
X91200000Y-47735000D01*
%TO.C,U2*%
X114720000Y-78520000D02*
X114300000Y-78520000D01*
X114720000Y-60280000D02*
X114300000Y-60280000D01*
X95280000Y-78520000D02*
X95280000Y-77520000D01*
X95900000Y-78520000D02*
X95280000Y-78520000D01*
X114300000Y-60280000D02*
X114300000Y-59900000D01*
X114720000Y-60280000D02*
X114720000Y-78520000D01*
X95280000Y-60280000D02*
X95280000Y-61280000D01*
X95900000Y-60280000D02*
X95280000Y-60280000D01*
%TO.C,U1*%
X101500000Y-89015000D02*
X103700000Y-89015000D01*
X101500000Y-89015000D02*
X97900000Y-89015000D01*
X101500000Y-95785000D02*
X103700000Y-95785000D01*
X101500000Y-95785000D02*
X99300000Y-95785000D01*
%TO.C,SW3*%
X87470000Y-34170000D02*
X93930000Y-34170000D01*
X87470000Y-40630000D02*
X87470000Y-40600000D01*
X87470000Y-36100000D02*
X87470000Y-38700000D01*
X93930000Y-34170000D02*
X93930000Y-34200000D01*
X87470000Y-40630000D02*
X93930000Y-40630000D01*
X87470000Y-34200000D02*
X87470000Y-34170000D01*
X93930000Y-40630000D02*
X93930000Y-40600000D01*
X93930000Y-36100000D02*
X93930000Y-38700000D01*
%TO.C,SW2*%
X103730000Y-106730000D02*
X97270000Y-106730000D01*
X103730000Y-100270000D02*
X103730000Y-100300000D01*
X103730000Y-104800000D02*
X103730000Y-102200000D01*
X97270000Y-106730000D02*
X97270000Y-106700000D01*
X103730000Y-100270000D02*
X97270000Y-100270000D01*
X103730000Y-106700000D02*
X103730000Y-106730000D01*
X97270000Y-100270000D02*
X97270000Y-100300000D01*
X97270000Y-104800000D02*
X97270000Y-102200000D01*
%TO.C,SW1*%
X113830000Y-106730000D02*
X107370000Y-106730000D01*
X113830000Y-100270000D02*
X113830000Y-100300000D01*
X113830000Y-104800000D02*
X113830000Y-102200000D01*
X107370000Y-106730000D02*
X107370000Y-106700000D01*
X113830000Y-100270000D02*
X107370000Y-100270000D01*
X113830000Y-106700000D02*
X113830000Y-106730000D01*
X107370000Y-100270000D02*
X107370000Y-100300000D01*
X107370000Y-104800000D02*
X107370000Y-102200000D01*
%TO.C,R46*%
X105677500Y-36562742D02*
X105677500Y-37037258D01*
X106722500Y-36562742D02*
X106722500Y-37037258D01*
%TO.C,R45*%
X105877500Y-42562742D02*
X105877500Y-43037258D01*
X106922500Y-42562742D02*
X106922500Y-43037258D01*
%TO.C,R44*%
X105677500Y-81937742D02*
X105677500Y-82412258D01*
X106722500Y-81937742D02*
X106722500Y-82412258D01*
%TO.C,R43*%
X105877500Y-49937742D02*
X105877500Y-50412258D01*
X106922500Y-49937742D02*
X106922500Y-50412258D01*
%TO.C,R42*%
X111577500Y-52237742D02*
X111577500Y-52712258D01*
X112622500Y-52237742D02*
X112622500Y-52712258D01*
%TO.C,R31*%
X110662742Y-97922500D02*
X111137258Y-97922500D01*
X110662742Y-96877500D02*
X111137258Y-96877500D01*
%TO.C,R30*%
X100137742Y-58122500D02*
X100612258Y-58122500D01*
X100137742Y-57077500D02*
X100612258Y-57077500D01*
%TO.C,R29*%
X111162258Y-94377500D02*
X110687742Y-94377500D01*
X111162258Y-95422500D02*
X110687742Y-95422500D01*
%TO.C,R28*%
X100100242Y-56422500D02*
X100574758Y-56422500D01*
X100100242Y-55377500D02*
X100574758Y-55377500D01*
%TO.C,R19*%
X104077500Y-97787742D02*
X104077500Y-98262258D01*
X105122500Y-97787742D02*
X105122500Y-98262258D01*
%TO.C,R18*%
X105977500Y-97787742D02*
X105977500Y-98262258D01*
X107022500Y-97787742D02*
X107022500Y-98262258D01*
%TO.C,R2*%
X94922500Y-43237258D02*
X94922500Y-42762742D01*
X93877500Y-43237258D02*
X93877500Y-42762742D01*
%TO.C,R1*%
X109812258Y-56077500D02*
X109337742Y-56077500D01*
X109812258Y-57122500D02*
X109337742Y-57122500D01*
%TO.C,Q11*%
X94440000Y-50050000D02*
X94440000Y-51450000D01*
X96760000Y-51450000D02*
X96760000Y-49550000D01*
D14*
%TO.C,J6*%
X110212500Y-34880000D02*
X111892500Y-34880000D01*
X115662500Y-34880000D02*
X114232500Y-34880000D01*
X110212500Y-43820000D02*
X111892500Y-43820000D01*
X115662500Y-43820000D02*
X114232500Y-43820000D01*
X115662500Y-43820000D02*
X115662500Y-34880000D01*
D12*
X107162500Y-42550000D02*
G75*
G03*
X107162500Y-42550000I-100000J0D01*
G01*
D15*
%TO.C,J5*%
X80815000Y-87615000D02*
X80815000Y-99615000D01*
X110315000Y-87615000D02*
X110315000Y-99615000D01*
X115315000Y-87615000D02*
X77315000Y-87615000D01*
X77315000Y-87615000D02*
X77315000Y-99615000D01*
X77315000Y-99615000D02*
X115315000Y-99615000D01*
X115315000Y-99615000D02*
X115315000Y-87615000D01*
D13*
%TO.C,J1*%
X48980000Y-50090000D02*
X48980000Y-51090000D01*
X50370000Y-135330000D02*
X50740000Y-135330000D01*
X51680000Y-128170000D02*
X51680000Y-89470000D01*
X50370000Y-85370000D02*
X51680000Y-85370000D01*
X48980000Y-51090000D02*
X49980000Y-50590000D01*
X51680000Y-46670000D02*
X58080000Y-46670000D01*
X50370000Y-39510000D02*
X50370000Y-135330000D01*
X59390000Y-39510000D02*
X59390000Y-135330000D01*
X58080000Y-46670000D02*
X58080000Y-128170000D01*
X59390000Y-135330000D02*
X58520000Y-135330000D01*
X51680000Y-89470000D02*
X51680000Y-89470000D01*
X50740000Y-39510000D02*
X50370000Y-39510000D01*
X49980000Y-50590000D02*
X48980000Y-50090000D01*
X51680000Y-89470000D02*
X50370000Y-89470000D01*
X51680000Y-85370000D02*
X51680000Y-46670000D01*
X58520000Y-39510000D02*
X59390000Y-39510000D01*
X58080000Y-128170000D02*
X51680000Y-128170000D01*
%TO.C,D22*%
X111600000Y-80750000D02*
X111600000Y-84650000D01*
X111600000Y-80750000D02*
X109600000Y-80750000D01*
X109600000Y-80750000D02*
X109600000Y-84650000D01*
%TO.C,D21*%
X107200000Y-85250000D02*
X107200000Y-81350000D01*
X107200000Y-85250000D02*
X109200000Y-85250000D01*
X109200000Y-85250000D02*
X109200000Y-81350000D01*
%TO.C,D18*%
X112835000Y-50187500D02*
X112835000Y-47902500D01*
X112835000Y-47902500D02*
X111365000Y-47902500D01*
X111365000Y-47902500D02*
X111365000Y-50187500D01*
%TO.C,D17*%
X95000000Y-118550000D02*
X100400000Y-118550000D01*
X95000000Y-121850000D02*
X100400000Y-121850000D01*
X95000000Y-118550000D02*
X95000000Y-121850000D01*
%TO.C,D11*%
X95765000Y-58335000D02*
X98050000Y-58335000D01*
X95765000Y-56865000D02*
X95765000Y-58335000D01*
X98050000Y-56865000D02*
X95765000Y-56865000D01*
%TO.C,D10*%
X95765000Y-56635000D02*
X98050000Y-56635000D01*
X95765000Y-55165000D02*
X95765000Y-56635000D01*
X98050000Y-55165000D02*
X95765000Y-55165000D01*
%TO.C,D6*%
X92200000Y-77560000D02*
X91550000Y-77560000D01*
X92200000Y-74440000D02*
X91550000Y-74440000D01*
X92200000Y-77560000D02*
X93875000Y-77560000D01*
X92200000Y-74440000D02*
X92850000Y-74440000D01*
%TO.C,C23*%
X98940580Y-52890000D02*
X98659420Y-52890000D01*
X98940580Y-53910000D02*
X98659420Y-53910000D01*
%TO.C,C22*%
X103059420Y-53910000D02*
X103340580Y-53910000D01*
X103059420Y-52890000D02*
X103340580Y-52890000D01*
%TO.C,C20*%
X100765000Y-116488748D02*
X100765000Y-117011252D01*
X102235000Y-116488748D02*
X102235000Y-117011252D01*
%TO.C,C18*%
X112940580Y-57890000D02*
X112659420Y-57890000D01*
X112940580Y-58910000D02*
X112659420Y-58910000D01*
%TO.C,C16*%
X104990000Y-116359420D02*
X104990000Y-116640580D01*
X106010000Y-116359420D02*
X106010000Y-116640580D01*
%TO.C,C15*%
X102865000Y-116488748D02*
X102865000Y-117011252D01*
X104335000Y-116488748D02*
X104335000Y-117011252D01*
%TO.C,C14*%
X106035000Y-109811252D02*
X106035000Y-109288748D01*
X104565000Y-109811252D02*
X104565000Y-109288748D01*
%TO.C,C13*%
X102465000Y-112788748D02*
X102465000Y-113311252D01*
X103935000Y-112788748D02*
X103935000Y-113311252D01*
%TO.C,C12*%
X94990000Y-114872500D02*
X97340000Y-114872500D01*
X100745563Y-108052500D02*
X99460000Y-108052500D01*
X100745563Y-108052500D02*
X101810000Y-109116937D01*
X94990000Y-109116937D02*
X94990000Y-114872500D01*
X101810000Y-114872500D02*
X99460000Y-114872500D01*
X96054437Y-108052500D02*
X97340000Y-108052500D01*
X96054437Y-108052500D02*
X94990000Y-109116937D01*
X101810000Y-109116937D02*
X101810000Y-114872500D01*
%TO.C,C11*%
X104565000Y-112838748D02*
X104565000Y-113361252D01*
X106035000Y-112838748D02*
X106035000Y-113361252D01*
%TO.C,C10*%
X103935000Y-109811252D02*
X103935000Y-109288748D01*
X102465000Y-109811252D02*
X102465000Y-109288748D01*
%TO.C,C9*%
X112684420Y-55510000D02*
X112965580Y-55510000D01*
X112684420Y-54490000D02*
X112965580Y-54490000D01*
%TO.C,C8*%
X112684420Y-57110000D02*
X112965580Y-57110000D01*
X112684420Y-56090000D02*
X112965580Y-56090000D01*
%TO.C,C2*%
X109740580Y-57890000D02*
X109459420Y-57890000D01*
X109740580Y-58910000D02*
X109459420Y-58910000D01*
%TD*%
M02*
