M48
; DRILL file {KiCad (6.0.7)} date Thu Oct 27 00:54:25 2022
; FORMAT={-:-/ absolute / inch / decimal}
; #@! TF.CreationDate,2022-10-27T00:54:25+02:00
; #@! TF.GenerationSoftware,Kicad,Pcbnew,(6.0.7)
; #@! TF.FileFunction,Plated,1,2,PTH
FMAT,2
INCH
; #@! TA.AperFunction,Plated,PTH,ViaDrill
T1C0.0157
; #@! TA.AperFunction,Plated,PTH,ComponentDrill
T2C0.0236
; #@! TA.AperFunction,Plated,PTH,ComponentDrill
T3C0.0394
; #@! TA.AperFunction,Plated,PTH,ComponentDrill
T4C0.0472
; #@! TA.AperFunction,Plated,PTH,ComponentDrill
T5C0.1059
%
G90
G05
T1
X1.4803Y-4.4567
X1.4843Y-3.4252
X1.4843Y-3.7244
X1.4843Y-4.1929
X1.4921Y-3.3307
X1.5157Y-4.3661
X1.5197Y-4.5709
X1.5276Y-3.6339
X1.5276Y-3.8346
X1.5315Y-4.9803
X1.5394Y-4.0827
X1.5827Y-3.9646
X1.689Y-3.3425
X1.689Y-4.3898
X1.6929Y-3.5197
X1.6929Y-4.5315
X1.7008Y-3.6299
X1.7047Y-3.811
X1.7165Y-4.185
X1.815Y-4.2323
X1.815Y-4.2756
X1.8228Y-4.0748
X1.878Y-3.8661
X1.9245Y-5.4244
X1.9252Y-5.3031
X1.9291Y-1.4449
X1.937Y-3.7283
X1.9409Y-1.6417
X1.9409Y-4.6378
X1.9449Y-1.8504
X1.9449Y-2.0787
X1.9449Y-2.2795
X1.9449Y-2.5197
X1.9449Y-2.7402
X1.9449Y-4.4291
X1.9488Y-2.9646
X1.9488Y-3.4843
X1.9528Y-3.2244
X1.9567Y-4.8819
X2.0118Y-5.4646
X2.189Y-5.4646
X2.2559Y-1.4134
X2.3386Y-5.4646
X2.378Y-1.622
X2.3963Y-5.2095
X2.4055Y-5.311
X2.4134Y-2.8661
X2.4213Y-5.4488
X2.4921Y-1.5118
X2.5276Y-2.5197
X2.5315Y-5.3346
X2.5906Y-2.8031
X2.6378Y-2.4094
X2.6389Y-5.455
X2.6898Y-3.0002
X2.7165Y-2.5039
X2.7323Y-1.9528
X2.7559Y-2.7598
X2.8937Y-2.4409
X2.934Y-2.3168
X2.937Y-1.5512
X2.9409Y-2.8189
X2.9449Y-2.5551
X2.9449Y-3.8898
X2.9488Y-1.7362
X2.9488Y-2.9488
X2.9724Y-4.6496
X2.9764Y-5.1654
X2.9764Y-5.2992
X2.9803Y-5.4291
X3.0157Y-4.748
X3.0157Y-4.878
X3.1005Y-5.179
X3.1024Y-1.8504
X3.1024Y-2.7756
X3.1024Y-3.0866
X3.1024Y-5.4882
X3.1063Y-2.3425
X3.1063Y-3.189
X3.1081Y-4.7559
X3.11Y-4.8743
X3.1102Y-3.8504
X3.1142Y-2.122
X3.1142Y-3.6535
X3.1142Y-4.5866
X3.1181Y-1.5039
X3.1181Y-2.6535
X3.1181Y-2.9055
X3.1181Y-5.3543
X3.1215Y-4.4169
X3.122Y-1.6496
X3.122Y-3.3543
X3.122Y-4.1063
X3.122Y-4.2441
X3.2165Y-2.4409
X3.2244Y-2.9724
X3.2362Y-5.0197
X3.2913Y-5.2323
X3.3228Y-3.5039
X3.3307Y-1.8976
X3.3346Y-5.4331
X3.3425Y-1.4528
X3.3543Y-2.4764
X3.3543Y-2.563
X3.3543Y-3.626
X3.374Y-1.9843
X3.374Y-5.0315
X3.4016Y-5.1378
X3.4055Y-1.9291
X3.4134Y-3.5433
X3.4134Y-4.1535
X3.4213Y-4.6535
X3.4488Y-3.689
X3.4528Y-3.0315
X3.4606Y-4.0787
X3.4646Y-2.7047
X3.4685Y-2.9094
X3.4685Y-4.5827
X3.4843Y-2.4921
X3.4843Y-3.0827
X3.4882Y-4.878
X3.4961Y-5.1654
X3.5Y-2.374
X3.5039Y-1.811
X3.5079Y-5.4291
X3.5157Y-3.4291
X3.5157Y-3.9331
X3.5157Y-4.4528
X3.5157Y-4.9646
X3.5394Y-2.0236
X3.5433Y-2.315
X3.5512Y-1.7559
X3.5512Y-3.622
X3.5551Y-5.1575
X3.5591Y-1.4724
X3.5748Y-3.1457
X3.5748Y-3.3701
X3.5748Y-3.8819
X3.5748Y-4.3937
X3.5748Y-4.9055
X3.6142Y-2.2047
X3.6142Y-2.4921
X3.622Y-1.6378
X3.622Y-3.0827
X3.6299Y-2.622
X3.6299Y-5.1024
X3.6339Y-2.8268
X3.6457Y-3.2598
X3.6614Y-3.1772
X3.6614Y-3.7717
X3.6614Y-4.2677
X3.6614Y-4.7795
X3.6654Y-3.5157
X3.6654Y-3.7008
X3.685Y-2.3071
X3.6929Y-1.7874
X3.6929Y-2.3701
X3.7165Y-1.8425
X3.7165Y-3.5354
X3.7323Y-3.9094
X3.752Y-1.7953
X3.7559Y-4.0787
X3.7638Y-3.4016
X3.7638Y-4.4252
X3.7638Y-4.937
X3.7638Y-5.0236
X3.7717Y-4.5157
X3.7913Y-2.1299
X3.7913Y-3.6614
X3.7992Y-1.5787
X3.8189Y-3.1811
X3.8189Y-3.4488
X3.8189Y-4.8346
X3.8189Y-4.9843
X3.8228Y-4.6378
X3.8386Y-3.8465
X3.8819Y-1.626
X3.8858Y-2.4882
X3.8898Y-2.3189
X3.8976Y-2.7874
X3.9016Y-2.9252
X3.9252Y-3.3661
X3.9331Y-3.4646
X3.9449Y-2.0394
X3.9449Y-4.0866
X3.9528Y-3.7441
X3.9567Y-2.5433
X3.9606Y-2.1024
X3.9685Y-4.2874
X3.9697Y-3.8425
X3.9961Y-4.8346
X4.0079Y-2.4921
X4.0315Y-3.5118
X4.0551Y-3.8898
X4.0591Y-2.2441
X4.0669Y-1.3937
X4.1102Y-2.2835
X4.1534Y-4.0795
X4.1575Y-2.0394
X4.1575Y-2.1024
X4.1842Y-2.2872
X4.1969Y-2.9016
X4.2087Y-1.815
X4.2165Y-3.752
X4.2283Y-2.2224
X4.2441Y-4.2717
X4.2559Y-2.0709
X4.2638Y-3.8898
X4.2677Y-1.9134
X4.2677Y-1.9843
X4.2992Y-3.3858
X4.2992Y-4.7323
X4.3031Y-2.5118
X4.3139Y-4.0746
X4.3228Y-4.2638
X4.3346Y-3.4803
X4.3386Y-2.8898
X4.3504Y-1.815
X4.3504Y-3.9134
X4.3701Y-2.6378
X4.3976Y-3.3976
X4.4213Y-3.3346
X4.4413Y-4.7438
X4.4528Y-4.2677
X4.4567Y-4.4882
X4.4606Y-3.9173
X4.4606Y-4.0748
X4.4764Y-1.5315
X4.4803Y-1.811
X4.5236Y-2.2559
T2
X4.2871Y-1.3789
X4.2871Y-1.7195
X4.4513Y-1.3789
X4.4513Y-1.7195
T3
X1.6011Y-4.9879
X1.7011Y-4.9879
X1.8011Y-4.9879
X2.1106Y-1.9917
X2.1106Y-2.0917
X2.1106Y-2.1917
X2.1106Y-2.2917
X2.1106Y-2.3917
X2.1106Y-2.4917
X2.1106Y-2.5917
X2.1106Y-2.6917
X2.1106Y-2.7917
X2.1106Y-2.8917
X2.1106Y-2.9917
X2.1106Y-3.0917
X2.1106Y-3.1917
X2.1106Y-3.2917
X2.1106Y-3.3917
X2.1106Y-3.4917
X2.1106Y-3.5917
X2.1106Y-3.6917
X2.1106Y-3.7917
X2.1106Y-3.8917
X2.1106Y-3.9917
X2.1106Y-4.0917
X2.1106Y-4.1917
X2.1106Y-4.2917
X2.1106Y-4.3917
X2.1106Y-4.4917
X2.1106Y-4.5917
X2.1106Y-4.6917
X2.1106Y-4.7917
X2.1106Y-4.8917
X2.2106Y-1.9917
X2.2106Y-2.0917
X2.2106Y-2.1917
X2.2106Y-2.2917
X2.2106Y-2.3917
X2.2106Y-2.4917
X2.2106Y-2.5917
X2.2106Y-2.6917
X2.2106Y-2.7917
X2.2106Y-2.8917
X2.2106Y-2.9917
X2.2106Y-3.0917
X2.2106Y-3.1917
X2.2106Y-3.2917
X2.2106Y-3.3917
X2.2106Y-3.4917
X2.2106Y-3.5917
X2.2106Y-3.6917
X2.2106Y-3.7917
X2.2106Y-3.8917
X2.2106Y-3.9917
X2.2106Y-4.0917
X2.2106Y-4.1917
X2.2106Y-4.2917
X2.2106Y-4.3917
X2.2106Y-4.4917
X2.2106Y-4.5917
X2.2106Y-4.6917
X2.2106Y-4.7917
X2.2106Y-4.8917
X4.2795Y-4.3583
X4.2795Y-4.4583
X4.2795Y-4.5583
X4.4809Y-3.5356
X4.4809Y-3.6356
X4.4809Y-3.7356
X4.4809Y-3.8356
T4
X4.3661Y-5.2835
X4.3661Y-5.4213
T5
X2.1508Y-1.6398
X2.1508Y-5.2437
T3
G00X4.0157Y-5.0101
M15
G01X4.0157Y-4.9314
M16
G05
G00X4.1732Y-4.7857
M15
G01X4.0945Y-4.7857
M16
G05
G00X4.252Y-5.0101
M15
G01X4.252Y-4.9314
M16
G05
T0
M30
