%TF.GenerationSoftware,KiCad,Pcbnew,(6.0.7)*%
%TF.CreationDate,2022-10-27T00:54:25+02:00*%
%TF.ProjectId,flipdot-brose-esp32,666c6970-646f-4742-9d62-726f73652d65,rev?*%
%TF.SameCoordinates,Original*%
%TF.FileFunction,Soldermask,Top*%
%TF.FilePolarity,Negative*%
%FSLAX46Y46*%
G04 Gerber Fmt 4.6, Leading zero omitted, Abs format (unit mm)*
G04 Created by KiCad (PCBNEW (6.0.7)) date 2022-10-27 00:54:25*
%MOMM*%
%LPD*%
G01*
G04 APERTURE LIST*
G04 Aperture macros list*
%AMRoundRect*
0 Rectangle with rounded corners*
0 $1 Rounding radius*
0 $2 $3 $4 $5 $6 $7 $8 $9 X,Y pos of 4 corners*
0 Add a 4 corners polygon primitive as box body*
4,1,4,$2,$3,$4,$5,$6,$7,$8,$9,$2,$3,0*
0 Add four circle primitives for the rounded corners*
1,1,$1+$1,$2,$3*
1,1,$1+$1,$4,$5*
1,1,$1+$1,$6,$7*
1,1,$1+$1,$8,$9*
0 Add four rect primitives between the rounded corners*
20,1,$1+$1,$2,$3,$4,$5,0*
20,1,$1+$1,$4,$5,$6,$7,0*
20,1,$1+$1,$6,$7,$8,$9,0*
20,1,$1+$1,$8,$9,$2,$3,0*%
G04 Aperture macros list end*
%ADD10C,0.010000*%
%ADD11R,2.500000X1.800000*%
%ADD12RoundRect,0.250000X-1.550000X0.650000X-1.550000X-0.650000X1.550000X-0.650000X1.550000X0.650000X0*%
%ADD13O,3.600000X1.800000*%
%ADD14R,3.500000X3.500000*%
%ADD15RoundRect,0.750000X0.750000X1.000000X-0.750000X1.000000X-0.750000X-1.000000X0.750000X-1.000000X0*%
%ADD16RoundRect,0.875000X0.875000X0.875000X-0.875000X0.875000X-0.875000X-0.875000X0.875000X-0.875000X0*%
%ADD17RoundRect,0.225000X-0.225000X-0.250000X0.225000X-0.250000X0.225000X0.250000X-0.225000X0.250000X0*%
%ADD18RoundRect,0.225000X-0.250000X0.225000X-0.250000X-0.225000X0.250000X-0.225000X0.250000X0.225000X0*%
%ADD19RoundRect,0.150000X-0.150000X0.675000X-0.150000X-0.675000X0.150000X-0.675000X0.150000X0.675000X0*%
%ADD20R,1.500000X2.300000*%
%ADD21O,1.500000X2.300000*%
%ADD22RoundRect,0.200000X0.200000X0.275000X-0.200000X0.275000X-0.200000X-0.275000X0.200000X-0.275000X0*%
%ADD23RoundRect,0.200000X-0.275000X0.200000X-0.275000X-0.200000X0.275000X-0.200000X0.275000X0.200000X0*%
%ADD24RoundRect,0.250000X1.412500X0.550000X-1.412500X0.550000X-1.412500X-0.550000X1.412500X-0.550000X0*%
%ADD25RoundRect,0.250000X-0.250000X-0.475000X0.250000X-0.475000X0.250000X0.475000X-0.250000X0.475000X0*%
%ADD26RoundRect,0.250000X0.250000X0.475000X-0.250000X0.475000X-0.250000X-0.475000X0.250000X-0.475000X0*%
%ADD27RoundRect,0.100000X-0.637500X-0.100000X0.637500X-0.100000X0.637500X0.100000X-0.637500X0.100000X0*%
%ADD28RoundRect,0.150000X0.725000X0.150000X-0.725000X0.150000X-0.725000X-0.150000X0.725000X-0.150000X0*%
%ADD29RoundRect,0.150000X0.875000X0.150000X-0.875000X0.150000X-0.875000X-0.150000X0.875000X-0.150000X0*%
%ADD30RoundRect,0.150000X0.825000X0.150000X-0.825000X0.150000X-0.825000X-0.150000X0.825000X-0.150000X0*%
%ADD31R,2.300000X1.500000*%
%ADD32O,2.300000X1.500000*%
%ADD33R,0.900000X2.000000*%
%ADD34R,2.000000X0.900000*%
%ADD35R,5.000000X5.000000*%
%ADD36R,1.550000X1.300000*%
%ADD37RoundRect,0.200000X-0.200000X-0.275000X0.200000X-0.275000X0.200000X0.275000X-0.200000X0.275000X0*%
%ADD38RoundRect,0.200000X0.275000X-0.200000X0.275000X0.200000X-0.275000X0.200000X-0.275000X-0.200000X0*%
%ADD39R,0.400000X0.650000*%
%ADD40C,0.600000*%
%ADD41R,1.700000X1.700000*%
%ADD42O,1.700000X1.700000*%
%ADD43RoundRect,0.250000X-0.600000X-0.600000X0.600000X-0.600000X0.600000X0.600000X-0.600000X0.600000X0*%
%ADD44C,1.700000*%
%ADD45C,8.000000*%
%ADD46C,2.700000*%
%ADD47R,1.200000X0.900000*%
%ADD48RoundRect,0.218750X-0.256250X0.218750X-0.256250X-0.218750X0.256250X-0.218750X0.256250X0.218750X0*%
%ADD49RoundRect,0.218750X-0.218750X-0.256250X0.218750X-0.256250X0.218750X0.256250X-0.218750X0.256250X0*%
%ADD50RoundRect,0.150000X0.587500X0.150000X-0.587500X0.150000X-0.587500X-0.150000X0.587500X-0.150000X0*%
%ADD51RoundRect,0.225000X0.225000X0.250000X-0.225000X0.250000X-0.225000X-0.250000X0.225000X-0.250000X0*%
%ADD52RoundRect,0.250000X-0.475000X0.250000X-0.475000X-0.250000X0.475000X-0.250000X0.475000X0.250000X0*%
%ADD53RoundRect,0.250000X0.475000X-0.250000X0.475000X0.250000X-0.475000X0.250000X-0.475000X-0.250000X0*%
%ADD54RoundRect,0.250000X-0.550000X1.412500X-0.550000X-1.412500X0.550000X-1.412500X0.550000X1.412500X0*%
G04 APERTURE END LIST*
%TO.C,J6*%
G36*
X109468500Y-43176000D02*
G01*
X109494500Y-43178000D01*
X109520500Y-43181000D01*
X109546500Y-43186000D01*
X109571500Y-43192000D01*
X109597500Y-43199000D01*
X109621500Y-43208000D01*
X109645500Y-43218000D01*
X109669500Y-43229000D01*
X109692500Y-43242000D01*
X109736500Y-43270000D01*
X109757500Y-43286000D01*
X109777500Y-43303000D01*
X109796500Y-43321000D01*
X109814500Y-43340000D01*
X109831500Y-43360000D01*
X109847500Y-43381000D01*
X109875500Y-43425000D01*
X109888500Y-43448000D01*
X109899500Y-43472000D01*
X109909500Y-43496000D01*
X109918500Y-43520000D01*
X109925500Y-43546000D01*
X109931500Y-43571000D01*
X109936500Y-43597000D01*
X109939500Y-43623000D01*
X109941500Y-43649000D01*
X109942500Y-43675000D01*
X109941500Y-43701000D01*
X109939500Y-43727000D01*
X109936500Y-43753000D01*
X109931500Y-43779000D01*
X109925500Y-43804000D01*
X109918500Y-43830000D01*
X109909500Y-43854000D01*
X109899500Y-43878000D01*
X109888500Y-43902000D01*
X109875500Y-43925000D01*
X109847500Y-43969000D01*
X109831500Y-43990000D01*
X109814500Y-44010000D01*
X109796500Y-44029000D01*
X109777500Y-44047000D01*
X109757500Y-44064000D01*
X109736500Y-44080000D01*
X109692500Y-44108000D01*
X109669500Y-44121000D01*
X109645500Y-44132000D01*
X109621500Y-44142000D01*
X109597500Y-44151000D01*
X109571500Y-44158000D01*
X109546500Y-44164000D01*
X109520500Y-44169000D01*
X109494500Y-44172000D01*
X109468500Y-44174000D01*
X109442500Y-44175000D01*
X108342500Y-44175000D01*
X108316500Y-44174000D01*
X108290500Y-44172000D01*
X108264500Y-44169000D01*
X108238500Y-44164000D01*
X108213500Y-44158000D01*
X108187500Y-44151000D01*
X108163500Y-44142000D01*
X108139500Y-44132000D01*
X108115500Y-44121000D01*
X108092500Y-44108000D01*
X108048500Y-44080000D01*
X108027500Y-44064000D01*
X108007500Y-44047000D01*
X107988500Y-44029000D01*
X107970500Y-44010000D01*
X107953500Y-43990000D01*
X107937500Y-43969000D01*
X107909500Y-43925000D01*
X107896500Y-43902000D01*
X107885500Y-43878000D01*
X107875500Y-43854000D01*
X107866500Y-43830000D01*
X107859500Y-43804000D01*
X107853500Y-43779000D01*
X107848500Y-43753000D01*
X107845500Y-43727000D01*
X107843500Y-43701000D01*
X107842500Y-43675000D01*
X107843500Y-43649000D01*
X107845500Y-43623000D01*
X107848500Y-43597000D01*
X107853500Y-43571000D01*
X107859500Y-43546000D01*
X107866500Y-43520000D01*
X107875500Y-43496000D01*
X107885500Y-43472000D01*
X107896500Y-43448000D01*
X107909500Y-43425000D01*
X107937500Y-43381000D01*
X107953500Y-43360000D01*
X107970500Y-43340000D01*
X107988500Y-43321000D01*
X108007500Y-43303000D01*
X108027500Y-43286000D01*
X108048500Y-43270000D01*
X108092500Y-43242000D01*
X108115500Y-43229000D01*
X108139500Y-43218000D01*
X108163500Y-43208000D01*
X108187500Y-43199000D01*
X108213500Y-43192000D01*
X108238500Y-43186000D01*
X108264500Y-43181000D01*
X108290500Y-43178000D01*
X108316500Y-43176000D01*
X108342500Y-43175000D01*
X109442500Y-43175000D01*
X109468500Y-43176000D01*
G37*
D10*
X109468500Y-43176000D02*
X109494500Y-43178000D01*
X109520500Y-43181000D01*
X109546500Y-43186000D01*
X109571500Y-43192000D01*
X109597500Y-43199000D01*
X109621500Y-43208000D01*
X109645500Y-43218000D01*
X109669500Y-43229000D01*
X109692500Y-43242000D01*
X109736500Y-43270000D01*
X109757500Y-43286000D01*
X109777500Y-43303000D01*
X109796500Y-43321000D01*
X109814500Y-43340000D01*
X109831500Y-43360000D01*
X109847500Y-43381000D01*
X109875500Y-43425000D01*
X109888500Y-43448000D01*
X109899500Y-43472000D01*
X109909500Y-43496000D01*
X109918500Y-43520000D01*
X109925500Y-43546000D01*
X109931500Y-43571000D01*
X109936500Y-43597000D01*
X109939500Y-43623000D01*
X109941500Y-43649000D01*
X109942500Y-43675000D01*
X109941500Y-43701000D01*
X109939500Y-43727000D01*
X109936500Y-43753000D01*
X109931500Y-43779000D01*
X109925500Y-43804000D01*
X109918500Y-43830000D01*
X109909500Y-43854000D01*
X109899500Y-43878000D01*
X109888500Y-43902000D01*
X109875500Y-43925000D01*
X109847500Y-43969000D01*
X109831500Y-43990000D01*
X109814500Y-44010000D01*
X109796500Y-44029000D01*
X109777500Y-44047000D01*
X109757500Y-44064000D01*
X109736500Y-44080000D01*
X109692500Y-44108000D01*
X109669500Y-44121000D01*
X109645500Y-44132000D01*
X109621500Y-44142000D01*
X109597500Y-44151000D01*
X109571500Y-44158000D01*
X109546500Y-44164000D01*
X109520500Y-44169000D01*
X109494500Y-44172000D01*
X109468500Y-44174000D01*
X109442500Y-44175000D01*
X108342500Y-44175000D01*
X108316500Y-44174000D01*
X108290500Y-44172000D01*
X108264500Y-44169000D01*
X108238500Y-44164000D01*
X108213500Y-44158000D01*
X108187500Y-44151000D01*
X108163500Y-44142000D01*
X108139500Y-44132000D01*
X108115500Y-44121000D01*
X108092500Y-44108000D01*
X108048500Y-44080000D01*
X108027500Y-44064000D01*
X108007500Y-44047000D01*
X107988500Y-44029000D01*
X107970500Y-44010000D01*
X107953500Y-43990000D01*
X107937500Y-43969000D01*
X107909500Y-43925000D01*
X107896500Y-43902000D01*
X107885500Y-43878000D01*
X107875500Y-43854000D01*
X107866500Y-43830000D01*
X107859500Y-43804000D01*
X107853500Y-43779000D01*
X107848500Y-43753000D01*
X107845500Y-43727000D01*
X107843500Y-43701000D01*
X107842500Y-43675000D01*
X107843500Y-43649000D01*
X107845500Y-43623000D01*
X107848500Y-43597000D01*
X107853500Y-43571000D01*
X107859500Y-43546000D01*
X107866500Y-43520000D01*
X107875500Y-43496000D01*
X107885500Y-43472000D01*
X107896500Y-43448000D01*
X107909500Y-43425000D01*
X107937500Y-43381000D01*
X107953500Y-43360000D01*
X107970500Y-43340000D01*
X107988500Y-43321000D01*
X108007500Y-43303000D01*
X108027500Y-43286000D01*
X108048500Y-43270000D01*
X108092500Y-43242000D01*
X108115500Y-43229000D01*
X108139500Y-43218000D01*
X108163500Y-43208000D01*
X108187500Y-43199000D01*
X108213500Y-43192000D01*
X108238500Y-43186000D01*
X108264500Y-43181000D01*
X108290500Y-43178000D01*
X108316500Y-43176000D01*
X108342500Y-43175000D01*
X109442500Y-43175000D01*
X109468500Y-43176000D01*
G36*
X109468500Y-34526000D02*
G01*
X109494500Y-34528000D01*
X109520500Y-34531000D01*
X109546500Y-34536000D01*
X109571500Y-34542000D01*
X109597500Y-34549000D01*
X109621500Y-34558000D01*
X109645500Y-34568000D01*
X109669500Y-34579000D01*
X109692500Y-34592000D01*
X109736500Y-34620000D01*
X109757500Y-34636000D01*
X109777500Y-34653000D01*
X109796500Y-34671000D01*
X109814500Y-34690000D01*
X109831500Y-34710000D01*
X109847500Y-34731000D01*
X109875500Y-34775000D01*
X109888500Y-34798000D01*
X109899500Y-34822000D01*
X109909500Y-34846000D01*
X109918500Y-34870000D01*
X109925500Y-34896000D01*
X109931500Y-34921000D01*
X109936500Y-34947000D01*
X109939500Y-34973000D01*
X109941500Y-34999000D01*
X109942500Y-35025000D01*
X109941500Y-35055000D01*
X109938500Y-35082000D01*
X109934500Y-35108000D01*
X109929500Y-35134000D01*
X109915500Y-35184000D01*
X109905500Y-35209000D01*
X109895500Y-35233000D01*
X109883500Y-35257000D01*
X109870500Y-35280000D01*
X109856500Y-35302000D01*
X109840500Y-35324000D01*
X109824500Y-35345000D01*
X109788500Y-35383000D01*
X109768500Y-35401000D01*
X109748500Y-35418000D01*
X109727500Y-35434000D01*
X109705500Y-35448000D01*
X109682500Y-35462000D01*
X109658500Y-35474000D01*
X109634500Y-35485000D01*
X109610500Y-35495000D01*
X109585500Y-35503000D01*
X109559500Y-35510000D01*
X109533500Y-35516000D01*
X109507500Y-35520000D01*
X109481500Y-35523000D01*
X109455500Y-35525000D01*
X108332500Y-35525000D01*
X108302500Y-35524000D01*
X108277500Y-35521000D01*
X108251500Y-35518000D01*
X108201500Y-35506000D01*
X108176500Y-35498000D01*
X108152500Y-35489000D01*
X108128500Y-35479000D01*
X108105500Y-35467000D01*
X108082500Y-35454000D01*
X108060500Y-35440000D01*
X108039500Y-35425000D01*
X108019500Y-35409000D01*
X107999500Y-35392000D01*
X107981500Y-35374000D01*
X107963500Y-35355000D01*
X107947500Y-35335000D01*
X107931500Y-35314000D01*
X107917500Y-35292000D01*
X107904500Y-35270000D01*
X107892500Y-35247000D01*
X107881500Y-35223000D01*
X107872500Y-35199000D01*
X107864500Y-35175000D01*
X107857500Y-35150000D01*
X107851500Y-35124000D01*
X107847500Y-35099000D01*
X107844500Y-35073000D01*
X107842500Y-35047000D01*
X107842500Y-35025000D01*
X107843500Y-34999000D01*
X107845500Y-34973000D01*
X107848500Y-34947000D01*
X107853500Y-34921000D01*
X107859500Y-34896000D01*
X107866500Y-34870000D01*
X107875500Y-34846000D01*
X107885500Y-34822000D01*
X107896500Y-34798000D01*
X107909500Y-34775000D01*
X107937500Y-34731000D01*
X107953500Y-34710000D01*
X107970500Y-34690000D01*
X107988500Y-34671000D01*
X108007500Y-34653000D01*
X108027500Y-34636000D01*
X108048500Y-34620000D01*
X108092500Y-34592000D01*
X108115500Y-34579000D01*
X108139500Y-34568000D01*
X108163500Y-34558000D01*
X108187500Y-34549000D01*
X108213500Y-34542000D01*
X108238500Y-34536000D01*
X108264500Y-34531000D01*
X108290500Y-34528000D01*
X108316500Y-34526000D01*
X108342500Y-34525000D01*
X109442500Y-34525000D01*
X109468500Y-34526000D01*
G37*
X109468500Y-34526000D02*
X109494500Y-34528000D01*
X109520500Y-34531000D01*
X109546500Y-34536000D01*
X109571500Y-34542000D01*
X109597500Y-34549000D01*
X109621500Y-34558000D01*
X109645500Y-34568000D01*
X109669500Y-34579000D01*
X109692500Y-34592000D01*
X109736500Y-34620000D01*
X109757500Y-34636000D01*
X109777500Y-34653000D01*
X109796500Y-34671000D01*
X109814500Y-34690000D01*
X109831500Y-34710000D01*
X109847500Y-34731000D01*
X109875500Y-34775000D01*
X109888500Y-34798000D01*
X109899500Y-34822000D01*
X109909500Y-34846000D01*
X109918500Y-34870000D01*
X109925500Y-34896000D01*
X109931500Y-34921000D01*
X109936500Y-34947000D01*
X109939500Y-34973000D01*
X109941500Y-34999000D01*
X109942500Y-35025000D01*
X109941500Y-35055000D01*
X109938500Y-35082000D01*
X109934500Y-35108000D01*
X109929500Y-35134000D01*
X109915500Y-35184000D01*
X109905500Y-35209000D01*
X109895500Y-35233000D01*
X109883500Y-35257000D01*
X109870500Y-35280000D01*
X109856500Y-35302000D01*
X109840500Y-35324000D01*
X109824500Y-35345000D01*
X109788500Y-35383000D01*
X109768500Y-35401000D01*
X109748500Y-35418000D01*
X109727500Y-35434000D01*
X109705500Y-35448000D01*
X109682500Y-35462000D01*
X109658500Y-35474000D01*
X109634500Y-35485000D01*
X109610500Y-35495000D01*
X109585500Y-35503000D01*
X109559500Y-35510000D01*
X109533500Y-35516000D01*
X109507500Y-35520000D01*
X109481500Y-35523000D01*
X109455500Y-35525000D01*
X108332500Y-35525000D01*
X108302500Y-35524000D01*
X108277500Y-35521000D01*
X108251500Y-35518000D01*
X108201500Y-35506000D01*
X108176500Y-35498000D01*
X108152500Y-35489000D01*
X108128500Y-35479000D01*
X108105500Y-35467000D01*
X108082500Y-35454000D01*
X108060500Y-35440000D01*
X108039500Y-35425000D01*
X108019500Y-35409000D01*
X107999500Y-35392000D01*
X107981500Y-35374000D01*
X107963500Y-35355000D01*
X107947500Y-35335000D01*
X107931500Y-35314000D01*
X107917500Y-35292000D01*
X107904500Y-35270000D01*
X107892500Y-35247000D01*
X107881500Y-35223000D01*
X107872500Y-35199000D01*
X107864500Y-35175000D01*
X107857500Y-35150000D01*
X107851500Y-35124000D01*
X107847500Y-35099000D01*
X107844500Y-35073000D01*
X107842500Y-35047000D01*
X107842500Y-35025000D01*
X107843500Y-34999000D01*
X107845500Y-34973000D01*
X107848500Y-34947000D01*
X107853500Y-34921000D01*
X107859500Y-34896000D01*
X107866500Y-34870000D01*
X107875500Y-34846000D01*
X107885500Y-34822000D01*
X107896500Y-34798000D01*
X107909500Y-34775000D01*
X107937500Y-34731000D01*
X107953500Y-34710000D01*
X107970500Y-34690000D01*
X107988500Y-34671000D01*
X108007500Y-34653000D01*
X108027500Y-34636000D01*
X108048500Y-34620000D01*
X108092500Y-34592000D01*
X108115500Y-34579000D01*
X108139500Y-34568000D01*
X108163500Y-34558000D01*
X108187500Y-34549000D01*
X108213500Y-34542000D01*
X108238500Y-34536000D01*
X108264500Y-34531000D01*
X108290500Y-34528000D01*
X108316500Y-34526000D01*
X108342500Y-34525000D01*
X109442500Y-34525000D01*
X109468500Y-34526000D01*
G36*
X113488500Y-43176000D02*
G01*
X113514500Y-43178000D01*
X113540500Y-43181000D01*
X113566500Y-43186000D01*
X113591500Y-43192000D01*
X113617500Y-43199000D01*
X113641500Y-43208000D01*
X113665500Y-43218000D01*
X113689500Y-43229000D01*
X113712500Y-43242000D01*
X113756500Y-43270000D01*
X113777500Y-43286000D01*
X113797500Y-43303000D01*
X113816500Y-43321000D01*
X113834500Y-43340000D01*
X113851500Y-43360000D01*
X113867500Y-43381000D01*
X113895500Y-43425000D01*
X113908500Y-43448000D01*
X113919500Y-43472000D01*
X113929500Y-43496000D01*
X113938500Y-43520000D01*
X113945500Y-43546000D01*
X113951500Y-43571000D01*
X113956500Y-43597000D01*
X113959500Y-43623000D01*
X113961500Y-43649000D01*
X113962500Y-43675000D01*
X113961500Y-43701000D01*
X113959500Y-43727000D01*
X113956500Y-43753000D01*
X113951500Y-43779000D01*
X113945500Y-43804000D01*
X113938500Y-43830000D01*
X113929500Y-43854000D01*
X113919500Y-43878000D01*
X113908500Y-43902000D01*
X113895500Y-43925000D01*
X113867500Y-43969000D01*
X113851500Y-43990000D01*
X113834500Y-44010000D01*
X113816500Y-44029000D01*
X113797500Y-44047000D01*
X113777500Y-44064000D01*
X113756500Y-44080000D01*
X113712500Y-44108000D01*
X113689500Y-44121000D01*
X113665500Y-44132000D01*
X113641500Y-44142000D01*
X113617500Y-44151000D01*
X113591500Y-44158000D01*
X113566500Y-44164000D01*
X113540500Y-44169000D01*
X113514500Y-44172000D01*
X113488500Y-44174000D01*
X113462500Y-44175000D01*
X112662500Y-44175000D01*
X112636500Y-44174000D01*
X112610500Y-44172000D01*
X112584500Y-44169000D01*
X112558500Y-44164000D01*
X112533500Y-44158000D01*
X112507500Y-44151000D01*
X112483500Y-44142000D01*
X112459500Y-44132000D01*
X112435500Y-44121000D01*
X112412500Y-44108000D01*
X112368500Y-44080000D01*
X112347500Y-44064000D01*
X112327500Y-44047000D01*
X112308500Y-44029000D01*
X112290500Y-44010000D01*
X112273500Y-43990000D01*
X112257500Y-43969000D01*
X112229500Y-43925000D01*
X112216500Y-43902000D01*
X112205500Y-43878000D01*
X112195500Y-43854000D01*
X112186500Y-43830000D01*
X112179500Y-43804000D01*
X112173500Y-43779000D01*
X112168500Y-43753000D01*
X112165500Y-43727000D01*
X112163500Y-43701000D01*
X112162500Y-43675000D01*
X112163500Y-43649000D01*
X112165500Y-43623000D01*
X112168500Y-43597000D01*
X112173500Y-43571000D01*
X112179500Y-43546000D01*
X112186500Y-43520000D01*
X112195500Y-43496000D01*
X112205500Y-43472000D01*
X112216500Y-43448000D01*
X112229500Y-43425000D01*
X112257500Y-43381000D01*
X112273500Y-43360000D01*
X112290500Y-43340000D01*
X112308500Y-43321000D01*
X112327500Y-43303000D01*
X112347500Y-43286000D01*
X112368500Y-43270000D01*
X112412500Y-43242000D01*
X112435500Y-43229000D01*
X112459500Y-43218000D01*
X112483500Y-43208000D01*
X112507500Y-43199000D01*
X112533500Y-43192000D01*
X112558500Y-43186000D01*
X112584500Y-43181000D01*
X112610500Y-43178000D01*
X112636500Y-43176000D01*
X112662500Y-43175000D01*
X113462500Y-43175000D01*
X113488500Y-43176000D01*
G37*
X113488500Y-43176000D02*
X113514500Y-43178000D01*
X113540500Y-43181000D01*
X113566500Y-43186000D01*
X113591500Y-43192000D01*
X113617500Y-43199000D01*
X113641500Y-43208000D01*
X113665500Y-43218000D01*
X113689500Y-43229000D01*
X113712500Y-43242000D01*
X113756500Y-43270000D01*
X113777500Y-43286000D01*
X113797500Y-43303000D01*
X113816500Y-43321000D01*
X113834500Y-43340000D01*
X113851500Y-43360000D01*
X113867500Y-43381000D01*
X113895500Y-43425000D01*
X113908500Y-43448000D01*
X113919500Y-43472000D01*
X113929500Y-43496000D01*
X113938500Y-43520000D01*
X113945500Y-43546000D01*
X113951500Y-43571000D01*
X113956500Y-43597000D01*
X113959500Y-43623000D01*
X113961500Y-43649000D01*
X113962500Y-43675000D01*
X113961500Y-43701000D01*
X113959500Y-43727000D01*
X113956500Y-43753000D01*
X113951500Y-43779000D01*
X113945500Y-43804000D01*
X113938500Y-43830000D01*
X113929500Y-43854000D01*
X113919500Y-43878000D01*
X113908500Y-43902000D01*
X113895500Y-43925000D01*
X113867500Y-43969000D01*
X113851500Y-43990000D01*
X113834500Y-44010000D01*
X113816500Y-44029000D01*
X113797500Y-44047000D01*
X113777500Y-44064000D01*
X113756500Y-44080000D01*
X113712500Y-44108000D01*
X113689500Y-44121000D01*
X113665500Y-44132000D01*
X113641500Y-44142000D01*
X113617500Y-44151000D01*
X113591500Y-44158000D01*
X113566500Y-44164000D01*
X113540500Y-44169000D01*
X113514500Y-44172000D01*
X113488500Y-44174000D01*
X113462500Y-44175000D01*
X112662500Y-44175000D01*
X112636500Y-44174000D01*
X112610500Y-44172000D01*
X112584500Y-44169000D01*
X112558500Y-44164000D01*
X112533500Y-44158000D01*
X112507500Y-44151000D01*
X112483500Y-44142000D01*
X112459500Y-44132000D01*
X112435500Y-44121000D01*
X112412500Y-44108000D01*
X112368500Y-44080000D01*
X112347500Y-44064000D01*
X112327500Y-44047000D01*
X112308500Y-44029000D01*
X112290500Y-44010000D01*
X112273500Y-43990000D01*
X112257500Y-43969000D01*
X112229500Y-43925000D01*
X112216500Y-43902000D01*
X112205500Y-43878000D01*
X112195500Y-43854000D01*
X112186500Y-43830000D01*
X112179500Y-43804000D01*
X112173500Y-43779000D01*
X112168500Y-43753000D01*
X112165500Y-43727000D01*
X112163500Y-43701000D01*
X112162500Y-43675000D01*
X112163500Y-43649000D01*
X112165500Y-43623000D01*
X112168500Y-43597000D01*
X112173500Y-43571000D01*
X112179500Y-43546000D01*
X112186500Y-43520000D01*
X112195500Y-43496000D01*
X112205500Y-43472000D01*
X112216500Y-43448000D01*
X112229500Y-43425000D01*
X112257500Y-43381000D01*
X112273500Y-43360000D01*
X112290500Y-43340000D01*
X112308500Y-43321000D01*
X112327500Y-43303000D01*
X112347500Y-43286000D01*
X112368500Y-43270000D01*
X112412500Y-43242000D01*
X112435500Y-43229000D01*
X112459500Y-43218000D01*
X112483500Y-43208000D01*
X112507500Y-43199000D01*
X112533500Y-43192000D01*
X112558500Y-43186000D01*
X112584500Y-43181000D01*
X112610500Y-43178000D01*
X112636500Y-43176000D01*
X112662500Y-43175000D01*
X113462500Y-43175000D01*
X113488500Y-43176000D01*
G36*
X113488500Y-34526000D02*
G01*
X113514500Y-34528000D01*
X113540500Y-34531000D01*
X113566500Y-34536000D01*
X113591500Y-34542000D01*
X113617500Y-34549000D01*
X113641500Y-34558000D01*
X113665500Y-34568000D01*
X113689500Y-34579000D01*
X113712500Y-34592000D01*
X113756500Y-34620000D01*
X113777500Y-34636000D01*
X113797500Y-34653000D01*
X113816500Y-34671000D01*
X113834500Y-34690000D01*
X113851500Y-34710000D01*
X113867500Y-34731000D01*
X113895500Y-34775000D01*
X113908500Y-34798000D01*
X113919500Y-34822000D01*
X113929500Y-34846000D01*
X113938500Y-34870000D01*
X113945500Y-34896000D01*
X113951500Y-34921000D01*
X113956500Y-34947000D01*
X113959500Y-34973000D01*
X113961500Y-34999000D01*
X113962500Y-35025000D01*
X113961500Y-35051000D01*
X113959500Y-35077000D01*
X113956500Y-35103000D01*
X113951500Y-35129000D01*
X113945500Y-35154000D01*
X113938500Y-35180000D01*
X113929500Y-35204000D01*
X113919500Y-35228000D01*
X113908500Y-35252000D01*
X113895500Y-35275000D01*
X113867500Y-35319000D01*
X113851500Y-35340000D01*
X113834500Y-35360000D01*
X113816500Y-35379000D01*
X113797500Y-35397000D01*
X113777500Y-35414000D01*
X113756500Y-35430000D01*
X113712500Y-35458000D01*
X113689500Y-35471000D01*
X113665500Y-35482000D01*
X113641500Y-35492000D01*
X113617500Y-35501000D01*
X113591500Y-35508000D01*
X113566500Y-35514000D01*
X113540500Y-35519000D01*
X113514500Y-35522000D01*
X113488500Y-35524000D01*
X113462500Y-35525000D01*
X112662500Y-35525000D01*
X112636500Y-35524000D01*
X112610500Y-35522000D01*
X112584500Y-35519000D01*
X112558500Y-35514000D01*
X112533500Y-35508000D01*
X112507500Y-35501000D01*
X112483500Y-35492000D01*
X112459500Y-35482000D01*
X112435500Y-35471000D01*
X112412500Y-35458000D01*
X112368500Y-35430000D01*
X112347500Y-35414000D01*
X112327500Y-35397000D01*
X112308500Y-35379000D01*
X112290500Y-35360000D01*
X112273500Y-35340000D01*
X112257500Y-35319000D01*
X112229500Y-35275000D01*
X112216500Y-35252000D01*
X112205500Y-35228000D01*
X112195500Y-35204000D01*
X112186500Y-35180000D01*
X112179500Y-35154000D01*
X112173500Y-35129000D01*
X112168500Y-35103000D01*
X112165500Y-35077000D01*
X112163500Y-35051000D01*
X112162500Y-35025000D01*
X112163500Y-34999000D01*
X112165500Y-34973000D01*
X112168500Y-34947000D01*
X112173500Y-34921000D01*
X112179500Y-34896000D01*
X112186500Y-34870000D01*
X112195500Y-34846000D01*
X112205500Y-34822000D01*
X112216500Y-34798000D01*
X112229500Y-34775000D01*
X112257500Y-34731000D01*
X112273500Y-34710000D01*
X112290500Y-34690000D01*
X112308500Y-34671000D01*
X112327500Y-34653000D01*
X112347500Y-34636000D01*
X112368500Y-34620000D01*
X112412500Y-34592000D01*
X112435500Y-34579000D01*
X112459500Y-34568000D01*
X112483500Y-34558000D01*
X112507500Y-34549000D01*
X112533500Y-34542000D01*
X112558500Y-34536000D01*
X112584500Y-34531000D01*
X112610500Y-34528000D01*
X112636500Y-34526000D01*
X112662500Y-34525000D01*
X113462500Y-34525000D01*
X113488500Y-34526000D01*
G37*
X113488500Y-34526000D02*
X113514500Y-34528000D01*
X113540500Y-34531000D01*
X113566500Y-34536000D01*
X113591500Y-34542000D01*
X113617500Y-34549000D01*
X113641500Y-34558000D01*
X113665500Y-34568000D01*
X113689500Y-34579000D01*
X113712500Y-34592000D01*
X113756500Y-34620000D01*
X113777500Y-34636000D01*
X113797500Y-34653000D01*
X113816500Y-34671000D01*
X113834500Y-34690000D01*
X113851500Y-34710000D01*
X113867500Y-34731000D01*
X113895500Y-34775000D01*
X113908500Y-34798000D01*
X113919500Y-34822000D01*
X113929500Y-34846000D01*
X113938500Y-34870000D01*
X113945500Y-34896000D01*
X113951500Y-34921000D01*
X113956500Y-34947000D01*
X113959500Y-34973000D01*
X113961500Y-34999000D01*
X113962500Y-35025000D01*
X113961500Y-35051000D01*
X113959500Y-35077000D01*
X113956500Y-35103000D01*
X113951500Y-35129000D01*
X113945500Y-35154000D01*
X113938500Y-35180000D01*
X113929500Y-35204000D01*
X113919500Y-35228000D01*
X113908500Y-35252000D01*
X113895500Y-35275000D01*
X113867500Y-35319000D01*
X113851500Y-35340000D01*
X113834500Y-35360000D01*
X113816500Y-35379000D01*
X113797500Y-35397000D01*
X113777500Y-35414000D01*
X113756500Y-35430000D01*
X113712500Y-35458000D01*
X113689500Y-35471000D01*
X113665500Y-35482000D01*
X113641500Y-35492000D01*
X113617500Y-35501000D01*
X113591500Y-35508000D01*
X113566500Y-35514000D01*
X113540500Y-35519000D01*
X113514500Y-35522000D01*
X113488500Y-35524000D01*
X113462500Y-35525000D01*
X112662500Y-35525000D01*
X112636500Y-35524000D01*
X112610500Y-35522000D01*
X112584500Y-35519000D01*
X112558500Y-35514000D01*
X112533500Y-35508000D01*
X112507500Y-35501000D01*
X112483500Y-35492000D01*
X112459500Y-35482000D01*
X112435500Y-35471000D01*
X112412500Y-35458000D01*
X112368500Y-35430000D01*
X112347500Y-35414000D01*
X112327500Y-35397000D01*
X112308500Y-35379000D01*
X112290500Y-35360000D01*
X112273500Y-35340000D01*
X112257500Y-35319000D01*
X112229500Y-35275000D01*
X112216500Y-35252000D01*
X112205500Y-35228000D01*
X112195500Y-35204000D01*
X112186500Y-35180000D01*
X112179500Y-35154000D01*
X112173500Y-35129000D01*
X112168500Y-35103000D01*
X112165500Y-35077000D01*
X112163500Y-35051000D01*
X112162500Y-35025000D01*
X112163500Y-34999000D01*
X112165500Y-34973000D01*
X112168500Y-34947000D01*
X112173500Y-34921000D01*
X112179500Y-34896000D01*
X112186500Y-34870000D01*
X112195500Y-34846000D01*
X112205500Y-34822000D01*
X112216500Y-34798000D01*
X112229500Y-34775000D01*
X112257500Y-34731000D01*
X112273500Y-34710000D01*
X112290500Y-34690000D01*
X112308500Y-34671000D01*
X112327500Y-34653000D01*
X112347500Y-34636000D01*
X112368500Y-34620000D01*
X112412500Y-34592000D01*
X112435500Y-34579000D01*
X112459500Y-34568000D01*
X112483500Y-34558000D01*
X112507500Y-34549000D01*
X112533500Y-34542000D01*
X112558500Y-34536000D01*
X112584500Y-34531000D01*
X112610500Y-34528000D01*
X112636500Y-34526000D01*
X112662500Y-34525000D01*
X113462500Y-34525000D01*
X113488500Y-34526000D01*
G36*
X108932500Y-41300000D02*
G01*
X107692500Y-41300000D01*
X107692500Y-40900000D01*
X108932500Y-40900000D01*
X108932500Y-41300000D01*
G37*
X108932500Y-41300000D02*
X107692500Y-41300000D01*
X107692500Y-40900000D01*
X108932500Y-40900000D01*
X108932500Y-41300000D01*
G36*
X108932500Y-40800000D02*
G01*
X107692500Y-40800000D01*
X107692500Y-40400000D01*
X108932500Y-40400000D01*
X108932500Y-40800000D01*
G37*
X108932500Y-40800000D02*
X107692500Y-40800000D01*
X107692500Y-40400000D01*
X108932500Y-40400000D01*
X108932500Y-40800000D01*
G36*
X108932500Y-40300000D02*
G01*
X107692500Y-40300000D01*
X107692500Y-39900000D01*
X108932500Y-39900000D01*
X108932500Y-40300000D01*
G37*
X108932500Y-40300000D02*
X107692500Y-40300000D01*
X107692500Y-39900000D01*
X108932500Y-39900000D01*
X108932500Y-40300000D01*
G36*
X108932500Y-37800000D02*
G01*
X107692500Y-37800000D01*
X107692500Y-37400000D01*
X108932500Y-37400000D01*
X108932500Y-37800000D01*
G37*
X108932500Y-37800000D02*
X107692500Y-37800000D01*
X107692500Y-37400000D01*
X108932500Y-37400000D01*
X108932500Y-37800000D01*
G36*
X108932500Y-38300000D02*
G01*
X107692500Y-38300000D01*
X107692500Y-37900000D01*
X108932500Y-37900000D01*
X108932500Y-38300000D01*
G37*
X108932500Y-38300000D02*
X107692500Y-38300000D01*
X107692500Y-37900000D01*
X108932500Y-37900000D01*
X108932500Y-38300000D01*
G36*
X108932500Y-38800000D02*
G01*
X107692500Y-38800000D01*
X107692500Y-38400000D01*
X108932500Y-38400000D01*
X108932500Y-38800000D01*
G37*
X108932500Y-38800000D02*
X107692500Y-38800000D01*
X107692500Y-38400000D01*
X108932500Y-38400000D01*
X108932500Y-38800000D01*
G36*
X108932500Y-39800000D02*
G01*
X107692500Y-39800000D01*
X107692500Y-39400000D01*
X108932500Y-39400000D01*
X108932500Y-39800000D01*
G37*
X108932500Y-39800000D02*
X107692500Y-39800000D01*
X107692500Y-39400000D01*
X108932500Y-39400000D01*
X108932500Y-39800000D01*
G36*
X108932500Y-39300000D02*
G01*
X107692500Y-39300000D01*
X107692500Y-38900000D01*
X108932500Y-38900000D01*
X108932500Y-39300000D01*
G37*
X108932500Y-39300000D02*
X107692500Y-39300000D01*
X107692500Y-38900000D01*
X108932500Y-38900000D01*
X108932500Y-39300000D01*
G36*
X108932500Y-42900000D02*
G01*
X107692500Y-42900000D01*
X107692500Y-42200000D01*
X108932500Y-42200000D01*
X108932500Y-42900000D01*
G37*
X108932500Y-42900000D02*
X107692500Y-42900000D01*
X107692500Y-42200000D01*
X108932500Y-42200000D01*
X108932500Y-42900000D01*
G36*
X108932500Y-36500000D02*
G01*
X107692500Y-36500000D01*
X107692500Y-35800000D01*
X108932500Y-35800000D01*
X108932500Y-36500000D01*
G37*
X108932500Y-36500000D02*
X107692500Y-36500000D01*
X107692500Y-35800000D01*
X108932500Y-35800000D01*
X108932500Y-36500000D01*
G36*
X108932500Y-42100000D02*
G01*
X107692500Y-42100000D01*
X107692500Y-41400000D01*
X108932500Y-41400000D01*
X108932500Y-42100000D01*
G37*
X108932500Y-42100000D02*
X107692500Y-42100000D01*
X107692500Y-41400000D01*
X108932500Y-41400000D01*
X108932500Y-42100000D01*
G36*
X108932500Y-37300000D02*
G01*
X107692500Y-37300000D01*
X107692500Y-36600000D01*
X108932500Y-36600000D01*
X108932500Y-37300000D01*
G37*
X108932500Y-37300000D02*
X107692500Y-37300000D01*
X107692500Y-36600000D01*
X108932500Y-36600000D01*
X108932500Y-37300000D01*
%TD*%
D11*
%TO.C,D1*%
X100400000Y-132700000D03*
X104400000Y-132700000D03*
%TD*%
D12*
%TO.C,J3*%
X110900000Y-134200000D03*
D13*
X110900000Y-137700000D03*
%TD*%
D14*
%TO.C,J2*%
X102000000Y-126257500D03*
D15*
X108000000Y-126257500D03*
D16*
X105000000Y-121557500D03*
%TD*%
D17*
%TO.C,C21*%
X101925000Y-87900000D03*
X103475000Y-87900000D03*
%TD*%
%TO.C,C31*%
X90250000Y-108400000D03*
X91800000Y-108400000D03*
%TD*%
%TO.C,C30*%
X89025000Y-41400000D03*
X90575000Y-41400000D03*
%TD*%
%TO.C,C29*%
X90050000Y-95300000D03*
X91600000Y-95300000D03*
%TD*%
D18*
%TO.C,C28*%
X91300000Y-80825000D03*
X91300000Y-82375000D03*
%TD*%
D17*
%TO.C,C27*%
X90225000Y-121400000D03*
X91775000Y-121400000D03*
%TD*%
%TO.C,C26*%
X88950000Y-55300000D03*
X90500000Y-55300000D03*
%TD*%
%TO.C,C25*%
X89250000Y-129200000D03*
X90800000Y-129200000D03*
%TD*%
D19*
%TO.C,U23*%
X44805000Y-107925000D03*
X43535000Y-107925000D03*
X42265000Y-107925000D03*
X40995000Y-107925000D03*
X40995000Y-102675000D03*
X42265000Y-102675000D03*
X43535000Y-102675000D03*
X44805000Y-102675000D03*
%TD*%
D20*
%TO.C,U22*%
X45747000Y-126692500D03*
D21*
X43207000Y-126692500D03*
X40667000Y-126692500D03*
%TD*%
D22*
%TO.C,R4*%
X42175000Y-99500000D03*
X43825000Y-99500000D03*
%TD*%
D23*
%TO.C,R3*%
X39100000Y-106400000D03*
X39100000Y-104750000D03*
%TD*%
D24*
%TO.C,C24*%
X40562500Y-94600000D03*
X45637500Y-94600000D03*
%TD*%
%TO.C,C19*%
X40562500Y-87100000D03*
X45637500Y-87100000D03*
%TD*%
%TO.C,C7*%
X40600000Y-113300000D03*
X45675000Y-113300000D03*
%TD*%
D17*
%TO.C,C6*%
X40600000Y-123600000D03*
X42150000Y-123600000D03*
%TD*%
D25*
%TO.C,C5*%
X40200000Y-121700000D03*
X42100000Y-121700000D03*
%TD*%
%TO.C,C4*%
X40200000Y-119600000D03*
X42100000Y-119600000D03*
%TD*%
D26*
%TO.C,C3*%
X45650000Y-123200000D03*
X43750000Y-123200000D03*
%TD*%
%TO.C,C1*%
X45650000Y-121100000D03*
X43750000Y-121100000D03*
%TD*%
D27*
%TO.C,U9*%
X92862500Y-96725000D03*
X92862500Y-97375000D03*
X92862500Y-98025000D03*
X92862500Y-98675000D03*
X92862500Y-99325000D03*
X92862500Y-99975000D03*
X92862500Y-100625000D03*
X92862500Y-101275000D03*
X87137500Y-101275000D03*
X87137500Y-100625000D03*
X87137500Y-99975000D03*
X87137500Y-99325000D03*
X87137500Y-98675000D03*
X87137500Y-98025000D03*
X87137500Y-97375000D03*
X87137500Y-96725000D03*
%TD*%
D28*
%TO.C,U21*%
X72225000Y-74080000D03*
X72225000Y-72810000D03*
X72225000Y-71540000D03*
X72225000Y-70270000D03*
X72225000Y-69000000D03*
X72225000Y-67730000D03*
X72225000Y-66460000D03*
X72225000Y-65190000D03*
X72225000Y-63920000D03*
X81775000Y-63920000D03*
X81775000Y-65190000D03*
X81775000Y-66460000D03*
X81775000Y-67730000D03*
X81775000Y-69000000D03*
X81775000Y-70270000D03*
X81775000Y-71540000D03*
X81775000Y-72810000D03*
X81775000Y-74080000D03*
%TD*%
D29*
%TO.C,U20*%
X81650000Y-87080000D03*
X81650000Y-85810000D03*
X81650000Y-84540000D03*
X81650000Y-83270000D03*
X81650000Y-82000000D03*
X81650000Y-80730000D03*
X81650000Y-79460000D03*
X81650000Y-78190000D03*
X81650000Y-76920000D03*
X72350000Y-76920000D03*
X72350000Y-78190000D03*
X72350000Y-79460000D03*
X72350000Y-80730000D03*
X72350000Y-82000000D03*
X72350000Y-83270000D03*
X72350000Y-84540000D03*
X72350000Y-85810000D03*
X72350000Y-87080000D03*
%TD*%
D28*
%TO.C,U19*%
X81775000Y-60080000D03*
X81775000Y-58810000D03*
X81775000Y-57540000D03*
X81775000Y-56270000D03*
X81775000Y-55000000D03*
X81775000Y-53730000D03*
X81775000Y-52460000D03*
X81775000Y-51190000D03*
X81775000Y-49920000D03*
X72225000Y-49920000D03*
X72225000Y-51190000D03*
X72225000Y-52460000D03*
X72225000Y-53730000D03*
X72225000Y-55000000D03*
X72225000Y-56270000D03*
X72225000Y-57540000D03*
X72225000Y-58810000D03*
X72225000Y-60080000D03*
%TD*%
D29*
%TO.C,U18*%
X81650000Y-126080000D03*
X81650000Y-124810000D03*
X81650000Y-123540000D03*
X81650000Y-122270000D03*
X81650000Y-121000000D03*
X81650000Y-119730000D03*
X81650000Y-118460000D03*
X81650000Y-117190000D03*
X81650000Y-115920000D03*
X72350000Y-115920000D03*
X72350000Y-117190000D03*
X72350000Y-118460000D03*
X72350000Y-119730000D03*
X72350000Y-121000000D03*
X72350000Y-122270000D03*
X72350000Y-123540000D03*
X72350000Y-124810000D03*
X72350000Y-126080000D03*
%TD*%
%TO.C,U17*%
X81650000Y-100080000D03*
X81650000Y-98810000D03*
X81650000Y-97540000D03*
X81650000Y-96270000D03*
X81650000Y-95000000D03*
X81650000Y-93730000D03*
X81650000Y-92460000D03*
X81650000Y-91190000D03*
X81650000Y-89920000D03*
X72350000Y-89920000D03*
X72350000Y-91190000D03*
X72350000Y-92460000D03*
X72350000Y-93730000D03*
X72350000Y-95000000D03*
X72350000Y-96270000D03*
X72350000Y-97540000D03*
X72350000Y-98810000D03*
X72350000Y-100080000D03*
%TD*%
D28*
%TO.C,U16*%
X81775000Y-46080000D03*
X81775000Y-44810000D03*
X81775000Y-43540000D03*
X81775000Y-42270000D03*
X81775000Y-41000000D03*
X81775000Y-39730000D03*
X81775000Y-38460000D03*
X81775000Y-37190000D03*
X81775000Y-35920000D03*
X72225000Y-35920000D03*
X72225000Y-37190000D03*
X72225000Y-38460000D03*
X72225000Y-39730000D03*
X72225000Y-41000000D03*
X72225000Y-42270000D03*
X72225000Y-43540000D03*
X72225000Y-44810000D03*
X72225000Y-46080000D03*
%TD*%
D29*
%TO.C,U15*%
X81650000Y-139080000D03*
X81650000Y-137810000D03*
X81650000Y-136540000D03*
X81650000Y-135270000D03*
X81650000Y-134000000D03*
X81650000Y-132730000D03*
X81650000Y-131460000D03*
X81650000Y-130190000D03*
X81650000Y-128920000D03*
X72350000Y-128920000D03*
X72350000Y-130190000D03*
X72350000Y-131460000D03*
X72350000Y-132730000D03*
X72350000Y-134000000D03*
X72350000Y-135270000D03*
X72350000Y-136540000D03*
X72350000Y-137810000D03*
X72350000Y-139080000D03*
%TD*%
%TO.C,U14*%
X81650000Y-113080000D03*
X81650000Y-111810000D03*
X81650000Y-110540000D03*
X81650000Y-109270000D03*
X81650000Y-108000000D03*
X81650000Y-106730000D03*
X81650000Y-105460000D03*
X81650000Y-104190000D03*
X81650000Y-102920000D03*
X72350000Y-102920000D03*
X72350000Y-104190000D03*
X72350000Y-105460000D03*
X72350000Y-106730000D03*
X72350000Y-108000000D03*
X72350000Y-109270000D03*
X72350000Y-110540000D03*
X72350000Y-111810000D03*
X72350000Y-113080000D03*
%TD*%
D27*
%TO.C,U13*%
X87137500Y-122725000D03*
X87137500Y-123375000D03*
X87137500Y-124025000D03*
X87137500Y-124675000D03*
X87137500Y-125325000D03*
X87137500Y-125975000D03*
X87137500Y-126625000D03*
X87137500Y-127275000D03*
X92862500Y-127275000D03*
X92862500Y-126625000D03*
X92862500Y-125975000D03*
X92862500Y-125325000D03*
X92862500Y-124675000D03*
X92862500Y-124025000D03*
X92862500Y-123375000D03*
X92862500Y-122725000D03*
%TD*%
%TO.C,U12*%
X87137500Y-83725000D03*
X87137500Y-84375000D03*
X87137500Y-85025000D03*
X87137500Y-85675000D03*
X87137500Y-86325000D03*
X87137500Y-86975000D03*
X87137500Y-87625000D03*
X87137500Y-88275000D03*
X92862500Y-88275000D03*
X92862500Y-87625000D03*
X92862500Y-86975000D03*
X92862500Y-86325000D03*
X92862500Y-85675000D03*
X92862500Y-85025000D03*
X92862500Y-84375000D03*
X92862500Y-83725000D03*
%TD*%
%TO.C,U11*%
X87137500Y-109725000D03*
X87137500Y-110375000D03*
X87137500Y-111025000D03*
X87137500Y-111675000D03*
X87137500Y-112325000D03*
X87137500Y-112975000D03*
X87137500Y-113625000D03*
X87137500Y-114275000D03*
X92862500Y-114275000D03*
X92862500Y-113625000D03*
X92862500Y-112975000D03*
X92862500Y-112325000D03*
X92862500Y-111675000D03*
X92862500Y-111025000D03*
X92862500Y-110375000D03*
X92862500Y-109725000D03*
%TD*%
%TO.C,U10*%
X86137500Y-56725000D03*
X86137500Y-57375000D03*
X86137500Y-58025000D03*
X86137500Y-58675000D03*
X86137500Y-59325000D03*
X86137500Y-59975000D03*
X86137500Y-60625000D03*
X86137500Y-61275000D03*
X91862500Y-61275000D03*
X91862500Y-60625000D03*
X91862500Y-59975000D03*
X91862500Y-59325000D03*
X91862500Y-58675000D03*
X91862500Y-58025000D03*
X91862500Y-57375000D03*
X91862500Y-56725000D03*
%TD*%
D30*
%TO.C,U8*%
X103475000Y-51645000D03*
X103475000Y-50375000D03*
X103475000Y-49105000D03*
X103475000Y-47835000D03*
X103475000Y-46565000D03*
X103475000Y-45295000D03*
X103475000Y-44025000D03*
X103475000Y-42755000D03*
X98525000Y-42755000D03*
X98525000Y-44025000D03*
X98525000Y-45295000D03*
X98525000Y-46565000D03*
X98525000Y-47835000D03*
X98525000Y-49105000D03*
X98525000Y-50375000D03*
X98525000Y-51645000D03*
%TD*%
D31*
%TO.C,U5*%
X108700000Y-110700000D03*
D32*
X108700000Y-113240000D03*
X108700000Y-115780000D03*
%TD*%
D27*
%TO.C,U4*%
X87137500Y-133725000D03*
X87137500Y-134375000D03*
X87137500Y-135025000D03*
X87137500Y-135675000D03*
X87137500Y-136325000D03*
X87137500Y-136975000D03*
X87137500Y-137625000D03*
X87137500Y-138275000D03*
X92862500Y-138275000D03*
X92862500Y-137625000D03*
X92862500Y-136975000D03*
X92862500Y-136325000D03*
X92862500Y-135675000D03*
X92862500Y-135025000D03*
X92862500Y-134375000D03*
X92862500Y-133725000D03*
%TD*%
%TO.C,U3*%
X86137500Y-42725000D03*
X86137500Y-43375000D03*
X86137500Y-44025000D03*
X86137500Y-44675000D03*
X86137500Y-45325000D03*
X86137500Y-45975000D03*
X86137500Y-46625000D03*
X86137500Y-47275000D03*
X91862500Y-47275000D03*
X91862500Y-46625000D03*
X91862500Y-45975000D03*
X91862500Y-45325000D03*
X91862500Y-44675000D03*
X91862500Y-44025000D03*
X91862500Y-43375000D03*
X91862500Y-42725000D03*
%TD*%
D33*
%TO.C,U2*%
X113255000Y-60900000D03*
X111985000Y-60900000D03*
X110715000Y-60900000D03*
X109445000Y-60900000D03*
X108175000Y-60900000D03*
X106905000Y-60900000D03*
X105635000Y-60900000D03*
X104365000Y-60900000D03*
X103095000Y-60900000D03*
X101825000Y-60900000D03*
X100555000Y-60900000D03*
X99285000Y-60900000D03*
X98015000Y-60900000D03*
X96745000Y-60900000D03*
D34*
X95745000Y-63685000D03*
X95745000Y-64955000D03*
X95745000Y-66225000D03*
X95745000Y-67495000D03*
X95745000Y-68765000D03*
X95745000Y-70035000D03*
X95745000Y-71305000D03*
X95745000Y-72575000D03*
X95745000Y-73845000D03*
X95745000Y-75115000D03*
D33*
X96745000Y-77900000D03*
X98015000Y-77900000D03*
X99285000Y-77900000D03*
X100555000Y-77900000D03*
X101825000Y-77900000D03*
X103095000Y-77900000D03*
X104365000Y-77900000D03*
X105635000Y-77900000D03*
X106905000Y-77900000D03*
X108175000Y-77900000D03*
X109445000Y-77900000D03*
X110715000Y-77900000D03*
X111985000Y-77900000D03*
X113255000Y-77900000D03*
D35*
X105755000Y-68400000D03*
%TD*%
D27*
%TO.C,U1*%
X98637500Y-89475000D03*
X98637500Y-90125000D03*
X98637500Y-90775000D03*
X98637500Y-91425000D03*
X98637500Y-92075000D03*
X98637500Y-92725000D03*
X98637500Y-93375000D03*
X98637500Y-94025000D03*
X98637500Y-94675000D03*
X98637500Y-95325000D03*
X104362500Y-95325000D03*
X104362500Y-94675000D03*
X104362500Y-94025000D03*
X104362500Y-93375000D03*
X104362500Y-92725000D03*
X104362500Y-92075000D03*
X104362500Y-91425000D03*
X104362500Y-90775000D03*
X104362500Y-90125000D03*
X104362500Y-89475000D03*
%TD*%
D36*
%TO.C,SW3*%
X94675000Y-35150000D03*
X86725000Y-35150000D03*
X86725000Y-39650000D03*
X94675000Y-39650000D03*
%TD*%
%TO.C,SW2*%
X96525000Y-105750000D03*
X104475000Y-105750000D03*
X104475000Y-101250000D03*
X96525000Y-101250000D03*
%TD*%
%TO.C,SW1*%
X106625000Y-105750000D03*
X114575000Y-105750000D03*
X114575000Y-101250000D03*
X106625000Y-101250000D03*
%TD*%
D23*
%TO.C,R46*%
X106200000Y-35975000D03*
X106200000Y-37625000D03*
%TD*%
%TO.C,R45*%
X106400000Y-41975000D03*
X106400000Y-43625000D03*
%TD*%
%TO.C,R44*%
X106200000Y-81350000D03*
X106200000Y-83000000D03*
%TD*%
%TO.C,R43*%
X106400000Y-49350000D03*
X106400000Y-51000000D03*
%TD*%
%TO.C,R42*%
X112100000Y-51650000D03*
X112100000Y-53300000D03*
%TD*%
D37*
%TO.C,R31*%
X110075000Y-97400000D03*
X111725000Y-97400000D03*
%TD*%
%TO.C,R30*%
X99550000Y-57600000D03*
X101200000Y-57600000D03*
%TD*%
D22*
%TO.C,R29*%
X111750000Y-94900000D03*
X110100000Y-94900000D03*
%TD*%
D37*
%TO.C,R28*%
X99512500Y-55900000D03*
X101162500Y-55900000D03*
%TD*%
D23*
%TO.C,R19*%
X104600000Y-97200000D03*
X104600000Y-98850000D03*
%TD*%
%TO.C,R18*%
X106500000Y-97200000D03*
X106500000Y-98850000D03*
%TD*%
D38*
%TO.C,R2*%
X94400000Y-43825000D03*
X94400000Y-42175000D03*
%TD*%
D22*
%TO.C,R1*%
X110400000Y-56600000D03*
X108750000Y-56600000D03*
%TD*%
D39*
%TO.C,Q11*%
X96250000Y-49800000D03*
X95600000Y-49800000D03*
X94950000Y-49800000D03*
X94950000Y-51700000D03*
X95600000Y-51700000D03*
X96250000Y-51700000D03*
%TD*%
D40*
%TO.C,J6*%
X109382500Y-42240000D03*
X109382500Y-36460000D03*
%TD*%
D41*
%TO.C,J5*%
X113815000Y-89805000D03*
D42*
X113815000Y-92345000D03*
X113815000Y-94885000D03*
X113815000Y-97425000D03*
%TD*%
D43*
%TO.C,J1*%
X53610000Y-50590000D03*
D44*
X56150000Y-50590000D03*
X53610000Y-53130000D03*
X56150000Y-53130000D03*
X53610000Y-55670000D03*
X56150000Y-55670000D03*
X53610000Y-58210000D03*
X56150000Y-58210000D03*
X53610000Y-60750000D03*
X56150000Y-60750000D03*
X53610000Y-63290000D03*
X56150000Y-63290000D03*
X53610000Y-65830000D03*
X56150000Y-65830000D03*
X53610000Y-68370000D03*
X56150000Y-68370000D03*
X53610000Y-70910000D03*
X56150000Y-70910000D03*
X53610000Y-73450000D03*
X56150000Y-73450000D03*
X53610000Y-75990000D03*
X56150000Y-75990000D03*
X53610000Y-78530000D03*
X56150000Y-78530000D03*
X53610000Y-81070000D03*
X56150000Y-81070000D03*
X53610000Y-83610000D03*
X56150000Y-83610000D03*
X53610000Y-86150000D03*
X56150000Y-86150000D03*
X53610000Y-88690000D03*
X56150000Y-88690000D03*
X53610000Y-91230000D03*
X56150000Y-91230000D03*
X53610000Y-93770000D03*
X56150000Y-93770000D03*
X53610000Y-96310000D03*
X56150000Y-96310000D03*
X53610000Y-98850000D03*
X56150000Y-98850000D03*
X53610000Y-101390000D03*
X56150000Y-101390000D03*
X53610000Y-103930000D03*
X56150000Y-103930000D03*
X53610000Y-106470000D03*
X56150000Y-106470000D03*
X53610000Y-109010000D03*
X56150000Y-109010000D03*
X53610000Y-111550000D03*
X56150000Y-111550000D03*
X53610000Y-114090000D03*
X56150000Y-114090000D03*
X53610000Y-116630000D03*
X56150000Y-116630000D03*
X53610000Y-119170000D03*
X56150000Y-119170000D03*
X53610000Y-121710000D03*
X56150000Y-121710000D03*
X53610000Y-124250000D03*
X56150000Y-124250000D03*
D45*
X54630000Y-133190000D03*
X54630000Y-41650000D03*
%TD*%
D46*
%TO.C,H4*%
X100000000Y-37500000D03*
%TD*%
%TO.C,H3*%
X100000000Y-137500000D03*
%TD*%
%TO.C,H2*%
X40000000Y-137500000D03*
%TD*%
%TO.C,H1*%
X40000000Y-37500000D03*
%TD*%
D47*
%TO.C,D22*%
X110600000Y-81350000D03*
X110600000Y-84650000D03*
%TD*%
%TO.C,D21*%
X108200000Y-84650000D03*
X108200000Y-81350000D03*
%TD*%
D48*
%TO.C,D18*%
X112100000Y-50175000D03*
X112100000Y-48600000D03*
%TD*%
D11*
%TO.C,D17*%
X96400000Y-120200000D03*
X100400000Y-120200000D03*
%TD*%
D49*
%TO.C,D11*%
X96462500Y-57600000D03*
X98037500Y-57600000D03*
%TD*%
%TO.C,D10*%
X96462500Y-55900000D03*
X98037500Y-55900000D03*
%TD*%
D50*
%TO.C,D6*%
X93137500Y-76950000D03*
X93137500Y-75050000D03*
X91262500Y-76000000D03*
%TD*%
D51*
%TO.C,C23*%
X99575000Y-53400000D03*
X98025000Y-53400000D03*
%TD*%
D17*
%TO.C,C22*%
X102425000Y-53400000D03*
X103975000Y-53400000D03*
%TD*%
D52*
%TO.C,C20*%
X101500000Y-115800000D03*
X101500000Y-117700000D03*
%TD*%
D51*
%TO.C,C18*%
X113575000Y-58400000D03*
X112025000Y-58400000D03*
%TD*%
D18*
%TO.C,C16*%
X105500000Y-115725000D03*
X105500000Y-117275000D03*
%TD*%
D52*
%TO.C,C15*%
X103600000Y-115800000D03*
X103600000Y-117700000D03*
%TD*%
D53*
%TO.C,C14*%
X105300000Y-110500000D03*
X105300000Y-108600000D03*
%TD*%
D52*
%TO.C,C13*%
X103200000Y-112100000D03*
X103200000Y-114000000D03*
%TD*%
D54*
%TO.C,C12*%
X98400000Y-108925000D03*
X98400000Y-114000000D03*
%TD*%
D52*
%TO.C,C11*%
X105300000Y-112150000D03*
X105300000Y-114050000D03*
%TD*%
D53*
%TO.C,C10*%
X103200000Y-110500000D03*
X103200000Y-108600000D03*
%TD*%
D17*
%TO.C,C9*%
X112050000Y-55000000D03*
X113600000Y-55000000D03*
%TD*%
%TO.C,C8*%
X112050000Y-56600000D03*
X113600000Y-56600000D03*
%TD*%
D51*
%TO.C,C2*%
X110375000Y-58400000D03*
X108825000Y-58400000D03*
%TD*%
M02*
