G04 #@! TF.GenerationSoftware,KiCad,Pcbnew,(5.1.9)-1*
G04 #@! TF.CreationDate,2021-04-19T10:18:59+02:00*
G04 #@! TF.ProjectId,esp32-light-controller,65737033-322d-46c6-9967-68742d636f6e,rev?*
G04 #@! TF.SameCoordinates,Original*
G04 #@! TF.FileFunction,Soldermask,Bot*
G04 #@! TF.FilePolarity,Negative*
%FSLAX46Y46*%
G04 Gerber Fmt 4.6, Leading zero omitted, Abs format (unit mm)*
G04 Created by KiCad (PCBNEW (5.1.9)-1) date 2021-04-19 10:18:59*
%MOMM*%
%LPD*%
G01*
G04 APERTURE LIST*
%ADD10C,3.200000*%
%ADD11C,1.500000*%
%ADD12R,1.500000X1.500000*%
%ADD13C,1.000000*%
%ADD14O,1.700000X1.700000*%
%ADD15R,1.700000X1.700000*%
%ADD16C,4.000000*%
%ADD17C,1.600000*%
%ADD18R,1.600000X1.600000*%
%ADD19R,3.500000X3.500000*%
%ADD20C,2.400000*%
G04 APERTURE END LIST*
D10*
X55000000Y-145000000D03*
X183000000Y-60000000D03*
X183000000Y-145000000D03*
X55000000Y-60000000D03*
D11*
X114720000Y-136500000D03*
X112180000Y-136500000D03*
X109640000Y-136500000D03*
D12*
X107100000Y-136500000D03*
D13*
X103320000Y-126440000D03*
X103320000Y-125170000D03*
X103320000Y-123900000D03*
X103320000Y-122630000D03*
X103320000Y-121360000D03*
X104480000Y-121360000D03*
X104480000Y-122630000D03*
X104480000Y-123900000D03*
X104480000Y-125170000D03*
X104480000Y-126440000D03*
D14*
X53600000Y-85440000D03*
X53600000Y-82900000D03*
X53600000Y-80360000D03*
X53600000Y-77820000D03*
X53600000Y-75280000D03*
X53600000Y-72740000D03*
D15*
X53600000Y-70200000D03*
D16*
X91959338Y-66460000D03*
X91959338Y-91460000D03*
D17*
X93379338Y-83115000D03*
X93379338Y-80345000D03*
X93379338Y-77575000D03*
X93379338Y-74805000D03*
X90539338Y-84500000D03*
X90539338Y-81730000D03*
X90539338Y-78960000D03*
X90539338Y-76190000D03*
D18*
X90539338Y-73420000D03*
D16*
X121829338Y-66620000D03*
X121829338Y-91620000D03*
D17*
X123249338Y-83275000D03*
X123249338Y-80505000D03*
X123249338Y-77735000D03*
X123249338Y-74965000D03*
X120409338Y-84660000D03*
X120409338Y-81890000D03*
X120409338Y-79120000D03*
X120409338Y-76350000D03*
D18*
X120409338Y-73580000D03*
D16*
X121849338Y-99680000D03*
X121849338Y-124680000D03*
D17*
X123269338Y-116335000D03*
X123269338Y-113565000D03*
X123269338Y-110795000D03*
X123269338Y-108025000D03*
X120429338Y-117720000D03*
X120429338Y-114950000D03*
X120429338Y-112180000D03*
X120429338Y-109410000D03*
D18*
X120429338Y-106640000D03*
D16*
X150829338Y-66530000D03*
X150829338Y-91530000D03*
D17*
X152249338Y-83185000D03*
X152249338Y-80415000D03*
X152249338Y-77645000D03*
X152249338Y-74875000D03*
X149409338Y-84570000D03*
X149409338Y-81800000D03*
X149409338Y-79030000D03*
X149409338Y-76260000D03*
D18*
X149409338Y-73490000D03*
D16*
X178989338Y-66680000D03*
X178989338Y-91680000D03*
D17*
X180409338Y-83335000D03*
X180409338Y-80565000D03*
X180409338Y-77795000D03*
X180409338Y-75025000D03*
X177569338Y-84720000D03*
X177569338Y-81950000D03*
X177569338Y-79180000D03*
X177569338Y-76410000D03*
D18*
X177569338Y-73640000D03*
D16*
X179079338Y-99690000D03*
X179079338Y-124690000D03*
D17*
X180499338Y-116345000D03*
X180499338Y-113575000D03*
X180499338Y-110805000D03*
X180499338Y-108035000D03*
X177659338Y-117730000D03*
X177659338Y-114960000D03*
X177659338Y-112190000D03*
X177659338Y-109420000D03*
D18*
X177659338Y-106650000D03*
G36*
G01*
X132625000Y-64450000D02*
X134375000Y-64450000D01*
G75*
G02*
X135250000Y-65325000I0J-875000D01*
G01*
X135250000Y-67075000D01*
G75*
G02*
X134375000Y-67950000I-875000J0D01*
G01*
X132625000Y-67950000D01*
G75*
G02*
X131750000Y-67075000I0J875000D01*
G01*
X131750000Y-65325000D01*
G75*
G02*
X132625000Y-64450000I875000J0D01*
G01*
G37*
G36*
G01*
X137200000Y-61700000D02*
X139200000Y-61700000D01*
G75*
G02*
X139950000Y-62450000I0J-750000D01*
G01*
X139950000Y-63950000D01*
G75*
G02*
X139200000Y-64700000I-750000J0D01*
G01*
X137200000Y-64700000D01*
G75*
G02*
X136450000Y-63950000I0J750000D01*
G01*
X136450000Y-62450000D01*
G75*
G02*
X137200000Y-61700000I750000J0D01*
G01*
G37*
D19*
X138200000Y-69200000D03*
D14*
X157150000Y-146600000D03*
X159690000Y-146600000D03*
X162230000Y-146600000D03*
X164770000Y-146600000D03*
X167310000Y-146600000D03*
D15*
X169850000Y-146600000D03*
D20*
X124160000Y-59000000D03*
G36*
G01*
X119000000Y-59950000D02*
X119000000Y-58050000D01*
G75*
G02*
X119250000Y-57800000I250000J0D01*
G01*
X121150000Y-57800000D01*
G75*
G02*
X121400000Y-58050000I0J-250000D01*
G01*
X121400000Y-59950000D01*
G75*
G02*
X121150000Y-60200000I-250000J0D01*
G01*
X119250000Y-60200000D01*
G75*
G02*
X119000000Y-59950000I0J250000D01*
G01*
G37*
D14*
X69310000Y-58450000D03*
X71850000Y-58450000D03*
D15*
X74390000Y-58450000D03*
D14*
X69270000Y-63950000D03*
X71810000Y-63950000D03*
D15*
X74350000Y-63950000D03*
D14*
X53200000Y-91960000D03*
D15*
X53200000Y-94500000D03*
D14*
X140600000Y-119520000D03*
X140600000Y-122060000D03*
X140600000Y-124600000D03*
D15*
X140600000Y-127140000D03*
D16*
X98500000Y-139110000D03*
X86500000Y-139110000D03*
D17*
X93750000Y-136250000D03*
X91250000Y-136250000D03*
X91250000Y-134250000D03*
D18*
X93750000Y-134250000D03*
M02*
