%FSLAX45Y45*%
G04 Gerber Fmt 4.5, Leading zero omitted, Abs format (unit mm)*
G04 Created by KiCad (PCBNEW (5.1.9)-1) date 2021-04-19 10:19:10*
%MOMM*%
%LPD*%
G01*
G04 APERTURE LIST*
%TA.AperFunction,Profile*%
%ADD10C,0.050000*%
%TD*%
%ADD11C,0.200000*%
%ADD12C,0.300000*%
G04 APERTURE END LIST*
D10*
X5000000Y-10060000D02*
X5000000Y-5500000D01*
X6020000Y-10060000D02*
X5000000Y-10060000D01*
X6020000Y-12920000D02*
X6020000Y-10060000D01*
X5000000Y-12920000D02*
X6020000Y-12920000D01*
X18800000Y-5500000D02*
X5000000Y-5500000D01*
X18800000Y-15000000D02*
X18800000Y-5500000D01*
X18000000Y-15000000D02*
X18800000Y-15000000D01*
X15900000Y-15000000D02*
X18000000Y-15000000D01*
X15250000Y-13250000D02*
G75*
G02*
X15400000Y-13250000I75000J0D01*
G01*
X14450000Y-13175000D02*
G75*
G02*
X14450000Y-13325000I0J-75000D01*
G01*
X15400000Y-15000000D02*
X15900000Y-15000000D01*
X15400000Y-13250000D02*
X15400000Y-15000000D01*
X15250000Y-13325000D02*
X15250000Y-13250000D01*
X15250000Y-15000000D02*
X15250000Y-13325000D01*
X14475000Y-15000000D02*
X15250000Y-15000000D01*
X14450000Y-13175000D02*
X14125000Y-13175000D01*
X14150000Y-13325000D02*
X14450000Y-13325000D01*
X13700000Y-13325000D02*
G75*
G02*
X13700000Y-13175000I0J75000D01*
G01*
X14150000Y-15000000D02*
X14475000Y-15000000D01*
X14150000Y-13325000D02*
X14150000Y-15000000D01*
X14000000Y-13175000D02*
X14125000Y-13175000D01*
X13700000Y-13175000D02*
X14000000Y-13175000D01*
X14000000Y-13325000D02*
X13700000Y-13325000D01*
X14000000Y-15000000D02*
X14000000Y-13325000D01*
X12250000Y-15000000D02*
X14000000Y-15000000D01*
X12750000Y-13175000D02*
G75*
G02*
X12750000Y-13325000I0J-75000D01*
G01*
X12100000Y-13175000D02*
X12750000Y-13175000D01*
X12100000Y-13325000D02*
X12100000Y-13175000D01*
X12100000Y-15000000D02*
X12100000Y-13325000D01*
X12250000Y-13325000D02*
X12750000Y-13325000D01*
X12250000Y-15000000D02*
X12250000Y-13325000D01*
X5000000Y-15000000D02*
X12100000Y-15000000D01*
X5000000Y-15000000D02*
X5000000Y-12920000D01*
D11*
X5260000Y-9840000D02*
X5300000Y-9880000D01*
X5300000Y-9840000D02*
X5260000Y-9880000D01*
X5300000Y-6640000D02*
X5340000Y-6680000D01*
X5340000Y-6640000D02*
X5300000Y-6680000D01*
X5340000Y-8800000D02*
X5380000Y-8840000D01*
X5380000Y-8800000D02*
X5340000Y-8840000D01*
X5600000Y-8800000D02*
X5640000Y-8840000D01*
X5640000Y-8800000D02*
X5600000Y-8840000D01*
X5800000Y-6640000D02*
X5840000Y-6680000D01*
X5840000Y-6640000D02*
X5800000Y-6680000D01*
X5940000Y-13020000D02*
X5980000Y-13060000D01*
X5980000Y-13020000D02*
X5940000Y-13060000D01*
X6020000Y-9660000D02*
X6060000Y-9700000D01*
X6060000Y-9660000D02*
X6020000Y-9700000D01*
X6100000Y-13180000D02*
X6140000Y-13220000D01*
X6140000Y-13180000D02*
X6100000Y-13220000D01*
X6154500Y-10925500D02*
X6194500Y-10965500D01*
X6194500Y-10925500D02*
X6154500Y-10965500D01*
X6180000Y-11300000D02*
X6220000Y-11340000D01*
X6220000Y-11300000D02*
X6180000Y-11340000D01*
X6260000Y-9960000D02*
X6300000Y-10000000D01*
X6300000Y-9960000D02*
X6260000Y-10000000D01*
X6280000Y-12160000D02*
X6320000Y-12200000D01*
X6320000Y-12160000D02*
X6280000Y-12200000D01*
X6280000Y-12520000D02*
X6320000Y-12560000D01*
X6320000Y-12520000D02*
X6280000Y-12560000D01*
X6280000Y-13340000D02*
X6320000Y-13380000D01*
X6320000Y-13340000D02*
X6280000Y-13380000D01*
X6340000Y-7520000D02*
X6380000Y-7560000D01*
X6380000Y-7520000D02*
X6340000Y-7560000D01*
X6340000Y-9880000D02*
X6380000Y-9920000D01*
X6380000Y-9880000D02*
X6340000Y-9920000D01*
X6340000Y-11340000D02*
X6380000Y-11380000D01*
X6380000Y-11340000D02*
X6340000Y-11380000D01*
X6380000Y-10920000D02*
X6420000Y-10960000D01*
X6420000Y-10920000D02*
X6380000Y-10960000D01*
X6400000Y-10120000D02*
X6440000Y-10160000D01*
X6440000Y-10120000D02*
X6400000Y-10160000D01*
X6400000Y-10320000D02*
X6440000Y-10360000D01*
X6440000Y-10320000D02*
X6400000Y-10360000D01*
X6460000Y-6640000D02*
X6500000Y-6680000D01*
X6500000Y-6640000D02*
X6460000Y-6680000D01*
X6460000Y-11840000D02*
X6500000Y-11880000D01*
X6500000Y-11840000D02*
X6460000Y-11880000D01*
X6500000Y-12120000D02*
X6540000Y-12160000D01*
X6540000Y-12120000D02*
X6500000Y-12160000D01*
X6520000Y-9920000D02*
X6560000Y-9960000D01*
X6560000Y-9920000D02*
X6520000Y-9960000D01*
X6520000Y-11680000D02*
X6560000Y-11720000D01*
X6560000Y-11680000D02*
X6520000Y-11720000D01*
X6550000Y-12910000D02*
X6590000Y-12950000D01*
X6590000Y-12910000D02*
X6550000Y-12950000D01*
X6600000Y-6920000D02*
X6640000Y-6960000D01*
X6640000Y-6920000D02*
X6600000Y-6960000D01*
X6660000Y-13160000D02*
X6700000Y-13200000D01*
X6700000Y-13160000D02*
X6660000Y-13200000D01*
X6680000Y-7860000D02*
X6720000Y-7900000D01*
X6720000Y-7860000D02*
X6680000Y-7900000D01*
X6780000Y-6100000D02*
X6820000Y-6140000D01*
X6820000Y-6100000D02*
X6780000Y-6140000D01*
X6800000Y-11060000D02*
X6840000Y-11100000D01*
X6840000Y-11060000D02*
X6800000Y-11100000D01*
X6800000Y-13820000D02*
X6840000Y-13860000D01*
X6840000Y-13820000D02*
X6800000Y-13860000D01*
X6820000Y-12640000D02*
X6860000Y-12680000D01*
X6860000Y-12640000D02*
X6820000Y-12680000D01*
X6840000Y-12880000D02*
X6880000Y-12920000D01*
X6880000Y-12880000D02*
X6840000Y-12920000D01*
X6860000Y-7560000D02*
X6900000Y-7600000D01*
X6900000Y-7560000D02*
X6860000Y-7600000D01*
X6900000Y-10920000D02*
X6940000Y-10960000D01*
X6940000Y-10920000D02*
X6900000Y-10960000D01*
X6920000Y-13060000D02*
X6960000Y-13100000D01*
X6960000Y-13060000D02*
X6920000Y-13100000D01*
X6920000Y-13260000D02*
X6960000Y-13300000D01*
X6960000Y-13260000D02*
X6920000Y-13300000D01*
X6920000Y-14260000D02*
X6960000Y-14300000D01*
X6960000Y-14260000D02*
X6920000Y-14300000D01*
X6940000Y-8140000D02*
X6980000Y-8180000D01*
X6980000Y-8140000D02*
X6940000Y-8180000D01*
X6960000Y-8440000D02*
X7000000Y-8480000D01*
X7000000Y-8440000D02*
X6960000Y-8480000D01*
X6960000Y-8900000D02*
X7000000Y-8940000D01*
X7000000Y-8900000D02*
X6960000Y-8940000D01*
X6960000Y-12660000D02*
X7000000Y-12700000D01*
X7000000Y-12660000D02*
X6960000Y-12700000D01*
X6980000Y-9280000D02*
X7020000Y-9320000D01*
X7020000Y-9280000D02*
X6980000Y-9320000D01*
X7000000Y-12000000D02*
X7040000Y-12040000D01*
X7040000Y-12000000D02*
X7000000Y-12040000D01*
X7100000Y-13260000D02*
X7140000Y-13300000D01*
X7140000Y-13260000D02*
X7100000Y-13300000D01*
X7140000Y-12640000D02*
X7180000Y-12680000D01*
X7180000Y-12640000D02*
X7140000Y-12680000D01*
X7160000Y-9440000D02*
X7200000Y-9480000D01*
X7200000Y-9440000D02*
X7160000Y-9480000D01*
X7220000Y-11980000D02*
X7260000Y-12020000D01*
X7260000Y-11980000D02*
X7220000Y-12020000D01*
X7340000Y-12120000D02*
X7380000Y-12160000D01*
X7380000Y-12120000D02*
X7340000Y-12160000D01*
X7380000Y-10320000D02*
X7420000Y-10360000D01*
X7420000Y-10320000D02*
X7380000Y-10360000D01*
X7400000Y-7700000D02*
X7440000Y-7740000D01*
X7440000Y-7700000D02*
X7400000Y-7740000D01*
X7400000Y-8140000D02*
X7440000Y-8180000D01*
X7440000Y-8140000D02*
X7400000Y-8180000D01*
X7400000Y-8700000D02*
X7440000Y-8740000D01*
X7440000Y-8700000D02*
X7400000Y-8740000D01*
X7460000Y-10140000D02*
X7500000Y-10180000D01*
X7500000Y-10140000D02*
X7460000Y-10180000D01*
X7460000Y-14400000D02*
X7500000Y-14440000D01*
X7500000Y-14400000D02*
X7460000Y-14440000D01*
X7480000Y-9960000D02*
X7520000Y-10000000D01*
X7520000Y-9960000D02*
X7480000Y-10000000D01*
X7500000Y-14720000D02*
X7540000Y-14760000D01*
X7540000Y-14720000D02*
X7500000Y-14760000D01*
X7520000Y-9500000D02*
X7560000Y-9540000D01*
X7560000Y-9500000D02*
X7520000Y-9540000D01*
X7640000Y-9900000D02*
X7680000Y-9940000D01*
X7680000Y-9900000D02*
X7640000Y-9940000D01*
X7680000Y-11520000D02*
X7720000Y-11560000D01*
X7720000Y-11520000D02*
X7680000Y-11560000D01*
X7700000Y-11180000D02*
X7740000Y-11220000D01*
X7740000Y-11180000D02*
X7700000Y-11220000D01*
X7700000Y-11880000D02*
X7740000Y-11920000D01*
X7740000Y-11880000D02*
X7700000Y-11920000D01*
X7770000Y-6710000D02*
X7810000Y-6750000D01*
X7810000Y-6710000D02*
X7770000Y-6750000D01*
X7780000Y-6080000D02*
X7820000Y-6120000D01*
X7820000Y-6080000D02*
X7780000Y-6120000D01*
X7800000Y-9180000D02*
X7840000Y-9220000D01*
X7840000Y-9180000D02*
X7800000Y-9220000D01*
X7860000Y-10320000D02*
X7900000Y-10360000D01*
X7900000Y-10320000D02*
X7860000Y-10360000D01*
X7880000Y-7660000D02*
X7920000Y-7700000D01*
X7920000Y-7660000D02*
X7880000Y-7700000D01*
X7900000Y-7260000D02*
X7940000Y-7300000D01*
X7940000Y-7260000D02*
X7900000Y-7300000D01*
X7900000Y-8060000D02*
X7940000Y-8100000D01*
X7940000Y-8060000D02*
X7900000Y-8100000D01*
X7920000Y-8460000D02*
X7960000Y-8500000D01*
X7960000Y-8460000D02*
X7920000Y-8500000D01*
X7960000Y-9920000D02*
X8000000Y-9960000D01*
X8000000Y-9920000D02*
X7960000Y-9960000D01*
X7980000Y-12200000D02*
X8020000Y-12240000D01*
X8020000Y-12200000D02*
X7980000Y-12240000D01*
X7980000Y-12320000D02*
X8020000Y-12360000D01*
X8020000Y-12320000D02*
X7980000Y-12360000D01*
X8000000Y-9520000D02*
X8040000Y-9560000D01*
X8040000Y-9520000D02*
X8000000Y-9560000D01*
X8000000Y-13400000D02*
X8040000Y-13440000D01*
X8040000Y-13400000D02*
X8000000Y-13440000D01*
X8060000Y-12460000D02*
X8100000Y-12500000D01*
X8100000Y-12460000D02*
X8060000Y-12500000D01*
X8080000Y-10160000D02*
X8120000Y-10200000D01*
X8120000Y-10160000D02*
X8080000Y-10200000D01*
X8100000Y-12600000D02*
X8140000Y-12640000D01*
X8140000Y-12600000D02*
X8100000Y-12640000D01*
X8120000Y-13880000D02*
X8160000Y-13920000D01*
X8160000Y-13880000D02*
X8120000Y-13920000D01*
X8160000Y-11220000D02*
X8200000Y-11260000D01*
X8200000Y-11220000D02*
X8160000Y-11260000D01*
X8160000Y-11500000D02*
X8200000Y-11540000D01*
X8200000Y-11500000D02*
X8160000Y-11540000D01*
X8160000Y-14400000D02*
X8200000Y-14440000D01*
X8200000Y-14400000D02*
X8160000Y-14440000D01*
X8200000Y-13020000D02*
X8240000Y-13060000D01*
X8240000Y-13020000D02*
X8200000Y-13060000D01*
X8220000Y-11760000D02*
X8260000Y-11800000D01*
X8260000Y-11760000D02*
X8220000Y-11800000D01*
X8220000Y-14720000D02*
X8260000Y-14760000D01*
X8260000Y-14720000D02*
X8220000Y-14760000D01*
X8260000Y-9680000D02*
X8300000Y-9720000D01*
X8300000Y-9680000D02*
X8260000Y-9720000D01*
X8360000Y-9080000D02*
X8400000Y-9120000D01*
X8400000Y-9080000D02*
X8360000Y-9120000D01*
X8360000Y-10220000D02*
X8400000Y-10260000D01*
X8400000Y-10220000D02*
X8360000Y-10260000D01*
X8380000Y-10840000D02*
X8420000Y-10880000D01*
X8420000Y-10840000D02*
X8380000Y-10880000D01*
X8420000Y-7240000D02*
X8460000Y-7280000D01*
X8460000Y-7240000D02*
X8420000Y-7280000D01*
X8420000Y-7640000D02*
X8460000Y-7680000D01*
X8460000Y-7640000D02*
X8420000Y-7680000D01*
X8420000Y-8460000D02*
X8460000Y-8500000D01*
X8460000Y-8460000D02*
X8420000Y-8500000D01*
X8440000Y-8040000D02*
X8480000Y-8080000D01*
X8480000Y-8040000D02*
X8440000Y-8080000D01*
X8580000Y-10640000D02*
X8620000Y-10680000D01*
X8620000Y-10640000D02*
X8580000Y-10680000D01*
X8600000Y-13020000D02*
X8640000Y-13060000D01*
X8640000Y-13020000D02*
X8600000Y-13060000D01*
X8620000Y-10440000D02*
X8660000Y-10480000D01*
X8660000Y-10440000D02*
X8620000Y-10480000D01*
X8620000Y-12340000D02*
X8660000Y-12380000D01*
X8660000Y-12340000D02*
X8620000Y-12380000D01*
X8620000Y-12440000D02*
X8660000Y-12480000D01*
X8660000Y-12440000D02*
X8620000Y-12480000D01*
X8620000Y-12540000D02*
X8660000Y-12580000D01*
X8660000Y-12540000D02*
X8620000Y-12580000D01*
X8740000Y-8700000D02*
X8780000Y-8740000D01*
X8780000Y-8700000D02*
X8740000Y-8740000D01*
X8780000Y-6980000D02*
X8820000Y-7020000D01*
X8820000Y-6980000D02*
X8780000Y-7020000D01*
X9000000Y-11080000D02*
X9040000Y-11120000D01*
X9040000Y-11080000D02*
X9000000Y-11120000D01*
X9100000Y-14380000D02*
X9140000Y-14420000D01*
X9140000Y-14380000D02*
X9100000Y-14420000D01*
X9120000Y-11800000D02*
X9160000Y-11840000D01*
X9160000Y-11800000D02*
X9120000Y-11840000D01*
X9149000Y-13891000D02*
X9189000Y-13931000D01*
X9189000Y-13891000D02*
X9149000Y-13931000D01*
X9260000Y-9920000D02*
X9300000Y-9960000D01*
X9300000Y-9920000D02*
X9260000Y-9960000D01*
X9280000Y-10180000D02*
X9320000Y-10220000D01*
X9320000Y-10180000D02*
X9280000Y-10220000D01*
X9280000Y-10480000D02*
X9320000Y-10520000D01*
X9320000Y-10480000D02*
X9280000Y-10520000D01*
X9600000Y-7400000D02*
X9640000Y-7440000D01*
X9640000Y-7400000D02*
X9600000Y-7440000D01*
X9740000Y-13400000D02*
X9780000Y-13440000D01*
X9780000Y-13400000D02*
X9740000Y-13440000D01*
X9840000Y-9440000D02*
X9880000Y-9480000D01*
X9880000Y-9440000D02*
X9840000Y-9480000D01*
X9860000Y-7020000D02*
X9900000Y-7060000D01*
X9900000Y-7020000D02*
X9860000Y-7060000D01*
X9880000Y-10420000D02*
X9920000Y-10460000D01*
X9920000Y-10420000D02*
X9880000Y-10460000D01*
X9920000Y-6300000D02*
X9960000Y-6340000D01*
X9960000Y-6300000D02*
X9920000Y-6340000D01*
X9920000Y-13060000D02*
X9960000Y-13100000D01*
X9960000Y-13060000D02*
X9920000Y-13100000D01*
X10100000Y-12100000D02*
X10140000Y-12140000D01*
X10140000Y-12100000D02*
X10100000Y-12140000D01*
X10120000Y-12280000D02*
X10160000Y-12320000D01*
X10160000Y-12280000D02*
X10120000Y-12320000D01*
X10138066Y-6081934D02*
X10178066Y-6121934D01*
X10178066Y-6081934D02*
X10138066Y-6121934D01*
X10180000Y-13060000D02*
X10220000Y-13100000D01*
X10220000Y-13060000D02*
X10180000Y-13100000D01*
X10280000Y-6640000D02*
X10320000Y-6680000D01*
X10320000Y-6640000D02*
X10280000Y-6680000D01*
X10280000Y-10440000D02*
X10320000Y-10480000D01*
X10320000Y-10440000D02*
X10280000Y-10480000D01*
X10340000Y-7400000D02*
X10380000Y-7440000D01*
X10380000Y-7400000D02*
X10340000Y-7440000D01*
X10340000Y-7640000D02*
X10380000Y-7680000D01*
X10380000Y-7640000D02*
X10340000Y-7680000D01*
X10340000Y-7940000D02*
X10380000Y-7980000D01*
X10380000Y-7940000D02*
X10340000Y-7980000D01*
X10340000Y-8300000D02*
X10380000Y-8340000D01*
X10380000Y-8300000D02*
X10340000Y-8340000D01*
X10340000Y-8660000D02*
X10380000Y-8700000D01*
X10380000Y-8660000D02*
X10340000Y-8700000D01*
X10420000Y-9680000D02*
X10460000Y-9720000D01*
X10460000Y-9680000D02*
X10420000Y-9720000D01*
X10420000Y-10800000D02*
X10460000Y-10840000D01*
X10460000Y-10800000D02*
X10420000Y-10840000D01*
X10420000Y-11560000D02*
X10460000Y-11600000D01*
X10460000Y-11560000D02*
X10420000Y-11600000D01*
X10460000Y-13060000D02*
X10500000Y-13100000D01*
X10500000Y-13060000D02*
X10460000Y-13100000D01*
X10500000Y-7060000D02*
X10540000Y-7100000D01*
X10540000Y-7060000D02*
X10500000Y-7100000D01*
X10640000Y-7280000D02*
X10680000Y-7320000D01*
X10680000Y-7280000D02*
X10640000Y-7320000D01*
X10660000Y-7680000D02*
X10700000Y-7720000D01*
X10700000Y-7680000D02*
X10660000Y-7720000D01*
X10680000Y-11760000D02*
X10720000Y-11800000D01*
X10720000Y-11760000D02*
X10680000Y-11800000D01*
X10700000Y-10180000D02*
X10740000Y-10220000D01*
X10740000Y-10180000D02*
X10700000Y-10220000D01*
X10700000Y-11380000D02*
X10740000Y-11420000D01*
X10740000Y-11380000D02*
X10700000Y-11420000D01*
X10700000Y-12660000D02*
X10740000Y-12700000D01*
X10740000Y-12660000D02*
X10700000Y-12700000D01*
X10720000Y-5960000D02*
X10760000Y-6000000D01*
X10760000Y-5960000D02*
X10720000Y-6000000D01*
X10760000Y-10960000D02*
X10800000Y-11000000D01*
X10800000Y-10960000D02*
X10760000Y-11000000D01*
X10820000Y-12580000D02*
X10860000Y-12620000D01*
X10860000Y-12580000D02*
X10820000Y-12620000D01*
X10840000Y-8480000D02*
X10880000Y-8520000D01*
X10880000Y-8480000D02*
X10840000Y-8520000D01*
X10880000Y-9100000D02*
X10920000Y-9140000D01*
X10920000Y-9100000D02*
X10880000Y-9140000D01*
X10900000Y-6620000D02*
X10940000Y-6660000D01*
X10940000Y-6620000D02*
X10900000Y-6660000D01*
X10900000Y-10580000D02*
X10940000Y-10620000D01*
X10940000Y-10580000D02*
X10900000Y-10620000D01*
X10920000Y-6880000D02*
X10960000Y-6920000D01*
X10960000Y-6880000D02*
X10920000Y-6920000D01*
X11020000Y-5960000D02*
X11060000Y-6000000D01*
X11060000Y-5960000D02*
X11020000Y-6000000D01*
X11020000Y-10180000D02*
X11060000Y-10220000D01*
X11060000Y-10180000D02*
X11020000Y-10220000D01*
X11040000Y-12560000D02*
X11080000Y-12600000D01*
X11080000Y-12560000D02*
X11040000Y-12600000D01*
X11100000Y-13020000D02*
X11140000Y-13060000D01*
X11140000Y-13020000D02*
X11100000Y-13060000D01*
X11260000Y-6640000D02*
X11300000Y-6680000D01*
X11300000Y-6640000D02*
X11260000Y-6680000D01*
X11280000Y-5960000D02*
X11320000Y-6000000D01*
X11320000Y-5960000D02*
X11280000Y-6000000D01*
X11440000Y-7280000D02*
X11480000Y-7320000D01*
X11480000Y-7280000D02*
X11440000Y-7320000D01*
X11440000Y-7680000D02*
X11480000Y-7720000D01*
X11480000Y-7680000D02*
X11440000Y-7720000D01*
X11440000Y-8060000D02*
X11480000Y-8100000D01*
X11480000Y-8060000D02*
X11440000Y-8100000D01*
X11440000Y-8480000D02*
X11480000Y-8520000D01*
X11480000Y-8480000D02*
X11440000Y-8520000D01*
X11440000Y-10580000D02*
X11480000Y-10620000D01*
X11480000Y-10580000D02*
X11440000Y-10620000D01*
X11440000Y-10960000D02*
X11480000Y-11000000D01*
X11480000Y-10960000D02*
X11440000Y-11000000D01*
X11440000Y-11360000D02*
X11480000Y-11400000D01*
X11480000Y-11360000D02*
X11440000Y-11400000D01*
X11440000Y-11760000D02*
X11480000Y-11800000D01*
X11480000Y-11760000D02*
X11440000Y-11800000D01*
X11500000Y-6440000D02*
X11540000Y-6480000D01*
X11540000Y-6440000D02*
X11500000Y-6480000D01*
X11580000Y-5960000D02*
X11620000Y-6000000D01*
X11620000Y-5960000D02*
X11580000Y-6000000D01*
X11630000Y-13070000D02*
X11670000Y-13110000D01*
X11670000Y-13070000D02*
X11630000Y-13110000D01*
X11660000Y-10200000D02*
X11700000Y-10240000D01*
X11700000Y-10200000D02*
X11660000Y-10240000D01*
X11660000Y-12560000D02*
X11700000Y-12600000D01*
X11700000Y-12560000D02*
X11660000Y-12600000D01*
X11740000Y-6440000D02*
X11780000Y-6480000D01*
X11780000Y-6440000D02*
X11740000Y-6480000D01*
X11740000Y-8780000D02*
X11780000Y-8820000D01*
X11780000Y-8780000D02*
X11740000Y-8820000D01*
X11740000Y-12020000D02*
X11780000Y-12060000D01*
X11780000Y-12020000D02*
X11740000Y-12060000D01*
X11800000Y-7000000D02*
X11840000Y-7040000D01*
X11840000Y-7000000D02*
X11800000Y-7040000D01*
X12240000Y-10380000D02*
X12280000Y-10420000D01*
X12280000Y-10380000D02*
X12240000Y-10420000D01*
X12400000Y-13580000D02*
X12440000Y-13620000D01*
X12440000Y-13580000D02*
X12400000Y-13620000D01*
X12420000Y-14760000D02*
X12460000Y-14800000D01*
X12460000Y-14760000D02*
X12420000Y-14800000D01*
X12440000Y-8720000D02*
X12480000Y-8760000D01*
X12480000Y-8720000D02*
X12440000Y-8760000D01*
X12440000Y-14280000D02*
X12480000Y-14320000D01*
X12480000Y-14280000D02*
X12440000Y-14320000D01*
X12480000Y-13000000D02*
X12520000Y-13040000D01*
X12520000Y-13000000D02*
X12480000Y-13040000D01*
X12500000Y-9560000D02*
X12540000Y-9600000D01*
X12540000Y-9560000D02*
X12500000Y-9600000D01*
X12600000Y-12560000D02*
X12640000Y-12600000D01*
X12640000Y-12560000D02*
X12600000Y-12600000D01*
X12600000Y-13420000D02*
X12640000Y-13460000D01*
X12640000Y-13420000D02*
X12600000Y-13460000D01*
X12650000Y-11170000D02*
X12690000Y-11210000D01*
X12690000Y-11170000D02*
X12650000Y-11210000D01*
X12662000Y-10798000D02*
X12702000Y-10838000D01*
X12702000Y-10798000D02*
X12662000Y-10838000D01*
X12780000Y-14800000D02*
X12820000Y-14840000D01*
X12820000Y-14800000D02*
X12780000Y-14840000D01*
X12900000Y-12840000D02*
X12940000Y-12880000D01*
X12940000Y-12840000D02*
X12900000Y-12880000D01*
X12900000Y-13020000D02*
X12940000Y-13060000D01*
X12940000Y-13020000D02*
X12900000Y-13060000D01*
X13018000Y-6642000D02*
X13058000Y-6682000D01*
X13058000Y-6642000D02*
X13018000Y-6682000D01*
X13080000Y-6240000D02*
X13120000Y-6280000D01*
X13120000Y-6240000D02*
X13080000Y-6280000D01*
X13080000Y-7060000D02*
X13120000Y-7100000D01*
X13120000Y-7060000D02*
X13080000Y-7100000D01*
X13100000Y-12600000D02*
X13140000Y-12640000D01*
X13140000Y-12600000D02*
X13100000Y-12640000D01*
X13240000Y-8260000D02*
X13280000Y-8300000D01*
X13280000Y-8260000D02*
X13240000Y-8300000D01*
X13240000Y-8840000D02*
X13280000Y-8880000D01*
X13280000Y-8840000D02*
X13240000Y-8880000D01*
X13240000Y-9440000D02*
X13280000Y-9480000D01*
X13280000Y-9440000D02*
X13240000Y-9480000D01*
X13320000Y-7720000D02*
X13360000Y-7760000D01*
X13360000Y-7720000D02*
X13320000Y-7760000D01*
X13340000Y-7220000D02*
X13380000Y-7260000D01*
X13380000Y-7220000D02*
X13340000Y-7260000D01*
X13380000Y-12320000D02*
X13420000Y-12360000D01*
X13420000Y-12320000D02*
X13380000Y-12360000D01*
X13460000Y-7960000D02*
X13500000Y-8000000D01*
X13500000Y-7960000D02*
X13460000Y-8000000D01*
X13480000Y-9900000D02*
X13520000Y-9940000D01*
X13520000Y-9900000D02*
X13480000Y-9940000D01*
X13580000Y-14760000D02*
X13620000Y-14800000D01*
X13620000Y-14760000D02*
X13580000Y-14800000D01*
X13660000Y-11960000D02*
X13700000Y-12000000D01*
X13700000Y-11960000D02*
X13660000Y-12000000D01*
X13720000Y-13500000D02*
X13760000Y-13540000D01*
X13760000Y-13500000D02*
X13720000Y-13540000D01*
X13740000Y-7240000D02*
X13780000Y-7280000D01*
X13780000Y-7240000D02*
X13740000Y-7280000D01*
X13740000Y-13000000D02*
X13780000Y-13040000D01*
X13780000Y-13000000D02*
X13740000Y-13040000D01*
X13760000Y-13700000D02*
X13800000Y-13740000D01*
X13800000Y-13700000D02*
X13760000Y-13740000D01*
X13760000Y-13960000D02*
X13800000Y-14000000D01*
X13800000Y-13960000D02*
X13760000Y-14000000D01*
X13760000Y-14200000D02*
X13800000Y-14240000D01*
X13800000Y-14200000D02*
X13760000Y-14240000D01*
X13760000Y-14600000D02*
X13800000Y-14640000D01*
X13800000Y-14600000D02*
X13760000Y-14640000D01*
X13840000Y-10240000D02*
X13880000Y-10280000D01*
X13880000Y-10240000D02*
X13840000Y-10280000D01*
X13880000Y-11640000D02*
X13920000Y-11680000D01*
X13920000Y-11640000D02*
X13880000Y-11680000D01*
X13900000Y-8660000D02*
X13940000Y-8700000D01*
X13940000Y-8660000D02*
X13900000Y-8700000D01*
X13900000Y-9520000D02*
X13940000Y-9560000D01*
X13940000Y-9520000D02*
X13900000Y-9560000D01*
X14160000Y-7240000D02*
X14200000Y-7280000D01*
X14200000Y-7240000D02*
X14160000Y-7280000D01*
X14180000Y-11640000D02*
X14220000Y-11680000D01*
X14220000Y-11640000D02*
X14180000Y-11680000D01*
X14240000Y-9080000D02*
X14280000Y-9120000D01*
X14280000Y-9080000D02*
X14240000Y-9120000D01*
X14260000Y-7840000D02*
X14300000Y-7880000D01*
X14300000Y-7840000D02*
X14260000Y-7880000D01*
X14260000Y-8220000D02*
X14300000Y-8260000D01*
X14300000Y-8220000D02*
X14260000Y-8260000D01*
X14260000Y-10540000D02*
X14300000Y-10580000D01*
X14300000Y-10540000D02*
X14260000Y-10580000D01*
X14280000Y-13780000D02*
X14320000Y-13820000D01*
X14320000Y-13780000D02*
X14280000Y-13820000D01*
X14340000Y-12780000D02*
X14380000Y-12820000D01*
X14380000Y-12780000D02*
X14340000Y-12820000D01*
X14400000Y-9840000D02*
X14440000Y-9880000D01*
X14440000Y-9840000D02*
X14400000Y-9880000D01*
X14420000Y-13000000D02*
X14460000Y-13040000D01*
X14460000Y-13000000D02*
X14420000Y-13040000D01*
X14440000Y-14540000D02*
X14480000Y-14580000D01*
X14480000Y-14540000D02*
X14440000Y-14580000D01*
X14580000Y-9260000D02*
X14620000Y-9300000D01*
X14620000Y-9260000D02*
X14580000Y-9300000D01*
X14600000Y-6480000D02*
X14640000Y-6520000D01*
X14640000Y-6480000D02*
X14600000Y-6520000D01*
X14730000Y-13770000D02*
X14770000Y-13810000D01*
X14770000Y-13770000D02*
X14730000Y-13810000D01*
X14740000Y-10940000D02*
X14780000Y-10980000D01*
X14780000Y-10940000D02*
X14740000Y-10980000D01*
X14940000Y-12760000D02*
X14980000Y-12800000D01*
X14980000Y-12760000D02*
X14940000Y-12800000D01*
X14980000Y-13060000D02*
X15020000Y-13100000D01*
X15020000Y-13060000D02*
X14980000Y-13100000D01*
X15020000Y-10680000D02*
X15060000Y-10720000D01*
X15060000Y-10680000D02*
X15020000Y-10720000D01*
X15020000Y-14540000D02*
X15060000Y-14580000D01*
X15060000Y-14540000D02*
X15020000Y-14580000D01*
X15060000Y-14260000D02*
X15100000Y-14300000D01*
X15100000Y-14260000D02*
X15060000Y-14300000D01*
X15100000Y-9880000D02*
X15140000Y-9920000D01*
X15140000Y-9880000D02*
X15100000Y-9920000D01*
X15100000Y-13780000D02*
X15140000Y-13820000D01*
X15140000Y-13780000D02*
X15100000Y-13820000D01*
X15120000Y-10140000D02*
X15160000Y-10180000D01*
X15160000Y-10140000D02*
X15120000Y-10180000D01*
X15120000Y-10460000D02*
X15160000Y-10500000D01*
X15160000Y-10460000D02*
X15120000Y-10500000D01*
X15120000Y-10920000D02*
X15160000Y-10960000D01*
X15160000Y-10920000D02*
X15120000Y-10960000D01*
X15240000Y-12580000D02*
X15280000Y-12620000D01*
X15280000Y-12580000D02*
X15240000Y-12620000D01*
X15260000Y-5600000D02*
X15300000Y-5640000D01*
X15300000Y-5600000D02*
X15260000Y-5640000D01*
X15280000Y-6180000D02*
X15320000Y-6220000D01*
X15320000Y-6180000D02*
X15280000Y-6220000D01*
X15600000Y-12560000D02*
X15640000Y-12600000D01*
X15640000Y-12560000D02*
X15600000Y-12600000D01*
X15600000Y-13060000D02*
X15640000Y-13100000D01*
X15640000Y-13060000D02*
X15600000Y-13100000D01*
X15780000Y-10480000D02*
X15820000Y-10520000D01*
X15820000Y-10480000D02*
X15780000Y-10520000D01*
X15827000Y-6633000D02*
X15867000Y-6673000D01*
X15867000Y-6633000D02*
X15827000Y-6673000D01*
X15900000Y-9460000D02*
X15940000Y-9500000D01*
X15940000Y-9460000D02*
X15900000Y-9500000D01*
X15920000Y-13060000D02*
X15960000Y-13100000D01*
X15960000Y-13060000D02*
X15920000Y-13100000D01*
X16020000Y-10020000D02*
X16060000Y-10060000D01*
X16060000Y-10020000D02*
X16020000Y-10060000D01*
X16060000Y-13440000D02*
X16100000Y-13480000D01*
X16100000Y-13440000D02*
X16060000Y-13480000D01*
X16080000Y-10780000D02*
X16120000Y-10820000D01*
X16120000Y-10780000D02*
X16080000Y-10820000D01*
X16087000Y-9133000D02*
X16127000Y-9173000D01*
X16127000Y-9133000D02*
X16087000Y-9173000D01*
X16100000Y-7460000D02*
X16140000Y-7500000D01*
X16140000Y-7460000D02*
X16100000Y-7500000D01*
X16100000Y-7960000D02*
X16140000Y-8000000D01*
X16140000Y-7960000D02*
X16100000Y-8000000D01*
X16100000Y-8520000D02*
X16140000Y-8560000D01*
X16140000Y-8520000D02*
X16100000Y-8560000D01*
X16160000Y-5580000D02*
X16200000Y-5620000D01*
X16200000Y-5580000D02*
X16160000Y-5620000D01*
X16160000Y-11940000D02*
X16200000Y-11980000D01*
X16200000Y-11940000D02*
X16160000Y-11980000D01*
X16227000Y-7093000D02*
X16267000Y-7133000D01*
X16267000Y-7093000D02*
X16227000Y-7133000D01*
X16280000Y-12820000D02*
X16320000Y-12860000D01*
X16320000Y-12820000D02*
X16280000Y-12860000D01*
X16320000Y-13400000D02*
X16360000Y-13440000D01*
X16360000Y-13400000D02*
X16320000Y-13440000D01*
X16360000Y-7440000D02*
X16400000Y-7480000D01*
X16400000Y-7440000D02*
X16360000Y-7480000D01*
X16360000Y-11300000D02*
X16400000Y-11340000D01*
X16400000Y-11300000D02*
X16360000Y-11340000D01*
X16360000Y-11760000D02*
X16400000Y-11800000D01*
X16400000Y-11760000D02*
X16360000Y-11800000D01*
X16400000Y-9660000D02*
X16440000Y-9700000D01*
X16440000Y-9660000D02*
X16400000Y-9700000D01*
X16400000Y-10940000D02*
X16440000Y-10980000D01*
X16440000Y-10940000D02*
X16400000Y-10980000D01*
X16500000Y-10540000D02*
X16540000Y-10580000D01*
X16540000Y-10540000D02*
X16500000Y-10580000D01*
X16560000Y-7740000D02*
X16600000Y-7780000D01*
X16600000Y-7740000D02*
X16560000Y-7780000D01*
X16560000Y-13040000D02*
X16600000Y-13080000D01*
X16600000Y-13040000D02*
X16560000Y-13080000D01*
X16580000Y-8140000D02*
X16620000Y-8180000D01*
X16620000Y-8140000D02*
X16580000Y-8180000D01*
X16600000Y-8520000D02*
X16640000Y-8560000D01*
X16640000Y-8520000D02*
X16600000Y-8560000D01*
X16627000Y-9133000D02*
X16667000Y-9173000D01*
X16667000Y-9133000D02*
X16627000Y-9173000D01*
X16660000Y-6920000D02*
X16700000Y-6960000D01*
X16700000Y-6920000D02*
X16660000Y-6960000D01*
X16700000Y-13460000D02*
X16740000Y-13500000D01*
X16740000Y-13460000D02*
X16700000Y-13500000D01*
X16720000Y-10100000D02*
X16760000Y-10140000D01*
X16760000Y-10100000D02*
X16720000Y-10140000D01*
X17060000Y-5600000D02*
X17100000Y-5640000D01*
X17100000Y-5600000D02*
X17060000Y-5640000D01*
X17100000Y-7360000D02*
X17140000Y-7400000D01*
X17140000Y-7360000D02*
X17100000Y-7400000D01*
X17120000Y-6180000D02*
X17160000Y-6220000D01*
X17160000Y-6180000D02*
X17120000Y-6220000D01*
X17120000Y-7740000D02*
X17160000Y-7780000D01*
X17160000Y-7740000D02*
X17120000Y-7780000D01*
X17120000Y-8140000D02*
X17160000Y-8180000D01*
X17160000Y-8140000D02*
X17120000Y-8180000D01*
X17120000Y-8500000D02*
X17160000Y-8540000D01*
X17160000Y-8500000D02*
X17120000Y-8540000D01*
X17160000Y-10560000D02*
X17200000Y-10600000D01*
X17200000Y-10560000D02*
X17160000Y-10600000D01*
X17160000Y-10960000D02*
X17200000Y-11000000D01*
X17200000Y-10960000D02*
X17160000Y-11000000D01*
X17160000Y-11340000D02*
X17200000Y-11380000D01*
X17200000Y-11340000D02*
X17160000Y-11380000D01*
X17160000Y-11760000D02*
X17200000Y-11800000D01*
X17200000Y-11760000D02*
X17160000Y-11800000D01*
X17340000Y-6980000D02*
X17380000Y-7020000D01*
X17380000Y-6980000D02*
X17340000Y-7020000D01*
X17500000Y-8820000D02*
X17540000Y-8860000D01*
X17540000Y-8820000D02*
X17500000Y-8860000D01*
X17500000Y-10180000D02*
X17540000Y-10220000D01*
X17540000Y-10180000D02*
X17500000Y-10220000D01*
X17520000Y-12080000D02*
X17560000Y-12120000D01*
X17560000Y-12080000D02*
X17520000Y-12120000D01*
X17660000Y-5640000D02*
X17700000Y-5680000D01*
X17700000Y-5640000D02*
X17660000Y-5680000D01*
X17720000Y-6240000D02*
X17760000Y-6280000D01*
X17760000Y-6240000D02*
X17720000Y-6280000D01*
X17860000Y-10340000D02*
X17900000Y-10380000D01*
X17900000Y-10340000D02*
X17860000Y-10380000D01*
X18040000Y-8760000D02*
X18080000Y-8800000D01*
X18080000Y-8760000D02*
X18040000Y-8800000D01*
X18061066Y-9518934D02*
X18101066Y-9558934D01*
X18101066Y-9518934D02*
X18061066Y-9558934D01*
X18100000Y-6940000D02*
X18140000Y-6980000D01*
X18140000Y-6940000D02*
X18100000Y-6980000D01*
X18420000Y-10620000D02*
X18460000Y-10660000D01*
X18460000Y-10620000D02*
X18420000Y-10660000D01*
X18620000Y-6580000D02*
X18660000Y-6620000D01*
X18660000Y-6580000D02*
X18620000Y-6620000D01*
X10362000Y-12136000D02*
G75*
G03*
X10362000Y-12136000I-30000J0D01*
G01*
X10362000Y-12263000D02*
G75*
G03*
X10362000Y-12263000I-30000J0D01*
G01*
X10362000Y-12390000D02*
G75*
G03*
X10362000Y-12390000I-30000J0D01*
G01*
X10362000Y-12517000D02*
G75*
G03*
X10362000Y-12517000I-30000J0D01*
G01*
X10362000Y-12644000D02*
G75*
G03*
X10362000Y-12644000I-30000J0D01*
G01*
X10478000Y-12136000D02*
G75*
G03*
X10478000Y-12136000I-30000J0D01*
G01*
X10478000Y-12263000D02*
G75*
G03*
X10478000Y-12263000I-30000J0D01*
G01*
X10478000Y-12390000D02*
G75*
G03*
X10478000Y-12390000I-30000J0D01*
G01*
X10478000Y-12517000D02*
G75*
G03*
X10478000Y-12517000I-30000J0D01*
G01*
X10478000Y-12644000D02*
G75*
G03*
X10478000Y-12644000I-30000J0D01*
G01*
X10710000Y-13610000D02*
X10710000Y-13690000D01*
X10670000Y-13650000D02*
X10750000Y-13650000D01*
X10964000Y-13610000D02*
X10964000Y-13690000D01*
X10924000Y-13650000D02*
X11004000Y-13650000D01*
X11218000Y-13610000D02*
X11218000Y-13690000D01*
X11178000Y-13650000D02*
X11258000Y-13650000D01*
X11472000Y-13610000D02*
X11472000Y-13690000D01*
X11432000Y-13650000D02*
X11512000Y-13650000D01*
X9158588Y-13458588D02*
X9158588Y-13391412D01*
X9091412Y-13391412D01*
X9091412Y-13458588D01*
X9158588Y-13458588D01*
X9158588Y-13658588D02*
X9158588Y-13591412D01*
X9091412Y-13591412D01*
X9091412Y-13658588D01*
X9158588Y-13658588D01*
X9408588Y-13458588D02*
X9408588Y-13391412D01*
X9341412Y-13391412D01*
X9341412Y-13458588D01*
X9408588Y-13458588D01*
X9408588Y-13658588D02*
X9408588Y-13591412D01*
X9341412Y-13591412D01*
X9341412Y-13658588D01*
X9408588Y-13658588D01*
X5320000Y-9246000D02*
X5370000Y-9196000D01*
X5320000Y-9146000D01*
X5270000Y-9196000D01*
X5320000Y-9246000D01*
X5320000Y-9500000D02*
X5370000Y-9450000D01*
X5320000Y-9400000D01*
X5270000Y-9450000D01*
X5320000Y-9500000D01*
X5360000Y-7070000D02*
X5410000Y-7020000D01*
X5360000Y-6970000D01*
X5310000Y-7020000D01*
X5360000Y-7070000D01*
X5360000Y-7324000D02*
X5410000Y-7274000D01*
X5360000Y-7224000D01*
X5310000Y-7274000D01*
X5360000Y-7324000D01*
X5360000Y-7578000D02*
X5410000Y-7528000D01*
X5360000Y-7478000D01*
X5310000Y-7528000D01*
X5360000Y-7578000D01*
X5360000Y-7832000D02*
X5410000Y-7782000D01*
X5360000Y-7732000D01*
X5310000Y-7782000D01*
X5360000Y-7832000D01*
X5360000Y-8086000D02*
X5410000Y-8036000D01*
X5360000Y-7986000D01*
X5310000Y-8036000D01*
X5360000Y-8086000D01*
X5360000Y-8340000D02*
X5410000Y-8290000D01*
X5360000Y-8240000D01*
X5310000Y-8290000D01*
X5360000Y-8340000D01*
X5360000Y-8594000D02*
X5410000Y-8544000D01*
X5360000Y-8494000D01*
X5310000Y-8544000D01*
X5360000Y-8594000D01*
X6927000Y-6445000D02*
X6977000Y-6395000D01*
X6927000Y-6345000D01*
X6877000Y-6395000D01*
X6927000Y-6445000D01*
X6931000Y-5895000D02*
X6981000Y-5845000D01*
X6931000Y-5795000D01*
X6881000Y-5845000D01*
X6931000Y-5895000D01*
X7181000Y-6445000D02*
X7231000Y-6395000D01*
X7181000Y-6345000D01*
X7131000Y-6395000D01*
X7181000Y-6445000D01*
X7185000Y-5895000D02*
X7235000Y-5845000D01*
X7185000Y-5795000D01*
X7135000Y-5845000D01*
X7185000Y-5895000D01*
X7435000Y-6445000D02*
X7485000Y-6395000D01*
X7435000Y-6345000D01*
X7385000Y-6395000D01*
X7435000Y-6445000D01*
X7439000Y-5895000D02*
X7489000Y-5845000D01*
X7439000Y-5795000D01*
X7389000Y-5845000D01*
X7439000Y-5895000D01*
X9053934Y-7392000D02*
X9103934Y-7342000D01*
X9053934Y-7292000D01*
X9003934Y-7342000D01*
X9053934Y-7392000D01*
X9053934Y-7669000D02*
X9103934Y-7619000D01*
X9053934Y-7569000D01*
X9003934Y-7619000D01*
X9053934Y-7669000D01*
X9053934Y-7946000D02*
X9103934Y-7896000D01*
X9053934Y-7846000D01*
X9003934Y-7896000D01*
X9053934Y-7946000D01*
X9053934Y-8223000D02*
X9103934Y-8173000D01*
X9053934Y-8123000D01*
X9003934Y-8173000D01*
X9053934Y-8223000D01*
X9053934Y-8500000D02*
X9103934Y-8450000D01*
X9053934Y-8400000D01*
X9003934Y-8450000D01*
X9053934Y-8500000D01*
X9337934Y-7530500D02*
X9387934Y-7480500D01*
X9337934Y-7430500D01*
X9287934Y-7480500D01*
X9337934Y-7530500D01*
X9337934Y-7807500D02*
X9387934Y-7757500D01*
X9337934Y-7707500D01*
X9287934Y-7757500D01*
X9337934Y-7807500D01*
X9337934Y-8084500D02*
X9387934Y-8034500D01*
X9337934Y-7984500D01*
X9287934Y-8034500D01*
X9337934Y-8084500D01*
X9337934Y-8361500D02*
X9387934Y-8311500D01*
X9337934Y-8261500D01*
X9287934Y-8311500D01*
X9337934Y-8361500D01*
X12040934Y-7408000D02*
X12090934Y-7358000D01*
X12040934Y-7308000D01*
X11990934Y-7358000D01*
X12040934Y-7408000D01*
X12040934Y-7685000D02*
X12090934Y-7635000D01*
X12040934Y-7585000D01*
X11990934Y-7635000D01*
X12040934Y-7685000D01*
X12040934Y-7962000D02*
X12090934Y-7912000D01*
X12040934Y-7862000D01*
X11990934Y-7912000D01*
X12040934Y-7962000D01*
X12040934Y-8239000D02*
X12090934Y-8189000D01*
X12040934Y-8139000D01*
X11990934Y-8189000D01*
X12040934Y-8239000D01*
X12040934Y-8516000D02*
X12090934Y-8466000D01*
X12040934Y-8416000D01*
X11990934Y-8466000D01*
X12040934Y-8516000D01*
X12042934Y-10714000D02*
X12092934Y-10664000D01*
X12042934Y-10614000D01*
X11992934Y-10664000D01*
X12042934Y-10714000D01*
X12042934Y-10991000D02*
X12092934Y-10941000D01*
X12042934Y-10891000D01*
X11992934Y-10941000D01*
X12042934Y-10991000D01*
X12042934Y-11268000D02*
X12092934Y-11218000D01*
X12042934Y-11168000D01*
X11992934Y-11218000D01*
X12042934Y-11268000D01*
X12042934Y-11545000D02*
X12092934Y-11495000D01*
X12042934Y-11445000D01*
X11992934Y-11495000D01*
X12042934Y-11545000D01*
X12042934Y-11822000D02*
X12092934Y-11772000D01*
X12042934Y-11722000D01*
X11992934Y-11772000D01*
X12042934Y-11822000D01*
X12324934Y-7546500D02*
X12374934Y-7496500D01*
X12324934Y-7446500D01*
X12274934Y-7496500D01*
X12324934Y-7546500D01*
X12324934Y-7823500D02*
X12374934Y-7773500D01*
X12324934Y-7723500D01*
X12274934Y-7773500D01*
X12324934Y-7823500D01*
X12324934Y-8100500D02*
X12374934Y-8050500D01*
X12324934Y-8000500D01*
X12274934Y-8050500D01*
X12324934Y-8100500D01*
X12324934Y-8377500D02*
X12374934Y-8327500D01*
X12324934Y-8277500D01*
X12274934Y-8327500D01*
X12324934Y-8377500D01*
X12326934Y-10852500D02*
X12376934Y-10802500D01*
X12326934Y-10752500D01*
X12276934Y-10802500D01*
X12326934Y-10852500D01*
X12326934Y-11129500D02*
X12376934Y-11079500D01*
X12326934Y-11029500D01*
X12276934Y-11079500D01*
X12326934Y-11129500D01*
X12326934Y-11406500D02*
X12376934Y-11356500D01*
X12326934Y-11306500D01*
X12276934Y-11356500D01*
X12326934Y-11406500D01*
X12326934Y-11683500D02*
X12376934Y-11633500D01*
X12326934Y-11583500D01*
X12276934Y-11633500D01*
X12326934Y-11683500D01*
X13350000Y-6670000D02*
X13400000Y-6620000D01*
X13350000Y-6570000D01*
X13300000Y-6620000D01*
X13350000Y-6670000D01*
X13310000Y-6520000D02*
X13310000Y-6720000D01*
X13390000Y-6520000D02*
X13390000Y-6720000D01*
X13310000Y-6720000D02*
G75*
G03*
X13390000Y-6720000I40000J0D01*
G01*
X13390000Y-6520000D02*
G75*
G03*
X13310000Y-6520000I-40000J0D01*
G01*
X13820000Y-6370000D02*
X13870000Y-6320000D01*
X13820000Y-6270000D01*
X13770000Y-6320000D01*
X13820000Y-6370000D01*
X13920000Y-6280000D02*
X13720000Y-6280000D01*
X13920000Y-6360000D02*
X13720000Y-6360000D01*
X13720000Y-6280000D02*
G75*
G03*
X13720000Y-6360000I0J-40000D01*
G01*
X13920000Y-6360000D02*
G75*
G03*
X13920000Y-6280000I0J40000D01*
G01*
X13820000Y-6970000D02*
X13870000Y-6920000D01*
X13820000Y-6870000D01*
X13770000Y-6920000D01*
X13820000Y-6970000D01*
X13920000Y-6880000D02*
X13720000Y-6880000D01*
X13920000Y-6960000D02*
X13720000Y-6960000D01*
X13720000Y-6880000D02*
G75*
G03*
X13720000Y-6960000I0J-40000D01*
G01*
X13920000Y-6960000D02*
G75*
G03*
X13920000Y-6880000I0J40000D01*
G01*
X14060000Y-12002000D02*
X14110000Y-11952000D01*
X14060000Y-11902000D01*
X14010000Y-11952000D01*
X14060000Y-12002000D01*
X14060000Y-12256000D02*
X14110000Y-12206000D01*
X14060000Y-12156000D01*
X14010000Y-12206000D01*
X14060000Y-12256000D01*
X14060000Y-12510000D02*
X14110000Y-12460000D01*
X14060000Y-12410000D01*
X14010000Y-12460000D01*
X14060000Y-12510000D01*
X14060000Y-12764000D02*
X14110000Y-12714000D01*
X14060000Y-12664000D01*
X14010000Y-12714000D01*
X14060000Y-12764000D01*
X14940934Y-7399000D02*
X14990934Y-7349000D01*
X14940934Y-7299000D01*
X14890934Y-7349000D01*
X14940934Y-7399000D01*
X14940934Y-7676000D02*
X14990934Y-7626000D01*
X14940934Y-7576000D01*
X14890934Y-7626000D01*
X14940934Y-7676000D01*
X14940934Y-7953000D02*
X14990934Y-7903000D01*
X14940934Y-7853000D01*
X14890934Y-7903000D01*
X14940934Y-7953000D01*
X14940934Y-8230000D02*
X14990934Y-8180000D01*
X14940934Y-8130000D01*
X14890934Y-8180000D01*
X14940934Y-8230000D01*
X14940934Y-8507000D02*
X14990934Y-8457000D01*
X14940934Y-8407000D01*
X14890934Y-8457000D01*
X14940934Y-8507000D01*
X15224934Y-7537500D02*
X15274934Y-7487500D01*
X15224934Y-7437500D01*
X15174934Y-7487500D01*
X15224934Y-7537500D01*
X15224934Y-7814500D02*
X15274934Y-7764500D01*
X15224934Y-7714500D01*
X15174934Y-7764500D01*
X15224934Y-7814500D01*
X15224934Y-8091500D02*
X15274934Y-8041500D01*
X15224934Y-7991500D01*
X15174934Y-8041500D01*
X15224934Y-8091500D01*
X15224934Y-8368500D02*
X15274934Y-8318500D01*
X15224934Y-8268500D01*
X15174934Y-8318500D01*
X15224934Y-8368500D01*
X15715000Y-14710000D02*
X15765000Y-14660000D01*
X15715000Y-14610000D01*
X15665000Y-14660000D01*
X15715000Y-14710000D01*
X15969000Y-14710000D02*
X16019000Y-14660000D01*
X15969000Y-14610000D01*
X15919000Y-14660000D01*
X15969000Y-14710000D01*
X16223000Y-14710000D02*
X16273000Y-14660000D01*
X16223000Y-14610000D01*
X16173000Y-14660000D01*
X16223000Y-14710000D01*
X16477000Y-14710000D02*
X16527000Y-14660000D01*
X16477000Y-14610000D01*
X16427000Y-14660000D01*
X16477000Y-14710000D01*
X16731000Y-14710000D02*
X16781000Y-14660000D01*
X16731000Y-14610000D01*
X16681000Y-14660000D01*
X16731000Y-14710000D01*
X16985000Y-14710000D02*
X17035000Y-14660000D01*
X16985000Y-14610000D01*
X16935000Y-14660000D01*
X16985000Y-14710000D01*
X17756934Y-7414000D02*
X17806934Y-7364000D01*
X17756934Y-7314000D01*
X17706934Y-7364000D01*
X17756934Y-7414000D01*
X17756934Y-7691000D02*
X17806934Y-7641000D01*
X17756934Y-7591000D01*
X17706934Y-7641000D01*
X17756934Y-7691000D01*
X17756934Y-7968000D02*
X17806934Y-7918000D01*
X17756934Y-7868000D01*
X17706934Y-7918000D01*
X17756934Y-7968000D01*
X17756934Y-8245000D02*
X17806934Y-8195000D01*
X17756934Y-8145000D01*
X17706934Y-8195000D01*
X17756934Y-8245000D01*
X17756934Y-8522000D02*
X17806934Y-8472000D01*
X17756934Y-8422000D01*
X17706934Y-8472000D01*
X17756934Y-8522000D01*
X17765934Y-10715000D02*
X17815934Y-10665000D01*
X17765934Y-10615000D01*
X17715934Y-10665000D01*
X17765934Y-10715000D01*
X17765934Y-10992000D02*
X17815934Y-10942000D01*
X17765934Y-10892000D01*
X17715934Y-10942000D01*
X17765934Y-10992000D01*
X17765934Y-11269000D02*
X17815934Y-11219000D01*
X17765934Y-11169000D01*
X17715934Y-11219000D01*
X17765934Y-11269000D01*
X17765934Y-11546000D02*
X17815934Y-11496000D01*
X17765934Y-11446000D01*
X17715934Y-11496000D01*
X17765934Y-11546000D01*
X17765934Y-11823000D02*
X17815934Y-11773000D01*
X17765934Y-11723000D01*
X17715934Y-11773000D01*
X17765934Y-11823000D01*
X18040934Y-7552500D02*
X18090934Y-7502500D01*
X18040934Y-7452500D01*
X17990934Y-7502500D01*
X18040934Y-7552500D01*
X18040934Y-7829500D02*
X18090934Y-7779500D01*
X18040934Y-7729500D01*
X17990934Y-7779500D01*
X18040934Y-7829500D01*
X18040934Y-8106500D02*
X18090934Y-8056500D01*
X18040934Y-8006500D01*
X17990934Y-8056500D01*
X18040934Y-8106500D01*
X18040934Y-8383500D02*
X18090934Y-8333500D01*
X18040934Y-8283500D01*
X17990934Y-8333500D01*
X18040934Y-8383500D01*
X18049934Y-10853500D02*
X18099934Y-10803500D01*
X18049934Y-10753500D01*
X17999934Y-10803500D01*
X18049934Y-10853500D01*
X18049934Y-11130500D02*
X18099934Y-11080500D01*
X18049934Y-11030500D01*
X17999934Y-11080500D01*
X18049934Y-11130500D01*
X18049934Y-11407500D02*
X18099934Y-11357500D01*
X18049934Y-11307500D01*
X17999934Y-11357500D01*
X18049934Y-11407500D01*
X18049934Y-11684500D02*
X18099934Y-11634500D01*
X18049934Y-11584500D01*
X17999934Y-11634500D01*
X18049934Y-11684500D01*
X11950000Y-5830000D02*
X12090000Y-5970000D01*
X12090000Y-5830000D02*
X11950000Y-5970000D01*
X12090000Y-5900000D02*
G75*
G03*
X12090000Y-5900000I-70000J0D01*
G01*
X12346000Y-5830000D02*
X12486000Y-5970000D01*
X12486000Y-5830000D02*
X12346000Y-5970000D01*
X12486000Y-5900000D02*
G75*
G03*
X12486000Y-5900000I-70000J0D01*
G01*
X8535000Y-13796000D02*
X8765000Y-14026000D01*
X8765000Y-13796000D02*
X8535000Y-14026000D01*
X8650000Y-13796000D02*
X8650000Y-14026000D01*
X8535000Y-13911000D02*
X8765000Y-13911000D01*
X9735000Y-13796000D02*
X9965000Y-14026000D01*
X9965000Y-13796000D02*
X9735000Y-14026000D01*
X9850000Y-13796000D02*
X9850000Y-14026000D01*
X9735000Y-13911000D02*
X9965000Y-13911000D01*
X9035934Y-6486000D02*
X9355934Y-6806000D01*
X9355934Y-6486000D02*
X9035934Y-6806000D01*
X9309072Y-6759138D02*
X9309072Y-6532862D01*
X9082796Y-6532862D01*
X9082796Y-6759138D01*
X9309072Y-6759138D01*
X9035934Y-8986000D02*
X9355934Y-9306000D01*
X9355934Y-8986000D02*
X9035934Y-9306000D01*
X9309072Y-9259138D02*
X9309072Y-9032862D01*
X9082796Y-9032862D01*
X9082796Y-9259138D01*
X9309072Y-9259138D01*
X12022934Y-6502000D02*
X12342934Y-6822000D01*
X12342934Y-6502000D02*
X12022934Y-6822000D01*
X12296072Y-6775138D02*
X12296072Y-6548862D01*
X12069796Y-6548862D01*
X12069796Y-6775138D01*
X12296072Y-6775138D01*
X12022934Y-9002000D02*
X12342934Y-9322000D01*
X12342934Y-9002000D02*
X12022934Y-9322000D01*
X12296072Y-9275138D02*
X12296072Y-9048862D01*
X12069796Y-9048862D01*
X12069796Y-9275138D01*
X12296072Y-9275138D01*
X12024934Y-9808000D02*
X12344934Y-10128000D01*
X12344934Y-9808000D02*
X12024934Y-10128000D01*
X12298072Y-10081138D02*
X12298072Y-9854862D01*
X12071796Y-9854862D01*
X12071796Y-10081138D01*
X12298072Y-10081138D01*
X12024934Y-12308000D02*
X12344934Y-12628000D01*
X12344934Y-12308000D02*
X12024934Y-12628000D01*
X12298072Y-12581138D02*
X12298072Y-12354862D01*
X12071796Y-12354862D01*
X12071796Y-12581138D01*
X12298072Y-12581138D01*
X14922934Y-6493000D02*
X15242934Y-6813000D01*
X15242934Y-6493000D02*
X14922934Y-6813000D01*
X15196072Y-6766138D02*
X15196072Y-6539862D01*
X14969796Y-6539862D01*
X14969796Y-6766138D01*
X15196072Y-6766138D01*
X14922934Y-8993000D02*
X15242934Y-9313000D01*
X15242934Y-8993000D02*
X14922934Y-9313000D01*
X15196072Y-9266138D02*
X15196072Y-9039862D01*
X14969796Y-9039862D01*
X14969796Y-9266138D01*
X15196072Y-9266138D01*
X17738934Y-6508000D02*
X18058934Y-6828000D01*
X18058934Y-6508000D02*
X17738934Y-6828000D01*
X18012072Y-6781138D02*
X18012072Y-6554862D01*
X17785796Y-6554862D01*
X17785796Y-6781138D01*
X18012072Y-6781138D01*
X17738934Y-9008000D02*
X18058934Y-9328000D01*
X18058934Y-9008000D02*
X17738934Y-9328000D01*
X18012072Y-9281138D02*
X18012072Y-9054862D01*
X17785796Y-9054862D01*
X17785796Y-9281138D01*
X18012072Y-9281138D01*
X17747934Y-9809000D02*
X18067934Y-10129000D01*
X18067934Y-9809000D02*
X17747934Y-10129000D01*
X18021072Y-10082138D02*
X18021072Y-9855862D01*
X17794796Y-9855862D01*
X17794796Y-10082138D01*
X18021072Y-10082138D01*
X17747934Y-12309000D02*
X18067934Y-12629000D01*
X18067934Y-12309000D02*
X17747934Y-12629000D01*
X18021072Y-12582138D02*
X18021072Y-12355862D01*
X17794796Y-12355862D01*
X17794796Y-12582138D01*
X18021072Y-12582138D01*
D12*
X5283928Y-15468214D02*
X5283928Y-15168214D01*
X5355357Y-15168214D01*
X5398214Y-15182500D01*
X5426786Y-15211071D01*
X5441071Y-15239643D01*
X5455357Y-15296786D01*
X5455357Y-15339643D01*
X5441071Y-15396786D01*
X5426786Y-15425357D01*
X5398214Y-15453929D01*
X5355357Y-15468214D01*
X5283928Y-15468214D01*
X5583928Y-15468214D02*
X5583928Y-15268214D01*
X5583928Y-15325357D02*
X5598214Y-15296786D01*
X5612500Y-15282500D01*
X5641071Y-15268214D01*
X5669643Y-15268214D01*
X5769643Y-15468214D02*
X5769643Y-15268214D01*
X5769643Y-15168214D02*
X5755357Y-15182500D01*
X5769643Y-15196786D01*
X5783928Y-15182500D01*
X5769643Y-15168214D01*
X5769643Y-15196786D01*
X5955357Y-15468214D02*
X5926786Y-15453929D01*
X5912500Y-15425357D01*
X5912500Y-15168214D01*
X6112500Y-15468214D02*
X6083928Y-15453929D01*
X6069643Y-15425357D01*
X6069643Y-15168214D01*
X6455357Y-15468214D02*
X6455357Y-15168214D01*
X6555357Y-15382500D01*
X6655357Y-15168214D01*
X6655357Y-15468214D01*
X6926786Y-15468214D02*
X6926786Y-15311071D01*
X6912500Y-15282500D01*
X6883928Y-15268214D01*
X6826786Y-15268214D01*
X6798214Y-15282500D01*
X6926786Y-15453929D02*
X6898214Y-15468214D01*
X6826786Y-15468214D01*
X6798214Y-15453929D01*
X6783928Y-15425357D01*
X6783928Y-15396786D01*
X6798214Y-15368214D01*
X6826786Y-15353929D01*
X6898214Y-15353929D01*
X6926786Y-15339643D01*
X7069643Y-15268214D02*
X7069643Y-15568214D01*
X7069643Y-15282500D02*
X7098214Y-15268214D01*
X7155357Y-15268214D01*
X7183928Y-15282500D01*
X7198214Y-15296786D01*
X7212500Y-15325357D01*
X7212500Y-15411071D01*
X7198214Y-15439643D01*
X7183928Y-15453929D01*
X7155357Y-15468214D01*
X7098214Y-15468214D01*
X7069643Y-15453929D01*
X7341071Y-15439643D02*
X7355357Y-15453929D01*
X7341071Y-15468214D01*
X7326786Y-15453929D01*
X7341071Y-15439643D01*
X7341071Y-15468214D01*
X7341071Y-15282500D02*
X7355357Y-15296786D01*
X7341071Y-15311071D01*
X7326786Y-15296786D01*
X7341071Y-15282500D01*
X7341071Y-15311071D01*
X4957500Y-15942500D02*
X4997500Y-15982500D01*
X4997500Y-15942500D02*
X4957500Y-15982500D01*
X5341071Y-15798214D02*
X5369643Y-15798214D01*
X5398214Y-15812500D01*
X5412500Y-15826786D01*
X5426786Y-15855357D01*
X5441071Y-15912500D01*
X5441071Y-15983929D01*
X5426786Y-16041071D01*
X5412500Y-16069643D01*
X5398214Y-16083929D01*
X5369643Y-16098214D01*
X5341071Y-16098214D01*
X5312500Y-16083929D01*
X5298214Y-16069643D01*
X5283928Y-16041071D01*
X5269643Y-15983929D01*
X5269643Y-15912500D01*
X5283928Y-15855357D01*
X5298214Y-15826786D01*
X5312500Y-15812500D01*
X5341071Y-15798214D01*
X5569643Y-16069643D02*
X5583928Y-16083929D01*
X5569643Y-16098214D01*
X5555357Y-16083929D01*
X5569643Y-16069643D01*
X5569643Y-16098214D01*
X5841071Y-15898214D02*
X5841071Y-16098214D01*
X5769643Y-15783929D02*
X5698214Y-15998214D01*
X5883928Y-15998214D01*
X6055357Y-15798214D02*
X6083928Y-15798214D01*
X6112500Y-15812500D01*
X6126786Y-15826786D01*
X6141071Y-15855357D01*
X6155357Y-15912500D01*
X6155357Y-15983929D01*
X6141071Y-16041071D01*
X6126786Y-16069643D01*
X6112500Y-16083929D01*
X6083928Y-16098214D01*
X6055357Y-16098214D01*
X6026786Y-16083929D01*
X6012500Y-16069643D01*
X5998214Y-16041071D01*
X5983928Y-15983929D01*
X5983928Y-15912500D01*
X5998214Y-15855357D01*
X6012500Y-15826786D01*
X6026786Y-15812500D01*
X6055357Y-15798214D01*
X6283928Y-16098214D02*
X6283928Y-15898214D01*
X6283928Y-15926786D02*
X6298214Y-15912500D01*
X6326786Y-15898214D01*
X6369643Y-15898214D01*
X6398214Y-15912500D01*
X6412500Y-15941071D01*
X6412500Y-16098214D01*
X6412500Y-15941071D02*
X6426786Y-15912500D01*
X6455357Y-15898214D01*
X6498214Y-15898214D01*
X6526786Y-15912500D01*
X6541071Y-15941071D01*
X6541071Y-16098214D01*
X6683928Y-16098214D02*
X6683928Y-15898214D01*
X6683928Y-15926786D02*
X6698214Y-15912500D01*
X6726786Y-15898214D01*
X6769643Y-15898214D01*
X6798214Y-15912500D01*
X6812500Y-15941071D01*
X6812500Y-16098214D01*
X6812500Y-15941071D02*
X6826786Y-15912500D01*
X6855357Y-15898214D01*
X6898214Y-15898214D01*
X6926786Y-15912500D01*
X6941071Y-15941071D01*
X6941071Y-16098214D01*
X7526786Y-15783929D02*
X7269643Y-16169643D01*
X7912500Y-15798214D02*
X7941071Y-15798214D01*
X7969643Y-15812500D01*
X7983928Y-15826786D01*
X7998214Y-15855357D01*
X8012500Y-15912500D01*
X8012500Y-15983929D01*
X7998214Y-16041071D01*
X7983928Y-16069643D01*
X7969643Y-16083929D01*
X7941071Y-16098214D01*
X7912500Y-16098214D01*
X7883928Y-16083929D01*
X7869643Y-16069643D01*
X7855357Y-16041071D01*
X7841071Y-15983929D01*
X7841071Y-15912500D01*
X7855357Y-15855357D01*
X7869643Y-15826786D01*
X7883928Y-15812500D01*
X7912500Y-15798214D01*
X8141071Y-16069643D02*
X8155357Y-16083929D01*
X8141071Y-16098214D01*
X8126786Y-16083929D01*
X8141071Y-16069643D01*
X8141071Y-16098214D01*
X8341071Y-15798214D02*
X8369643Y-15798214D01*
X8398214Y-15812500D01*
X8412500Y-15826786D01*
X8426786Y-15855357D01*
X8441071Y-15912500D01*
X8441071Y-15983929D01*
X8426786Y-16041071D01*
X8412500Y-16069643D01*
X8398214Y-16083929D01*
X8369643Y-16098214D01*
X8341071Y-16098214D01*
X8312500Y-16083929D01*
X8298214Y-16069643D01*
X8283928Y-16041071D01*
X8269643Y-15983929D01*
X8269643Y-15912500D01*
X8283928Y-15855357D01*
X8298214Y-15826786D01*
X8312500Y-15812500D01*
X8341071Y-15798214D01*
X8726786Y-16098214D02*
X8555357Y-16098214D01*
X8641071Y-16098214D02*
X8641071Y-15798214D01*
X8612500Y-15841071D01*
X8583928Y-15869643D01*
X8555357Y-15883929D01*
X8983928Y-15798214D02*
X8926786Y-15798214D01*
X8898214Y-15812500D01*
X8883928Y-15826786D01*
X8855357Y-15869643D01*
X8841071Y-15926786D01*
X8841071Y-16041071D01*
X8855357Y-16069643D01*
X8869643Y-16083929D01*
X8898214Y-16098214D01*
X8955357Y-16098214D01*
X8983928Y-16083929D01*
X8998214Y-16069643D01*
X9012500Y-16041071D01*
X9012500Y-15969643D01*
X8998214Y-15941071D01*
X8983928Y-15926786D01*
X8955357Y-15912500D01*
X8898214Y-15912500D01*
X8869643Y-15926786D01*
X8855357Y-15941071D01*
X8841071Y-15969643D01*
X9126786Y-15798214D02*
X9126786Y-15855357D01*
X9241071Y-15798214D02*
X9241071Y-15855357D01*
X9683928Y-16212500D02*
X9669643Y-16198214D01*
X9641071Y-16155357D01*
X9626786Y-16126786D01*
X9612500Y-16083929D01*
X9598214Y-16012500D01*
X9598214Y-15955357D01*
X9612500Y-15883929D01*
X9626786Y-15841071D01*
X9641071Y-15812500D01*
X9669643Y-15769643D01*
X9683928Y-15755357D01*
X9783928Y-15826786D02*
X9798214Y-15812500D01*
X9826786Y-15798214D01*
X9898214Y-15798214D01*
X9926786Y-15812500D01*
X9941071Y-15826786D01*
X9955357Y-15855357D01*
X9955357Y-15883929D01*
X9941071Y-15926786D01*
X9769643Y-16098214D01*
X9955357Y-16098214D01*
X10098214Y-16098214D02*
X10155357Y-16098214D01*
X10183928Y-16083929D01*
X10198214Y-16069643D01*
X10226786Y-16026786D01*
X10241071Y-15969643D01*
X10241071Y-15855357D01*
X10226786Y-15826786D01*
X10212500Y-15812500D01*
X10183928Y-15798214D01*
X10126786Y-15798214D01*
X10098214Y-15812500D01*
X10083928Y-15826786D01*
X10069643Y-15855357D01*
X10069643Y-15926786D01*
X10083928Y-15955357D01*
X10098214Y-15969643D01*
X10126786Y-15983929D01*
X10183928Y-15983929D01*
X10212500Y-15969643D01*
X10226786Y-15955357D01*
X10241071Y-15926786D01*
X10426786Y-15798214D02*
X10455357Y-15798214D01*
X10483928Y-15812500D01*
X10498214Y-15826786D01*
X10512500Y-15855357D01*
X10526786Y-15912500D01*
X10526786Y-15983929D01*
X10512500Y-16041071D01*
X10498214Y-16069643D01*
X10483928Y-16083929D01*
X10455357Y-16098214D01*
X10426786Y-16098214D01*
X10398214Y-16083929D01*
X10383928Y-16069643D01*
X10369643Y-16041071D01*
X10355357Y-15983929D01*
X10355357Y-15912500D01*
X10369643Y-15855357D01*
X10383928Y-15826786D01*
X10398214Y-15812500D01*
X10426786Y-15798214D01*
X10883928Y-16098214D02*
X10883928Y-15798214D01*
X11012500Y-16098214D02*
X11012500Y-15941071D01*
X10998214Y-15912500D01*
X10969643Y-15898214D01*
X10926786Y-15898214D01*
X10898214Y-15912500D01*
X10883928Y-15926786D01*
X11198214Y-16098214D02*
X11169643Y-16083929D01*
X11155357Y-16069643D01*
X11141071Y-16041071D01*
X11141071Y-15955357D01*
X11155357Y-15926786D01*
X11169643Y-15912500D01*
X11198214Y-15898214D01*
X11241071Y-15898214D01*
X11269643Y-15912500D01*
X11283928Y-15926786D01*
X11298214Y-15955357D01*
X11298214Y-16041071D01*
X11283928Y-16069643D01*
X11269643Y-16083929D01*
X11241071Y-16098214D01*
X11198214Y-16098214D01*
X11469643Y-16098214D02*
X11441071Y-16083929D01*
X11426786Y-16055357D01*
X11426786Y-15798214D01*
X11698214Y-16083929D02*
X11669643Y-16098214D01*
X11612500Y-16098214D01*
X11583928Y-16083929D01*
X11569643Y-16055357D01*
X11569643Y-15941071D01*
X11583928Y-15912500D01*
X11612500Y-15898214D01*
X11669643Y-15898214D01*
X11698214Y-15912500D01*
X11712500Y-15941071D01*
X11712500Y-15969643D01*
X11569643Y-15998214D01*
X11826786Y-16083929D02*
X11855357Y-16098214D01*
X11912500Y-16098214D01*
X11941071Y-16083929D01*
X11955357Y-16055357D01*
X11955357Y-16041071D01*
X11941071Y-16012500D01*
X11912500Y-15998214D01*
X11869643Y-15998214D01*
X11841071Y-15983929D01*
X11826786Y-15955357D01*
X11826786Y-15941071D01*
X11841071Y-15912500D01*
X11869643Y-15898214D01*
X11912500Y-15898214D01*
X11941071Y-15912500D01*
X12055357Y-16212500D02*
X12069643Y-16198214D01*
X12098214Y-16155357D01*
X12112500Y-16126786D01*
X12126786Y-16083929D01*
X12141071Y-16012500D01*
X12141071Y-15955357D01*
X12126786Y-15883929D01*
X12112500Y-15841071D01*
X12098214Y-15812500D01*
X12069643Y-15769643D01*
X12055357Y-15755357D01*
X4997500Y-16358500D02*
G75*
G03*
X4997500Y-16358500I-30000J0D01*
G01*
X5341071Y-16194214D02*
X5369643Y-16194214D01*
X5398214Y-16208500D01*
X5412500Y-16222786D01*
X5426786Y-16251357D01*
X5441071Y-16308500D01*
X5441071Y-16379929D01*
X5426786Y-16437071D01*
X5412500Y-16465643D01*
X5398214Y-16479929D01*
X5369643Y-16494214D01*
X5341071Y-16494214D01*
X5312500Y-16479929D01*
X5298214Y-16465643D01*
X5283928Y-16437071D01*
X5269643Y-16379929D01*
X5269643Y-16308500D01*
X5283928Y-16251357D01*
X5298214Y-16222786D01*
X5312500Y-16208500D01*
X5341071Y-16194214D01*
X5569643Y-16465643D02*
X5583928Y-16479929D01*
X5569643Y-16494214D01*
X5555357Y-16479929D01*
X5569643Y-16465643D01*
X5569643Y-16494214D01*
X5841071Y-16194214D02*
X5783928Y-16194214D01*
X5755357Y-16208500D01*
X5741071Y-16222786D01*
X5712500Y-16265643D01*
X5698214Y-16322786D01*
X5698214Y-16437071D01*
X5712500Y-16465643D01*
X5726786Y-16479929D01*
X5755357Y-16494214D01*
X5812500Y-16494214D01*
X5841071Y-16479929D01*
X5855357Y-16465643D01*
X5869643Y-16437071D01*
X5869643Y-16365643D01*
X5855357Y-16337071D01*
X5841071Y-16322786D01*
X5812500Y-16308500D01*
X5755357Y-16308500D01*
X5726786Y-16322786D01*
X5712500Y-16337071D01*
X5698214Y-16365643D01*
X6055357Y-16194214D02*
X6083928Y-16194214D01*
X6112500Y-16208500D01*
X6126786Y-16222786D01*
X6141071Y-16251357D01*
X6155357Y-16308500D01*
X6155357Y-16379929D01*
X6141071Y-16437071D01*
X6126786Y-16465643D01*
X6112500Y-16479929D01*
X6083928Y-16494214D01*
X6055357Y-16494214D01*
X6026786Y-16479929D01*
X6012500Y-16465643D01*
X5998214Y-16437071D01*
X5983928Y-16379929D01*
X5983928Y-16308500D01*
X5998214Y-16251357D01*
X6012500Y-16222786D01*
X6026786Y-16208500D01*
X6055357Y-16194214D01*
X6283928Y-16494214D02*
X6283928Y-16294214D01*
X6283928Y-16322786D02*
X6298214Y-16308500D01*
X6326786Y-16294214D01*
X6369643Y-16294214D01*
X6398214Y-16308500D01*
X6412500Y-16337071D01*
X6412500Y-16494214D01*
X6412500Y-16337071D02*
X6426786Y-16308500D01*
X6455357Y-16294214D01*
X6498214Y-16294214D01*
X6526786Y-16308500D01*
X6541071Y-16337071D01*
X6541071Y-16494214D01*
X6683928Y-16494214D02*
X6683928Y-16294214D01*
X6683928Y-16322786D02*
X6698214Y-16308500D01*
X6726786Y-16294214D01*
X6769643Y-16294214D01*
X6798214Y-16308500D01*
X6812500Y-16337071D01*
X6812500Y-16494214D01*
X6812500Y-16337071D02*
X6826786Y-16308500D01*
X6855357Y-16294214D01*
X6898214Y-16294214D01*
X6926786Y-16308500D01*
X6941071Y-16337071D01*
X6941071Y-16494214D01*
X7526786Y-16179929D02*
X7269643Y-16565643D01*
X7912500Y-16194214D02*
X7941071Y-16194214D01*
X7969643Y-16208500D01*
X7983928Y-16222786D01*
X7998214Y-16251357D01*
X8012500Y-16308500D01*
X8012500Y-16379929D01*
X7998214Y-16437071D01*
X7983928Y-16465643D01*
X7969643Y-16479929D01*
X7941071Y-16494214D01*
X7912500Y-16494214D01*
X7883928Y-16479929D01*
X7869643Y-16465643D01*
X7855357Y-16437071D01*
X7841071Y-16379929D01*
X7841071Y-16308500D01*
X7855357Y-16251357D01*
X7869643Y-16222786D01*
X7883928Y-16208500D01*
X7912500Y-16194214D01*
X8141071Y-16465643D02*
X8155357Y-16479929D01*
X8141071Y-16494214D01*
X8126786Y-16479929D01*
X8141071Y-16465643D01*
X8141071Y-16494214D01*
X8341071Y-16194214D02*
X8369643Y-16194214D01*
X8398214Y-16208500D01*
X8412500Y-16222786D01*
X8426786Y-16251357D01*
X8441071Y-16308500D01*
X8441071Y-16379929D01*
X8426786Y-16437071D01*
X8412500Y-16465643D01*
X8398214Y-16479929D01*
X8369643Y-16494214D01*
X8341071Y-16494214D01*
X8312500Y-16479929D01*
X8298214Y-16465643D01*
X8283928Y-16437071D01*
X8269643Y-16379929D01*
X8269643Y-16308500D01*
X8283928Y-16251357D01*
X8298214Y-16222786D01*
X8312500Y-16208500D01*
X8341071Y-16194214D01*
X8555357Y-16222786D02*
X8569643Y-16208500D01*
X8598214Y-16194214D01*
X8669643Y-16194214D01*
X8698214Y-16208500D01*
X8712500Y-16222786D01*
X8726786Y-16251357D01*
X8726786Y-16279929D01*
X8712500Y-16322786D01*
X8541071Y-16494214D01*
X8726786Y-16494214D01*
X8983928Y-16294214D02*
X8983928Y-16494214D01*
X8912500Y-16179929D02*
X8841071Y-16394214D01*
X9026786Y-16394214D01*
X9126786Y-16194214D02*
X9126786Y-16251357D01*
X9241071Y-16194214D02*
X9241071Y-16251357D01*
X9683928Y-16608500D02*
X9669643Y-16594214D01*
X9641071Y-16551357D01*
X9626786Y-16522786D01*
X9612500Y-16479929D01*
X9598214Y-16408500D01*
X9598214Y-16351357D01*
X9612500Y-16279929D01*
X9626786Y-16237071D01*
X9641071Y-16208500D01*
X9669643Y-16165643D01*
X9683928Y-16151357D01*
X9955357Y-16494214D02*
X9783928Y-16494214D01*
X9869643Y-16494214D02*
X9869643Y-16194214D01*
X9841071Y-16237071D01*
X9812500Y-16265643D01*
X9783928Y-16279929D01*
X10141071Y-16194214D02*
X10169643Y-16194214D01*
X10198214Y-16208500D01*
X10212500Y-16222786D01*
X10226786Y-16251357D01*
X10241071Y-16308500D01*
X10241071Y-16379929D01*
X10226786Y-16437071D01*
X10212500Y-16465643D01*
X10198214Y-16479929D01*
X10169643Y-16494214D01*
X10141071Y-16494214D01*
X10112500Y-16479929D01*
X10098214Y-16465643D01*
X10083928Y-16437071D01*
X10069643Y-16379929D01*
X10069643Y-16308500D01*
X10083928Y-16251357D01*
X10098214Y-16222786D01*
X10112500Y-16208500D01*
X10141071Y-16194214D01*
X10598214Y-16494214D02*
X10598214Y-16194214D01*
X10726786Y-16494214D02*
X10726786Y-16337071D01*
X10712500Y-16308500D01*
X10683928Y-16294214D01*
X10641071Y-16294214D01*
X10612500Y-16308500D01*
X10598214Y-16322786D01*
X10912500Y-16494214D02*
X10883928Y-16479929D01*
X10869643Y-16465643D01*
X10855357Y-16437071D01*
X10855357Y-16351357D01*
X10869643Y-16322786D01*
X10883928Y-16308500D01*
X10912500Y-16294214D01*
X10955357Y-16294214D01*
X10983928Y-16308500D01*
X10998214Y-16322786D01*
X11012500Y-16351357D01*
X11012500Y-16437071D01*
X10998214Y-16465643D01*
X10983928Y-16479929D01*
X10955357Y-16494214D01*
X10912500Y-16494214D01*
X11183928Y-16494214D02*
X11155357Y-16479929D01*
X11141071Y-16451357D01*
X11141071Y-16194214D01*
X11412500Y-16479929D02*
X11383928Y-16494214D01*
X11326786Y-16494214D01*
X11298214Y-16479929D01*
X11283928Y-16451357D01*
X11283928Y-16337071D01*
X11298214Y-16308500D01*
X11326786Y-16294214D01*
X11383928Y-16294214D01*
X11412500Y-16308500D01*
X11426786Y-16337071D01*
X11426786Y-16365643D01*
X11283928Y-16394214D01*
X11541071Y-16479929D02*
X11569643Y-16494214D01*
X11626786Y-16494214D01*
X11655357Y-16479929D01*
X11669643Y-16451357D01*
X11669643Y-16437071D01*
X11655357Y-16408500D01*
X11626786Y-16394214D01*
X11583928Y-16394214D01*
X11555357Y-16379929D01*
X11541071Y-16351357D01*
X11541071Y-16337071D01*
X11555357Y-16308500D01*
X11583928Y-16294214D01*
X11626786Y-16294214D01*
X11655357Y-16308500D01*
X11769643Y-16608500D02*
X11783928Y-16594214D01*
X11812500Y-16551357D01*
X11826786Y-16522786D01*
X11841071Y-16479929D01*
X11855357Y-16408500D01*
X11855357Y-16351357D01*
X11841071Y-16279929D01*
X11826786Y-16237071D01*
X11812500Y-16208500D01*
X11783928Y-16165643D01*
X11769643Y-16151357D01*
X4957500Y-16714500D02*
X4957500Y-16794500D01*
X4917500Y-16754500D02*
X4997500Y-16754500D01*
X5341071Y-16590214D02*
X5369643Y-16590214D01*
X5398214Y-16604500D01*
X5412500Y-16618786D01*
X5426786Y-16647357D01*
X5441071Y-16704500D01*
X5441071Y-16775929D01*
X5426786Y-16833072D01*
X5412500Y-16861643D01*
X5398214Y-16875929D01*
X5369643Y-16890214D01*
X5341071Y-16890214D01*
X5312500Y-16875929D01*
X5298214Y-16861643D01*
X5283928Y-16833072D01*
X5269643Y-16775929D01*
X5269643Y-16704500D01*
X5283928Y-16647357D01*
X5298214Y-16618786D01*
X5312500Y-16604500D01*
X5341071Y-16590214D01*
X5569643Y-16861643D02*
X5583928Y-16875929D01*
X5569643Y-16890214D01*
X5555357Y-16875929D01*
X5569643Y-16861643D01*
X5569643Y-16890214D01*
X5755357Y-16718786D02*
X5726786Y-16704500D01*
X5712500Y-16690214D01*
X5698214Y-16661643D01*
X5698214Y-16647357D01*
X5712500Y-16618786D01*
X5726786Y-16604500D01*
X5755357Y-16590214D01*
X5812500Y-16590214D01*
X5841071Y-16604500D01*
X5855357Y-16618786D01*
X5869643Y-16647357D01*
X5869643Y-16661643D01*
X5855357Y-16690214D01*
X5841071Y-16704500D01*
X5812500Y-16718786D01*
X5755357Y-16718786D01*
X5726786Y-16733071D01*
X5712500Y-16747357D01*
X5698214Y-16775929D01*
X5698214Y-16833072D01*
X5712500Y-16861643D01*
X5726786Y-16875929D01*
X5755357Y-16890214D01*
X5812500Y-16890214D01*
X5841071Y-16875929D01*
X5855357Y-16861643D01*
X5869643Y-16833072D01*
X5869643Y-16775929D01*
X5855357Y-16747357D01*
X5841071Y-16733071D01*
X5812500Y-16718786D01*
X6055357Y-16590214D02*
X6083928Y-16590214D01*
X6112500Y-16604500D01*
X6126786Y-16618786D01*
X6141071Y-16647357D01*
X6155357Y-16704500D01*
X6155357Y-16775929D01*
X6141071Y-16833072D01*
X6126786Y-16861643D01*
X6112500Y-16875929D01*
X6083928Y-16890214D01*
X6055357Y-16890214D01*
X6026786Y-16875929D01*
X6012500Y-16861643D01*
X5998214Y-16833072D01*
X5983928Y-16775929D01*
X5983928Y-16704500D01*
X5998214Y-16647357D01*
X6012500Y-16618786D01*
X6026786Y-16604500D01*
X6055357Y-16590214D01*
X6283928Y-16890214D02*
X6283928Y-16690214D01*
X6283928Y-16718786D02*
X6298214Y-16704500D01*
X6326786Y-16690214D01*
X6369643Y-16690214D01*
X6398214Y-16704500D01*
X6412500Y-16733071D01*
X6412500Y-16890214D01*
X6412500Y-16733071D02*
X6426786Y-16704500D01*
X6455357Y-16690214D01*
X6498214Y-16690214D01*
X6526786Y-16704500D01*
X6541071Y-16733071D01*
X6541071Y-16890214D01*
X6683928Y-16890214D02*
X6683928Y-16690214D01*
X6683928Y-16718786D02*
X6698214Y-16704500D01*
X6726786Y-16690214D01*
X6769643Y-16690214D01*
X6798214Y-16704500D01*
X6812500Y-16733071D01*
X6812500Y-16890214D01*
X6812500Y-16733071D02*
X6826786Y-16704500D01*
X6855357Y-16690214D01*
X6898214Y-16690214D01*
X6926786Y-16704500D01*
X6941071Y-16733071D01*
X6941071Y-16890214D01*
X7526786Y-16575929D02*
X7269643Y-16961643D01*
X7912500Y-16590214D02*
X7941071Y-16590214D01*
X7969643Y-16604500D01*
X7983928Y-16618786D01*
X7998214Y-16647357D01*
X8012500Y-16704500D01*
X8012500Y-16775929D01*
X7998214Y-16833072D01*
X7983928Y-16861643D01*
X7969643Y-16875929D01*
X7941071Y-16890214D01*
X7912500Y-16890214D01*
X7883928Y-16875929D01*
X7869643Y-16861643D01*
X7855357Y-16833072D01*
X7841071Y-16775929D01*
X7841071Y-16704500D01*
X7855357Y-16647357D01*
X7869643Y-16618786D01*
X7883928Y-16604500D01*
X7912500Y-16590214D01*
X8141071Y-16861643D02*
X8155357Y-16875929D01*
X8141071Y-16890214D01*
X8126786Y-16875929D01*
X8141071Y-16861643D01*
X8141071Y-16890214D01*
X8341071Y-16590214D02*
X8369643Y-16590214D01*
X8398214Y-16604500D01*
X8412500Y-16618786D01*
X8426786Y-16647357D01*
X8441071Y-16704500D01*
X8441071Y-16775929D01*
X8426786Y-16833072D01*
X8412500Y-16861643D01*
X8398214Y-16875929D01*
X8369643Y-16890214D01*
X8341071Y-16890214D01*
X8312500Y-16875929D01*
X8298214Y-16861643D01*
X8283928Y-16833072D01*
X8269643Y-16775929D01*
X8269643Y-16704500D01*
X8283928Y-16647357D01*
X8298214Y-16618786D01*
X8312500Y-16604500D01*
X8341071Y-16590214D01*
X8541071Y-16590214D02*
X8726786Y-16590214D01*
X8626786Y-16704500D01*
X8669643Y-16704500D01*
X8698214Y-16718786D01*
X8712500Y-16733071D01*
X8726786Y-16761643D01*
X8726786Y-16833072D01*
X8712500Y-16861643D01*
X8698214Y-16875929D01*
X8669643Y-16890214D01*
X8583928Y-16890214D01*
X8555357Y-16875929D01*
X8541071Y-16861643D01*
X9012500Y-16890214D02*
X8841071Y-16890214D01*
X8926786Y-16890214D02*
X8926786Y-16590214D01*
X8898214Y-16633071D01*
X8869643Y-16661643D01*
X8841071Y-16675929D01*
X9126786Y-16590214D02*
X9126786Y-16647357D01*
X9241071Y-16590214D02*
X9241071Y-16647357D01*
X9683928Y-17004500D02*
X9669643Y-16990214D01*
X9641071Y-16947357D01*
X9626786Y-16918786D01*
X9612500Y-16875929D01*
X9598214Y-16804500D01*
X9598214Y-16747357D01*
X9612500Y-16675929D01*
X9626786Y-16633071D01*
X9641071Y-16604500D01*
X9669643Y-16561643D01*
X9683928Y-16547357D01*
X9926786Y-16690214D02*
X9926786Y-16890214D01*
X9855357Y-16575929D02*
X9783928Y-16790214D01*
X9969643Y-16790214D01*
X10312500Y-16890214D02*
X10312500Y-16590214D01*
X10441071Y-16890214D02*
X10441071Y-16733071D01*
X10426786Y-16704500D01*
X10398214Y-16690214D01*
X10355357Y-16690214D01*
X10326786Y-16704500D01*
X10312500Y-16718786D01*
X10626786Y-16890214D02*
X10598214Y-16875929D01*
X10583928Y-16861643D01*
X10569643Y-16833072D01*
X10569643Y-16747357D01*
X10583928Y-16718786D01*
X10598214Y-16704500D01*
X10626786Y-16690214D01*
X10669643Y-16690214D01*
X10698214Y-16704500D01*
X10712500Y-16718786D01*
X10726786Y-16747357D01*
X10726786Y-16833072D01*
X10712500Y-16861643D01*
X10698214Y-16875929D01*
X10669643Y-16890214D01*
X10626786Y-16890214D01*
X10898214Y-16890214D02*
X10869643Y-16875929D01*
X10855357Y-16847357D01*
X10855357Y-16590214D01*
X11126786Y-16875929D02*
X11098214Y-16890214D01*
X11041071Y-16890214D01*
X11012500Y-16875929D01*
X10998214Y-16847357D01*
X10998214Y-16733071D01*
X11012500Y-16704500D01*
X11041071Y-16690214D01*
X11098214Y-16690214D01*
X11126786Y-16704500D01*
X11141071Y-16733071D01*
X11141071Y-16761643D01*
X10998214Y-16790214D01*
X11255357Y-16875929D02*
X11283928Y-16890214D01*
X11341071Y-16890214D01*
X11369643Y-16875929D01*
X11383928Y-16847357D01*
X11383928Y-16833072D01*
X11369643Y-16804500D01*
X11341071Y-16790214D01*
X11298214Y-16790214D01*
X11269643Y-16775929D01*
X11255357Y-16747357D01*
X11255357Y-16733071D01*
X11269643Y-16704500D01*
X11298214Y-16690214D01*
X11341071Y-16690214D01*
X11369643Y-16704500D01*
X11483928Y-17004500D02*
X11498214Y-16990214D01*
X11526786Y-16947357D01*
X11541071Y-16918786D01*
X11555357Y-16875929D01*
X11569643Y-16804500D01*
X11569643Y-16747357D01*
X11555357Y-16675929D01*
X11541071Y-16633071D01*
X11526786Y-16604500D01*
X11498214Y-16561643D01*
X11483928Y-16547357D01*
X4983588Y-17184088D02*
X4983588Y-17116912D01*
X4916412Y-17116912D01*
X4916412Y-17184088D01*
X4983588Y-17184088D01*
X5341071Y-16986214D02*
X5369643Y-16986214D01*
X5398214Y-17000500D01*
X5412500Y-17014786D01*
X5426786Y-17043357D01*
X5441071Y-17100500D01*
X5441071Y-17171929D01*
X5426786Y-17229072D01*
X5412500Y-17257643D01*
X5398214Y-17271929D01*
X5369643Y-17286214D01*
X5341071Y-17286214D01*
X5312500Y-17271929D01*
X5298214Y-17257643D01*
X5283928Y-17229072D01*
X5269643Y-17171929D01*
X5269643Y-17100500D01*
X5283928Y-17043357D01*
X5298214Y-17014786D01*
X5312500Y-17000500D01*
X5341071Y-16986214D01*
X5569643Y-17257643D02*
X5583928Y-17271929D01*
X5569643Y-17286214D01*
X5555357Y-17271929D01*
X5569643Y-17257643D01*
X5569643Y-17286214D01*
X5726786Y-17286214D02*
X5783928Y-17286214D01*
X5812500Y-17271929D01*
X5826786Y-17257643D01*
X5855357Y-17214786D01*
X5869643Y-17157643D01*
X5869643Y-17043357D01*
X5855357Y-17014786D01*
X5841071Y-17000500D01*
X5812500Y-16986214D01*
X5755357Y-16986214D01*
X5726786Y-17000500D01*
X5712500Y-17014786D01*
X5698214Y-17043357D01*
X5698214Y-17114786D01*
X5712500Y-17143357D01*
X5726786Y-17157643D01*
X5755357Y-17171929D01*
X5812500Y-17171929D01*
X5841071Y-17157643D01*
X5855357Y-17143357D01*
X5869643Y-17114786D01*
X6141071Y-16986214D02*
X5998214Y-16986214D01*
X5983928Y-17129072D01*
X5998214Y-17114786D01*
X6026786Y-17100500D01*
X6098214Y-17100500D01*
X6126786Y-17114786D01*
X6141071Y-17129072D01*
X6155357Y-17157643D01*
X6155357Y-17229072D01*
X6141071Y-17257643D01*
X6126786Y-17271929D01*
X6098214Y-17286214D01*
X6026786Y-17286214D01*
X5998214Y-17271929D01*
X5983928Y-17257643D01*
X6283928Y-17286214D02*
X6283928Y-17086214D01*
X6283928Y-17114786D02*
X6298214Y-17100500D01*
X6326786Y-17086214D01*
X6369643Y-17086214D01*
X6398214Y-17100500D01*
X6412500Y-17129072D01*
X6412500Y-17286214D01*
X6412500Y-17129072D02*
X6426786Y-17100500D01*
X6455357Y-17086214D01*
X6498214Y-17086214D01*
X6526786Y-17100500D01*
X6541071Y-17129072D01*
X6541071Y-17286214D01*
X6683928Y-17286214D02*
X6683928Y-17086214D01*
X6683928Y-17114786D02*
X6698214Y-17100500D01*
X6726786Y-17086214D01*
X6769643Y-17086214D01*
X6798214Y-17100500D01*
X6812500Y-17129072D01*
X6812500Y-17286214D01*
X6812500Y-17129072D02*
X6826786Y-17100500D01*
X6855357Y-17086214D01*
X6898214Y-17086214D01*
X6926786Y-17100500D01*
X6941071Y-17129072D01*
X6941071Y-17286214D01*
X7526786Y-16971929D02*
X7269643Y-17357643D01*
X7912500Y-16986214D02*
X7941071Y-16986214D01*
X7969643Y-17000500D01*
X7983928Y-17014786D01*
X7998214Y-17043357D01*
X8012500Y-17100500D01*
X8012500Y-17171929D01*
X7998214Y-17229072D01*
X7983928Y-17257643D01*
X7969643Y-17271929D01*
X7941071Y-17286214D01*
X7912500Y-17286214D01*
X7883928Y-17271929D01*
X7869643Y-17257643D01*
X7855357Y-17229072D01*
X7841071Y-17171929D01*
X7841071Y-17100500D01*
X7855357Y-17043357D01*
X7869643Y-17014786D01*
X7883928Y-17000500D01*
X7912500Y-16986214D01*
X8141071Y-17257643D02*
X8155357Y-17271929D01*
X8141071Y-17286214D01*
X8126786Y-17271929D01*
X8141071Y-17257643D01*
X8141071Y-17286214D01*
X8341071Y-16986214D02*
X8369643Y-16986214D01*
X8398214Y-17000500D01*
X8412500Y-17014786D01*
X8426786Y-17043357D01*
X8441071Y-17100500D01*
X8441071Y-17171929D01*
X8426786Y-17229072D01*
X8412500Y-17257643D01*
X8398214Y-17271929D01*
X8369643Y-17286214D01*
X8341071Y-17286214D01*
X8312500Y-17271929D01*
X8298214Y-17257643D01*
X8283928Y-17229072D01*
X8269643Y-17171929D01*
X8269643Y-17100500D01*
X8283928Y-17043357D01*
X8298214Y-17014786D01*
X8312500Y-17000500D01*
X8341071Y-16986214D01*
X8541071Y-16986214D02*
X8726786Y-16986214D01*
X8626786Y-17100500D01*
X8669643Y-17100500D01*
X8698214Y-17114786D01*
X8712500Y-17129072D01*
X8726786Y-17157643D01*
X8726786Y-17229072D01*
X8712500Y-17257643D01*
X8698214Y-17271929D01*
X8669643Y-17286214D01*
X8583928Y-17286214D01*
X8555357Y-17271929D01*
X8541071Y-17257643D01*
X8826786Y-16986214D02*
X9026786Y-16986214D01*
X8898214Y-17286214D01*
X9126786Y-16986214D02*
X9126786Y-17043357D01*
X9241071Y-16986214D02*
X9241071Y-17043357D01*
X9683928Y-17400500D02*
X9669643Y-17386214D01*
X9641071Y-17343357D01*
X9626786Y-17314786D01*
X9612500Y-17271929D01*
X9598214Y-17200500D01*
X9598214Y-17143357D01*
X9612500Y-17071929D01*
X9626786Y-17029072D01*
X9641071Y-17000500D01*
X9669643Y-16957643D01*
X9683928Y-16943357D01*
X9926786Y-17086214D02*
X9926786Y-17286214D01*
X9855357Y-16971929D02*
X9783928Y-17186214D01*
X9969643Y-17186214D01*
X10312500Y-17286214D02*
X10312500Y-16986214D01*
X10441071Y-17286214D02*
X10441071Y-17129072D01*
X10426786Y-17100500D01*
X10398214Y-17086214D01*
X10355357Y-17086214D01*
X10326786Y-17100500D01*
X10312500Y-17114786D01*
X10626786Y-17286214D02*
X10598214Y-17271929D01*
X10583928Y-17257643D01*
X10569643Y-17229072D01*
X10569643Y-17143357D01*
X10583928Y-17114786D01*
X10598214Y-17100500D01*
X10626786Y-17086214D01*
X10669643Y-17086214D01*
X10698214Y-17100500D01*
X10712500Y-17114786D01*
X10726786Y-17143357D01*
X10726786Y-17229072D01*
X10712500Y-17257643D01*
X10698214Y-17271929D01*
X10669643Y-17286214D01*
X10626786Y-17286214D01*
X10898214Y-17286214D02*
X10869643Y-17271929D01*
X10855357Y-17243357D01*
X10855357Y-16986214D01*
X11126786Y-17271929D02*
X11098214Y-17286214D01*
X11041071Y-17286214D01*
X11012500Y-17271929D01*
X10998214Y-17243357D01*
X10998214Y-17129072D01*
X11012500Y-17100500D01*
X11041071Y-17086214D01*
X11098214Y-17086214D01*
X11126786Y-17100500D01*
X11141071Y-17129072D01*
X11141071Y-17157643D01*
X10998214Y-17186214D01*
X11255357Y-17271929D02*
X11283928Y-17286214D01*
X11341071Y-17286214D01*
X11369643Y-17271929D01*
X11383928Y-17243357D01*
X11383928Y-17229072D01*
X11369643Y-17200500D01*
X11341071Y-17186214D01*
X11298214Y-17186214D01*
X11269643Y-17171929D01*
X11255357Y-17143357D01*
X11255357Y-17129072D01*
X11269643Y-17100500D01*
X11298214Y-17086214D01*
X11341071Y-17086214D01*
X11369643Y-17100500D01*
X11483928Y-17400500D02*
X11498214Y-17386214D01*
X11526786Y-17343357D01*
X11541071Y-17314786D01*
X11555357Y-17271929D01*
X11569643Y-17200500D01*
X11569643Y-17143357D01*
X11555357Y-17071929D01*
X11541071Y-17029072D01*
X11526786Y-17000500D01*
X11498214Y-16957643D01*
X11483928Y-16943357D01*
X4947500Y-17596500D02*
X4997500Y-17546500D01*
X4947500Y-17496500D01*
X4897500Y-17546500D01*
X4947500Y-17596500D01*
X5441071Y-17682214D02*
X5269643Y-17682214D01*
X5355357Y-17682214D02*
X5355357Y-17382214D01*
X5326786Y-17425072D01*
X5298214Y-17453643D01*
X5269643Y-17467929D01*
X5569643Y-17653643D02*
X5583928Y-17667929D01*
X5569643Y-17682214D01*
X5555357Y-17667929D01*
X5569643Y-17653643D01*
X5569643Y-17682214D01*
X5769643Y-17382214D02*
X5798214Y-17382214D01*
X5826786Y-17396500D01*
X5841071Y-17410786D01*
X5855357Y-17439357D01*
X5869643Y-17496500D01*
X5869643Y-17567929D01*
X5855357Y-17625072D01*
X5841071Y-17653643D01*
X5826786Y-17667929D01*
X5798214Y-17682214D01*
X5769643Y-17682214D01*
X5741071Y-17667929D01*
X5726786Y-17653643D01*
X5712500Y-17625072D01*
X5698214Y-17567929D01*
X5698214Y-17496500D01*
X5712500Y-17439357D01*
X5726786Y-17410786D01*
X5741071Y-17396500D01*
X5769643Y-17382214D01*
X6055357Y-17382214D02*
X6083928Y-17382214D01*
X6112500Y-17396500D01*
X6126786Y-17410786D01*
X6141071Y-17439357D01*
X6155357Y-17496500D01*
X6155357Y-17567929D01*
X6141071Y-17625072D01*
X6126786Y-17653643D01*
X6112500Y-17667929D01*
X6083928Y-17682214D01*
X6055357Y-17682214D01*
X6026786Y-17667929D01*
X6012500Y-17653643D01*
X5998214Y-17625072D01*
X5983928Y-17567929D01*
X5983928Y-17496500D01*
X5998214Y-17439357D01*
X6012500Y-17410786D01*
X6026786Y-17396500D01*
X6055357Y-17382214D01*
X6283928Y-17682214D02*
X6283928Y-17482214D01*
X6283928Y-17510786D02*
X6298214Y-17496500D01*
X6326786Y-17482214D01*
X6369643Y-17482214D01*
X6398214Y-17496500D01*
X6412500Y-17525072D01*
X6412500Y-17682214D01*
X6412500Y-17525072D02*
X6426786Y-17496500D01*
X6455357Y-17482214D01*
X6498214Y-17482214D01*
X6526786Y-17496500D01*
X6541071Y-17525072D01*
X6541071Y-17682214D01*
X6683928Y-17682214D02*
X6683928Y-17482214D01*
X6683928Y-17510786D02*
X6698214Y-17496500D01*
X6726786Y-17482214D01*
X6769643Y-17482214D01*
X6798214Y-17496500D01*
X6812500Y-17525072D01*
X6812500Y-17682214D01*
X6812500Y-17525072D02*
X6826786Y-17496500D01*
X6855357Y-17482214D01*
X6898214Y-17482214D01*
X6926786Y-17496500D01*
X6941071Y-17525072D01*
X6941071Y-17682214D01*
X7526786Y-17367929D02*
X7269643Y-17753643D01*
X7912500Y-17382214D02*
X7941071Y-17382214D01*
X7969643Y-17396500D01*
X7983928Y-17410786D01*
X7998214Y-17439357D01*
X8012500Y-17496500D01*
X8012500Y-17567929D01*
X7998214Y-17625072D01*
X7983928Y-17653643D01*
X7969643Y-17667929D01*
X7941071Y-17682214D01*
X7912500Y-17682214D01*
X7883928Y-17667929D01*
X7869643Y-17653643D01*
X7855357Y-17625072D01*
X7841071Y-17567929D01*
X7841071Y-17496500D01*
X7855357Y-17439357D01*
X7869643Y-17410786D01*
X7883928Y-17396500D01*
X7912500Y-17382214D01*
X8141071Y-17653643D02*
X8155357Y-17667929D01*
X8141071Y-17682214D01*
X8126786Y-17667929D01*
X8141071Y-17653643D01*
X8141071Y-17682214D01*
X8341071Y-17382214D02*
X8369643Y-17382214D01*
X8398214Y-17396500D01*
X8412500Y-17410786D01*
X8426786Y-17439357D01*
X8441071Y-17496500D01*
X8441071Y-17567929D01*
X8426786Y-17625072D01*
X8412500Y-17653643D01*
X8398214Y-17667929D01*
X8369643Y-17682214D01*
X8341071Y-17682214D01*
X8312500Y-17667929D01*
X8298214Y-17653643D01*
X8283928Y-17625072D01*
X8269643Y-17567929D01*
X8269643Y-17496500D01*
X8283928Y-17439357D01*
X8298214Y-17410786D01*
X8312500Y-17396500D01*
X8341071Y-17382214D01*
X8541071Y-17382214D02*
X8726786Y-17382214D01*
X8626786Y-17496500D01*
X8669643Y-17496500D01*
X8698214Y-17510786D01*
X8712500Y-17525072D01*
X8726786Y-17553643D01*
X8726786Y-17625072D01*
X8712500Y-17653643D01*
X8698214Y-17667929D01*
X8669643Y-17682214D01*
X8583928Y-17682214D01*
X8555357Y-17667929D01*
X8541071Y-17653643D01*
X8869643Y-17682214D02*
X8926786Y-17682214D01*
X8955357Y-17667929D01*
X8969643Y-17653643D01*
X8998214Y-17610786D01*
X9012500Y-17553643D01*
X9012500Y-17439357D01*
X8998214Y-17410786D01*
X8983928Y-17396500D01*
X8955357Y-17382214D01*
X8898214Y-17382214D01*
X8869643Y-17396500D01*
X8855357Y-17410786D01*
X8841071Y-17439357D01*
X8841071Y-17510786D01*
X8855357Y-17539357D01*
X8869643Y-17553643D01*
X8898214Y-17567929D01*
X8955357Y-17567929D01*
X8983928Y-17553643D01*
X8998214Y-17539357D01*
X9012500Y-17510786D01*
X9126786Y-17382214D02*
X9126786Y-17439357D01*
X9241071Y-17382214D02*
X9241071Y-17439357D01*
X9683928Y-17796500D02*
X9669643Y-17782214D01*
X9641071Y-17739357D01*
X9626786Y-17710786D01*
X9612500Y-17667929D01*
X9598214Y-17596500D01*
X9598214Y-17539357D01*
X9612500Y-17467929D01*
X9626786Y-17425072D01*
X9641071Y-17396500D01*
X9669643Y-17353643D01*
X9683928Y-17339357D01*
X9769643Y-17382214D02*
X9969643Y-17382214D01*
X9841071Y-17682214D01*
X10098214Y-17682214D02*
X10155357Y-17682214D01*
X10183928Y-17667929D01*
X10198214Y-17653643D01*
X10226786Y-17610786D01*
X10241071Y-17553643D01*
X10241071Y-17439357D01*
X10226786Y-17410786D01*
X10212500Y-17396500D01*
X10183928Y-17382214D01*
X10126786Y-17382214D01*
X10098214Y-17396500D01*
X10083928Y-17410786D01*
X10069643Y-17439357D01*
X10069643Y-17510786D01*
X10083928Y-17539357D01*
X10098214Y-17553643D01*
X10126786Y-17567929D01*
X10183928Y-17567929D01*
X10212500Y-17553643D01*
X10226786Y-17539357D01*
X10241071Y-17510786D01*
X10598214Y-17682214D02*
X10598214Y-17382214D01*
X10726786Y-17682214D02*
X10726786Y-17525072D01*
X10712500Y-17496500D01*
X10683928Y-17482214D01*
X10641071Y-17482214D01*
X10612500Y-17496500D01*
X10598214Y-17510786D01*
X10912500Y-17682214D02*
X10883928Y-17667929D01*
X10869643Y-17653643D01*
X10855357Y-17625072D01*
X10855357Y-17539357D01*
X10869643Y-17510786D01*
X10883928Y-17496500D01*
X10912500Y-17482214D01*
X10955357Y-17482214D01*
X10983928Y-17496500D01*
X10998214Y-17510786D01*
X11012500Y-17539357D01*
X11012500Y-17625072D01*
X10998214Y-17653643D01*
X10983928Y-17667929D01*
X10955357Y-17682214D01*
X10912500Y-17682214D01*
X11183928Y-17682214D02*
X11155357Y-17667929D01*
X11141071Y-17639357D01*
X11141071Y-17382214D01*
X11412500Y-17667929D02*
X11383928Y-17682214D01*
X11326786Y-17682214D01*
X11298214Y-17667929D01*
X11283928Y-17639357D01*
X11283928Y-17525072D01*
X11298214Y-17496500D01*
X11326786Y-17482214D01*
X11383928Y-17482214D01*
X11412500Y-17496500D01*
X11426786Y-17525072D01*
X11426786Y-17553643D01*
X11283928Y-17582214D01*
X11541071Y-17667929D02*
X11569643Y-17682214D01*
X11626786Y-17682214D01*
X11655357Y-17667929D01*
X11669643Y-17639357D01*
X11669643Y-17625072D01*
X11655357Y-17596500D01*
X11626786Y-17582214D01*
X11583928Y-17582214D01*
X11555357Y-17567929D01*
X11541071Y-17539357D01*
X11541071Y-17525072D01*
X11555357Y-17496500D01*
X11583928Y-17482214D01*
X11626786Y-17482214D01*
X11655357Y-17496500D01*
X12026786Y-17567929D02*
X12255357Y-17567929D01*
X12141071Y-17682214D02*
X12141071Y-17453643D01*
X12598214Y-17382214D02*
X12783928Y-17382214D01*
X12683928Y-17496500D01*
X12726786Y-17496500D01*
X12755357Y-17510786D01*
X12769643Y-17525072D01*
X12783928Y-17553643D01*
X12783928Y-17625072D01*
X12769643Y-17653643D01*
X12755357Y-17667929D01*
X12726786Y-17682214D01*
X12641071Y-17682214D01*
X12612500Y-17667929D01*
X12598214Y-17653643D01*
X13126786Y-17667929D02*
X13155357Y-17682214D01*
X13212500Y-17682214D01*
X13241071Y-17667929D01*
X13255357Y-17639357D01*
X13255357Y-17625072D01*
X13241071Y-17596500D01*
X13212500Y-17582214D01*
X13169643Y-17582214D01*
X13141071Y-17567929D01*
X13126786Y-17539357D01*
X13126786Y-17525072D01*
X13141071Y-17496500D01*
X13169643Y-17482214D01*
X13212500Y-17482214D01*
X13241071Y-17496500D01*
X13426786Y-17682214D02*
X13398214Y-17667929D01*
X13383928Y-17639357D01*
X13383928Y-17382214D01*
X13583928Y-17682214D02*
X13555357Y-17667929D01*
X13541071Y-17653643D01*
X13526786Y-17625072D01*
X13526786Y-17539357D01*
X13541071Y-17510786D01*
X13555357Y-17496500D01*
X13583928Y-17482214D01*
X13626786Y-17482214D01*
X13655357Y-17496500D01*
X13669643Y-17510786D01*
X13683928Y-17539357D01*
X13683928Y-17625072D01*
X13669643Y-17653643D01*
X13655357Y-17667929D01*
X13626786Y-17682214D01*
X13583928Y-17682214D01*
X13769643Y-17482214D02*
X13883928Y-17482214D01*
X13812500Y-17382214D02*
X13812500Y-17639357D01*
X13826786Y-17667929D01*
X13855357Y-17682214D01*
X13883928Y-17682214D01*
X13969643Y-17667929D02*
X13998214Y-17682214D01*
X14055357Y-17682214D01*
X14083928Y-17667929D01*
X14098214Y-17639357D01*
X14098214Y-17625072D01*
X14083928Y-17596500D01*
X14055357Y-17582214D01*
X14012500Y-17582214D01*
X13983928Y-17567929D01*
X13969643Y-17539357D01*
X13969643Y-17525072D01*
X13983928Y-17496500D01*
X14012500Y-17482214D01*
X14055357Y-17482214D01*
X14083928Y-17496500D01*
X14198214Y-17796500D02*
X14212500Y-17782214D01*
X14241071Y-17739357D01*
X14255357Y-17710786D01*
X14269643Y-17667929D01*
X14283928Y-17596500D01*
X14283928Y-17539357D01*
X14269643Y-17467929D01*
X14255357Y-17425072D01*
X14241071Y-17396500D01*
X14212500Y-17353643D01*
X14198214Y-17339357D01*
X4857500Y-17872500D02*
X4997500Y-18012500D01*
X4997500Y-17872500D02*
X4857500Y-18012500D01*
X4997500Y-17942500D02*
G75*
G03*
X4997500Y-17942500I-70000J0D01*
G01*
X5441071Y-18078214D02*
X5269643Y-18078214D01*
X5355357Y-18078214D02*
X5355357Y-17778214D01*
X5326786Y-17821072D01*
X5298214Y-17849643D01*
X5269643Y-17863929D01*
X5569643Y-18049643D02*
X5583928Y-18063929D01*
X5569643Y-18078214D01*
X5555357Y-18063929D01*
X5569643Y-18049643D01*
X5569643Y-18078214D01*
X5841071Y-17878214D02*
X5841071Y-18078214D01*
X5769643Y-17763929D02*
X5698214Y-17978214D01*
X5883928Y-17978214D01*
X6055357Y-17778214D02*
X6083928Y-17778214D01*
X6112500Y-17792500D01*
X6126786Y-17806786D01*
X6141071Y-17835357D01*
X6155357Y-17892500D01*
X6155357Y-17963929D01*
X6141071Y-18021072D01*
X6126786Y-18049643D01*
X6112500Y-18063929D01*
X6083928Y-18078214D01*
X6055357Y-18078214D01*
X6026786Y-18063929D01*
X6012500Y-18049643D01*
X5998214Y-18021072D01*
X5983928Y-17963929D01*
X5983928Y-17892500D01*
X5998214Y-17835357D01*
X6012500Y-17806786D01*
X6026786Y-17792500D01*
X6055357Y-17778214D01*
X6283928Y-18078214D02*
X6283928Y-17878214D01*
X6283928Y-17906786D02*
X6298214Y-17892500D01*
X6326786Y-17878214D01*
X6369643Y-17878214D01*
X6398214Y-17892500D01*
X6412500Y-17921072D01*
X6412500Y-18078214D01*
X6412500Y-17921072D02*
X6426786Y-17892500D01*
X6455357Y-17878214D01*
X6498214Y-17878214D01*
X6526786Y-17892500D01*
X6541071Y-17921072D01*
X6541071Y-18078214D01*
X6683928Y-18078214D02*
X6683928Y-17878214D01*
X6683928Y-17906786D02*
X6698214Y-17892500D01*
X6726786Y-17878214D01*
X6769643Y-17878214D01*
X6798214Y-17892500D01*
X6812500Y-17921072D01*
X6812500Y-18078214D01*
X6812500Y-17921072D02*
X6826786Y-17892500D01*
X6855357Y-17878214D01*
X6898214Y-17878214D01*
X6926786Y-17892500D01*
X6941071Y-17921072D01*
X6941071Y-18078214D01*
X7526786Y-17763929D02*
X7269643Y-18149643D01*
X7912500Y-17778214D02*
X7941071Y-17778214D01*
X7969643Y-17792500D01*
X7983928Y-17806786D01*
X7998214Y-17835357D01*
X8012500Y-17892500D01*
X8012500Y-17963929D01*
X7998214Y-18021072D01*
X7983928Y-18049643D01*
X7969643Y-18063929D01*
X7941071Y-18078214D01*
X7912500Y-18078214D01*
X7883928Y-18063929D01*
X7869643Y-18049643D01*
X7855357Y-18021072D01*
X7841071Y-17963929D01*
X7841071Y-17892500D01*
X7855357Y-17835357D01*
X7869643Y-17806786D01*
X7883928Y-17792500D01*
X7912500Y-17778214D01*
X8141071Y-18049643D02*
X8155357Y-18063929D01*
X8141071Y-18078214D01*
X8126786Y-18063929D01*
X8141071Y-18049643D01*
X8141071Y-18078214D01*
X8341071Y-17778214D02*
X8369643Y-17778214D01*
X8398214Y-17792500D01*
X8412500Y-17806786D01*
X8426786Y-17835357D01*
X8441071Y-17892500D01*
X8441071Y-17963929D01*
X8426786Y-18021072D01*
X8412500Y-18049643D01*
X8398214Y-18063929D01*
X8369643Y-18078214D01*
X8341071Y-18078214D01*
X8312500Y-18063929D01*
X8298214Y-18049643D01*
X8283928Y-18021072D01*
X8269643Y-17963929D01*
X8269643Y-17892500D01*
X8283928Y-17835357D01*
X8298214Y-17806786D01*
X8312500Y-17792500D01*
X8341071Y-17778214D01*
X8712500Y-17778214D02*
X8569643Y-17778214D01*
X8555357Y-17921072D01*
X8569643Y-17906786D01*
X8598214Y-17892500D01*
X8669643Y-17892500D01*
X8698214Y-17906786D01*
X8712500Y-17921072D01*
X8726786Y-17949643D01*
X8726786Y-18021072D01*
X8712500Y-18049643D01*
X8698214Y-18063929D01*
X8669643Y-18078214D01*
X8598214Y-18078214D01*
X8569643Y-18063929D01*
X8555357Y-18049643D01*
X8998214Y-17778214D02*
X8855357Y-17778214D01*
X8841071Y-17921072D01*
X8855357Y-17906786D01*
X8883928Y-17892500D01*
X8955357Y-17892500D01*
X8983928Y-17906786D01*
X8998214Y-17921072D01*
X9012500Y-17949643D01*
X9012500Y-18021072D01*
X8998214Y-18049643D01*
X8983928Y-18063929D01*
X8955357Y-18078214D01*
X8883928Y-18078214D01*
X8855357Y-18063929D01*
X8841071Y-18049643D01*
X9126786Y-17778214D02*
X9126786Y-17835357D01*
X9241071Y-17778214D02*
X9241071Y-17835357D01*
X9683928Y-18192500D02*
X9669643Y-18178214D01*
X9641071Y-18135357D01*
X9626786Y-18106786D01*
X9612500Y-18063929D01*
X9598214Y-17992500D01*
X9598214Y-17935357D01*
X9612500Y-17863929D01*
X9626786Y-17821072D01*
X9641071Y-17792500D01*
X9669643Y-17749643D01*
X9683928Y-17735357D01*
X9783928Y-17806786D02*
X9798214Y-17792500D01*
X9826786Y-17778214D01*
X9898214Y-17778214D01*
X9926786Y-17792500D01*
X9941071Y-17806786D01*
X9955357Y-17835357D01*
X9955357Y-17863929D01*
X9941071Y-17906786D01*
X9769643Y-18078214D01*
X9955357Y-18078214D01*
X10312500Y-18078214D02*
X10312500Y-17778214D01*
X10441071Y-18078214D02*
X10441071Y-17921072D01*
X10426786Y-17892500D01*
X10398214Y-17878214D01*
X10355357Y-17878214D01*
X10326786Y-17892500D01*
X10312500Y-17906786D01*
X10626786Y-18078214D02*
X10598214Y-18063929D01*
X10583928Y-18049643D01*
X10569643Y-18021072D01*
X10569643Y-17935357D01*
X10583928Y-17906786D01*
X10598214Y-17892500D01*
X10626786Y-17878214D01*
X10669643Y-17878214D01*
X10698214Y-17892500D01*
X10712500Y-17906786D01*
X10726786Y-17935357D01*
X10726786Y-18021072D01*
X10712500Y-18049643D01*
X10698214Y-18063929D01*
X10669643Y-18078214D01*
X10626786Y-18078214D01*
X10898214Y-18078214D02*
X10869643Y-18063929D01*
X10855357Y-18035357D01*
X10855357Y-17778214D01*
X11126786Y-18063929D02*
X11098214Y-18078214D01*
X11041071Y-18078214D01*
X11012500Y-18063929D01*
X10998214Y-18035357D01*
X10998214Y-17921072D01*
X11012500Y-17892500D01*
X11041071Y-17878214D01*
X11098214Y-17878214D01*
X11126786Y-17892500D01*
X11141071Y-17921072D01*
X11141071Y-17949643D01*
X10998214Y-17978214D01*
X11255357Y-18063929D02*
X11283928Y-18078214D01*
X11341071Y-18078214D01*
X11369643Y-18063929D01*
X11383928Y-18035357D01*
X11383928Y-18021072D01*
X11369643Y-17992500D01*
X11341071Y-17978214D01*
X11298214Y-17978214D01*
X11269643Y-17963929D01*
X11255357Y-17935357D01*
X11255357Y-17921072D01*
X11269643Y-17892500D01*
X11298214Y-17878214D01*
X11341071Y-17878214D01*
X11369643Y-17892500D01*
X11483928Y-18192500D02*
X11498214Y-18178214D01*
X11526786Y-18135357D01*
X11541071Y-18106786D01*
X11555357Y-18063929D01*
X11569643Y-17992500D01*
X11569643Y-17935357D01*
X11555357Y-17863929D01*
X11541071Y-17821072D01*
X11526786Y-17792500D01*
X11498214Y-17749643D01*
X11483928Y-17735357D01*
X4767500Y-18223500D02*
X4997500Y-18453500D01*
X4997500Y-18223500D02*
X4767500Y-18453500D01*
X4882500Y-18223500D02*
X4882500Y-18453500D01*
X4767500Y-18338500D02*
X4997500Y-18338500D01*
X5269643Y-18202786D02*
X5283928Y-18188500D01*
X5312500Y-18174214D01*
X5383928Y-18174214D01*
X5412500Y-18188500D01*
X5426786Y-18202786D01*
X5441071Y-18231357D01*
X5441071Y-18259929D01*
X5426786Y-18302786D01*
X5255357Y-18474214D01*
X5441071Y-18474214D01*
X5569643Y-18445643D02*
X5583928Y-18459929D01*
X5569643Y-18474214D01*
X5555357Y-18459929D01*
X5569643Y-18445643D01*
X5569643Y-18474214D01*
X5683928Y-18174214D02*
X5869643Y-18174214D01*
X5769643Y-18288500D01*
X5812500Y-18288500D01*
X5841071Y-18302786D01*
X5855357Y-18317072D01*
X5869643Y-18345643D01*
X5869643Y-18417072D01*
X5855357Y-18445643D01*
X5841071Y-18459929D01*
X5812500Y-18474214D01*
X5726786Y-18474214D01*
X5698214Y-18459929D01*
X5683928Y-18445643D01*
X6055357Y-18174214D02*
X6083928Y-18174214D01*
X6112500Y-18188500D01*
X6126786Y-18202786D01*
X6141071Y-18231357D01*
X6155357Y-18288500D01*
X6155357Y-18359929D01*
X6141071Y-18417072D01*
X6126786Y-18445643D01*
X6112500Y-18459929D01*
X6083928Y-18474214D01*
X6055357Y-18474214D01*
X6026786Y-18459929D01*
X6012500Y-18445643D01*
X5998214Y-18417072D01*
X5983928Y-18359929D01*
X5983928Y-18288500D01*
X5998214Y-18231357D01*
X6012500Y-18202786D01*
X6026786Y-18188500D01*
X6055357Y-18174214D01*
X6283928Y-18474214D02*
X6283928Y-18274214D01*
X6283928Y-18302786D02*
X6298214Y-18288500D01*
X6326786Y-18274214D01*
X6369643Y-18274214D01*
X6398214Y-18288500D01*
X6412500Y-18317072D01*
X6412500Y-18474214D01*
X6412500Y-18317072D02*
X6426786Y-18288500D01*
X6455357Y-18274214D01*
X6498214Y-18274214D01*
X6526786Y-18288500D01*
X6541071Y-18317072D01*
X6541071Y-18474214D01*
X6683928Y-18474214D02*
X6683928Y-18274214D01*
X6683928Y-18302786D02*
X6698214Y-18288500D01*
X6726786Y-18274214D01*
X6769643Y-18274214D01*
X6798214Y-18288500D01*
X6812500Y-18317072D01*
X6812500Y-18474214D01*
X6812500Y-18317072D02*
X6826786Y-18288500D01*
X6855357Y-18274214D01*
X6898214Y-18274214D01*
X6926786Y-18288500D01*
X6941071Y-18317072D01*
X6941071Y-18474214D01*
X7526786Y-18159929D02*
X7269643Y-18545643D01*
X7912500Y-18174214D02*
X7941071Y-18174214D01*
X7969643Y-18188500D01*
X7983928Y-18202786D01*
X7998214Y-18231357D01*
X8012500Y-18288500D01*
X8012500Y-18359929D01*
X7998214Y-18417072D01*
X7983928Y-18445643D01*
X7969643Y-18459929D01*
X7941071Y-18474214D01*
X7912500Y-18474214D01*
X7883928Y-18459929D01*
X7869643Y-18445643D01*
X7855357Y-18417072D01*
X7841071Y-18359929D01*
X7841071Y-18288500D01*
X7855357Y-18231357D01*
X7869643Y-18202786D01*
X7883928Y-18188500D01*
X7912500Y-18174214D01*
X8141071Y-18445643D02*
X8155357Y-18459929D01*
X8141071Y-18474214D01*
X8126786Y-18459929D01*
X8141071Y-18445643D01*
X8141071Y-18474214D01*
X8341071Y-18174214D02*
X8369643Y-18174214D01*
X8398214Y-18188500D01*
X8412500Y-18202786D01*
X8426786Y-18231357D01*
X8441071Y-18288500D01*
X8441071Y-18359929D01*
X8426786Y-18417072D01*
X8412500Y-18445643D01*
X8398214Y-18459929D01*
X8369643Y-18474214D01*
X8341071Y-18474214D01*
X8312500Y-18459929D01*
X8298214Y-18445643D01*
X8283928Y-18417072D01*
X8269643Y-18359929D01*
X8269643Y-18288500D01*
X8283928Y-18231357D01*
X8298214Y-18202786D01*
X8312500Y-18188500D01*
X8341071Y-18174214D01*
X8583928Y-18474214D02*
X8641071Y-18474214D01*
X8669643Y-18459929D01*
X8683928Y-18445643D01*
X8712500Y-18402786D01*
X8726786Y-18345643D01*
X8726786Y-18231357D01*
X8712500Y-18202786D01*
X8698214Y-18188500D01*
X8669643Y-18174214D01*
X8612500Y-18174214D01*
X8583928Y-18188500D01*
X8569643Y-18202786D01*
X8555357Y-18231357D01*
X8555357Y-18302786D01*
X8569643Y-18331357D01*
X8583928Y-18345643D01*
X8612500Y-18359929D01*
X8669643Y-18359929D01*
X8698214Y-18345643D01*
X8712500Y-18331357D01*
X8726786Y-18302786D01*
X9012500Y-18474214D02*
X8841071Y-18474214D01*
X8926786Y-18474214D02*
X8926786Y-18174214D01*
X8898214Y-18217072D01*
X8869643Y-18245643D01*
X8841071Y-18259929D01*
X9126786Y-18174214D02*
X9126786Y-18231357D01*
X9241071Y-18174214D02*
X9241071Y-18231357D01*
X9683928Y-18588500D02*
X9669643Y-18574214D01*
X9641071Y-18531357D01*
X9626786Y-18502786D01*
X9612500Y-18459929D01*
X9598214Y-18388500D01*
X9598214Y-18331357D01*
X9612500Y-18259929D01*
X9626786Y-18217072D01*
X9641071Y-18188500D01*
X9669643Y-18145643D01*
X9683928Y-18131357D01*
X9783928Y-18202786D02*
X9798214Y-18188500D01*
X9826786Y-18174214D01*
X9898214Y-18174214D01*
X9926786Y-18188500D01*
X9941071Y-18202786D01*
X9955357Y-18231357D01*
X9955357Y-18259929D01*
X9941071Y-18302786D01*
X9769643Y-18474214D01*
X9955357Y-18474214D01*
X10312500Y-18474214D02*
X10312500Y-18174214D01*
X10441071Y-18474214D02*
X10441071Y-18317072D01*
X10426786Y-18288500D01*
X10398214Y-18274214D01*
X10355357Y-18274214D01*
X10326786Y-18288500D01*
X10312500Y-18302786D01*
X10626786Y-18474214D02*
X10598214Y-18459929D01*
X10583928Y-18445643D01*
X10569643Y-18417072D01*
X10569643Y-18331357D01*
X10583928Y-18302786D01*
X10598214Y-18288500D01*
X10626786Y-18274214D01*
X10669643Y-18274214D01*
X10698214Y-18288500D01*
X10712500Y-18302786D01*
X10726786Y-18331357D01*
X10726786Y-18417072D01*
X10712500Y-18445643D01*
X10698214Y-18459929D01*
X10669643Y-18474214D01*
X10626786Y-18474214D01*
X10898214Y-18474214D02*
X10869643Y-18459929D01*
X10855357Y-18431357D01*
X10855357Y-18174214D01*
X11126786Y-18459929D02*
X11098214Y-18474214D01*
X11041071Y-18474214D01*
X11012500Y-18459929D01*
X10998214Y-18431357D01*
X10998214Y-18317072D01*
X11012500Y-18288500D01*
X11041071Y-18274214D01*
X11098214Y-18274214D01*
X11126786Y-18288500D01*
X11141071Y-18317072D01*
X11141071Y-18345643D01*
X10998214Y-18374214D01*
X11255357Y-18459929D02*
X11283928Y-18474214D01*
X11341071Y-18474214D01*
X11369643Y-18459929D01*
X11383928Y-18431357D01*
X11383928Y-18417072D01*
X11369643Y-18388500D01*
X11341071Y-18374214D01*
X11298214Y-18374214D01*
X11269643Y-18359929D01*
X11255357Y-18331357D01*
X11255357Y-18317072D01*
X11269643Y-18288500D01*
X11298214Y-18274214D01*
X11341071Y-18274214D01*
X11369643Y-18288500D01*
X11483928Y-18588500D02*
X11498214Y-18574214D01*
X11526786Y-18531357D01*
X11541071Y-18502786D01*
X11555357Y-18459929D01*
X11569643Y-18388500D01*
X11569643Y-18331357D01*
X11555357Y-18259929D01*
X11541071Y-18217072D01*
X11526786Y-18188500D01*
X11498214Y-18145643D01*
X11483928Y-18131357D01*
X4677500Y-18574500D02*
X4997500Y-18894500D01*
X4997500Y-18574500D02*
X4677500Y-18894500D01*
X4950638Y-18847638D02*
X4950638Y-18621362D01*
X4724362Y-18621362D01*
X4724362Y-18847638D01*
X4950638Y-18847638D01*
X5255357Y-18570214D02*
X5441071Y-18570214D01*
X5341071Y-18684500D01*
X5383928Y-18684500D01*
X5412500Y-18698786D01*
X5426786Y-18713072D01*
X5441071Y-18741643D01*
X5441071Y-18813072D01*
X5426786Y-18841643D01*
X5412500Y-18855929D01*
X5383928Y-18870214D01*
X5298214Y-18870214D01*
X5269643Y-18855929D01*
X5255357Y-18841643D01*
X5569643Y-18841643D02*
X5583928Y-18855929D01*
X5569643Y-18870214D01*
X5555357Y-18855929D01*
X5569643Y-18841643D01*
X5569643Y-18870214D01*
X5698214Y-18598786D02*
X5712500Y-18584500D01*
X5741071Y-18570214D01*
X5812500Y-18570214D01*
X5841071Y-18584500D01*
X5855357Y-18598786D01*
X5869643Y-18627357D01*
X5869643Y-18655929D01*
X5855357Y-18698786D01*
X5683928Y-18870214D01*
X5869643Y-18870214D01*
X6055357Y-18570214D02*
X6083928Y-18570214D01*
X6112500Y-18584500D01*
X6126786Y-18598786D01*
X6141071Y-18627357D01*
X6155357Y-18684500D01*
X6155357Y-18755929D01*
X6141071Y-18813072D01*
X6126786Y-18841643D01*
X6112500Y-18855929D01*
X6083928Y-18870214D01*
X6055357Y-18870214D01*
X6026786Y-18855929D01*
X6012500Y-18841643D01*
X5998214Y-18813072D01*
X5983928Y-18755929D01*
X5983928Y-18684500D01*
X5998214Y-18627357D01*
X6012500Y-18598786D01*
X6026786Y-18584500D01*
X6055357Y-18570214D01*
X6283928Y-18870214D02*
X6283928Y-18670214D01*
X6283928Y-18698786D02*
X6298214Y-18684500D01*
X6326786Y-18670214D01*
X6369643Y-18670214D01*
X6398214Y-18684500D01*
X6412500Y-18713072D01*
X6412500Y-18870214D01*
X6412500Y-18713072D02*
X6426786Y-18684500D01*
X6455357Y-18670214D01*
X6498214Y-18670214D01*
X6526786Y-18684500D01*
X6541071Y-18713072D01*
X6541071Y-18870214D01*
X6683928Y-18870214D02*
X6683928Y-18670214D01*
X6683928Y-18698786D02*
X6698214Y-18684500D01*
X6726786Y-18670214D01*
X6769643Y-18670214D01*
X6798214Y-18684500D01*
X6812500Y-18713072D01*
X6812500Y-18870214D01*
X6812500Y-18713072D02*
X6826786Y-18684500D01*
X6855357Y-18670214D01*
X6898214Y-18670214D01*
X6926786Y-18684500D01*
X6941071Y-18713072D01*
X6941071Y-18870214D01*
X7526786Y-18555929D02*
X7269643Y-18941643D01*
X7912500Y-18570214D02*
X7941071Y-18570214D01*
X7969643Y-18584500D01*
X7983928Y-18598786D01*
X7998214Y-18627357D01*
X8012500Y-18684500D01*
X8012500Y-18755929D01*
X7998214Y-18813072D01*
X7983928Y-18841643D01*
X7969643Y-18855929D01*
X7941071Y-18870214D01*
X7912500Y-18870214D01*
X7883928Y-18855929D01*
X7869643Y-18841643D01*
X7855357Y-18813072D01*
X7841071Y-18755929D01*
X7841071Y-18684500D01*
X7855357Y-18627357D01*
X7869643Y-18598786D01*
X7883928Y-18584500D01*
X7912500Y-18570214D01*
X8141071Y-18841643D02*
X8155357Y-18855929D01*
X8141071Y-18870214D01*
X8126786Y-18855929D01*
X8141071Y-18841643D01*
X8141071Y-18870214D01*
X8441071Y-18870214D02*
X8269643Y-18870214D01*
X8355357Y-18870214D02*
X8355357Y-18570214D01*
X8326786Y-18613072D01*
X8298214Y-18641643D01*
X8269643Y-18655929D01*
X8555357Y-18598786D02*
X8569643Y-18584500D01*
X8598214Y-18570214D01*
X8669643Y-18570214D01*
X8698214Y-18584500D01*
X8712500Y-18598786D01*
X8726786Y-18627357D01*
X8726786Y-18655929D01*
X8712500Y-18698786D01*
X8541071Y-18870214D01*
X8726786Y-18870214D01*
X8983928Y-18570214D02*
X8926786Y-18570214D01*
X8898214Y-18584500D01*
X8883928Y-18598786D01*
X8855357Y-18641643D01*
X8841071Y-18698786D01*
X8841071Y-18813072D01*
X8855357Y-18841643D01*
X8869643Y-18855929D01*
X8898214Y-18870214D01*
X8955357Y-18870214D01*
X8983928Y-18855929D01*
X8998214Y-18841643D01*
X9012500Y-18813072D01*
X9012500Y-18741643D01*
X8998214Y-18713072D01*
X8983928Y-18698786D01*
X8955357Y-18684500D01*
X8898214Y-18684500D01*
X8869643Y-18698786D01*
X8855357Y-18713072D01*
X8841071Y-18741643D01*
X9126786Y-18570214D02*
X9126786Y-18627357D01*
X9241071Y-18570214D02*
X9241071Y-18627357D01*
X9683928Y-18984500D02*
X9669643Y-18970214D01*
X9641071Y-18927357D01*
X9626786Y-18898786D01*
X9612500Y-18855929D01*
X9598214Y-18784500D01*
X9598214Y-18727357D01*
X9612500Y-18655929D01*
X9626786Y-18613072D01*
X9641071Y-18584500D01*
X9669643Y-18541643D01*
X9683928Y-18527357D01*
X9955357Y-18870214D02*
X9783928Y-18870214D01*
X9869643Y-18870214D02*
X9869643Y-18570214D01*
X9841071Y-18613072D01*
X9812500Y-18641643D01*
X9783928Y-18655929D01*
X10069643Y-18598786D02*
X10083928Y-18584500D01*
X10112500Y-18570214D01*
X10183928Y-18570214D01*
X10212500Y-18584500D01*
X10226786Y-18598786D01*
X10241071Y-18627357D01*
X10241071Y-18655929D01*
X10226786Y-18698786D01*
X10055357Y-18870214D01*
X10241071Y-18870214D01*
X10598214Y-18870214D02*
X10598214Y-18570214D01*
X10726786Y-18870214D02*
X10726786Y-18713072D01*
X10712500Y-18684500D01*
X10683928Y-18670214D01*
X10641071Y-18670214D01*
X10612500Y-18684500D01*
X10598214Y-18698786D01*
X10912500Y-18870214D02*
X10883928Y-18855929D01*
X10869643Y-18841643D01*
X10855357Y-18813072D01*
X10855357Y-18727357D01*
X10869643Y-18698786D01*
X10883928Y-18684500D01*
X10912500Y-18670214D01*
X10955357Y-18670214D01*
X10983928Y-18684500D01*
X10998214Y-18698786D01*
X11012500Y-18727357D01*
X11012500Y-18813072D01*
X10998214Y-18841643D01*
X10983928Y-18855929D01*
X10955357Y-18870214D01*
X10912500Y-18870214D01*
X11183928Y-18870214D02*
X11155357Y-18855929D01*
X11141071Y-18827357D01*
X11141071Y-18570214D01*
X11412500Y-18855929D02*
X11383928Y-18870214D01*
X11326786Y-18870214D01*
X11298214Y-18855929D01*
X11283928Y-18827357D01*
X11283928Y-18713072D01*
X11298214Y-18684500D01*
X11326786Y-18670214D01*
X11383928Y-18670214D01*
X11412500Y-18684500D01*
X11426786Y-18713072D01*
X11426786Y-18741643D01*
X11283928Y-18770214D01*
X11541071Y-18855929D02*
X11569643Y-18870214D01*
X11626786Y-18870214D01*
X11655357Y-18855929D01*
X11669643Y-18827357D01*
X11669643Y-18813072D01*
X11655357Y-18784500D01*
X11626786Y-18770214D01*
X11583928Y-18770214D01*
X11555357Y-18755929D01*
X11541071Y-18727357D01*
X11541071Y-18713072D01*
X11555357Y-18684500D01*
X11583928Y-18670214D01*
X11626786Y-18670214D01*
X11655357Y-18684500D01*
X11769643Y-18984500D02*
X11783928Y-18970214D01*
X11812500Y-18927357D01*
X11826786Y-18898786D01*
X11841071Y-18855929D01*
X11855357Y-18784500D01*
X11855357Y-18727357D01*
X11841071Y-18655929D01*
X11826786Y-18613072D01*
X11812500Y-18584500D01*
X11783928Y-18541643D01*
X11769643Y-18527357D01*
M02*
