M48
; DRILL file {KiCad (5.1.9)-1} date 04/19/21 10:19:08
; FORMAT={-:-/ absolute / metric / decimal}
; #@! TF.CreationDate,2021-04-19T10:19:08+02:00
; #@! TF.GenerationSoftware,Kicad,Pcbnew,(5.1.9)-1
; #@! TF.FileFunction,Plated,1,2,PTH
FMAT,2
METRIC
T1C0.400
T2C0.600
T3C0.800
T4C0.950
T5C1.000
T6C1.400
T7C2.300
T8C3.200
%
G90
G05
T1
X52.8Y-98.6
X53.2Y-66.6
X53.6Y-88.2
X56.2Y-88.2
X58.2Y-66.6
X59.6Y-130.4
X60.4Y-96.8
X61.2Y-132.0
X61.745Y-109.455
X62.0Y-113.2
X62.8Y-99.8
X63.0Y-121.8
X63.0Y-125.4
X63.0Y-133.6
X63.6Y-75.4
X63.6Y-99.0
X63.6Y-113.6
X64.0Y-109.4
X64.2Y-101.4
X64.2Y-103.4
X64.8Y-66.6
X64.8Y-118.6
X65.2Y-121.4
X65.4Y-99.4
X65.4Y-117.0
X65.7Y-129.3
X66.2Y-69.4
X66.8Y-131.8
X67.0Y-78.8
X68.0Y-61.2
X68.2Y-110.8
X68.2Y-138.4
X68.4Y-126.6
X68.6Y-129.0
X68.8Y-75.8
X69.2Y-109.4
X69.4Y-130.8
X69.4Y-132.8
X69.4Y-142.8
X69.6Y-81.6
X69.8Y-84.6
X69.8Y-89.2
X69.8Y-126.8
X70.0Y-93.0
X70.2Y-120.2
X71.2Y-132.8
X71.6Y-126.6
X71.8Y-94.6
X72.4Y-120.0
X73.6Y-121.4
X74.0Y-103.4
X74.2Y-77.2
X74.2Y-81.6
X74.2Y-87.2
X74.8Y-101.6
X74.8Y-144.2
X75.0Y-99.8
X75.2Y-147.4
X75.4Y-95.2
X76.6Y-99.2
X77.0Y-115.4
X77.2Y-112.0
X77.2Y-119.0
X77.9Y-67.3
X78.0Y-61.0
X78.2Y-92.0
X78.8Y-103.4
X79.0Y-76.8
X79.2Y-72.8
X79.2Y-80.8
X79.4Y-84.8
X79.8Y-99.4
X80.0Y-122.2
X80.0Y-123.4
X80.2Y-95.4
X80.2Y-134.2
X80.8Y-124.8
X81.0Y-101.8
X81.2Y-126.2
X81.4Y-139.0
X81.8Y-112.4
X81.8Y-115.2
X81.8Y-144.2
X82.2Y-130.4
X82.4Y-117.8
X82.4Y-147.4
X82.8Y-97.0
X83.8Y-91.0
X83.8Y-102.4
X84.0Y-108.6
X84.4Y-72.6
X84.4Y-76.6
X84.4Y-84.8
X84.6Y-80.6
X86.0Y-106.6
X86.2Y-130.4
X86.4Y-104.6
X86.4Y-123.6
X86.4Y-124.6
X86.4Y-125.6
X87.6Y-87.2
X88.0Y-70.0
X90.2Y-111.0
X91.2Y-144.0
X91.4Y-118.2
X91.69Y-139.11
X92.8Y-99.4
X93.0Y-102.0
X93.0Y-105.0
X96.2Y-74.2
X97.6Y-134.2
X98.6Y-94.6
X98.8Y-70.4
X99.0Y-104.4
X99.4Y-63.2
X99.4Y-130.8
X101.2Y-121.2
X101.4Y-123.0
X101.581Y-61.019
X102.0Y-130.8
X103.0Y-66.6
X103.0Y-104.6
X103.6Y-74.2
X103.6Y-76.6
X103.6Y-79.6
X103.6Y-83.2
X103.6Y-86.8
X104.4Y-97.0
X104.4Y-108.2
X104.4Y-115.8
X104.8Y-130.8
X105.2Y-70.8
X106.6Y-73.0
X106.8Y-77.0
X107.0Y-117.8
X107.2Y-102.0
X107.2Y-114.0
X107.2Y-126.8
X107.4Y-59.8
X107.8Y-109.8
X108.4Y-126.0
X108.6Y-85.0
X109.0Y-91.2
X109.2Y-66.4
X109.2Y-106.0
X109.4Y-69.0
X110.4Y-59.8
X110.4Y-102.0
X110.6Y-125.8
X111.2Y-130.4
X112.8Y-66.6
X113.0Y-59.8
X114.6Y-73.0
X114.6Y-77.0
X114.6Y-80.8
X114.6Y-85.0
X114.6Y-106.0
X114.6Y-109.8
X114.6Y-113.8
X114.6Y-117.8
X115.2Y-64.6
X116.0Y-59.8
X116.5Y-130.9
X116.8Y-102.2
X116.8Y-125.8
X117.6Y-64.6
X117.6Y-88.0
X117.6Y-120.4
X118.2Y-70.2
X122.6Y-104.0
X124.2Y-136.0
X124.4Y-147.8
X124.6Y-87.4
X124.6Y-143.0
X125.0Y-130.2
X125.2Y-95.8
X126.2Y-125.8
X126.2Y-134.4
X126.7Y-111.9
X126.82Y-108.18
X128.0Y-148.2
X129.2Y-128.6
X129.2Y-130.4
X130.38Y-66.62
X131.0Y-62.6
X131.0Y-70.8
X131.2Y-126.2
X132.6Y-82.8
X132.6Y-88.6
X132.6Y-94.6
X133.4Y-77.4
X133.6Y-72.4
X134.0Y-123.4
X134.8Y-79.8
X135.0Y-99.2
X136.0Y-147.8
X136.8Y-119.8
X137.4Y-135.2
X137.6Y-72.6
X137.6Y-130.2
X137.8Y-137.2
X137.8Y-139.8
X137.8Y-142.2
X137.8Y-146.2
X138.6Y-102.6
X139.0Y-116.6
X139.2Y-86.8
X139.2Y-95.4
X141.8Y-72.6
X142.0Y-116.6
X142.6Y-91.0
X142.8Y-78.6
X142.8Y-82.4
X142.8Y-105.6
X143.0Y-138.0
X143.6Y-128.0
X144.2Y-98.6
X144.4Y-130.2
X144.6Y-145.6
X146.0Y-92.8
X146.2Y-65.0
X147.5Y-137.9
X147.6Y-109.6
X149.6Y-127.8
X150.0Y-130.8
X150.4Y-107.0
X150.4Y-145.6
X150.8Y-142.8
X151.2Y-99.0
X151.2Y-138.0
X151.4Y-101.6
X151.4Y-104.8
X151.4Y-109.4
X152.6Y-126.0
X152.8Y-56.2
X153.0Y-62.0
X156.2Y-125.8
X156.2Y-130.8
X158.0Y-105.0
X158.47Y-66.53
X159.2Y-94.8
X159.4Y-130.8
X160.4Y-100.4
X160.8Y-134.6
X161.0Y-108.0
X161.07Y-91.53
X161.2Y-74.8
X161.2Y-79.8
X161.2Y-85.4
X161.8Y-56.0
X161.8Y-119.6
X162.47Y-71.13
X163.0Y-128.4
X163.4Y-134.2
X163.8Y-74.6
X163.8Y-113.2
X163.8Y-117.8
X164.2Y-96.8
X164.2Y-109.6
X165.2Y-105.6
X165.8Y-77.6
X165.8Y-130.6
X166.0Y-81.6
X166.2Y-85.4
X166.47Y-91.53
X166.8Y-69.4
X167.2Y-134.8
X167.4Y-101.2
X170.8Y-56.2
X171.2Y-73.8
X171.4Y-62.0
X171.4Y-77.6
X171.4Y-81.6
X171.4Y-85.2
X171.8Y-105.8
X171.8Y-109.8
X171.8Y-113.6
X171.8Y-117.8
X173.6Y-70.0
X175.2Y-88.4
X175.2Y-102.0
X175.4Y-121.0
X176.8Y-56.6
X177.4Y-62.6
X178.8Y-103.6
X180.6Y-87.8
X180.811Y-95.389
X181.2Y-69.6
X184.4Y-106.4
X186.4Y-66.0
T2
X103.32Y-121.36
X103.32Y-122.63
X103.32Y-123.9
X103.32Y-125.17
X103.32Y-126.44
X104.48Y-121.36
X104.48Y-122.63
X104.48Y-123.9
X104.48Y-125.17
X104.48Y-126.44
T3
X107.1Y-136.5
X109.64Y-136.5
X112.18Y-136.5
X114.72Y-136.5
T4
X91.25Y-134.25
X91.25Y-136.25
X93.75Y-134.25
X93.75Y-136.25
T5
X53.2Y-91.96
X53.2Y-94.5
X53.6Y-70.2
X53.6Y-72.74
X53.6Y-75.28
X53.6Y-77.82
X53.6Y-80.36
X53.6Y-82.9
X53.6Y-85.44
X69.27Y-63.95
X69.31Y-58.45
X71.81Y-63.95
X71.85Y-58.45
X74.35Y-63.95
X74.39Y-58.45
X90.539Y-73.42
X90.539Y-76.19
X90.539Y-78.96
X90.539Y-81.73
X90.539Y-84.5
X93.379Y-74.805
X93.379Y-77.575
X93.379Y-80.345
X93.379Y-83.115
X120.409Y-73.58
X120.409Y-76.35
X120.409Y-79.12
X120.409Y-81.89
X120.409Y-84.66
X120.429Y-106.64
X120.429Y-109.41
X120.429Y-112.18
X120.429Y-114.95
X120.429Y-117.72
X123.249Y-74.965
X123.249Y-77.735
X123.249Y-80.505
X123.249Y-83.275
X123.269Y-108.025
X123.269Y-110.795
X123.269Y-113.565
X123.269Y-116.335
X140.6Y-119.52
X140.6Y-122.06
X140.6Y-124.6
X140.6Y-127.14
X149.409Y-73.49
X149.409Y-76.26
X149.409Y-79.03
X149.409Y-81.8
X149.409Y-84.57
X152.249Y-74.875
X152.249Y-77.645
X152.249Y-80.415
X152.249Y-83.185
X157.15Y-146.6
X159.69Y-146.6
X162.23Y-146.6
X164.77Y-146.6
X167.31Y-146.6
X169.85Y-146.6
X177.569Y-73.64
X177.569Y-76.41
X177.569Y-79.18
X177.569Y-81.95
X177.569Y-84.72
X177.659Y-106.65
X177.659Y-109.42
X177.659Y-112.19
X177.659Y-114.96
X177.659Y-117.73
X180.409Y-75.025
X180.409Y-77.795
X180.409Y-80.565
X180.409Y-83.335
X180.499Y-108.035
X180.499Y-110.805
X180.499Y-113.575
X180.499Y-116.345
T6
X120.2Y-59.0
X124.16Y-59.0
T7
X86.5Y-139.11
X98.5Y-139.11
T8
X91.959Y-66.46
X91.959Y-91.46
X121.829Y-66.62
X121.829Y-91.62
X121.849Y-99.68
X121.849Y-124.68
X150.829Y-66.53
X150.829Y-91.53
X178.989Y-66.68
X178.989Y-91.68
X179.079Y-99.69
X179.079Y-124.69
T5
X133.5Y-65.2G85X133.5Y-67.2
G05
X139.2Y-63.2G85X137.2Y-63.2
G05
X139.2Y-69.2G85X137.2Y-69.2
G05
T0
M30
