%FSLAX45Y45*%
G04 Gerber Fmt 4.5, Leading zero omitted, Abs format (unit mm)*
G04 Created by KiCad (PCBNEW (5.1.9)-1) date 2021-04-20 11:25:09*
%MOMM*%
%LPD*%
G01*
G04 APERTURE LIST*
%TA.AperFunction,Profile*%
%ADD10C,0.050000*%
%TD*%
%ADD11C,0.200000*%
%ADD12C,0.300000*%
G04 APERTURE END LIST*
D10*
X15800000Y-15000000D02*
X4200000Y-15000000D01*
X15800000Y-9000000D02*
X15800000Y-15000000D01*
X4200000Y-9000000D02*
X15800000Y-9000000D01*
X4200000Y-15000000D02*
X4200000Y-9000000D01*
D11*
X14400000Y-9460000D02*
X14620000Y-9680000D01*
X14620000Y-9460000D02*
X14400000Y-9680000D01*
X14400000Y-14340000D02*
X14620000Y-14560000D01*
X14620000Y-14340000D02*
X14400000Y-14560000D01*
X4785000Y-9400000D02*
G75*
G03*
X4785000Y-9400000I-185000J0D01*
G01*
X4785000Y-14600000D02*
G75*
G03*
X4785000Y-14600000I-185000J0D01*
G01*
X15585000Y-9400000D02*
G75*
G03*
X15585000Y-9400000I-185000J0D01*
G01*
X15585000Y-14600000D02*
G75*
G03*
X15585000Y-14600000I-185000J0D01*
G01*
D12*
X4483928Y-15468214D02*
X4483928Y-15168214D01*
X4555357Y-15168214D01*
X4598214Y-15182500D01*
X4626786Y-15211071D01*
X4641071Y-15239643D01*
X4655357Y-15296786D01*
X4655357Y-15339643D01*
X4641071Y-15396786D01*
X4626786Y-15425357D01*
X4598214Y-15453929D01*
X4555357Y-15468214D01*
X4483928Y-15468214D01*
X4783928Y-15468214D02*
X4783928Y-15268214D01*
X4783928Y-15325357D02*
X4798214Y-15296786D01*
X4812500Y-15282500D01*
X4841071Y-15268214D01*
X4869643Y-15268214D01*
X4969643Y-15468214D02*
X4969643Y-15268214D01*
X4969643Y-15168214D02*
X4955357Y-15182500D01*
X4969643Y-15196786D01*
X4983928Y-15182500D01*
X4969643Y-15168214D01*
X4969643Y-15196786D01*
X5155357Y-15468214D02*
X5126786Y-15453929D01*
X5112500Y-15425357D01*
X5112500Y-15168214D01*
X5312500Y-15468214D02*
X5283928Y-15453929D01*
X5269643Y-15425357D01*
X5269643Y-15168214D01*
X5655357Y-15468214D02*
X5655357Y-15168214D01*
X5755357Y-15382500D01*
X5855357Y-15168214D01*
X5855357Y-15468214D01*
X6126786Y-15468214D02*
X6126786Y-15311071D01*
X6112500Y-15282500D01*
X6083928Y-15268214D01*
X6026786Y-15268214D01*
X5998214Y-15282500D01*
X6126786Y-15453929D02*
X6098214Y-15468214D01*
X6026786Y-15468214D01*
X5998214Y-15453929D01*
X5983928Y-15425357D01*
X5983928Y-15396786D01*
X5998214Y-15368214D01*
X6026786Y-15353929D01*
X6098214Y-15353929D01*
X6126786Y-15339643D01*
X6269643Y-15268214D02*
X6269643Y-15568214D01*
X6269643Y-15282500D02*
X6298214Y-15268214D01*
X6355357Y-15268214D01*
X6383928Y-15282500D01*
X6398214Y-15296786D01*
X6412500Y-15325357D01*
X6412500Y-15411071D01*
X6398214Y-15439643D01*
X6383928Y-15453929D01*
X6355357Y-15468214D01*
X6298214Y-15468214D01*
X6269643Y-15453929D01*
X6541071Y-15439643D02*
X6555357Y-15453929D01*
X6541071Y-15468214D01*
X6526786Y-15453929D01*
X6541071Y-15439643D01*
X6541071Y-15468214D01*
X6541071Y-15282500D02*
X6555357Y-15296786D01*
X6541071Y-15311071D01*
X6526786Y-15296786D01*
X6541071Y-15282500D01*
X6541071Y-15311071D01*
X3977500Y-15852500D02*
X4197500Y-16072500D01*
X4197500Y-15852500D02*
X3977500Y-16072500D01*
X4469643Y-15826786D02*
X4483928Y-15812500D01*
X4512500Y-15798214D01*
X4583928Y-15798214D01*
X4612500Y-15812500D01*
X4626786Y-15826786D01*
X4641071Y-15855357D01*
X4641071Y-15883929D01*
X4626786Y-15926786D01*
X4455357Y-16098214D01*
X4641071Y-16098214D01*
X4769643Y-16069643D02*
X4783928Y-16083929D01*
X4769643Y-16098214D01*
X4755357Y-16083929D01*
X4769643Y-16069643D01*
X4769643Y-16098214D01*
X4898214Y-15826786D02*
X4912500Y-15812500D01*
X4941071Y-15798214D01*
X5012500Y-15798214D01*
X5041071Y-15812500D01*
X5055357Y-15826786D01*
X5069643Y-15855357D01*
X5069643Y-15883929D01*
X5055357Y-15926786D01*
X4883928Y-16098214D01*
X5069643Y-16098214D01*
X5255357Y-15798214D02*
X5283928Y-15798214D01*
X5312500Y-15812500D01*
X5326786Y-15826786D01*
X5341071Y-15855357D01*
X5355357Y-15912500D01*
X5355357Y-15983929D01*
X5341071Y-16041071D01*
X5326786Y-16069643D01*
X5312500Y-16083929D01*
X5283928Y-16098214D01*
X5255357Y-16098214D01*
X5226786Y-16083929D01*
X5212500Y-16069643D01*
X5198214Y-16041071D01*
X5183928Y-15983929D01*
X5183928Y-15912500D01*
X5198214Y-15855357D01*
X5212500Y-15826786D01*
X5226786Y-15812500D01*
X5255357Y-15798214D01*
X5483928Y-16098214D02*
X5483928Y-15898214D01*
X5483928Y-15926786D02*
X5498214Y-15912500D01*
X5526786Y-15898214D01*
X5569643Y-15898214D01*
X5598214Y-15912500D01*
X5612500Y-15941071D01*
X5612500Y-16098214D01*
X5612500Y-15941071D02*
X5626786Y-15912500D01*
X5655357Y-15898214D01*
X5698214Y-15898214D01*
X5726786Y-15912500D01*
X5741071Y-15941071D01*
X5741071Y-16098214D01*
X5883928Y-16098214D02*
X5883928Y-15898214D01*
X5883928Y-15926786D02*
X5898214Y-15912500D01*
X5926786Y-15898214D01*
X5969643Y-15898214D01*
X5998214Y-15912500D01*
X6012500Y-15941071D01*
X6012500Y-16098214D01*
X6012500Y-15941071D02*
X6026786Y-15912500D01*
X6055357Y-15898214D01*
X6098214Y-15898214D01*
X6126786Y-15912500D01*
X6141071Y-15941071D01*
X6141071Y-16098214D01*
X6726786Y-15783929D02*
X6469643Y-16169643D01*
X7112500Y-15798214D02*
X7141071Y-15798214D01*
X7169643Y-15812500D01*
X7183928Y-15826786D01*
X7198214Y-15855357D01*
X7212500Y-15912500D01*
X7212500Y-15983929D01*
X7198214Y-16041071D01*
X7183928Y-16069643D01*
X7169643Y-16083929D01*
X7141071Y-16098214D01*
X7112500Y-16098214D01*
X7083928Y-16083929D01*
X7069643Y-16069643D01*
X7055357Y-16041071D01*
X7041071Y-15983929D01*
X7041071Y-15912500D01*
X7055357Y-15855357D01*
X7069643Y-15826786D01*
X7083928Y-15812500D01*
X7112500Y-15798214D01*
X7341071Y-16069643D02*
X7355357Y-16083929D01*
X7341071Y-16098214D01*
X7326786Y-16083929D01*
X7341071Y-16069643D01*
X7341071Y-16098214D01*
X7541071Y-15798214D02*
X7569643Y-15798214D01*
X7598214Y-15812500D01*
X7612500Y-15826786D01*
X7626786Y-15855357D01*
X7641071Y-15912500D01*
X7641071Y-15983929D01*
X7626786Y-16041071D01*
X7612500Y-16069643D01*
X7598214Y-16083929D01*
X7569643Y-16098214D01*
X7541071Y-16098214D01*
X7512500Y-16083929D01*
X7498214Y-16069643D01*
X7483928Y-16041071D01*
X7469643Y-15983929D01*
X7469643Y-15912500D01*
X7483928Y-15855357D01*
X7498214Y-15826786D01*
X7512500Y-15812500D01*
X7541071Y-15798214D01*
X7812500Y-15926786D02*
X7783928Y-15912500D01*
X7769643Y-15898214D01*
X7755357Y-15869643D01*
X7755357Y-15855357D01*
X7769643Y-15826786D01*
X7783928Y-15812500D01*
X7812500Y-15798214D01*
X7869643Y-15798214D01*
X7898214Y-15812500D01*
X7912500Y-15826786D01*
X7926786Y-15855357D01*
X7926786Y-15869643D01*
X7912500Y-15898214D01*
X7898214Y-15912500D01*
X7869643Y-15926786D01*
X7812500Y-15926786D01*
X7783928Y-15941071D01*
X7769643Y-15955357D01*
X7755357Y-15983929D01*
X7755357Y-16041071D01*
X7769643Y-16069643D01*
X7783928Y-16083929D01*
X7812500Y-16098214D01*
X7869643Y-16098214D01*
X7898214Y-16083929D01*
X7912500Y-16069643D01*
X7926786Y-16041071D01*
X7926786Y-15983929D01*
X7912500Y-15955357D01*
X7898214Y-15941071D01*
X7869643Y-15926786D01*
X8026786Y-15798214D02*
X8226786Y-15798214D01*
X8098214Y-16098214D01*
X8326786Y-15798214D02*
X8326786Y-15855357D01*
X8441071Y-15798214D02*
X8441071Y-15855357D01*
X8883928Y-16212500D02*
X8869643Y-16198214D01*
X8841071Y-16155357D01*
X8826786Y-16126786D01*
X8812500Y-16083929D01*
X8798214Y-16012500D01*
X8798214Y-15955357D01*
X8812500Y-15883929D01*
X8826786Y-15841071D01*
X8841071Y-15812500D01*
X8869643Y-15769643D01*
X8883928Y-15755357D01*
X8983928Y-15826786D02*
X8998214Y-15812500D01*
X9026786Y-15798214D01*
X9098214Y-15798214D01*
X9126786Y-15812500D01*
X9141071Y-15826786D01*
X9155357Y-15855357D01*
X9155357Y-15883929D01*
X9141071Y-15926786D01*
X8969643Y-16098214D01*
X9155357Y-16098214D01*
X9512500Y-16098214D02*
X9512500Y-15798214D01*
X9641071Y-16098214D02*
X9641071Y-15941071D01*
X9626786Y-15912500D01*
X9598214Y-15898214D01*
X9555357Y-15898214D01*
X9526786Y-15912500D01*
X9512500Y-15926786D01*
X9826786Y-16098214D02*
X9798214Y-16083929D01*
X9783928Y-16069643D01*
X9769643Y-16041071D01*
X9769643Y-15955357D01*
X9783928Y-15926786D01*
X9798214Y-15912500D01*
X9826786Y-15898214D01*
X9869643Y-15898214D01*
X9898214Y-15912500D01*
X9912500Y-15926786D01*
X9926786Y-15955357D01*
X9926786Y-16041071D01*
X9912500Y-16069643D01*
X9898214Y-16083929D01*
X9869643Y-16098214D01*
X9826786Y-16098214D01*
X10098214Y-16098214D02*
X10069643Y-16083929D01*
X10055357Y-16055357D01*
X10055357Y-15798214D01*
X10326786Y-16083929D02*
X10298214Y-16098214D01*
X10241071Y-16098214D01*
X10212500Y-16083929D01*
X10198214Y-16055357D01*
X10198214Y-15941071D01*
X10212500Y-15912500D01*
X10241071Y-15898214D01*
X10298214Y-15898214D01*
X10326786Y-15912500D01*
X10341071Y-15941071D01*
X10341071Y-15969643D01*
X10198214Y-15998214D01*
X10455357Y-16083929D02*
X10483928Y-16098214D01*
X10541071Y-16098214D01*
X10569643Y-16083929D01*
X10583928Y-16055357D01*
X10583928Y-16041071D01*
X10569643Y-16012500D01*
X10541071Y-15998214D01*
X10498214Y-15998214D01*
X10469643Y-15983929D01*
X10455357Y-15955357D01*
X10455357Y-15941071D01*
X10469643Y-15912500D01*
X10498214Y-15898214D01*
X10541071Y-15898214D01*
X10569643Y-15912500D01*
X10683928Y-16212500D02*
X10698214Y-16198214D01*
X10726786Y-16155357D01*
X10741071Y-16126786D01*
X10755357Y-16083929D01*
X10769643Y-16012500D01*
X10769643Y-15955357D01*
X10755357Y-15883929D01*
X10741071Y-15841071D01*
X10726786Y-15812500D01*
X10698214Y-15769643D01*
X10683928Y-15755357D01*
X11226786Y-16212500D02*
X11212500Y-16198214D01*
X11183928Y-16155357D01*
X11169643Y-16126786D01*
X11155357Y-16083929D01*
X11141071Y-16012500D01*
X11141071Y-15955357D01*
X11155357Y-15883929D01*
X11169643Y-15841071D01*
X11183928Y-15812500D01*
X11212500Y-15769643D01*
X11226786Y-15755357D01*
X11341071Y-15898214D02*
X11341071Y-16098214D01*
X11341071Y-15926786D02*
X11355357Y-15912500D01*
X11383928Y-15898214D01*
X11426786Y-15898214D01*
X11455357Y-15912500D01*
X11469643Y-15941071D01*
X11469643Y-16098214D01*
X11655357Y-16098214D02*
X11626786Y-16083929D01*
X11612500Y-16069643D01*
X11598214Y-16041071D01*
X11598214Y-15955357D01*
X11612500Y-15926786D01*
X11626786Y-15912500D01*
X11655357Y-15898214D01*
X11698214Y-15898214D01*
X11726786Y-15912500D01*
X11741071Y-15926786D01*
X11755357Y-15955357D01*
X11755357Y-16041071D01*
X11741071Y-16069643D01*
X11726786Y-16083929D01*
X11698214Y-16098214D01*
X11655357Y-16098214D01*
X11841071Y-15898214D02*
X11955357Y-15898214D01*
X11883928Y-15798214D02*
X11883928Y-16055357D01*
X11898214Y-16083929D01*
X11926786Y-16098214D01*
X11955357Y-16098214D01*
X12283928Y-15898214D02*
X12283928Y-16198214D01*
X12283928Y-15912500D02*
X12312500Y-15898214D01*
X12369643Y-15898214D01*
X12398214Y-15912500D01*
X12412500Y-15926786D01*
X12426786Y-15955357D01*
X12426786Y-16041071D01*
X12412500Y-16069643D01*
X12398214Y-16083929D01*
X12369643Y-16098214D01*
X12312500Y-16098214D01*
X12283928Y-16083929D01*
X12598214Y-16098214D02*
X12569643Y-16083929D01*
X12555357Y-16055357D01*
X12555357Y-15798214D01*
X12841071Y-16098214D02*
X12841071Y-15941071D01*
X12826786Y-15912500D01*
X12798214Y-15898214D01*
X12741071Y-15898214D01*
X12712500Y-15912500D01*
X12841071Y-16083929D02*
X12812500Y-16098214D01*
X12741071Y-16098214D01*
X12712500Y-16083929D01*
X12698214Y-16055357D01*
X12698214Y-16026786D01*
X12712500Y-15998214D01*
X12741071Y-15983929D01*
X12812500Y-15983929D01*
X12841071Y-15969643D01*
X12941071Y-15898214D02*
X13055357Y-15898214D01*
X12983928Y-15798214D02*
X12983928Y-16055357D01*
X12998214Y-16083929D01*
X13026786Y-16098214D01*
X13055357Y-16098214D01*
X13269643Y-16083929D02*
X13241071Y-16098214D01*
X13183928Y-16098214D01*
X13155357Y-16083929D01*
X13141071Y-16055357D01*
X13141071Y-15941071D01*
X13155357Y-15912500D01*
X13183928Y-15898214D01*
X13241071Y-15898214D01*
X13269643Y-15912500D01*
X13283928Y-15941071D01*
X13283928Y-15969643D01*
X13141071Y-15998214D01*
X13541071Y-16098214D02*
X13541071Y-15798214D01*
X13541071Y-16083929D02*
X13512500Y-16098214D01*
X13455357Y-16098214D01*
X13426786Y-16083929D01*
X13412500Y-16069643D01*
X13398214Y-16041071D01*
X13398214Y-15955357D01*
X13412500Y-15926786D01*
X13426786Y-15912500D01*
X13455357Y-15898214D01*
X13512500Y-15898214D01*
X13541071Y-15912500D01*
X13655357Y-16212500D02*
X13669643Y-16198214D01*
X13698214Y-16155357D01*
X13712500Y-16126786D01*
X13726786Y-16083929D01*
X13741071Y-16012500D01*
X13741071Y-15955357D01*
X13726786Y-15883929D01*
X13712500Y-15841071D01*
X13698214Y-15812500D01*
X13669643Y-15769643D01*
X13655357Y-15755357D01*
X4197500Y-16358500D02*
G75*
G03*
X4197500Y-16358500I-185000J0D01*
G01*
X4455357Y-16194214D02*
X4641071Y-16194214D01*
X4541071Y-16308500D01*
X4583928Y-16308500D01*
X4612500Y-16322786D01*
X4626786Y-16337071D01*
X4641071Y-16365643D01*
X4641071Y-16437071D01*
X4626786Y-16465643D01*
X4612500Y-16479929D01*
X4583928Y-16494214D01*
X4498214Y-16494214D01*
X4469643Y-16479929D01*
X4455357Y-16465643D01*
X4769643Y-16465643D02*
X4783928Y-16479929D01*
X4769643Y-16494214D01*
X4755357Y-16479929D01*
X4769643Y-16465643D01*
X4769643Y-16494214D01*
X4883928Y-16194214D02*
X5083928Y-16194214D01*
X4955357Y-16494214D01*
X5255357Y-16194214D02*
X5283928Y-16194214D01*
X5312500Y-16208500D01*
X5326786Y-16222786D01*
X5341071Y-16251357D01*
X5355357Y-16308500D01*
X5355357Y-16379929D01*
X5341071Y-16437071D01*
X5326786Y-16465643D01*
X5312500Y-16479929D01*
X5283928Y-16494214D01*
X5255357Y-16494214D01*
X5226786Y-16479929D01*
X5212500Y-16465643D01*
X5198214Y-16437071D01*
X5183928Y-16379929D01*
X5183928Y-16308500D01*
X5198214Y-16251357D01*
X5212500Y-16222786D01*
X5226786Y-16208500D01*
X5255357Y-16194214D01*
X5483928Y-16494214D02*
X5483928Y-16294214D01*
X5483928Y-16322786D02*
X5498214Y-16308500D01*
X5526786Y-16294214D01*
X5569643Y-16294214D01*
X5598214Y-16308500D01*
X5612500Y-16337071D01*
X5612500Y-16494214D01*
X5612500Y-16337071D02*
X5626786Y-16308500D01*
X5655357Y-16294214D01*
X5698214Y-16294214D01*
X5726786Y-16308500D01*
X5741071Y-16337071D01*
X5741071Y-16494214D01*
X5883928Y-16494214D02*
X5883928Y-16294214D01*
X5883928Y-16322786D02*
X5898214Y-16308500D01*
X5926786Y-16294214D01*
X5969643Y-16294214D01*
X5998214Y-16308500D01*
X6012500Y-16337071D01*
X6012500Y-16494214D01*
X6012500Y-16337071D02*
X6026786Y-16308500D01*
X6055357Y-16294214D01*
X6098214Y-16294214D01*
X6126786Y-16308500D01*
X6141071Y-16337071D01*
X6141071Y-16494214D01*
X6726786Y-16179929D02*
X6469643Y-16565643D01*
X7112500Y-16194214D02*
X7141071Y-16194214D01*
X7169643Y-16208500D01*
X7183928Y-16222786D01*
X7198214Y-16251357D01*
X7212500Y-16308500D01*
X7212500Y-16379929D01*
X7198214Y-16437071D01*
X7183928Y-16465643D01*
X7169643Y-16479929D01*
X7141071Y-16494214D01*
X7112500Y-16494214D01*
X7083928Y-16479929D01*
X7069643Y-16465643D01*
X7055357Y-16437071D01*
X7041071Y-16379929D01*
X7041071Y-16308500D01*
X7055357Y-16251357D01*
X7069643Y-16222786D01*
X7083928Y-16208500D01*
X7112500Y-16194214D01*
X7341071Y-16465643D02*
X7355357Y-16479929D01*
X7341071Y-16494214D01*
X7326786Y-16479929D01*
X7341071Y-16465643D01*
X7341071Y-16494214D01*
X7641071Y-16494214D02*
X7469643Y-16494214D01*
X7555357Y-16494214D02*
X7555357Y-16194214D01*
X7526786Y-16237071D01*
X7498214Y-16265643D01*
X7469643Y-16279929D01*
X7898214Y-16294214D02*
X7898214Y-16494214D01*
X7826786Y-16179929D02*
X7755357Y-16394214D01*
X7941071Y-16394214D01*
X8183928Y-16194214D02*
X8126786Y-16194214D01*
X8098214Y-16208500D01*
X8083928Y-16222786D01*
X8055357Y-16265643D01*
X8041071Y-16322786D01*
X8041071Y-16437071D01*
X8055357Y-16465643D01*
X8069643Y-16479929D01*
X8098214Y-16494214D01*
X8155357Y-16494214D01*
X8183928Y-16479929D01*
X8198214Y-16465643D01*
X8212500Y-16437071D01*
X8212500Y-16365643D01*
X8198214Y-16337071D01*
X8183928Y-16322786D01*
X8155357Y-16308500D01*
X8098214Y-16308500D01*
X8069643Y-16322786D01*
X8055357Y-16337071D01*
X8041071Y-16365643D01*
X8326786Y-16194214D02*
X8326786Y-16251357D01*
X8441071Y-16194214D02*
X8441071Y-16251357D01*
X8883928Y-16608500D02*
X8869643Y-16594214D01*
X8841071Y-16551357D01*
X8826786Y-16522786D01*
X8812500Y-16479929D01*
X8798214Y-16408500D01*
X8798214Y-16351357D01*
X8812500Y-16279929D01*
X8826786Y-16237071D01*
X8841071Y-16208500D01*
X8869643Y-16165643D01*
X8883928Y-16151357D01*
X9126786Y-16294214D02*
X9126786Y-16494214D01*
X9055357Y-16179929D02*
X8983928Y-16394214D01*
X9169643Y-16394214D01*
X9512500Y-16494214D02*
X9512500Y-16194214D01*
X9641071Y-16494214D02*
X9641071Y-16337071D01*
X9626786Y-16308500D01*
X9598214Y-16294214D01*
X9555357Y-16294214D01*
X9526786Y-16308500D01*
X9512500Y-16322786D01*
X9826786Y-16494214D02*
X9798214Y-16479929D01*
X9783928Y-16465643D01*
X9769643Y-16437071D01*
X9769643Y-16351357D01*
X9783928Y-16322786D01*
X9798214Y-16308500D01*
X9826786Y-16294214D01*
X9869643Y-16294214D01*
X9898214Y-16308500D01*
X9912500Y-16322786D01*
X9926786Y-16351357D01*
X9926786Y-16437071D01*
X9912500Y-16465643D01*
X9898214Y-16479929D01*
X9869643Y-16494214D01*
X9826786Y-16494214D01*
X10098214Y-16494214D02*
X10069643Y-16479929D01*
X10055357Y-16451357D01*
X10055357Y-16194214D01*
X10326786Y-16479929D02*
X10298214Y-16494214D01*
X10241071Y-16494214D01*
X10212500Y-16479929D01*
X10198214Y-16451357D01*
X10198214Y-16337071D01*
X10212500Y-16308500D01*
X10241071Y-16294214D01*
X10298214Y-16294214D01*
X10326786Y-16308500D01*
X10341071Y-16337071D01*
X10341071Y-16365643D01*
X10198214Y-16394214D01*
X10455357Y-16479929D02*
X10483928Y-16494214D01*
X10541071Y-16494214D01*
X10569643Y-16479929D01*
X10583928Y-16451357D01*
X10583928Y-16437071D01*
X10569643Y-16408500D01*
X10541071Y-16394214D01*
X10498214Y-16394214D01*
X10469643Y-16379929D01*
X10455357Y-16351357D01*
X10455357Y-16337071D01*
X10469643Y-16308500D01*
X10498214Y-16294214D01*
X10541071Y-16294214D01*
X10569643Y-16308500D01*
X10683928Y-16608500D02*
X10698214Y-16594214D01*
X10726786Y-16551357D01*
X10741071Y-16522786D01*
X10755357Y-16479929D01*
X10769643Y-16408500D01*
X10769643Y-16351357D01*
X10755357Y-16279929D01*
X10741071Y-16237071D01*
X10726786Y-16208500D01*
X10698214Y-16165643D01*
X10683928Y-16151357D01*
X11226786Y-16608500D02*
X11212500Y-16594214D01*
X11183928Y-16551357D01*
X11169643Y-16522786D01*
X11155357Y-16479929D01*
X11141071Y-16408500D01*
X11141071Y-16351357D01*
X11155357Y-16279929D01*
X11169643Y-16237071D01*
X11183928Y-16208500D01*
X11212500Y-16165643D01*
X11226786Y-16151357D01*
X11341071Y-16294214D02*
X11341071Y-16494214D01*
X11341071Y-16322786D02*
X11355357Y-16308500D01*
X11383928Y-16294214D01*
X11426786Y-16294214D01*
X11455357Y-16308500D01*
X11469643Y-16337071D01*
X11469643Y-16494214D01*
X11655357Y-16494214D02*
X11626786Y-16479929D01*
X11612500Y-16465643D01*
X11598214Y-16437071D01*
X11598214Y-16351357D01*
X11612500Y-16322786D01*
X11626786Y-16308500D01*
X11655357Y-16294214D01*
X11698214Y-16294214D01*
X11726786Y-16308500D01*
X11741071Y-16322786D01*
X11755357Y-16351357D01*
X11755357Y-16437071D01*
X11741071Y-16465643D01*
X11726786Y-16479929D01*
X11698214Y-16494214D01*
X11655357Y-16494214D01*
X11841071Y-16294214D02*
X11955357Y-16294214D01*
X11883928Y-16194214D02*
X11883928Y-16451357D01*
X11898214Y-16479929D01*
X11926786Y-16494214D01*
X11955357Y-16494214D01*
X12283928Y-16294214D02*
X12283928Y-16594214D01*
X12283928Y-16308500D02*
X12312500Y-16294214D01*
X12369643Y-16294214D01*
X12398214Y-16308500D01*
X12412500Y-16322786D01*
X12426786Y-16351357D01*
X12426786Y-16437071D01*
X12412500Y-16465643D01*
X12398214Y-16479929D01*
X12369643Y-16494214D01*
X12312500Y-16494214D01*
X12283928Y-16479929D01*
X12598214Y-16494214D02*
X12569643Y-16479929D01*
X12555357Y-16451357D01*
X12555357Y-16194214D01*
X12841071Y-16494214D02*
X12841071Y-16337071D01*
X12826786Y-16308500D01*
X12798214Y-16294214D01*
X12741071Y-16294214D01*
X12712500Y-16308500D01*
X12841071Y-16479929D02*
X12812500Y-16494214D01*
X12741071Y-16494214D01*
X12712500Y-16479929D01*
X12698214Y-16451357D01*
X12698214Y-16422786D01*
X12712500Y-16394214D01*
X12741071Y-16379929D01*
X12812500Y-16379929D01*
X12841071Y-16365643D01*
X12941071Y-16294214D02*
X13055357Y-16294214D01*
X12983928Y-16194214D02*
X12983928Y-16451357D01*
X12998214Y-16479929D01*
X13026786Y-16494214D01*
X13055357Y-16494214D01*
X13269643Y-16479929D02*
X13241071Y-16494214D01*
X13183928Y-16494214D01*
X13155357Y-16479929D01*
X13141071Y-16451357D01*
X13141071Y-16337071D01*
X13155357Y-16308500D01*
X13183928Y-16294214D01*
X13241071Y-16294214D01*
X13269643Y-16308500D01*
X13283928Y-16337071D01*
X13283928Y-16365643D01*
X13141071Y-16394214D01*
X13541071Y-16494214D02*
X13541071Y-16194214D01*
X13541071Y-16479929D02*
X13512500Y-16494214D01*
X13455357Y-16494214D01*
X13426786Y-16479929D01*
X13412500Y-16465643D01*
X13398214Y-16437071D01*
X13398214Y-16351357D01*
X13412500Y-16322786D01*
X13426786Y-16308500D01*
X13455357Y-16294214D01*
X13512500Y-16294214D01*
X13541071Y-16308500D01*
X13655357Y-16608500D02*
X13669643Y-16594214D01*
X13698214Y-16551357D01*
X13712500Y-16522786D01*
X13726786Y-16479929D01*
X13741071Y-16408500D01*
X13741071Y-16351357D01*
X13726786Y-16279929D01*
X13712500Y-16237071D01*
X13698214Y-16208500D01*
X13669643Y-16165643D01*
X13655357Y-16151357D01*
M02*
