M48
; DRILL file {KiCad (5.1.9)-1} date 04/20/21 11:25:07
; FORMAT={-:-/ absolute / metric / decimal}
; #@! TF.CreationDate,2021-04-20T11:25:07+02:00
; #@! TF.GenerationSoftware,Kicad,Pcbnew,(5.1.9)-1
; #@! TF.FileFunction,Plated,1,2,PTH
FMAT,2
METRIC
T1C0.400
T2C0.950
T3C1.000
T4C1.200
T5C2.300
%
G90
G05
T1
X51.4Y-101.0
X51.4Y-106.2
X51.4Y-111.2
X51.4Y-116.4
X51.4Y-121.4
X51.4Y-126.4
X51.4Y-131.6
X51.4Y-136.6
X53.2Y-143.0
X55.0Y-97.0
X58.8Y-119.6
X58.8Y-125.4
X58.8Y-128.8
X59.6Y-110.0
X60.0Y-99.6
X60.4Y-141.8
X61.0Y-95.2
X61.4Y-136.6
X62.4Y-113.0
X63.0Y-137.6
X63.0Y-144.0
X63.4Y-102.4
X64.6Y-126.0
X65.8Y-135.4
X65.8Y-141.2
X66.0Y-109.8
X67.4Y-143.6
X67.6Y-100.0
X67.6Y-126.0
X67.8Y-132.0
X69.2Y-144.6
X69.6Y-135.8
X70.0Y-126.0
X70.0Y-132.0
X70.4Y-110.0
X70.4Y-140.8
X70.6Y-148.6
X75.8Y-125.0
X75.937Y-148.463
X76.0Y-132.8
X76.8Y-94.8
X77.0Y-128.2
X77.8Y-147.2
X78.0Y-140.4
X78.0Y-142.4
X79.6Y-122.6
X80.2Y-115.6
X81.4Y-128.0
X81.6Y-136.2
X82.2Y-132.8
X82.5Y-147.5
X82.8Y-104.0
X83.4Y-108.2
X83.8Y-121.6
X84.2Y-127.4
X84.4Y-136.2
X84.6Y-132.8
X85.6Y-123.4
X85.6Y-128.6
X85.737Y-148.463
X86.6Y-121.6
X86.6Y-132.8
X87.8Y-144.2
X89.6Y-104.4
X90.4Y-115.4
X90.6Y-108.6
X92.137Y-148.463
X92.6Y-94.4
X94.4Y-109.2
X95.0Y-104.0
X95.2Y-120.2
X95.2Y-139.2
X95.2Y-141.0
X95.2Y-142.8
X95.4Y-144.6
X98.2Y-123.4
X98.2Y-135.2
X98.2Y-137.8
X98.4Y-113.4
X98.4Y-127.6
X98.4Y-140.4
X99.4Y-118.4
X99.6Y-124.4
X100.8Y-104.4
X100.8Y-109.6
X100.8Y-141.0
X101.0Y-127.6
X101.0Y-139.0
X101.6Y-146.6
X103.0Y-131.2
X104.4Y-128.6
X105.8Y-115.8
X105.8Y-120.8
X105.8Y-134.0
X106.4Y-111.0
X106.8Y-104.2
X107.6Y-134.0
X108.4Y-94.6
X108.4Y-128.6
X110.4Y-133.2
X112.0Y-104.4
X112.2Y-132.0
X113.0Y-94.8
X114.0Y-137.0
X115.0Y-146.0
X116.4Y-137.0
X121.1Y-122.1
X121.2Y-107.6
X123.8Y-119.4
X124.8Y-135.4
X125.0Y-124.8
X125.0Y-132.4
X125.2Y-102.6
X126.0Y-122.6
X126.8Y-110.6
X127.0Y-134.4
X127.6Y-142.8
X127.6Y-146.2
X128.8Y-136.6
X130.8Y-124.4
X132.6Y-134.4
X134.6Y-143.4
X134.8Y-113.8
X135.66Y-109.54
X136.4Y-138.0
X137.555Y-134.845
X138.8Y-140.0
X139.4Y-137.0
X140.4Y-104.6
X141.4Y-113.8
X142.06Y-109.54
X144.8Y-104.8
X149.6Y-102.0
X150.0Y-114.0
X153.2Y-102.0
T2
X142.0Y-127.0
X142.0Y-129.5
X144.0Y-127.0
X144.0Y-129.5
T3
X53.46Y-99.8
X53.46Y-102.34
X53.46Y-104.88
X53.46Y-107.42
X53.46Y-109.96
X53.46Y-112.5
X53.46Y-115.04
X53.46Y-117.58
X53.46Y-120.12
X53.46Y-122.66
X53.46Y-125.2
X53.46Y-127.74
X53.46Y-130.28
X53.46Y-132.82
X53.46Y-135.36
X53.46Y-137.9
X53.46Y-140.44
X56.0Y-99.8
X56.0Y-102.34
X56.0Y-104.88
X56.0Y-107.42
X56.0Y-109.96
X56.0Y-112.5
X56.0Y-115.04
X56.0Y-117.58
X56.0Y-120.12
X56.0Y-122.66
X56.0Y-125.2
X56.0Y-127.74
X56.0Y-130.28
X56.0Y-132.82
X56.0Y-135.36
X56.0Y-137.9
X56.0Y-140.44
X107.4Y-146.0
X109.94Y-146.0
X112.48Y-146.0
X113.2Y-113.2
X113.2Y-115.74
X113.2Y-118.28
X113.2Y-120.82
X113.2Y-123.36
X113.2Y-125.9
X119.8Y-146.0
X122.34Y-146.0
X124.88Y-146.0
X132.32Y-146.0
X134.86Y-146.0
X137.4Y-146.0
X153.8Y-107.0
X153.8Y-109.54
X153.8Y-112.08
T4
X65.0Y-95.0
X68.81Y-95.0
X72.62Y-95.0
X81.0Y-95.0
X84.81Y-95.0
X88.62Y-95.0
X97.0Y-95.0
X100.81Y-95.0
X104.62Y-95.0
X117.0Y-95.0
X120.81Y-95.0
T5
X146.86Y-122.25
X146.86Y-134.25
T3
X129.3Y-100.0G85X129.3Y-102.0
G05
X135.0Y-98.0G85X133.0Y-98.0
G05
X135.0Y-104.0G85X133.0Y-104.0
G05
T0
M30
