%FSLAX45Y45*%
G04 Gerber Fmt 4.5, Leading zero omitted, Abs format (unit mm)*
G04 Created by KiCad (PCBNEW (5.1.9)-1) date 2021-04-20 11:25:09*
%MOMM*%
%LPD*%
G01*
G04 APERTURE LIST*
%TA.AperFunction,Profile*%
%ADD10C,0.050000*%
%TD*%
%ADD11C,0.200000*%
%ADD12C,0.300000*%
G04 APERTURE END LIST*
D10*
X15800000Y-15000000D02*
X4200000Y-15000000D01*
X15800000Y-9000000D02*
X15800000Y-15000000D01*
X4200000Y-9000000D02*
X15800000Y-9000000D01*
X4200000Y-15000000D02*
X4200000Y-9000000D01*
D11*
X5120000Y-10080000D02*
X5160000Y-10120000D01*
X5160000Y-10080000D02*
X5120000Y-10120000D01*
X5120000Y-10600000D02*
X5160000Y-10640000D01*
X5160000Y-10600000D02*
X5120000Y-10640000D01*
X5120000Y-11100000D02*
X5160000Y-11140000D01*
X5160000Y-11100000D02*
X5120000Y-11140000D01*
X5120000Y-11620000D02*
X5160000Y-11660000D01*
X5160000Y-11620000D02*
X5120000Y-11660000D01*
X5120000Y-12120000D02*
X5160000Y-12160000D01*
X5160000Y-12120000D02*
X5120000Y-12160000D01*
X5120000Y-12620000D02*
X5160000Y-12660000D01*
X5160000Y-12620000D02*
X5120000Y-12660000D01*
X5120000Y-13140000D02*
X5160000Y-13180000D01*
X5160000Y-13140000D02*
X5120000Y-13180000D01*
X5120000Y-13640000D02*
X5160000Y-13680000D01*
X5160000Y-13640000D02*
X5120000Y-13680000D01*
X5300000Y-14280000D02*
X5340000Y-14320000D01*
X5340000Y-14280000D02*
X5300000Y-14320000D01*
X5480000Y-9680000D02*
X5520000Y-9720000D01*
X5520000Y-9680000D02*
X5480000Y-9720000D01*
X5860000Y-11940000D02*
X5900000Y-11980000D01*
X5900000Y-11940000D02*
X5860000Y-11980000D01*
X5860000Y-12520000D02*
X5900000Y-12560000D01*
X5900000Y-12520000D02*
X5860000Y-12560000D01*
X5860000Y-12860000D02*
X5900000Y-12900000D01*
X5900000Y-12860000D02*
X5860000Y-12900000D01*
X5940000Y-10980000D02*
X5980000Y-11020000D01*
X5980000Y-10980000D02*
X5940000Y-11020000D01*
X5980000Y-9940000D02*
X6020000Y-9980000D01*
X6020000Y-9940000D02*
X5980000Y-9980000D01*
X6020000Y-14160000D02*
X6060000Y-14200000D01*
X6060000Y-14160000D02*
X6020000Y-14200000D01*
X6080000Y-9500000D02*
X6120000Y-9540000D01*
X6120000Y-9500000D02*
X6080000Y-9540000D01*
X6120000Y-13640000D02*
X6160000Y-13680000D01*
X6160000Y-13640000D02*
X6120000Y-13680000D01*
X6220000Y-11280000D02*
X6260000Y-11320000D01*
X6260000Y-11280000D02*
X6220000Y-11320000D01*
X6280000Y-13740000D02*
X6320000Y-13780000D01*
X6320000Y-13740000D02*
X6280000Y-13780000D01*
X6280000Y-14380000D02*
X6320000Y-14420000D01*
X6320000Y-14380000D02*
X6280000Y-14420000D01*
X6320000Y-10220000D02*
X6360000Y-10260000D01*
X6360000Y-10220000D02*
X6320000Y-10260000D01*
X6440000Y-12580000D02*
X6480000Y-12620000D01*
X6480000Y-12580000D02*
X6440000Y-12620000D01*
X6560000Y-13520000D02*
X6600000Y-13560000D01*
X6600000Y-13520000D02*
X6560000Y-13560000D01*
X6560000Y-14100000D02*
X6600000Y-14140000D01*
X6600000Y-14100000D02*
X6560000Y-14140000D01*
X6580000Y-10960000D02*
X6620000Y-11000000D01*
X6620000Y-10960000D02*
X6580000Y-11000000D01*
X6720000Y-14340000D02*
X6760000Y-14380000D01*
X6760000Y-14340000D02*
X6720000Y-14380000D01*
X6740000Y-9980000D02*
X6780000Y-10020000D01*
X6780000Y-9980000D02*
X6740000Y-10020000D01*
X6740000Y-12580000D02*
X6780000Y-12620000D01*
X6780000Y-12580000D02*
X6740000Y-12620000D01*
X6760000Y-13180000D02*
X6800000Y-13220000D01*
X6800000Y-13180000D02*
X6760000Y-13220000D01*
X6900000Y-14440000D02*
X6940000Y-14480000D01*
X6940000Y-14440000D02*
X6900000Y-14480000D01*
X6940000Y-13560000D02*
X6980000Y-13600000D01*
X6980000Y-13560000D02*
X6940000Y-13600000D01*
X6980000Y-12580000D02*
X7020000Y-12620000D01*
X7020000Y-12580000D02*
X6980000Y-12620000D01*
X6980000Y-13180000D02*
X7020000Y-13220000D01*
X7020000Y-13180000D02*
X6980000Y-13220000D01*
X7020000Y-10980000D02*
X7060000Y-11020000D01*
X7060000Y-10980000D02*
X7020000Y-11020000D01*
X7020000Y-14060000D02*
X7060000Y-14100000D01*
X7060000Y-14060000D02*
X7020000Y-14100000D01*
X7040000Y-14840000D02*
X7080000Y-14880000D01*
X7080000Y-14840000D02*
X7040000Y-14880000D01*
X7560000Y-12480000D02*
X7600000Y-12520000D01*
X7600000Y-12480000D02*
X7560000Y-12520000D01*
X7573720Y-14826280D02*
X7613720Y-14866280D01*
X7613720Y-14826280D02*
X7573720Y-14866280D01*
X7580000Y-13260000D02*
X7620000Y-13300000D01*
X7620000Y-13260000D02*
X7580000Y-13300000D01*
X7660000Y-9460000D02*
X7700000Y-9500000D01*
X7700000Y-9460000D02*
X7660000Y-9500000D01*
X7680000Y-12800000D02*
X7720000Y-12840000D01*
X7720000Y-12800000D02*
X7680000Y-12840000D01*
X7760000Y-14700000D02*
X7800000Y-14740000D01*
X7800000Y-14700000D02*
X7760000Y-14740000D01*
X7780000Y-14020000D02*
X7820000Y-14060000D01*
X7820000Y-14020000D02*
X7780000Y-14060000D01*
X7780000Y-14220000D02*
X7820000Y-14260000D01*
X7820000Y-14220000D02*
X7780000Y-14260000D01*
X7940000Y-12240000D02*
X7980000Y-12280000D01*
X7980000Y-12240000D02*
X7940000Y-12280000D01*
X8000000Y-11540000D02*
X8040000Y-11580000D01*
X8040000Y-11540000D02*
X8000000Y-11580000D01*
X8120000Y-12780000D02*
X8160000Y-12820000D01*
X8160000Y-12780000D02*
X8120000Y-12820000D01*
X8140000Y-13600000D02*
X8180000Y-13640000D01*
X8180000Y-13600000D02*
X8140000Y-13640000D01*
X8200000Y-13260000D02*
X8240000Y-13300000D01*
X8240000Y-13260000D02*
X8200000Y-13300000D01*
X8230000Y-14730000D02*
X8270000Y-14770000D01*
X8270000Y-14730000D02*
X8230000Y-14770000D01*
X8260000Y-10380000D02*
X8300000Y-10420000D01*
X8300000Y-10380000D02*
X8260000Y-10420000D01*
X8320000Y-10800000D02*
X8360000Y-10840000D01*
X8360000Y-10800000D02*
X8320000Y-10840000D01*
X8360000Y-12140000D02*
X8400000Y-12180000D01*
X8400000Y-12140000D02*
X8360000Y-12180000D01*
X8400000Y-12720000D02*
X8440000Y-12760000D01*
X8440000Y-12720000D02*
X8400000Y-12760000D01*
X8420000Y-13600000D02*
X8460000Y-13640000D01*
X8460000Y-13600000D02*
X8420000Y-13640000D01*
X8440000Y-13260000D02*
X8480000Y-13300000D01*
X8480000Y-13260000D02*
X8440000Y-13300000D01*
X8540000Y-12320000D02*
X8580000Y-12360000D01*
X8580000Y-12320000D02*
X8540000Y-12360000D01*
X8540000Y-12840000D02*
X8580000Y-12880000D01*
X8580000Y-12840000D02*
X8540000Y-12880000D01*
X8553720Y-14826280D02*
X8593720Y-14866280D01*
X8593720Y-14826280D02*
X8553720Y-14866280D01*
X8640000Y-12140000D02*
X8680000Y-12180000D01*
X8680000Y-12140000D02*
X8640000Y-12180000D01*
X8640000Y-13260000D02*
X8680000Y-13300000D01*
X8680000Y-13260000D02*
X8640000Y-13300000D01*
X8760000Y-14400000D02*
X8800000Y-14440000D01*
X8800000Y-14400000D02*
X8760000Y-14440000D01*
X8940000Y-10420000D02*
X8980000Y-10460000D01*
X8980000Y-10420000D02*
X8940000Y-10460000D01*
X9020000Y-11520000D02*
X9060000Y-11560000D01*
X9060000Y-11520000D02*
X9020000Y-11560000D01*
X9040000Y-10840000D02*
X9080000Y-10880000D01*
X9080000Y-10840000D02*
X9040000Y-10880000D01*
X9193720Y-14826280D02*
X9233720Y-14866280D01*
X9233720Y-14826280D02*
X9193720Y-14866280D01*
X9240000Y-9420000D02*
X9280000Y-9460000D01*
X9280000Y-9420000D02*
X9240000Y-9460000D01*
X9420000Y-10900000D02*
X9460000Y-10940000D01*
X9460000Y-10900000D02*
X9420000Y-10940000D01*
X9480000Y-10380000D02*
X9520000Y-10420000D01*
X9520000Y-10380000D02*
X9480000Y-10420000D01*
X9500000Y-12000000D02*
X9540000Y-12040000D01*
X9540000Y-12000000D02*
X9500000Y-12040000D01*
X9500000Y-13900000D02*
X9540000Y-13940000D01*
X9540000Y-13900000D02*
X9500000Y-13940000D01*
X9500000Y-14080000D02*
X9540000Y-14120000D01*
X9540000Y-14080000D02*
X9500000Y-14120000D01*
X9500000Y-14260000D02*
X9540000Y-14300000D01*
X9540000Y-14260000D02*
X9500000Y-14300000D01*
X9520000Y-14440000D02*
X9560000Y-14480000D01*
X9560000Y-14440000D02*
X9520000Y-14480000D01*
X9800000Y-12320000D02*
X9840000Y-12360000D01*
X9840000Y-12320000D02*
X9800000Y-12360000D01*
X9800000Y-13500000D02*
X9840000Y-13540000D01*
X9840000Y-13500000D02*
X9800000Y-13540000D01*
X9800000Y-13760000D02*
X9840000Y-13800000D01*
X9840000Y-13760000D02*
X9800000Y-13800000D01*
X9820000Y-11320000D02*
X9860000Y-11360000D01*
X9860000Y-11320000D02*
X9820000Y-11360000D01*
X9820000Y-12740000D02*
X9860000Y-12780000D01*
X9860000Y-12740000D02*
X9820000Y-12780000D01*
X9820000Y-14020000D02*
X9860000Y-14060000D01*
X9860000Y-14020000D02*
X9820000Y-14060000D01*
X9920000Y-11820000D02*
X9960000Y-11860000D01*
X9960000Y-11820000D02*
X9920000Y-11860000D01*
X9940000Y-12420000D02*
X9980000Y-12460000D01*
X9980000Y-12420000D02*
X9940000Y-12460000D01*
X10060000Y-10420000D02*
X10100000Y-10460000D01*
X10100000Y-10420000D02*
X10060000Y-10460000D01*
X10060000Y-10940000D02*
X10100000Y-10980000D01*
X10100000Y-10940000D02*
X10060000Y-10980000D01*
X10060000Y-14080000D02*
X10100000Y-14120000D01*
X10100000Y-14080000D02*
X10060000Y-14120000D01*
X10080000Y-12740000D02*
X10120000Y-12780000D01*
X10120000Y-12740000D02*
X10080000Y-12780000D01*
X10080000Y-13880000D02*
X10120000Y-13920000D01*
X10120000Y-13880000D02*
X10080000Y-13920000D01*
X10140000Y-14640000D02*
X10180000Y-14680000D01*
X10180000Y-14640000D02*
X10140000Y-14680000D01*
X10280000Y-13100000D02*
X10320000Y-13140000D01*
X10320000Y-13100000D02*
X10280000Y-13140000D01*
X10420000Y-12840000D02*
X10460000Y-12880000D01*
X10460000Y-12840000D02*
X10420000Y-12880000D01*
X10560000Y-11560000D02*
X10600000Y-11600000D01*
X10600000Y-11560000D02*
X10560000Y-11600000D01*
X10560000Y-12060000D02*
X10600000Y-12100000D01*
X10600000Y-12060000D02*
X10560000Y-12100000D01*
X10560000Y-13380000D02*
X10600000Y-13420000D01*
X10600000Y-13380000D02*
X10560000Y-13420000D01*
X10620000Y-11080000D02*
X10660000Y-11120000D01*
X10660000Y-11080000D02*
X10620000Y-11120000D01*
X10660000Y-10400000D02*
X10700000Y-10440000D01*
X10700000Y-10400000D02*
X10660000Y-10440000D01*
X10740000Y-13380000D02*
X10780000Y-13420000D01*
X10780000Y-13380000D02*
X10740000Y-13420000D01*
X10820000Y-9440000D02*
X10860000Y-9480000D01*
X10860000Y-9440000D02*
X10820000Y-9480000D01*
X10820000Y-12840000D02*
X10860000Y-12880000D01*
X10860000Y-12840000D02*
X10820000Y-12880000D01*
X11020000Y-13300000D02*
X11060000Y-13340000D01*
X11060000Y-13300000D02*
X11020000Y-13340000D01*
X11180000Y-10420000D02*
X11220000Y-10460000D01*
X11220000Y-10420000D02*
X11180000Y-10460000D01*
X11200000Y-13180000D02*
X11240000Y-13220000D01*
X11240000Y-13180000D02*
X11200000Y-13220000D01*
X11280000Y-9460000D02*
X11320000Y-9500000D01*
X11320000Y-9460000D02*
X11280000Y-9500000D01*
X11380000Y-13680000D02*
X11420000Y-13720000D01*
X11420000Y-13680000D02*
X11380000Y-13720000D01*
X11480000Y-14580000D02*
X11520000Y-14620000D01*
X11520000Y-14580000D02*
X11480000Y-14620000D01*
X11620000Y-13680000D02*
X11660000Y-13720000D01*
X11660000Y-13680000D02*
X11620000Y-13720000D01*
X12090000Y-12190000D02*
X12130000Y-12230000D01*
X12130000Y-12190000D02*
X12090000Y-12230000D01*
X12100000Y-10740000D02*
X12140000Y-10780000D01*
X12140000Y-10740000D02*
X12100000Y-10780000D01*
X12360000Y-11920000D02*
X12400000Y-11960000D01*
X12400000Y-11920000D02*
X12360000Y-11960000D01*
X12460000Y-13520000D02*
X12500000Y-13560000D01*
X12500000Y-13520000D02*
X12460000Y-13560000D01*
X12480000Y-12460000D02*
X12520000Y-12500000D01*
X12520000Y-12460000D02*
X12480000Y-12500000D01*
X12480000Y-13220000D02*
X12520000Y-13260000D01*
X12520000Y-13220000D02*
X12480000Y-13260000D01*
X12500000Y-10240000D02*
X12540000Y-10280000D01*
X12540000Y-10240000D02*
X12500000Y-10280000D01*
X12580000Y-12240000D02*
X12620000Y-12280000D01*
X12620000Y-12240000D02*
X12580000Y-12280000D01*
X12660000Y-11040000D02*
X12700000Y-11080000D01*
X12700000Y-11040000D02*
X12660000Y-11080000D01*
X12680000Y-13420000D02*
X12720000Y-13460000D01*
X12720000Y-13420000D02*
X12680000Y-13460000D01*
X12740000Y-14260000D02*
X12780000Y-14300000D01*
X12780000Y-14260000D02*
X12740000Y-14300000D01*
X12740000Y-14600000D02*
X12780000Y-14640000D01*
X12780000Y-14600000D02*
X12740000Y-14640000D01*
X12860000Y-13640000D02*
X12900000Y-13680000D01*
X12900000Y-13640000D02*
X12860000Y-13680000D01*
X13060000Y-12420000D02*
X13100000Y-12460000D01*
X13100000Y-12420000D02*
X13060000Y-12460000D01*
X13240000Y-13420000D02*
X13280000Y-13460000D01*
X13280000Y-13420000D02*
X13240000Y-13460000D01*
X13440000Y-14320000D02*
X13480000Y-14360000D01*
X13480000Y-14320000D02*
X13440000Y-14360000D01*
X13460000Y-11360000D02*
X13500000Y-11400000D01*
X13500000Y-11360000D02*
X13460000Y-11400000D01*
X13546000Y-10934000D02*
X13586000Y-10974000D01*
X13586000Y-10934000D02*
X13546000Y-10974000D01*
X13620000Y-13780000D02*
X13660000Y-13820000D01*
X13660000Y-13780000D02*
X13620000Y-13820000D01*
X13735500Y-13464500D02*
X13775500Y-13504500D01*
X13775500Y-13464500D02*
X13735500Y-13504500D01*
X13860000Y-13980000D02*
X13900000Y-14020000D01*
X13900000Y-13980000D02*
X13860000Y-14020000D01*
X13920000Y-13680000D02*
X13960000Y-13720000D01*
X13960000Y-13680000D02*
X13920000Y-13720000D01*
X14020000Y-10440000D02*
X14060000Y-10480000D01*
X14060000Y-10440000D02*
X14020000Y-10480000D01*
X14120000Y-11360000D02*
X14160000Y-11400000D01*
X14160000Y-11360000D02*
X14120000Y-11400000D01*
X14186000Y-10934000D02*
X14226000Y-10974000D01*
X14226000Y-10934000D02*
X14186000Y-10974000D01*
X14460000Y-10460000D02*
X14500000Y-10500000D01*
X14500000Y-10460000D02*
X14460000Y-10500000D01*
X14940000Y-10180000D02*
X14980000Y-10220000D01*
X14980000Y-10180000D02*
X14940000Y-10220000D01*
X14980000Y-11380000D02*
X15020000Y-11420000D01*
X15020000Y-11380000D02*
X14980000Y-11420000D01*
X15300000Y-10180000D02*
X15340000Y-10220000D01*
X15340000Y-10180000D02*
X15300000Y-10220000D01*
X14247500Y-12700000D02*
G75*
G03*
X14247500Y-12700000I-47500J0D01*
G01*
X14247500Y-12950000D02*
G75*
G03*
X14247500Y-12950000I-47500J0D01*
G01*
X14447500Y-12700000D02*
G75*
G03*
X14447500Y-12700000I-47500J0D01*
G01*
X14447500Y-12950000D02*
G75*
G03*
X14447500Y-12950000I-47500J0D01*
G01*
X5346000Y-9930000D02*
X5346000Y-10030000D01*
X5296000Y-9980000D02*
X5396000Y-9980000D01*
X5346000Y-10184000D02*
X5346000Y-10284000D01*
X5296000Y-10234000D02*
X5396000Y-10234000D01*
X5346000Y-10438000D02*
X5346000Y-10538000D01*
X5296000Y-10488000D02*
X5396000Y-10488000D01*
X5346000Y-10692000D02*
X5346000Y-10792000D01*
X5296000Y-10742000D02*
X5396000Y-10742000D01*
X5346000Y-10946000D02*
X5346000Y-11046000D01*
X5296000Y-10996000D02*
X5396000Y-10996000D01*
X5346000Y-11200000D02*
X5346000Y-11300000D01*
X5296000Y-11250000D02*
X5396000Y-11250000D01*
X5346000Y-11454000D02*
X5346000Y-11554000D01*
X5296000Y-11504000D02*
X5396000Y-11504000D01*
X5346000Y-11708000D02*
X5346000Y-11808000D01*
X5296000Y-11758000D02*
X5396000Y-11758000D01*
X5346000Y-11962000D02*
X5346000Y-12062000D01*
X5296000Y-12012000D02*
X5396000Y-12012000D01*
X5346000Y-12216000D02*
X5346000Y-12316000D01*
X5296000Y-12266000D02*
X5396000Y-12266000D01*
X5346000Y-12470000D02*
X5346000Y-12570000D01*
X5296000Y-12520000D02*
X5396000Y-12520000D01*
X5346000Y-12724000D02*
X5346000Y-12824000D01*
X5296000Y-12774000D02*
X5396000Y-12774000D01*
X5346000Y-12978000D02*
X5346000Y-13078000D01*
X5296000Y-13028000D02*
X5396000Y-13028000D01*
X5346000Y-13232000D02*
X5346000Y-13332000D01*
X5296000Y-13282000D02*
X5396000Y-13282000D01*
X5346000Y-13486000D02*
X5346000Y-13586000D01*
X5296000Y-13536000D02*
X5396000Y-13536000D01*
X5346000Y-13740000D02*
X5346000Y-13840000D01*
X5296000Y-13790000D02*
X5396000Y-13790000D01*
X5346000Y-13994000D02*
X5346000Y-14094000D01*
X5296000Y-14044000D02*
X5396000Y-14044000D01*
X5600000Y-9930000D02*
X5600000Y-10030000D01*
X5550000Y-9980000D02*
X5650000Y-9980000D01*
X5600000Y-10184000D02*
X5600000Y-10284000D01*
X5550000Y-10234000D02*
X5650000Y-10234000D01*
X5600000Y-10438000D02*
X5600000Y-10538000D01*
X5550000Y-10488000D02*
X5650000Y-10488000D01*
X5600000Y-10692000D02*
X5600000Y-10792000D01*
X5550000Y-10742000D02*
X5650000Y-10742000D01*
X5600000Y-10946000D02*
X5600000Y-11046000D01*
X5550000Y-10996000D02*
X5650000Y-10996000D01*
X5600000Y-11200000D02*
X5600000Y-11300000D01*
X5550000Y-11250000D02*
X5650000Y-11250000D01*
X5600000Y-11454000D02*
X5600000Y-11554000D01*
X5550000Y-11504000D02*
X5650000Y-11504000D01*
X5600000Y-11708000D02*
X5600000Y-11808000D01*
X5550000Y-11758000D02*
X5650000Y-11758000D01*
X5600000Y-11962000D02*
X5600000Y-12062000D01*
X5550000Y-12012000D02*
X5650000Y-12012000D01*
X5600000Y-12216000D02*
X5600000Y-12316000D01*
X5550000Y-12266000D02*
X5650000Y-12266000D01*
X5600000Y-12470000D02*
X5600000Y-12570000D01*
X5550000Y-12520000D02*
X5650000Y-12520000D01*
X5600000Y-12724000D02*
X5600000Y-12824000D01*
X5550000Y-12774000D02*
X5650000Y-12774000D01*
X5600000Y-12978000D02*
X5600000Y-13078000D01*
X5550000Y-13028000D02*
X5650000Y-13028000D01*
X5600000Y-13232000D02*
X5600000Y-13332000D01*
X5550000Y-13282000D02*
X5650000Y-13282000D01*
X5600000Y-13486000D02*
X5600000Y-13586000D01*
X5550000Y-13536000D02*
X5650000Y-13536000D01*
X5600000Y-13740000D02*
X5600000Y-13840000D01*
X5550000Y-13790000D02*
X5650000Y-13790000D01*
X5600000Y-13994000D02*
X5600000Y-14094000D01*
X5550000Y-14044000D02*
X5650000Y-14044000D01*
X10740000Y-14550000D02*
X10740000Y-14650000D01*
X10690000Y-14600000D02*
X10790000Y-14600000D01*
X10994000Y-14550000D02*
X10994000Y-14650000D01*
X10944000Y-14600000D02*
X11044000Y-14600000D01*
X11248000Y-14550000D02*
X11248000Y-14650000D01*
X11198000Y-14600000D02*
X11298000Y-14600000D01*
X11320000Y-11270000D02*
X11320000Y-11370000D01*
X11270000Y-11320000D02*
X11370000Y-11320000D01*
X11320000Y-11524000D02*
X11320000Y-11624000D01*
X11270000Y-11574000D02*
X11370000Y-11574000D01*
X11320000Y-11778000D02*
X11320000Y-11878000D01*
X11270000Y-11828000D02*
X11370000Y-11828000D01*
X11320000Y-12032000D02*
X11320000Y-12132000D01*
X11270000Y-12082000D02*
X11370000Y-12082000D01*
X11320000Y-12286000D02*
X11320000Y-12386000D01*
X11270000Y-12336000D02*
X11370000Y-12336000D01*
X11320000Y-12540000D02*
X11320000Y-12640000D01*
X11270000Y-12590000D02*
X11370000Y-12590000D01*
X11980000Y-14550000D02*
X11980000Y-14650000D01*
X11930000Y-14600000D02*
X12030000Y-14600000D01*
X12234000Y-14550000D02*
X12234000Y-14650000D01*
X12184000Y-14600000D02*
X12284000Y-14600000D01*
X12488000Y-14550000D02*
X12488000Y-14650000D01*
X12438000Y-14600000D02*
X12538000Y-14600000D01*
X12930000Y-10050000D02*
X12930000Y-10150000D01*
X12880000Y-10100000D02*
X12980000Y-10100000D01*
X12890000Y-10000000D02*
X12890000Y-10200000D01*
X12970000Y-10000000D02*
X12970000Y-10200000D01*
X12890000Y-10200000D02*
G75*
G03*
X12970000Y-10200000I40000J0D01*
G01*
X12970000Y-10000000D02*
G75*
G03*
X12890000Y-10000000I-40000J0D01*
G01*
X13232000Y-14550000D02*
X13232000Y-14650000D01*
X13182000Y-14600000D02*
X13282000Y-14600000D01*
X13400000Y-9750000D02*
X13400000Y-9850000D01*
X13350000Y-9800000D02*
X13450000Y-9800000D01*
X13500000Y-9760000D02*
X13300000Y-9760000D01*
X13500000Y-9840000D02*
X13300000Y-9840000D01*
X13300000Y-9760000D02*
G75*
G03*
X13300000Y-9840000I0J-40000D01*
G01*
X13500000Y-9840000D02*
G75*
G03*
X13500000Y-9760000I0J40000D01*
G01*
X13400000Y-10350000D02*
X13400000Y-10450000D01*
X13350000Y-10400000D02*
X13450000Y-10400000D01*
X13500000Y-10360000D02*
X13300000Y-10360000D01*
X13500000Y-10440000D02*
X13300000Y-10440000D01*
X13300000Y-10360000D02*
G75*
G03*
X13300000Y-10440000I0J-40000D01*
G01*
X13500000Y-10440000D02*
G75*
G03*
X13500000Y-10360000I0J40000D01*
G01*
X13486000Y-14550000D02*
X13486000Y-14650000D01*
X13436000Y-14600000D02*
X13536000Y-14600000D01*
X13740000Y-14550000D02*
X13740000Y-14650000D01*
X13690000Y-14600000D02*
X13790000Y-14600000D01*
X15380000Y-10650000D02*
X15380000Y-10750000D01*
X15330000Y-10700000D02*
X15430000Y-10700000D01*
X15380000Y-10904000D02*
X15380000Y-11004000D01*
X15330000Y-10954000D02*
X15430000Y-10954000D01*
X15380000Y-11158000D02*
X15380000Y-11258000D01*
X15330000Y-11208000D02*
X15430000Y-11208000D01*
X6542427Y-9542427D02*
X6542427Y-9457573D01*
X6457573Y-9457573D01*
X6457573Y-9542427D01*
X6542427Y-9542427D01*
X6923427Y-9542427D02*
X6923427Y-9457573D01*
X6838573Y-9457573D01*
X6838573Y-9542427D01*
X6923427Y-9542427D01*
X7304427Y-9542427D02*
X7304427Y-9457573D01*
X7219573Y-9457573D01*
X7219573Y-9542427D01*
X7304427Y-9542427D01*
X8142427Y-9542427D02*
X8142427Y-9457573D01*
X8057573Y-9457573D01*
X8057573Y-9542427D01*
X8142427Y-9542427D01*
X8523427Y-9542427D02*
X8523427Y-9457573D01*
X8438573Y-9457573D01*
X8438573Y-9542427D01*
X8523427Y-9542427D01*
X8904427Y-9542427D02*
X8904427Y-9457573D01*
X8819573Y-9457573D01*
X8819573Y-9542427D01*
X8904427Y-9542427D01*
X9742427Y-9542427D02*
X9742427Y-9457573D01*
X9657573Y-9457573D01*
X9657573Y-9542427D01*
X9742427Y-9542427D01*
X10123427Y-9542427D02*
X10123427Y-9457573D01*
X10038573Y-9457573D01*
X10038573Y-9542427D01*
X10123427Y-9542427D01*
X10504427Y-9542427D02*
X10504427Y-9457573D01*
X10419573Y-9457573D01*
X10419573Y-9542427D01*
X10504427Y-9542427D01*
X11742427Y-9542427D02*
X11742427Y-9457573D01*
X11657573Y-9457573D01*
X11657573Y-9542427D01*
X11742427Y-9542427D01*
X12123427Y-9542427D02*
X12123427Y-9457573D01*
X12038573Y-9457573D01*
X12038573Y-9542427D01*
X12123427Y-9542427D01*
X14686000Y-12340000D02*
X14801000Y-12225000D01*
X14686000Y-12110000D01*
X14571000Y-12225000D01*
X14686000Y-12340000D01*
X14686000Y-13540000D02*
X14801000Y-13425000D01*
X14686000Y-13310000D01*
X14571000Y-13425000D01*
X14686000Y-13540000D01*
D12*
X4483928Y-15468214D02*
X4483928Y-15168214D01*
X4555357Y-15168214D01*
X4598214Y-15182500D01*
X4626786Y-15211071D01*
X4641071Y-15239643D01*
X4655357Y-15296786D01*
X4655357Y-15339643D01*
X4641071Y-15396786D01*
X4626786Y-15425357D01*
X4598214Y-15453929D01*
X4555357Y-15468214D01*
X4483928Y-15468214D01*
X4783928Y-15468214D02*
X4783928Y-15268214D01*
X4783928Y-15325357D02*
X4798214Y-15296786D01*
X4812500Y-15282500D01*
X4841071Y-15268214D01*
X4869643Y-15268214D01*
X4969643Y-15468214D02*
X4969643Y-15268214D01*
X4969643Y-15168214D02*
X4955357Y-15182500D01*
X4969643Y-15196786D01*
X4983928Y-15182500D01*
X4969643Y-15168214D01*
X4969643Y-15196786D01*
X5155357Y-15468214D02*
X5126786Y-15453929D01*
X5112500Y-15425357D01*
X5112500Y-15168214D01*
X5312500Y-15468214D02*
X5283928Y-15453929D01*
X5269643Y-15425357D01*
X5269643Y-15168214D01*
X5655357Y-15468214D02*
X5655357Y-15168214D01*
X5755357Y-15382500D01*
X5855357Y-15168214D01*
X5855357Y-15468214D01*
X6126786Y-15468214D02*
X6126786Y-15311071D01*
X6112500Y-15282500D01*
X6083928Y-15268214D01*
X6026786Y-15268214D01*
X5998214Y-15282500D01*
X6126786Y-15453929D02*
X6098214Y-15468214D01*
X6026786Y-15468214D01*
X5998214Y-15453929D01*
X5983928Y-15425357D01*
X5983928Y-15396786D01*
X5998214Y-15368214D01*
X6026786Y-15353929D01*
X6098214Y-15353929D01*
X6126786Y-15339643D01*
X6269643Y-15268214D02*
X6269643Y-15568214D01*
X6269643Y-15282500D02*
X6298214Y-15268214D01*
X6355357Y-15268214D01*
X6383928Y-15282500D01*
X6398214Y-15296786D01*
X6412500Y-15325357D01*
X6412500Y-15411071D01*
X6398214Y-15439643D01*
X6383928Y-15453929D01*
X6355357Y-15468214D01*
X6298214Y-15468214D01*
X6269643Y-15453929D01*
X6541071Y-15439643D02*
X6555357Y-15453929D01*
X6541071Y-15468214D01*
X6526786Y-15453929D01*
X6541071Y-15439643D01*
X6541071Y-15468214D01*
X6541071Y-15282500D02*
X6555357Y-15296786D01*
X6541071Y-15311071D01*
X6526786Y-15296786D01*
X6541071Y-15282500D01*
X6541071Y-15311071D01*
X4157500Y-15942500D02*
X4197500Y-15982500D01*
X4197500Y-15942500D02*
X4157500Y-15982500D01*
X4541071Y-15798214D02*
X4569643Y-15798214D01*
X4598214Y-15812500D01*
X4612500Y-15826786D01*
X4626786Y-15855357D01*
X4641071Y-15912500D01*
X4641071Y-15983929D01*
X4626786Y-16041071D01*
X4612500Y-16069643D01*
X4598214Y-16083929D01*
X4569643Y-16098214D01*
X4541071Y-16098214D01*
X4512500Y-16083929D01*
X4498214Y-16069643D01*
X4483928Y-16041071D01*
X4469643Y-15983929D01*
X4469643Y-15912500D01*
X4483928Y-15855357D01*
X4498214Y-15826786D01*
X4512500Y-15812500D01*
X4541071Y-15798214D01*
X4769643Y-16069643D02*
X4783928Y-16083929D01*
X4769643Y-16098214D01*
X4755357Y-16083929D01*
X4769643Y-16069643D01*
X4769643Y-16098214D01*
X5041071Y-15898214D02*
X5041071Y-16098214D01*
X4969643Y-15783929D02*
X4898214Y-15998214D01*
X5083928Y-15998214D01*
X5255357Y-15798214D02*
X5283928Y-15798214D01*
X5312500Y-15812500D01*
X5326786Y-15826786D01*
X5341071Y-15855357D01*
X5355357Y-15912500D01*
X5355357Y-15983929D01*
X5341071Y-16041071D01*
X5326786Y-16069643D01*
X5312500Y-16083929D01*
X5283928Y-16098214D01*
X5255357Y-16098214D01*
X5226786Y-16083929D01*
X5212500Y-16069643D01*
X5198214Y-16041071D01*
X5183928Y-15983929D01*
X5183928Y-15912500D01*
X5198214Y-15855357D01*
X5212500Y-15826786D01*
X5226786Y-15812500D01*
X5255357Y-15798214D01*
X5483928Y-16098214D02*
X5483928Y-15898214D01*
X5483928Y-15926786D02*
X5498214Y-15912500D01*
X5526786Y-15898214D01*
X5569643Y-15898214D01*
X5598214Y-15912500D01*
X5612500Y-15941071D01*
X5612500Y-16098214D01*
X5612500Y-15941071D02*
X5626786Y-15912500D01*
X5655357Y-15898214D01*
X5698214Y-15898214D01*
X5726786Y-15912500D01*
X5741071Y-15941071D01*
X5741071Y-16098214D01*
X5883928Y-16098214D02*
X5883928Y-15898214D01*
X5883928Y-15926786D02*
X5898214Y-15912500D01*
X5926786Y-15898214D01*
X5969643Y-15898214D01*
X5998214Y-15912500D01*
X6012500Y-15941071D01*
X6012500Y-16098214D01*
X6012500Y-15941071D02*
X6026786Y-15912500D01*
X6055357Y-15898214D01*
X6098214Y-15898214D01*
X6126786Y-15912500D01*
X6141071Y-15941071D01*
X6141071Y-16098214D01*
X6726786Y-15783929D02*
X6469643Y-16169643D01*
X7112500Y-15798214D02*
X7141071Y-15798214D01*
X7169643Y-15812500D01*
X7183928Y-15826786D01*
X7198214Y-15855357D01*
X7212500Y-15912500D01*
X7212500Y-15983929D01*
X7198214Y-16041071D01*
X7183928Y-16069643D01*
X7169643Y-16083929D01*
X7141071Y-16098214D01*
X7112500Y-16098214D01*
X7083928Y-16083929D01*
X7069643Y-16069643D01*
X7055357Y-16041071D01*
X7041071Y-15983929D01*
X7041071Y-15912500D01*
X7055357Y-15855357D01*
X7069643Y-15826786D01*
X7083928Y-15812500D01*
X7112500Y-15798214D01*
X7341071Y-16069643D02*
X7355357Y-16083929D01*
X7341071Y-16098214D01*
X7326786Y-16083929D01*
X7341071Y-16069643D01*
X7341071Y-16098214D01*
X7541071Y-15798214D02*
X7569643Y-15798214D01*
X7598214Y-15812500D01*
X7612500Y-15826786D01*
X7626786Y-15855357D01*
X7641071Y-15912500D01*
X7641071Y-15983929D01*
X7626786Y-16041071D01*
X7612500Y-16069643D01*
X7598214Y-16083929D01*
X7569643Y-16098214D01*
X7541071Y-16098214D01*
X7512500Y-16083929D01*
X7498214Y-16069643D01*
X7483928Y-16041071D01*
X7469643Y-15983929D01*
X7469643Y-15912500D01*
X7483928Y-15855357D01*
X7498214Y-15826786D01*
X7512500Y-15812500D01*
X7541071Y-15798214D01*
X7926786Y-16098214D02*
X7755357Y-16098214D01*
X7841071Y-16098214D02*
X7841071Y-15798214D01*
X7812500Y-15841071D01*
X7783928Y-15869643D01*
X7755357Y-15883929D01*
X8183928Y-15798214D02*
X8126786Y-15798214D01*
X8098214Y-15812500D01*
X8083928Y-15826786D01*
X8055357Y-15869643D01*
X8041071Y-15926786D01*
X8041071Y-16041071D01*
X8055357Y-16069643D01*
X8069643Y-16083929D01*
X8098214Y-16098214D01*
X8155357Y-16098214D01*
X8183928Y-16083929D01*
X8198214Y-16069643D01*
X8212500Y-16041071D01*
X8212500Y-15969643D01*
X8198214Y-15941071D01*
X8183928Y-15926786D01*
X8155357Y-15912500D01*
X8098214Y-15912500D01*
X8069643Y-15926786D01*
X8055357Y-15941071D01*
X8041071Y-15969643D01*
X8326786Y-15798214D02*
X8326786Y-15855357D01*
X8441071Y-15798214D02*
X8441071Y-15855357D01*
X8883928Y-16212500D02*
X8869643Y-16198214D01*
X8841071Y-16155357D01*
X8826786Y-16126786D01*
X8812500Y-16083929D01*
X8798214Y-16012500D01*
X8798214Y-15955357D01*
X8812500Y-15883929D01*
X8826786Y-15841071D01*
X8841071Y-15812500D01*
X8869643Y-15769643D01*
X8883928Y-15755357D01*
X9155357Y-16098214D02*
X8983928Y-16098214D01*
X9069643Y-16098214D02*
X9069643Y-15798214D01*
X9041071Y-15841071D01*
X9012500Y-15869643D01*
X8983928Y-15883929D01*
X9255357Y-15798214D02*
X9441071Y-15798214D01*
X9341071Y-15912500D01*
X9383928Y-15912500D01*
X9412500Y-15926786D01*
X9426786Y-15941071D01*
X9441071Y-15969643D01*
X9441071Y-16041071D01*
X9426786Y-16069643D01*
X9412500Y-16083929D01*
X9383928Y-16098214D01*
X9298214Y-16098214D01*
X9269643Y-16083929D01*
X9255357Y-16069643D01*
X9712500Y-15798214D02*
X9569643Y-15798214D01*
X9555357Y-15941071D01*
X9569643Y-15926786D01*
X9598214Y-15912500D01*
X9669643Y-15912500D01*
X9698214Y-15926786D01*
X9712500Y-15941071D01*
X9726786Y-15969643D01*
X9726786Y-16041071D01*
X9712500Y-16069643D01*
X9698214Y-16083929D01*
X9669643Y-16098214D01*
X9598214Y-16098214D01*
X9569643Y-16083929D01*
X9555357Y-16069643D01*
X10083928Y-16098214D02*
X10083928Y-15798214D01*
X10212500Y-16098214D02*
X10212500Y-15941071D01*
X10198214Y-15912500D01*
X10169643Y-15898214D01*
X10126786Y-15898214D01*
X10098214Y-15912500D01*
X10083928Y-15926786D01*
X10398214Y-16098214D02*
X10369643Y-16083929D01*
X10355357Y-16069643D01*
X10341071Y-16041071D01*
X10341071Y-15955357D01*
X10355357Y-15926786D01*
X10369643Y-15912500D01*
X10398214Y-15898214D01*
X10441071Y-15898214D01*
X10469643Y-15912500D01*
X10483928Y-15926786D01*
X10498214Y-15955357D01*
X10498214Y-16041071D01*
X10483928Y-16069643D01*
X10469643Y-16083929D01*
X10441071Y-16098214D01*
X10398214Y-16098214D01*
X10669643Y-16098214D02*
X10641071Y-16083929D01*
X10626786Y-16055357D01*
X10626786Y-15798214D01*
X10898214Y-16083929D02*
X10869643Y-16098214D01*
X10812500Y-16098214D01*
X10783928Y-16083929D01*
X10769643Y-16055357D01*
X10769643Y-15941071D01*
X10783928Y-15912500D01*
X10812500Y-15898214D01*
X10869643Y-15898214D01*
X10898214Y-15912500D01*
X10912500Y-15941071D01*
X10912500Y-15969643D01*
X10769643Y-15998214D01*
X11026786Y-16083929D02*
X11055357Y-16098214D01*
X11112500Y-16098214D01*
X11141071Y-16083929D01*
X11155357Y-16055357D01*
X11155357Y-16041071D01*
X11141071Y-16012500D01*
X11112500Y-15998214D01*
X11069643Y-15998214D01*
X11041071Y-15983929D01*
X11026786Y-15955357D01*
X11026786Y-15941071D01*
X11041071Y-15912500D01*
X11069643Y-15898214D01*
X11112500Y-15898214D01*
X11141071Y-15912500D01*
X11255357Y-16212500D02*
X11269643Y-16198214D01*
X11298214Y-16155357D01*
X11312500Y-16126786D01*
X11326786Y-16083929D01*
X11341071Y-16012500D01*
X11341071Y-15955357D01*
X11326786Y-15883929D01*
X11312500Y-15841071D01*
X11298214Y-15812500D01*
X11269643Y-15769643D01*
X11255357Y-15755357D01*
X4197500Y-16358500D02*
G75*
G03*
X4197500Y-16358500I-47500J0D01*
G01*
X4541071Y-16194214D02*
X4569643Y-16194214D01*
X4598214Y-16208500D01*
X4612500Y-16222786D01*
X4626786Y-16251357D01*
X4641071Y-16308500D01*
X4641071Y-16379929D01*
X4626786Y-16437071D01*
X4612500Y-16465643D01*
X4598214Y-16479929D01*
X4569643Y-16494214D01*
X4541071Y-16494214D01*
X4512500Y-16479929D01*
X4498214Y-16465643D01*
X4483928Y-16437071D01*
X4469643Y-16379929D01*
X4469643Y-16308500D01*
X4483928Y-16251357D01*
X4498214Y-16222786D01*
X4512500Y-16208500D01*
X4541071Y-16194214D01*
X4769643Y-16465643D02*
X4783928Y-16479929D01*
X4769643Y-16494214D01*
X4755357Y-16479929D01*
X4769643Y-16465643D01*
X4769643Y-16494214D01*
X4926786Y-16494214D02*
X4983928Y-16494214D01*
X5012500Y-16479929D01*
X5026786Y-16465643D01*
X5055357Y-16422786D01*
X5069643Y-16365643D01*
X5069643Y-16251357D01*
X5055357Y-16222786D01*
X5041071Y-16208500D01*
X5012500Y-16194214D01*
X4955357Y-16194214D01*
X4926786Y-16208500D01*
X4912500Y-16222786D01*
X4898214Y-16251357D01*
X4898214Y-16322786D01*
X4912500Y-16351357D01*
X4926786Y-16365643D01*
X4955357Y-16379929D01*
X5012500Y-16379929D01*
X5041071Y-16365643D01*
X5055357Y-16351357D01*
X5069643Y-16322786D01*
X5341071Y-16194214D02*
X5198214Y-16194214D01*
X5183928Y-16337071D01*
X5198214Y-16322786D01*
X5226786Y-16308500D01*
X5298214Y-16308500D01*
X5326786Y-16322786D01*
X5341071Y-16337071D01*
X5355357Y-16365643D01*
X5355357Y-16437071D01*
X5341071Y-16465643D01*
X5326786Y-16479929D01*
X5298214Y-16494214D01*
X5226786Y-16494214D01*
X5198214Y-16479929D01*
X5183928Y-16465643D01*
X5483928Y-16494214D02*
X5483928Y-16294214D01*
X5483928Y-16322786D02*
X5498214Y-16308500D01*
X5526786Y-16294214D01*
X5569643Y-16294214D01*
X5598214Y-16308500D01*
X5612500Y-16337071D01*
X5612500Y-16494214D01*
X5612500Y-16337071D02*
X5626786Y-16308500D01*
X5655357Y-16294214D01*
X5698214Y-16294214D01*
X5726786Y-16308500D01*
X5741071Y-16337071D01*
X5741071Y-16494214D01*
X5883928Y-16494214D02*
X5883928Y-16294214D01*
X5883928Y-16322786D02*
X5898214Y-16308500D01*
X5926786Y-16294214D01*
X5969643Y-16294214D01*
X5998214Y-16308500D01*
X6012500Y-16337071D01*
X6012500Y-16494214D01*
X6012500Y-16337071D02*
X6026786Y-16308500D01*
X6055357Y-16294214D01*
X6098214Y-16294214D01*
X6126786Y-16308500D01*
X6141071Y-16337071D01*
X6141071Y-16494214D01*
X6726786Y-16179929D02*
X6469643Y-16565643D01*
X7112500Y-16194214D02*
X7141071Y-16194214D01*
X7169643Y-16208500D01*
X7183928Y-16222786D01*
X7198214Y-16251357D01*
X7212500Y-16308500D01*
X7212500Y-16379929D01*
X7198214Y-16437071D01*
X7183928Y-16465643D01*
X7169643Y-16479929D01*
X7141071Y-16494214D01*
X7112500Y-16494214D01*
X7083928Y-16479929D01*
X7069643Y-16465643D01*
X7055357Y-16437071D01*
X7041071Y-16379929D01*
X7041071Y-16308500D01*
X7055357Y-16251357D01*
X7069643Y-16222786D01*
X7083928Y-16208500D01*
X7112500Y-16194214D01*
X7341071Y-16465643D02*
X7355357Y-16479929D01*
X7341071Y-16494214D01*
X7326786Y-16479929D01*
X7341071Y-16465643D01*
X7341071Y-16494214D01*
X7541071Y-16194214D02*
X7569643Y-16194214D01*
X7598214Y-16208500D01*
X7612500Y-16222786D01*
X7626786Y-16251357D01*
X7641071Y-16308500D01*
X7641071Y-16379929D01*
X7626786Y-16437071D01*
X7612500Y-16465643D01*
X7598214Y-16479929D01*
X7569643Y-16494214D01*
X7541071Y-16494214D01*
X7512500Y-16479929D01*
X7498214Y-16465643D01*
X7483928Y-16437071D01*
X7469643Y-16379929D01*
X7469643Y-16308500D01*
X7483928Y-16251357D01*
X7498214Y-16222786D01*
X7512500Y-16208500D01*
X7541071Y-16194214D01*
X7741071Y-16194214D02*
X7926786Y-16194214D01*
X7826786Y-16308500D01*
X7869643Y-16308500D01*
X7898214Y-16322786D01*
X7912500Y-16337071D01*
X7926786Y-16365643D01*
X7926786Y-16437071D01*
X7912500Y-16465643D01*
X7898214Y-16479929D01*
X7869643Y-16494214D01*
X7783928Y-16494214D01*
X7755357Y-16479929D01*
X7741071Y-16465643D01*
X8026786Y-16194214D02*
X8226786Y-16194214D01*
X8098214Y-16494214D01*
X8326786Y-16194214D02*
X8326786Y-16251357D01*
X8441071Y-16194214D02*
X8441071Y-16251357D01*
X8883928Y-16608500D02*
X8869643Y-16594214D01*
X8841071Y-16551357D01*
X8826786Y-16522786D01*
X8812500Y-16479929D01*
X8798214Y-16408500D01*
X8798214Y-16351357D01*
X8812500Y-16279929D01*
X8826786Y-16237071D01*
X8841071Y-16208500D01*
X8869643Y-16165643D01*
X8883928Y-16151357D01*
X9126786Y-16294214D02*
X9126786Y-16494214D01*
X9055357Y-16179929D02*
X8983928Y-16394214D01*
X9169643Y-16394214D01*
X9512500Y-16494214D02*
X9512500Y-16194214D01*
X9641071Y-16494214D02*
X9641071Y-16337071D01*
X9626786Y-16308500D01*
X9598214Y-16294214D01*
X9555357Y-16294214D01*
X9526786Y-16308500D01*
X9512500Y-16322786D01*
X9826786Y-16494214D02*
X9798214Y-16479929D01*
X9783928Y-16465643D01*
X9769643Y-16437071D01*
X9769643Y-16351357D01*
X9783928Y-16322786D01*
X9798214Y-16308500D01*
X9826786Y-16294214D01*
X9869643Y-16294214D01*
X9898214Y-16308500D01*
X9912500Y-16322786D01*
X9926786Y-16351357D01*
X9926786Y-16437071D01*
X9912500Y-16465643D01*
X9898214Y-16479929D01*
X9869643Y-16494214D01*
X9826786Y-16494214D01*
X10098214Y-16494214D02*
X10069643Y-16479929D01*
X10055357Y-16451357D01*
X10055357Y-16194214D01*
X10326786Y-16479929D02*
X10298214Y-16494214D01*
X10241071Y-16494214D01*
X10212500Y-16479929D01*
X10198214Y-16451357D01*
X10198214Y-16337071D01*
X10212500Y-16308500D01*
X10241071Y-16294214D01*
X10298214Y-16294214D01*
X10326786Y-16308500D01*
X10341071Y-16337071D01*
X10341071Y-16365643D01*
X10198214Y-16394214D01*
X10455357Y-16479929D02*
X10483928Y-16494214D01*
X10541071Y-16494214D01*
X10569643Y-16479929D01*
X10583928Y-16451357D01*
X10583928Y-16437071D01*
X10569643Y-16408500D01*
X10541071Y-16394214D01*
X10498214Y-16394214D01*
X10469643Y-16379929D01*
X10455357Y-16351357D01*
X10455357Y-16337071D01*
X10469643Y-16308500D01*
X10498214Y-16294214D01*
X10541071Y-16294214D01*
X10569643Y-16308500D01*
X10683928Y-16608500D02*
X10698214Y-16594214D01*
X10726786Y-16551357D01*
X10741071Y-16522786D01*
X10755357Y-16479929D01*
X10769643Y-16408500D01*
X10769643Y-16351357D01*
X10755357Y-16279929D01*
X10741071Y-16237071D01*
X10726786Y-16208500D01*
X10698214Y-16165643D01*
X10683928Y-16151357D01*
X4147500Y-16704500D02*
X4147500Y-16804500D01*
X4097500Y-16754500D02*
X4197500Y-16754500D01*
X4641071Y-16890214D02*
X4469643Y-16890214D01*
X4555357Y-16890214D02*
X4555357Y-16590214D01*
X4526786Y-16633071D01*
X4498214Y-16661643D01*
X4469643Y-16675929D01*
X4769643Y-16861643D02*
X4783928Y-16875929D01*
X4769643Y-16890214D01*
X4755357Y-16875929D01*
X4769643Y-16861643D01*
X4769643Y-16890214D01*
X4969643Y-16590214D02*
X4998214Y-16590214D01*
X5026786Y-16604500D01*
X5041071Y-16618786D01*
X5055357Y-16647357D01*
X5069643Y-16704500D01*
X5069643Y-16775929D01*
X5055357Y-16833072D01*
X5041071Y-16861643D01*
X5026786Y-16875929D01*
X4998214Y-16890214D01*
X4969643Y-16890214D01*
X4941071Y-16875929D01*
X4926786Y-16861643D01*
X4912500Y-16833072D01*
X4898214Y-16775929D01*
X4898214Y-16704500D01*
X4912500Y-16647357D01*
X4926786Y-16618786D01*
X4941071Y-16604500D01*
X4969643Y-16590214D01*
X5255357Y-16590214D02*
X5283928Y-16590214D01*
X5312500Y-16604500D01*
X5326786Y-16618786D01*
X5341071Y-16647357D01*
X5355357Y-16704500D01*
X5355357Y-16775929D01*
X5341071Y-16833072D01*
X5326786Y-16861643D01*
X5312500Y-16875929D01*
X5283928Y-16890214D01*
X5255357Y-16890214D01*
X5226786Y-16875929D01*
X5212500Y-16861643D01*
X5198214Y-16833072D01*
X5183928Y-16775929D01*
X5183928Y-16704500D01*
X5198214Y-16647357D01*
X5212500Y-16618786D01*
X5226786Y-16604500D01*
X5255357Y-16590214D01*
X5483928Y-16890214D02*
X5483928Y-16690214D01*
X5483928Y-16718786D02*
X5498214Y-16704500D01*
X5526786Y-16690214D01*
X5569643Y-16690214D01*
X5598214Y-16704500D01*
X5612500Y-16733071D01*
X5612500Y-16890214D01*
X5612500Y-16733071D02*
X5626786Y-16704500D01*
X5655357Y-16690214D01*
X5698214Y-16690214D01*
X5726786Y-16704500D01*
X5741071Y-16733071D01*
X5741071Y-16890214D01*
X5883928Y-16890214D02*
X5883928Y-16690214D01*
X5883928Y-16718786D02*
X5898214Y-16704500D01*
X5926786Y-16690214D01*
X5969643Y-16690214D01*
X5998214Y-16704500D01*
X6012500Y-16733071D01*
X6012500Y-16890214D01*
X6012500Y-16733071D02*
X6026786Y-16704500D01*
X6055357Y-16690214D01*
X6098214Y-16690214D01*
X6126786Y-16704500D01*
X6141071Y-16733071D01*
X6141071Y-16890214D01*
X6726786Y-16575929D02*
X6469643Y-16961643D01*
X7112500Y-16590214D02*
X7141071Y-16590214D01*
X7169643Y-16604500D01*
X7183928Y-16618786D01*
X7198214Y-16647357D01*
X7212500Y-16704500D01*
X7212500Y-16775929D01*
X7198214Y-16833072D01*
X7183928Y-16861643D01*
X7169643Y-16875929D01*
X7141071Y-16890214D01*
X7112500Y-16890214D01*
X7083928Y-16875929D01*
X7069643Y-16861643D01*
X7055357Y-16833072D01*
X7041071Y-16775929D01*
X7041071Y-16704500D01*
X7055357Y-16647357D01*
X7069643Y-16618786D01*
X7083928Y-16604500D01*
X7112500Y-16590214D01*
X7341071Y-16861643D02*
X7355357Y-16875929D01*
X7341071Y-16890214D01*
X7326786Y-16875929D01*
X7341071Y-16861643D01*
X7341071Y-16890214D01*
X7541071Y-16590214D02*
X7569643Y-16590214D01*
X7598214Y-16604500D01*
X7612500Y-16618786D01*
X7626786Y-16647357D01*
X7641071Y-16704500D01*
X7641071Y-16775929D01*
X7626786Y-16833072D01*
X7612500Y-16861643D01*
X7598214Y-16875929D01*
X7569643Y-16890214D01*
X7541071Y-16890214D01*
X7512500Y-16875929D01*
X7498214Y-16861643D01*
X7483928Y-16833072D01*
X7469643Y-16775929D01*
X7469643Y-16704500D01*
X7483928Y-16647357D01*
X7498214Y-16618786D01*
X7512500Y-16604500D01*
X7541071Y-16590214D01*
X7741071Y-16590214D02*
X7926786Y-16590214D01*
X7826786Y-16704500D01*
X7869643Y-16704500D01*
X7898214Y-16718786D01*
X7912500Y-16733071D01*
X7926786Y-16761643D01*
X7926786Y-16833072D01*
X7912500Y-16861643D01*
X7898214Y-16875929D01*
X7869643Y-16890214D01*
X7783928Y-16890214D01*
X7755357Y-16875929D01*
X7741071Y-16861643D01*
X8069643Y-16890214D02*
X8126786Y-16890214D01*
X8155357Y-16875929D01*
X8169643Y-16861643D01*
X8198214Y-16818786D01*
X8212500Y-16761643D01*
X8212500Y-16647357D01*
X8198214Y-16618786D01*
X8183928Y-16604500D01*
X8155357Y-16590214D01*
X8098214Y-16590214D01*
X8069643Y-16604500D01*
X8055357Y-16618786D01*
X8041071Y-16647357D01*
X8041071Y-16718786D01*
X8055357Y-16747357D01*
X8069643Y-16761643D01*
X8098214Y-16775929D01*
X8155357Y-16775929D01*
X8183928Y-16761643D01*
X8198214Y-16747357D01*
X8212500Y-16718786D01*
X8326786Y-16590214D02*
X8326786Y-16647357D01*
X8441071Y-16590214D02*
X8441071Y-16647357D01*
X8883928Y-17004500D02*
X8869643Y-16990214D01*
X8841071Y-16947357D01*
X8826786Y-16918786D01*
X8812500Y-16875929D01*
X8798214Y-16804500D01*
X8798214Y-16747357D01*
X8812500Y-16675929D01*
X8826786Y-16633071D01*
X8841071Y-16604500D01*
X8869643Y-16561643D01*
X8883928Y-16547357D01*
X9141071Y-16590214D02*
X8998214Y-16590214D01*
X8983928Y-16733071D01*
X8998214Y-16718786D01*
X9026786Y-16704500D01*
X9098214Y-16704500D01*
X9126786Y-16718786D01*
X9141071Y-16733071D01*
X9155357Y-16761643D01*
X9155357Y-16833072D01*
X9141071Y-16861643D01*
X9126786Y-16875929D01*
X9098214Y-16890214D01*
X9026786Y-16890214D01*
X8998214Y-16875929D01*
X8983928Y-16861643D01*
X9269643Y-16618786D02*
X9283928Y-16604500D01*
X9312500Y-16590214D01*
X9383928Y-16590214D01*
X9412500Y-16604500D01*
X9426786Y-16618786D01*
X9441071Y-16647357D01*
X9441071Y-16675929D01*
X9426786Y-16718786D01*
X9255357Y-16890214D01*
X9441071Y-16890214D01*
X9798214Y-16890214D02*
X9798214Y-16590214D01*
X9926786Y-16890214D02*
X9926786Y-16733071D01*
X9912500Y-16704500D01*
X9883928Y-16690214D01*
X9841071Y-16690214D01*
X9812500Y-16704500D01*
X9798214Y-16718786D01*
X10112500Y-16890214D02*
X10083928Y-16875929D01*
X10069643Y-16861643D01*
X10055357Y-16833072D01*
X10055357Y-16747357D01*
X10069643Y-16718786D01*
X10083928Y-16704500D01*
X10112500Y-16690214D01*
X10155357Y-16690214D01*
X10183928Y-16704500D01*
X10198214Y-16718786D01*
X10212500Y-16747357D01*
X10212500Y-16833072D01*
X10198214Y-16861643D01*
X10183928Y-16875929D01*
X10155357Y-16890214D01*
X10112500Y-16890214D01*
X10383928Y-16890214D02*
X10355357Y-16875929D01*
X10341071Y-16847357D01*
X10341071Y-16590214D01*
X10612500Y-16875929D02*
X10583928Y-16890214D01*
X10526786Y-16890214D01*
X10498214Y-16875929D01*
X10483928Y-16847357D01*
X10483928Y-16733071D01*
X10498214Y-16704500D01*
X10526786Y-16690214D01*
X10583928Y-16690214D01*
X10612500Y-16704500D01*
X10626786Y-16733071D01*
X10626786Y-16761643D01*
X10483928Y-16790214D01*
X10741071Y-16875929D02*
X10769643Y-16890214D01*
X10826786Y-16890214D01*
X10855357Y-16875929D01*
X10869643Y-16847357D01*
X10869643Y-16833072D01*
X10855357Y-16804500D01*
X10826786Y-16790214D01*
X10783928Y-16790214D01*
X10755357Y-16775929D01*
X10741071Y-16747357D01*
X10741071Y-16733071D01*
X10755357Y-16704500D01*
X10783928Y-16690214D01*
X10826786Y-16690214D01*
X10855357Y-16704500D01*
X11226786Y-16775929D02*
X11455357Y-16775929D01*
X11341071Y-16890214D02*
X11341071Y-16661643D01*
X11798214Y-16590214D02*
X11983928Y-16590214D01*
X11883928Y-16704500D01*
X11926786Y-16704500D01*
X11955357Y-16718786D01*
X11969643Y-16733071D01*
X11983928Y-16761643D01*
X11983928Y-16833072D01*
X11969643Y-16861643D01*
X11955357Y-16875929D01*
X11926786Y-16890214D01*
X11841071Y-16890214D01*
X11812500Y-16875929D01*
X11798214Y-16861643D01*
X12326786Y-16875929D02*
X12355357Y-16890214D01*
X12412500Y-16890214D01*
X12441071Y-16875929D01*
X12455357Y-16847357D01*
X12455357Y-16833072D01*
X12441071Y-16804500D01*
X12412500Y-16790214D01*
X12369643Y-16790214D01*
X12341071Y-16775929D01*
X12326786Y-16747357D01*
X12326786Y-16733071D01*
X12341071Y-16704500D01*
X12369643Y-16690214D01*
X12412500Y-16690214D01*
X12441071Y-16704500D01*
X12626786Y-16890214D02*
X12598214Y-16875929D01*
X12583928Y-16847357D01*
X12583928Y-16590214D01*
X12783928Y-16890214D02*
X12755357Y-16875929D01*
X12741071Y-16861643D01*
X12726786Y-16833072D01*
X12726786Y-16747357D01*
X12741071Y-16718786D01*
X12755357Y-16704500D01*
X12783928Y-16690214D01*
X12826786Y-16690214D01*
X12855357Y-16704500D01*
X12869643Y-16718786D01*
X12883928Y-16747357D01*
X12883928Y-16833072D01*
X12869643Y-16861643D01*
X12855357Y-16875929D01*
X12826786Y-16890214D01*
X12783928Y-16890214D01*
X12969643Y-16690214D02*
X13083928Y-16690214D01*
X13012500Y-16590214D02*
X13012500Y-16847357D01*
X13026786Y-16875929D01*
X13055357Y-16890214D01*
X13083928Y-16890214D01*
X13169643Y-16875929D02*
X13198214Y-16890214D01*
X13255357Y-16890214D01*
X13283928Y-16875929D01*
X13298214Y-16847357D01*
X13298214Y-16833072D01*
X13283928Y-16804500D01*
X13255357Y-16790214D01*
X13212500Y-16790214D01*
X13183928Y-16775929D01*
X13169643Y-16747357D01*
X13169643Y-16733071D01*
X13183928Y-16704500D01*
X13212500Y-16690214D01*
X13255357Y-16690214D01*
X13283928Y-16704500D01*
X13398214Y-17004500D02*
X13412500Y-16990214D01*
X13441071Y-16947357D01*
X13455357Y-16918786D01*
X13469643Y-16875929D01*
X13483928Y-16804500D01*
X13483928Y-16747357D01*
X13469643Y-16675929D01*
X13455357Y-16633071D01*
X13441071Y-16604500D01*
X13412500Y-16561643D01*
X13398214Y-16547357D01*
X4179927Y-17192927D02*
X4179927Y-17108073D01*
X4095073Y-17108073D01*
X4095073Y-17192927D01*
X4179927Y-17192927D01*
X4641071Y-17286214D02*
X4469643Y-17286214D01*
X4555357Y-17286214D02*
X4555357Y-16986214D01*
X4526786Y-17029072D01*
X4498214Y-17057643D01*
X4469643Y-17071929D01*
X4769643Y-17257643D02*
X4783928Y-17271929D01*
X4769643Y-17286214D01*
X4755357Y-17271929D01*
X4769643Y-17257643D01*
X4769643Y-17286214D01*
X4898214Y-17014786D02*
X4912500Y-17000500D01*
X4941071Y-16986214D01*
X5012500Y-16986214D01*
X5041071Y-17000500D01*
X5055357Y-17014786D01*
X5069643Y-17043357D01*
X5069643Y-17071929D01*
X5055357Y-17114786D01*
X4883928Y-17286214D01*
X5069643Y-17286214D01*
X5255357Y-16986214D02*
X5283928Y-16986214D01*
X5312500Y-17000500D01*
X5326786Y-17014786D01*
X5341071Y-17043357D01*
X5355357Y-17100500D01*
X5355357Y-17171929D01*
X5341071Y-17229072D01*
X5326786Y-17257643D01*
X5312500Y-17271929D01*
X5283928Y-17286214D01*
X5255357Y-17286214D01*
X5226786Y-17271929D01*
X5212500Y-17257643D01*
X5198214Y-17229072D01*
X5183928Y-17171929D01*
X5183928Y-17100500D01*
X5198214Y-17043357D01*
X5212500Y-17014786D01*
X5226786Y-17000500D01*
X5255357Y-16986214D01*
X5483928Y-17286214D02*
X5483928Y-17086214D01*
X5483928Y-17114786D02*
X5498214Y-17100500D01*
X5526786Y-17086214D01*
X5569643Y-17086214D01*
X5598214Y-17100500D01*
X5612500Y-17129072D01*
X5612500Y-17286214D01*
X5612500Y-17129072D02*
X5626786Y-17100500D01*
X5655357Y-17086214D01*
X5698214Y-17086214D01*
X5726786Y-17100500D01*
X5741071Y-17129072D01*
X5741071Y-17286214D01*
X5883928Y-17286214D02*
X5883928Y-17086214D01*
X5883928Y-17114786D02*
X5898214Y-17100500D01*
X5926786Y-17086214D01*
X5969643Y-17086214D01*
X5998214Y-17100500D01*
X6012500Y-17129072D01*
X6012500Y-17286214D01*
X6012500Y-17129072D02*
X6026786Y-17100500D01*
X6055357Y-17086214D01*
X6098214Y-17086214D01*
X6126786Y-17100500D01*
X6141071Y-17129072D01*
X6141071Y-17286214D01*
X6726786Y-16971929D02*
X6469643Y-17357643D01*
X7112500Y-16986214D02*
X7141071Y-16986214D01*
X7169643Y-17000500D01*
X7183928Y-17014786D01*
X7198214Y-17043357D01*
X7212500Y-17100500D01*
X7212500Y-17171929D01*
X7198214Y-17229072D01*
X7183928Y-17257643D01*
X7169643Y-17271929D01*
X7141071Y-17286214D01*
X7112500Y-17286214D01*
X7083928Y-17271929D01*
X7069643Y-17257643D01*
X7055357Y-17229072D01*
X7041071Y-17171929D01*
X7041071Y-17100500D01*
X7055357Y-17043357D01*
X7069643Y-17014786D01*
X7083928Y-17000500D01*
X7112500Y-16986214D01*
X7341071Y-17257643D02*
X7355357Y-17271929D01*
X7341071Y-17286214D01*
X7326786Y-17271929D01*
X7341071Y-17257643D01*
X7341071Y-17286214D01*
X7541071Y-16986214D02*
X7569643Y-16986214D01*
X7598214Y-17000500D01*
X7612500Y-17014786D01*
X7626786Y-17043357D01*
X7641071Y-17100500D01*
X7641071Y-17171929D01*
X7626786Y-17229072D01*
X7612500Y-17257643D01*
X7598214Y-17271929D01*
X7569643Y-17286214D01*
X7541071Y-17286214D01*
X7512500Y-17271929D01*
X7498214Y-17257643D01*
X7483928Y-17229072D01*
X7469643Y-17171929D01*
X7469643Y-17100500D01*
X7483928Y-17043357D01*
X7498214Y-17014786D01*
X7512500Y-17000500D01*
X7541071Y-16986214D01*
X7898214Y-17086214D02*
X7898214Y-17286214D01*
X7826786Y-16971929D02*
X7755357Y-17186214D01*
X7941071Y-17186214D01*
X8026786Y-16986214D02*
X8226786Y-16986214D01*
X8098214Y-17286214D01*
X8326786Y-16986214D02*
X8326786Y-17043357D01*
X8441071Y-16986214D02*
X8441071Y-17043357D01*
X8883928Y-17400500D02*
X8869643Y-17386214D01*
X8841071Y-17343357D01*
X8826786Y-17314786D01*
X8812500Y-17271929D01*
X8798214Y-17200500D01*
X8798214Y-17143357D01*
X8812500Y-17071929D01*
X8826786Y-17029072D01*
X8841071Y-17000500D01*
X8869643Y-16957643D01*
X8883928Y-16943357D01*
X9155357Y-17286214D02*
X8983928Y-17286214D01*
X9069643Y-17286214D02*
X9069643Y-16986214D01*
X9041071Y-17029072D01*
X9012500Y-17057643D01*
X8983928Y-17071929D01*
X9441071Y-17286214D02*
X9269643Y-17286214D01*
X9355357Y-17286214D02*
X9355357Y-16986214D01*
X9326786Y-17029072D01*
X9298214Y-17057643D01*
X9269643Y-17071929D01*
X9798214Y-17286214D02*
X9798214Y-16986214D01*
X9926786Y-17286214D02*
X9926786Y-17129072D01*
X9912500Y-17100500D01*
X9883928Y-17086214D01*
X9841071Y-17086214D01*
X9812500Y-17100500D01*
X9798214Y-17114786D01*
X10112500Y-17286214D02*
X10083928Y-17271929D01*
X10069643Y-17257643D01*
X10055357Y-17229072D01*
X10055357Y-17143357D01*
X10069643Y-17114786D01*
X10083928Y-17100500D01*
X10112500Y-17086214D01*
X10155357Y-17086214D01*
X10183928Y-17100500D01*
X10198214Y-17114786D01*
X10212500Y-17143357D01*
X10212500Y-17229072D01*
X10198214Y-17257643D01*
X10183928Y-17271929D01*
X10155357Y-17286214D01*
X10112500Y-17286214D01*
X10383928Y-17286214D02*
X10355357Y-17271929D01*
X10341071Y-17243357D01*
X10341071Y-16986214D01*
X10612500Y-17271929D02*
X10583928Y-17286214D01*
X10526786Y-17286214D01*
X10498214Y-17271929D01*
X10483928Y-17243357D01*
X10483928Y-17129072D01*
X10498214Y-17100500D01*
X10526786Y-17086214D01*
X10583928Y-17086214D01*
X10612500Y-17100500D01*
X10626786Y-17129072D01*
X10626786Y-17157643D01*
X10483928Y-17186214D01*
X10741071Y-17271929D02*
X10769643Y-17286214D01*
X10826786Y-17286214D01*
X10855357Y-17271929D01*
X10869643Y-17243357D01*
X10869643Y-17229072D01*
X10855357Y-17200500D01*
X10826786Y-17186214D01*
X10783928Y-17186214D01*
X10755357Y-17171929D01*
X10741071Y-17143357D01*
X10741071Y-17129072D01*
X10755357Y-17100500D01*
X10783928Y-17086214D01*
X10826786Y-17086214D01*
X10855357Y-17100500D01*
X10969643Y-17400500D02*
X10983928Y-17386214D01*
X11012500Y-17343357D01*
X11026786Y-17314786D01*
X11041071Y-17271929D01*
X11055357Y-17200500D01*
X11055357Y-17143357D01*
X11041071Y-17071929D01*
X11026786Y-17029072D01*
X11012500Y-17000500D01*
X10983928Y-16957643D01*
X10969643Y-16943357D01*
X4082500Y-17661500D02*
X4197500Y-17546500D01*
X4082500Y-17431500D01*
X3967500Y-17546500D01*
X4082500Y-17661500D01*
X4469643Y-17410786D02*
X4483928Y-17396500D01*
X4512500Y-17382214D01*
X4583928Y-17382214D01*
X4612500Y-17396500D01*
X4626786Y-17410786D01*
X4641071Y-17439357D01*
X4641071Y-17467929D01*
X4626786Y-17510786D01*
X4455357Y-17682214D01*
X4641071Y-17682214D01*
X4769643Y-17653643D02*
X4783928Y-17667929D01*
X4769643Y-17682214D01*
X4755357Y-17667929D01*
X4769643Y-17653643D01*
X4769643Y-17682214D01*
X4883928Y-17382214D02*
X5069643Y-17382214D01*
X4969643Y-17496500D01*
X5012500Y-17496500D01*
X5041071Y-17510786D01*
X5055357Y-17525072D01*
X5069643Y-17553643D01*
X5069643Y-17625072D01*
X5055357Y-17653643D01*
X5041071Y-17667929D01*
X5012500Y-17682214D01*
X4926786Y-17682214D01*
X4898214Y-17667929D01*
X4883928Y-17653643D01*
X5255357Y-17382214D02*
X5283928Y-17382214D01*
X5312500Y-17396500D01*
X5326786Y-17410786D01*
X5341071Y-17439357D01*
X5355357Y-17496500D01*
X5355357Y-17567929D01*
X5341071Y-17625072D01*
X5326786Y-17653643D01*
X5312500Y-17667929D01*
X5283928Y-17682214D01*
X5255357Y-17682214D01*
X5226786Y-17667929D01*
X5212500Y-17653643D01*
X5198214Y-17625072D01*
X5183928Y-17567929D01*
X5183928Y-17496500D01*
X5198214Y-17439357D01*
X5212500Y-17410786D01*
X5226786Y-17396500D01*
X5255357Y-17382214D01*
X5483928Y-17682214D02*
X5483928Y-17482214D01*
X5483928Y-17510786D02*
X5498214Y-17496500D01*
X5526786Y-17482214D01*
X5569643Y-17482214D01*
X5598214Y-17496500D01*
X5612500Y-17525072D01*
X5612500Y-17682214D01*
X5612500Y-17525072D02*
X5626786Y-17496500D01*
X5655357Y-17482214D01*
X5698214Y-17482214D01*
X5726786Y-17496500D01*
X5741071Y-17525072D01*
X5741071Y-17682214D01*
X5883928Y-17682214D02*
X5883928Y-17482214D01*
X5883928Y-17510786D02*
X5898214Y-17496500D01*
X5926786Y-17482214D01*
X5969643Y-17482214D01*
X5998214Y-17496500D01*
X6012500Y-17525072D01*
X6012500Y-17682214D01*
X6012500Y-17525072D02*
X6026786Y-17496500D01*
X6055357Y-17482214D01*
X6098214Y-17482214D01*
X6126786Y-17496500D01*
X6141071Y-17525072D01*
X6141071Y-17682214D01*
X6726786Y-17367929D02*
X6469643Y-17753643D01*
X7112500Y-17382214D02*
X7141071Y-17382214D01*
X7169643Y-17396500D01*
X7183928Y-17410786D01*
X7198214Y-17439357D01*
X7212500Y-17496500D01*
X7212500Y-17567929D01*
X7198214Y-17625072D01*
X7183928Y-17653643D01*
X7169643Y-17667929D01*
X7141071Y-17682214D01*
X7112500Y-17682214D01*
X7083928Y-17667929D01*
X7069643Y-17653643D01*
X7055357Y-17625072D01*
X7041071Y-17567929D01*
X7041071Y-17496500D01*
X7055357Y-17439357D01*
X7069643Y-17410786D01*
X7083928Y-17396500D01*
X7112500Y-17382214D01*
X7341071Y-17653643D02*
X7355357Y-17667929D01*
X7341071Y-17682214D01*
X7326786Y-17667929D01*
X7341071Y-17653643D01*
X7341071Y-17682214D01*
X7541071Y-17382214D02*
X7569643Y-17382214D01*
X7598214Y-17396500D01*
X7612500Y-17410786D01*
X7626786Y-17439357D01*
X7641071Y-17496500D01*
X7641071Y-17567929D01*
X7626786Y-17625072D01*
X7612500Y-17653643D01*
X7598214Y-17667929D01*
X7569643Y-17682214D01*
X7541071Y-17682214D01*
X7512500Y-17667929D01*
X7498214Y-17653643D01*
X7483928Y-17625072D01*
X7469643Y-17567929D01*
X7469643Y-17496500D01*
X7483928Y-17439357D01*
X7498214Y-17410786D01*
X7512500Y-17396500D01*
X7541071Y-17382214D01*
X7783928Y-17682214D02*
X7841071Y-17682214D01*
X7869643Y-17667929D01*
X7883928Y-17653643D01*
X7912500Y-17610786D01*
X7926786Y-17553643D01*
X7926786Y-17439357D01*
X7912500Y-17410786D01*
X7898214Y-17396500D01*
X7869643Y-17382214D01*
X7812500Y-17382214D01*
X7783928Y-17396500D01*
X7769643Y-17410786D01*
X7755357Y-17439357D01*
X7755357Y-17510786D01*
X7769643Y-17539357D01*
X7783928Y-17553643D01*
X7812500Y-17567929D01*
X7869643Y-17567929D01*
X7898214Y-17553643D01*
X7912500Y-17539357D01*
X7926786Y-17510786D01*
X8212500Y-17682214D02*
X8041071Y-17682214D01*
X8126786Y-17682214D02*
X8126786Y-17382214D01*
X8098214Y-17425072D01*
X8069643Y-17453643D01*
X8041071Y-17467929D01*
X8326786Y-17382214D02*
X8326786Y-17439357D01*
X8441071Y-17382214D02*
X8441071Y-17439357D01*
X8883928Y-17796500D02*
X8869643Y-17782214D01*
X8841071Y-17739357D01*
X8826786Y-17710786D01*
X8812500Y-17667929D01*
X8798214Y-17596500D01*
X8798214Y-17539357D01*
X8812500Y-17467929D01*
X8826786Y-17425072D01*
X8841071Y-17396500D01*
X8869643Y-17353643D01*
X8883928Y-17339357D01*
X8983928Y-17410786D02*
X8998214Y-17396500D01*
X9026786Y-17382214D01*
X9098214Y-17382214D01*
X9126786Y-17396500D01*
X9141071Y-17410786D01*
X9155357Y-17439357D01*
X9155357Y-17467929D01*
X9141071Y-17510786D01*
X8969643Y-17682214D01*
X9155357Y-17682214D01*
X9512500Y-17682214D02*
X9512500Y-17382214D01*
X9641071Y-17682214D02*
X9641071Y-17525072D01*
X9626786Y-17496500D01*
X9598214Y-17482214D01*
X9555357Y-17482214D01*
X9526786Y-17496500D01*
X9512500Y-17510786D01*
X9826786Y-17682214D02*
X9798214Y-17667929D01*
X9783928Y-17653643D01*
X9769643Y-17625072D01*
X9769643Y-17539357D01*
X9783928Y-17510786D01*
X9798214Y-17496500D01*
X9826786Y-17482214D01*
X9869643Y-17482214D01*
X9898214Y-17496500D01*
X9912500Y-17510786D01*
X9926786Y-17539357D01*
X9926786Y-17625072D01*
X9912500Y-17653643D01*
X9898214Y-17667929D01*
X9869643Y-17682214D01*
X9826786Y-17682214D01*
X10098214Y-17682214D02*
X10069643Y-17667929D01*
X10055357Y-17639357D01*
X10055357Y-17382214D01*
X10326786Y-17667929D02*
X10298214Y-17682214D01*
X10241071Y-17682214D01*
X10212500Y-17667929D01*
X10198214Y-17639357D01*
X10198214Y-17525072D01*
X10212500Y-17496500D01*
X10241071Y-17482214D01*
X10298214Y-17482214D01*
X10326786Y-17496500D01*
X10341071Y-17525072D01*
X10341071Y-17553643D01*
X10198214Y-17582214D01*
X10455357Y-17667929D02*
X10483928Y-17682214D01*
X10541071Y-17682214D01*
X10569643Y-17667929D01*
X10583928Y-17639357D01*
X10583928Y-17625072D01*
X10569643Y-17596500D01*
X10541071Y-17582214D01*
X10498214Y-17582214D01*
X10469643Y-17567929D01*
X10455357Y-17539357D01*
X10455357Y-17525072D01*
X10469643Y-17496500D01*
X10498214Y-17482214D01*
X10541071Y-17482214D01*
X10569643Y-17496500D01*
X10683928Y-17796500D02*
X10698214Y-17782214D01*
X10726786Y-17739357D01*
X10741071Y-17710786D01*
X10755357Y-17667929D01*
X10769643Y-17596500D01*
X10769643Y-17539357D01*
X10755357Y-17467929D01*
X10741071Y-17425072D01*
X10726786Y-17396500D01*
X10698214Y-17353643D01*
X10683928Y-17339357D01*
M02*
