G04 #@! TF.GenerationSoftware,KiCad,Pcbnew,(5.1.9)-1*
G04 #@! TF.CreationDate,2021-04-20T11:25:04+02:00*
G04 #@! TF.ProjectId,esp32-kaemmerlein-light-control,65737033-322d-46b6-9165-6d6d65726c65,rev?*
G04 #@! TF.SameCoordinates,Original*
G04 #@! TF.FileFunction,Legend,Bot*
G04 #@! TF.FilePolarity,Positive*
%FSLAX46Y46*%
G04 Gerber Fmt 4.6, Leading zero omitted, Abs format (unit mm)*
G04 Created by KiCad (PCBNEW (5.1.9)-1) date 2021-04-20 11:25:04*
%MOMM*%
%LPD*%
G01*
G04 APERTURE LIST*
%ADD10C,0.300000*%
%ADD11C,0.150000*%
%ADD12C,0.120000*%
%ADD13O,1.700000X1.700000*%
%ADD14R,1.700000X1.700000*%
%ADD15C,3.700000*%
%ADD16C,2.200000*%
%ADD17O,2.300000X1.500000*%
%ADD18R,2.300000X1.500000*%
%ADD19R,0.900000X0.500000*%
%ADD20O,1.800000X3.600000*%
%ADD21R,3.500000X3.500000*%
%ADD22C,4.000000*%
%ADD23C,1.600000*%
%ADD24R,1.600000X1.600000*%
%ADD25R,0.750000X0.800000*%
G04 APERTURE END LIST*
D10*
X47809523Y-109390476D02*
X47904761Y-109676190D01*
X47904761Y-110152380D01*
X47809523Y-110342857D01*
X47714285Y-110438095D01*
X47523809Y-110533333D01*
X47333333Y-110533333D01*
X47142857Y-110438095D01*
X47047619Y-110342857D01*
X46952380Y-110152380D01*
X46857142Y-109771428D01*
X46761904Y-109580952D01*
X46666666Y-109485714D01*
X46476190Y-109390476D01*
X46285714Y-109390476D01*
X46095238Y-109485714D01*
X46000000Y-109580952D01*
X45904761Y-109771428D01*
X45904761Y-110247619D01*
X46000000Y-110533333D01*
X47904761Y-111390476D02*
X45904761Y-111390476D01*
X47904761Y-112533333D02*
X46761904Y-111676190D01*
X45904761Y-112533333D02*
X47047619Y-111390476D01*
X45904761Y-113390476D02*
X47523809Y-113390476D01*
X47714285Y-113485714D01*
X47809523Y-113580952D01*
X47904761Y-113771428D01*
X47904761Y-114152380D01*
X47809523Y-114342857D01*
X47714285Y-114438095D01*
X47523809Y-114533333D01*
X45904761Y-114533333D01*
X47714285Y-115485714D02*
X47809523Y-115580952D01*
X47904761Y-115485714D01*
X47809523Y-115390476D01*
X47714285Y-115485714D01*
X47904761Y-115485714D01*
X46666666Y-115485714D02*
X46761904Y-115580952D01*
X46857142Y-115485714D01*
X46761904Y-115390476D01*
X46666666Y-115485714D01*
X46857142Y-115485714D01*
X47904761Y-117961904D02*
X45904761Y-117961904D01*
X47333333Y-118628571D01*
X45904761Y-119295238D01*
X47904761Y-119295238D01*
X47904761Y-121390476D02*
X46952380Y-120723809D01*
X47904761Y-120247619D02*
X45904761Y-120247619D01*
X45904761Y-121009523D01*
X46000000Y-121200000D01*
X46095238Y-121295238D01*
X46285714Y-121390476D01*
X46571428Y-121390476D01*
X46761904Y-121295238D01*
X46857142Y-121200000D01*
X46952380Y-121009523D01*
X46952380Y-120247619D01*
X46857142Y-122914285D02*
X46952380Y-123200000D01*
X47047619Y-123295238D01*
X47238095Y-123390476D01*
X47523809Y-123390476D01*
X47714285Y-123295238D01*
X47809523Y-123200000D01*
X47904761Y-123009523D01*
X47904761Y-122247619D01*
X45904761Y-122247619D01*
X45904761Y-122914285D01*
X46000000Y-123104761D01*
X46095238Y-123200000D01*
X46285714Y-123295238D01*
X46476190Y-123295238D01*
X46666666Y-123200000D01*
X46761904Y-123104761D01*
X46857142Y-122914285D01*
X46857142Y-122247619D01*
X45904761Y-124057142D02*
X45904761Y-125295238D01*
X46666666Y-124628571D01*
X46666666Y-124914285D01*
X46761904Y-125104761D01*
X46857142Y-125200000D01*
X47047619Y-125295238D01*
X47523809Y-125295238D01*
X47714285Y-125200000D01*
X47809523Y-125104761D01*
X47904761Y-124914285D01*
X47904761Y-124342857D01*
X47809523Y-124152380D01*
X47714285Y-124057142D01*
X45904761Y-127104761D02*
X45904761Y-126152380D01*
X46857142Y-126057142D01*
X46761904Y-126152380D01*
X46666666Y-126342857D01*
X46666666Y-126819047D01*
X46761904Y-127009523D01*
X46857142Y-127104761D01*
X47047619Y-127200000D01*
X47523809Y-127200000D01*
X47714285Y-127104761D01*
X47809523Y-127009523D01*
X47904761Y-126819047D01*
X47904761Y-126342857D01*
X47809523Y-126152380D01*
X47714285Y-126057142D01*
X47904761Y-129104761D02*
X47904761Y-127961904D01*
X47904761Y-128533333D02*
X45904761Y-128533333D01*
X46190476Y-128342857D01*
X46380952Y-128152380D01*
X46476190Y-127961904D01*
X47904761Y-131009523D02*
X47904761Y-129866666D01*
X47904761Y-130438095D02*
X45904761Y-130438095D01*
X46190476Y-130247619D01*
X46380952Y-130057142D01*
X46476190Y-129866666D01*
D11*
X149827380Y-113957142D02*
X149827380Y-113385714D01*
X149827380Y-113671428D02*
X148827380Y-113671428D01*
X148970238Y-113576190D01*
X149065476Y-113480952D01*
X149113095Y-113385714D01*
X148827380Y-114576190D02*
X148827380Y-114671428D01*
X148875000Y-114766666D01*
X148922619Y-114814285D01*
X149017857Y-114861904D01*
X149208333Y-114909523D01*
X149446428Y-114909523D01*
X149636904Y-114861904D01*
X149732142Y-114814285D01*
X149779761Y-114766666D01*
X149827380Y-114671428D01*
X149827380Y-114576190D01*
X149779761Y-114480952D01*
X149732142Y-114433333D01*
X149636904Y-114385714D01*
X149446428Y-114338095D01*
X149208333Y-114338095D01*
X149017857Y-114385714D01*
X148922619Y-114433333D01*
X148875000Y-114480952D01*
X148827380Y-114576190D01*
X149160714Y-115766666D02*
X149827380Y-115766666D01*
X149160714Y-115338095D02*
X149684523Y-115338095D01*
X149779761Y-115385714D01*
X149827380Y-115480952D01*
X149827380Y-115623809D01*
X149779761Y-115719047D01*
X149732142Y-115766666D01*
X151477380Y-113480952D02*
X151477380Y-112909523D01*
X151477380Y-113195238D02*
X150477380Y-113195238D01*
X150620238Y-113100000D01*
X150715476Y-113004761D01*
X150763095Y-112909523D01*
X150477380Y-114100000D02*
X150477380Y-114195238D01*
X150525000Y-114290476D01*
X150572619Y-114338095D01*
X150667857Y-114385714D01*
X150858333Y-114433333D01*
X151096428Y-114433333D01*
X151286904Y-114385714D01*
X151382142Y-114338095D01*
X151429761Y-114290476D01*
X151477380Y-114195238D01*
X151477380Y-114100000D01*
X151429761Y-114004761D01*
X151382142Y-113957142D01*
X151286904Y-113909523D01*
X151096428Y-113861904D01*
X150858333Y-113861904D01*
X150667857Y-113909523D01*
X150572619Y-113957142D01*
X150525000Y-114004761D01*
X150477380Y-114100000D01*
X150477380Y-115052380D02*
X150477380Y-115147619D01*
X150525000Y-115242857D01*
X150572619Y-115290476D01*
X150667857Y-115338095D01*
X150858333Y-115385714D01*
X151096428Y-115385714D01*
X151286904Y-115338095D01*
X151382142Y-115290476D01*
X151429761Y-115242857D01*
X151477380Y-115147619D01*
X151477380Y-115052380D01*
X151429761Y-114957142D01*
X151382142Y-114909523D01*
X151286904Y-114861904D01*
X151096428Y-114814285D01*
X150858333Y-114814285D01*
X150667857Y-114861904D01*
X150572619Y-114909523D01*
X150525000Y-114957142D01*
X150477380Y-115052380D01*
X150810714Y-115814285D02*
X151477380Y-115814285D01*
X150905952Y-115814285D02*
X150858333Y-115861904D01*
X150810714Y-115957142D01*
X150810714Y-116100000D01*
X150858333Y-116195238D01*
X150953571Y-116242857D01*
X151477380Y-116242857D01*
X70252380Y-140204761D02*
X70252380Y-139633333D01*
X70252380Y-139919047D02*
X69252380Y-139919047D01*
X69395238Y-139823809D01*
X69490476Y-139728571D01*
X69538095Y-139633333D01*
X69252380Y-140823809D02*
X69252380Y-140919047D01*
X69300000Y-141014285D01*
X69347619Y-141061904D01*
X69442857Y-141109523D01*
X69633333Y-141157142D01*
X69871428Y-141157142D01*
X70061904Y-141109523D01*
X70157142Y-141061904D01*
X70204761Y-141014285D01*
X70252380Y-140919047D01*
X70252380Y-140823809D01*
X70204761Y-140728571D01*
X70157142Y-140680952D01*
X70061904Y-140633333D01*
X69871428Y-140585714D01*
X69633333Y-140585714D01*
X69442857Y-140633333D01*
X69347619Y-140680952D01*
X69300000Y-140728571D01*
X69252380Y-140823809D01*
X70252380Y-141585714D02*
X69252380Y-141585714D01*
X69871428Y-141680952D02*
X70252380Y-141966666D01*
X69585714Y-141966666D02*
X69966666Y-141585714D01*
X60385714Y-136052380D02*
X60385714Y-135052380D01*
X59814285Y-136052380D01*
X59814285Y-135052380D01*
X58766666Y-135957142D02*
X58814285Y-136004761D01*
X58957142Y-136052380D01*
X59052380Y-136052380D01*
X59195238Y-136004761D01*
X59290476Y-135909523D01*
X59338095Y-135814285D01*
X59385714Y-135623809D01*
X59385714Y-135480952D01*
X59338095Y-135290476D01*
X59290476Y-135195238D01*
X59195238Y-135100000D01*
X59052380Y-135052380D01*
X58957142Y-135052380D01*
X58814285Y-135100000D01*
X58766666Y-135147619D01*
X49785714Y-138452380D02*
X49785714Y-137452380D01*
X49214285Y-138452380D01*
X49214285Y-137452380D01*
X48166666Y-138357142D02*
X48214285Y-138404761D01*
X48357142Y-138452380D01*
X48452380Y-138452380D01*
X48595238Y-138404761D01*
X48690476Y-138309523D01*
X48738095Y-138214285D01*
X48785714Y-138023809D01*
X48785714Y-137880952D01*
X48738095Y-137690476D01*
X48690476Y-137595238D01*
X48595238Y-137500000D01*
X48452380Y-137452380D01*
X48357142Y-137452380D01*
X48214285Y-137500000D01*
X48166666Y-137547619D01*
X49838095Y-105252380D02*
X49838095Y-104252380D01*
X49600000Y-104252380D01*
X49457142Y-104300000D01*
X49361904Y-104395238D01*
X49314285Y-104490476D01*
X49266666Y-104680952D01*
X49266666Y-104823809D01*
X49314285Y-105014285D01*
X49361904Y-105109523D01*
X49457142Y-105204761D01*
X49600000Y-105252380D01*
X49838095Y-105252380D01*
X48504761Y-104728571D02*
X48361904Y-104776190D01*
X48314285Y-104823809D01*
X48266666Y-104919047D01*
X48266666Y-105061904D01*
X48314285Y-105157142D01*
X48361904Y-105204761D01*
X48457142Y-105252380D01*
X48838095Y-105252380D01*
X48838095Y-104252380D01*
X48504761Y-104252380D01*
X48409523Y-104300000D01*
X48361904Y-104347619D01*
X48314285Y-104442857D01*
X48314285Y-104538095D01*
X48361904Y-104633333D01*
X48409523Y-104680952D01*
X48504761Y-104728571D01*
X48838095Y-104728571D01*
X47647619Y-104252380D02*
X47552380Y-104252380D01*
X47457142Y-104300000D01*
X47409523Y-104347619D01*
X47361904Y-104442857D01*
X47314285Y-104633333D01*
X47314285Y-104871428D01*
X47361904Y-105061904D01*
X47409523Y-105157142D01*
X47457142Y-105204761D01*
X47552380Y-105252380D01*
X47647619Y-105252380D01*
X47742857Y-105204761D01*
X47790476Y-105157142D01*
X47838095Y-105061904D01*
X47885714Y-104871428D01*
X47885714Y-104633333D01*
X47838095Y-104442857D01*
X47790476Y-104347619D01*
X47742857Y-104300000D01*
X47647619Y-104252380D01*
X49928571Y-101652380D02*
X49690476Y-102652380D01*
X49500000Y-101938095D01*
X49309523Y-102652380D01*
X49071428Y-101652380D01*
X48690476Y-102652380D02*
X48690476Y-101652380D01*
X48452380Y-101652380D01*
X48309523Y-101700000D01*
X48214285Y-101795238D01*
X48166666Y-101890476D01*
X48119047Y-102080952D01*
X48119047Y-102223809D01*
X48166666Y-102414285D01*
X48214285Y-102509523D01*
X48309523Y-102604761D01*
X48452380Y-102652380D01*
X48690476Y-102652380D01*
X49366666Y-100252380D02*
X49700000Y-99776190D01*
X49938095Y-100252380D02*
X49938095Y-99252380D01*
X49557142Y-99252380D01*
X49461904Y-99300000D01*
X49414285Y-99347619D01*
X49366666Y-99442857D01*
X49366666Y-99585714D01*
X49414285Y-99680952D01*
X49461904Y-99728571D01*
X49557142Y-99776190D01*
X49938095Y-99776190D01*
X48985714Y-100204761D02*
X48842857Y-100252380D01*
X48604761Y-100252380D01*
X48509523Y-100204761D01*
X48461904Y-100157142D01*
X48414285Y-100061904D01*
X48414285Y-99966666D01*
X48461904Y-99871428D01*
X48509523Y-99823809D01*
X48604761Y-99776190D01*
X48795238Y-99728571D01*
X48890476Y-99680952D01*
X48938095Y-99633333D01*
X48985714Y-99538095D01*
X48985714Y-99442857D01*
X48938095Y-99347619D01*
X48890476Y-99300000D01*
X48795238Y-99252380D01*
X48557142Y-99252380D01*
X48414285Y-99300000D01*
X50014285Y-136004761D02*
X49871428Y-136052380D01*
X49633333Y-136052380D01*
X49538095Y-136004761D01*
X49490476Y-135957142D01*
X49442857Y-135861904D01*
X49442857Y-135766666D01*
X49490476Y-135671428D01*
X49538095Y-135623809D01*
X49633333Y-135576190D01*
X49823809Y-135528571D01*
X49919047Y-135480952D01*
X49966666Y-135433333D01*
X50014285Y-135338095D01*
X50014285Y-135242857D01*
X49966666Y-135147619D01*
X49919047Y-135100000D01*
X49823809Y-135052380D01*
X49585714Y-135052380D01*
X49442857Y-135100000D01*
X49014285Y-136052380D02*
X49014285Y-135052380D01*
X48776190Y-135052380D01*
X48633333Y-135100000D01*
X48538095Y-135195238D01*
X48490476Y-135290476D01*
X48442857Y-135480952D01*
X48442857Y-135623809D01*
X48490476Y-135814285D01*
X48538095Y-135909523D01*
X48633333Y-136004761D01*
X48776190Y-136052380D01*
X49014285Y-136052380D01*
X48061904Y-135766666D02*
X47585714Y-135766666D01*
X48157142Y-136052380D02*
X47823809Y-135052380D01*
X47490476Y-136052380D01*
X49790476Y-141204761D02*
X49647619Y-141252380D01*
X49409523Y-141252380D01*
X49314285Y-141204761D01*
X49266666Y-141157142D01*
X49219047Y-141061904D01*
X49219047Y-140966666D01*
X49266666Y-140871428D01*
X49314285Y-140823809D01*
X49409523Y-140776190D01*
X49600000Y-140728571D01*
X49695238Y-140680952D01*
X49742857Y-140633333D01*
X49790476Y-140538095D01*
X49790476Y-140442857D01*
X49742857Y-140347619D01*
X49695238Y-140300000D01*
X49600000Y-140252380D01*
X49361904Y-140252380D01*
X49219047Y-140300000D01*
X48219047Y-141157142D02*
X48266666Y-141204761D01*
X48409523Y-141252380D01*
X48504761Y-141252380D01*
X48647619Y-141204761D01*
X48742857Y-141109523D01*
X48790476Y-141014285D01*
X48838095Y-140823809D01*
X48838095Y-140680952D01*
X48790476Y-140490476D01*
X48742857Y-140395238D01*
X48647619Y-140300000D01*
X48504761Y-140252380D01*
X48409523Y-140252380D01*
X48266666Y-140300000D01*
X48219047Y-140347619D01*
X47314285Y-141252380D02*
X47790476Y-141252380D01*
X47790476Y-140252380D01*
X60704761Y-138652380D02*
X60704761Y-137652380D01*
X60228571Y-138652380D02*
X60228571Y-137652380D01*
X59657142Y-138652380D01*
X59657142Y-137652380D01*
X59323809Y-137652380D02*
X58752380Y-137652380D01*
X59038095Y-138652380D02*
X59038095Y-137652380D01*
X61447619Y-140957142D02*
X61495238Y-141004761D01*
X61638095Y-141052380D01*
X61733333Y-141052380D01*
X61876190Y-141004761D01*
X61971428Y-140909523D01*
X62019047Y-140814285D01*
X62066666Y-140623809D01*
X62066666Y-140480952D01*
X62019047Y-140290476D01*
X61971428Y-140195238D01*
X61876190Y-140100000D01*
X61733333Y-140052380D01*
X61638095Y-140052380D01*
X61495238Y-140100000D01*
X61447619Y-140147619D01*
X60447619Y-141052380D02*
X60780952Y-140576190D01*
X61019047Y-141052380D02*
X61019047Y-140052380D01*
X60638095Y-140052380D01*
X60542857Y-140100000D01*
X60495238Y-140147619D01*
X60447619Y-140242857D01*
X60447619Y-140385714D01*
X60495238Y-140480952D01*
X60542857Y-140528571D01*
X60638095Y-140576190D01*
X61019047Y-140576190D01*
X60066666Y-141004761D02*
X59923809Y-141052380D01*
X59685714Y-141052380D01*
X59590476Y-141004761D01*
X59542857Y-140957142D01*
X59495238Y-140861904D01*
X59495238Y-140766666D01*
X59542857Y-140671428D01*
X59590476Y-140623809D01*
X59685714Y-140576190D01*
X59876190Y-140528571D01*
X59971428Y-140480952D01*
X60019047Y-140433333D01*
X60066666Y-140338095D01*
X60066666Y-140242857D01*
X60019047Y-140147619D01*
X59971428Y-140100000D01*
X59876190Y-140052380D01*
X59638095Y-140052380D01*
X59495238Y-140100000D01*
X59209523Y-140052380D02*
X58638095Y-140052380D01*
X58923809Y-141052380D02*
X58923809Y-140052380D01*
X60347619Y-105252380D02*
X60680952Y-104776190D01*
X60919047Y-105252380D02*
X60919047Y-104252380D01*
X60538095Y-104252380D01*
X60442857Y-104300000D01*
X60395238Y-104347619D01*
X60347619Y-104442857D01*
X60347619Y-104585714D01*
X60395238Y-104680952D01*
X60442857Y-104728571D01*
X60538095Y-104776190D01*
X60919047Y-104776190D01*
X59966666Y-105204761D02*
X59823809Y-105252380D01*
X59585714Y-105252380D01*
X59490476Y-105204761D01*
X59442857Y-105157142D01*
X59395238Y-105061904D01*
X59395238Y-104966666D01*
X59442857Y-104871428D01*
X59490476Y-104823809D01*
X59585714Y-104776190D01*
X59776190Y-104728571D01*
X59871428Y-104680952D01*
X59919047Y-104633333D01*
X59966666Y-104538095D01*
X59966666Y-104442857D01*
X59919047Y-104347619D01*
X59871428Y-104300000D01*
X59776190Y-104252380D01*
X59538095Y-104252380D01*
X59395238Y-104300000D01*
X59109523Y-104252380D02*
X58538095Y-104252380D01*
X58823809Y-105252380D02*
X58823809Y-104252380D01*
X60328571Y-101852380D02*
X60090476Y-102852380D01*
X59900000Y-102138095D01*
X59709523Y-102852380D01*
X59471428Y-101852380D01*
X58519047Y-102852380D02*
X58852380Y-102376190D01*
X59090476Y-102852380D02*
X59090476Y-101852380D01*
X58709523Y-101852380D01*
X58614285Y-101900000D01*
X58566666Y-101947619D01*
X58519047Y-102042857D01*
X58519047Y-102185714D01*
X58566666Y-102280952D01*
X58614285Y-102328571D01*
X58709523Y-102376190D01*
X59090476Y-102376190D01*
X59366666Y-100357142D02*
X59414285Y-100404761D01*
X59557142Y-100452380D01*
X59652380Y-100452380D01*
X59795238Y-100404761D01*
X59890476Y-100309523D01*
X59938095Y-100214285D01*
X59985714Y-100023809D01*
X59985714Y-99880952D01*
X59938095Y-99690476D01*
X59890476Y-99595238D01*
X59795238Y-99500000D01*
X59652380Y-99452380D01*
X59557142Y-99452380D01*
X59414285Y-99500000D01*
X59366666Y-99547619D01*
X58985714Y-100404761D02*
X58842857Y-100452380D01*
X58604761Y-100452380D01*
X58509523Y-100404761D01*
X58461904Y-100357142D01*
X58414285Y-100261904D01*
X58414285Y-100166666D01*
X58461904Y-100071428D01*
X58509523Y-100023809D01*
X58604761Y-99976190D01*
X58795238Y-99928571D01*
X58890476Y-99880952D01*
X58938095Y-99833333D01*
X58985714Y-99738095D01*
X58985714Y-99642857D01*
X58938095Y-99547619D01*
X58890476Y-99500000D01*
X58795238Y-99452380D01*
X58557142Y-99452380D01*
X58414285Y-99500000D01*
D12*
X147800000Y-91900000D02*
X145100000Y-91900000D01*
X147800000Y-148300000D02*
X145100000Y-148300000D01*
X147800000Y-91900000D02*
X147800000Y-148300000D01*
X51600000Y-91900000D02*
X147800000Y-91900000D01*
X51600000Y-148300000D02*
X147800000Y-148300000D01*
X50700000Y-98000000D02*
X51600000Y-98000000D01*
X50700000Y-142200000D02*
X50700000Y-98000000D01*
X51600000Y-142200000D02*
X50700000Y-142200000D01*
X51600000Y-98000000D02*
X51600000Y-91900000D01*
X51600000Y-142200000D02*
X51600000Y-148300000D01*
X67520000Y-140300000D02*
X67520000Y-141300000D01*
X68880000Y-141300000D02*
X68880000Y-140300000D01*
X57330000Y-141770000D02*
X52130000Y-141770000D01*
X57330000Y-101070000D02*
X57330000Y-141770000D01*
X52130000Y-98470000D02*
X52130000Y-141770000D01*
X57330000Y-101070000D02*
X54730000Y-101070000D01*
X54730000Y-101070000D02*
X54730000Y-98470000D01*
X54730000Y-98470000D02*
X52130000Y-98470000D01*
X57330000Y-99800000D02*
X57330000Y-98470000D01*
X57330000Y-98470000D02*
X56000000Y-98470000D01*
X151600000Y-111150000D02*
X151600000Y-110450000D01*
X150400000Y-110450000D02*
X150400000Y-111150000D01*
X149800000Y-111150000D02*
X149800000Y-110450000D01*
X148600000Y-110450000D02*
X148600000Y-111150000D01*
X151600000Y-106550000D02*
X151600000Y-105850000D01*
X150400000Y-105850000D02*
X150400000Y-106550000D01*
X149600000Y-106550000D02*
X149600000Y-105850000D01*
X148400000Y-105850000D02*
X148400000Y-106550000D01*
%LPC*%
D13*
X113200000Y-125900000D03*
X113200000Y-123360000D03*
X113200000Y-120820000D03*
X113200000Y-118280000D03*
X113200000Y-115740000D03*
D14*
X113200000Y-113200000D03*
D15*
X46000000Y-146000000D03*
X46000000Y-94000000D03*
X154000000Y-146000000D03*
X154000000Y-94000000D03*
D16*
X145100000Y-144500000D03*
X145100000Y-95700000D03*
D17*
X153800000Y-112080000D03*
X153800000Y-109540000D03*
D18*
X153800000Y-107000000D03*
D19*
X68200000Y-140050000D03*
X68200000Y-141550000D03*
D20*
X104620000Y-95000000D03*
X100810000Y-95000000D03*
G36*
G01*
X96100000Y-96550000D02*
X96100000Y-93450000D01*
G75*
G02*
X96350000Y-93200000I250000J0D01*
G01*
X97650000Y-93200000D01*
G75*
G02*
X97900000Y-93450000I0J-250000D01*
G01*
X97900000Y-96550000D01*
G75*
G02*
X97650000Y-96800000I-250000J0D01*
G01*
X96350000Y-96800000D01*
G75*
G02*
X96100000Y-96550000I0J250000D01*
G01*
G37*
X72620000Y-95000000D03*
X68810000Y-95000000D03*
G36*
G01*
X64100000Y-96550000D02*
X64100000Y-93450000D01*
G75*
G02*
X64350000Y-93200000I250000J0D01*
G01*
X65650000Y-93200000D01*
G75*
G02*
X65900000Y-93450000I0J-250000D01*
G01*
X65900000Y-96550000D01*
G75*
G02*
X65650000Y-96800000I-250000J0D01*
G01*
X64350000Y-96800000D01*
G75*
G02*
X64100000Y-96550000I0J250000D01*
G01*
G37*
X88620000Y-95000000D03*
X84810000Y-95000000D03*
G36*
G01*
X80100000Y-96550000D02*
X80100000Y-93450000D01*
G75*
G02*
X80350000Y-93200000I250000J0D01*
G01*
X81650000Y-93200000D01*
G75*
G02*
X81900000Y-93450000I0J-250000D01*
G01*
X81900000Y-96550000D01*
G75*
G02*
X81650000Y-96800000I-250000J0D01*
G01*
X80350000Y-96800000D01*
G75*
G02*
X80100000Y-96550000I0J250000D01*
G01*
G37*
D13*
X124880000Y-146000000D03*
X122340000Y-146000000D03*
D14*
X119800000Y-146000000D03*
D13*
X112480000Y-146000000D03*
X109940000Y-146000000D03*
D14*
X107400000Y-146000000D03*
G36*
G01*
X128425000Y-99250000D02*
X130175000Y-99250000D01*
G75*
G02*
X131050000Y-100125000I0J-875000D01*
G01*
X131050000Y-101875000D01*
G75*
G02*
X130175000Y-102750000I-875000J0D01*
G01*
X128425000Y-102750000D01*
G75*
G02*
X127550000Y-101875000I0J875000D01*
G01*
X127550000Y-100125000D01*
G75*
G02*
X128425000Y-99250000I875000J0D01*
G01*
G37*
G36*
G01*
X133000000Y-96500000D02*
X135000000Y-96500000D01*
G75*
G02*
X135750000Y-97250000I0J-750000D01*
G01*
X135750000Y-98750000D01*
G75*
G02*
X135000000Y-99500000I-750000J0D01*
G01*
X133000000Y-99500000D01*
G75*
G02*
X132250000Y-98750000I0J750000D01*
G01*
X132250000Y-97250000D01*
G75*
G02*
X133000000Y-96500000I750000J0D01*
G01*
G37*
D21*
X134000000Y-104000000D03*
D13*
X53460000Y-140440000D03*
X56000000Y-140440000D03*
X53460000Y-137900000D03*
X56000000Y-137900000D03*
X53460000Y-135360000D03*
X56000000Y-135360000D03*
X53460000Y-132820000D03*
X56000000Y-132820000D03*
X53460000Y-130280000D03*
X56000000Y-130280000D03*
X53460000Y-127740000D03*
X56000000Y-127740000D03*
X53460000Y-125200000D03*
X56000000Y-125200000D03*
X53460000Y-122660000D03*
X56000000Y-122660000D03*
X53460000Y-120120000D03*
X56000000Y-120120000D03*
X53460000Y-117580000D03*
X56000000Y-117580000D03*
X53460000Y-115040000D03*
X56000000Y-115040000D03*
X53460000Y-112500000D03*
X56000000Y-112500000D03*
X53460000Y-109960000D03*
X56000000Y-109960000D03*
X53460000Y-107420000D03*
X56000000Y-107420000D03*
X53460000Y-104880000D03*
X56000000Y-104880000D03*
X53460000Y-102340000D03*
X56000000Y-102340000D03*
X53460000Y-99800000D03*
D14*
X56000000Y-99800000D03*
D20*
X120810000Y-95000000D03*
G36*
G01*
X116100000Y-96550000D02*
X116100000Y-93450000D01*
G75*
G02*
X116350000Y-93200000I250000J0D01*
G01*
X117650000Y-93200000D01*
G75*
G02*
X117900000Y-93450000I0J-250000D01*
G01*
X117900000Y-96550000D01*
G75*
G02*
X117650000Y-96800000I-250000J0D01*
G01*
X116350000Y-96800000D01*
G75*
G02*
X116100000Y-96550000I0J250000D01*
G01*
G37*
D13*
X132320000Y-146000000D03*
X134860000Y-146000000D03*
D14*
X137400000Y-146000000D03*
D22*
X146860000Y-122250000D03*
X146860000Y-134250000D03*
D23*
X144000000Y-127000000D03*
X144000000Y-129500000D03*
X142000000Y-129500000D03*
D24*
X142000000Y-127000000D03*
D25*
X151000000Y-110050000D03*
X151000000Y-111550000D03*
X149200000Y-110050000D03*
X149200000Y-111550000D03*
X151000000Y-105450000D03*
X151000000Y-106950000D03*
X149000000Y-105450000D03*
X149000000Y-106950000D03*
M02*
