M48
; DRILL file {KiCad (5.1.10)-1} date 07/21/21 16:11:00
; FORMAT={-:-/ absolute / metric / decimal}
; #@! TF.CreationDate,2021-07-21T16:11:00+02:00
; #@! TF.GenerationSoftware,Kicad,Pcbnew,(5.1.10)-1
; #@! TF.FileFunction,Plated,1,2,PTH
FMAT,2
METRIC
T1C0.400
T2C1.000
%
G90
G05
T1
X51.8Y-130.4
X51.8Y-135.4
X59.0Y-126.8
X59.8Y-133.6
X60.0Y-140.8
X60.6Y-125.2
X61.8Y-138.8
X63.0Y-122.2
X64.0Y-140.8
X65.6Y-141.0
X65.8Y-124.0
X65.8Y-131.0
X65.8Y-133.2
X66.8Y-141.8
X68.8Y-136.8
X69.0Y-125.4
X70.2Y-129.2
X71.8Y-141.2
X73.2Y-121.4
X74.2Y-131.4
X74.2Y-137.0
X76.0Y-121.4
X76.0Y-134.6
X77.3Y-128.9
X78.8Y-139.6
X79.2Y-131.8
X80.2Y-119.0
X80.2Y-122.4
X88.0Y-129.0
X88.8Y-136.6
T2
X55.0Y-129.0
X55.0Y-131.54
X55.0Y-134.08
X55.0Y-136.62
X68.0Y-120.0
X70.54Y-120.0
X85.0Y-129.0
X85.0Y-131.54
X85.0Y-134.08
X85.0Y-136.62
T0
M30
