G04 #@! TF.GenerationSoftware,KiCad,Pcbnew,(5.1.10)-1*
G04 #@! TF.CreationDate,2021-07-21T16:10:59+02:00*
G04 #@! TF.ProjectId,rs232-ttl,72733233-322d-4747-946c-2e6b69636164,rev?*
G04 #@! TF.SameCoordinates,Original*
G04 #@! TF.FileFunction,Paste,Top*
G04 #@! TF.FilePolarity,Positive*
%FSLAX46Y46*%
G04 Gerber Fmt 4.6, Leading zero omitted, Abs format (unit mm)*
G04 Created by KiCad (PCBNEW (5.1.10)-1) date 2021-07-21 16:10:59*
%MOMM*%
%LPD*%
G01*
G04 APERTURE LIST*
%ADD10R,1.000000X0.400000*%
%ADD11R,2.000000X1.500000*%
%ADD12R,2.000000X3.800000*%
%ADD13R,1.100000X1.100000*%
%ADD14R,1.000000X1.250000*%
%ADD15R,1.250000X1.000000*%
%ADD16R,0.750000X0.800000*%
%ADD17R,0.800000X0.750000*%
%ADD18R,1.600000X1.000000*%
G04 APERTURE END LIST*
D10*
X66600000Y-134725000D03*
X66600000Y-135375000D03*
X66600000Y-136025000D03*
X66600000Y-136675000D03*
X66600000Y-137325000D03*
X66600000Y-137975000D03*
X66600000Y-138625000D03*
X66600000Y-139275000D03*
X72400000Y-139275000D03*
X72400000Y-138625000D03*
X72400000Y-137975000D03*
X72400000Y-137325000D03*
X72400000Y-136675000D03*
X72400000Y-136025000D03*
X72400000Y-135375000D03*
X72400000Y-134725000D03*
D11*
X72150000Y-129300000D03*
X72150000Y-124700000D03*
X72150000Y-127000000D03*
D12*
X65850000Y-127000000D03*
D13*
X78000000Y-121400000D03*
X78000000Y-118600000D03*
D14*
X72400000Y-132800000D03*
X70400000Y-132800000D03*
D15*
X63000000Y-126000000D03*
X63000000Y-124000000D03*
D16*
X74200000Y-135350000D03*
X74200000Y-133850000D03*
D17*
X67850000Y-140800000D03*
X69350000Y-140800000D03*
X68750000Y-132800000D03*
X67250000Y-132800000D03*
D16*
X64200000Y-137050000D03*
X64200000Y-138550000D03*
X64200000Y-134050000D03*
X64200000Y-135550000D03*
D15*
X74800000Y-127000000D03*
X74800000Y-129000000D03*
D16*
X63000000Y-129750000D03*
X63000000Y-128250000D03*
X75000000Y-123250000D03*
X75000000Y-124750000D03*
D18*
X78000000Y-124000000D03*
X78000000Y-127000000D03*
M02*
