G04 #@! TF.GenerationSoftware,KiCad,Pcbnew,(5.1.10)-1*
G04 #@! TF.CreationDate,2021-07-21T16:10:59+02:00*
G04 #@! TF.ProjectId,rs232-ttl,72733233-322d-4747-946c-2e6b69636164,rev?*
G04 #@! TF.SameCoordinates,Original*
G04 #@! TF.FileFunction,Legend,Top*
G04 #@! TF.FilePolarity,Positive*
%FSLAX46Y46*%
G04 Gerber Fmt 4.6, Leading zero omitted, Abs format (unit mm)*
G04 Created by KiCad (PCBNEW (5.1.10)-1) date 2021-07-21 16:10:59*
%MOMM*%
%LPD*%
G01*
G04 APERTURE LIST*
%ADD10C,0.120000*%
%ADD11C,0.150000*%
%ADD12C,0.200000*%
%ADD13C,0.400000*%
%ADD14C,0.100000*%
%ADD15R,1.000000X0.400000*%
%ADD16R,2.000000X1.500000*%
%ADD17R,2.000000X3.800000*%
%ADD18O,1.700000X1.700000*%
%ADD19R,1.700000X1.700000*%
%ADD20C,3.200000*%
%ADD21R,1.100000X1.100000*%
%ADD22R,1.000000X1.250000*%
%ADD23R,1.250000X1.000000*%
%ADD24R,0.750000X0.800000*%
%ADD25R,0.800000X0.750000*%
%ADD26R,1.600000X1.000000*%
G04 APERTURE END LIST*
D10*
X89800000Y-127600000D02*
X50000000Y-127600000D01*
X50000000Y-138000000D02*
X90000000Y-138000000D01*
X50400000Y-132800000D02*
X90000000Y-132800000D01*
D11*
X79380952Y-115852380D02*
X79380952Y-116566666D01*
X79333333Y-116709523D01*
X79238095Y-116804761D01*
X79095238Y-116852380D01*
X79000000Y-116852380D01*
X80333333Y-116852380D02*
X79857142Y-116852380D01*
X79857142Y-115852380D01*
X81238095Y-116757142D02*
X81190476Y-116804761D01*
X81047619Y-116852380D01*
X80952380Y-116852380D01*
X80809523Y-116804761D01*
X80714285Y-116709523D01*
X80666666Y-116614285D01*
X80619047Y-116423809D01*
X80619047Y-116280952D01*
X80666666Y-116090476D01*
X80714285Y-115995238D01*
X80809523Y-115900000D01*
X80952380Y-115852380D01*
X81047619Y-115852380D01*
X81190476Y-115900000D01*
X81238095Y-115947619D01*
X81952380Y-115852380D02*
X81952380Y-116566666D01*
X81904761Y-116709523D01*
X81809523Y-116804761D01*
X81666666Y-116852380D01*
X81571428Y-116852380D01*
X82904761Y-116852380D02*
X82428571Y-116852380D01*
X82428571Y-115852380D01*
X83809523Y-116757142D02*
X83761904Y-116804761D01*
X83619047Y-116852380D01*
X83523809Y-116852380D01*
X83380952Y-116804761D01*
X83285714Y-116709523D01*
X83238095Y-116614285D01*
X83190476Y-116423809D01*
X83190476Y-116280952D01*
X83238095Y-116090476D01*
X83285714Y-115995238D01*
X83380952Y-115900000D01*
X83523809Y-115852380D01*
X83619047Y-115852380D01*
X83761904Y-115900000D01*
X83809523Y-115947619D01*
X84523809Y-115852380D02*
X84523809Y-116566666D01*
X84476190Y-116709523D01*
X84380952Y-116804761D01*
X84238095Y-116852380D01*
X84142857Y-116852380D01*
X85476190Y-116852380D02*
X85000000Y-116852380D01*
X85000000Y-115852380D01*
X86380952Y-116757142D02*
X86333333Y-116804761D01*
X86190476Y-116852380D01*
X86095238Y-116852380D01*
X85952380Y-116804761D01*
X85857142Y-116709523D01*
X85809523Y-116614285D01*
X85761904Y-116423809D01*
X85761904Y-116280952D01*
X85809523Y-116090476D01*
X85857142Y-115995238D01*
X85952380Y-115900000D01*
X86095238Y-115852380D01*
X86190476Y-115852380D01*
X86333333Y-115900000D01*
X86380952Y-115947619D01*
X87095238Y-115852380D02*
X87095238Y-116566666D01*
X87047619Y-116709523D01*
X86952380Y-116804761D01*
X86809523Y-116852380D01*
X86714285Y-116852380D01*
X88047619Y-116852380D02*
X87571428Y-116852380D01*
X87571428Y-115852380D01*
X88952380Y-116757142D02*
X88904761Y-116804761D01*
X88761904Y-116852380D01*
X88666666Y-116852380D01*
X88523809Y-116804761D01*
X88428571Y-116709523D01*
X88380952Y-116614285D01*
X88333333Y-116423809D01*
X88333333Y-116280952D01*
X88380952Y-116090476D01*
X88428571Y-115995238D01*
X88523809Y-115900000D01*
X88666666Y-115852380D01*
X88761904Y-115852380D01*
X88904761Y-115900000D01*
X88952380Y-115947619D01*
X59500000Y-148004761D02*
X59642857Y-148052380D01*
X59880952Y-148052380D01*
X59976190Y-148004761D01*
X60023809Y-147957142D01*
X60071428Y-147861904D01*
X60071428Y-147766666D01*
X60023809Y-147671428D01*
X59976190Y-147623809D01*
X59880952Y-147576190D01*
X59690476Y-147528571D01*
X59595238Y-147480952D01*
X59547619Y-147433333D01*
X59500000Y-147338095D01*
X59500000Y-147242857D01*
X59547619Y-147147619D01*
X59595238Y-147100000D01*
X59690476Y-147052380D01*
X59928571Y-147052380D01*
X60071428Y-147100000D01*
X60500000Y-148052380D02*
X60500000Y-147052380D01*
X60738095Y-147052380D01*
X60880952Y-147100000D01*
X60976190Y-147195238D01*
X61023809Y-147290476D01*
X61071428Y-147480952D01*
X61071428Y-147623809D01*
X61023809Y-147814285D01*
X60976190Y-147909523D01*
X60880952Y-148004761D01*
X60738095Y-148052380D01*
X60500000Y-148052380D01*
X61833333Y-147528571D02*
X61976190Y-147576190D01*
X62023809Y-147623809D01*
X62071428Y-147719047D01*
X62071428Y-147861904D01*
X62023809Y-147957142D01*
X61976190Y-148004761D01*
X61880952Y-148052380D01*
X61500000Y-148052380D01*
X61500000Y-147052380D01*
X61833333Y-147052380D01*
X61928571Y-147100000D01*
X61976190Y-147147619D01*
X62023809Y-147242857D01*
X62023809Y-147338095D01*
X61976190Y-147433333D01*
X61928571Y-147480952D01*
X61833333Y-147528571D01*
X61500000Y-147528571D01*
X62452380Y-147385714D02*
X63166666Y-147385714D01*
X62738095Y-146957142D02*
X62452380Y-148242857D01*
X63071428Y-147814285D02*
X62357142Y-147814285D01*
X62785714Y-148242857D02*
X63071428Y-146957142D01*
X63690476Y-147052380D02*
X63785714Y-147052380D01*
X63880952Y-147100000D01*
X63928571Y-147147619D01*
X63976190Y-147242857D01*
X64023809Y-147433333D01*
X64023809Y-147671428D01*
X63976190Y-147861904D01*
X63928571Y-147957142D01*
X63880952Y-148004761D01*
X63785714Y-148052380D01*
X63690476Y-148052380D01*
X63595238Y-148004761D01*
X63547619Y-147957142D01*
X63499999Y-147861904D01*
X63452380Y-147671428D01*
X63452380Y-147433333D01*
X63499999Y-147242857D01*
X63547619Y-147147619D01*
X63595238Y-147100000D01*
X63690476Y-147052380D01*
X64357142Y-147052380D02*
X64976190Y-147052380D01*
X64642857Y-147433333D01*
X64785714Y-147433333D01*
X64880952Y-147480952D01*
X64928571Y-147528571D01*
X64976190Y-147623809D01*
X64976190Y-147861904D01*
X64928571Y-147957142D01*
X64880952Y-148004761D01*
X64785714Y-148052380D01*
X64499999Y-148052380D01*
X64404761Y-148004761D01*
X64357142Y-147957142D01*
X65357142Y-147147619D02*
X65404761Y-147100000D01*
X65499999Y-147052380D01*
X65738095Y-147052380D01*
X65833333Y-147100000D01*
X65880952Y-147147619D01*
X65928571Y-147242857D01*
X65928571Y-147338095D01*
X65880952Y-147480952D01*
X65309523Y-148052380D01*
X65928571Y-148052380D01*
X67119047Y-147671428D02*
X67880952Y-147671428D01*
X69071428Y-148004761D02*
X69166666Y-148052380D01*
X69357142Y-148052380D01*
X69452380Y-148004761D01*
X69500000Y-147909523D01*
X69500000Y-147861904D01*
X69452380Y-147766666D01*
X69357142Y-147719047D01*
X69214285Y-147719047D01*
X69119047Y-147671428D01*
X69071428Y-147576190D01*
X69071428Y-147528571D01*
X69119047Y-147433333D01*
X69214285Y-147385714D01*
X69357142Y-147385714D01*
X69452380Y-147433333D01*
X70357142Y-148052380D02*
X70357142Y-147052380D01*
X70357142Y-148004761D02*
X70261904Y-148052380D01*
X70071428Y-148052380D01*
X69976190Y-148004761D01*
X69928571Y-147957142D01*
X69880952Y-147861904D01*
X69880952Y-147576190D01*
X69928571Y-147480952D01*
X69976190Y-147433333D01*
X70071428Y-147385714D01*
X70261904Y-147385714D01*
X70357142Y-147433333D01*
X70833333Y-148052380D02*
X70833333Y-147052380D01*
X70833333Y-147433333D02*
X70928571Y-147385714D01*
X71119047Y-147385714D01*
X71214285Y-147433333D01*
X71261904Y-147480952D01*
X71309523Y-147576190D01*
X71309523Y-147861904D01*
X71261904Y-147957142D01*
X71214285Y-148004761D01*
X71119047Y-148052380D01*
X70928571Y-148052380D01*
X70833333Y-148004761D01*
X71738095Y-147957142D02*
X71785714Y-148004761D01*
X71738095Y-148052380D01*
X71690476Y-148004761D01*
X71738095Y-147957142D01*
X71738095Y-148052380D01*
X72214285Y-147385714D02*
X72214285Y-148242857D01*
X72166666Y-148338095D01*
X72071428Y-148385714D01*
X72023809Y-148385714D01*
X72214285Y-147052380D02*
X72166666Y-147100000D01*
X72214285Y-147147619D01*
X72261904Y-147100000D01*
X72214285Y-147052380D01*
X72214285Y-147147619D01*
X73119047Y-147385714D02*
X73119047Y-148052380D01*
X72690476Y-147385714D02*
X72690476Y-147909523D01*
X72738095Y-148004761D01*
X72833333Y-148052380D01*
X72976190Y-148052380D01*
X73071428Y-148004761D01*
X73119047Y-147957142D01*
X73738095Y-148052380D02*
X73642857Y-148004761D01*
X73595238Y-147909523D01*
X73595238Y-147052380D01*
X74119047Y-148052380D02*
X74119047Y-147385714D01*
X74119047Y-147052380D02*
X74071428Y-147100000D01*
X74119047Y-147147619D01*
X74166666Y-147100000D01*
X74119047Y-147052380D01*
X74119047Y-147147619D01*
X75023809Y-148052380D02*
X75023809Y-147528571D01*
X74976190Y-147433333D01*
X74880952Y-147385714D01*
X74690476Y-147385714D01*
X74595238Y-147433333D01*
X75023809Y-148004761D02*
X74928571Y-148052380D01*
X74690476Y-148052380D01*
X74595238Y-148004761D01*
X74547619Y-147909523D01*
X74547619Y-147814285D01*
X74595238Y-147719047D01*
X74690476Y-147671428D01*
X74928571Y-147671428D01*
X75023809Y-147623809D01*
X75500000Y-147385714D02*
X75500000Y-148052380D01*
X75500000Y-147480952D02*
X75547619Y-147433333D01*
X75642857Y-147385714D01*
X75785714Y-147385714D01*
X75880952Y-147433333D01*
X75928571Y-147528571D01*
X75928571Y-148052380D01*
X76404761Y-147671428D02*
X77166666Y-147671428D01*
X77547619Y-147385714D02*
X77738095Y-148052380D01*
X77928571Y-147576190D01*
X78119047Y-148052380D01*
X78309523Y-147385714D01*
X78690476Y-147957142D02*
X78738095Y-148004761D01*
X78690476Y-148052380D01*
X78642857Y-148004761D01*
X78690476Y-147957142D01*
X78690476Y-148052380D01*
X79595238Y-148052380D02*
X79595238Y-147052380D01*
X79595238Y-148004761D02*
X79500000Y-148052380D01*
X79309523Y-148052380D01*
X79214285Y-148004761D01*
X79166666Y-147957142D01*
X79119047Y-147861904D01*
X79119047Y-147576190D01*
X79166666Y-147480952D01*
X79214285Y-147433333D01*
X79309523Y-147385714D01*
X79500000Y-147385714D01*
X79595238Y-147433333D01*
X80452380Y-148004761D02*
X80357142Y-148052380D01*
X80166666Y-148052380D01*
X80071428Y-148004761D01*
X80023809Y-147909523D01*
X80023809Y-147528571D01*
X80071428Y-147433333D01*
X80166666Y-147385714D01*
X80357142Y-147385714D01*
X80452380Y-147433333D01*
X80500000Y-147528571D01*
X80500000Y-147623809D01*
X80023809Y-147719047D01*
X62733333Y-145052380D02*
X62828571Y-145052380D01*
X62923809Y-145100000D01*
X62971428Y-145147619D01*
X63019047Y-145242857D01*
X63066666Y-145433333D01*
X63066666Y-145671428D01*
X63019047Y-145861904D01*
X62971428Y-145957142D01*
X62923809Y-146004761D01*
X62828571Y-146052380D01*
X62733333Y-146052380D01*
X62638095Y-146004761D01*
X62590476Y-145957142D01*
X62542857Y-145861904D01*
X62495238Y-145671428D01*
X62495238Y-145433333D01*
X62542857Y-145242857D01*
X62590476Y-145147619D01*
X62638095Y-145100000D01*
X62733333Y-145052380D01*
X63400000Y-145052380D02*
X64066666Y-145052380D01*
X63638095Y-146052380D01*
X64447619Y-145957142D02*
X64495238Y-146004761D01*
X64447619Y-146052380D01*
X64400000Y-146004761D01*
X64447619Y-145957142D01*
X64447619Y-146052380D01*
X64876190Y-145147619D02*
X64923809Y-145100000D01*
X65019047Y-145052380D01*
X65257142Y-145052380D01*
X65352380Y-145100000D01*
X65400000Y-145147619D01*
X65447619Y-145242857D01*
X65447619Y-145338095D01*
X65400000Y-145480952D01*
X64828571Y-146052380D01*
X65447619Y-146052380D01*
X66400000Y-146052380D02*
X65828571Y-146052380D01*
X66114285Y-146052380D02*
X66114285Y-145052380D01*
X66019047Y-145195238D01*
X65923809Y-145290476D01*
X65828571Y-145338095D01*
X67590476Y-146052380D02*
X67590476Y-145052380D01*
X67590476Y-145433333D02*
X67685714Y-145385714D01*
X67876190Y-145385714D01*
X67971428Y-145433333D01*
X68019047Y-145480952D01*
X68066666Y-145576190D01*
X68066666Y-145861904D01*
X68019047Y-145957142D01*
X67971428Y-146004761D01*
X67876190Y-146052380D01*
X67685714Y-146052380D01*
X67590476Y-146004761D01*
X68400000Y-145385714D02*
X68638095Y-146052380D01*
X68876190Y-145385714D02*
X68638095Y-146052380D01*
X68542857Y-146290476D01*
X68495238Y-146338095D01*
X68400000Y-146385714D01*
X70019047Y-145385714D02*
X70019047Y-146242857D01*
X69971428Y-146338095D01*
X69876190Y-146385714D01*
X69828571Y-146385714D01*
X70019047Y-145052380D02*
X69971428Y-145100000D01*
X70019047Y-145147619D01*
X70066666Y-145100000D01*
X70019047Y-145052380D01*
X70019047Y-145147619D01*
X70923809Y-145385714D02*
X70923809Y-146052380D01*
X70495238Y-145385714D02*
X70495238Y-145909523D01*
X70542857Y-146004761D01*
X70638095Y-146052380D01*
X70780952Y-146052380D01*
X70876190Y-146004761D01*
X70923809Y-145957142D01*
X71542857Y-146052380D02*
X71447619Y-146004761D01*
X71400000Y-145909523D01*
X71400000Y-145052380D01*
X71923809Y-146052380D02*
X71923809Y-145385714D01*
X71923809Y-145052380D02*
X71876190Y-145100000D01*
X71923809Y-145147619D01*
X71971428Y-145100000D01*
X71923809Y-145052380D01*
X71923809Y-145147619D01*
X72828571Y-146052380D02*
X72828571Y-145528571D01*
X72780952Y-145433333D01*
X72685714Y-145385714D01*
X72495238Y-145385714D01*
X72400000Y-145433333D01*
X72828571Y-146004761D02*
X72733333Y-146052380D01*
X72495238Y-146052380D01*
X72400000Y-146004761D01*
X72352380Y-145909523D01*
X72352380Y-145814285D01*
X72400000Y-145719047D01*
X72495238Y-145671428D01*
X72733333Y-145671428D01*
X72828571Y-145623809D01*
X73304761Y-145385714D02*
X73304761Y-146052380D01*
X73304761Y-145480952D02*
X73352380Y-145433333D01*
X73447619Y-145385714D01*
X73590476Y-145385714D01*
X73685714Y-145433333D01*
X73733333Y-145528571D01*
X73733333Y-146052380D01*
X74209523Y-145671428D02*
X74971428Y-145671428D01*
X75352380Y-145385714D02*
X75542857Y-146052380D01*
X75733333Y-145576190D01*
X75923809Y-146052380D01*
X76114285Y-145385714D01*
X76495238Y-145957142D02*
X76542857Y-146004761D01*
X76495238Y-146052380D01*
X76447619Y-146004761D01*
X76495238Y-145957142D01*
X76495238Y-146052380D01*
X77400000Y-146052380D02*
X77400000Y-145052380D01*
X77400000Y-146004761D02*
X77304761Y-146052380D01*
X77114285Y-146052380D01*
X77019047Y-146004761D01*
X76971428Y-145957142D01*
X76923809Y-145861904D01*
X76923809Y-145576190D01*
X76971428Y-145480952D01*
X77019047Y-145433333D01*
X77114285Y-145385714D01*
X77304761Y-145385714D01*
X77400000Y-145433333D01*
X78257142Y-146004761D02*
X78161904Y-146052380D01*
X77971428Y-146052380D01*
X77876190Y-146004761D01*
X77828571Y-145909523D01*
X77828571Y-145528571D01*
X77876190Y-145433333D01*
X77971428Y-145385714D01*
X78161904Y-145385714D01*
X78257142Y-145433333D01*
X78304761Y-145528571D01*
X78304761Y-145623809D01*
X77828571Y-145719047D01*
D12*
X61285714Y-144142857D02*
X60885714Y-143571428D01*
X60600000Y-144142857D02*
X60600000Y-142942857D01*
X61057142Y-142942857D01*
X61171428Y-143000000D01*
X61228571Y-143057142D01*
X61285714Y-143171428D01*
X61285714Y-143342857D01*
X61228571Y-143457142D01*
X61171428Y-143514285D01*
X61057142Y-143571428D01*
X60600000Y-143571428D01*
X61742857Y-144085714D02*
X61914285Y-144142857D01*
X62200000Y-144142857D01*
X62314285Y-144085714D01*
X62371428Y-144028571D01*
X62428571Y-143914285D01*
X62428571Y-143800000D01*
X62371428Y-143685714D01*
X62314285Y-143628571D01*
X62200000Y-143571428D01*
X61971428Y-143514285D01*
X61857142Y-143457142D01*
X61800000Y-143400000D01*
X61742857Y-143285714D01*
X61742857Y-143171428D01*
X61800000Y-143057142D01*
X61857142Y-143000000D01*
X61971428Y-142942857D01*
X62257142Y-142942857D01*
X62428571Y-143000000D01*
X62885714Y-143057142D02*
X62942857Y-143000000D01*
X63057142Y-142942857D01*
X63342857Y-142942857D01*
X63457142Y-143000000D01*
X63514285Y-143057142D01*
X63571428Y-143171428D01*
X63571428Y-143285714D01*
X63514285Y-143457142D01*
X62828571Y-144142857D01*
X63571428Y-144142857D01*
X63971428Y-142942857D02*
X64714285Y-142942857D01*
X64314285Y-143400000D01*
X64485714Y-143400000D01*
X64600000Y-143457142D01*
X64657142Y-143514285D01*
X64714285Y-143628571D01*
X64714285Y-143914285D01*
X64657142Y-144028571D01*
X64600000Y-144085714D01*
X64485714Y-144142857D01*
X64142857Y-144142857D01*
X64028571Y-144085714D01*
X63971428Y-144028571D01*
X65171428Y-143057142D02*
X65228571Y-143000000D01*
X65342857Y-142942857D01*
X65628571Y-142942857D01*
X65742857Y-143000000D01*
X65800000Y-143057142D01*
X65857142Y-143171428D01*
X65857142Y-143285714D01*
X65800000Y-143457142D01*
X65114285Y-144142857D01*
X65857142Y-144142857D01*
X67285714Y-144142857D02*
X67285714Y-142942857D01*
X67742857Y-142942857D01*
X67857142Y-143000000D01*
X67914285Y-143057142D01*
X67971428Y-143171428D01*
X67971428Y-143342857D01*
X67914285Y-143457142D01*
X67857142Y-143514285D01*
X67742857Y-143571428D01*
X67285714Y-143571428D01*
X68942857Y-144085714D02*
X68828571Y-144142857D01*
X68600000Y-144142857D01*
X68485714Y-144085714D01*
X68428571Y-143971428D01*
X68428571Y-143514285D01*
X68485714Y-143400000D01*
X68600000Y-143342857D01*
X68828571Y-143342857D01*
X68942857Y-143400000D01*
X69000000Y-143514285D01*
X69000000Y-143628571D01*
X68428571Y-143742857D01*
X70028571Y-143342857D02*
X70028571Y-144314285D01*
X69971428Y-144428571D01*
X69914285Y-144485714D01*
X69800000Y-144542857D01*
X69628571Y-144542857D01*
X69514285Y-144485714D01*
X70028571Y-144085714D02*
X69914285Y-144142857D01*
X69685714Y-144142857D01*
X69571428Y-144085714D01*
X69514285Y-144028571D01*
X69457142Y-143914285D01*
X69457142Y-143571428D01*
X69514285Y-143457142D01*
X69571428Y-143400000D01*
X69685714Y-143342857D01*
X69914285Y-143342857D01*
X70028571Y-143400000D01*
X71057142Y-144085714D02*
X70942857Y-144142857D01*
X70714285Y-144142857D01*
X70600000Y-144085714D01*
X70542857Y-143971428D01*
X70542857Y-143514285D01*
X70600000Y-143400000D01*
X70714285Y-143342857D01*
X70942857Y-143342857D01*
X71057142Y-143400000D01*
X71114285Y-143514285D01*
X71114285Y-143628571D01*
X70542857Y-143742857D01*
X71800000Y-144142857D02*
X71685714Y-144085714D01*
X71628571Y-143971428D01*
X71628571Y-142942857D01*
X72257142Y-143685714D02*
X73171428Y-143685714D01*
X73628571Y-142942857D02*
X73914285Y-144142857D01*
X74142857Y-143285714D01*
X74371428Y-144142857D01*
X74657142Y-142942857D01*
X75628571Y-144142857D02*
X75628571Y-143514285D01*
X75571428Y-143400000D01*
X75457142Y-143342857D01*
X75228571Y-143342857D01*
X75114285Y-143400000D01*
X75628571Y-144085714D02*
X75514285Y-144142857D01*
X75228571Y-144142857D01*
X75114285Y-144085714D01*
X75057142Y-143971428D01*
X75057142Y-143857142D01*
X75114285Y-143742857D01*
X75228571Y-143685714D01*
X75514285Y-143685714D01*
X75628571Y-143628571D01*
X76200000Y-143342857D02*
X76200000Y-144142857D01*
X76200000Y-143457142D02*
X76257142Y-143400000D01*
X76371428Y-143342857D01*
X76542857Y-143342857D01*
X76657142Y-143400000D01*
X76714285Y-143514285D01*
X76714285Y-144142857D01*
X77800000Y-144142857D02*
X77800000Y-142942857D01*
X77800000Y-144085714D02*
X77685714Y-144142857D01*
X77457142Y-144142857D01*
X77342857Y-144085714D01*
X77285714Y-144028571D01*
X77228571Y-143914285D01*
X77228571Y-143571428D01*
X77285714Y-143457142D01*
X77342857Y-143400000D01*
X77457142Y-143342857D01*
X77685714Y-143342857D01*
X77800000Y-143400000D01*
X78542857Y-144142857D02*
X78428571Y-144085714D01*
X78371428Y-143971428D01*
X78371428Y-142942857D01*
X79457142Y-144085714D02*
X79342857Y-144142857D01*
X79114285Y-144142857D01*
X79000000Y-144085714D01*
X78942857Y-143971428D01*
X78942857Y-143514285D01*
X79000000Y-143400000D01*
X79114285Y-143342857D01*
X79342857Y-143342857D01*
X79457142Y-143400000D01*
X79514285Y-143514285D01*
X79514285Y-143628571D01*
X78942857Y-143742857D01*
X80028571Y-144142857D02*
X80028571Y-143342857D01*
X80028571Y-143571428D02*
X80085714Y-143457142D01*
X80142857Y-143400000D01*
X80257142Y-143342857D01*
X80371428Y-143342857D01*
X65742857Y-120742857D02*
X65742857Y-121428571D01*
X65742857Y-121085714D02*
X64542857Y-121085714D01*
X64714285Y-121200000D01*
X64828571Y-121314285D01*
X64885714Y-121428571D01*
X64657142Y-120285714D02*
X64600000Y-120228571D01*
X64542857Y-120114285D01*
X64542857Y-119828571D01*
X64600000Y-119714285D01*
X64657142Y-119657142D01*
X64771428Y-119600000D01*
X64885714Y-119600000D01*
X65057142Y-119657142D01*
X65742857Y-120342857D01*
X65742857Y-119600000D01*
X64542857Y-119257142D02*
X65742857Y-118857142D01*
X64542857Y-118457142D01*
D13*
X69838095Y-117142857D02*
X71361904Y-117142857D01*
X70600000Y-117904761D02*
X70600000Y-116380952D01*
X67238095Y-117142857D02*
X68761904Y-117142857D01*
D14*
G36*
X82000000Y-135400000D02*
G01*
X78000000Y-137400000D01*
X78000000Y-133400000D01*
X82000000Y-135400000D01*
G37*
X82000000Y-135400000D02*
X78000000Y-137400000D01*
X78000000Y-133400000D01*
X82000000Y-135400000D01*
G36*
X62000000Y-135400000D02*
G01*
X58000000Y-137400000D01*
X58000000Y-133400000D01*
X62000000Y-135400000D01*
G37*
X62000000Y-135400000D02*
X58000000Y-137400000D01*
X58000000Y-133400000D01*
X62000000Y-135400000D01*
G36*
X62000000Y-132200000D02*
G01*
X58000000Y-130200000D01*
X62000000Y-128200000D01*
X62000000Y-132200000D01*
G37*
X62000000Y-132200000D02*
X58000000Y-130200000D01*
X62000000Y-128200000D01*
X62000000Y-132200000D01*
G36*
X82000000Y-132200000D02*
G01*
X78000000Y-130200000D01*
X82000000Y-128200000D01*
X82000000Y-132200000D01*
G37*
X82000000Y-132200000D02*
X78000000Y-130200000D01*
X82000000Y-128200000D01*
X82000000Y-132200000D01*
D12*
X79540476Y-124488095D02*
X80283333Y-124488095D01*
X79911904Y-125788095D02*
X79911904Y-124488095D01*
X80530952Y-124488095D02*
X81273809Y-124488095D01*
X80902380Y-125788095D02*
X80902380Y-124488095D01*
X82326190Y-125788095D02*
X81707142Y-125788095D01*
X81707142Y-124488095D01*
X84121428Y-126283333D02*
X84059523Y-126221428D01*
X83935714Y-126035714D01*
X83873809Y-125911904D01*
X83811904Y-125726190D01*
X83750000Y-125416666D01*
X83750000Y-125169047D01*
X83811904Y-124859523D01*
X83873809Y-124673809D01*
X83935714Y-124550000D01*
X84059523Y-124364285D01*
X84121428Y-124302380D01*
X84492857Y-124488095D02*
X85297619Y-124488095D01*
X84864285Y-124983333D01*
X85050000Y-124983333D01*
X85173809Y-125045238D01*
X85235714Y-125107142D01*
X85297619Y-125230952D01*
X85297619Y-125540476D01*
X85235714Y-125664285D01*
X85173809Y-125726190D01*
X85050000Y-125788095D01*
X84678571Y-125788095D01*
X84554761Y-125726190D01*
X84492857Y-125664285D01*
X85854761Y-125664285D02*
X85916666Y-125726190D01*
X85854761Y-125788095D01*
X85792857Y-125726190D01*
X85854761Y-125664285D01*
X85854761Y-125788095D01*
X86350000Y-124488095D02*
X87154761Y-124488095D01*
X86721428Y-124983333D01*
X86907142Y-124983333D01*
X87030952Y-125045238D01*
X87092857Y-125107142D01*
X87154761Y-125230952D01*
X87154761Y-125540476D01*
X87092857Y-125664285D01*
X87030952Y-125726190D01*
X86907142Y-125788095D01*
X86535714Y-125788095D01*
X86411904Y-125726190D01*
X86350000Y-125664285D01*
X87526190Y-124488095D02*
X87959523Y-125788095D01*
X88392857Y-124488095D01*
X88702380Y-126283333D02*
X88764285Y-126221428D01*
X88888095Y-126035714D01*
X88950000Y-125911904D01*
X89011904Y-125726190D01*
X89073809Y-125416666D01*
X89073809Y-125169047D01*
X89011904Y-124859523D01*
X88950000Y-124673809D01*
X88888095Y-124550000D01*
X88764285Y-124364285D01*
X88702380Y-124302380D01*
X52926190Y-126188095D02*
X52492857Y-125569047D01*
X52183333Y-126188095D02*
X52183333Y-124888095D01*
X52678571Y-124888095D01*
X52802380Y-124950000D01*
X52864285Y-125011904D01*
X52926190Y-125135714D01*
X52926190Y-125321428D01*
X52864285Y-125445238D01*
X52802380Y-125507142D01*
X52678571Y-125569047D01*
X52183333Y-125569047D01*
X53421428Y-126126190D02*
X53607142Y-126188095D01*
X53916666Y-126188095D01*
X54040476Y-126126190D01*
X54102380Y-126064285D01*
X54164285Y-125940476D01*
X54164285Y-125816666D01*
X54102380Y-125692857D01*
X54040476Y-125630952D01*
X53916666Y-125569047D01*
X53669047Y-125507142D01*
X53545238Y-125445238D01*
X53483333Y-125383333D01*
X53421428Y-125259523D01*
X53421428Y-125135714D01*
X53483333Y-125011904D01*
X53545238Y-124950000D01*
X53669047Y-124888095D01*
X53978571Y-124888095D01*
X54164285Y-124950000D01*
X54659523Y-125011904D02*
X54721428Y-124950000D01*
X54845238Y-124888095D01*
X55154761Y-124888095D01*
X55278571Y-124950000D01*
X55340476Y-125011904D01*
X55402380Y-125135714D01*
X55402380Y-125259523D01*
X55340476Y-125445238D01*
X54597619Y-126188095D01*
X55402380Y-126188095D01*
X55835714Y-124888095D02*
X56640476Y-124888095D01*
X56207142Y-125383333D01*
X56392857Y-125383333D01*
X56516666Y-125445238D01*
X56578571Y-125507142D01*
X56640476Y-125630952D01*
X56640476Y-125940476D01*
X56578571Y-126064285D01*
X56516666Y-126126190D01*
X56392857Y-126188095D01*
X56021428Y-126188095D01*
X55897619Y-126126190D01*
X55835714Y-126064285D01*
X57135714Y-125011904D02*
X57197619Y-124950000D01*
X57321428Y-124888095D01*
X57630952Y-124888095D01*
X57754761Y-124950000D01*
X57816666Y-125011904D01*
X57878571Y-125135714D01*
X57878571Y-125259523D01*
X57816666Y-125445238D01*
X57073809Y-126188095D01*
X57878571Y-126188095D01*
D11*
X67175000Y-139725000D02*
X71825000Y-139725000D01*
X66100000Y-134200000D02*
X71800000Y-134200000D01*
X67175000Y-139725000D02*
X67175000Y-139700000D01*
X71825000Y-139725000D02*
X71825000Y-139700000D01*
X71800000Y-134200000D02*
X71800000Y-134300000D01*
D10*
X67090000Y-123590000D02*
X67090000Y-124850000D01*
X67090000Y-130410000D02*
X67090000Y-129150000D01*
X70850000Y-123590000D02*
X67090000Y-123590000D01*
X73100000Y-130410000D02*
X67090000Y-130410000D01*
X53670000Y-137950000D02*
X56330000Y-137950000D01*
X53670000Y-130270000D02*
X53670000Y-137950000D01*
X56330000Y-130270000D02*
X56330000Y-137950000D01*
X53670000Y-130270000D02*
X56330000Y-130270000D01*
X53670000Y-129000000D02*
X53670000Y-127670000D01*
X53670000Y-127670000D02*
X55000000Y-127670000D01*
X83670000Y-137950000D02*
X86330000Y-137950000D01*
X83670000Y-130270000D02*
X83670000Y-137950000D01*
X86330000Y-130270000D02*
X86330000Y-137950000D01*
X83670000Y-130270000D02*
X86330000Y-130270000D01*
X83670000Y-129000000D02*
X83670000Y-127670000D01*
X83670000Y-127670000D02*
X85000000Y-127670000D01*
X71870000Y-121330000D02*
X71870000Y-118670000D01*
X69270000Y-121330000D02*
X71870000Y-121330000D01*
X69270000Y-118670000D02*
X71870000Y-118670000D01*
X69270000Y-121330000D02*
X69270000Y-118670000D01*
X68000000Y-121330000D02*
X66670000Y-121330000D01*
X66670000Y-121330000D02*
X66670000Y-120000000D01*
X77000000Y-122200000D02*
X77000000Y-118350000D01*
X79000000Y-122200000D02*
X79000000Y-118350000D01*
X77000000Y-122200000D02*
X79000000Y-122200000D01*
X71900000Y-131950000D02*
X70900000Y-131950000D01*
X70900000Y-133650000D02*
X71900000Y-133650000D01*
X63850000Y-125500000D02*
X63850000Y-124500000D01*
X62150000Y-124500000D02*
X62150000Y-125500000D01*
X74800000Y-134250000D02*
X74800000Y-134950000D01*
X73600000Y-134950000D02*
X73600000Y-134250000D01*
X68950000Y-141400000D02*
X68250000Y-141400000D01*
X68250000Y-140200000D02*
X68950000Y-140200000D01*
X67650000Y-132200000D02*
X68350000Y-132200000D01*
X68350000Y-133400000D02*
X67650000Y-133400000D01*
X63600000Y-138150000D02*
X63600000Y-137450000D01*
X64800000Y-137450000D02*
X64800000Y-138150000D01*
X63600000Y-135150000D02*
X63600000Y-134450000D01*
X64800000Y-134450000D02*
X64800000Y-135150000D01*
X73950000Y-127500000D02*
X73950000Y-128500000D01*
X75650000Y-128500000D02*
X75650000Y-127500000D01*
X63600000Y-128650000D02*
X63600000Y-129350000D01*
X62400000Y-129350000D02*
X62400000Y-128650000D01*
X74400000Y-124350000D02*
X74400000Y-123650000D01*
X75600000Y-123650000D02*
X75600000Y-124350000D01*
X76980000Y-124500000D02*
X76980000Y-126500000D01*
X79020000Y-126500000D02*
X79020000Y-124500000D01*
%LPC*%
D15*
X66600000Y-134725000D03*
X66600000Y-135375000D03*
X66600000Y-136025000D03*
X66600000Y-136675000D03*
X66600000Y-137325000D03*
X66600000Y-137975000D03*
X66600000Y-138625000D03*
X66600000Y-139275000D03*
X72400000Y-139275000D03*
X72400000Y-138625000D03*
X72400000Y-137975000D03*
X72400000Y-137325000D03*
X72400000Y-136675000D03*
X72400000Y-136025000D03*
X72400000Y-135375000D03*
X72400000Y-134725000D03*
D16*
X72150000Y-129300000D03*
X72150000Y-124700000D03*
X72150000Y-127000000D03*
D17*
X65850000Y-127000000D03*
D18*
X55000000Y-136620000D03*
X55000000Y-134080000D03*
X55000000Y-131540000D03*
D19*
X55000000Y-129000000D03*
D18*
X85000000Y-136620000D03*
X85000000Y-134080000D03*
X85000000Y-131540000D03*
D19*
X85000000Y-129000000D03*
D18*
X70540000Y-120000000D03*
D19*
X68000000Y-120000000D03*
D20*
X85000000Y-120000000D03*
X55000000Y-145000000D03*
X85000000Y-145000000D03*
X55000000Y-120000000D03*
D21*
X78000000Y-121400000D03*
X78000000Y-118600000D03*
D22*
X72400000Y-132800000D03*
X70400000Y-132800000D03*
D23*
X63000000Y-126000000D03*
X63000000Y-124000000D03*
D24*
X74200000Y-135350000D03*
X74200000Y-133850000D03*
D25*
X67850000Y-140800000D03*
X69350000Y-140800000D03*
X68750000Y-132800000D03*
X67250000Y-132800000D03*
D24*
X64200000Y-137050000D03*
X64200000Y-138550000D03*
X64200000Y-134050000D03*
X64200000Y-135550000D03*
D23*
X74800000Y-127000000D03*
X74800000Y-129000000D03*
D24*
X63000000Y-129750000D03*
X63000000Y-128250000D03*
X75000000Y-123250000D03*
X75000000Y-124750000D03*
D26*
X78000000Y-124000000D03*
X78000000Y-127000000D03*
M02*
