G04 #@! TF.GenerationSoftware,KiCad,Pcbnew,(5.1.10)-1*
G04 #@! TF.CreationDate,2021-07-21T16:10:59+02:00*
G04 #@! TF.ProjectId,rs232-ttl,72733233-322d-4747-946c-2e6b69636164,rev?*
G04 #@! TF.SameCoordinates,Original*
G04 #@! TF.FileFunction,Copper,L2,Bot*
G04 #@! TF.FilePolarity,Positive*
%FSLAX46Y46*%
G04 Gerber Fmt 4.6, Leading zero omitted, Abs format (unit mm)*
G04 Created by KiCad (PCBNEW (5.1.10)-1) date 2021-07-21 16:10:59*
%MOMM*%
%LPD*%
G01*
G04 APERTURE LIST*
G04 #@! TA.AperFunction,ComponentPad*
%ADD10O,1.700000X1.700000*%
G04 #@! TD*
G04 #@! TA.AperFunction,ComponentPad*
%ADD11R,1.700000X1.700000*%
G04 #@! TD*
G04 #@! TA.AperFunction,ViaPad*
%ADD12C,0.800000*%
G04 #@! TD*
G04 #@! TA.AperFunction,Conductor*
%ADD13C,0.250000*%
G04 #@! TD*
G04 #@! TA.AperFunction,Conductor*
%ADD14C,0.254000*%
G04 #@! TD*
G04 #@! TA.AperFunction,Conductor*
%ADD15C,0.100000*%
G04 #@! TD*
G04 APERTURE END LIST*
D10*
X55000000Y-136620000D03*
X55000000Y-134080000D03*
X55000000Y-131540000D03*
D11*
X55000000Y-129000000D03*
D10*
X85000000Y-136620000D03*
X85000000Y-134080000D03*
X85000000Y-131540000D03*
D11*
X85000000Y-129000000D03*
D10*
X70540000Y-120000000D03*
D11*
X68000000Y-120000000D03*
D12*
X68800000Y-136800000D03*
X65800000Y-131000000D03*
X74200000Y-131400000D03*
X77300000Y-128900000D03*
X65800000Y-124000000D03*
X69000000Y-125400000D03*
X76000000Y-121400000D03*
X76000000Y-134600000D03*
X66800000Y-141800000D03*
X71800000Y-141200000D03*
X65800000Y-133200000D03*
X70200000Y-129200000D03*
X64000000Y-140800000D03*
X59800000Y-133600000D03*
X61800000Y-138800000D03*
X51800000Y-135400000D03*
X51800000Y-130400000D03*
X88000000Y-129000000D03*
X88800000Y-136600000D03*
X78800000Y-139600000D03*
X79200000Y-131800000D03*
X80200000Y-122400000D03*
X80200000Y-119000000D03*
X73200000Y-121400000D03*
X63000000Y-122200000D03*
X60600000Y-125200000D03*
X59000000Y-126800000D03*
X60000000Y-140800000D03*
X65600000Y-141000000D03*
X74200000Y-137000000D03*
D13*
X61220000Y-136620000D02*
X55000000Y-136620000D01*
X65600000Y-141000000D02*
X61220000Y-136620000D01*
X66200000Y-129000000D02*
X55000000Y-129000000D01*
X74200000Y-137000000D02*
X66200000Y-129000000D01*
D14*
X89340001Y-149340000D02*
X50660000Y-149340000D01*
X50660000Y-144779872D01*
X52765000Y-144779872D01*
X52765000Y-145220128D01*
X52850890Y-145651925D01*
X53019369Y-146058669D01*
X53263962Y-146424729D01*
X53575271Y-146736038D01*
X53941331Y-146980631D01*
X54348075Y-147149110D01*
X54779872Y-147235000D01*
X55220128Y-147235000D01*
X55651925Y-147149110D01*
X56058669Y-146980631D01*
X56424729Y-146736038D01*
X56736038Y-146424729D01*
X56980631Y-146058669D01*
X57149110Y-145651925D01*
X57235000Y-145220128D01*
X57235000Y-144779872D01*
X82765000Y-144779872D01*
X82765000Y-145220128D01*
X82850890Y-145651925D01*
X83019369Y-146058669D01*
X83263962Y-146424729D01*
X83575271Y-146736038D01*
X83941331Y-146980631D01*
X84348075Y-147149110D01*
X84779872Y-147235000D01*
X85220128Y-147235000D01*
X85651925Y-147149110D01*
X86058669Y-146980631D01*
X86424729Y-146736038D01*
X86736038Y-146424729D01*
X86980631Y-146058669D01*
X87149110Y-145651925D01*
X87235000Y-145220128D01*
X87235000Y-144779872D01*
X87149110Y-144348075D01*
X86980631Y-143941331D01*
X86736038Y-143575271D01*
X86424729Y-143263962D01*
X86058669Y-143019369D01*
X85651925Y-142850890D01*
X85220128Y-142765000D01*
X84779872Y-142765000D01*
X84348075Y-142850890D01*
X83941331Y-143019369D01*
X83575271Y-143263962D01*
X83263962Y-143575271D01*
X83019369Y-143941331D01*
X82850890Y-144348075D01*
X82765000Y-144779872D01*
X57235000Y-144779872D01*
X57149110Y-144348075D01*
X56980631Y-143941331D01*
X56736038Y-143575271D01*
X56424729Y-143263962D01*
X56058669Y-143019369D01*
X55651925Y-142850890D01*
X55220128Y-142765000D01*
X54779872Y-142765000D01*
X54348075Y-142850890D01*
X53941331Y-143019369D01*
X53575271Y-143263962D01*
X53263962Y-143575271D01*
X53019369Y-143941331D01*
X52850890Y-144348075D01*
X52765000Y-144779872D01*
X50660000Y-144779872D01*
X50660000Y-128150000D01*
X53511928Y-128150000D01*
X53511928Y-129850000D01*
X53524188Y-129974482D01*
X53560498Y-130094180D01*
X53619463Y-130204494D01*
X53698815Y-130301185D01*
X53795506Y-130380537D01*
X53905820Y-130439502D01*
X53978380Y-130461513D01*
X53846525Y-130593368D01*
X53684010Y-130836589D01*
X53572068Y-131106842D01*
X53515000Y-131393740D01*
X53515000Y-131686260D01*
X53572068Y-131973158D01*
X53684010Y-132243411D01*
X53846525Y-132486632D01*
X54053368Y-132693475D01*
X54227760Y-132810000D01*
X54053368Y-132926525D01*
X53846525Y-133133368D01*
X53684010Y-133376589D01*
X53572068Y-133646842D01*
X53515000Y-133933740D01*
X53515000Y-134226260D01*
X53572068Y-134513158D01*
X53684010Y-134783411D01*
X53846525Y-135026632D01*
X54053368Y-135233475D01*
X54227760Y-135350000D01*
X54053368Y-135466525D01*
X53846525Y-135673368D01*
X53684010Y-135916589D01*
X53572068Y-136186842D01*
X53515000Y-136473740D01*
X53515000Y-136766260D01*
X53572068Y-137053158D01*
X53684010Y-137323411D01*
X53846525Y-137566632D01*
X54053368Y-137773475D01*
X54296589Y-137935990D01*
X54566842Y-138047932D01*
X54853740Y-138105000D01*
X55146260Y-138105000D01*
X55433158Y-138047932D01*
X55703411Y-137935990D01*
X55946632Y-137773475D01*
X56153475Y-137566632D01*
X56278178Y-137380000D01*
X60905199Y-137380000D01*
X64565000Y-141039803D01*
X64565000Y-141101939D01*
X64604774Y-141301898D01*
X64682795Y-141490256D01*
X64796063Y-141659774D01*
X64940226Y-141803937D01*
X65109744Y-141917205D01*
X65298102Y-141995226D01*
X65498061Y-142035000D01*
X65701939Y-142035000D01*
X65901898Y-141995226D01*
X66090256Y-141917205D01*
X66259774Y-141803937D01*
X66403937Y-141659774D01*
X66517205Y-141490256D01*
X66595226Y-141301898D01*
X66635000Y-141101939D01*
X66635000Y-140898061D01*
X66595226Y-140698102D01*
X66517205Y-140509744D01*
X66403937Y-140340226D01*
X66259774Y-140196063D01*
X66090256Y-140082795D01*
X65901898Y-140004774D01*
X65701939Y-139965000D01*
X65639803Y-139965000D01*
X61783804Y-136109003D01*
X61760001Y-136079999D01*
X61644276Y-135985026D01*
X61512247Y-135914454D01*
X61368986Y-135870997D01*
X61257333Y-135860000D01*
X61257322Y-135860000D01*
X61220000Y-135856324D01*
X61182678Y-135860000D01*
X56278178Y-135860000D01*
X56153475Y-135673368D01*
X55946632Y-135466525D01*
X55772240Y-135350000D01*
X55946632Y-135233475D01*
X56153475Y-135026632D01*
X56315990Y-134783411D01*
X56427932Y-134513158D01*
X56485000Y-134226260D01*
X56485000Y-133933740D01*
X56427932Y-133646842D01*
X56315990Y-133376589D01*
X56153475Y-133133368D01*
X55946632Y-132926525D01*
X55772240Y-132810000D01*
X55946632Y-132693475D01*
X56153475Y-132486632D01*
X56315990Y-132243411D01*
X56427932Y-131973158D01*
X56485000Y-131686260D01*
X56485000Y-131393740D01*
X56427932Y-131106842D01*
X56315990Y-130836589D01*
X56153475Y-130593368D01*
X56021620Y-130461513D01*
X56094180Y-130439502D01*
X56204494Y-130380537D01*
X56301185Y-130301185D01*
X56380537Y-130204494D01*
X56439502Y-130094180D01*
X56475812Y-129974482D01*
X56488072Y-129850000D01*
X56488072Y-129760000D01*
X65885199Y-129760000D01*
X73165000Y-137039803D01*
X73165000Y-137101939D01*
X73204774Y-137301898D01*
X73282795Y-137490256D01*
X73396063Y-137659774D01*
X73540226Y-137803937D01*
X73709744Y-137917205D01*
X73898102Y-137995226D01*
X74098061Y-138035000D01*
X74301939Y-138035000D01*
X74501898Y-137995226D01*
X74690256Y-137917205D01*
X74859774Y-137803937D01*
X75003937Y-137659774D01*
X75117205Y-137490256D01*
X75195226Y-137301898D01*
X75235000Y-137101939D01*
X75235000Y-136898061D01*
X75195226Y-136698102D01*
X75117205Y-136509744D01*
X75003937Y-136340226D01*
X74859774Y-136196063D01*
X74690256Y-136082795D01*
X74501898Y-136004774D01*
X74301939Y-135965000D01*
X74239803Y-135965000D01*
X66763804Y-128489003D01*
X66740001Y-128459999D01*
X66624276Y-128365026D01*
X66492247Y-128294454D01*
X66348986Y-128250997D01*
X66237333Y-128240000D01*
X66237322Y-128240000D01*
X66200000Y-128236324D01*
X66162678Y-128240000D01*
X56488072Y-128240000D01*
X56488072Y-128150000D01*
X83511928Y-128150000D01*
X83511928Y-129850000D01*
X83524188Y-129974482D01*
X83560498Y-130094180D01*
X83619463Y-130204494D01*
X83698815Y-130301185D01*
X83795506Y-130380537D01*
X83905820Y-130439502D01*
X83978380Y-130461513D01*
X83846525Y-130593368D01*
X83684010Y-130836589D01*
X83572068Y-131106842D01*
X83515000Y-131393740D01*
X83515000Y-131686260D01*
X83572068Y-131973158D01*
X83684010Y-132243411D01*
X83846525Y-132486632D01*
X84053368Y-132693475D01*
X84227760Y-132810000D01*
X84053368Y-132926525D01*
X83846525Y-133133368D01*
X83684010Y-133376589D01*
X83572068Y-133646842D01*
X83515000Y-133933740D01*
X83515000Y-134226260D01*
X83572068Y-134513158D01*
X83684010Y-134783411D01*
X83846525Y-135026632D01*
X84053368Y-135233475D01*
X84227760Y-135350000D01*
X84053368Y-135466525D01*
X83846525Y-135673368D01*
X83684010Y-135916589D01*
X83572068Y-136186842D01*
X83515000Y-136473740D01*
X83515000Y-136766260D01*
X83572068Y-137053158D01*
X83684010Y-137323411D01*
X83846525Y-137566632D01*
X84053368Y-137773475D01*
X84296589Y-137935990D01*
X84566842Y-138047932D01*
X84853740Y-138105000D01*
X85146260Y-138105000D01*
X85433158Y-138047932D01*
X85703411Y-137935990D01*
X85946632Y-137773475D01*
X86153475Y-137566632D01*
X86315990Y-137323411D01*
X86427932Y-137053158D01*
X86485000Y-136766260D01*
X86485000Y-136473740D01*
X86427932Y-136186842D01*
X86315990Y-135916589D01*
X86153475Y-135673368D01*
X85946632Y-135466525D01*
X85772240Y-135350000D01*
X85946632Y-135233475D01*
X86153475Y-135026632D01*
X86315990Y-134783411D01*
X86427932Y-134513158D01*
X86485000Y-134226260D01*
X86485000Y-133933740D01*
X86427932Y-133646842D01*
X86315990Y-133376589D01*
X86153475Y-133133368D01*
X85946632Y-132926525D01*
X85772240Y-132810000D01*
X85946632Y-132693475D01*
X86153475Y-132486632D01*
X86315990Y-132243411D01*
X86427932Y-131973158D01*
X86485000Y-131686260D01*
X86485000Y-131393740D01*
X86427932Y-131106842D01*
X86315990Y-130836589D01*
X86153475Y-130593368D01*
X86021620Y-130461513D01*
X86094180Y-130439502D01*
X86204494Y-130380537D01*
X86301185Y-130301185D01*
X86380537Y-130204494D01*
X86439502Y-130094180D01*
X86475812Y-129974482D01*
X86488072Y-129850000D01*
X86488072Y-128150000D01*
X86475812Y-128025518D01*
X86439502Y-127905820D01*
X86380537Y-127795506D01*
X86301185Y-127698815D01*
X86204494Y-127619463D01*
X86094180Y-127560498D01*
X85974482Y-127524188D01*
X85850000Y-127511928D01*
X84150000Y-127511928D01*
X84025518Y-127524188D01*
X83905820Y-127560498D01*
X83795506Y-127619463D01*
X83698815Y-127698815D01*
X83619463Y-127795506D01*
X83560498Y-127905820D01*
X83524188Y-128025518D01*
X83511928Y-128150000D01*
X56488072Y-128150000D01*
X56475812Y-128025518D01*
X56439502Y-127905820D01*
X56380537Y-127795506D01*
X56301185Y-127698815D01*
X56204494Y-127619463D01*
X56094180Y-127560498D01*
X55974482Y-127524188D01*
X55850000Y-127511928D01*
X54150000Y-127511928D01*
X54025518Y-127524188D01*
X53905820Y-127560498D01*
X53795506Y-127619463D01*
X53698815Y-127698815D01*
X53619463Y-127795506D01*
X53560498Y-127905820D01*
X53524188Y-128025518D01*
X53511928Y-128150000D01*
X50660000Y-128150000D01*
X50660000Y-119779872D01*
X52765000Y-119779872D01*
X52765000Y-120220128D01*
X52850890Y-120651925D01*
X53019369Y-121058669D01*
X53263962Y-121424729D01*
X53575271Y-121736038D01*
X53941331Y-121980631D01*
X54348075Y-122149110D01*
X54779872Y-122235000D01*
X55220128Y-122235000D01*
X55651925Y-122149110D01*
X56058669Y-121980631D01*
X56424729Y-121736038D01*
X56736038Y-121424729D01*
X56980631Y-121058669D01*
X57067064Y-120850000D01*
X66511928Y-120850000D01*
X66524188Y-120974482D01*
X66560498Y-121094180D01*
X66619463Y-121204494D01*
X66698815Y-121301185D01*
X66795506Y-121380537D01*
X66905820Y-121439502D01*
X67025518Y-121475812D01*
X67150000Y-121488072D01*
X67714250Y-121485000D01*
X67873000Y-121326250D01*
X67873000Y-120127000D01*
X66673750Y-120127000D01*
X66515000Y-120285750D01*
X66511928Y-120850000D01*
X57067064Y-120850000D01*
X57149110Y-120651925D01*
X57235000Y-120220128D01*
X57235000Y-119779872D01*
X57149110Y-119348075D01*
X57067065Y-119150000D01*
X66511928Y-119150000D01*
X66515000Y-119714250D01*
X66673750Y-119873000D01*
X67873000Y-119873000D01*
X67873000Y-118673750D01*
X68127000Y-118673750D01*
X68127000Y-119873000D01*
X68147000Y-119873000D01*
X68147000Y-120127000D01*
X68127000Y-120127000D01*
X68127000Y-121326250D01*
X68285750Y-121485000D01*
X68850000Y-121488072D01*
X68974482Y-121475812D01*
X69094180Y-121439502D01*
X69204494Y-121380537D01*
X69301185Y-121301185D01*
X69380537Y-121204494D01*
X69439502Y-121094180D01*
X69461513Y-121021620D01*
X69593368Y-121153475D01*
X69836589Y-121315990D01*
X70106842Y-121427932D01*
X70393740Y-121485000D01*
X70686260Y-121485000D01*
X70973158Y-121427932D01*
X71243411Y-121315990D01*
X71486632Y-121153475D01*
X71693475Y-120946632D01*
X71855990Y-120703411D01*
X71967932Y-120433158D01*
X72025000Y-120146260D01*
X72025000Y-119853740D01*
X72010307Y-119779872D01*
X82765000Y-119779872D01*
X82765000Y-120220128D01*
X82850890Y-120651925D01*
X83019369Y-121058669D01*
X83263962Y-121424729D01*
X83575271Y-121736038D01*
X83941331Y-121980631D01*
X84348075Y-122149110D01*
X84779872Y-122235000D01*
X85220128Y-122235000D01*
X85651925Y-122149110D01*
X86058669Y-121980631D01*
X86424729Y-121736038D01*
X86736038Y-121424729D01*
X86980631Y-121058669D01*
X87149110Y-120651925D01*
X87235000Y-120220128D01*
X87235000Y-119779872D01*
X87149110Y-119348075D01*
X86980631Y-118941331D01*
X86736038Y-118575271D01*
X86424729Y-118263962D01*
X86058669Y-118019369D01*
X85651925Y-117850890D01*
X85220128Y-117765000D01*
X84779872Y-117765000D01*
X84348075Y-117850890D01*
X83941331Y-118019369D01*
X83575271Y-118263962D01*
X83263962Y-118575271D01*
X83019369Y-118941331D01*
X82850890Y-119348075D01*
X82765000Y-119779872D01*
X72010307Y-119779872D01*
X71967932Y-119566842D01*
X71855990Y-119296589D01*
X71693475Y-119053368D01*
X71486632Y-118846525D01*
X71243411Y-118684010D01*
X70973158Y-118572068D01*
X70686260Y-118515000D01*
X70393740Y-118515000D01*
X70106842Y-118572068D01*
X69836589Y-118684010D01*
X69593368Y-118846525D01*
X69461513Y-118978380D01*
X69439502Y-118905820D01*
X69380537Y-118795506D01*
X69301185Y-118698815D01*
X69204494Y-118619463D01*
X69094180Y-118560498D01*
X68974482Y-118524188D01*
X68850000Y-118511928D01*
X68285750Y-118515000D01*
X68127000Y-118673750D01*
X67873000Y-118673750D01*
X67714250Y-118515000D01*
X67150000Y-118511928D01*
X67025518Y-118524188D01*
X66905820Y-118560498D01*
X66795506Y-118619463D01*
X66698815Y-118698815D01*
X66619463Y-118795506D01*
X66560498Y-118905820D01*
X66524188Y-119025518D01*
X66511928Y-119150000D01*
X57067065Y-119150000D01*
X56980631Y-118941331D01*
X56736038Y-118575271D01*
X56424729Y-118263962D01*
X56058669Y-118019369D01*
X55651925Y-117850890D01*
X55220128Y-117765000D01*
X54779872Y-117765000D01*
X54348075Y-117850890D01*
X53941331Y-118019369D01*
X53575271Y-118263962D01*
X53263962Y-118575271D01*
X53019369Y-118941331D01*
X52850890Y-119348075D01*
X52765000Y-119779872D01*
X50660000Y-119779872D01*
X50660000Y-115660000D01*
X89340000Y-115660000D01*
X89340001Y-149340000D01*
G04 #@! TA.AperFunction,Conductor*
D15*
G36*
X89340001Y-149340000D02*
G01*
X50660000Y-149340000D01*
X50660000Y-144779872D01*
X52765000Y-144779872D01*
X52765000Y-145220128D01*
X52850890Y-145651925D01*
X53019369Y-146058669D01*
X53263962Y-146424729D01*
X53575271Y-146736038D01*
X53941331Y-146980631D01*
X54348075Y-147149110D01*
X54779872Y-147235000D01*
X55220128Y-147235000D01*
X55651925Y-147149110D01*
X56058669Y-146980631D01*
X56424729Y-146736038D01*
X56736038Y-146424729D01*
X56980631Y-146058669D01*
X57149110Y-145651925D01*
X57235000Y-145220128D01*
X57235000Y-144779872D01*
X82765000Y-144779872D01*
X82765000Y-145220128D01*
X82850890Y-145651925D01*
X83019369Y-146058669D01*
X83263962Y-146424729D01*
X83575271Y-146736038D01*
X83941331Y-146980631D01*
X84348075Y-147149110D01*
X84779872Y-147235000D01*
X85220128Y-147235000D01*
X85651925Y-147149110D01*
X86058669Y-146980631D01*
X86424729Y-146736038D01*
X86736038Y-146424729D01*
X86980631Y-146058669D01*
X87149110Y-145651925D01*
X87235000Y-145220128D01*
X87235000Y-144779872D01*
X87149110Y-144348075D01*
X86980631Y-143941331D01*
X86736038Y-143575271D01*
X86424729Y-143263962D01*
X86058669Y-143019369D01*
X85651925Y-142850890D01*
X85220128Y-142765000D01*
X84779872Y-142765000D01*
X84348075Y-142850890D01*
X83941331Y-143019369D01*
X83575271Y-143263962D01*
X83263962Y-143575271D01*
X83019369Y-143941331D01*
X82850890Y-144348075D01*
X82765000Y-144779872D01*
X57235000Y-144779872D01*
X57149110Y-144348075D01*
X56980631Y-143941331D01*
X56736038Y-143575271D01*
X56424729Y-143263962D01*
X56058669Y-143019369D01*
X55651925Y-142850890D01*
X55220128Y-142765000D01*
X54779872Y-142765000D01*
X54348075Y-142850890D01*
X53941331Y-143019369D01*
X53575271Y-143263962D01*
X53263962Y-143575271D01*
X53019369Y-143941331D01*
X52850890Y-144348075D01*
X52765000Y-144779872D01*
X50660000Y-144779872D01*
X50660000Y-128150000D01*
X53511928Y-128150000D01*
X53511928Y-129850000D01*
X53524188Y-129974482D01*
X53560498Y-130094180D01*
X53619463Y-130204494D01*
X53698815Y-130301185D01*
X53795506Y-130380537D01*
X53905820Y-130439502D01*
X53978380Y-130461513D01*
X53846525Y-130593368D01*
X53684010Y-130836589D01*
X53572068Y-131106842D01*
X53515000Y-131393740D01*
X53515000Y-131686260D01*
X53572068Y-131973158D01*
X53684010Y-132243411D01*
X53846525Y-132486632D01*
X54053368Y-132693475D01*
X54227760Y-132810000D01*
X54053368Y-132926525D01*
X53846525Y-133133368D01*
X53684010Y-133376589D01*
X53572068Y-133646842D01*
X53515000Y-133933740D01*
X53515000Y-134226260D01*
X53572068Y-134513158D01*
X53684010Y-134783411D01*
X53846525Y-135026632D01*
X54053368Y-135233475D01*
X54227760Y-135350000D01*
X54053368Y-135466525D01*
X53846525Y-135673368D01*
X53684010Y-135916589D01*
X53572068Y-136186842D01*
X53515000Y-136473740D01*
X53515000Y-136766260D01*
X53572068Y-137053158D01*
X53684010Y-137323411D01*
X53846525Y-137566632D01*
X54053368Y-137773475D01*
X54296589Y-137935990D01*
X54566842Y-138047932D01*
X54853740Y-138105000D01*
X55146260Y-138105000D01*
X55433158Y-138047932D01*
X55703411Y-137935990D01*
X55946632Y-137773475D01*
X56153475Y-137566632D01*
X56278178Y-137380000D01*
X60905199Y-137380000D01*
X64565000Y-141039803D01*
X64565000Y-141101939D01*
X64604774Y-141301898D01*
X64682795Y-141490256D01*
X64796063Y-141659774D01*
X64940226Y-141803937D01*
X65109744Y-141917205D01*
X65298102Y-141995226D01*
X65498061Y-142035000D01*
X65701939Y-142035000D01*
X65901898Y-141995226D01*
X66090256Y-141917205D01*
X66259774Y-141803937D01*
X66403937Y-141659774D01*
X66517205Y-141490256D01*
X66595226Y-141301898D01*
X66635000Y-141101939D01*
X66635000Y-140898061D01*
X66595226Y-140698102D01*
X66517205Y-140509744D01*
X66403937Y-140340226D01*
X66259774Y-140196063D01*
X66090256Y-140082795D01*
X65901898Y-140004774D01*
X65701939Y-139965000D01*
X65639803Y-139965000D01*
X61783804Y-136109003D01*
X61760001Y-136079999D01*
X61644276Y-135985026D01*
X61512247Y-135914454D01*
X61368986Y-135870997D01*
X61257333Y-135860000D01*
X61257322Y-135860000D01*
X61220000Y-135856324D01*
X61182678Y-135860000D01*
X56278178Y-135860000D01*
X56153475Y-135673368D01*
X55946632Y-135466525D01*
X55772240Y-135350000D01*
X55946632Y-135233475D01*
X56153475Y-135026632D01*
X56315990Y-134783411D01*
X56427932Y-134513158D01*
X56485000Y-134226260D01*
X56485000Y-133933740D01*
X56427932Y-133646842D01*
X56315990Y-133376589D01*
X56153475Y-133133368D01*
X55946632Y-132926525D01*
X55772240Y-132810000D01*
X55946632Y-132693475D01*
X56153475Y-132486632D01*
X56315990Y-132243411D01*
X56427932Y-131973158D01*
X56485000Y-131686260D01*
X56485000Y-131393740D01*
X56427932Y-131106842D01*
X56315990Y-130836589D01*
X56153475Y-130593368D01*
X56021620Y-130461513D01*
X56094180Y-130439502D01*
X56204494Y-130380537D01*
X56301185Y-130301185D01*
X56380537Y-130204494D01*
X56439502Y-130094180D01*
X56475812Y-129974482D01*
X56488072Y-129850000D01*
X56488072Y-129760000D01*
X65885199Y-129760000D01*
X73165000Y-137039803D01*
X73165000Y-137101939D01*
X73204774Y-137301898D01*
X73282795Y-137490256D01*
X73396063Y-137659774D01*
X73540226Y-137803937D01*
X73709744Y-137917205D01*
X73898102Y-137995226D01*
X74098061Y-138035000D01*
X74301939Y-138035000D01*
X74501898Y-137995226D01*
X74690256Y-137917205D01*
X74859774Y-137803937D01*
X75003937Y-137659774D01*
X75117205Y-137490256D01*
X75195226Y-137301898D01*
X75235000Y-137101939D01*
X75235000Y-136898061D01*
X75195226Y-136698102D01*
X75117205Y-136509744D01*
X75003937Y-136340226D01*
X74859774Y-136196063D01*
X74690256Y-136082795D01*
X74501898Y-136004774D01*
X74301939Y-135965000D01*
X74239803Y-135965000D01*
X66763804Y-128489003D01*
X66740001Y-128459999D01*
X66624276Y-128365026D01*
X66492247Y-128294454D01*
X66348986Y-128250997D01*
X66237333Y-128240000D01*
X66237322Y-128240000D01*
X66200000Y-128236324D01*
X66162678Y-128240000D01*
X56488072Y-128240000D01*
X56488072Y-128150000D01*
X83511928Y-128150000D01*
X83511928Y-129850000D01*
X83524188Y-129974482D01*
X83560498Y-130094180D01*
X83619463Y-130204494D01*
X83698815Y-130301185D01*
X83795506Y-130380537D01*
X83905820Y-130439502D01*
X83978380Y-130461513D01*
X83846525Y-130593368D01*
X83684010Y-130836589D01*
X83572068Y-131106842D01*
X83515000Y-131393740D01*
X83515000Y-131686260D01*
X83572068Y-131973158D01*
X83684010Y-132243411D01*
X83846525Y-132486632D01*
X84053368Y-132693475D01*
X84227760Y-132810000D01*
X84053368Y-132926525D01*
X83846525Y-133133368D01*
X83684010Y-133376589D01*
X83572068Y-133646842D01*
X83515000Y-133933740D01*
X83515000Y-134226260D01*
X83572068Y-134513158D01*
X83684010Y-134783411D01*
X83846525Y-135026632D01*
X84053368Y-135233475D01*
X84227760Y-135350000D01*
X84053368Y-135466525D01*
X83846525Y-135673368D01*
X83684010Y-135916589D01*
X83572068Y-136186842D01*
X83515000Y-136473740D01*
X83515000Y-136766260D01*
X83572068Y-137053158D01*
X83684010Y-137323411D01*
X83846525Y-137566632D01*
X84053368Y-137773475D01*
X84296589Y-137935990D01*
X84566842Y-138047932D01*
X84853740Y-138105000D01*
X85146260Y-138105000D01*
X85433158Y-138047932D01*
X85703411Y-137935990D01*
X85946632Y-137773475D01*
X86153475Y-137566632D01*
X86315990Y-137323411D01*
X86427932Y-137053158D01*
X86485000Y-136766260D01*
X86485000Y-136473740D01*
X86427932Y-136186842D01*
X86315990Y-135916589D01*
X86153475Y-135673368D01*
X85946632Y-135466525D01*
X85772240Y-135350000D01*
X85946632Y-135233475D01*
X86153475Y-135026632D01*
X86315990Y-134783411D01*
X86427932Y-134513158D01*
X86485000Y-134226260D01*
X86485000Y-133933740D01*
X86427932Y-133646842D01*
X86315990Y-133376589D01*
X86153475Y-133133368D01*
X85946632Y-132926525D01*
X85772240Y-132810000D01*
X85946632Y-132693475D01*
X86153475Y-132486632D01*
X86315990Y-132243411D01*
X86427932Y-131973158D01*
X86485000Y-131686260D01*
X86485000Y-131393740D01*
X86427932Y-131106842D01*
X86315990Y-130836589D01*
X86153475Y-130593368D01*
X86021620Y-130461513D01*
X86094180Y-130439502D01*
X86204494Y-130380537D01*
X86301185Y-130301185D01*
X86380537Y-130204494D01*
X86439502Y-130094180D01*
X86475812Y-129974482D01*
X86488072Y-129850000D01*
X86488072Y-128150000D01*
X86475812Y-128025518D01*
X86439502Y-127905820D01*
X86380537Y-127795506D01*
X86301185Y-127698815D01*
X86204494Y-127619463D01*
X86094180Y-127560498D01*
X85974482Y-127524188D01*
X85850000Y-127511928D01*
X84150000Y-127511928D01*
X84025518Y-127524188D01*
X83905820Y-127560498D01*
X83795506Y-127619463D01*
X83698815Y-127698815D01*
X83619463Y-127795506D01*
X83560498Y-127905820D01*
X83524188Y-128025518D01*
X83511928Y-128150000D01*
X56488072Y-128150000D01*
X56475812Y-128025518D01*
X56439502Y-127905820D01*
X56380537Y-127795506D01*
X56301185Y-127698815D01*
X56204494Y-127619463D01*
X56094180Y-127560498D01*
X55974482Y-127524188D01*
X55850000Y-127511928D01*
X54150000Y-127511928D01*
X54025518Y-127524188D01*
X53905820Y-127560498D01*
X53795506Y-127619463D01*
X53698815Y-127698815D01*
X53619463Y-127795506D01*
X53560498Y-127905820D01*
X53524188Y-128025518D01*
X53511928Y-128150000D01*
X50660000Y-128150000D01*
X50660000Y-119779872D01*
X52765000Y-119779872D01*
X52765000Y-120220128D01*
X52850890Y-120651925D01*
X53019369Y-121058669D01*
X53263962Y-121424729D01*
X53575271Y-121736038D01*
X53941331Y-121980631D01*
X54348075Y-122149110D01*
X54779872Y-122235000D01*
X55220128Y-122235000D01*
X55651925Y-122149110D01*
X56058669Y-121980631D01*
X56424729Y-121736038D01*
X56736038Y-121424729D01*
X56980631Y-121058669D01*
X57067064Y-120850000D01*
X66511928Y-120850000D01*
X66524188Y-120974482D01*
X66560498Y-121094180D01*
X66619463Y-121204494D01*
X66698815Y-121301185D01*
X66795506Y-121380537D01*
X66905820Y-121439502D01*
X67025518Y-121475812D01*
X67150000Y-121488072D01*
X67714250Y-121485000D01*
X67873000Y-121326250D01*
X67873000Y-120127000D01*
X66673750Y-120127000D01*
X66515000Y-120285750D01*
X66511928Y-120850000D01*
X57067064Y-120850000D01*
X57149110Y-120651925D01*
X57235000Y-120220128D01*
X57235000Y-119779872D01*
X57149110Y-119348075D01*
X57067065Y-119150000D01*
X66511928Y-119150000D01*
X66515000Y-119714250D01*
X66673750Y-119873000D01*
X67873000Y-119873000D01*
X67873000Y-118673750D01*
X68127000Y-118673750D01*
X68127000Y-119873000D01*
X68147000Y-119873000D01*
X68147000Y-120127000D01*
X68127000Y-120127000D01*
X68127000Y-121326250D01*
X68285750Y-121485000D01*
X68850000Y-121488072D01*
X68974482Y-121475812D01*
X69094180Y-121439502D01*
X69204494Y-121380537D01*
X69301185Y-121301185D01*
X69380537Y-121204494D01*
X69439502Y-121094180D01*
X69461513Y-121021620D01*
X69593368Y-121153475D01*
X69836589Y-121315990D01*
X70106842Y-121427932D01*
X70393740Y-121485000D01*
X70686260Y-121485000D01*
X70973158Y-121427932D01*
X71243411Y-121315990D01*
X71486632Y-121153475D01*
X71693475Y-120946632D01*
X71855990Y-120703411D01*
X71967932Y-120433158D01*
X72025000Y-120146260D01*
X72025000Y-119853740D01*
X72010307Y-119779872D01*
X82765000Y-119779872D01*
X82765000Y-120220128D01*
X82850890Y-120651925D01*
X83019369Y-121058669D01*
X83263962Y-121424729D01*
X83575271Y-121736038D01*
X83941331Y-121980631D01*
X84348075Y-122149110D01*
X84779872Y-122235000D01*
X85220128Y-122235000D01*
X85651925Y-122149110D01*
X86058669Y-121980631D01*
X86424729Y-121736038D01*
X86736038Y-121424729D01*
X86980631Y-121058669D01*
X87149110Y-120651925D01*
X87235000Y-120220128D01*
X87235000Y-119779872D01*
X87149110Y-119348075D01*
X86980631Y-118941331D01*
X86736038Y-118575271D01*
X86424729Y-118263962D01*
X86058669Y-118019369D01*
X85651925Y-117850890D01*
X85220128Y-117765000D01*
X84779872Y-117765000D01*
X84348075Y-117850890D01*
X83941331Y-118019369D01*
X83575271Y-118263962D01*
X83263962Y-118575271D01*
X83019369Y-118941331D01*
X82850890Y-119348075D01*
X82765000Y-119779872D01*
X72010307Y-119779872D01*
X71967932Y-119566842D01*
X71855990Y-119296589D01*
X71693475Y-119053368D01*
X71486632Y-118846525D01*
X71243411Y-118684010D01*
X70973158Y-118572068D01*
X70686260Y-118515000D01*
X70393740Y-118515000D01*
X70106842Y-118572068D01*
X69836589Y-118684010D01*
X69593368Y-118846525D01*
X69461513Y-118978380D01*
X69439502Y-118905820D01*
X69380537Y-118795506D01*
X69301185Y-118698815D01*
X69204494Y-118619463D01*
X69094180Y-118560498D01*
X68974482Y-118524188D01*
X68850000Y-118511928D01*
X68285750Y-118515000D01*
X68127000Y-118673750D01*
X67873000Y-118673750D01*
X67714250Y-118515000D01*
X67150000Y-118511928D01*
X67025518Y-118524188D01*
X66905820Y-118560498D01*
X66795506Y-118619463D01*
X66698815Y-118698815D01*
X66619463Y-118795506D01*
X66560498Y-118905820D01*
X66524188Y-119025518D01*
X66511928Y-119150000D01*
X57067065Y-119150000D01*
X56980631Y-118941331D01*
X56736038Y-118575271D01*
X56424729Y-118263962D01*
X56058669Y-118019369D01*
X55651925Y-117850890D01*
X55220128Y-117765000D01*
X54779872Y-117765000D01*
X54348075Y-117850890D01*
X53941331Y-118019369D01*
X53575271Y-118263962D01*
X53263962Y-118575271D01*
X53019369Y-118941331D01*
X52850890Y-119348075D01*
X52765000Y-119779872D01*
X50660000Y-119779872D01*
X50660000Y-115660000D01*
X89340000Y-115660000D01*
X89340001Y-149340000D01*
G37*
G04 #@! TD.AperFunction*
M02*
