G04 #@! TF.GenerationSoftware,KiCad,Pcbnew,(5.1.10)-1*
G04 #@! TF.CreationDate,2021-07-21T16:10:58+02:00*
G04 #@! TF.ProjectId,rs232-ttl,72733233-322d-4747-946c-2e6b69636164,rev?*
G04 #@! TF.SameCoordinates,Original*
G04 #@! TF.FileFunction,Copper,L1,Top*
G04 #@! TF.FilePolarity,Positive*
%FSLAX46Y46*%
G04 Gerber Fmt 4.6, Leading zero omitted, Abs format (unit mm)*
G04 Created by KiCad (PCBNEW (5.1.10)-1) date 2021-07-21 16:10:58*
%MOMM*%
%LPD*%
G01*
G04 APERTURE LIST*
G04 #@! TA.AperFunction,SMDPad,CuDef*
%ADD10R,1.000000X0.400000*%
G04 #@! TD*
G04 #@! TA.AperFunction,SMDPad,CuDef*
%ADD11R,2.000000X1.500000*%
G04 #@! TD*
G04 #@! TA.AperFunction,SMDPad,CuDef*
%ADD12R,2.000000X3.800000*%
G04 #@! TD*
G04 #@! TA.AperFunction,ComponentPad*
%ADD13O,1.700000X1.700000*%
G04 #@! TD*
G04 #@! TA.AperFunction,ComponentPad*
%ADD14R,1.700000X1.700000*%
G04 #@! TD*
G04 #@! TA.AperFunction,SMDPad,CuDef*
%ADD15R,1.100000X1.100000*%
G04 #@! TD*
G04 #@! TA.AperFunction,SMDPad,CuDef*
%ADD16R,1.000000X1.250000*%
G04 #@! TD*
G04 #@! TA.AperFunction,SMDPad,CuDef*
%ADD17R,1.250000X1.000000*%
G04 #@! TD*
G04 #@! TA.AperFunction,SMDPad,CuDef*
%ADD18R,0.750000X0.800000*%
G04 #@! TD*
G04 #@! TA.AperFunction,SMDPad,CuDef*
%ADD19R,0.800000X0.750000*%
G04 #@! TD*
G04 #@! TA.AperFunction,SMDPad,CuDef*
%ADD20R,1.600000X1.000000*%
G04 #@! TD*
G04 #@! TA.AperFunction,ViaPad*
%ADD21C,0.800000*%
G04 #@! TD*
G04 #@! TA.AperFunction,Conductor*
%ADD22C,0.500000*%
G04 #@! TD*
G04 #@! TA.AperFunction,Conductor*
%ADD23C,0.250000*%
G04 #@! TD*
G04 #@! TA.AperFunction,Conductor*
%ADD24C,0.254000*%
G04 #@! TD*
G04 #@! TA.AperFunction,Conductor*
%ADD25C,0.100000*%
G04 #@! TD*
G04 APERTURE END LIST*
D10*
X66600000Y-134725000D03*
X66600000Y-135375000D03*
X66600000Y-136025000D03*
X66600000Y-136675000D03*
X66600000Y-137325000D03*
X66600000Y-137975000D03*
X66600000Y-138625000D03*
X66600000Y-139275000D03*
X72400000Y-139275000D03*
X72400000Y-138625000D03*
X72400000Y-137975000D03*
X72400000Y-137325000D03*
X72400000Y-136675000D03*
X72400000Y-136025000D03*
X72400000Y-135375000D03*
X72400000Y-134725000D03*
D11*
X72150000Y-129300000D03*
X72150000Y-124700000D03*
X72150000Y-127000000D03*
D12*
X65850000Y-127000000D03*
D13*
X55000000Y-136620000D03*
X55000000Y-134080000D03*
X55000000Y-131540000D03*
D14*
X55000000Y-129000000D03*
D13*
X85000000Y-136620000D03*
X85000000Y-134080000D03*
X85000000Y-131540000D03*
D14*
X85000000Y-129000000D03*
D13*
X70540000Y-120000000D03*
D14*
X68000000Y-120000000D03*
D15*
X78000000Y-121400000D03*
X78000000Y-118600000D03*
D16*
X72400000Y-132800000D03*
X70400000Y-132800000D03*
D17*
X63000000Y-126000000D03*
X63000000Y-124000000D03*
D18*
X74200000Y-135350000D03*
X74200000Y-133850000D03*
D19*
X67850000Y-140800000D03*
X69350000Y-140800000D03*
X68750000Y-132800000D03*
X67250000Y-132800000D03*
D18*
X64200000Y-137050000D03*
X64200000Y-138550000D03*
X64200000Y-134050000D03*
X64200000Y-135550000D03*
D17*
X74800000Y-127000000D03*
X74800000Y-129000000D03*
D18*
X63000000Y-129750000D03*
X63000000Y-128250000D03*
X75000000Y-123250000D03*
X75000000Y-124750000D03*
D20*
X78000000Y-124000000D03*
X78000000Y-127000000D03*
D21*
X68800000Y-136800000D03*
X65800000Y-131000000D03*
X74200000Y-131400000D03*
X77300000Y-128900000D03*
X65800000Y-124000000D03*
X69000000Y-125400000D03*
X76000000Y-121400000D03*
X76000000Y-134600000D03*
X66800000Y-141800000D03*
X71800000Y-141200000D03*
X65800000Y-133200000D03*
X70200000Y-129200000D03*
X64000000Y-140800000D03*
X59800000Y-133600000D03*
X61800000Y-138800000D03*
X51800000Y-135400000D03*
X51800000Y-130400000D03*
X88000000Y-129000000D03*
X88800000Y-136600000D03*
X78800000Y-139600000D03*
X79200000Y-131800000D03*
X80200000Y-122400000D03*
X80200000Y-119000000D03*
X73200000Y-121400000D03*
X63000000Y-122200000D03*
X60600000Y-125200000D03*
X59000000Y-126800000D03*
X60000000Y-140800000D03*
X65600000Y-141000000D03*
X74200000Y-137000000D03*
D22*
X78000000Y-121400000D02*
X78000000Y-124000000D01*
X78000000Y-124000000D02*
X76800000Y-124000000D01*
X76050000Y-124750000D02*
X75000000Y-124750000D01*
X76800000Y-124000000D02*
X76050000Y-124750000D01*
X72200000Y-124750000D02*
X72150000Y-124700000D01*
X75000000Y-124750000D02*
X72200000Y-124750000D01*
X75000000Y-123250000D02*
X69250000Y-123250000D01*
X68000000Y-122000000D02*
X68000000Y-120000000D01*
X72150000Y-129300000D02*
X73500000Y-129300000D01*
X73800000Y-129000000D02*
X74800000Y-129000000D01*
X73500000Y-129300000D02*
X73800000Y-129000000D01*
X74800000Y-129000000D02*
X77200000Y-129000000D01*
X78000000Y-128200000D02*
X78000000Y-127000000D01*
X77200000Y-129000000D02*
X77300000Y-128900000D01*
D23*
X74175000Y-135375000D02*
X74200000Y-135350000D01*
X72400000Y-135375000D02*
X74175000Y-135375000D01*
X72400000Y-135375000D02*
X70975000Y-135375000D01*
X70400000Y-134800000D02*
X70400000Y-132800000D01*
X70975000Y-135375000D02*
X70400000Y-134800000D01*
X69350000Y-135850000D02*
X70400000Y-134800000D01*
X69350000Y-140800000D02*
X69350000Y-135850000D01*
X74200000Y-135350000D02*
X75050000Y-135350000D01*
X75050000Y-135350000D02*
X75400000Y-135000000D01*
X75400000Y-135000000D02*
X75400000Y-132000000D01*
X74800000Y-131400000D02*
X74800000Y-129000000D01*
X75400000Y-132000000D02*
X74800000Y-131400000D01*
X78000000Y-127000000D02*
X79600000Y-127000000D01*
X79600000Y-127000000D02*
X80200000Y-126400000D01*
X80200000Y-126400000D02*
X80200000Y-122400000D01*
X80200000Y-117400000D02*
X79800000Y-117000000D01*
X79800000Y-117000000D02*
X69000000Y-117000000D01*
X68000000Y-118000000D02*
X68000000Y-120000000D01*
X69000000Y-117000000D02*
X68000000Y-118000000D01*
X66800000Y-124000000D02*
X68400000Y-122400000D01*
X63000000Y-124000000D02*
X65800000Y-124000000D01*
D22*
X68400000Y-122400000D02*
X68000000Y-122000000D01*
X69250000Y-123250000D02*
X68400000Y-122400000D01*
D23*
X63000000Y-129750000D02*
X62350000Y-129750000D01*
X62350000Y-129750000D02*
X61200000Y-128600000D01*
X61200000Y-128600000D02*
X61200000Y-124800000D01*
X62000000Y-124000000D02*
X63000000Y-124000000D01*
X61200000Y-124800000D02*
X62000000Y-124000000D01*
D22*
X77300000Y-128900000D02*
X78000000Y-128200000D01*
D23*
X65800000Y-124000000D02*
X66800000Y-124000000D01*
X80200000Y-122400000D02*
X80200000Y-119000000D01*
X80200000Y-119000000D02*
X80200000Y-117400000D01*
D22*
X74800000Y-127000000D02*
X72150000Y-127000000D01*
X69000000Y-127000000D02*
X69000000Y-130600000D01*
X72150000Y-127000000D02*
X69000000Y-127000000D01*
X69000000Y-127000000D02*
X65850000Y-127000000D01*
X69000000Y-130600000D02*
X69800000Y-131400000D01*
X69800000Y-131400000D02*
X72200000Y-131400000D01*
X72400000Y-131600000D02*
X72400000Y-132800000D01*
X72200000Y-131400000D02*
X72400000Y-131600000D01*
X72450000Y-133850000D02*
X72400000Y-133800000D01*
X74200000Y-133850000D02*
X72450000Y-133850000D01*
X72400000Y-133800000D02*
X72400000Y-134725000D01*
X72400000Y-132800000D02*
X72400000Y-133800000D01*
X67250000Y-132800000D02*
X67250000Y-131950000D01*
X68600000Y-130600000D02*
X69000000Y-130600000D01*
X67250000Y-131950000D02*
X68600000Y-130600000D01*
X65850000Y-127000000D02*
X63400000Y-127000000D01*
X63000000Y-126600000D02*
X63000000Y-126000000D01*
X63400000Y-127000000D02*
X63000000Y-126600000D01*
X65850000Y-127000000D02*
X63600000Y-127000000D01*
X63000000Y-127600000D02*
X63000000Y-128250000D01*
X63600000Y-127000000D02*
X63000000Y-127600000D01*
D23*
X64200000Y-134050000D02*
X65050000Y-134050000D01*
X65725000Y-134725000D02*
X66600000Y-134725000D01*
X65050000Y-134050000D02*
X65725000Y-134725000D01*
X66600000Y-136025000D02*
X65625000Y-136025000D01*
X65150000Y-135550000D02*
X64200000Y-135550000D01*
X65625000Y-136025000D02*
X65150000Y-135550000D01*
X64200000Y-137050000D02*
X64950000Y-137050000D01*
X65325000Y-136675000D02*
X66600000Y-136675000D01*
X64950000Y-137050000D02*
X65325000Y-136675000D01*
X64200000Y-138550000D02*
X64650000Y-138550000D01*
X65875000Y-137325000D02*
X66600000Y-137325000D01*
X64650000Y-138550000D02*
X65875000Y-137325000D01*
X66600000Y-135375000D02*
X67825000Y-135375000D01*
X68750000Y-134450000D02*
X68750000Y-132800000D01*
X67825000Y-135375000D02*
X68750000Y-134450000D01*
X67235002Y-137975000D02*
X66600000Y-137975000D01*
X67850000Y-138589998D02*
X67235002Y-137975000D01*
X67850000Y-140800000D02*
X67850000Y-138589998D01*
D22*
X70540000Y-120000000D02*
X75200000Y-120000000D01*
X76600000Y-118600000D02*
X78000000Y-118600000D01*
X75200000Y-120000000D02*
X76600000Y-118600000D01*
D23*
X72400000Y-139275000D02*
X75925000Y-139275000D01*
X78580000Y-136620000D02*
X85000000Y-136620000D01*
X75925000Y-139275000D02*
X78580000Y-136620000D01*
X72400000Y-137325000D02*
X71275000Y-137325000D01*
X71275000Y-137325000D02*
X71200000Y-137400000D01*
X71200000Y-139360002D02*
X72039998Y-140200000D01*
X71200000Y-137400000D02*
X71200000Y-139360002D01*
X72039998Y-140200000D02*
X76400000Y-140200000D01*
X76400000Y-140200000D02*
X78200000Y-138400000D01*
X78200000Y-138400000D02*
X86400000Y-138400000D01*
X86400000Y-138400000D02*
X87400000Y-137400000D01*
X87400000Y-137400000D02*
X87400000Y-134600000D01*
X86880000Y-134080000D02*
X85000000Y-134080000D01*
X87400000Y-134600000D02*
X86880000Y-134080000D01*
X72400000Y-138625000D02*
X75175000Y-138625000D01*
X82260000Y-131540000D02*
X85000000Y-131540000D01*
X75175000Y-138625000D02*
X82260000Y-131540000D01*
X72400000Y-137975000D02*
X74825000Y-137975000D01*
X83800000Y-129000000D02*
X85000000Y-129000000D01*
X74825000Y-137975000D02*
X83800000Y-129000000D01*
X66600000Y-140000000D02*
X65600000Y-141000000D01*
X66600000Y-139275000D02*
X66600000Y-140000000D01*
X72400000Y-136675000D02*
X71125000Y-136675000D01*
X71125000Y-136675000D02*
X70600000Y-137200000D01*
X70600000Y-137200000D02*
X70600000Y-142600000D01*
X70600000Y-142600000D02*
X70400000Y-142800000D01*
X70400000Y-142800000D02*
X64200000Y-142800000D01*
X55480000Y-134080000D02*
X55000000Y-134080000D01*
X64200000Y-142800000D02*
X55480000Y-134080000D01*
X66600000Y-138625000D02*
X65975000Y-138625000D01*
X65975000Y-138625000D02*
X65000000Y-139600000D01*
X65000000Y-139600000D02*
X63600000Y-139600000D01*
X63600000Y-139600000D02*
X63000000Y-139000000D01*
X63000000Y-139000000D02*
X63000000Y-135000000D01*
X59540000Y-131540000D02*
X55000000Y-131540000D01*
X63000000Y-135000000D02*
X59540000Y-131540000D01*
X73225000Y-136025000D02*
X74200000Y-137000000D01*
X72400000Y-136025000D02*
X73225000Y-136025000D01*
D24*
X89340001Y-149340000D02*
X50660000Y-149340000D01*
X50660000Y-144779872D01*
X52765000Y-144779872D01*
X52765000Y-145220128D01*
X52850890Y-145651925D01*
X53019369Y-146058669D01*
X53263962Y-146424729D01*
X53575271Y-146736038D01*
X53941331Y-146980631D01*
X54348075Y-147149110D01*
X54779872Y-147235000D01*
X55220128Y-147235000D01*
X55651925Y-147149110D01*
X56058669Y-146980631D01*
X56424729Y-146736038D01*
X56736038Y-146424729D01*
X56980631Y-146058669D01*
X57149110Y-145651925D01*
X57235000Y-145220128D01*
X57235000Y-144779872D01*
X82765000Y-144779872D01*
X82765000Y-145220128D01*
X82850890Y-145651925D01*
X83019369Y-146058669D01*
X83263962Y-146424729D01*
X83575271Y-146736038D01*
X83941331Y-146980631D01*
X84348075Y-147149110D01*
X84779872Y-147235000D01*
X85220128Y-147235000D01*
X85651925Y-147149110D01*
X86058669Y-146980631D01*
X86424729Y-146736038D01*
X86736038Y-146424729D01*
X86980631Y-146058669D01*
X87149110Y-145651925D01*
X87235000Y-145220128D01*
X87235000Y-144779872D01*
X87149110Y-144348075D01*
X86980631Y-143941331D01*
X86736038Y-143575271D01*
X86424729Y-143263962D01*
X86058669Y-143019369D01*
X85651925Y-142850890D01*
X85220128Y-142765000D01*
X84779872Y-142765000D01*
X84348075Y-142850890D01*
X83941331Y-143019369D01*
X83575271Y-143263962D01*
X83263962Y-143575271D01*
X83019369Y-143941331D01*
X82850890Y-144348075D01*
X82765000Y-144779872D01*
X57235000Y-144779872D01*
X57149110Y-144348075D01*
X56980631Y-143941331D01*
X56736038Y-143575271D01*
X56424729Y-143263962D01*
X56058669Y-143019369D01*
X55651925Y-142850890D01*
X55220128Y-142765000D01*
X54779872Y-142765000D01*
X54348075Y-142850890D01*
X53941331Y-143019369D01*
X53575271Y-143263962D01*
X53263962Y-143575271D01*
X53019369Y-143941331D01*
X52850890Y-144348075D01*
X52765000Y-144779872D01*
X50660000Y-144779872D01*
X50660000Y-128150000D01*
X53511928Y-128150000D01*
X53511928Y-129850000D01*
X53524188Y-129974482D01*
X53560498Y-130094180D01*
X53619463Y-130204494D01*
X53698815Y-130301185D01*
X53795506Y-130380537D01*
X53905820Y-130439502D01*
X53978380Y-130461513D01*
X53846525Y-130593368D01*
X53684010Y-130836589D01*
X53572068Y-131106842D01*
X53515000Y-131393740D01*
X53515000Y-131686260D01*
X53572068Y-131973158D01*
X53684010Y-132243411D01*
X53846525Y-132486632D01*
X54053368Y-132693475D01*
X54227760Y-132810000D01*
X54053368Y-132926525D01*
X53846525Y-133133368D01*
X53684010Y-133376589D01*
X53572068Y-133646842D01*
X53515000Y-133933740D01*
X53515000Y-134226260D01*
X53572068Y-134513158D01*
X53684010Y-134783411D01*
X53846525Y-135026632D01*
X54053368Y-135233475D01*
X54227760Y-135350000D01*
X54053368Y-135466525D01*
X53846525Y-135673368D01*
X53684010Y-135916589D01*
X53572068Y-136186842D01*
X53515000Y-136473740D01*
X53515000Y-136766260D01*
X53572068Y-137053158D01*
X53684010Y-137323411D01*
X53846525Y-137566632D01*
X54053368Y-137773475D01*
X54296589Y-137935990D01*
X54566842Y-138047932D01*
X54853740Y-138105000D01*
X55146260Y-138105000D01*
X55433158Y-138047932D01*
X55703411Y-137935990D01*
X55946632Y-137773475D01*
X56153475Y-137566632D01*
X56315990Y-137323411D01*
X56427932Y-137053158D01*
X56485000Y-136766260D01*
X56485000Y-136473740D01*
X56427932Y-136186842D01*
X56368458Y-136043260D01*
X63636201Y-143311003D01*
X63659999Y-143340001D01*
X63775724Y-143434974D01*
X63907753Y-143505546D01*
X64051014Y-143549003D01*
X64162667Y-143560000D01*
X64162676Y-143560000D01*
X64199999Y-143563676D01*
X64237322Y-143560000D01*
X70362678Y-143560000D01*
X70400000Y-143563676D01*
X70437322Y-143560000D01*
X70437333Y-143560000D01*
X70548986Y-143549003D01*
X70692247Y-143505546D01*
X70824276Y-143434974D01*
X70940001Y-143340001D01*
X70963804Y-143310997D01*
X71110997Y-143163804D01*
X71140001Y-143140001D01*
X71234974Y-143024276D01*
X71305546Y-142892247D01*
X71349003Y-142748986D01*
X71360000Y-142637333D01*
X71360000Y-142637325D01*
X71363676Y-142600000D01*
X71360000Y-142562675D01*
X71360000Y-140594804D01*
X71476199Y-140711003D01*
X71499997Y-140740001D01*
X71528995Y-140763799D01*
X71615722Y-140834974D01*
X71747751Y-140905546D01*
X71891012Y-140949003D01*
X72039998Y-140963677D01*
X72077331Y-140960000D01*
X76362678Y-140960000D01*
X76400000Y-140963676D01*
X76437322Y-140960000D01*
X76437333Y-140960000D01*
X76548986Y-140949003D01*
X76692247Y-140905546D01*
X76824276Y-140834974D01*
X76940001Y-140740001D01*
X76963803Y-140710998D01*
X78514803Y-139160000D01*
X86362678Y-139160000D01*
X86400000Y-139163676D01*
X86437322Y-139160000D01*
X86437333Y-139160000D01*
X86548986Y-139149003D01*
X86692247Y-139105546D01*
X86824276Y-139034974D01*
X86940001Y-138940001D01*
X86963804Y-138910998D01*
X87911004Y-137963798D01*
X87940001Y-137940001D01*
X88034974Y-137824276D01*
X88105546Y-137692247D01*
X88149003Y-137548986D01*
X88160000Y-137437333D01*
X88160000Y-137437332D01*
X88163677Y-137400000D01*
X88160000Y-137362667D01*
X88160000Y-134637322D01*
X88163676Y-134599999D01*
X88160000Y-134562676D01*
X88160000Y-134562667D01*
X88149003Y-134451014D01*
X88105546Y-134307753D01*
X88074676Y-134250000D01*
X88034974Y-134175723D01*
X87966332Y-134092083D01*
X87940001Y-134059999D01*
X87911002Y-134036200D01*
X87443803Y-133569002D01*
X87420001Y-133539999D01*
X87304276Y-133445026D01*
X87172247Y-133374454D01*
X87028986Y-133330997D01*
X86917333Y-133320000D01*
X86917322Y-133320000D01*
X86880000Y-133316324D01*
X86842678Y-133320000D01*
X86278178Y-133320000D01*
X86153475Y-133133368D01*
X85946632Y-132926525D01*
X85772240Y-132810000D01*
X85946632Y-132693475D01*
X86153475Y-132486632D01*
X86315990Y-132243411D01*
X86427932Y-131973158D01*
X86485000Y-131686260D01*
X86485000Y-131393740D01*
X86427932Y-131106842D01*
X86315990Y-130836589D01*
X86153475Y-130593368D01*
X86021620Y-130461513D01*
X86094180Y-130439502D01*
X86204494Y-130380537D01*
X86301185Y-130301185D01*
X86380537Y-130204494D01*
X86439502Y-130094180D01*
X86475812Y-129974482D01*
X86488072Y-129850000D01*
X86488072Y-128150000D01*
X86475812Y-128025518D01*
X86439502Y-127905820D01*
X86380537Y-127795506D01*
X86301185Y-127698815D01*
X86204494Y-127619463D01*
X86094180Y-127560498D01*
X85974482Y-127524188D01*
X85850000Y-127511928D01*
X84150000Y-127511928D01*
X84025518Y-127524188D01*
X83905820Y-127560498D01*
X83795506Y-127619463D01*
X83698815Y-127698815D01*
X83619463Y-127795506D01*
X83560498Y-127905820D01*
X83524188Y-128025518D01*
X83511928Y-128150000D01*
X83511928Y-128293188D01*
X83507753Y-128294454D01*
X83375724Y-128365026D01*
X83259999Y-128459999D01*
X83236201Y-128488997D01*
X75145982Y-136579217D01*
X75117205Y-136509744D01*
X75003937Y-136340226D01*
X74937598Y-136273887D01*
X75026185Y-136201185D01*
X75105537Y-136104494D01*
X75164502Y-135994180D01*
X75200812Y-135874482D01*
X75213072Y-135750000D01*
X75210000Y-135635750D01*
X75051250Y-135477000D01*
X74327000Y-135477000D01*
X74327000Y-135497000D01*
X74073000Y-135497000D01*
X74073000Y-135477000D01*
X74053000Y-135477000D01*
X74053000Y-135223000D01*
X74073000Y-135223000D01*
X74073000Y-135203000D01*
X74327000Y-135203000D01*
X74327000Y-135223000D01*
X75051250Y-135223000D01*
X75210000Y-135064250D01*
X75213072Y-134950000D01*
X75200812Y-134825518D01*
X75164502Y-134705820D01*
X75107939Y-134600000D01*
X75164502Y-134494180D01*
X75200812Y-134374482D01*
X75213072Y-134250000D01*
X75213072Y-133450000D01*
X75200812Y-133325518D01*
X75164502Y-133205820D01*
X75105537Y-133095506D01*
X75026185Y-132998815D01*
X74929494Y-132919463D01*
X74819180Y-132860498D01*
X74699482Y-132824188D01*
X74575000Y-132811928D01*
X73825000Y-132811928D01*
X73700518Y-132824188D01*
X73580820Y-132860498D01*
X73538072Y-132883348D01*
X73538072Y-132175000D01*
X73525812Y-132050518D01*
X73489502Y-131930820D01*
X73430537Y-131820506D01*
X73351185Y-131723815D01*
X73285000Y-131669499D01*
X73285000Y-131643469D01*
X73289281Y-131600000D01*
X73285000Y-131556531D01*
X73285000Y-131556523D01*
X73272195Y-131426510D01*
X73221589Y-131259687D01*
X73139411Y-131105941D01*
X73028817Y-130971183D01*
X72995045Y-130943467D01*
X72856534Y-130804956D01*
X72828817Y-130771183D01*
X72725321Y-130686245D01*
X73150000Y-130688072D01*
X73274482Y-130675812D01*
X73394180Y-130639502D01*
X73504494Y-130580537D01*
X73601185Y-130501185D01*
X73680537Y-130404494D01*
X73739502Y-130294180D01*
X73775812Y-130174482D01*
X73788072Y-130050000D01*
X73787765Y-130003668D01*
X73820506Y-130030537D01*
X73930820Y-130089502D01*
X74050518Y-130125812D01*
X74175000Y-130138072D01*
X74514250Y-130135000D01*
X74673000Y-129976250D01*
X74673000Y-129127000D01*
X74927000Y-129127000D01*
X74927000Y-129976250D01*
X75085750Y-130135000D01*
X75425000Y-130138072D01*
X75549482Y-130125812D01*
X75669180Y-130089502D01*
X75779494Y-130030537D01*
X75876185Y-129951185D01*
X75955537Y-129854494D01*
X76014502Y-129744180D01*
X76050812Y-129624482D01*
X76063072Y-129500000D01*
X76060000Y-129285750D01*
X75901250Y-129127000D01*
X74927000Y-129127000D01*
X74673000Y-129127000D01*
X74653000Y-129127000D01*
X74653000Y-128873000D01*
X74673000Y-128873000D01*
X74673000Y-128853000D01*
X74927000Y-128853000D01*
X74927000Y-128873000D01*
X75901250Y-128873000D01*
X76060000Y-128714250D01*
X76063072Y-128500000D01*
X76050812Y-128375518D01*
X76014502Y-128255820D01*
X75955537Y-128145506D01*
X75876185Y-128048815D01*
X75816704Y-128000000D01*
X75876185Y-127951185D01*
X75955537Y-127854494D01*
X76014502Y-127744180D01*
X76050812Y-127624482D01*
X76063072Y-127500000D01*
X76561928Y-127500000D01*
X76574188Y-127624482D01*
X76610498Y-127744180D01*
X76669463Y-127854494D01*
X76748815Y-127951185D01*
X76845506Y-128030537D01*
X76955820Y-128089502D01*
X77075518Y-128125812D01*
X77200000Y-128138072D01*
X77714250Y-128135000D01*
X77873000Y-127976250D01*
X77873000Y-127127000D01*
X78127000Y-127127000D01*
X78127000Y-127976250D01*
X78285750Y-128135000D01*
X78800000Y-128138072D01*
X78924482Y-128125812D01*
X79044180Y-128089502D01*
X79154494Y-128030537D01*
X79251185Y-127951185D01*
X79330537Y-127854494D01*
X79389502Y-127744180D01*
X79425812Y-127624482D01*
X79438072Y-127500000D01*
X79435000Y-127285750D01*
X79276250Y-127127000D01*
X78127000Y-127127000D01*
X77873000Y-127127000D01*
X76723750Y-127127000D01*
X76565000Y-127285750D01*
X76561928Y-127500000D01*
X76063072Y-127500000D01*
X76063072Y-126500000D01*
X76561928Y-126500000D01*
X76565000Y-126714250D01*
X76723750Y-126873000D01*
X77873000Y-126873000D01*
X77873000Y-126023750D01*
X78127000Y-126023750D01*
X78127000Y-126873000D01*
X79276250Y-126873000D01*
X79435000Y-126714250D01*
X79438072Y-126500000D01*
X79425812Y-126375518D01*
X79389502Y-126255820D01*
X79330537Y-126145506D01*
X79251185Y-126048815D01*
X79154494Y-125969463D01*
X79044180Y-125910498D01*
X78924482Y-125874188D01*
X78800000Y-125861928D01*
X78285750Y-125865000D01*
X78127000Y-126023750D01*
X77873000Y-126023750D01*
X77714250Y-125865000D01*
X77200000Y-125861928D01*
X77075518Y-125874188D01*
X76955820Y-125910498D01*
X76845506Y-125969463D01*
X76748815Y-126048815D01*
X76669463Y-126145506D01*
X76610498Y-126255820D01*
X76574188Y-126375518D01*
X76561928Y-126500000D01*
X76063072Y-126500000D01*
X76050812Y-126375518D01*
X76014502Y-126255820D01*
X75955537Y-126145506D01*
X75876185Y-126048815D01*
X75779494Y-125969463D01*
X75669180Y-125910498D01*
X75549482Y-125874188D01*
X75425000Y-125861928D01*
X74175000Y-125861928D01*
X74050518Y-125874188D01*
X73930820Y-125910498D01*
X73820506Y-125969463D01*
X73746818Y-126029937D01*
X73739502Y-126005820D01*
X73680537Y-125895506D01*
X73643191Y-125850000D01*
X73680537Y-125804494D01*
X73739502Y-125694180D01*
X73757454Y-125635000D01*
X74215019Y-125635000D01*
X74270506Y-125680537D01*
X74380820Y-125739502D01*
X74500518Y-125775812D01*
X74625000Y-125788072D01*
X75375000Y-125788072D01*
X75499482Y-125775812D01*
X75619180Y-125739502D01*
X75729494Y-125680537D01*
X75784981Y-125635000D01*
X76006531Y-125635000D01*
X76050000Y-125639281D01*
X76093469Y-125635000D01*
X76093477Y-125635000D01*
X76223490Y-125622195D01*
X76390313Y-125571589D01*
X76544059Y-125489411D01*
X76678817Y-125378817D01*
X76706534Y-125345044D01*
X76960620Y-125090958D01*
X77075518Y-125125812D01*
X77200000Y-125138072D01*
X78800000Y-125138072D01*
X78924482Y-125125812D01*
X79044180Y-125089502D01*
X79154494Y-125030537D01*
X79251185Y-124951185D01*
X79330537Y-124854494D01*
X79389502Y-124744180D01*
X79425812Y-124624482D01*
X79438072Y-124500000D01*
X79438072Y-123500000D01*
X79425812Y-123375518D01*
X79389502Y-123255820D01*
X79330537Y-123145506D01*
X79251185Y-123048815D01*
X79154494Y-122969463D01*
X79044180Y-122910498D01*
X78924482Y-122874188D01*
X78885000Y-122870299D01*
X78885000Y-122490957D01*
X78904494Y-122480537D01*
X79001185Y-122401185D01*
X79080537Y-122304494D01*
X79139502Y-122194180D01*
X79175812Y-122074482D01*
X79188072Y-121950000D01*
X79188072Y-120850000D01*
X79175812Y-120725518D01*
X79139502Y-120605820D01*
X79080537Y-120495506D01*
X79001185Y-120398815D01*
X78904494Y-120319463D01*
X78794180Y-120260498D01*
X78674482Y-120224188D01*
X78550000Y-120211928D01*
X77450000Y-120211928D01*
X77325518Y-120224188D01*
X77205820Y-120260498D01*
X77095506Y-120319463D01*
X76998815Y-120398815D01*
X76919463Y-120495506D01*
X76860498Y-120605820D01*
X76824188Y-120725518D01*
X76811928Y-120850000D01*
X76811928Y-121950000D01*
X76824188Y-122074482D01*
X76860498Y-122194180D01*
X76919463Y-122304494D01*
X76998815Y-122401185D01*
X77095506Y-122480537D01*
X77115000Y-122490957D01*
X77115001Y-122870299D01*
X77075518Y-122874188D01*
X76955820Y-122910498D01*
X76845506Y-122969463D01*
X76748815Y-123048815D01*
X76689044Y-123121646D01*
X76626510Y-123127805D01*
X76459687Y-123178411D01*
X76305941Y-123260589D01*
X76305939Y-123260590D01*
X76305940Y-123260590D01*
X76204953Y-123343468D01*
X76204951Y-123343470D01*
X76171183Y-123371183D01*
X76143470Y-123404951D01*
X76010070Y-123538351D01*
X76010000Y-123535750D01*
X75851250Y-123377000D01*
X75127000Y-123377000D01*
X75127000Y-123397000D01*
X74873000Y-123397000D01*
X74873000Y-123377000D01*
X74148750Y-123377000D01*
X73990000Y-123535750D01*
X73986928Y-123650000D01*
X73999188Y-123774482D01*
X74026646Y-123865000D01*
X73779701Y-123865000D01*
X73775812Y-123825518D01*
X73739502Y-123705820D01*
X73680537Y-123595506D01*
X73601185Y-123498815D01*
X73504494Y-123419463D01*
X73394180Y-123360498D01*
X73274482Y-123324188D01*
X73150000Y-123311928D01*
X71150000Y-123311928D01*
X71025518Y-123324188D01*
X70905820Y-123360498D01*
X70795506Y-123419463D01*
X70698815Y-123498815D01*
X70619463Y-123595506D01*
X70560498Y-123705820D01*
X70524188Y-123825518D01*
X70511928Y-123950000D01*
X70511928Y-125450000D01*
X70524188Y-125574482D01*
X70560498Y-125694180D01*
X70619463Y-125804494D01*
X70656809Y-125850000D01*
X70619463Y-125895506D01*
X70560498Y-126005820D01*
X70527379Y-126115000D01*
X69043476Y-126115000D01*
X69000000Y-126110718D01*
X68956523Y-126115000D01*
X67488072Y-126115000D01*
X67488072Y-125100000D01*
X67475812Y-124975518D01*
X67439502Y-124855820D01*
X67380537Y-124745506D01*
X67301185Y-124648815D01*
X67204494Y-124569463D01*
X67094180Y-124510498D01*
X66974482Y-124474188D01*
X66850000Y-124461928D01*
X64850000Y-124461928D01*
X64725518Y-124474188D01*
X64605820Y-124510498D01*
X64495506Y-124569463D01*
X64398815Y-124648815D01*
X64319463Y-124745506D01*
X64260498Y-124855820D01*
X64224188Y-124975518D01*
X64211928Y-125100000D01*
X64211928Y-125251004D01*
X64155537Y-125145506D01*
X64076185Y-125048815D01*
X64016704Y-125000000D01*
X64076185Y-124951185D01*
X64155537Y-124854494D01*
X64214502Y-124744180D01*
X64250812Y-124624482D01*
X64263072Y-124500000D01*
X64260000Y-124285750D01*
X64101250Y-124127000D01*
X63127000Y-124127000D01*
X63127000Y-124147000D01*
X62873000Y-124147000D01*
X62873000Y-124127000D01*
X61898750Y-124127000D01*
X61740000Y-124285750D01*
X61736928Y-124500000D01*
X61749188Y-124624482D01*
X61785498Y-124744180D01*
X61844463Y-124854494D01*
X61923815Y-124951185D01*
X61983296Y-125000000D01*
X61923815Y-125048815D01*
X61844463Y-125145506D01*
X61785498Y-125255820D01*
X61749188Y-125375518D01*
X61736928Y-125500000D01*
X61736928Y-126500000D01*
X61749188Y-126624482D01*
X61785498Y-126744180D01*
X61844463Y-126854494D01*
X61923815Y-126951185D01*
X62020506Y-127030537D01*
X62130820Y-127089502D01*
X62250045Y-127125669D01*
X62178411Y-127259688D01*
X62153953Y-127340314D01*
X62136207Y-127398815D01*
X62127805Y-127426511D01*
X62124630Y-127458747D01*
X62094463Y-127495506D01*
X62035498Y-127605820D01*
X61999188Y-127725518D01*
X61986928Y-127850000D01*
X61986928Y-128650000D01*
X61999188Y-128774482D01*
X62035498Y-128894180D01*
X62092061Y-129000000D01*
X62035498Y-129105820D01*
X61999188Y-129225518D01*
X61986928Y-129350000D01*
X61990000Y-129464250D01*
X62148750Y-129623000D01*
X62873000Y-129623000D01*
X62873000Y-129603000D01*
X63127000Y-129603000D01*
X63127000Y-129623000D01*
X63851250Y-129623000D01*
X64010000Y-129464250D01*
X64013072Y-129350000D01*
X64000812Y-129225518D01*
X63964502Y-129105820D01*
X63907939Y-129000000D01*
X63964502Y-128894180D01*
X64000812Y-128774482D01*
X64013072Y-128650000D01*
X64013072Y-127885000D01*
X64211928Y-127885000D01*
X64211928Y-128900000D01*
X64224188Y-129024482D01*
X64260498Y-129144180D01*
X64319463Y-129254494D01*
X64398815Y-129351185D01*
X64495506Y-129430537D01*
X64605820Y-129489502D01*
X64725518Y-129525812D01*
X64850000Y-129538072D01*
X66850000Y-129538072D01*
X66974482Y-129525812D01*
X67094180Y-129489502D01*
X67204494Y-129430537D01*
X67301185Y-129351185D01*
X67380537Y-129254494D01*
X67439502Y-129144180D01*
X67475812Y-129024482D01*
X67488072Y-128900000D01*
X67488072Y-127885000D01*
X68115000Y-127885000D01*
X68115001Y-129855746D01*
X68105941Y-129860589D01*
X68105939Y-129860590D01*
X68105940Y-129860590D01*
X68004953Y-129943468D01*
X68004951Y-129943470D01*
X67971183Y-129971183D01*
X67943470Y-130004951D01*
X66654951Y-131293471D01*
X66621184Y-131321183D01*
X66593471Y-131354951D01*
X66593468Y-131354954D01*
X66510590Y-131455941D01*
X66428412Y-131609687D01*
X66377805Y-131776510D01*
X66375572Y-131799188D01*
X66365000Y-131906523D01*
X66365000Y-131906531D01*
X66360719Y-131950000D01*
X66365000Y-131993469D01*
X66365000Y-132015019D01*
X66319463Y-132070506D01*
X66260498Y-132180820D01*
X66224188Y-132300518D01*
X66211928Y-132425000D01*
X66211928Y-133175000D01*
X66224188Y-133299482D01*
X66260498Y-133419180D01*
X66319463Y-133529494D01*
X66398815Y-133626185D01*
X66495506Y-133705537D01*
X66605820Y-133764502D01*
X66725518Y-133800812D01*
X66850000Y-133813072D01*
X67650000Y-133813072D01*
X67774482Y-133800812D01*
X67894180Y-133764502D01*
X67990000Y-133713284D01*
X67990000Y-134135198D01*
X67725549Y-134399650D01*
X67689502Y-134280820D01*
X67630537Y-134170506D01*
X67551185Y-134073815D01*
X67454494Y-133994463D01*
X67344180Y-133935498D01*
X67224482Y-133899188D01*
X67100000Y-133886928D01*
X66100000Y-133886928D01*
X65975518Y-133899188D01*
X65974345Y-133899544D01*
X65613803Y-133539002D01*
X65590001Y-133509999D01*
X65474276Y-133415026D01*
X65342247Y-133344454D01*
X65198986Y-133300997D01*
X65102222Y-133291466D01*
X65026185Y-133198815D01*
X64929494Y-133119463D01*
X64819180Y-133060498D01*
X64699482Y-133024188D01*
X64575000Y-133011928D01*
X63825000Y-133011928D01*
X63700518Y-133024188D01*
X63580820Y-133060498D01*
X63470506Y-133119463D01*
X63373815Y-133198815D01*
X63294463Y-133295506D01*
X63235498Y-133405820D01*
X63199188Y-133525518D01*
X63186928Y-133650000D01*
X63186928Y-134112126D01*
X60103804Y-131029003D01*
X60080001Y-130999999D01*
X59964276Y-130905026D01*
X59832247Y-130834454D01*
X59688986Y-130790997D01*
X59577333Y-130780000D01*
X59577322Y-130780000D01*
X59540000Y-130776324D01*
X59502678Y-130780000D01*
X56278178Y-130780000D01*
X56153475Y-130593368D01*
X56021620Y-130461513D01*
X56094180Y-130439502D01*
X56204494Y-130380537D01*
X56301185Y-130301185D01*
X56380537Y-130204494D01*
X56409665Y-130150000D01*
X61986928Y-130150000D01*
X61999188Y-130274482D01*
X62035498Y-130394180D01*
X62094463Y-130504494D01*
X62173815Y-130601185D01*
X62270506Y-130680537D01*
X62380820Y-130739502D01*
X62500518Y-130775812D01*
X62625000Y-130788072D01*
X62714250Y-130785000D01*
X62873000Y-130626250D01*
X62873000Y-129877000D01*
X63127000Y-129877000D01*
X63127000Y-130626250D01*
X63285750Y-130785000D01*
X63375000Y-130788072D01*
X63499482Y-130775812D01*
X63619180Y-130739502D01*
X63729494Y-130680537D01*
X63826185Y-130601185D01*
X63905537Y-130504494D01*
X63964502Y-130394180D01*
X64000812Y-130274482D01*
X64013072Y-130150000D01*
X64010000Y-130035750D01*
X63851250Y-129877000D01*
X63127000Y-129877000D01*
X62873000Y-129877000D01*
X62148750Y-129877000D01*
X61990000Y-130035750D01*
X61986928Y-130150000D01*
X56409665Y-130150000D01*
X56439502Y-130094180D01*
X56475812Y-129974482D01*
X56488072Y-129850000D01*
X56488072Y-128150000D01*
X56475812Y-128025518D01*
X56439502Y-127905820D01*
X56380537Y-127795506D01*
X56301185Y-127698815D01*
X56204494Y-127619463D01*
X56094180Y-127560498D01*
X55974482Y-127524188D01*
X55850000Y-127511928D01*
X54150000Y-127511928D01*
X54025518Y-127524188D01*
X53905820Y-127560498D01*
X53795506Y-127619463D01*
X53698815Y-127698815D01*
X53619463Y-127795506D01*
X53560498Y-127905820D01*
X53524188Y-128025518D01*
X53511928Y-128150000D01*
X50660000Y-128150000D01*
X50660000Y-123500000D01*
X61736928Y-123500000D01*
X61740000Y-123714250D01*
X61898750Y-123873000D01*
X62873000Y-123873000D01*
X62873000Y-123023750D01*
X63127000Y-123023750D01*
X63127000Y-123873000D01*
X64101250Y-123873000D01*
X64260000Y-123714250D01*
X64263072Y-123500000D01*
X64250812Y-123375518D01*
X64214502Y-123255820D01*
X64155537Y-123145506D01*
X64076185Y-123048815D01*
X63979494Y-122969463D01*
X63869180Y-122910498D01*
X63749482Y-122874188D01*
X63625000Y-122861928D01*
X63285750Y-122865000D01*
X63127000Y-123023750D01*
X62873000Y-123023750D01*
X62714250Y-122865000D01*
X62375000Y-122861928D01*
X62250518Y-122874188D01*
X62130820Y-122910498D01*
X62020506Y-122969463D01*
X61923815Y-123048815D01*
X61844463Y-123145506D01*
X61785498Y-123255820D01*
X61749188Y-123375518D01*
X61736928Y-123500000D01*
X50660000Y-123500000D01*
X50660000Y-122850000D01*
X73986928Y-122850000D01*
X73990000Y-122964250D01*
X74148750Y-123123000D01*
X74873000Y-123123000D01*
X74873000Y-122373750D01*
X75127000Y-122373750D01*
X75127000Y-123123000D01*
X75851250Y-123123000D01*
X76010000Y-122964250D01*
X76013072Y-122850000D01*
X76000812Y-122725518D01*
X75964502Y-122605820D01*
X75905537Y-122495506D01*
X75826185Y-122398815D01*
X75729494Y-122319463D01*
X75619180Y-122260498D01*
X75499482Y-122224188D01*
X75375000Y-122211928D01*
X75285750Y-122215000D01*
X75127000Y-122373750D01*
X74873000Y-122373750D01*
X74714250Y-122215000D01*
X74625000Y-122211928D01*
X74500518Y-122224188D01*
X74380820Y-122260498D01*
X74270506Y-122319463D01*
X74173815Y-122398815D01*
X74094463Y-122495506D01*
X74035498Y-122605820D01*
X73999188Y-122725518D01*
X73986928Y-122850000D01*
X50660000Y-122850000D01*
X50660000Y-119779872D01*
X52765000Y-119779872D01*
X52765000Y-120220128D01*
X52850890Y-120651925D01*
X53019369Y-121058669D01*
X53263962Y-121424729D01*
X53575271Y-121736038D01*
X53941331Y-121980631D01*
X54348075Y-122149110D01*
X54779872Y-122235000D01*
X55220128Y-122235000D01*
X55651925Y-122149110D01*
X56058669Y-121980631D01*
X56424729Y-121736038D01*
X56736038Y-121424729D01*
X56980631Y-121058669D01*
X57067064Y-120850000D01*
X66511928Y-120850000D01*
X66524188Y-120974482D01*
X66560498Y-121094180D01*
X66619463Y-121204494D01*
X66698815Y-121301185D01*
X66795506Y-121380537D01*
X66905820Y-121439502D01*
X67025518Y-121475812D01*
X67150000Y-121488072D01*
X67714250Y-121485000D01*
X67873000Y-121326250D01*
X67873000Y-120127000D01*
X66673750Y-120127000D01*
X66515000Y-120285750D01*
X66511928Y-120850000D01*
X57067064Y-120850000D01*
X57149110Y-120651925D01*
X57235000Y-120220128D01*
X57235000Y-119779872D01*
X57149110Y-119348075D01*
X57067065Y-119150000D01*
X66511928Y-119150000D01*
X66515000Y-119714250D01*
X66673750Y-119873000D01*
X67873000Y-119873000D01*
X67873000Y-118673750D01*
X68127000Y-118673750D01*
X68127000Y-119873000D01*
X68147000Y-119873000D01*
X68147000Y-120127000D01*
X68127000Y-120127000D01*
X68127000Y-121326250D01*
X68285750Y-121485000D01*
X68850000Y-121488072D01*
X68974482Y-121475812D01*
X69094180Y-121439502D01*
X69204494Y-121380537D01*
X69301185Y-121301185D01*
X69380537Y-121204494D01*
X69439502Y-121094180D01*
X69461513Y-121021620D01*
X69593368Y-121153475D01*
X69836589Y-121315990D01*
X70106842Y-121427932D01*
X70393740Y-121485000D01*
X70686260Y-121485000D01*
X70973158Y-121427932D01*
X71243411Y-121315990D01*
X71486632Y-121153475D01*
X71693475Y-120946632D01*
X71734656Y-120885000D01*
X75156531Y-120885000D01*
X75200000Y-120889281D01*
X75243469Y-120885000D01*
X75243477Y-120885000D01*
X75373490Y-120872195D01*
X75540313Y-120821589D01*
X75694059Y-120739411D01*
X75828817Y-120628817D01*
X75856534Y-120595044D01*
X76931914Y-119519665D01*
X76998815Y-119601185D01*
X77095506Y-119680537D01*
X77205820Y-119739502D01*
X77325518Y-119775812D01*
X77450000Y-119788072D01*
X78550000Y-119788072D01*
X78633258Y-119779872D01*
X82765000Y-119779872D01*
X82765000Y-120220128D01*
X82850890Y-120651925D01*
X83019369Y-121058669D01*
X83263962Y-121424729D01*
X83575271Y-121736038D01*
X83941331Y-121980631D01*
X84348075Y-122149110D01*
X84779872Y-122235000D01*
X85220128Y-122235000D01*
X85651925Y-122149110D01*
X86058669Y-121980631D01*
X86424729Y-121736038D01*
X86736038Y-121424729D01*
X86980631Y-121058669D01*
X87149110Y-120651925D01*
X87235000Y-120220128D01*
X87235000Y-119779872D01*
X87149110Y-119348075D01*
X86980631Y-118941331D01*
X86736038Y-118575271D01*
X86424729Y-118263962D01*
X86058669Y-118019369D01*
X85651925Y-117850890D01*
X85220128Y-117765000D01*
X84779872Y-117765000D01*
X84348075Y-117850890D01*
X83941331Y-118019369D01*
X83575271Y-118263962D01*
X83263962Y-118575271D01*
X83019369Y-118941331D01*
X82850890Y-119348075D01*
X82765000Y-119779872D01*
X78633258Y-119779872D01*
X78674482Y-119775812D01*
X78794180Y-119739502D01*
X78904494Y-119680537D01*
X79001185Y-119601185D01*
X79080537Y-119504494D01*
X79139502Y-119394180D01*
X79175812Y-119274482D01*
X79188072Y-119150000D01*
X79188072Y-118050000D01*
X79175812Y-117925518D01*
X79139502Y-117805820D01*
X79080537Y-117695506D01*
X79001185Y-117598815D01*
X78904494Y-117519463D01*
X78794180Y-117460498D01*
X78674482Y-117424188D01*
X78550000Y-117411928D01*
X77450000Y-117411928D01*
X77325518Y-117424188D01*
X77205820Y-117460498D01*
X77095506Y-117519463D01*
X76998815Y-117598815D01*
X76919463Y-117695506D01*
X76909043Y-117715000D01*
X76643469Y-117715000D01*
X76600000Y-117710719D01*
X76556531Y-117715000D01*
X76556523Y-117715000D01*
X76441306Y-117726348D01*
X76426509Y-117727805D01*
X76375903Y-117743157D01*
X76259687Y-117778411D01*
X76105941Y-117860589D01*
X76105939Y-117860590D01*
X76105940Y-117860590D01*
X76004953Y-117943468D01*
X76004951Y-117943470D01*
X75971183Y-117971183D01*
X75943470Y-118004951D01*
X74833422Y-119115000D01*
X71734656Y-119115000D01*
X71693475Y-119053368D01*
X71486632Y-118846525D01*
X71243411Y-118684010D01*
X70973158Y-118572068D01*
X70686260Y-118515000D01*
X70393740Y-118515000D01*
X70106842Y-118572068D01*
X69836589Y-118684010D01*
X69593368Y-118846525D01*
X69461513Y-118978380D01*
X69439502Y-118905820D01*
X69380537Y-118795506D01*
X69301185Y-118698815D01*
X69204494Y-118619463D01*
X69094180Y-118560498D01*
X68974482Y-118524188D01*
X68850000Y-118511928D01*
X68285750Y-118515000D01*
X68127000Y-118673750D01*
X67873000Y-118673750D01*
X67714250Y-118515000D01*
X67150000Y-118511928D01*
X67025518Y-118524188D01*
X66905820Y-118560498D01*
X66795506Y-118619463D01*
X66698815Y-118698815D01*
X66619463Y-118795506D01*
X66560498Y-118905820D01*
X66524188Y-119025518D01*
X66511928Y-119150000D01*
X57067065Y-119150000D01*
X56980631Y-118941331D01*
X56736038Y-118575271D01*
X56424729Y-118263962D01*
X56058669Y-118019369D01*
X55651925Y-117850890D01*
X55220128Y-117765000D01*
X54779872Y-117765000D01*
X54348075Y-117850890D01*
X53941331Y-118019369D01*
X53575271Y-118263962D01*
X53263962Y-118575271D01*
X53019369Y-118941331D01*
X52850890Y-119348075D01*
X52765000Y-119779872D01*
X50660000Y-119779872D01*
X50660000Y-115660000D01*
X89340000Y-115660000D01*
X89340001Y-149340000D01*
G04 #@! TA.AperFunction,Conductor*
D25*
G36*
X89340001Y-149340000D02*
G01*
X50660000Y-149340000D01*
X50660000Y-144779872D01*
X52765000Y-144779872D01*
X52765000Y-145220128D01*
X52850890Y-145651925D01*
X53019369Y-146058669D01*
X53263962Y-146424729D01*
X53575271Y-146736038D01*
X53941331Y-146980631D01*
X54348075Y-147149110D01*
X54779872Y-147235000D01*
X55220128Y-147235000D01*
X55651925Y-147149110D01*
X56058669Y-146980631D01*
X56424729Y-146736038D01*
X56736038Y-146424729D01*
X56980631Y-146058669D01*
X57149110Y-145651925D01*
X57235000Y-145220128D01*
X57235000Y-144779872D01*
X82765000Y-144779872D01*
X82765000Y-145220128D01*
X82850890Y-145651925D01*
X83019369Y-146058669D01*
X83263962Y-146424729D01*
X83575271Y-146736038D01*
X83941331Y-146980631D01*
X84348075Y-147149110D01*
X84779872Y-147235000D01*
X85220128Y-147235000D01*
X85651925Y-147149110D01*
X86058669Y-146980631D01*
X86424729Y-146736038D01*
X86736038Y-146424729D01*
X86980631Y-146058669D01*
X87149110Y-145651925D01*
X87235000Y-145220128D01*
X87235000Y-144779872D01*
X87149110Y-144348075D01*
X86980631Y-143941331D01*
X86736038Y-143575271D01*
X86424729Y-143263962D01*
X86058669Y-143019369D01*
X85651925Y-142850890D01*
X85220128Y-142765000D01*
X84779872Y-142765000D01*
X84348075Y-142850890D01*
X83941331Y-143019369D01*
X83575271Y-143263962D01*
X83263962Y-143575271D01*
X83019369Y-143941331D01*
X82850890Y-144348075D01*
X82765000Y-144779872D01*
X57235000Y-144779872D01*
X57149110Y-144348075D01*
X56980631Y-143941331D01*
X56736038Y-143575271D01*
X56424729Y-143263962D01*
X56058669Y-143019369D01*
X55651925Y-142850890D01*
X55220128Y-142765000D01*
X54779872Y-142765000D01*
X54348075Y-142850890D01*
X53941331Y-143019369D01*
X53575271Y-143263962D01*
X53263962Y-143575271D01*
X53019369Y-143941331D01*
X52850890Y-144348075D01*
X52765000Y-144779872D01*
X50660000Y-144779872D01*
X50660000Y-128150000D01*
X53511928Y-128150000D01*
X53511928Y-129850000D01*
X53524188Y-129974482D01*
X53560498Y-130094180D01*
X53619463Y-130204494D01*
X53698815Y-130301185D01*
X53795506Y-130380537D01*
X53905820Y-130439502D01*
X53978380Y-130461513D01*
X53846525Y-130593368D01*
X53684010Y-130836589D01*
X53572068Y-131106842D01*
X53515000Y-131393740D01*
X53515000Y-131686260D01*
X53572068Y-131973158D01*
X53684010Y-132243411D01*
X53846525Y-132486632D01*
X54053368Y-132693475D01*
X54227760Y-132810000D01*
X54053368Y-132926525D01*
X53846525Y-133133368D01*
X53684010Y-133376589D01*
X53572068Y-133646842D01*
X53515000Y-133933740D01*
X53515000Y-134226260D01*
X53572068Y-134513158D01*
X53684010Y-134783411D01*
X53846525Y-135026632D01*
X54053368Y-135233475D01*
X54227760Y-135350000D01*
X54053368Y-135466525D01*
X53846525Y-135673368D01*
X53684010Y-135916589D01*
X53572068Y-136186842D01*
X53515000Y-136473740D01*
X53515000Y-136766260D01*
X53572068Y-137053158D01*
X53684010Y-137323411D01*
X53846525Y-137566632D01*
X54053368Y-137773475D01*
X54296589Y-137935990D01*
X54566842Y-138047932D01*
X54853740Y-138105000D01*
X55146260Y-138105000D01*
X55433158Y-138047932D01*
X55703411Y-137935990D01*
X55946632Y-137773475D01*
X56153475Y-137566632D01*
X56315990Y-137323411D01*
X56427932Y-137053158D01*
X56485000Y-136766260D01*
X56485000Y-136473740D01*
X56427932Y-136186842D01*
X56368458Y-136043260D01*
X63636201Y-143311003D01*
X63659999Y-143340001D01*
X63775724Y-143434974D01*
X63907753Y-143505546D01*
X64051014Y-143549003D01*
X64162667Y-143560000D01*
X64162676Y-143560000D01*
X64199999Y-143563676D01*
X64237322Y-143560000D01*
X70362678Y-143560000D01*
X70400000Y-143563676D01*
X70437322Y-143560000D01*
X70437333Y-143560000D01*
X70548986Y-143549003D01*
X70692247Y-143505546D01*
X70824276Y-143434974D01*
X70940001Y-143340001D01*
X70963804Y-143310997D01*
X71110997Y-143163804D01*
X71140001Y-143140001D01*
X71234974Y-143024276D01*
X71305546Y-142892247D01*
X71349003Y-142748986D01*
X71360000Y-142637333D01*
X71360000Y-142637325D01*
X71363676Y-142600000D01*
X71360000Y-142562675D01*
X71360000Y-140594804D01*
X71476199Y-140711003D01*
X71499997Y-140740001D01*
X71528995Y-140763799D01*
X71615722Y-140834974D01*
X71747751Y-140905546D01*
X71891012Y-140949003D01*
X72039998Y-140963677D01*
X72077331Y-140960000D01*
X76362678Y-140960000D01*
X76400000Y-140963676D01*
X76437322Y-140960000D01*
X76437333Y-140960000D01*
X76548986Y-140949003D01*
X76692247Y-140905546D01*
X76824276Y-140834974D01*
X76940001Y-140740001D01*
X76963803Y-140710998D01*
X78514803Y-139160000D01*
X86362678Y-139160000D01*
X86400000Y-139163676D01*
X86437322Y-139160000D01*
X86437333Y-139160000D01*
X86548986Y-139149003D01*
X86692247Y-139105546D01*
X86824276Y-139034974D01*
X86940001Y-138940001D01*
X86963804Y-138910998D01*
X87911004Y-137963798D01*
X87940001Y-137940001D01*
X88034974Y-137824276D01*
X88105546Y-137692247D01*
X88149003Y-137548986D01*
X88160000Y-137437333D01*
X88160000Y-137437332D01*
X88163677Y-137400000D01*
X88160000Y-137362667D01*
X88160000Y-134637322D01*
X88163676Y-134599999D01*
X88160000Y-134562676D01*
X88160000Y-134562667D01*
X88149003Y-134451014D01*
X88105546Y-134307753D01*
X88074676Y-134250000D01*
X88034974Y-134175723D01*
X87966332Y-134092083D01*
X87940001Y-134059999D01*
X87911002Y-134036200D01*
X87443803Y-133569002D01*
X87420001Y-133539999D01*
X87304276Y-133445026D01*
X87172247Y-133374454D01*
X87028986Y-133330997D01*
X86917333Y-133320000D01*
X86917322Y-133320000D01*
X86880000Y-133316324D01*
X86842678Y-133320000D01*
X86278178Y-133320000D01*
X86153475Y-133133368D01*
X85946632Y-132926525D01*
X85772240Y-132810000D01*
X85946632Y-132693475D01*
X86153475Y-132486632D01*
X86315990Y-132243411D01*
X86427932Y-131973158D01*
X86485000Y-131686260D01*
X86485000Y-131393740D01*
X86427932Y-131106842D01*
X86315990Y-130836589D01*
X86153475Y-130593368D01*
X86021620Y-130461513D01*
X86094180Y-130439502D01*
X86204494Y-130380537D01*
X86301185Y-130301185D01*
X86380537Y-130204494D01*
X86439502Y-130094180D01*
X86475812Y-129974482D01*
X86488072Y-129850000D01*
X86488072Y-128150000D01*
X86475812Y-128025518D01*
X86439502Y-127905820D01*
X86380537Y-127795506D01*
X86301185Y-127698815D01*
X86204494Y-127619463D01*
X86094180Y-127560498D01*
X85974482Y-127524188D01*
X85850000Y-127511928D01*
X84150000Y-127511928D01*
X84025518Y-127524188D01*
X83905820Y-127560498D01*
X83795506Y-127619463D01*
X83698815Y-127698815D01*
X83619463Y-127795506D01*
X83560498Y-127905820D01*
X83524188Y-128025518D01*
X83511928Y-128150000D01*
X83511928Y-128293188D01*
X83507753Y-128294454D01*
X83375724Y-128365026D01*
X83259999Y-128459999D01*
X83236201Y-128488997D01*
X75145982Y-136579217D01*
X75117205Y-136509744D01*
X75003937Y-136340226D01*
X74937598Y-136273887D01*
X75026185Y-136201185D01*
X75105537Y-136104494D01*
X75164502Y-135994180D01*
X75200812Y-135874482D01*
X75213072Y-135750000D01*
X75210000Y-135635750D01*
X75051250Y-135477000D01*
X74327000Y-135477000D01*
X74327000Y-135497000D01*
X74073000Y-135497000D01*
X74073000Y-135477000D01*
X74053000Y-135477000D01*
X74053000Y-135223000D01*
X74073000Y-135223000D01*
X74073000Y-135203000D01*
X74327000Y-135203000D01*
X74327000Y-135223000D01*
X75051250Y-135223000D01*
X75210000Y-135064250D01*
X75213072Y-134950000D01*
X75200812Y-134825518D01*
X75164502Y-134705820D01*
X75107939Y-134600000D01*
X75164502Y-134494180D01*
X75200812Y-134374482D01*
X75213072Y-134250000D01*
X75213072Y-133450000D01*
X75200812Y-133325518D01*
X75164502Y-133205820D01*
X75105537Y-133095506D01*
X75026185Y-132998815D01*
X74929494Y-132919463D01*
X74819180Y-132860498D01*
X74699482Y-132824188D01*
X74575000Y-132811928D01*
X73825000Y-132811928D01*
X73700518Y-132824188D01*
X73580820Y-132860498D01*
X73538072Y-132883348D01*
X73538072Y-132175000D01*
X73525812Y-132050518D01*
X73489502Y-131930820D01*
X73430537Y-131820506D01*
X73351185Y-131723815D01*
X73285000Y-131669499D01*
X73285000Y-131643469D01*
X73289281Y-131600000D01*
X73285000Y-131556531D01*
X73285000Y-131556523D01*
X73272195Y-131426510D01*
X73221589Y-131259687D01*
X73139411Y-131105941D01*
X73028817Y-130971183D01*
X72995045Y-130943467D01*
X72856534Y-130804956D01*
X72828817Y-130771183D01*
X72725321Y-130686245D01*
X73150000Y-130688072D01*
X73274482Y-130675812D01*
X73394180Y-130639502D01*
X73504494Y-130580537D01*
X73601185Y-130501185D01*
X73680537Y-130404494D01*
X73739502Y-130294180D01*
X73775812Y-130174482D01*
X73788072Y-130050000D01*
X73787765Y-130003668D01*
X73820506Y-130030537D01*
X73930820Y-130089502D01*
X74050518Y-130125812D01*
X74175000Y-130138072D01*
X74514250Y-130135000D01*
X74673000Y-129976250D01*
X74673000Y-129127000D01*
X74927000Y-129127000D01*
X74927000Y-129976250D01*
X75085750Y-130135000D01*
X75425000Y-130138072D01*
X75549482Y-130125812D01*
X75669180Y-130089502D01*
X75779494Y-130030537D01*
X75876185Y-129951185D01*
X75955537Y-129854494D01*
X76014502Y-129744180D01*
X76050812Y-129624482D01*
X76063072Y-129500000D01*
X76060000Y-129285750D01*
X75901250Y-129127000D01*
X74927000Y-129127000D01*
X74673000Y-129127000D01*
X74653000Y-129127000D01*
X74653000Y-128873000D01*
X74673000Y-128873000D01*
X74673000Y-128853000D01*
X74927000Y-128853000D01*
X74927000Y-128873000D01*
X75901250Y-128873000D01*
X76060000Y-128714250D01*
X76063072Y-128500000D01*
X76050812Y-128375518D01*
X76014502Y-128255820D01*
X75955537Y-128145506D01*
X75876185Y-128048815D01*
X75816704Y-128000000D01*
X75876185Y-127951185D01*
X75955537Y-127854494D01*
X76014502Y-127744180D01*
X76050812Y-127624482D01*
X76063072Y-127500000D01*
X76561928Y-127500000D01*
X76574188Y-127624482D01*
X76610498Y-127744180D01*
X76669463Y-127854494D01*
X76748815Y-127951185D01*
X76845506Y-128030537D01*
X76955820Y-128089502D01*
X77075518Y-128125812D01*
X77200000Y-128138072D01*
X77714250Y-128135000D01*
X77873000Y-127976250D01*
X77873000Y-127127000D01*
X78127000Y-127127000D01*
X78127000Y-127976250D01*
X78285750Y-128135000D01*
X78800000Y-128138072D01*
X78924482Y-128125812D01*
X79044180Y-128089502D01*
X79154494Y-128030537D01*
X79251185Y-127951185D01*
X79330537Y-127854494D01*
X79389502Y-127744180D01*
X79425812Y-127624482D01*
X79438072Y-127500000D01*
X79435000Y-127285750D01*
X79276250Y-127127000D01*
X78127000Y-127127000D01*
X77873000Y-127127000D01*
X76723750Y-127127000D01*
X76565000Y-127285750D01*
X76561928Y-127500000D01*
X76063072Y-127500000D01*
X76063072Y-126500000D01*
X76561928Y-126500000D01*
X76565000Y-126714250D01*
X76723750Y-126873000D01*
X77873000Y-126873000D01*
X77873000Y-126023750D01*
X78127000Y-126023750D01*
X78127000Y-126873000D01*
X79276250Y-126873000D01*
X79435000Y-126714250D01*
X79438072Y-126500000D01*
X79425812Y-126375518D01*
X79389502Y-126255820D01*
X79330537Y-126145506D01*
X79251185Y-126048815D01*
X79154494Y-125969463D01*
X79044180Y-125910498D01*
X78924482Y-125874188D01*
X78800000Y-125861928D01*
X78285750Y-125865000D01*
X78127000Y-126023750D01*
X77873000Y-126023750D01*
X77714250Y-125865000D01*
X77200000Y-125861928D01*
X77075518Y-125874188D01*
X76955820Y-125910498D01*
X76845506Y-125969463D01*
X76748815Y-126048815D01*
X76669463Y-126145506D01*
X76610498Y-126255820D01*
X76574188Y-126375518D01*
X76561928Y-126500000D01*
X76063072Y-126500000D01*
X76050812Y-126375518D01*
X76014502Y-126255820D01*
X75955537Y-126145506D01*
X75876185Y-126048815D01*
X75779494Y-125969463D01*
X75669180Y-125910498D01*
X75549482Y-125874188D01*
X75425000Y-125861928D01*
X74175000Y-125861928D01*
X74050518Y-125874188D01*
X73930820Y-125910498D01*
X73820506Y-125969463D01*
X73746818Y-126029937D01*
X73739502Y-126005820D01*
X73680537Y-125895506D01*
X73643191Y-125850000D01*
X73680537Y-125804494D01*
X73739502Y-125694180D01*
X73757454Y-125635000D01*
X74215019Y-125635000D01*
X74270506Y-125680537D01*
X74380820Y-125739502D01*
X74500518Y-125775812D01*
X74625000Y-125788072D01*
X75375000Y-125788072D01*
X75499482Y-125775812D01*
X75619180Y-125739502D01*
X75729494Y-125680537D01*
X75784981Y-125635000D01*
X76006531Y-125635000D01*
X76050000Y-125639281D01*
X76093469Y-125635000D01*
X76093477Y-125635000D01*
X76223490Y-125622195D01*
X76390313Y-125571589D01*
X76544059Y-125489411D01*
X76678817Y-125378817D01*
X76706534Y-125345044D01*
X76960620Y-125090958D01*
X77075518Y-125125812D01*
X77200000Y-125138072D01*
X78800000Y-125138072D01*
X78924482Y-125125812D01*
X79044180Y-125089502D01*
X79154494Y-125030537D01*
X79251185Y-124951185D01*
X79330537Y-124854494D01*
X79389502Y-124744180D01*
X79425812Y-124624482D01*
X79438072Y-124500000D01*
X79438072Y-123500000D01*
X79425812Y-123375518D01*
X79389502Y-123255820D01*
X79330537Y-123145506D01*
X79251185Y-123048815D01*
X79154494Y-122969463D01*
X79044180Y-122910498D01*
X78924482Y-122874188D01*
X78885000Y-122870299D01*
X78885000Y-122490957D01*
X78904494Y-122480537D01*
X79001185Y-122401185D01*
X79080537Y-122304494D01*
X79139502Y-122194180D01*
X79175812Y-122074482D01*
X79188072Y-121950000D01*
X79188072Y-120850000D01*
X79175812Y-120725518D01*
X79139502Y-120605820D01*
X79080537Y-120495506D01*
X79001185Y-120398815D01*
X78904494Y-120319463D01*
X78794180Y-120260498D01*
X78674482Y-120224188D01*
X78550000Y-120211928D01*
X77450000Y-120211928D01*
X77325518Y-120224188D01*
X77205820Y-120260498D01*
X77095506Y-120319463D01*
X76998815Y-120398815D01*
X76919463Y-120495506D01*
X76860498Y-120605820D01*
X76824188Y-120725518D01*
X76811928Y-120850000D01*
X76811928Y-121950000D01*
X76824188Y-122074482D01*
X76860498Y-122194180D01*
X76919463Y-122304494D01*
X76998815Y-122401185D01*
X77095506Y-122480537D01*
X77115000Y-122490957D01*
X77115001Y-122870299D01*
X77075518Y-122874188D01*
X76955820Y-122910498D01*
X76845506Y-122969463D01*
X76748815Y-123048815D01*
X76689044Y-123121646D01*
X76626510Y-123127805D01*
X76459687Y-123178411D01*
X76305941Y-123260589D01*
X76305939Y-123260590D01*
X76305940Y-123260590D01*
X76204953Y-123343468D01*
X76204951Y-123343470D01*
X76171183Y-123371183D01*
X76143470Y-123404951D01*
X76010070Y-123538351D01*
X76010000Y-123535750D01*
X75851250Y-123377000D01*
X75127000Y-123377000D01*
X75127000Y-123397000D01*
X74873000Y-123397000D01*
X74873000Y-123377000D01*
X74148750Y-123377000D01*
X73990000Y-123535750D01*
X73986928Y-123650000D01*
X73999188Y-123774482D01*
X74026646Y-123865000D01*
X73779701Y-123865000D01*
X73775812Y-123825518D01*
X73739502Y-123705820D01*
X73680537Y-123595506D01*
X73601185Y-123498815D01*
X73504494Y-123419463D01*
X73394180Y-123360498D01*
X73274482Y-123324188D01*
X73150000Y-123311928D01*
X71150000Y-123311928D01*
X71025518Y-123324188D01*
X70905820Y-123360498D01*
X70795506Y-123419463D01*
X70698815Y-123498815D01*
X70619463Y-123595506D01*
X70560498Y-123705820D01*
X70524188Y-123825518D01*
X70511928Y-123950000D01*
X70511928Y-125450000D01*
X70524188Y-125574482D01*
X70560498Y-125694180D01*
X70619463Y-125804494D01*
X70656809Y-125850000D01*
X70619463Y-125895506D01*
X70560498Y-126005820D01*
X70527379Y-126115000D01*
X69043476Y-126115000D01*
X69000000Y-126110718D01*
X68956523Y-126115000D01*
X67488072Y-126115000D01*
X67488072Y-125100000D01*
X67475812Y-124975518D01*
X67439502Y-124855820D01*
X67380537Y-124745506D01*
X67301185Y-124648815D01*
X67204494Y-124569463D01*
X67094180Y-124510498D01*
X66974482Y-124474188D01*
X66850000Y-124461928D01*
X64850000Y-124461928D01*
X64725518Y-124474188D01*
X64605820Y-124510498D01*
X64495506Y-124569463D01*
X64398815Y-124648815D01*
X64319463Y-124745506D01*
X64260498Y-124855820D01*
X64224188Y-124975518D01*
X64211928Y-125100000D01*
X64211928Y-125251004D01*
X64155537Y-125145506D01*
X64076185Y-125048815D01*
X64016704Y-125000000D01*
X64076185Y-124951185D01*
X64155537Y-124854494D01*
X64214502Y-124744180D01*
X64250812Y-124624482D01*
X64263072Y-124500000D01*
X64260000Y-124285750D01*
X64101250Y-124127000D01*
X63127000Y-124127000D01*
X63127000Y-124147000D01*
X62873000Y-124147000D01*
X62873000Y-124127000D01*
X61898750Y-124127000D01*
X61740000Y-124285750D01*
X61736928Y-124500000D01*
X61749188Y-124624482D01*
X61785498Y-124744180D01*
X61844463Y-124854494D01*
X61923815Y-124951185D01*
X61983296Y-125000000D01*
X61923815Y-125048815D01*
X61844463Y-125145506D01*
X61785498Y-125255820D01*
X61749188Y-125375518D01*
X61736928Y-125500000D01*
X61736928Y-126500000D01*
X61749188Y-126624482D01*
X61785498Y-126744180D01*
X61844463Y-126854494D01*
X61923815Y-126951185D01*
X62020506Y-127030537D01*
X62130820Y-127089502D01*
X62250045Y-127125669D01*
X62178411Y-127259688D01*
X62153953Y-127340314D01*
X62136207Y-127398815D01*
X62127805Y-127426511D01*
X62124630Y-127458747D01*
X62094463Y-127495506D01*
X62035498Y-127605820D01*
X61999188Y-127725518D01*
X61986928Y-127850000D01*
X61986928Y-128650000D01*
X61999188Y-128774482D01*
X62035498Y-128894180D01*
X62092061Y-129000000D01*
X62035498Y-129105820D01*
X61999188Y-129225518D01*
X61986928Y-129350000D01*
X61990000Y-129464250D01*
X62148750Y-129623000D01*
X62873000Y-129623000D01*
X62873000Y-129603000D01*
X63127000Y-129603000D01*
X63127000Y-129623000D01*
X63851250Y-129623000D01*
X64010000Y-129464250D01*
X64013072Y-129350000D01*
X64000812Y-129225518D01*
X63964502Y-129105820D01*
X63907939Y-129000000D01*
X63964502Y-128894180D01*
X64000812Y-128774482D01*
X64013072Y-128650000D01*
X64013072Y-127885000D01*
X64211928Y-127885000D01*
X64211928Y-128900000D01*
X64224188Y-129024482D01*
X64260498Y-129144180D01*
X64319463Y-129254494D01*
X64398815Y-129351185D01*
X64495506Y-129430537D01*
X64605820Y-129489502D01*
X64725518Y-129525812D01*
X64850000Y-129538072D01*
X66850000Y-129538072D01*
X66974482Y-129525812D01*
X67094180Y-129489502D01*
X67204494Y-129430537D01*
X67301185Y-129351185D01*
X67380537Y-129254494D01*
X67439502Y-129144180D01*
X67475812Y-129024482D01*
X67488072Y-128900000D01*
X67488072Y-127885000D01*
X68115000Y-127885000D01*
X68115001Y-129855746D01*
X68105941Y-129860589D01*
X68105939Y-129860590D01*
X68105940Y-129860590D01*
X68004953Y-129943468D01*
X68004951Y-129943470D01*
X67971183Y-129971183D01*
X67943470Y-130004951D01*
X66654951Y-131293471D01*
X66621184Y-131321183D01*
X66593471Y-131354951D01*
X66593468Y-131354954D01*
X66510590Y-131455941D01*
X66428412Y-131609687D01*
X66377805Y-131776510D01*
X66375572Y-131799188D01*
X66365000Y-131906523D01*
X66365000Y-131906531D01*
X66360719Y-131950000D01*
X66365000Y-131993469D01*
X66365000Y-132015019D01*
X66319463Y-132070506D01*
X66260498Y-132180820D01*
X66224188Y-132300518D01*
X66211928Y-132425000D01*
X66211928Y-133175000D01*
X66224188Y-133299482D01*
X66260498Y-133419180D01*
X66319463Y-133529494D01*
X66398815Y-133626185D01*
X66495506Y-133705537D01*
X66605820Y-133764502D01*
X66725518Y-133800812D01*
X66850000Y-133813072D01*
X67650000Y-133813072D01*
X67774482Y-133800812D01*
X67894180Y-133764502D01*
X67990000Y-133713284D01*
X67990000Y-134135198D01*
X67725549Y-134399650D01*
X67689502Y-134280820D01*
X67630537Y-134170506D01*
X67551185Y-134073815D01*
X67454494Y-133994463D01*
X67344180Y-133935498D01*
X67224482Y-133899188D01*
X67100000Y-133886928D01*
X66100000Y-133886928D01*
X65975518Y-133899188D01*
X65974345Y-133899544D01*
X65613803Y-133539002D01*
X65590001Y-133509999D01*
X65474276Y-133415026D01*
X65342247Y-133344454D01*
X65198986Y-133300997D01*
X65102222Y-133291466D01*
X65026185Y-133198815D01*
X64929494Y-133119463D01*
X64819180Y-133060498D01*
X64699482Y-133024188D01*
X64575000Y-133011928D01*
X63825000Y-133011928D01*
X63700518Y-133024188D01*
X63580820Y-133060498D01*
X63470506Y-133119463D01*
X63373815Y-133198815D01*
X63294463Y-133295506D01*
X63235498Y-133405820D01*
X63199188Y-133525518D01*
X63186928Y-133650000D01*
X63186928Y-134112126D01*
X60103804Y-131029003D01*
X60080001Y-130999999D01*
X59964276Y-130905026D01*
X59832247Y-130834454D01*
X59688986Y-130790997D01*
X59577333Y-130780000D01*
X59577322Y-130780000D01*
X59540000Y-130776324D01*
X59502678Y-130780000D01*
X56278178Y-130780000D01*
X56153475Y-130593368D01*
X56021620Y-130461513D01*
X56094180Y-130439502D01*
X56204494Y-130380537D01*
X56301185Y-130301185D01*
X56380537Y-130204494D01*
X56409665Y-130150000D01*
X61986928Y-130150000D01*
X61999188Y-130274482D01*
X62035498Y-130394180D01*
X62094463Y-130504494D01*
X62173815Y-130601185D01*
X62270506Y-130680537D01*
X62380820Y-130739502D01*
X62500518Y-130775812D01*
X62625000Y-130788072D01*
X62714250Y-130785000D01*
X62873000Y-130626250D01*
X62873000Y-129877000D01*
X63127000Y-129877000D01*
X63127000Y-130626250D01*
X63285750Y-130785000D01*
X63375000Y-130788072D01*
X63499482Y-130775812D01*
X63619180Y-130739502D01*
X63729494Y-130680537D01*
X63826185Y-130601185D01*
X63905537Y-130504494D01*
X63964502Y-130394180D01*
X64000812Y-130274482D01*
X64013072Y-130150000D01*
X64010000Y-130035750D01*
X63851250Y-129877000D01*
X63127000Y-129877000D01*
X62873000Y-129877000D01*
X62148750Y-129877000D01*
X61990000Y-130035750D01*
X61986928Y-130150000D01*
X56409665Y-130150000D01*
X56439502Y-130094180D01*
X56475812Y-129974482D01*
X56488072Y-129850000D01*
X56488072Y-128150000D01*
X56475812Y-128025518D01*
X56439502Y-127905820D01*
X56380537Y-127795506D01*
X56301185Y-127698815D01*
X56204494Y-127619463D01*
X56094180Y-127560498D01*
X55974482Y-127524188D01*
X55850000Y-127511928D01*
X54150000Y-127511928D01*
X54025518Y-127524188D01*
X53905820Y-127560498D01*
X53795506Y-127619463D01*
X53698815Y-127698815D01*
X53619463Y-127795506D01*
X53560498Y-127905820D01*
X53524188Y-128025518D01*
X53511928Y-128150000D01*
X50660000Y-128150000D01*
X50660000Y-123500000D01*
X61736928Y-123500000D01*
X61740000Y-123714250D01*
X61898750Y-123873000D01*
X62873000Y-123873000D01*
X62873000Y-123023750D01*
X63127000Y-123023750D01*
X63127000Y-123873000D01*
X64101250Y-123873000D01*
X64260000Y-123714250D01*
X64263072Y-123500000D01*
X64250812Y-123375518D01*
X64214502Y-123255820D01*
X64155537Y-123145506D01*
X64076185Y-123048815D01*
X63979494Y-122969463D01*
X63869180Y-122910498D01*
X63749482Y-122874188D01*
X63625000Y-122861928D01*
X63285750Y-122865000D01*
X63127000Y-123023750D01*
X62873000Y-123023750D01*
X62714250Y-122865000D01*
X62375000Y-122861928D01*
X62250518Y-122874188D01*
X62130820Y-122910498D01*
X62020506Y-122969463D01*
X61923815Y-123048815D01*
X61844463Y-123145506D01*
X61785498Y-123255820D01*
X61749188Y-123375518D01*
X61736928Y-123500000D01*
X50660000Y-123500000D01*
X50660000Y-122850000D01*
X73986928Y-122850000D01*
X73990000Y-122964250D01*
X74148750Y-123123000D01*
X74873000Y-123123000D01*
X74873000Y-122373750D01*
X75127000Y-122373750D01*
X75127000Y-123123000D01*
X75851250Y-123123000D01*
X76010000Y-122964250D01*
X76013072Y-122850000D01*
X76000812Y-122725518D01*
X75964502Y-122605820D01*
X75905537Y-122495506D01*
X75826185Y-122398815D01*
X75729494Y-122319463D01*
X75619180Y-122260498D01*
X75499482Y-122224188D01*
X75375000Y-122211928D01*
X75285750Y-122215000D01*
X75127000Y-122373750D01*
X74873000Y-122373750D01*
X74714250Y-122215000D01*
X74625000Y-122211928D01*
X74500518Y-122224188D01*
X74380820Y-122260498D01*
X74270506Y-122319463D01*
X74173815Y-122398815D01*
X74094463Y-122495506D01*
X74035498Y-122605820D01*
X73999188Y-122725518D01*
X73986928Y-122850000D01*
X50660000Y-122850000D01*
X50660000Y-119779872D01*
X52765000Y-119779872D01*
X52765000Y-120220128D01*
X52850890Y-120651925D01*
X53019369Y-121058669D01*
X53263962Y-121424729D01*
X53575271Y-121736038D01*
X53941331Y-121980631D01*
X54348075Y-122149110D01*
X54779872Y-122235000D01*
X55220128Y-122235000D01*
X55651925Y-122149110D01*
X56058669Y-121980631D01*
X56424729Y-121736038D01*
X56736038Y-121424729D01*
X56980631Y-121058669D01*
X57067064Y-120850000D01*
X66511928Y-120850000D01*
X66524188Y-120974482D01*
X66560498Y-121094180D01*
X66619463Y-121204494D01*
X66698815Y-121301185D01*
X66795506Y-121380537D01*
X66905820Y-121439502D01*
X67025518Y-121475812D01*
X67150000Y-121488072D01*
X67714250Y-121485000D01*
X67873000Y-121326250D01*
X67873000Y-120127000D01*
X66673750Y-120127000D01*
X66515000Y-120285750D01*
X66511928Y-120850000D01*
X57067064Y-120850000D01*
X57149110Y-120651925D01*
X57235000Y-120220128D01*
X57235000Y-119779872D01*
X57149110Y-119348075D01*
X57067065Y-119150000D01*
X66511928Y-119150000D01*
X66515000Y-119714250D01*
X66673750Y-119873000D01*
X67873000Y-119873000D01*
X67873000Y-118673750D01*
X68127000Y-118673750D01*
X68127000Y-119873000D01*
X68147000Y-119873000D01*
X68147000Y-120127000D01*
X68127000Y-120127000D01*
X68127000Y-121326250D01*
X68285750Y-121485000D01*
X68850000Y-121488072D01*
X68974482Y-121475812D01*
X69094180Y-121439502D01*
X69204494Y-121380537D01*
X69301185Y-121301185D01*
X69380537Y-121204494D01*
X69439502Y-121094180D01*
X69461513Y-121021620D01*
X69593368Y-121153475D01*
X69836589Y-121315990D01*
X70106842Y-121427932D01*
X70393740Y-121485000D01*
X70686260Y-121485000D01*
X70973158Y-121427932D01*
X71243411Y-121315990D01*
X71486632Y-121153475D01*
X71693475Y-120946632D01*
X71734656Y-120885000D01*
X75156531Y-120885000D01*
X75200000Y-120889281D01*
X75243469Y-120885000D01*
X75243477Y-120885000D01*
X75373490Y-120872195D01*
X75540313Y-120821589D01*
X75694059Y-120739411D01*
X75828817Y-120628817D01*
X75856534Y-120595044D01*
X76931914Y-119519665D01*
X76998815Y-119601185D01*
X77095506Y-119680537D01*
X77205820Y-119739502D01*
X77325518Y-119775812D01*
X77450000Y-119788072D01*
X78550000Y-119788072D01*
X78633258Y-119779872D01*
X82765000Y-119779872D01*
X82765000Y-120220128D01*
X82850890Y-120651925D01*
X83019369Y-121058669D01*
X83263962Y-121424729D01*
X83575271Y-121736038D01*
X83941331Y-121980631D01*
X84348075Y-122149110D01*
X84779872Y-122235000D01*
X85220128Y-122235000D01*
X85651925Y-122149110D01*
X86058669Y-121980631D01*
X86424729Y-121736038D01*
X86736038Y-121424729D01*
X86980631Y-121058669D01*
X87149110Y-120651925D01*
X87235000Y-120220128D01*
X87235000Y-119779872D01*
X87149110Y-119348075D01*
X86980631Y-118941331D01*
X86736038Y-118575271D01*
X86424729Y-118263962D01*
X86058669Y-118019369D01*
X85651925Y-117850890D01*
X85220128Y-117765000D01*
X84779872Y-117765000D01*
X84348075Y-117850890D01*
X83941331Y-118019369D01*
X83575271Y-118263962D01*
X83263962Y-118575271D01*
X83019369Y-118941331D01*
X82850890Y-119348075D01*
X82765000Y-119779872D01*
X78633258Y-119779872D01*
X78674482Y-119775812D01*
X78794180Y-119739502D01*
X78904494Y-119680537D01*
X79001185Y-119601185D01*
X79080537Y-119504494D01*
X79139502Y-119394180D01*
X79175812Y-119274482D01*
X79188072Y-119150000D01*
X79188072Y-118050000D01*
X79175812Y-117925518D01*
X79139502Y-117805820D01*
X79080537Y-117695506D01*
X79001185Y-117598815D01*
X78904494Y-117519463D01*
X78794180Y-117460498D01*
X78674482Y-117424188D01*
X78550000Y-117411928D01*
X77450000Y-117411928D01*
X77325518Y-117424188D01*
X77205820Y-117460498D01*
X77095506Y-117519463D01*
X76998815Y-117598815D01*
X76919463Y-117695506D01*
X76909043Y-117715000D01*
X76643469Y-117715000D01*
X76600000Y-117710719D01*
X76556531Y-117715000D01*
X76556523Y-117715000D01*
X76441306Y-117726348D01*
X76426509Y-117727805D01*
X76375903Y-117743157D01*
X76259687Y-117778411D01*
X76105941Y-117860589D01*
X76105939Y-117860590D01*
X76105940Y-117860590D01*
X76004953Y-117943468D01*
X76004951Y-117943470D01*
X75971183Y-117971183D01*
X75943470Y-118004951D01*
X74833422Y-119115000D01*
X71734656Y-119115000D01*
X71693475Y-119053368D01*
X71486632Y-118846525D01*
X71243411Y-118684010D01*
X70973158Y-118572068D01*
X70686260Y-118515000D01*
X70393740Y-118515000D01*
X70106842Y-118572068D01*
X69836589Y-118684010D01*
X69593368Y-118846525D01*
X69461513Y-118978380D01*
X69439502Y-118905820D01*
X69380537Y-118795506D01*
X69301185Y-118698815D01*
X69204494Y-118619463D01*
X69094180Y-118560498D01*
X68974482Y-118524188D01*
X68850000Y-118511928D01*
X68285750Y-118515000D01*
X68127000Y-118673750D01*
X67873000Y-118673750D01*
X67714250Y-118515000D01*
X67150000Y-118511928D01*
X67025518Y-118524188D01*
X66905820Y-118560498D01*
X66795506Y-118619463D01*
X66698815Y-118698815D01*
X66619463Y-118795506D01*
X66560498Y-118905820D01*
X66524188Y-119025518D01*
X66511928Y-119150000D01*
X57067065Y-119150000D01*
X56980631Y-118941331D01*
X56736038Y-118575271D01*
X56424729Y-118263962D01*
X56058669Y-118019369D01*
X55651925Y-117850890D01*
X55220128Y-117765000D01*
X54779872Y-117765000D01*
X54348075Y-117850890D01*
X53941331Y-118019369D01*
X53575271Y-118263962D01*
X53263962Y-118575271D01*
X53019369Y-118941331D01*
X52850890Y-119348075D01*
X52765000Y-119779872D01*
X50660000Y-119779872D01*
X50660000Y-115660000D01*
X89340000Y-115660000D01*
X89340001Y-149340000D01*
G37*
G04 #@! TD.AperFunction*
D24*
X62240001Y-135314803D02*
X62240000Y-138962677D01*
X62236324Y-139000000D01*
X62240000Y-139037322D01*
X62240000Y-139037332D01*
X62250997Y-139148985D01*
X62284665Y-139259974D01*
X62294454Y-139292246D01*
X62365026Y-139424276D01*
X62404871Y-139472826D01*
X62459999Y-139540001D01*
X62489002Y-139563803D01*
X63036200Y-140111002D01*
X63059999Y-140140001D01*
X63088997Y-140163799D01*
X63175723Y-140234974D01*
X63298346Y-140300518D01*
X63307753Y-140305546D01*
X63451014Y-140349003D01*
X63562667Y-140360000D01*
X63562676Y-140360000D01*
X63599999Y-140363676D01*
X63637322Y-140360000D01*
X64782850Y-140360000D01*
X64682795Y-140509744D01*
X64604774Y-140698102D01*
X64565000Y-140898061D01*
X64565000Y-141101939D01*
X64604774Y-141301898D01*
X64682795Y-141490256D01*
X64796063Y-141659774D01*
X64940226Y-141803937D01*
X65109744Y-141917205D01*
X65298102Y-141995226D01*
X65498061Y-142035000D01*
X65701939Y-142035000D01*
X65901898Y-141995226D01*
X66090256Y-141917205D01*
X66259774Y-141803937D01*
X66403937Y-141659774D01*
X66517205Y-141490256D01*
X66595226Y-141301898D01*
X66635000Y-141101939D01*
X66635000Y-141039801D01*
X66811928Y-140862874D01*
X66811928Y-141175000D01*
X66824188Y-141299482D01*
X66860498Y-141419180D01*
X66919463Y-141529494D01*
X66998815Y-141626185D01*
X67095506Y-141705537D01*
X67205820Y-141764502D01*
X67325518Y-141800812D01*
X67450000Y-141813072D01*
X68250000Y-141813072D01*
X68374482Y-141800812D01*
X68494180Y-141764502D01*
X68600000Y-141707939D01*
X68705820Y-141764502D01*
X68825518Y-141800812D01*
X68950000Y-141813072D01*
X69064250Y-141810000D01*
X69223000Y-141651250D01*
X69223000Y-140927000D01*
X69203000Y-140927000D01*
X69203000Y-140673000D01*
X69223000Y-140673000D01*
X69223000Y-139948750D01*
X69064250Y-139790000D01*
X68950000Y-139786928D01*
X68825518Y-139799188D01*
X68705820Y-139835498D01*
X68610000Y-139886716D01*
X68610000Y-138627331D01*
X68613677Y-138589998D01*
X68609738Y-138550000D01*
X68599003Y-138441012D01*
X68555546Y-138297751D01*
X68484974Y-138165722D01*
X68390001Y-138049997D01*
X68361002Y-138026198D01*
X67798805Y-137464002D01*
X67775003Y-137434999D01*
X67738072Y-137404691D01*
X67738072Y-137125000D01*
X67725812Y-137000518D01*
X67725655Y-136999999D01*
X67725812Y-136999482D01*
X67738072Y-136875000D01*
X67738072Y-136475000D01*
X67725812Y-136350518D01*
X67725655Y-136350000D01*
X67725812Y-136349482D01*
X67738072Y-136225000D01*
X67738072Y-136135000D01*
X67787678Y-136135000D01*
X67825000Y-136138676D01*
X67862322Y-136135000D01*
X67862333Y-136135000D01*
X67973986Y-136124003D01*
X68117247Y-136080546D01*
X68249276Y-136009974D01*
X68365001Y-135915001D01*
X68388803Y-135885998D01*
X69261004Y-135013798D01*
X69290001Y-134990001D01*
X69384974Y-134874276D01*
X69455546Y-134742247D01*
X69499003Y-134598986D01*
X69510000Y-134487333D01*
X69510000Y-134487332D01*
X69513677Y-134450000D01*
X69510000Y-134412667D01*
X69510000Y-133926398D01*
X69545506Y-133955537D01*
X69655820Y-134014502D01*
X69775518Y-134050812D01*
X69900000Y-134063072D01*
X70114250Y-134060000D01*
X70273000Y-133901250D01*
X70273000Y-132927000D01*
X70253000Y-132927000D01*
X70253000Y-132673000D01*
X70273000Y-132673000D01*
X70273000Y-132653000D01*
X70527000Y-132653000D01*
X70527000Y-132673000D01*
X70547000Y-132673000D01*
X70547000Y-132927000D01*
X70527000Y-132927000D01*
X70527000Y-133901250D01*
X70685750Y-134060000D01*
X70900000Y-134063072D01*
X71024482Y-134050812D01*
X71144180Y-134014502D01*
X71254494Y-133955537D01*
X71351185Y-133876185D01*
X71400000Y-133816704D01*
X71448815Y-133876185D01*
X71515000Y-133930502D01*
X71515000Y-134019498D01*
X71448815Y-134073815D01*
X71369463Y-134170506D01*
X71310498Y-134280820D01*
X71274188Y-134400518D01*
X71261928Y-134525000D01*
X71261928Y-134925000D01*
X71274188Y-135049482D01*
X71275134Y-135052602D01*
X71265000Y-135143250D01*
X71332968Y-135211218D01*
X71369463Y-135279494D01*
X71447842Y-135375000D01*
X71369463Y-135470506D01*
X71332968Y-135538782D01*
X71265000Y-135606750D01*
X71275134Y-135697398D01*
X71274188Y-135700518D01*
X71261928Y-135825000D01*
X71261928Y-135915000D01*
X71162322Y-135915000D01*
X71124999Y-135911324D01*
X71087676Y-135915000D01*
X71087667Y-135915000D01*
X70976014Y-135925997D01*
X70847436Y-135965000D01*
X70832753Y-135969454D01*
X70700723Y-136040026D01*
X70639829Y-136090001D01*
X70584999Y-136134999D01*
X70561200Y-136163998D01*
X70089002Y-136636197D01*
X70059999Y-136659999D01*
X70035357Y-136690026D01*
X69965026Y-136775724D01*
X69924783Y-136851013D01*
X69894454Y-136907754D01*
X69850997Y-137051015D01*
X69840000Y-137162668D01*
X69840000Y-137162678D01*
X69836324Y-137200000D01*
X69840000Y-137237323D01*
X69840000Y-139795792D01*
X69750000Y-139786928D01*
X69635750Y-139790000D01*
X69477000Y-139948750D01*
X69477000Y-140673000D01*
X69497000Y-140673000D01*
X69497000Y-140927000D01*
X69477000Y-140927000D01*
X69477000Y-141651250D01*
X69635750Y-141810000D01*
X69750000Y-141813072D01*
X69840001Y-141804208D01*
X69840001Y-142040000D01*
X64514802Y-142040000D01*
X56485000Y-134010199D01*
X56485000Y-133933740D01*
X56427932Y-133646842D01*
X56315990Y-133376589D01*
X56153475Y-133133368D01*
X55946632Y-132926525D01*
X55772240Y-132810000D01*
X55946632Y-132693475D01*
X56153475Y-132486632D01*
X56278178Y-132300000D01*
X59225199Y-132300000D01*
X62240001Y-135314803D01*
G04 #@! TA.AperFunction,Conductor*
D25*
G36*
X62240001Y-135314803D02*
G01*
X62240000Y-138962677D01*
X62236324Y-139000000D01*
X62240000Y-139037322D01*
X62240000Y-139037332D01*
X62250997Y-139148985D01*
X62284665Y-139259974D01*
X62294454Y-139292246D01*
X62365026Y-139424276D01*
X62404871Y-139472826D01*
X62459999Y-139540001D01*
X62489002Y-139563803D01*
X63036200Y-140111002D01*
X63059999Y-140140001D01*
X63088997Y-140163799D01*
X63175723Y-140234974D01*
X63298346Y-140300518D01*
X63307753Y-140305546D01*
X63451014Y-140349003D01*
X63562667Y-140360000D01*
X63562676Y-140360000D01*
X63599999Y-140363676D01*
X63637322Y-140360000D01*
X64782850Y-140360000D01*
X64682795Y-140509744D01*
X64604774Y-140698102D01*
X64565000Y-140898061D01*
X64565000Y-141101939D01*
X64604774Y-141301898D01*
X64682795Y-141490256D01*
X64796063Y-141659774D01*
X64940226Y-141803937D01*
X65109744Y-141917205D01*
X65298102Y-141995226D01*
X65498061Y-142035000D01*
X65701939Y-142035000D01*
X65901898Y-141995226D01*
X66090256Y-141917205D01*
X66259774Y-141803937D01*
X66403937Y-141659774D01*
X66517205Y-141490256D01*
X66595226Y-141301898D01*
X66635000Y-141101939D01*
X66635000Y-141039801D01*
X66811928Y-140862874D01*
X66811928Y-141175000D01*
X66824188Y-141299482D01*
X66860498Y-141419180D01*
X66919463Y-141529494D01*
X66998815Y-141626185D01*
X67095506Y-141705537D01*
X67205820Y-141764502D01*
X67325518Y-141800812D01*
X67450000Y-141813072D01*
X68250000Y-141813072D01*
X68374482Y-141800812D01*
X68494180Y-141764502D01*
X68600000Y-141707939D01*
X68705820Y-141764502D01*
X68825518Y-141800812D01*
X68950000Y-141813072D01*
X69064250Y-141810000D01*
X69223000Y-141651250D01*
X69223000Y-140927000D01*
X69203000Y-140927000D01*
X69203000Y-140673000D01*
X69223000Y-140673000D01*
X69223000Y-139948750D01*
X69064250Y-139790000D01*
X68950000Y-139786928D01*
X68825518Y-139799188D01*
X68705820Y-139835498D01*
X68610000Y-139886716D01*
X68610000Y-138627331D01*
X68613677Y-138589998D01*
X68609738Y-138550000D01*
X68599003Y-138441012D01*
X68555546Y-138297751D01*
X68484974Y-138165722D01*
X68390001Y-138049997D01*
X68361002Y-138026198D01*
X67798805Y-137464002D01*
X67775003Y-137434999D01*
X67738072Y-137404691D01*
X67738072Y-137125000D01*
X67725812Y-137000518D01*
X67725655Y-136999999D01*
X67725812Y-136999482D01*
X67738072Y-136875000D01*
X67738072Y-136475000D01*
X67725812Y-136350518D01*
X67725655Y-136350000D01*
X67725812Y-136349482D01*
X67738072Y-136225000D01*
X67738072Y-136135000D01*
X67787678Y-136135000D01*
X67825000Y-136138676D01*
X67862322Y-136135000D01*
X67862333Y-136135000D01*
X67973986Y-136124003D01*
X68117247Y-136080546D01*
X68249276Y-136009974D01*
X68365001Y-135915001D01*
X68388803Y-135885998D01*
X69261004Y-135013798D01*
X69290001Y-134990001D01*
X69384974Y-134874276D01*
X69455546Y-134742247D01*
X69499003Y-134598986D01*
X69510000Y-134487333D01*
X69510000Y-134487332D01*
X69513677Y-134450000D01*
X69510000Y-134412667D01*
X69510000Y-133926398D01*
X69545506Y-133955537D01*
X69655820Y-134014502D01*
X69775518Y-134050812D01*
X69900000Y-134063072D01*
X70114250Y-134060000D01*
X70273000Y-133901250D01*
X70273000Y-132927000D01*
X70253000Y-132927000D01*
X70253000Y-132673000D01*
X70273000Y-132673000D01*
X70273000Y-132653000D01*
X70527000Y-132653000D01*
X70527000Y-132673000D01*
X70547000Y-132673000D01*
X70547000Y-132927000D01*
X70527000Y-132927000D01*
X70527000Y-133901250D01*
X70685750Y-134060000D01*
X70900000Y-134063072D01*
X71024482Y-134050812D01*
X71144180Y-134014502D01*
X71254494Y-133955537D01*
X71351185Y-133876185D01*
X71400000Y-133816704D01*
X71448815Y-133876185D01*
X71515000Y-133930502D01*
X71515000Y-134019498D01*
X71448815Y-134073815D01*
X71369463Y-134170506D01*
X71310498Y-134280820D01*
X71274188Y-134400518D01*
X71261928Y-134525000D01*
X71261928Y-134925000D01*
X71274188Y-135049482D01*
X71275134Y-135052602D01*
X71265000Y-135143250D01*
X71332968Y-135211218D01*
X71369463Y-135279494D01*
X71447842Y-135375000D01*
X71369463Y-135470506D01*
X71332968Y-135538782D01*
X71265000Y-135606750D01*
X71275134Y-135697398D01*
X71274188Y-135700518D01*
X71261928Y-135825000D01*
X71261928Y-135915000D01*
X71162322Y-135915000D01*
X71124999Y-135911324D01*
X71087676Y-135915000D01*
X71087667Y-135915000D01*
X70976014Y-135925997D01*
X70847436Y-135965000D01*
X70832753Y-135969454D01*
X70700723Y-136040026D01*
X70639829Y-136090001D01*
X70584999Y-136134999D01*
X70561200Y-136163998D01*
X70089002Y-136636197D01*
X70059999Y-136659999D01*
X70035357Y-136690026D01*
X69965026Y-136775724D01*
X69924783Y-136851013D01*
X69894454Y-136907754D01*
X69850997Y-137051015D01*
X69840000Y-137162668D01*
X69840000Y-137162678D01*
X69836324Y-137200000D01*
X69840000Y-137237323D01*
X69840000Y-139795792D01*
X69750000Y-139786928D01*
X69635750Y-139790000D01*
X69477000Y-139948750D01*
X69477000Y-140673000D01*
X69497000Y-140673000D01*
X69497000Y-140927000D01*
X69477000Y-140927000D01*
X69477000Y-141651250D01*
X69635750Y-141810000D01*
X69750000Y-141813072D01*
X69840001Y-141804208D01*
X69840001Y-142040000D01*
X64514802Y-142040000D01*
X56485000Y-134010199D01*
X56485000Y-133933740D01*
X56427932Y-133646842D01*
X56315990Y-133376589D01*
X56153475Y-133133368D01*
X55946632Y-132926525D01*
X55772240Y-132810000D01*
X55946632Y-132693475D01*
X56153475Y-132486632D01*
X56278178Y-132300000D01*
X59225199Y-132300000D01*
X62240001Y-135314803D01*
G37*
G04 #@! TD.AperFunction*
D24*
X70560498Y-127994180D02*
X70619463Y-128104494D01*
X70656809Y-128150000D01*
X70619463Y-128195506D01*
X70560498Y-128305820D01*
X70524188Y-128425518D01*
X70511928Y-128550000D01*
X70515000Y-129014250D01*
X70673750Y-129173000D01*
X72023000Y-129173000D01*
X72023000Y-129153000D01*
X72277000Y-129153000D01*
X72277000Y-129173000D01*
X72297000Y-129173000D01*
X72297000Y-129427000D01*
X72277000Y-129427000D01*
X72277000Y-129447000D01*
X72023000Y-129447000D01*
X72023000Y-129427000D01*
X70673750Y-129427000D01*
X70515000Y-129585750D01*
X70511928Y-130050000D01*
X70524188Y-130174482D01*
X70560498Y-130294180D01*
X70619463Y-130404494D01*
X70698815Y-130501185D01*
X70715649Y-130515000D01*
X70166579Y-130515000D01*
X69885000Y-130233422D01*
X69885000Y-127885000D01*
X70527379Y-127885000D01*
X70560498Y-127994180D01*
G04 #@! TA.AperFunction,Conductor*
D25*
G36*
X70560498Y-127994180D02*
G01*
X70619463Y-128104494D01*
X70656809Y-128150000D01*
X70619463Y-128195506D01*
X70560498Y-128305820D01*
X70524188Y-128425518D01*
X70511928Y-128550000D01*
X70515000Y-129014250D01*
X70673750Y-129173000D01*
X72023000Y-129173000D01*
X72023000Y-129153000D01*
X72277000Y-129153000D01*
X72277000Y-129173000D01*
X72297000Y-129173000D01*
X72297000Y-129427000D01*
X72277000Y-129427000D01*
X72277000Y-129447000D01*
X72023000Y-129447000D01*
X72023000Y-129427000D01*
X70673750Y-129427000D01*
X70515000Y-129585750D01*
X70511928Y-130050000D01*
X70524188Y-130174482D01*
X70560498Y-130294180D01*
X70619463Y-130404494D01*
X70698815Y-130501185D01*
X70715649Y-130515000D01*
X70166579Y-130515000D01*
X69885000Y-130233422D01*
X69885000Y-127885000D01*
X70527379Y-127885000D01*
X70560498Y-127994180D01*
G37*
G04 #@! TD.AperFunction*
M02*
