G04 #@! TF.GenerationSoftware,KiCad,Pcbnew,(5.1.10)-1*
G04 #@! TF.CreationDate,2021-07-21T16:10:59+02:00*
G04 #@! TF.ProjectId,rs232-ttl,72733233-322d-4747-946c-2e6b69636164,rev?*
G04 #@! TF.SameCoordinates,Original*
G04 #@! TF.FileFunction,Legend,Bot*
G04 #@! TF.FilePolarity,Positive*
%FSLAX46Y46*%
G04 Gerber Fmt 4.6, Leading zero omitted, Abs format (unit mm)*
G04 Created by KiCad (PCBNEW (5.1.10)-1) date 2021-07-21 16:10:59*
%MOMM*%
%LPD*%
G01*
G04 APERTURE LIST*
%ADD10C,0.150000*%
%ADD11C,0.400000*%
%ADD12C,0.100000*%
%ADD13C,0.120000*%
%ADD14O,1.700000X1.700000*%
%ADD15R,1.700000X1.700000*%
%ADD16C,3.200000*%
G04 APERTURE END LIST*
D10*
X75019047Y-118052380D02*
X75590476Y-118052380D01*
X75304761Y-118052380D02*
X75304761Y-117052380D01*
X75400000Y-117195238D01*
X75495238Y-117290476D01*
X75590476Y-117338095D01*
X74638095Y-117147619D02*
X74590476Y-117100000D01*
X74495238Y-117052380D01*
X74257142Y-117052380D01*
X74161904Y-117100000D01*
X74114285Y-117147619D01*
X74066666Y-117242857D01*
X74066666Y-117338095D01*
X74114285Y-117480952D01*
X74685714Y-118052380D01*
X74066666Y-118052380D01*
X73780952Y-117052380D02*
X73447619Y-118052380D01*
X73114285Y-117052380D01*
D11*
X71161904Y-117542857D02*
X69638095Y-117542857D01*
X70400000Y-118304761D02*
X70400000Y-116780952D01*
X68761904Y-117542857D02*
X67238095Y-117542857D01*
D10*
X56595238Y-125252380D02*
X56928571Y-124776190D01*
X57166666Y-125252380D02*
X57166666Y-124252380D01*
X56785714Y-124252380D01*
X56690476Y-124300000D01*
X56642857Y-124347619D01*
X56595238Y-124442857D01*
X56595238Y-124585714D01*
X56642857Y-124680952D01*
X56690476Y-124728571D01*
X56785714Y-124776190D01*
X57166666Y-124776190D01*
X56214285Y-125204761D02*
X56071428Y-125252380D01*
X55833333Y-125252380D01*
X55738095Y-125204761D01*
X55690476Y-125157142D01*
X55642857Y-125061904D01*
X55642857Y-124966666D01*
X55690476Y-124871428D01*
X55738095Y-124823809D01*
X55833333Y-124776190D01*
X56023809Y-124728571D01*
X56119047Y-124680952D01*
X56166666Y-124633333D01*
X56214285Y-124538095D01*
X56214285Y-124442857D01*
X56166666Y-124347619D01*
X56119047Y-124300000D01*
X56023809Y-124252380D01*
X55785714Y-124252380D01*
X55642857Y-124300000D01*
X55261904Y-124347619D02*
X55214285Y-124300000D01*
X55119047Y-124252380D01*
X54880952Y-124252380D01*
X54785714Y-124300000D01*
X54738095Y-124347619D01*
X54690476Y-124442857D01*
X54690476Y-124538095D01*
X54738095Y-124680952D01*
X55309523Y-125252380D01*
X54690476Y-125252380D01*
X54357142Y-124252380D02*
X53738095Y-124252380D01*
X54071428Y-124633333D01*
X53928571Y-124633333D01*
X53833333Y-124680952D01*
X53785714Y-124728571D01*
X53738095Y-124823809D01*
X53738095Y-125061904D01*
X53785714Y-125157142D01*
X53833333Y-125204761D01*
X53928571Y-125252380D01*
X54214285Y-125252380D01*
X54309523Y-125204761D01*
X54357142Y-125157142D01*
X53357142Y-124347619D02*
X53309523Y-124300000D01*
X53214285Y-124252380D01*
X52976190Y-124252380D01*
X52880952Y-124300000D01*
X52833333Y-124347619D01*
X52785714Y-124442857D01*
X52785714Y-124538095D01*
X52833333Y-124680952D01*
X53404761Y-125252380D01*
X52785714Y-125252380D01*
X86071428Y-123627380D02*
X85500000Y-123627380D01*
X85785714Y-124627380D02*
X85785714Y-123627380D01*
X85309523Y-123627380D02*
X84738095Y-123627380D01*
X85023809Y-124627380D02*
X85023809Y-123627380D01*
X83928571Y-124627380D02*
X84404761Y-124627380D01*
X84404761Y-123627380D01*
X86761904Y-126658333D02*
X86809523Y-126610714D01*
X86904761Y-126467857D01*
X86952380Y-126372619D01*
X87000000Y-126229761D01*
X87047619Y-125991666D01*
X87047619Y-125801190D01*
X87000000Y-125563095D01*
X86952380Y-125420238D01*
X86904761Y-125325000D01*
X86809523Y-125182142D01*
X86761904Y-125134523D01*
X86476190Y-125277380D02*
X85857142Y-125277380D01*
X86190476Y-125658333D01*
X86047619Y-125658333D01*
X85952380Y-125705952D01*
X85904761Y-125753571D01*
X85857142Y-125848809D01*
X85857142Y-126086904D01*
X85904761Y-126182142D01*
X85952380Y-126229761D01*
X86047619Y-126277380D01*
X86333333Y-126277380D01*
X86428571Y-126229761D01*
X86476190Y-126182142D01*
X85428571Y-126182142D02*
X85380952Y-126229761D01*
X85428571Y-126277380D01*
X85476190Y-126229761D01*
X85428571Y-126182142D01*
X85428571Y-126277380D01*
X85047619Y-125277380D02*
X84428571Y-125277380D01*
X84761904Y-125658333D01*
X84619047Y-125658333D01*
X84523809Y-125705952D01*
X84476190Y-125753571D01*
X84428571Y-125848809D01*
X84428571Y-126086904D01*
X84476190Y-126182142D01*
X84523809Y-126229761D01*
X84619047Y-126277380D01*
X84904761Y-126277380D01*
X85000000Y-126229761D01*
X85047619Y-126182142D01*
X84142857Y-125277380D02*
X83809523Y-126277380D01*
X83476190Y-125277380D01*
X83238095Y-126658333D02*
X83190476Y-126610714D01*
X83095238Y-126467857D01*
X83047619Y-126372619D01*
X83000000Y-126229761D01*
X82952380Y-125991666D01*
X82952380Y-125801190D01*
X83000000Y-125563095D01*
X83047619Y-125420238D01*
X83095238Y-125325000D01*
X83190476Y-125182142D01*
X83238095Y-125134523D01*
D12*
G36*
X62000000Y-132200000D02*
G01*
X58000000Y-130200000D01*
X62000000Y-128200000D01*
X62000000Y-132200000D01*
G37*
X62000000Y-132200000D02*
X58000000Y-130200000D01*
X62000000Y-128200000D01*
X62000000Y-132200000D01*
G36*
X81000000Y-132200000D02*
G01*
X77000000Y-130200000D01*
X81000000Y-128200000D01*
X81000000Y-132200000D01*
G37*
X81000000Y-132200000D02*
X77000000Y-130200000D01*
X81000000Y-128200000D01*
X81000000Y-132200000D01*
G36*
X81000000Y-135400000D02*
G01*
X77000000Y-137400000D01*
X77000000Y-133400000D01*
X81000000Y-135400000D01*
G37*
X81000000Y-135400000D02*
X77000000Y-137400000D01*
X77000000Y-133400000D01*
X81000000Y-135400000D01*
G36*
X62000000Y-135400000D02*
G01*
X58000000Y-137400000D01*
X58000000Y-133400000D01*
X62000000Y-135400000D01*
G37*
X62000000Y-135400000D02*
X58000000Y-137400000D01*
X58000000Y-133400000D01*
X62000000Y-135400000D01*
D10*
X87852380Y-130657142D02*
X87852380Y-131276190D01*
X88233333Y-130942857D01*
X88233333Y-131085714D01*
X88280952Y-131180952D01*
X88328571Y-131228571D01*
X88423809Y-131276190D01*
X88661904Y-131276190D01*
X88757142Y-131228571D01*
X88804761Y-131180952D01*
X88852380Y-131085714D01*
X88852380Y-130800000D01*
X88804761Y-130704761D01*
X88757142Y-130657142D01*
X87852380Y-132180952D02*
X87852380Y-131704761D01*
X88328571Y-131657142D01*
X88280952Y-131704761D01*
X88233333Y-131800000D01*
X88233333Y-132038095D01*
X88280952Y-132133333D01*
X88328571Y-132180952D01*
X88423809Y-132228571D01*
X88661904Y-132228571D01*
X88757142Y-132180952D01*
X88804761Y-132133333D01*
X88852380Y-132038095D01*
X88852380Y-131800000D01*
X88804761Y-131704761D01*
X88757142Y-131657142D01*
X88852380Y-132657142D02*
X88185714Y-132657142D01*
X88280952Y-132657142D02*
X88233333Y-132704761D01*
X88185714Y-132800000D01*
X88185714Y-132942857D01*
X88233333Y-133038095D01*
X88328571Y-133085714D01*
X88852380Y-133085714D01*
X88328571Y-133085714D02*
X88233333Y-133133333D01*
X88185714Y-133228571D01*
X88185714Y-133371428D01*
X88233333Y-133466666D01*
X88328571Y-133514285D01*
X88852380Y-133514285D01*
X88852380Y-133990476D02*
X88185714Y-133990476D01*
X88280952Y-133990476D02*
X88233333Y-134038095D01*
X88185714Y-134133333D01*
X88185714Y-134276190D01*
X88233333Y-134371428D01*
X88328571Y-134419047D01*
X88852380Y-134419047D01*
X88328571Y-134419047D02*
X88233333Y-134466666D01*
X88185714Y-134561904D01*
X88185714Y-134704761D01*
X88233333Y-134800000D01*
X88328571Y-134847619D01*
X88852380Y-134847619D01*
X71619047Y-148185714D02*
X71619047Y-148852380D01*
X71857142Y-147804761D02*
X72095238Y-148519047D01*
X71476190Y-148519047D01*
X70904761Y-147852380D02*
X70809523Y-147852380D01*
X70714285Y-147900000D01*
X70666666Y-147947619D01*
X70619047Y-148042857D01*
X70571428Y-148233333D01*
X70571428Y-148471428D01*
X70619047Y-148661904D01*
X70666666Y-148757142D01*
X70714285Y-148804761D01*
X70809523Y-148852380D01*
X70904761Y-148852380D01*
X71000000Y-148804761D01*
X71047619Y-148757142D01*
X71095238Y-148661904D01*
X71142857Y-148471428D01*
X71142857Y-148233333D01*
X71095238Y-148042857D01*
X71047619Y-147947619D01*
X71000000Y-147900000D01*
X70904761Y-147852380D01*
X70142857Y-148852380D02*
X70142857Y-148185714D01*
X70142857Y-148280952D02*
X70095238Y-148233333D01*
X70000000Y-148185714D01*
X69857142Y-148185714D01*
X69761904Y-148233333D01*
X69714285Y-148328571D01*
X69714285Y-148852380D01*
X69714285Y-148328571D02*
X69666666Y-148233333D01*
X69571428Y-148185714D01*
X69428571Y-148185714D01*
X69333333Y-148233333D01*
X69285714Y-148328571D01*
X69285714Y-148852380D01*
X68809523Y-148852380D02*
X68809523Y-148185714D01*
X68809523Y-148280952D02*
X68761904Y-148233333D01*
X68666666Y-148185714D01*
X68523809Y-148185714D01*
X68428571Y-148233333D01*
X68380952Y-148328571D01*
X68380952Y-148852380D01*
X68380952Y-148328571D02*
X68333333Y-148233333D01*
X68238095Y-148185714D01*
X68095238Y-148185714D01*
X68000000Y-148233333D01*
X67952380Y-148328571D01*
X67952380Y-148852380D01*
D13*
X55000000Y-142600000D02*
X55800000Y-143000000D01*
X55000000Y-142600000D02*
X55800000Y-142200000D01*
X55000000Y-142000000D02*
X55000000Y-144000000D01*
X57600000Y-142600000D02*
X55000000Y-142600000D01*
X85000000Y-142600000D02*
X84200000Y-143000000D01*
X85000000Y-142600000D02*
X84200000Y-142200000D01*
X85000000Y-142000000D02*
X85000000Y-144200000D01*
X81800000Y-142600000D02*
X85000000Y-142600000D01*
X83200000Y-145000000D02*
X81200000Y-145000000D01*
X82000000Y-145000000D02*
X82400000Y-144200000D01*
X82000000Y-145000000D02*
X81600000Y-144200000D01*
X82000000Y-144400000D02*
X82000000Y-145000000D01*
X81000000Y-120000000D02*
X83000000Y-120000000D01*
X82000000Y-120000000D02*
X82400000Y-120600000D01*
X82000000Y-120000000D02*
X81600000Y-120600000D01*
X82000000Y-130200000D02*
X82000000Y-120000000D01*
X82000000Y-135400000D02*
X82000000Y-144400000D01*
X67400000Y-142600000D02*
X57600000Y-142600000D01*
X72600000Y-142600000D02*
X82000000Y-142600000D01*
D10*
X81547619Y-130704761D02*
X81500000Y-130752380D01*
X81452380Y-130847619D01*
X81452380Y-131085714D01*
X81500000Y-131180952D01*
X81547619Y-131228571D01*
X81642857Y-131276190D01*
X81738095Y-131276190D01*
X81880952Y-131228571D01*
X82452380Y-130657142D01*
X82452380Y-131276190D01*
X81452380Y-132180952D02*
X81452380Y-131704761D01*
X81928571Y-131657142D01*
X81880952Y-131704761D01*
X81833333Y-131800000D01*
X81833333Y-132038095D01*
X81880952Y-132133333D01*
X81928571Y-132180952D01*
X82023809Y-132228571D01*
X82261904Y-132228571D01*
X82357142Y-132180952D01*
X82404761Y-132133333D01*
X82452380Y-132038095D01*
X82452380Y-131800000D01*
X82404761Y-131704761D01*
X82357142Y-131657142D01*
X82452380Y-132657142D02*
X81785714Y-132657142D01*
X81880952Y-132657142D02*
X81833333Y-132704761D01*
X81785714Y-132800000D01*
X81785714Y-132942857D01*
X81833333Y-133038095D01*
X81928571Y-133085714D01*
X82452380Y-133085714D01*
X81928571Y-133085714D02*
X81833333Y-133133333D01*
X81785714Y-133228571D01*
X81785714Y-133371428D01*
X81833333Y-133466666D01*
X81928571Y-133514285D01*
X82452380Y-133514285D01*
X82452380Y-133990476D02*
X81785714Y-133990476D01*
X81880952Y-133990476D02*
X81833333Y-134038095D01*
X81785714Y-134133333D01*
X81785714Y-134276190D01*
X81833333Y-134371428D01*
X81928571Y-134419047D01*
X82452380Y-134419047D01*
X81928571Y-134419047D02*
X81833333Y-134466666D01*
X81785714Y-134561904D01*
X81785714Y-134704761D01*
X81833333Y-134800000D01*
X81928571Y-134847619D01*
X82452380Y-134847619D01*
X71942857Y-142052380D02*
X71323809Y-142052380D01*
X71657142Y-142433333D01*
X71514285Y-142433333D01*
X71419047Y-142480952D01*
X71371428Y-142528571D01*
X71323809Y-142623809D01*
X71323809Y-142861904D01*
X71371428Y-142957142D01*
X71419047Y-143004761D01*
X71514285Y-143052380D01*
X71800000Y-143052380D01*
X71895238Y-143004761D01*
X71942857Y-142957142D01*
X70704761Y-142052380D02*
X70609523Y-142052380D01*
X70514285Y-142100000D01*
X70466666Y-142147619D01*
X70419047Y-142242857D01*
X70371428Y-142433333D01*
X70371428Y-142671428D01*
X70419047Y-142861904D01*
X70466666Y-142957142D01*
X70514285Y-143004761D01*
X70609523Y-143052380D01*
X70704761Y-143052380D01*
X70800000Y-143004761D01*
X70847619Y-142957142D01*
X70895238Y-142861904D01*
X70942857Y-142671428D01*
X70942857Y-142433333D01*
X70895238Y-142242857D01*
X70847619Y-142147619D01*
X70800000Y-142100000D01*
X70704761Y-142052380D01*
X69942857Y-143052380D02*
X69942857Y-142385714D01*
X69942857Y-142480952D02*
X69895238Y-142433333D01*
X69800000Y-142385714D01*
X69657142Y-142385714D01*
X69561904Y-142433333D01*
X69514285Y-142528571D01*
X69514285Y-143052380D01*
X69514285Y-142528571D02*
X69466666Y-142433333D01*
X69371428Y-142385714D01*
X69228571Y-142385714D01*
X69133333Y-142433333D01*
X69085714Y-142528571D01*
X69085714Y-143052380D01*
X68609523Y-143052380D02*
X68609523Y-142385714D01*
X68609523Y-142480952D02*
X68561904Y-142433333D01*
X68466666Y-142385714D01*
X68323809Y-142385714D01*
X68228571Y-142433333D01*
X68180952Y-142528571D01*
X68180952Y-143052380D01*
X68180952Y-142528571D02*
X68133333Y-142433333D01*
X68038095Y-142385714D01*
X67895238Y-142385714D01*
X67800000Y-142433333D01*
X67752380Y-142528571D01*
X67752380Y-143052380D01*
X59809523Y-145652380D02*
X59809523Y-144652380D01*
X59476190Y-145366666D01*
X59142857Y-144652380D01*
X59142857Y-145652380D01*
X58761904Y-144652380D02*
X58142857Y-144652380D01*
X58476190Y-145033333D01*
X58333333Y-145033333D01*
X58238095Y-145080952D01*
X58190476Y-145128571D01*
X58142857Y-145223809D01*
X58142857Y-145461904D01*
X58190476Y-145557142D01*
X58238095Y-145604761D01*
X58333333Y-145652380D01*
X58619047Y-145652380D01*
X58714285Y-145604761D01*
X58761904Y-145557142D01*
%LPC*%
D14*
X55000000Y-136620000D03*
X55000000Y-134080000D03*
X55000000Y-131540000D03*
D15*
X55000000Y-129000000D03*
D14*
X85000000Y-136620000D03*
X85000000Y-134080000D03*
X85000000Y-131540000D03*
D15*
X85000000Y-129000000D03*
D14*
X70540000Y-120000000D03*
D15*
X68000000Y-120000000D03*
D16*
X85000000Y-120000000D03*
X55000000Y-145000000D03*
X85000000Y-145000000D03*
X55000000Y-120000000D03*
M02*
