%TF.GenerationSoftware,KiCad,Pcbnew,(6.0.7)*%
%TF.CreationDate,2022-10-27T00:55:32+02:00*%
%TF.ProjectId,flipdot-brose-esp32,666c6970-646f-4742-9d62-726f73652d65,rev?*%
%TF.SameCoordinates,Original*%
%TF.FileFunction,Paste,Top*%
%TF.FilePolarity,Positive*%
%FSLAX46Y46*%
G04 Gerber Fmt 4.6, Leading zero omitted, Abs format (unit mm)*
G04 Created by KiCad (PCBNEW (6.0.7)) date 2022-10-27 00:55:32*
%MOMM*%
%LPD*%
G01*
G04 APERTURE LIST*
G04 Aperture macros list*
%AMRoundRect*
0 Rectangle with rounded corners*
0 $1 Rounding radius*
0 $2 $3 $4 $5 $6 $7 $8 $9 X,Y pos of 4 corners*
0 Add a 4 corners polygon primitive as box body*
4,1,4,$2,$3,$4,$5,$6,$7,$8,$9,$2,$3,0*
0 Add four circle primitives for the rounded corners*
1,1,$1+$1,$2,$3*
1,1,$1+$1,$4,$5*
1,1,$1+$1,$6,$7*
1,1,$1+$1,$8,$9*
0 Add four rect primitives between the rounded corners*
20,1,$1+$1,$2,$3,$4,$5,0*
20,1,$1+$1,$4,$5,$6,$7,0*
20,1,$1+$1,$6,$7,$8,$9,0*
20,1,$1+$1,$8,$9,$2,$3,0*%
G04 Aperture macros list end*
%ADD10R,2.500000X1.800000*%
%ADD11RoundRect,0.225000X-0.225000X-0.250000X0.225000X-0.250000X0.225000X0.250000X-0.225000X0.250000X0*%
%ADD12RoundRect,0.225000X-0.250000X0.225000X-0.250000X-0.225000X0.250000X-0.225000X0.250000X0.225000X0*%
%ADD13RoundRect,0.150000X-0.150000X0.675000X-0.150000X-0.675000X0.150000X-0.675000X0.150000X0.675000X0*%
%ADD14RoundRect,0.200000X0.200000X0.275000X-0.200000X0.275000X-0.200000X-0.275000X0.200000X-0.275000X0*%
%ADD15RoundRect,0.200000X-0.275000X0.200000X-0.275000X-0.200000X0.275000X-0.200000X0.275000X0.200000X0*%
%ADD16RoundRect,0.250000X1.412500X0.550000X-1.412500X0.550000X-1.412500X-0.550000X1.412500X-0.550000X0*%
%ADD17RoundRect,0.250000X-0.250000X-0.475000X0.250000X-0.475000X0.250000X0.475000X-0.250000X0.475000X0*%
%ADD18RoundRect,0.250000X0.250000X0.475000X-0.250000X0.475000X-0.250000X-0.475000X0.250000X-0.475000X0*%
%ADD19RoundRect,0.100000X-0.637500X-0.100000X0.637500X-0.100000X0.637500X0.100000X-0.637500X0.100000X0*%
%ADD20RoundRect,0.150000X0.725000X0.150000X-0.725000X0.150000X-0.725000X-0.150000X0.725000X-0.150000X0*%
%ADD21RoundRect,0.150000X0.875000X0.150000X-0.875000X0.150000X-0.875000X-0.150000X0.875000X-0.150000X0*%
%ADD22RoundRect,0.150000X0.825000X0.150000X-0.825000X0.150000X-0.825000X-0.150000X0.825000X-0.150000X0*%
%ADD23R,0.900000X2.000000*%
%ADD24R,2.000000X0.900000*%
%ADD25R,5.000000X5.000000*%
%ADD26R,1.550000X1.300000*%
%ADD27RoundRect,0.200000X-0.200000X-0.275000X0.200000X-0.275000X0.200000X0.275000X-0.200000X0.275000X0*%
%ADD28RoundRect,0.200000X0.275000X-0.200000X0.275000X0.200000X-0.275000X0.200000X-0.275000X-0.200000X0*%
%ADD29R,0.400000X0.650000*%
%ADD30R,1.140000X0.600000*%
%ADD31R,1.140000X0.300000*%
%ADD32R,1.200000X0.900000*%
%ADD33RoundRect,0.218750X-0.256250X0.218750X-0.256250X-0.218750X0.256250X-0.218750X0.256250X0.218750X0*%
%ADD34RoundRect,0.218750X-0.218750X-0.256250X0.218750X-0.256250X0.218750X0.256250X-0.218750X0.256250X0*%
%ADD35RoundRect,0.150000X0.587500X0.150000X-0.587500X0.150000X-0.587500X-0.150000X0.587500X-0.150000X0*%
%ADD36RoundRect,0.225000X0.225000X0.250000X-0.225000X0.250000X-0.225000X-0.250000X0.225000X-0.250000X0*%
%ADD37RoundRect,0.250000X-0.475000X0.250000X-0.475000X-0.250000X0.475000X-0.250000X0.475000X0.250000X0*%
%ADD38RoundRect,0.250000X0.475000X-0.250000X0.475000X0.250000X-0.475000X0.250000X-0.475000X-0.250000X0*%
%ADD39RoundRect,0.250000X-0.550000X1.412500X-0.550000X-1.412500X0.550000X-1.412500X0.550000X1.412500X0*%
G04 APERTURE END LIST*
D10*
%TO.C,D1*%
X100400000Y-132700000D03*
X104400000Y-132700000D03*
%TD*%
D11*
%TO.C,C21*%
X101925000Y-87900000D03*
X103475000Y-87900000D03*
%TD*%
%TO.C,C31*%
X90250000Y-108400000D03*
X91800000Y-108400000D03*
%TD*%
%TO.C,C30*%
X89025000Y-41400000D03*
X90575000Y-41400000D03*
%TD*%
%TO.C,C29*%
X90050000Y-95300000D03*
X91600000Y-95300000D03*
%TD*%
D12*
%TO.C,C28*%
X91300000Y-80825000D03*
X91300000Y-82375000D03*
%TD*%
D11*
%TO.C,C27*%
X90225000Y-121400000D03*
X91775000Y-121400000D03*
%TD*%
%TO.C,C26*%
X88950000Y-55300000D03*
X90500000Y-55300000D03*
%TD*%
%TO.C,C25*%
X89250000Y-129200000D03*
X90800000Y-129200000D03*
%TD*%
D13*
%TO.C,U23*%
X44805000Y-107925000D03*
X43535000Y-107925000D03*
X42265000Y-107925000D03*
X40995000Y-107925000D03*
X40995000Y-102675000D03*
X42265000Y-102675000D03*
X43535000Y-102675000D03*
X44805000Y-102675000D03*
%TD*%
D14*
%TO.C,R4*%
X42175000Y-99500000D03*
X43825000Y-99500000D03*
%TD*%
D15*
%TO.C,R3*%
X39100000Y-106400000D03*
X39100000Y-104750000D03*
%TD*%
D16*
%TO.C,C24*%
X40562500Y-94600000D03*
X45637500Y-94600000D03*
%TD*%
%TO.C,C19*%
X40562500Y-87100000D03*
X45637500Y-87100000D03*
%TD*%
%TO.C,C7*%
X40600000Y-113300000D03*
X45675000Y-113300000D03*
%TD*%
D11*
%TO.C,C6*%
X40600000Y-123600000D03*
X42150000Y-123600000D03*
%TD*%
D17*
%TO.C,C5*%
X40200000Y-121700000D03*
X42100000Y-121700000D03*
%TD*%
%TO.C,C4*%
X40200000Y-119600000D03*
X42100000Y-119600000D03*
%TD*%
D18*
%TO.C,C3*%
X45650000Y-123200000D03*
X43750000Y-123200000D03*
%TD*%
%TO.C,C1*%
X45650000Y-121100000D03*
X43750000Y-121100000D03*
%TD*%
D19*
%TO.C,U9*%
X92862500Y-96725000D03*
X92862500Y-97375000D03*
X92862500Y-98025000D03*
X92862500Y-98675000D03*
X92862500Y-99325000D03*
X92862500Y-99975000D03*
X92862500Y-100625000D03*
X92862500Y-101275000D03*
X87137500Y-101275000D03*
X87137500Y-100625000D03*
X87137500Y-99975000D03*
X87137500Y-99325000D03*
X87137500Y-98675000D03*
X87137500Y-98025000D03*
X87137500Y-97375000D03*
X87137500Y-96725000D03*
%TD*%
D20*
%TO.C,U21*%
X72225000Y-74080000D03*
X72225000Y-72810000D03*
X72225000Y-71540000D03*
X72225000Y-70270000D03*
X72225000Y-69000000D03*
X72225000Y-67730000D03*
X72225000Y-66460000D03*
X72225000Y-65190000D03*
X72225000Y-63920000D03*
X81775000Y-63920000D03*
X81775000Y-65190000D03*
X81775000Y-66460000D03*
X81775000Y-67730000D03*
X81775000Y-69000000D03*
X81775000Y-70270000D03*
X81775000Y-71540000D03*
X81775000Y-72810000D03*
X81775000Y-74080000D03*
%TD*%
D21*
%TO.C,U20*%
X81650000Y-87080000D03*
X81650000Y-85810000D03*
X81650000Y-84540000D03*
X81650000Y-83270000D03*
X81650000Y-82000000D03*
X81650000Y-80730000D03*
X81650000Y-79460000D03*
X81650000Y-78190000D03*
X81650000Y-76920000D03*
X72350000Y-76920000D03*
X72350000Y-78190000D03*
X72350000Y-79460000D03*
X72350000Y-80730000D03*
X72350000Y-82000000D03*
X72350000Y-83270000D03*
X72350000Y-84540000D03*
X72350000Y-85810000D03*
X72350000Y-87080000D03*
%TD*%
D20*
%TO.C,U19*%
X81775000Y-60080000D03*
X81775000Y-58810000D03*
X81775000Y-57540000D03*
X81775000Y-56270000D03*
X81775000Y-55000000D03*
X81775000Y-53730000D03*
X81775000Y-52460000D03*
X81775000Y-51190000D03*
X81775000Y-49920000D03*
X72225000Y-49920000D03*
X72225000Y-51190000D03*
X72225000Y-52460000D03*
X72225000Y-53730000D03*
X72225000Y-55000000D03*
X72225000Y-56270000D03*
X72225000Y-57540000D03*
X72225000Y-58810000D03*
X72225000Y-60080000D03*
%TD*%
D21*
%TO.C,U18*%
X81650000Y-126080000D03*
X81650000Y-124810000D03*
X81650000Y-123540000D03*
X81650000Y-122270000D03*
X81650000Y-121000000D03*
X81650000Y-119730000D03*
X81650000Y-118460000D03*
X81650000Y-117190000D03*
X81650000Y-115920000D03*
X72350000Y-115920000D03*
X72350000Y-117190000D03*
X72350000Y-118460000D03*
X72350000Y-119730000D03*
X72350000Y-121000000D03*
X72350000Y-122270000D03*
X72350000Y-123540000D03*
X72350000Y-124810000D03*
X72350000Y-126080000D03*
%TD*%
%TO.C,U17*%
X81650000Y-100080000D03*
X81650000Y-98810000D03*
X81650000Y-97540000D03*
X81650000Y-96270000D03*
X81650000Y-95000000D03*
X81650000Y-93730000D03*
X81650000Y-92460000D03*
X81650000Y-91190000D03*
X81650000Y-89920000D03*
X72350000Y-89920000D03*
X72350000Y-91190000D03*
X72350000Y-92460000D03*
X72350000Y-93730000D03*
X72350000Y-95000000D03*
X72350000Y-96270000D03*
X72350000Y-97540000D03*
X72350000Y-98810000D03*
X72350000Y-100080000D03*
%TD*%
D20*
%TO.C,U16*%
X81775000Y-46080000D03*
X81775000Y-44810000D03*
X81775000Y-43540000D03*
X81775000Y-42270000D03*
X81775000Y-41000000D03*
X81775000Y-39730000D03*
X81775000Y-38460000D03*
X81775000Y-37190000D03*
X81775000Y-35920000D03*
X72225000Y-35920000D03*
X72225000Y-37190000D03*
X72225000Y-38460000D03*
X72225000Y-39730000D03*
X72225000Y-41000000D03*
X72225000Y-42270000D03*
X72225000Y-43540000D03*
X72225000Y-44810000D03*
X72225000Y-46080000D03*
%TD*%
D21*
%TO.C,U15*%
X81650000Y-139080000D03*
X81650000Y-137810000D03*
X81650000Y-136540000D03*
X81650000Y-135270000D03*
X81650000Y-134000000D03*
X81650000Y-132730000D03*
X81650000Y-131460000D03*
X81650000Y-130190000D03*
X81650000Y-128920000D03*
X72350000Y-128920000D03*
X72350000Y-130190000D03*
X72350000Y-131460000D03*
X72350000Y-132730000D03*
X72350000Y-134000000D03*
X72350000Y-135270000D03*
X72350000Y-136540000D03*
X72350000Y-137810000D03*
X72350000Y-139080000D03*
%TD*%
%TO.C,U14*%
X81650000Y-113080000D03*
X81650000Y-111810000D03*
X81650000Y-110540000D03*
X81650000Y-109270000D03*
X81650000Y-108000000D03*
X81650000Y-106730000D03*
X81650000Y-105460000D03*
X81650000Y-104190000D03*
X81650000Y-102920000D03*
X72350000Y-102920000D03*
X72350000Y-104190000D03*
X72350000Y-105460000D03*
X72350000Y-106730000D03*
X72350000Y-108000000D03*
X72350000Y-109270000D03*
X72350000Y-110540000D03*
X72350000Y-111810000D03*
X72350000Y-113080000D03*
%TD*%
D19*
%TO.C,U13*%
X87137500Y-122725000D03*
X87137500Y-123375000D03*
X87137500Y-124025000D03*
X87137500Y-124675000D03*
X87137500Y-125325000D03*
X87137500Y-125975000D03*
X87137500Y-126625000D03*
X87137500Y-127275000D03*
X92862500Y-127275000D03*
X92862500Y-126625000D03*
X92862500Y-125975000D03*
X92862500Y-125325000D03*
X92862500Y-124675000D03*
X92862500Y-124025000D03*
X92862500Y-123375000D03*
X92862500Y-122725000D03*
%TD*%
%TO.C,U12*%
X87137500Y-83725000D03*
X87137500Y-84375000D03*
X87137500Y-85025000D03*
X87137500Y-85675000D03*
X87137500Y-86325000D03*
X87137500Y-86975000D03*
X87137500Y-87625000D03*
X87137500Y-88275000D03*
X92862500Y-88275000D03*
X92862500Y-87625000D03*
X92862500Y-86975000D03*
X92862500Y-86325000D03*
X92862500Y-85675000D03*
X92862500Y-85025000D03*
X92862500Y-84375000D03*
X92862500Y-83725000D03*
%TD*%
%TO.C,U11*%
X87137500Y-109725000D03*
X87137500Y-110375000D03*
X87137500Y-111025000D03*
X87137500Y-111675000D03*
X87137500Y-112325000D03*
X87137500Y-112975000D03*
X87137500Y-113625000D03*
X87137500Y-114275000D03*
X92862500Y-114275000D03*
X92862500Y-113625000D03*
X92862500Y-112975000D03*
X92862500Y-112325000D03*
X92862500Y-111675000D03*
X92862500Y-111025000D03*
X92862500Y-110375000D03*
X92862500Y-109725000D03*
%TD*%
%TO.C,U10*%
X86137500Y-56725000D03*
X86137500Y-57375000D03*
X86137500Y-58025000D03*
X86137500Y-58675000D03*
X86137500Y-59325000D03*
X86137500Y-59975000D03*
X86137500Y-60625000D03*
X86137500Y-61275000D03*
X91862500Y-61275000D03*
X91862500Y-60625000D03*
X91862500Y-59975000D03*
X91862500Y-59325000D03*
X91862500Y-58675000D03*
X91862500Y-58025000D03*
X91862500Y-57375000D03*
X91862500Y-56725000D03*
%TD*%
D22*
%TO.C,U8*%
X103475000Y-51645000D03*
X103475000Y-50375000D03*
X103475000Y-49105000D03*
X103475000Y-47835000D03*
X103475000Y-46565000D03*
X103475000Y-45295000D03*
X103475000Y-44025000D03*
X103475000Y-42755000D03*
X98525000Y-42755000D03*
X98525000Y-44025000D03*
X98525000Y-45295000D03*
X98525000Y-46565000D03*
X98525000Y-47835000D03*
X98525000Y-49105000D03*
X98525000Y-50375000D03*
X98525000Y-51645000D03*
%TD*%
D19*
%TO.C,U4*%
X87137500Y-133725000D03*
X87137500Y-134375000D03*
X87137500Y-135025000D03*
X87137500Y-135675000D03*
X87137500Y-136325000D03*
X87137500Y-136975000D03*
X87137500Y-137625000D03*
X87137500Y-138275000D03*
X92862500Y-138275000D03*
X92862500Y-137625000D03*
X92862500Y-136975000D03*
X92862500Y-136325000D03*
X92862500Y-135675000D03*
X92862500Y-135025000D03*
X92862500Y-134375000D03*
X92862500Y-133725000D03*
%TD*%
%TO.C,U3*%
X86137500Y-42725000D03*
X86137500Y-43375000D03*
X86137500Y-44025000D03*
X86137500Y-44675000D03*
X86137500Y-45325000D03*
X86137500Y-45975000D03*
X86137500Y-46625000D03*
X86137500Y-47275000D03*
X91862500Y-47275000D03*
X91862500Y-46625000D03*
X91862500Y-45975000D03*
X91862500Y-45325000D03*
X91862500Y-44675000D03*
X91862500Y-44025000D03*
X91862500Y-43375000D03*
X91862500Y-42725000D03*
%TD*%
D23*
%TO.C,U2*%
X113255000Y-60900000D03*
X111985000Y-60900000D03*
X110715000Y-60900000D03*
X109445000Y-60900000D03*
X108175000Y-60900000D03*
X106905000Y-60900000D03*
X105635000Y-60900000D03*
X104365000Y-60900000D03*
X103095000Y-60900000D03*
X101825000Y-60900000D03*
X100555000Y-60900000D03*
X99285000Y-60900000D03*
X98015000Y-60900000D03*
X96745000Y-60900000D03*
D24*
X95745000Y-63685000D03*
X95745000Y-64955000D03*
X95745000Y-66225000D03*
X95745000Y-67495000D03*
X95745000Y-68765000D03*
X95745000Y-70035000D03*
X95745000Y-71305000D03*
X95745000Y-72575000D03*
X95745000Y-73845000D03*
X95745000Y-75115000D03*
D23*
X96745000Y-77900000D03*
X98015000Y-77900000D03*
X99285000Y-77900000D03*
X100555000Y-77900000D03*
X101825000Y-77900000D03*
X103095000Y-77900000D03*
X104365000Y-77900000D03*
X105635000Y-77900000D03*
X106905000Y-77900000D03*
X108175000Y-77900000D03*
X109445000Y-77900000D03*
X110715000Y-77900000D03*
X111985000Y-77900000D03*
X113255000Y-77900000D03*
D25*
X105755000Y-68400000D03*
%TD*%
D19*
%TO.C,U1*%
X98637500Y-89475000D03*
X98637500Y-90125000D03*
X98637500Y-90775000D03*
X98637500Y-91425000D03*
X98637500Y-92075000D03*
X98637500Y-92725000D03*
X98637500Y-93375000D03*
X98637500Y-94025000D03*
X98637500Y-94675000D03*
X98637500Y-95325000D03*
X104362500Y-95325000D03*
X104362500Y-94675000D03*
X104362500Y-94025000D03*
X104362500Y-93375000D03*
X104362500Y-92725000D03*
X104362500Y-92075000D03*
X104362500Y-91425000D03*
X104362500Y-90775000D03*
X104362500Y-90125000D03*
X104362500Y-89475000D03*
%TD*%
D26*
%TO.C,SW3*%
X94675000Y-35150000D03*
X86725000Y-35150000D03*
X86725000Y-39650000D03*
X94675000Y-39650000D03*
%TD*%
%TO.C,SW2*%
X96525000Y-105750000D03*
X104475000Y-105750000D03*
X104475000Y-101250000D03*
X96525000Y-101250000D03*
%TD*%
%TO.C,SW1*%
X106625000Y-105750000D03*
X114575000Y-105750000D03*
X114575000Y-101250000D03*
X106625000Y-101250000D03*
%TD*%
D15*
%TO.C,R46*%
X106200000Y-35975000D03*
X106200000Y-37625000D03*
%TD*%
%TO.C,R45*%
X106400000Y-41975000D03*
X106400000Y-43625000D03*
%TD*%
%TO.C,R44*%
X106200000Y-81350000D03*
X106200000Y-83000000D03*
%TD*%
%TO.C,R43*%
X106400000Y-49350000D03*
X106400000Y-51000000D03*
%TD*%
%TO.C,R42*%
X112100000Y-51650000D03*
X112100000Y-53300000D03*
%TD*%
D27*
%TO.C,R31*%
X110075000Y-97400000D03*
X111725000Y-97400000D03*
%TD*%
%TO.C,R30*%
X99550000Y-57600000D03*
X101200000Y-57600000D03*
%TD*%
D14*
%TO.C,R29*%
X111750000Y-94900000D03*
X110100000Y-94900000D03*
%TD*%
D27*
%TO.C,R28*%
X99512500Y-55900000D03*
X101162500Y-55900000D03*
%TD*%
D15*
%TO.C,R19*%
X104600000Y-97200000D03*
X104600000Y-98850000D03*
%TD*%
%TO.C,R18*%
X106500000Y-97200000D03*
X106500000Y-98850000D03*
%TD*%
D28*
%TO.C,R2*%
X94400000Y-43825000D03*
X94400000Y-42175000D03*
%TD*%
D14*
%TO.C,R1*%
X110400000Y-56600000D03*
X108750000Y-56600000D03*
%TD*%
D29*
%TO.C,Q11*%
X96250000Y-49800000D03*
X95600000Y-49800000D03*
X94950000Y-49800000D03*
X94950000Y-51700000D03*
X95600000Y-51700000D03*
X96250000Y-51700000D03*
%TD*%
D30*
%TO.C,J6*%
X108312500Y-42550000D03*
X108312500Y-41750000D03*
D31*
X108312500Y-39600000D03*
X108312500Y-40100000D03*
X108312500Y-40600000D03*
X108312500Y-41100000D03*
X108312500Y-39100000D03*
X108312500Y-38600000D03*
X108312500Y-38100000D03*
X108312500Y-37600000D03*
D30*
X108312500Y-36950000D03*
X108312500Y-36150000D03*
%TD*%
D32*
%TO.C,D22*%
X110600000Y-81350000D03*
X110600000Y-84650000D03*
%TD*%
%TO.C,D21*%
X108200000Y-84650000D03*
X108200000Y-81350000D03*
%TD*%
D33*
%TO.C,D18*%
X112100000Y-50175000D03*
X112100000Y-48600000D03*
%TD*%
D10*
%TO.C,D17*%
X96400000Y-120200000D03*
X100400000Y-120200000D03*
%TD*%
D34*
%TO.C,D11*%
X96462500Y-57600000D03*
X98037500Y-57600000D03*
%TD*%
%TO.C,D10*%
X96462500Y-55900000D03*
X98037500Y-55900000D03*
%TD*%
D35*
%TO.C,D6*%
X93137500Y-76950000D03*
X93137500Y-75050000D03*
X91262500Y-76000000D03*
%TD*%
D36*
%TO.C,C23*%
X99575000Y-53400000D03*
X98025000Y-53400000D03*
%TD*%
D11*
%TO.C,C22*%
X102425000Y-53400000D03*
X103975000Y-53400000D03*
%TD*%
D37*
%TO.C,C20*%
X101500000Y-115800000D03*
X101500000Y-117700000D03*
%TD*%
D36*
%TO.C,C18*%
X113575000Y-58400000D03*
X112025000Y-58400000D03*
%TD*%
D12*
%TO.C,C16*%
X105500000Y-115725000D03*
X105500000Y-117275000D03*
%TD*%
D37*
%TO.C,C15*%
X103600000Y-115800000D03*
X103600000Y-117700000D03*
%TD*%
D38*
%TO.C,C14*%
X105300000Y-110500000D03*
X105300000Y-108600000D03*
%TD*%
D37*
%TO.C,C13*%
X103200000Y-112100000D03*
X103200000Y-114000000D03*
%TD*%
D39*
%TO.C,C12*%
X98400000Y-108925000D03*
X98400000Y-114000000D03*
%TD*%
D37*
%TO.C,C11*%
X105300000Y-112150000D03*
X105300000Y-114050000D03*
%TD*%
D38*
%TO.C,C10*%
X103200000Y-110500000D03*
X103200000Y-108600000D03*
%TD*%
D11*
%TO.C,C9*%
X112050000Y-55000000D03*
X113600000Y-55000000D03*
%TD*%
%TO.C,C8*%
X112050000Y-56600000D03*
X113600000Y-56600000D03*
%TD*%
D36*
%TO.C,C2*%
X110375000Y-58400000D03*
X108825000Y-58400000D03*
%TD*%
M02*
