%
M48
M72
T01C0.02362
T02C0.03200
T03C0.03937
T04C0.04000
T05C0.04400
T06C0.12598
%
T01
X46800Y65415
X56800Y65415
X49300Y85415
X66800Y97915
X59300Y107915
X79300Y127915
X64300Y150415
X94300Y177915
X104300Y187346
X114300Y192915
X131800Y185415
X144300Y217915
X146800Y222915
X141800Y235415
X136800Y235415
X144300Y245415
X136800Y250415
X144300Y255415
X136800Y260415
X139300Y270415
X144300Y267915
X111800Y307915
X84300Y275415
X84300Y270415
X84300Y240415
X76800Y212915
X79300Y205415
X89300Y202915
X81800Y192915
X64300Y187915
X51800Y190415
X44300Y182915
X26800Y190415
X34300Y220415
X29300Y232915
X51800Y212915
X29300Y267915
X29300Y302915
X29300Y327915
X54300Y310415
X81800Y322915
X29300Y355415
X31800Y387915
X156800Y320415
X166800Y310415
X191800Y307915
X196800Y325415
X216800Y295415
X199300Y282915
X201800Y247915
X206800Y230415
X209300Y217915
X226800Y222915
X246800Y212915
X251800Y207915
X256800Y202915
X261800Y197915
X241800Y182915
X211800Y192915
X191800Y180415
X181800Y197915
X176800Y202915
X171800Y207915
X166800Y212915
X106800Y150415
X124300Y132915
X106800Y112915
X116800Y102915
X99300Y95415
X96800Y80415
X124300Y60415
X129300Y77915
X161800Y72915
X161800Y67915
X164300Y82915
X169300Y90415
X161800Y92915
X184300Y107915
X216800Y110415
X224300Y110415
X234300Y139817
X239300Y142915
X279300Y112915
X254300Y82915
X251800Y55415
X254300Y35415
X221800Y57915
X221800Y77915
X166800Y35415
X281800Y77915
X316800Y75415
X344300Y90415
X341800Y117915
X371800Y135415
X376800Y130415
X356800Y190415
X344300Y200415
X336800Y205415
X344300Y210415
X336800Y215415
X351800Y230415
X336800Y237915
X344300Y252915
X354300Y280415
X356800Y315415
X354300Y342915
X356800Y350415
X349300Y350415
X361800Y372915
X341800Y375415
X306800Y355415
X321800Y320415
X306800Y267915
X311800Y245415
X316800Y240415
X311800Y235415
X316800Y230415
X314300Y222915
X314300Y215415
X289300Y190415
X301800Y152915
X309300Y140415
X361800Y57915
X361800Y35415
X254300Y240415
X239300Y302915
X239300Y310415
X259300Y350415
X259300Y360415
X244300Y360415
X244300Y355415
X206800Y397915
X16800Y120415
X9300Y70415
T02
X41800Y112915
X41800Y122915
X174300Y162915
X174300Y172915
X206800Y172915
X206800Y162915
X236800Y162915
X236800Y172915
X271800Y172915
X271800Y162915
X266800Y112915
X266800Y72915
X244300Y75415
X271800Y50415
X271800Y40415
X204300Y75415
X346800Y105415
X356800Y105415
T03
X319300Y110415
X309300Y110415
X299300Y110415
X309300Y42915
X319300Y42915
X329300Y42915
X331800Y375415
X321800Y375415
X311800Y375415
X301800Y375415
X291800Y375415
X281800Y375415
X271800Y375415
X261800Y375415
X251800Y375415
X241800Y375415
X231800Y375415
X221800Y375415
X211800Y375415
X201800Y375415
X191800Y375415
X181800Y375415
X171800Y375415
X161800Y375415
X151800Y375415
X141800Y375415
X131800Y375415
X121800Y375415
X111800Y375415
X101800Y375415
X91800Y375415
X81800Y375415
X71800Y375415
X61800Y375415
X51800Y375415
X41800Y375415
X41800Y385415
X51800Y385415
X61800Y385415
X71800Y385415
X81800Y385415
X91800Y385415
X101800Y385415
X111800Y385415
X121800Y385415
X131800Y385415
X141800Y385415
X151800Y385415
X161800Y385415
X171800Y385415
X181800Y385415
X191800Y385415
X201800Y385415
X211800Y385415
X221800Y385415
X231800Y385415
X241800Y385415
X251800Y385415
X261800Y385415
X271800Y385415
X281800Y385415
X291800Y385415
X301800Y385415
X311800Y385415
X321800Y385415
X331800Y385415
T04
X381800Y267915
X381800Y257915
X381800Y247915
X381800Y237915
X381800Y227915
X381800Y217915
X381800Y207915
X347100Y176815
X347100Y159015
X321500Y159015
X321500Y176815
X381800Y97915
X381800Y75415
X249300Y127915
X239300Y127915
X231800Y60415
X209600Y61815
X209600Y44015
X184000Y44015
X184000Y61815
X54300Y42915
X44300Y42915
X34300Y42915
X39600Y76515
X39600Y94315
X14000Y94315
X14000Y76515
T05
X331800Y75415
X371800Y75415
T06
X14300Y42915
X14300Y340415
X14300Y410415
X381800Y410415
X381800Y345415
X381800Y42915
M30
