G75*
%MOIN*%
%OFA0B0*%
%FSLAX25Y25*%
%IPPOS*%
%LPD*%
%AMOC8*
5,1,8,0,0,1.08239X$1,22.5*
%
%ADD10C,0.13398*%
%ADD11C,0.06737*%
%ADD12R,0.07099X0.07898*%
%ADD13R,0.07898X0.07099*%
%ADD14C,0.06800*%
%ADD15OC8,0.06737*%
%ADD16R,0.03400X0.08800*%
%ADD17OC8,0.06800*%
%ADD18C,0.07400*%
%ADD19OC8,0.07100*%
%ADD20C,0.07100*%
%ADD21OC8,0.06000*%
%ADD22C,0.04762*%
D10*
X0014300Y0042915D03*
X0014300Y0340415D03*
X0014300Y0410415D03*
X0381800Y0410415D03*
X0381800Y0345415D03*
X0381800Y0042915D03*
D11*
X0329300Y0045884D02*
X0329300Y0039947D01*
X0319300Y0039947D02*
X0319300Y0045884D01*
X0309300Y0045884D02*
X0309300Y0039947D01*
X0309300Y0107447D02*
X0309300Y0113384D01*
X0319300Y0113384D02*
X0319300Y0107447D01*
X0299300Y0107447D02*
X0299300Y0113384D01*
D12*
X0114898Y0095415D03*
X0103702Y0095415D03*
X0103702Y0080415D03*
X0114898Y0080415D03*
D13*
X0116800Y0068514D03*
X0116800Y0057317D03*
D14*
X0034300Y0045915D02*
X0034300Y0039915D01*
X0044300Y0039915D02*
X0044300Y0045915D01*
X0054300Y0045915D02*
X0054300Y0039915D01*
X0042600Y0076515D02*
X0036600Y0076515D01*
X0036600Y0094315D02*
X0042600Y0094315D01*
X0017000Y0094315D02*
X0011000Y0094315D01*
X0011000Y0076515D02*
X0017000Y0076515D01*
X0181000Y0061815D02*
X0187000Y0061815D01*
X0187000Y0044015D02*
X0181000Y0044015D01*
X0206600Y0044015D02*
X0212600Y0044015D01*
X0212600Y0061815D02*
X0206600Y0061815D01*
X0239300Y0124915D02*
X0239300Y0130915D01*
X0249300Y0130915D02*
X0249300Y0124915D01*
X0318500Y0159015D02*
X0324500Y0159015D01*
X0324500Y0176815D02*
X0318500Y0176815D01*
X0344100Y0176815D02*
X0350100Y0176815D01*
X0350100Y0159015D02*
X0344100Y0159015D01*
X0378800Y0207915D02*
X0384800Y0207915D01*
X0384800Y0217915D02*
X0378800Y0217915D01*
X0378800Y0227915D02*
X0384800Y0227915D01*
X0384800Y0237915D02*
X0378800Y0237915D01*
X0378800Y0247915D02*
X0384800Y0247915D01*
X0384800Y0257915D02*
X0378800Y0257915D01*
X0378800Y0267915D02*
X0384800Y0267915D01*
D15*
X0331800Y0375415D03*
X0321800Y0375415D03*
X0311800Y0375415D03*
X0301800Y0375415D03*
X0291800Y0375415D03*
X0281800Y0375415D03*
X0271800Y0375415D03*
X0261800Y0375415D03*
X0251800Y0375415D03*
X0241800Y0375415D03*
X0231800Y0375415D03*
X0221800Y0375415D03*
X0211800Y0375415D03*
X0201800Y0375415D03*
X0191800Y0375415D03*
X0181800Y0375415D03*
X0171800Y0375415D03*
X0161800Y0375415D03*
X0151800Y0375415D03*
X0141800Y0375415D03*
X0131800Y0375415D03*
X0121800Y0375415D03*
X0111800Y0375415D03*
X0101800Y0375415D03*
X0091800Y0375415D03*
X0081800Y0375415D03*
X0071800Y0375415D03*
X0061800Y0375415D03*
X0051800Y0375415D03*
X0041800Y0375415D03*
X0041800Y0385415D03*
X0051800Y0385415D03*
X0061800Y0385415D03*
X0071800Y0385415D03*
X0081800Y0385415D03*
X0091800Y0385415D03*
X0101800Y0385415D03*
X0111800Y0385415D03*
X0121800Y0385415D03*
X0131800Y0385415D03*
X0141800Y0385415D03*
X0151800Y0385415D03*
X0161800Y0385415D03*
X0171800Y0385415D03*
X0181800Y0385415D03*
X0191800Y0385415D03*
X0201800Y0385415D03*
X0211800Y0385415D03*
X0221800Y0385415D03*
X0231800Y0385415D03*
X0241800Y0385415D03*
X0251800Y0385415D03*
X0261800Y0385415D03*
X0271800Y0385415D03*
X0281800Y0385415D03*
X0291800Y0385415D03*
X0301800Y0385415D03*
X0311800Y0385415D03*
X0321800Y0385415D03*
X0331800Y0385415D03*
D16*
X0279300Y0322215D03*
X0274300Y0322215D03*
X0269300Y0322215D03*
X0264300Y0322215D03*
X0259300Y0322215D03*
X0254300Y0322215D03*
X0249300Y0322215D03*
X0244300Y0322215D03*
X0239300Y0322215D03*
X0239300Y0283615D03*
X0244300Y0283615D03*
X0249300Y0283615D03*
X0254300Y0283615D03*
X0259300Y0283615D03*
X0264300Y0283615D03*
X0269300Y0283615D03*
X0274300Y0283615D03*
X0279300Y0283615D03*
X0126800Y0283115D03*
X0121800Y0283115D03*
X0116800Y0283115D03*
X0111800Y0283115D03*
X0106800Y0283115D03*
X0101800Y0283115D03*
X0096800Y0283115D03*
X0091800Y0283115D03*
X0086800Y0283115D03*
X0086800Y0322715D03*
X0091800Y0322715D03*
X0096800Y0322715D03*
X0101800Y0322715D03*
X0106800Y0322715D03*
X0111800Y0322715D03*
X0116800Y0322715D03*
X0121800Y0322715D03*
X0126800Y0322715D03*
D17*
X0231800Y0060415D03*
X0381800Y0075415D03*
X0381800Y0097915D03*
D18*
X0371800Y0075415D03*
X0331800Y0075415D03*
D19*
X0356800Y0105415D03*
X0271800Y0050415D03*
D20*
X0271800Y0040415D03*
X0346800Y0105415D03*
D21*
X0271800Y0162915D03*
X0271800Y0172915D03*
X0236800Y0172915D03*
X0236800Y0162915D03*
X0206800Y0162915D03*
X0206800Y0172915D03*
X0174300Y0172915D03*
X0174300Y0162915D03*
X0204300Y0075415D03*
X0244300Y0075415D03*
X0266800Y0072915D03*
X0266800Y0112915D03*
X0041800Y0112915D03*
X0041800Y0122915D03*
D22*
X0059300Y0107915D03*
X0066800Y0097915D03*
X0049300Y0085415D03*
X0046800Y0065415D03*
X0056800Y0065415D03*
X0096800Y0080415D03*
X0099300Y0095415D03*
X0116800Y0102915D03*
X0106800Y0112915D03*
X0124300Y0132915D03*
X0106800Y0150415D03*
X0079300Y0127915D03*
X0064300Y0150415D03*
X0094300Y0177915D03*
X0104300Y0187346D03*
X0114300Y0192915D03*
X0131800Y0185415D03*
X0144300Y0217915D03*
X0146800Y0222915D03*
X0141800Y0235415D03*
X0136800Y0235415D03*
X0144300Y0245415D03*
X0136800Y0250415D03*
X0144300Y0255415D03*
X0136800Y0260415D03*
X0139300Y0270415D03*
X0144300Y0267915D03*
X0111800Y0307915D03*
X0084300Y0275415D03*
X0084300Y0270415D03*
X0084300Y0240415D03*
X0076800Y0212915D03*
X0079300Y0205415D03*
X0089300Y0202915D03*
X0081800Y0192915D03*
X0064300Y0187915D03*
X0051800Y0190415D03*
X0044300Y0182915D03*
X0026800Y0190415D03*
X0034300Y0220415D03*
X0029300Y0232915D03*
X0051800Y0212915D03*
X0029300Y0267915D03*
X0029300Y0302915D03*
X0029300Y0327915D03*
X0054300Y0310415D03*
X0081800Y0322915D03*
X0029300Y0355415D03*
X0031800Y0387915D03*
X0156800Y0320415D03*
X0166800Y0310415D03*
X0191800Y0307915D03*
X0196800Y0325415D03*
X0216800Y0295415D03*
X0199300Y0282915D03*
X0201800Y0247915D03*
X0206800Y0230415D03*
X0209300Y0217915D03*
X0226800Y0222915D03*
X0246800Y0212915D03*
X0251800Y0207915D03*
X0256800Y0202915D03*
X0261800Y0197915D03*
X0241800Y0182915D03*
X0211800Y0192915D03*
X0191800Y0180415D03*
X0181800Y0197915D03*
X0176800Y0202915D03*
X0171800Y0207915D03*
X0166800Y0212915D03*
X0234300Y0139817D03*
X0239300Y0142915D03*
X0224300Y0110415D03*
X0216800Y0110415D03*
X0184300Y0107915D03*
X0169300Y0090415D03*
X0161800Y0092915D03*
X0164300Y0082915D03*
X0161800Y0072915D03*
X0161800Y0067915D03*
X0166800Y0035415D03*
X0129300Y0077915D03*
X0124300Y0060415D03*
X0221800Y0057915D03*
X0221800Y0077915D03*
X0251800Y0055415D03*
X0254300Y0035415D03*
X0281800Y0077915D03*
X0254300Y0082915D03*
X0279300Y0112915D03*
X0309300Y0140415D03*
X0301800Y0152915D03*
X0289300Y0190415D03*
X0314300Y0215415D03*
X0314300Y0222915D03*
X0316800Y0230415D03*
X0311800Y0235415D03*
X0316800Y0240415D03*
X0311800Y0245415D03*
X0306800Y0267915D03*
X0336800Y0237915D03*
X0344300Y0252915D03*
X0351800Y0230415D03*
X0336800Y0215415D03*
X0344300Y0210415D03*
X0336800Y0205415D03*
X0344300Y0200415D03*
X0356800Y0190415D03*
X0371800Y0135415D03*
X0376800Y0130415D03*
X0341800Y0117915D03*
X0344300Y0090415D03*
X0316800Y0075415D03*
X0361800Y0057915D03*
X0361800Y0035415D03*
X0254300Y0240415D03*
X0239300Y0302915D03*
X0239300Y0310415D03*
X0259300Y0350415D03*
X0259300Y0360415D03*
X0244300Y0360415D03*
X0244300Y0355415D03*
X0206800Y0397915D03*
X0306800Y0355415D03*
X0321800Y0320415D03*
X0349300Y0350415D03*
X0356800Y0350415D03*
X0354300Y0342915D03*
X0356800Y0315415D03*
X0354300Y0280415D03*
X0361800Y0372915D03*
X0341800Y0375415D03*
X0016800Y0120415D03*
X0009300Y0070415D03*
M02*
