G75*
%MOIN*%
%OFA0B0*%
%FSLAX25Y25*%
%IPPOS*%
%LPD*%
%AMOC8*
5,1,8,0,0,1.08239X$1,22.5*
%
%ADD10C,0.05937*%
%ADD11R,0.06299X0.07098*%
%ADD12R,0.07098X0.06299*%
%ADD13C,0.06000*%
%ADD14OC8,0.05937*%
%ADD15R,0.02600X0.08000*%
%ADD16OC8,0.06000*%
%ADD17C,0.06600*%
%ADD18OC8,0.06300*%
%ADD19C,0.06300*%
%ADD20OC8,0.05200*%
%ADD21C,0.01600*%
%ADD22C,0.03962*%
%ADD23C,0.02400*%
%ADD24C,0.03200*%
D10*
X0299300Y0107447D02*
X0299300Y0113384D01*
X0309300Y0113384D02*
X0309300Y0107447D01*
X0319300Y0107447D02*
X0319300Y0113384D01*
X0319300Y0045884D02*
X0319300Y0039947D01*
X0309300Y0039947D02*
X0309300Y0045884D01*
X0329300Y0045884D02*
X0329300Y0039947D01*
D11*
X0114898Y0080415D03*
X0103702Y0080415D03*
X0103702Y0095415D03*
X0114898Y0095415D03*
D12*
X0116800Y0068514D03*
X0116800Y0057317D03*
D13*
X0054300Y0045915D02*
X0054300Y0039915D01*
X0044300Y0039915D02*
X0044300Y0045915D01*
X0034300Y0045915D02*
X0034300Y0039915D01*
X0036600Y0076515D02*
X0042600Y0076515D01*
X0042600Y0094315D02*
X0036600Y0094315D01*
X0017000Y0094315D02*
X0011000Y0094315D01*
X0011000Y0076515D02*
X0017000Y0076515D01*
X0181000Y0061815D02*
X0187000Y0061815D01*
X0187000Y0044015D02*
X0181000Y0044015D01*
X0206600Y0044015D02*
X0212600Y0044015D01*
X0212600Y0061815D02*
X0206600Y0061815D01*
X0239300Y0124915D02*
X0239300Y0130915D01*
X0249300Y0130915D02*
X0249300Y0124915D01*
X0318500Y0159015D02*
X0324500Y0159015D01*
X0324500Y0176815D02*
X0318500Y0176815D01*
X0344100Y0176815D02*
X0350100Y0176815D01*
X0350100Y0159015D02*
X0344100Y0159015D01*
X0378800Y0207915D02*
X0384800Y0207915D01*
X0384800Y0217915D02*
X0378800Y0217915D01*
X0378800Y0227915D02*
X0384800Y0227915D01*
X0384800Y0237915D02*
X0378800Y0237915D01*
X0378800Y0247915D02*
X0384800Y0247915D01*
X0384800Y0257915D02*
X0378800Y0257915D01*
X0378800Y0267915D02*
X0384800Y0267915D01*
D14*
X0331800Y0375415D03*
X0321800Y0375415D03*
X0311800Y0375415D03*
X0301800Y0375415D03*
X0291800Y0375415D03*
X0281800Y0375415D03*
X0271800Y0375415D03*
X0261800Y0375415D03*
X0251800Y0375415D03*
X0241800Y0375415D03*
X0231800Y0375415D03*
X0221800Y0375415D03*
X0211800Y0375415D03*
X0201800Y0375415D03*
X0191800Y0375415D03*
X0181800Y0375415D03*
X0171800Y0375415D03*
X0161800Y0375415D03*
X0151800Y0375415D03*
X0141800Y0375415D03*
X0131800Y0375415D03*
X0121800Y0375415D03*
X0111800Y0375415D03*
X0101800Y0375415D03*
X0091800Y0375415D03*
X0081800Y0375415D03*
X0071800Y0375415D03*
X0061800Y0375415D03*
X0051800Y0375415D03*
X0041800Y0375415D03*
X0041800Y0385415D03*
X0051800Y0385415D03*
X0061800Y0385415D03*
X0071800Y0385415D03*
X0081800Y0385415D03*
X0091800Y0385415D03*
X0101800Y0385415D03*
X0111800Y0385415D03*
X0121800Y0385415D03*
X0131800Y0385415D03*
X0141800Y0385415D03*
X0151800Y0385415D03*
X0161800Y0385415D03*
X0171800Y0385415D03*
X0181800Y0385415D03*
X0191800Y0385415D03*
X0201800Y0385415D03*
X0211800Y0385415D03*
X0221800Y0385415D03*
X0231800Y0385415D03*
X0241800Y0385415D03*
X0251800Y0385415D03*
X0261800Y0385415D03*
X0271800Y0385415D03*
X0281800Y0385415D03*
X0291800Y0385415D03*
X0301800Y0385415D03*
X0311800Y0385415D03*
X0321800Y0385415D03*
X0331800Y0385415D03*
D15*
X0279300Y0322215D03*
X0274300Y0322215D03*
X0269300Y0322215D03*
X0264300Y0322215D03*
X0259300Y0322215D03*
X0254300Y0322215D03*
X0249300Y0322215D03*
X0244300Y0322215D03*
X0239300Y0322215D03*
X0239300Y0283615D03*
X0244300Y0283615D03*
X0249300Y0283615D03*
X0254300Y0283615D03*
X0259300Y0283615D03*
X0264300Y0283615D03*
X0269300Y0283615D03*
X0274300Y0283615D03*
X0279300Y0283615D03*
X0126800Y0283115D03*
X0121800Y0283115D03*
X0116800Y0283115D03*
X0111800Y0283115D03*
X0106800Y0283115D03*
X0101800Y0283115D03*
X0096800Y0283115D03*
X0091800Y0283115D03*
X0086800Y0283115D03*
X0086800Y0322715D03*
X0091800Y0322715D03*
X0096800Y0322715D03*
X0101800Y0322715D03*
X0106800Y0322715D03*
X0111800Y0322715D03*
X0116800Y0322715D03*
X0121800Y0322715D03*
X0126800Y0322715D03*
D16*
X0231800Y0060415D03*
X0381800Y0075415D03*
X0381800Y0097915D03*
D17*
X0371800Y0075415D03*
X0331800Y0075415D03*
D18*
X0356800Y0105415D03*
X0271800Y0050415D03*
D19*
X0271800Y0040415D03*
X0346800Y0105415D03*
D20*
X0271800Y0162915D03*
X0271800Y0172915D03*
X0236800Y0172915D03*
X0236800Y0162915D03*
X0206800Y0162915D03*
X0206800Y0172915D03*
X0174300Y0172915D03*
X0174300Y0162915D03*
X0204300Y0075415D03*
X0244300Y0075415D03*
X0266800Y0072915D03*
X0266800Y0112915D03*
X0041800Y0112915D03*
X0041800Y0122915D03*
D21*
X0021115Y0034034D02*
X0018831Y0032715D01*
X0069000Y0032715D01*
X0069000Y0053472D01*
X0069426Y0054502D01*
X0070214Y0055289D01*
X0071243Y0055715D01*
X0111251Y0055715D01*
X0111251Y0061295D01*
X0112422Y0062467D01*
X0120841Y0062467D01*
X0120925Y0062671D01*
X0122045Y0063790D01*
X0123508Y0064397D01*
X0125092Y0064397D01*
X0126555Y0063790D01*
X0127675Y0062671D01*
X0128281Y0061207D01*
X0128281Y0059624D01*
X0127675Y0058160D01*
X0126555Y0057040D01*
X0125092Y0056434D01*
X0124279Y0056434D01*
X0123560Y0055715D01*
X0157357Y0055715D01*
X0158386Y0055289D01*
X0158600Y0055075D01*
X0158600Y0064715D01*
X0122349Y0064715D01*
X0122349Y0064536D01*
X0121178Y0063364D01*
X0112422Y0063364D01*
X0111251Y0064536D01*
X0111251Y0072492D01*
X0112422Y0073663D01*
X0114000Y0073663D01*
X0114000Y0074866D01*
X0110920Y0074866D01*
X0109749Y0076038D01*
X0109749Y0084793D01*
X0110920Y0085965D01*
X0118876Y0085965D01*
X0119883Y0084958D01*
X0121500Y0086575D01*
X0121500Y0106756D01*
X0120640Y0107615D01*
X0108743Y0107615D01*
X0107714Y0108042D01*
X0106821Y0108934D01*
X0106779Y0108934D01*
X0100886Y0103042D01*
X0099857Y0102615D01*
X0076243Y0102615D01*
X0075214Y0103042D01*
X0068140Y0110115D01*
X0062698Y0110115D01*
X0063281Y0108707D01*
X0063281Y0107124D01*
X0062675Y0105660D01*
X0062100Y0105085D01*
X0062100Y0097359D01*
X0061674Y0096329D01*
X0060886Y0095542D01*
X0059600Y0094256D01*
X0059600Y0068246D01*
X0060175Y0067671D01*
X0060781Y0066207D01*
X0060781Y0064624D01*
X0060175Y0063160D01*
X0059055Y0062040D01*
X0057592Y0061434D01*
X0056008Y0061434D01*
X0054545Y0062040D01*
X0053425Y0063160D01*
X0052819Y0064624D01*
X0052819Y0066207D01*
X0053425Y0067671D01*
X0054000Y0068246D01*
X0054000Y0095972D01*
X0054426Y0097002D01*
X0056500Y0099075D01*
X0056500Y0105085D01*
X0055925Y0105660D01*
X0055319Y0107124D01*
X0055319Y0108707D01*
X0055902Y0110115D01*
X0055460Y0110115D01*
X0052100Y0106756D01*
X0052100Y0088246D01*
X0052675Y0087671D01*
X0053281Y0086207D01*
X0053281Y0084624D01*
X0052675Y0083160D01*
X0051555Y0082040D01*
X0050092Y0081434D01*
X0048508Y0081434D01*
X0047045Y0082040D01*
X0045925Y0083160D01*
X0045319Y0084624D01*
X0045319Y0086207D01*
X0045925Y0087671D01*
X0046500Y0088246D01*
X0046500Y0091517D01*
X0046261Y0091188D01*
X0045727Y0090654D01*
X0045116Y0090210D01*
X0044443Y0089867D01*
X0043724Y0089634D01*
X0042978Y0089515D01*
X0039800Y0089515D01*
X0039800Y0094115D01*
X0039400Y0094115D01*
X0039400Y0089515D01*
X0036222Y0089515D01*
X0035476Y0089634D01*
X0034757Y0089867D01*
X0034084Y0090210D01*
X0033473Y0090654D01*
X0032939Y0091188D01*
X0032495Y0091800D01*
X0032152Y0092473D01*
X0031918Y0093191D01*
X0031800Y0093938D01*
X0031800Y0094115D01*
X0039400Y0094115D01*
X0039400Y0094515D01*
X0031800Y0094515D01*
X0031800Y0094693D01*
X0031918Y0095439D01*
X0032152Y0096158D01*
X0032495Y0096831D01*
X0032939Y0097442D01*
X0033473Y0097977D01*
X0034084Y0098421D01*
X0034757Y0098764D01*
X0035476Y0098997D01*
X0036222Y0099115D01*
X0039400Y0099115D01*
X0039400Y0094516D01*
X0039800Y0094516D01*
X0039800Y0099115D01*
X0042978Y0099115D01*
X0043724Y0098997D01*
X0044443Y0098764D01*
X0045116Y0098421D01*
X0045727Y0097977D01*
X0046261Y0097442D01*
X0046500Y0097114D01*
X0046500Y0108472D01*
X0046926Y0109502D01*
X0047714Y0110289D01*
X0047714Y0110289D01*
X0051926Y0114502D01*
X0052714Y0115289D01*
X0053743Y0115715D01*
X0069857Y0115715D01*
X0070886Y0115289D01*
X0077960Y0108215D01*
X0098140Y0108215D01*
X0102819Y0112894D01*
X0102819Y0113707D01*
X0103425Y0115171D01*
X0104000Y0115746D01*
X0104000Y0124256D01*
X0069426Y0158829D01*
X0069000Y0159859D01*
X0069000Y0169256D01*
X0051821Y0186434D01*
X0051008Y0186434D01*
X0049545Y0187040D01*
X0048425Y0188160D01*
X0047819Y0189624D01*
X0047819Y0191207D01*
X0048425Y0192671D01*
X0049545Y0193790D01*
X0051008Y0194397D01*
X0052592Y0194397D01*
X0054055Y0193790D01*
X0055175Y0192671D01*
X0055781Y0191207D01*
X0055781Y0190394D01*
X0074000Y0172175D01*
X0074000Y0203472D01*
X0074426Y0204502D01*
X0075319Y0205394D01*
X0075319Y0206207D01*
X0075925Y0207671D01*
X0077045Y0208790D01*
X0077392Y0208934D01*
X0076008Y0208934D01*
X0074785Y0209441D01*
X0073386Y0208042D01*
X0072357Y0207615D01*
X0062960Y0207615D01*
X0029600Y0174256D01*
X0029600Y0071575D01*
X0032960Y0068215D01*
X0043970Y0068215D01*
X0044545Y0068790D01*
X0046008Y0069397D01*
X0047592Y0069397D01*
X0049055Y0068790D01*
X0050175Y0067671D01*
X0050781Y0066207D01*
X0050781Y0064624D01*
X0050175Y0063160D01*
X0049055Y0062040D01*
X0047592Y0061434D01*
X0046008Y0061434D01*
X0044545Y0062040D01*
X0043970Y0062615D01*
X0031243Y0062615D01*
X0030214Y0063042D01*
X0025214Y0068042D01*
X0024426Y0068829D01*
X0024000Y0069859D01*
X0024000Y0175972D01*
X0024426Y0177002D01*
X0059426Y0212002D01*
X0060214Y0212789D01*
X0061243Y0213215D01*
X0070640Y0213215D01*
X0071926Y0214502D01*
X0072714Y0215289D01*
X0073743Y0215715D01*
X0073970Y0215715D01*
X0074545Y0216290D01*
X0076008Y0216897D01*
X0077592Y0216897D01*
X0079055Y0216290D01*
X0079630Y0215715D01*
X0163970Y0215715D01*
X0164545Y0216290D01*
X0166008Y0216897D01*
X0167592Y0216897D01*
X0169055Y0216290D01*
X0169630Y0215715D01*
X0243970Y0215715D01*
X0244545Y0216290D01*
X0246008Y0216897D01*
X0247592Y0216897D01*
X0249055Y0216290D01*
X0249630Y0215715D01*
X0299857Y0215715D01*
X0300886Y0215289D01*
X0301674Y0214502D01*
X0302960Y0213215D01*
X0315640Y0213215D01*
X0320214Y0217789D01*
X0321243Y0218215D01*
X0333970Y0218215D01*
X0334545Y0218790D01*
X0336008Y0219397D01*
X0337592Y0219397D01*
X0339055Y0218790D01*
X0340175Y0217671D01*
X0340781Y0216207D01*
X0340781Y0214624D01*
X0340198Y0213215D01*
X0341470Y0213215D01*
X0342045Y0213790D01*
X0343508Y0214397D01*
X0345092Y0214397D01*
X0346555Y0213790D01*
X0347675Y0212671D01*
X0348281Y0211207D01*
X0348281Y0209624D01*
X0347675Y0208160D01*
X0346555Y0207040D01*
X0345092Y0206434D01*
X0343508Y0206434D01*
X0342045Y0207040D01*
X0341470Y0207615D01*
X0340198Y0207615D01*
X0340781Y0206207D01*
X0340781Y0204624D01*
X0340198Y0203215D01*
X0341470Y0203215D01*
X0342045Y0203790D01*
X0343508Y0204397D01*
X0345092Y0204397D01*
X0346555Y0203790D01*
X0347675Y0202671D01*
X0348281Y0201207D01*
X0348281Y0200856D01*
X0349000Y0201575D01*
X0349000Y0227585D01*
X0348425Y0228160D01*
X0347819Y0229624D01*
X0347819Y0231207D01*
X0348425Y0232671D01*
X0349545Y0233790D01*
X0351008Y0234397D01*
X0352592Y0234397D01*
X0354055Y0233790D01*
X0355175Y0232671D01*
X0355781Y0231207D01*
X0355781Y0229624D01*
X0355175Y0228160D01*
X0354600Y0227585D01*
X0354600Y0199859D01*
X0354174Y0198829D01*
X0353386Y0198042D01*
X0348386Y0193042D01*
X0347357Y0192615D01*
X0337960Y0192615D01*
X0333386Y0188042D01*
X0332357Y0187615D01*
X0292130Y0187615D01*
X0291555Y0187040D01*
X0290092Y0186434D01*
X0288508Y0186434D01*
X0287045Y0187040D01*
X0286470Y0187615D01*
X0283743Y0187615D01*
X0282714Y0188042D01*
X0281926Y0188829D01*
X0280640Y0190115D01*
X0214630Y0190115D01*
X0214055Y0189540D01*
X0212592Y0188934D01*
X0211008Y0188934D01*
X0209545Y0189540D01*
X0208970Y0190115D01*
X0117130Y0190115D01*
X0117100Y0190085D01*
X0117100Y0166575D01*
X0199174Y0084502D01*
X0199600Y0083472D01*
X0199600Y0047359D01*
X0199375Y0046815D01*
X0202348Y0046815D01*
X0202361Y0046848D01*
X0203768Y0048254D01*
X0205605Y0049015D01*
X0213595Y0049015D01*
X0215432Y0048254D01*
X0216839Y0046848D01*
X0217600Y0045010D01*
X0217600Y0043021D01*
X0216839Y0041183D01*
X0215432Y0039777D01*
X0213595Y0039015D01*
X0205605Y0039015D01*
X0203768Y0039777D01*
X0202361Y0041183D01*
X0202348Y0041215D01*
X0191252Y0041215D01*
X0191239Y0041183D01*
X0189832Y0039777D01*
X0187995Y0039015D01*
X0180005Y0039015D01*
X0178168Y0039777D01*
X0176761Y0041183D01*
X0176000Y0043021D01*
X0176000Y0045010D01*
X0176761Y0046848D01*
X0178168Y0048254D01*
X0180005Y0049015D01*
X0187995Y0049015D01*
X0189832Y0048254D01*
X0191239Y0046848D01*
X0191252Y0046815D01*
X0191740Y0046815D01*
X0194000Y0049075D01*
X0194000Y0081756D01*
X0111926Y0163829D01*
X0111500Y0164859D01*
X0111500Y0190085D01*
X0110925Y0190660D01*
X0110319Y0192124D01*
X0110319Y0193707D01*
X0110902Y0195115D01*
X0087960Y0195115D01*
X0085781Y0192937D01*
X0085781Y0192894D01*
X0086674Y0192002D01*
X0087100Y0190972D01*
X0087100Y0164075D01*
X0157819Y0093356D01*
X0157819Y0093707D01*
X0158425Y0095171D01*
X0159000Y0095746D01*
X0159000Y0104256D01*
X0102714Y0160542D01*
X0101926Y0161329D01*
X0101500Y0162359D01*
X0101500Y0184516D01*
X0100925Y0185091D01*
X0100319Y0186554D01*
X0100319Y0188138D01*
X0100925Y0189601D01*
X0102045Y0190721D01*
X0103508Y0191327D01*
X0105092Y0191327D01*
X0106555Y0190721D01*
X0107675Y0189601D01*
X0108281Y0188138D01*
X0108281Y0186554D01*
X0107675Y0185091D01*
X0107100Y0184516D01*
X0107100Y0164075D01*
X0164174Y0107002D01*
X0164600Y0105972D01*
X0164600Y0095746D01*
X0165175Y0095171D01*
X0165781Y0093707D01*
X0165781Y0092124D01*
X0165175Y0090660D01*
X0164055Y0089540D01*
X0162592Y0088934D01*
X0162241Y0088934D01*
X0164279Y0086897D01*
X0165092Y0086897D01*
X0166555Y0086290D01*
X0167675Y0085171D01*
X0168281Y0083707D01*
X0168281Y0082124D01*
X0167675Y0080660D01*
X0166555Y0079540D01*
X0165092Y0078934D01*
X0163508Y0078934D01*
X0162045Y0079540D01*
X0160925Y0080660D01*
X0160319Y0082124D01*
X0160319Y0082937D01*
X0131970Y0111285D01*
X0132100Y0110972D01*
X0132100Y0080746D01*
X0132675Y0080171D01*
X0133281Y0078707D01*
X0133281Y0077124D01*
X0132675Y0075660D01*
X0131555Y0074540D01*
X0130092Y0073934D01*
X0128508Y0073934D01*
X0127045Y0074540D01*
X0125925Y0075660D01*
X0125319Y0077124D01*
X0125319Y0078707D01*
X0125925Y0080171D01*
X0126500Y0080746D01*
X0126500Y0083656D01*
X0125886Y0083042D01*
X0120886Y0078042D01*
X0120048Y0077695D01*
X0120048Y0076038D01*
X0119600Y0075590D01*
X0119600Y0073663D01*
X0121178Y0073663D01*
X0122349Y0072492D01*
X0122349Y0071115D01*
X0158236Y0071115D01*
X0157819Y0072124D01*
X0157819Y0073707D01*
X0158425Y0075171D01*
X0159545Y0076290D01*
X0161008Y0076897D01*
X0162592Y0076897D01*
X0164055Y0076290D01*
X0165175Y0075171D01*
X0165781Y0073707D01*
X0165781Y0072124D01*
X0165175Y0070660D01*
X0164930Y0070415D01*
X0165175Y0070171D01*
X0165781Y0068707D01*
X0165781Y0067124D01*
X0165175Y0065660D01*
X0165000Y0065485D01*
X0165000Y0051741D01*
X0178125Y0038615D01*
X0230475Y0038615D01*
X0234087Y0042228D01*
X0234087Y0042228D01*
X0234987Y0043128D01*
X0236163Y0043615D01*
X0267717Y0043615D01*
X0268883Y0044781D01*
X0270534Y0045465D01*
X0269750Y0045465D01*
X0266850Y0048365D01*
X0266850Y0050415D01*
X0271800Y0050415D01*
X0271800Y0050416D01*
X0271800Y0055365D01*
X0269750Y0055365D01*
X0266850Y0052466D01*
X0266850Y0050416D01*
X0271800Y0050416D01*
X0271800Y0050416D01*
X0271800Y0055365D01*
X0273850Y0055365D01*
X0276750Y0052466D01*
X0276750Y0050416D01*
X0271800Y0050416D01*
X0271800Y0050415D01*
X0276750Y0050415D01*
X0276750Y0048365D01*
X0273850Y0045465D01*
X0273066Y0045465D01*
X0274717Y0044781D01*
X0276166Y0043333D01*
X0276950Y0041440D01*
X0276950Y0039391D01*
X0276166Y0037498D01*
X0274717Y0036050D01*
X0272824Y0035265D01*
X0270776Y0035265D01*
X0268883Y0036050D01*
X0267717Y0037215D01*
X0238125Y0037215D01*
X0234513Y0033603D01*
X0234513Y0033603D01*
X0233625Y0032715D01*
X0377269Y0032715D01*
X0374985Y0034034D01*
X0372918Y0036100D01*
X0371457Y0038631D01*
X0370701Y0041454D01*
X0370701Y0044377D01*
X0371457Y0047200D01*
X0372918Y0049731D01*
X0374985Y0051797D01*
X0377516Y0053258D01*
X0380339Y0054015D01*
X0383261Y0054015D01*
X0386084Y0053258D01*
X0388615Y0051797D01*
X0390682Y0049731D01*
X0390701Y0049697D01*
X0390701Y0338634D01*
X0390682Y0338600D01*
X0388615Y0336534D01*
X0386084Y0335073D01*
X0383261Y0334316D01*
X0380339Y0334316D01*
X0377516Y0335073D01*
X0374985Y0336534D01*
X0372918Y0338600D01*
X0371457Y0341131D01*
X0370701Y0343954D01*
X0370701Y0346877D01*
X0371457Y0349700D01*
X0372918Y0352231D01*
X0374985Y0354297D01*
X0377516Y0355758D01*
X0380339Y0356515D01*
X0383261Y0356515D01*
X0386084Y0355758D01*
X0388615Y0354297D01*
X0390682Y0352231D01*
X0390701Y0352197D01*
X0390701Y0403634D01*
X0390682Y0403600D01*
X0388615Y0401534D01*
X0386084Y0400073D01*
X0383261Y0399316D01*
X0380339Y0399316D01*
X0377516Y0400073D01*
X0374985Y0401534D01*
X0372918Y0403600D01*
X0371457Y0406131D01*
X0370701Y0408954D01*
X0370701Y0411877D01*
X0371457Y0414700D01*
X0372679Y0416816D01*
X0023421Y0416816D01*
X0024643Y0414700D01*
X0025399Y0411877D01*
X0025399Y0408954D01*
X0024643Y0406131D01*
X0023182Y0403600D01*
X0021115Y0401534D01*
X0018584Y0400073D01*
X0015761Y0399316D01*
X0012839Y0399316D01*
X0010016Y0400073D01*
X0007485Y0401534D01*
X0006600Y0402419D01*
X0006600Y0348412D01*
X0007485Y0349297D01*
X0010016Y0350758D01*
X0012839Y0351515D01*
X0015761Y0351515D01*
X0018584Y0350758D01*
X0021115Y0349297D01*
X0023182Y0347231D01*
X0024643Y0344700D01*
X0025399Y0341877D01*
X0025399Y0338954D01*
X0024643Y0336131D01*
X0023182Y0333600D01*
X0021115Y0331534D01*
X0018584Y0330073D01*
X0015761Y0329316D01*
X0012839Y0329316D01*
X0010016Y0330073D01*
X0007485Y0331534D01*
X0006600Y0332419D01*
X0006600Y0096253D01*
X0006895Y0096831D01*
X0007339Y0097442D01*
X0007873Y0097977D01*
X0008484Y0098421D01*
X0009157Y0098764D01*
X0009876Y0098997D01*
X0010622Y0099115D01*
X0013800Y0099115D01*
X0013800Y0094516D01*
X0014200Y0094516D01*
X0014200Y0099115D01*
X0017378Y0099115D01*
X0018124Y0098997D01*
X0018843Y0098764D01*
X0019516Y0098421D01*
X0020127Y0097977D01*
X0020661Y0097442D01*
X0021105Y0096831D01*
X0021448Y0096158D01*
X0021682Y0095439D01*
X0021800Y0094693D01*
X0021800Y0094515D01*
X0014200Y0094515D01*
X0014200Y0094115D01*
X0014200Y0089515D01*
X0017378Y0089515D01*
X0018124Y0089634D01*
X0018843Y0089867D01*
X0019516Y0090210D01*
X0020127Y0090654D01*
X0020661Y0091188D01*
X0021105Y0091800D01*
X0021448Y0092473D01*
X0021682Y0093191D01*
X0021800Y0093938D01*
X0021800Y0094115D01*
X0014200Y0094115D01*
X0013800Y0094115D01*
X0013800Y0089515D01*
X0010622Y0089515D01*
X0009876Y0089634D01*
X0009157Y0089867D01*
X0008484Y0090210D01*
X0007873Y0090654D01*
X0007339Y0091188D01*
X0006895Y0091800D01*
X0006600Y0092378D01*
X0006600Y0078959D01*
X0006761Y0079348D01*
X0008168Y0080754D01*
X0010005Y0081515D01*
X0017995Y0081515D01*
X0019832Y0080754D01*
X0021239Y0079348D01*
X0022000Y0077510D01*
X0022000Y0075521D01*
X0021239Y0073683D01*
X0019832Y0072277D01*
X0017995Y0071515D01*
X0010005Y0071515D01*
X0008168Y0072277D01*
X0006761Y0073683D01*
X0006600Y0074072D01*
X0006600Y0050912D01*
X0007485Y0051797D01*
X0010016Y0053258D01*
X0012839Y0054015D01*
X0015761Y0054015D01*
X0018584Y0053258D01*
X0021115Y0051797D01*
X0023182Y0049731D01*
X0024643Y0047200D01*
X0025399Y0044377D01*
X0025399Y0041454D01*
X0024643Y0038631D01*
X0023182Y0036100D01*
X0021115Y0034034D01*
X0021391Y0034310D02*
X0069000Y0034310D01*
X0069000Y0035908D02*
X0057364Y0035908D01*
X0057132Y0035677D02*
X0058539Y0037083D01*
X0059300Y0038921D01*
X0059300Y0046910D01*
X0058539Y0048748D01*
X0057132Y0050154D01*
X0055295Y0050915D01*
X0053305Y0050915D01*
X0051468Y0050154D01*
X0050061Y0048748D01*
X0049300Y0046910D01*
X0048539Y0048748D01*
X0047132Y0050154D01*
X0045295Y0050915D01*
X0043305Y0050915D01*
X0041468Y0050154D01*
X0040061Y0048748D01*
X0039300Y0046910D01*
X0039300Y0038921D01*
X0040061Y0037083D01*
X0041468Y0035677D01*
X0043305Y0034915D01*
X0045295Y0034915D01*
X0047132Y0035677D01*
X0048539Y0037083D01*
X0049300Y0038921D01*
X0049300Y0046910D01*
X0049300Y0038921D01*
X0050061Y0037083D01*
X0051468Y0035677D01*
X0053305Y0034915D01*
X0055295Y0034915D01*
X0057132Y0035677D01*
X0058714Y0037507D02*
X0069000Y0037507D01*
X0069000Y0039105D02*
X0059300Y0039105D01*
X0059300Y0040704D02*
X0069000Y0040704D01*
X0069000Y0042302D02*
X0059300Y0042302D01*
X0059300Y0043901D02*
X0069000Y0043901D01*
X0069000Y0045499D02*
X0059300Y0045499D01*
X0059222Y0047098D02*
X0069000Y0047098D01*
X0069000Y0048696D02*
X0058560Y0048696D01*
X0056793Y0050295D02*
X0069000Y0050295D01*
X0069000Y0051893D02*
X0020949Y0051893D01*
X0022617Y0050295D02*
X0032322Y0050295D01*
X0032457Y0050364D02*
X0031784Y0050021D01*
X0031173Y0049577D01*
X0030639Y0049042D01*
X0030195Y0048431D01*
X0029852Y0047758D01*
X0029618Y0047039D01*
X0029500Y0046293D01*
X0029500Y0043115D01*
X0034100Y0043115D01*
X0034100Y0042715D01*
X0034500Y0042715D01*
X0034500Y0035115D01*
X0034678Y0035115D01*
X0035424Y0035234D01*
X0036143Y0035467D01*
X0036816Y0035810D01*
X0037427Y0036254D01*
X0037961Y0036788D01*
X0038405Y0037400D01*
X0038748Y0038073D01*
X0038982Y0038791D01*
X0039100Y0039538D01*
X0039100Y0042715D01*
X0034500Y0042715D01*
X0034500Y0043115D01*
X0039100Y0043115D01*
X0039100Y0046293D01*
X0038982Y0047039D01*
X0038748Y0047758D01*
X0038405Y0048431D01*
X0037961Y0049042D01*
X0037427Y0049577D01*
X0036816Y0050021D01*
X0036143Y0050364D01*
X0035424Y0050597D01*
X0034678Y0050715D01*
X0034500Y0050715D01*
X0034500Y0043116D01*
X0034100Y0043116D01*
X0034100Y0050715D01*
X0033922Y0050715D01*
X0033176Y0050597D01*
X0032457Y0050364D01*
X0034100Y0050295D02*
X0034500Y0050295D01*
X0034500Y0048696D02*
X0034100Y0048696D01*
X0034100Y0047098D02*
X0034500Y0047098D01*
X0034500Y0045499D02*
X0034100Y0045499D01*
X0034100Y0043901D02*
X0034500Y0043901D01*
X0034100Y0042715D02*
X0029500Y0042715D01*
X0029500Y0039538D01*
X0029618Y0038791D01*
X0029852Y0038073D01*
X0030195Y0037400D01*
X0030639Y0036788D01*
X0031173Y0036254D01*
X0031784Y0035810D01*
X0032457Y0035467D01*
X0033176Y0035234D01*
X0033922Y0035115D01*
X0034100Y0035115D01*
X0034100Y0042715D01*
X0034100Y0042302D02*
X0034500Y0042302D01*
X0034500Y0040704D02*
X0034100Y0040704D01*
X0034100Y0039105D02*
X0034500Y0039105D01*
X0034500Y0037507D02*
X0034100Y0037507D01*
X0034100Y0035908D02*
X0034500Y0035908D01*
X0036950Y0035908D02*
X0041236Y0035908D01*
X0039886Y0037507D02*
X0038460Y0037507D01*
X0039031Y0039105D02*
X0039300Y0039105D01*
X0039300Y0040704D02*
X0039100Y0040704D01*
X0039100Y0042302D02*
X0039300Y0042302D01*
X0039300Y0043901D02*
X0039100Y0043901D01*
X0039100Y0045499D02*
X0039300Y0045499D01*
X0039378Y0047098D02*
X0038963Y0047098D01*
X0038213Y0048696D02*
X0040040Y0048696D01*
X0041807Y0050295D02*
X0036278Y0050295D01*
X0030387Y0048696D02*
X0023779Y0048696D01*
X0024670Y0047098D02*
X0029637Y0047098D01*
X0029500Y0045499D02*
X0025098Y0045499D01*
X0025399Y0043901D02*
X0029500Y0043901D01*
X0029500Y0042302D02*
X0025399Y0042302D01*
X0025198Y0040704D02*
X0029500Y0040704D01*
X0029569Y0039105D02*
X0024770Y0039105D01*
X0023993Y0037507D02*
X0030140Y0037507D01*
X0031650Y0035908D02*
X0022989Y0035908D01*
X0017713Y0053492D02*
X0069008Y0053492D01*
X0070015Y0055090D02*
X0006600Y0055090D01*
X0006600Y0053492D02*
X0010887Y0053492D01*
X0007651Y0051893D02*
X0006600Y0051893D01*
X0006600Y0056689D02*
X0111251Y0056689D01*
X0111251Y0058287D02*
X0006600Y0058287D01*
X0006600Y0059886D02*
X0111251Y0059886D01*
X0111440Y0061484D02*
X0057712Y0061484D01*
X0055888Y0061484D02*
X0047712Y0061484D01*
X0045888Y0061484D02*
X0006600Y0061484D01*
X0006600Y0063083D02*
X0030173Y0063083D01*
X0028574Y0064681D02*
X0006600Y0064681D01*
X0006600Y0066280D02*
X0026976Y0066280D01*
X0025377Y0067878D02*
X0006600Y0067878D01*
X0006600Y0069477D02*
X0024158Y0069477D01*
X0024000Y0071075D02*
X0006600Y0071075D01*
X0006600Y0072674D02*
X0007771Y0072674D01*
X0009300Y0070415D02*
X0026800Y0062915D01*
X0031800Y0057915D01*
X0064300Y0057915D01*
X0071800Y0065415D01*
X0071800Y0092915D01*
X0066800Y0097915D01*
X0062100Y0098250D02*
X0096504Y0098250D01*
X0097045Y0098790D02*
X0095925Y0097671D01*
X0095319Y0096207D01*
X0095319Y0094624D01*
X0095925Y0093160D01*
X0097045Y0092040D01*
X0098508Y0091434D01*
X0098552Y0091434D01*
X0098552Y0091038D01*
X0099724Y0089866D01*
X0107680Y0089866D01*
X0108851Y0091038D01*
X0108851Y0099793D01*
X0107680Y0100965D01*
X0099724Y0100965D01*
X0098552Y0099793D01*
X0098552Y0099397D01*
X0098508Y0099397D01*
X0097045Y0098790D01*
X0098607Y0099848D02*
X0062100Y0099848D01*
X0062100Y0101447D02*
X0121500Y0101447D01*
X0121500Y0103046D02*
X0100890Y0103046D01*
X0102488Y0104644D02*
X0121500Y0104644D01*
X0121500Y0106243D02*
X0104087Y0106243D01*
X0105685Y0107841D02*
X0108198Y0107841D01*
X0109300Y0110415D02*
X0106800Y0112915D01*
X0106800Y0125415D01*
X0071800Y0160415D01*
X0071800Y0170415D01*
X0051800Y0190415D01*
X0053161Y0194161D02*
X0074000Y0194161D01*
X0074000Y0195759D02*
X0051103Y0195759D01*
X0050439Y0194161D02*
X0049505Y0194161D01*
X0048380Y0192562D02*
X0047906Y0192562D01*
X0047819Y0190964D02*
X0046308Y0190964D01*
X0044709Y0189365D02*
X0047926Y0189365D01*
X0048819Y0187767D02*
X0043111Y0187767D01*
X0041512Y0186168D02*
X0052088Y0186168D01*
X0053686Y0184570D02*
X0039914Y0184570D01*
X0038315Y0182971D02*
X0055285Y0182971D01*
X0056883Y0181373D02*
X0036717Y0181373D01*
X0035118Y0179774D02*
X0058482Y0179774D01*
X0060080Y0178176D02*
X0033520Y0178176D01*
X0031921Y0176577D02*
X0061679Y0176577D01*
X0063277Y0174979D02*
X0030323Y0174979D01*
X0029600Y0173380D02*
X0064876Y0173380D01*
X0066474Y0171781D02*
X0029600Y0171781D01*
X0029600Y0170183D02*
X0068073Y0170183D01*
X0069000Y0168584D02*
X0029600Y0168584D01*
X0029600Y0166986D02*
X0069000Y0166986D01*
X0069000Y0165387D02*
X0029600Y0165387D01*
X0029600Y0163789D02*
X0069000Y0163789D01*
X0069000Y0162190D02*
X0029600Y0162190D01*
X0029600Y0160592D02*
X0069000Y0160592D01*
X0069358Y0158993D02*
X0029600Y0158993D01*
X0029600Y0157395D02*
X0070861Y0157395D01*
X0072459Y0155796D02*
X0029600Y0155796D01*
X0029600Y0154198D02*
X0074058Y0154198D01*
X0075656Y0152599D02*
X0029600Y0152599D01*
X0029600Y0151001D02*
X0077255Y0151001D01*
X0078853Y0149402D02*
X0029600Y0149402D01*
X0029600Y0147804D02*
X0080452Y0147804D01*
X0082050Y0146205D02*
X0029600Y0146205D01*
X0029600Y0144607D02*
X0083649Y0144607D01*
X0085247Y0143008D02*
X0029600Y0143008D01*
X0029600Y0141410D02*
X0086846Y0141410D01*
X0088444Y0139811D02*
X0029600Y0139811D01*
X0029600Y0138213D02*
X0090043Y0138213D01*
X0091641Y0136614D02*
X0029600Y0136614D01*
X0029600Y0135016D02*
X0093240Y0135016D01*
X0094838Y0133417D02*
X0029600Y0133417D01*
X0029600Y0131819D02*
X0096437Y0131819D01*
X0098035Y0130220D02*
X0029600Y0130220D01*
X0029600Y0128622D02*
X0099634Y0128622D01*
X0101232Y0127023D02*
X0044198Y0127023D01*
X0043705Y0127515D02*
X0039895Y0127515D01*
X0037200Y0124821D01*
X0037200Y0121010D01*
X0039895Y0118315D01*
X0043705Y0118315D01*
X0046400Y0121010D01*
X0046400Y0124821D01*
X0043705Y0127515D01*
X0045796Y0125425D02*
X0102831Y0125425D01*
X0104000Y0123826D02*
X0046400Y0123826D01*
X0046400Y0122228D02*
X0104000Y0122228D01*
X0104000Y0120629D02*
X0046019Y0120629D01*
X0044421Y0119031D02*
X0104000Y0119031D01*
X0104000Y0117432D02*
X0043789Y0117432D01*
X0043705Y0117515D02*
X0039895Y0117515D01*
X0037200Y0114821D01*
X0037200Y0111010D01*
X0039895Y0108315D01*
X0043705Y0108315D01*
X0046400Y0111010D01*
X0046400Y0114821D01*
X0043705Y0117515D01*
X0045387Y0115834D02*
X0104000Y0115834D01*
X0103037Y0114235D02*
X0071940Y0114235D01*
X0073539Y0112637D02*
X0102561Y0112637D01*
X0100963Y0111038D02*
X0075137Y0111038D01*
X0076736Y0109440D02*
X0099364Y0109440D01*
X0099300Y0105415D02*
X0076800Y0105415D01*
X0069300Y0112915D01*
X0054300Y0112915D01*
X0049300Y0107915D01*
X0049300Y0085415D01*
X0052966Y0083863D02*
X0054000Y0083863D01*
X0054000Y0082265D02*
X0051780Y0082265D01*
X0054000Y0080666D02*
X0045520Y0080666D01*
X0045432Y0080754D02*
X0043595Y0081515D01*
X0035605Y0081515D01*
X0033768Y0080754D01*
X0032361Y0079348D01*
X0031600Y0077510D01*
X0031600Y0075521D01*
X0032361Y0073683D01*
X0033768Y0072277D01*
X0035605Y0071515D01*
X0043595Y0071515D01*
X0045432Y0072277D01*
X0046839Y0073683D01*
X0047600Y0075521D01*
X0047600Y0077510D01*
X0046839Y0079348D01*
X0045432Y0080754D01*
X0046820Y0082265D02*
X0029600Y0082265D01*
X0029600Y0083863D02*
X0045634Y0083863D01*
X0045319Y0085462D02*
X0029600Y0085462D01*
X0029600Y0087060D02*
X0045672Y0087060D01*
X0046500Y0088659D02*
X0029600Y0088659D01*
X0029600Y0090257D02*
X0034019Y0090257D01*
X0032466Y0091856D02*
X0029600Y0091856D01*
X0029600Y0093454D02*
X0031877Y0093454D01*
X0031857Y0095053D02*
X0029600Y0095053D01*
X0029600Y0096651D02*
X0032403Y0096651D01*
X0033849Y0098250D02*
X0029600Y0098250D01*
X0029600Y0099848D02*
X0046500Y0099848D01*
X0046500Y0098250D02*
X0045351Y0098250D01*
X0046500Y0101447D02*
X0029600Y0101447D01*
X0029600Y0103046D02*
X0046500Y0103046D01*
X0046500Y0104644D02*
X0029600Y0104644D01*
X0029600Y0106243D02*
X0046500Y0106243D01*
X0046500Y0107841D02*
X0029600Y0107841D01*
X0029600Y0109440D02*
X0038771Y0109440D01*
X0037200Y0111038D02*
X0029600Y0111038D01*
X0029600Y0112637D02*
X0037200Y0112637D01*
X0037200Y0114235D02*
X0029600Y0114235D01*
X0029600Y0115834D02*
X0038213Y0115834D01*
X0039811Y0117432D02*
X0029600Y0117432D01*
X0029600Y0119031D02*
X0039179Y0119031D01*
X0037581Y0120629D02*
X0029600Y0120629D01*
X0029600Y0122228D02*
X0037200Y0122228D01*
X0037200Y0123826D02*
X0029600Y0123826D01*
X0029600Y0125425D02*
X0037804Y0125425D01*
X0039402Y0127023D02*
X0029600Y0127023D01*
X0024000Y0127023D02*
X0006600Y0127023D01*
X0006600Y0125425D02*
X0024000Y0125425D01*
X0024000Y0123826D02*
X0006600Y0123826D01*
X0006600Y0122228D02*
X0024000Y0122228D01*
X0024000Y0120629D02*
X0006600Y0120629D01*
X0006600Y0119031D02*
X0024000Y0119031D01*
X0024000Y0117432D02*
X0006600Y0117432D01*
X0006600Y0115834D02*
X0024000Y0115834D01*
X0024000Y0114235D02*
X0006600Y0114235D01*
X0006600Y0112637D02*
X0024000Y0112637D01*
X0024000Y0111038D02*
X0006600Y0111038D01*
X0006600Y0109440D02*
X0024000Y0109440D01*
X0024000Y0107841D02*
X0006600Y0107841D01*
X0006600Y0106243D02*
X0024000Y0106243D01*
X0024000Y0104644D02*
X0006600Y0104644D01*
X0006600Y0103046D02*
X0024000Y0103046D01*
X0024000Y0101447D02*
X0006600Y0101447D01*
X0006600Y0099848D02*
X0024000Y0099848D01*
X0024000Y0098250D02*
X0019751Y0098250D01*
X0021197Y0096651D02*
X0024000Y0096651D01*
X0024000Y0095053D02*
X0021743Y0095053D01*
X0021723Y0093454D02*
X0024000Y0093454D01*
X0024000Y0091856D02*
X0021134Y0091856D01*
X0019581Y0090257D02*
X0024000Y0090257D01*
X0024000Y0088659D02*
X0006600Y0088659D01*
X0006600Y0090257D02*
X0008419Y0090257D01*
X0006866Y0091856D02*
X0006600Y0091856D01*
X0006600Y0096651D02*
X0006803Y0096651D01*
X0006600Y0098250D02*
X0008249Y0098250D01*
X0013800Y0098250D02*
X0014200Y0098250D01*
X0014200Y0096651D02*
X0013800Y0096651D01*
X0013800Y0095053D02*
X0014200Y0095053D01*
X0014200Y0093454D02*
X0013800Y0093454D01*
X0013800Y0091856D02*
X0014200Y0091856D01*
X0014200Y0090257D02*
X0013800Y0090257D01*
X0006600Y0087060D02*
X0024000Y0087060D01*
X0024000Y0085462D02*
X0006600Y0085462D01*
X0006600Y0083863D02*
X0024000Y0083863D01*
X0024000Y0082265D02*
X0006600Y0082265D01*
X0006600Y0080666D02*
X0008080Y0080666D01*
X0006645Y0079068D02*
X0006600Y0079068D01*
X0019920Y0080666D02*
X0024000Y0080666D01*
X0024000Y0079068D02*
X0021355Y0079068D01*
X0022000Y0077469D02*
X0024000Y0077469D01*
X0024000Y0075871D02*
X0022000Y0075871D01*
X0021483Y0074272D02*
X0024000Y0074272D01*
X0024000Y0072674D02*
X0020229Y0072674D01*
X0026800Y0070415D02*
X0026800Y0175415D01*
X0061800Y0210415D01*
X0071800Y0210415D01*
X0074300Y0212915D01*
X0076800Y0212915D01*
X0166800Y0212915D01*
X0246800Y0212915D01*
X0299300Y0212915D01*
X0301800Y0210415D01*
X0316800Y0210415D01*
X0321800Y0215415D01*
X0336800Y0215415D01*
X0339707Y0218138D02*
X0349000Y0218138D01*
X0349000Y0216540D02*
X0340643Y0216540D01*
X0340781Y0214941D02*
X0349000Y0214941D01*
X0349000Y0213343D02*
X0347003Y0213343D01*
X0348059Y0211744D02*
X0349000Y0211744D01*
X0349000Y0210146D02*
X0348281Y0210146D01*
X0347835Y0208547D02*
X0349000Y0208547D01*
X0349000Y0206949D02*
X0346334Y0206949D01*
X0349000Y0205350D02*
X0340781Y0205350D01*
X0340474Y0206949D02*
X0342266Y0206949D01*
X0342006Y0203752D02*
X0340420Y0203752D01*
X0336800Y0205415D02*
X0326800Y0205415D01*
X0321800Y0200415D01*
X0294300Y0200415D01*
X0291800Y0202915D01*
X0256800Y0202915D01*
X0176800Y0202915D01*
X0089300Y0202915D01*
X0086800Y0197915D02*
X0081800Y0192915D01*
X0084300Y0190415D01*
X0084300Y0162915D01*
X0164300Y0082915D01*
X0167384Y0085462D02*
X0190294Y0085462D01*
X0191892Y0083863D02*
X0168216Y0083863D01*
X0168281Y0082265D02*
X0193491Y0082265D01*
X0194000Y0080666D02*
X0167677Y0080666D01*
X0165414Y0079068D02*
X0194000Y0079068D01*
X0194000Y0077469D02*
X0133281Y0077469D01*
X0133132Y0079068D02*
X0163186Y0079068D01*
X0160923Y0080666D02*
X0132179Y0080666D01*
X0132100Y0082265D02*
X0160319Y0082265D01*
X0159392Y0083863D02*
X0132100Y0083863D01*
X0132100Y0085462D02*
X0157794Y0085462D01*
X0156195Y0087060D02*
X0132100Y0087060D01*
X0132100Y0088659D02*
X0154597Y0088659D01*
X0152998Y0090257D02*
X0132100Y0090257D01*
X0132100Y0091856D02*
X0151400Y0091856D01*
X0149801Y0093454D02*
X0132100Y0093454D01*
X0132100Y0095053D02*
X0148203Y0095053D01*
X0146604Y0096651D02*
X0132100Y0096651D01*
X0132100Y0098250D02*
X0145006Y0098250D01*
X0143407Y0099848D02*
X0132100Y0099848D01*
X0132100Y0101447D02*
X0141809Y0101447D01*
X0140210Y0103046D02*
X0132100Y0103046D01*
X0132100Y0104644D02*
X0138612Y0104644D01*
X0137013Y0106243D02*
X0132100Y0106243D01*
X0132100Y0107841D02*
X0135415Y0107841D01*
X0133816Y0109440D02*
X0132100Y0109440D01*
X0132073Y0111038D02*
X0132218Y0111038D01*
X0129300Y0110415D02*
X0076800Y0162915D01*
X0076800Y0202915D01*
X0079300Y0205415D01*
X0081800Y0207915D01*
X0171800Y0207915D01*
X0251800Y0207915D01*
X0296800Y0207915D01*
X0299300Y0205415D01*
X0319300Y0205415D01*
X0324300Y0210415D01*
X0344300Y0210415D01*
X0341597Y0213343D02*
X0340251Y0213343D01*
X0346594Y0203752D02*
X0349000Y0203752D01*
X0349000Y0202153D02*
X0347889Y0202153D01*
X0344300Y0200415D02*
X0334300Y0200415D01*
X0329300Y0195415D01*
X0286800Y0195415D01*
X0284300Y0197915D01*
X0261800Y0197915D01*
X0181800Y0197915D01*
X0086800Y0197915D01*
X0087005Y0194161D02*
X0110507Y0194161D01*
X0110319Y0192562D02*
X0086113Y0192562D01*
X0087100Y0190964D02*
X0102632Y0190964D01*
X0100827Y0189365D02*
X0087100Y0189365D01*
X0087100Y0187767D02*
X0100319Y0187767D01*
X0100479Y0186168D02*
X0087100Y0186168D01*
X0087100Y0184570D02*
X0101446Y0184570D01*
X0101500Y0182971D02*
X0087100Y0182971D01*
X0087100Y0181373D02*
X0101500Y0181373D01*
X0101500Y0179774D02*
X0087100Y0179774D01*
X0087100Y0178176D02*
X0101500Y0178176D01*
X0101500Y0176577D02*
X0087100Y0176577D01*
X0087100Y0174979D02*
X0101500Y0174979D01*
X0101500Y0173380D02*
X0087100Y0173380D01*
X0087100Y0171781D02*
X0101500Y0171781D01*
X0101500Y0170183D02*
X0087100Y0170183D01*
X0087100Y0168584D02*
X0101500Y0168584D01*
X0101500Y0166986D02*
X0087100Y0166986D01*
X0087100Y0165387D02*
X0101500Y0165387D01*
X0101500Y0163789D02*
X0087386Y0163789D01*
X0088985Y0162190D02*
X0101570Y0162190D01*
X0102664Y0160592D02*
X0090583Y0160592D01*
X0092182Y0158993D02*
X0104262Y0158993D01*
X0105861Y0157395D02*
X0093780Y0157395D01*
X0095379Y0155796D02*
X0107459Y0155796D01*
X0109058Y0154198D02*
X0096977Y0154198D01*
X0098576Y0152599D02*
X0110656Y0152599D01*
X0112255Y0151001D02*
X0100174Y0151001D01*
X0101773Y0149402D02*
X0113853Y0149402D01*
X0115452Y0147804D02*
X0103371Y0147804D01*
X0104970Y0146205D02*
X0117050Y0146205D01*
X0118649Y0144607D02*
X0106568Y0144607D01*
X0108167Y0143008D02*
X0120247Y0143008D01*
X0121846Y0141410D02*
X0109765Y0141410D01*
X0111364Y0139811D02*
X0123444Y0139811D01*
X0125043Y0138213D02*
X0112962Y0138213D01*
X0114561Y0136614D02*
X0126641Y0136614D01*
X0128240Y0135016D02*
X0116160Y0135016D01*
X0117758Y0133417D02*
X0129838Y0133417D01*
X0131437Y0131819D02*
X0119357Y0131819D01*
X0120955Y0130220D02*
X0133035Y0130220D01*
X0134634Y0128622D02*
X0122554Y0128622D01*
X0124152Y0127023D02*
X0136232Y0127023D01*
X0137831Y0125425D02*
X0125751Y0125425D01*
X0127349Y0123826D02*
X0139430Y0123826D01*
X0141028Y0122228D02*
X0128948Y0122228D01*
X0130546Y0120629D02*
X0142627Y0120629D01*
X0144225Y0119031D02*
X0132145Y0119031D01*
X0133743Y0117432D02*
X0145824Y0117432D01*
X0147422Y0115834D02*
X0135342Y0115834D01*
X0136940Y0114235D02*
X0149021Y0114235D01*
X0150619Y0112637D02*
X0138539Y0112637D01*
X0140137Y0111038D02*
X0152218Y0111038D01*
X0153816Y0109440D02*
X0141736Y0109440D01*
X0143334Y0107841D02*
X0155415Y0107841D01*
X0157013Y0106243D02*
X0144933Y0106243D01*
X0146531Y0104644D02*
X0158612Y0104644D01*
X0159000Y0103046D02*
X0148130Y0103046D01*
X0149728Y0101447D02*
X0159000Y0101447D01*
X0159000Y0099848D02*
X0151327Y0099848D01*
X0152925Y0098250D02*
X0159000Y0098250D01*
X0159000Y0096651D02*
X0154524Y0096651D01*
X0156122Y0095053D02*
X0158376Y0095053D01*
X0157819Y0093454D02*
X0157721Y0093454D01*
X0161800Y0092915D02*
X0161800Y0105415D01*
X0104300Y0162915D01*
X0104300Y0187346D01*
X0107154Y0184570D02*
X0111500Y0184570D01*
X0111500Y0186168D02*
X0108121Y0186168D01*
X0108281Y0187767D02*
X0111500Y0187767D01*
X0111500Y0189365D02*
X0107773Y0189365D01*
X0105968Y0190964D02*
X0110799Y0190964D01*
X0114300Y0192915D02*
X0114300Y0165415D01*
X0196800Y0082915D01*
X0196800Y0047915D01*
X0192900Y0044015D01*
X0184000Y0044015D01*
X0209600Y0044015D01*
X0213811Y0039105D02*
X0230964Y0039105D01*
X0232563Y0040704D02*
X0216359Y0040704D01*
X0217302Y0042302D02*
X0234161Y0042302D01*
X0236818Y0035908D02*
X0269224Y0035908D01*
X0274376Y0035908D02*
X0306312Y0035908D01*
X0306486Y0035735D02*
X0308312Y0034978D01*
X0310288Y0034978D01*
X0312114Y0035735D01*
X0313512Y0037133D01*
X0314268Y0038959D01*
X0314268Y0046872D01*
X0313512Y0048698D01*
X0312114Y0050096D01*
X0310288Y0050852D01*
X0308312Y0050852D01*
X0306486Y0050096D01*
X0305088Y0048698D01*
X0304331Y0046872D01*
X0304331Y0038959D01*
X0305088Y0037133D01*
X0306486Y0035735D01*
X0304933Y0037507D02*
X0276169Y0037507D01*
X0276832Y0039105D02*
X0304331Y0039105D01*
X0304331Y0040704D02*
X0276950Y0040704D01*
X0276593Y0042302D02*
X0304331Y0042302D01*
X0304331Y0043901D02*
X0275598Y0043901D01*
X0273884Y0045499D02*
X0304331Y0045499D01*
X0304425Y0047098D02*
X0275482Y0047098D01*
X0276750Y0048696D02*
X0305087Y0048696D01*
X0306965Y0050295D02*
X0276750Y0050295D01*
X0276750Y0051893D02*
X0375151Y0051893D01*
X0373483Y0050295D02*
X0331635Y0050295D01*
X0332114Y0050096D02*
X0330288Y0050852D01*
X0328312Y0050852D01*
X0326486Y0050096D01*
X0325088Y0048698D01*
X0324331Y0046872D01*
X0324331Y0038959D01*
X0325088Y0037133D01*
X0326486Y0035735D01*
X0328312Y0034978D01*
X0330288Y0034978D01*
X0332114Y0035735D01*
X0333512Y0037133D01*
X0334268Y0038959D01*
X0334268Y0046872D01*
X0333512Y0048698D01*
X0332114Y0050096D01*
X0333513Y0048696D02*
X0372321Y0048696D01*
X0371430Y0047098D02*
X0334175Y0047098D01*
X0334268Y0045499D02*
X0371002Y0045499D01*
X0370701Y0043901D02*
X0334268Y0043901D01*
X0334268Y0042302D02*
X0370701Y0042302D01*
X0370902Y0040704D02*
X0334268Y0040704D01*
X0334268Y0039105D02*
X0371330Y0039105D01*
X0372107Y0037507D02*
X0333667Y0037507D01*
X0332288Y0035908D02*
X0373111Y0035908D01*
X0374709Y0034310D02*
X0235220Y0034310D01*
X0217600Y0043901D02*
X0268002Y0043901D01*
X0269716Y0045499D02*
X0217397Y0045499D01*
X0216589Y0047098D02*
X0268118Y0047098D01*
X0266850Y0048696D02*
X0214366Y0048696D01*
X0212978Y0057015D02*
X0209800Y0057015D01*
X0209800Y0061615D01*
X0209400Y0061615D01*
X0209400Y0057015D01*
X0206222Y0057015D01*
X0205476Y0057134D01*
X0204757Y0057367D01*
X0204084Y0057710D01*
X0203473Y0058154D01*
X0202939Y0058688D01*
X0202495Y0059300D01*
X0202152Y0059973D01*
X0201918Y0060691D01*
X0201800Y0061438D01*
X0201800Y0061615D01*
X0209400Y0061615D01*
X0209400Y0062015D01*
X0201800Y0062015D01*
X0201800Y0062193D01*
X0201918Y0062939D01*
X0202152Y0063658D01*
X0202495Y0064331D01*
X0202939Y0064942D01*
X0203473Y0065477D01*
X0204084Y0065921D01*
X0204757Y0066264D01*
X0205476Y0066497D01*
X0206222Y0066615D01*
X0209400Y0066615D01*
X0209400Y0062016D01*
X0209800Y0062016D01*
X0209800Y0066615D01*
X0212978Y0066615D01*
X0213724Y0066497D01*
X0214443Y0066264D01*
X0215116Y0065921D01*
X0215727Y0065477D01*
X0216261Y0064942D01*
X0216705Y0064331D01*
X0217048Y0063658D01*
X0217282Y0062939D01*
X0217400Y0062193D01*
X0217400Y0062015D01*
X0209800Y0062015D01*
X0209800Y0061615D01*
X0217400Y0061615D01*
X0217400Y0061438D01*
X0217282Y0060691D01*
X0217048Y0059973D01*
X0216705Y0059300D01*
X0216261Y0058688D01*
X0215727Y0058154D01*
X0215116Y0057710D01*
X0214443Y0057367D01*
X0213724Y0057134D01*
X0212978Y0057015D01*
X0215860Y0058287D02*
X0226857Y0058287D01*
X0226800Y0058344D02*
X0229729Y0055415D01*
X0233871Y0055415D01*
X0236800Y0058344D01*
X0236800Y0062487D01*
X0233871Y0065415D01*
X0229729Y0065415D01*
X0226800Y0062487D01*
X0226800Y0058344D01*
X0226800Y0059886D02*
X0217004Y0059886D01*
X0217400Y0061484D02*
X0226800Y0061484D01*
X0227396Y0063083D02*
X0217235Y0063083D01*
X0216451Y0064681D02*
X0228995Y0064681D01*
X0234605Y0064681D02*
X0390701Y0064681D01*
X0390701Y0063083D02*
X0236204Y0063083D01*
X0236800Y0061484D02*
X0390701Y0061484D01*
X0390701Y0059886D02*
X0236800Y0059886D01*
X0236743Y0058287D02*
X0390701Y0058287D01*
X0390701Y0056689D02*
X0235144Y0056689D01*
X0228456Y0056689D02*
X0199600Y0056689D01*
X0199600Y0058287D02*
X0203340Y0058287D01*
X0202196Y0059886D02*
X0199600Y0059886D01*
X0199600Y0061484D02*
X0201800Y0061484D01*
X0201965Y0063083D02*
X0199600Y0063083D01*
X0199600Y0064681D02*
X0202749Y0064681D01*
X0204807Y0066280D02*
X0199600Y0066280D01*
X0199600Y0067878D02*
X0390701Y0067878D01*
X0390701Y0066280D02*
X0214393Y0066280D01*
X0209800Y0066280D02*
X0209400Y0066280D01*
X0209400Y0064681D02*
X0209800Y0064681D01*
X0209800Y0063083D02*
X0209400Y0063083D01*
X0209400Y0061484D02*
X0209800Y0061484D01*
X0209800Y0059886D02*
X0209400Y0059886D01*
X0209400Y0058287D02*
X0209800Y0058287D01*
X0199600Y0055090D02*
X0269474Y0055090D01*
X0267876Y0053492D02*
X0199600Y0053492D01*
X0199600Y0051893D02*
X0266850Y0051893D01*
X0266850Y0050295D02*
X0199600Y0050295D01*
X0199600Y0048696D02*
X0204834Y0048696D01*
X0202611Y0047098D02*
X0199492Y0047098D01*
X0193621Y0048696D02*
X0188766Y0048696D01*
X0190989Y0047098D02*
X0192022Y0047098D01*
X0194000Y0050295D02*
X0166446Y0050295D01*
X0165000Y0051893D02*
X0194000Y0051893D01*
X0194000Y0053492D02*
X0165000Y0053492D01*
X0165000Y0055090D02*
X0194000Y0055090D01*
X0194000Y0056689D02*
X0165000Y0056689D01*
X0165000Y0058287D02*
X0177740Y0058287D01*
X0177873Y0058154D02*
X0178484Y0057710D01*
X0179157Y0057367D01*
X0179876Y0057134D01*
X0180622Y0057015D01*
X0183800Y0057015D01*
X0183800Y0061615D01*
X0184200Y0061615D01*
X0184200Y0057015D01*
X0187378Y0057015D01*
X0188124Y0057134D01*
X0188843Y0057367D01*
X0189516Y0057710D01*
X0190127Y0058154D01*
X0190661Y0058688D01*
X0191105Y0059300D01*
X0191448Y0059973D01*
X0191682Y0060691D01*
X0191800Y0061438D01*
X0191800Y0061615D01*
X0184200Y0061615D01*
X0184200Y0062015D01*
X0191800Y0062015D01*
X0191800Y0062193D01*
X0191682Y0062939D01*
X0191448Y0063658D01*
X0191105Y0064331D01*
X0190661Y0064942D01*
X0190127Y0065477D01*
X0189516Y0065921D01*
X0188843Y0066264D01*
X0188124Y0066497D01*
X0187378Y0066615D01*
X0184200Y0066615D01*
X0184200Y0062016D01*
X0183800Y0062016D01*
X0183800Y0066615D01*
X0180622Y0066615D01*
X0179876Y0066497D01*
X0179157Y0066264D01*
X0178484Y0065921D01*
X0177873Y0065477D01*
X0177339Y0064942D01*
X0176895Y0064331D01*
X0176552Y0063658D01*
X0176318Y0062939D01*
X0176200Y0062193D01*
X0176200Y0062015D01*
X0183800Y0062015D01*
X0183800Y0061615D01*
X0176200Y0061615D01*
X0176200Y0061438D01*
X0176318Y0060691D01*
X0176552Y0059973D01*
X0176895Y0059300D01*
X0177339Y0058688D01*
X0177873Y0058154D01*
X0176596Y0059886D02*
X0165000Y0059886D01*
X0165000Y0061484D02*
X0176200Y0061484D01*
X0176365Y0063083D02*
X0165000Y0063083D01*
X0165000Y0064681D02*
X0177149Y0064681D01*
X0179207Y0066280D02*
X0165432Y0066280D01*
X0165781Y0067878D02*
X0194000Y0067878D01*
X0194000Y0066280D02*
X0188793Y0066280D01*
X0190851Y0064681D02*
X0194000Y0064681D01*
X0194000Y0063083D02*
X0191635Y0063083D01*
X0191800Y0061484D02*
X0194000Y0061484D01*
X0194000Y0059886D02*
X0191404Y0059886D01*
X0190260Y0058287D02*
X0194000Y0058287D01*
X0184200Y0058287D02*
X0183800Y0058287D01*
X0183800Y0059886D02*
X0184200Y0059886D01*
X0184200Y0061484D02*
X0183800Y0061484D01*
X0183800Y0063083D02*
X0184200Y0063083D01*
X0184200Y0064681D02*
X0183800Y0064681D01*
X0183800Y0066280D02*
X0184200Y0066280D01*
X0194000Y0069477D02*
X0165462Y0069477D01*
X0165347Y0071075D02*
X0194000Y0071075D01*
X0194000Y0072674D02*
X0165781Y0072674D01*
X0165547Y0074272D02*
X0194000Y0074272D01*
X0194000Y0075871D02*
X0164475Y0075871D01*
X0159125Y0075871D02*
X0132762Y0075871D01*
X0130908Y0074272D02*
X0158053Y0074272D01*
X0157819Y0072674D02*
X0122167Y0072674D01*
X0119600Y0074272D02*
X0127692Y0074272D01*
X0125838Y0075871D02*
X0119881Y0075871D01*
X0120048Y0077469D02*
X0125319Y0077469D01*
X0125468Y0079068D02*
X0121912Y0079068D01*
X0123511Y0080666D02*
X0126421Y0080666D01*
X0126500Y0082265D02*
X0125109Y0082265D01*
X0124300Y0085415D02*
X0124300Y0107915D01*
X0121800Y0110415D01*
X0109300Y0110415D01*
X0106800Y0112915D02*
X0099300Y0105415D01*
X0095503Y0096651D02*
X0061807Y0096651D01*
X0060397Y0095053D02*
X0095319Y0095053D01*
X0095803Y0093454D02*
X0059600Y0093454D01*
X0059600Y0091856D02*
X0097490Y0091856D01*
X0099332Y0090257D02*
X0059600Y0090257D01*
X0059600Y0088659D02*
X0121500Y0088659D01*
X0121500Y0090257D02*
X0118861Y0090257D01*
X0118743Y0090189D02*
X0119153Y0090426D01*
X0119488Y0090761D01*
X0119725Y0091171D01*
X0119848Y0091629D01*
X0119848Y0094641D01*
X0115673Y0094641D01*
X0115673Y0096190D01*
X0119848Y0096190D01*
X0119848Y0099202D01*
X0119725Y0099659D01*
X0119488Y0100070D01*
X0119153Y0100405D01*
X0118743Y0100642D01*
X0118285Y0100765D01*
X0115673Y0100765D01*
X0115673Y0096190D01*
X0114124Y0096190D01*
X0114124Y0100765D01*
X0111512Y0100765D01*
X0111054Y0100642D01*
X0110644Y0100405D01*
X0110308Y0100070D01*
X0110071Y0099659D01*
X0109949Y0099202D01*
X0109949Y0096190D01*
X0114124Y0096190D01*
X0114124Y0094641D01*
X0115673Y0094641D01*
X0115673Y0090066D01*
X0118285Y0090066D01*
X0118743Y0090189D01*
X0119848Y0091856D02*
X0121500Y0091856D01*
X0121500Y0093454D02*
X0119848Y0093454D01*
X0121500Y0095053D02*
X0115673Y0095053D01*
X0114898Y0095415D02*
X0114898Y0101014D01*
X0116800Y0102915D01*
X0115673Y0099848D02*
X0114124Y0099848D01*
X0114124Y0098250D02*
X0115673Y0098250D01*
X0115673Y0096651D02*
X0114124Y0096651D01*
X0114124Y0095053D02*
X0108851Y0095053D01*
X0109949Y0094641D02*
X0109949Y0091629D01*
X0110071Y0091171D01*
X0110308Y0090761D01*
X0110644Y0090426D01*
X0111054Y0090189D01*
X0111512Y0090066D01*
X0114124Y0090066D01*
X0114124Y0094641D01*
X0109949Y0094641D01*
X0109949Y0093454D02*
X0108851Y0093454D01*
X0108851Y0091856D02*
X0109949Y0091856D01*
X0110935Y0090257D02*
X0108071Y0090257D01*
X0107680Y0085965D02*
X0099724Y0085965D01*
X0098552Y0084793D01*
X0098552Y0083999D01*
X0097592Y0084397D01*
X0096008Y0084397D01*
X0094545Y0083790D01*
X0093425Y0082671D01*
X0092819Y0081207D01*
X0092819Y0079624D01*
X0093425Y0078160D01*
X0094545Y0077040D01*
X0096008Y0076434D01*
X0097592Y0076434D01*
X0098552Y0076832D01*
X0098552Y0076038D01*
X0099724Y0074866D01*
X0107680Y0074866D01*
X0108851Y0076038D01*
X0108851Y0084793D01*
X0107680Y0085965D01*
X0108182Y0085462D02*
X0110418Y0085462D01*
X0109749Y0083863D02*
X0108851Y0083863D01*
X0108851Y0082265D02*
X0109749Y0082265D01*
X0109749Y0080666D02*
X0108851Y0080666D01*
X0108851Y0079068D02*
X0109749Y0079068D01*
X0109749Y0077469D02*
X0108851Y0077469D01*
X0108684Y0075871D02*
X0109916Y0075871D01*
X0111433Y0072674D02*
X0059600Y0072674D01*
X0059600Y0074272D02*
X0114000Y0074272D01*
X0111251Y0071075D02*
X0059600Y0071075D01*
X0059600Y0069477D02*
X0111251Y0069477D01*
X0111251Y0067878D02*
X0059967Y0067878D01*
X0060751Y0066280D02*
X0111251Y0066280D01*
X0111251Y0064681D02*
X0060781Y0064681D01*
X0060097Y0063083D02*
X0121337Y0063083D01*
X0122349Y0064681D02*
X0158600Y0064681D01*
X0158600Y0063083D02*
X0127263Y0063083D01*
X0128166Y0061484D02*
X0158600Y0061484D01*
X0158600Y0059886D02*
X0128281Y0059886D01*
X0127728Y0058287D02*
X0158600Y0058287D01*
X0158600Y0056689D02*
X0125706Y0056689D01*
X0124300Y0060415D02*
X0121202Y0057317D01*
X0116800Y0057317D01*
X0116800Y0068514D02*
X0116800Y0070415D01*
X0116800Y0078514D01*
X0114898Y0080415D01*
X0119300Y0080415D01*
X0124300Y0085415D01*
X0121500Y0087060D02*
X0059600Y0087060D01*
X0059600Y0085462D02*
X0099221Y0085462D01*
X0096800Y0080415D02*
X0103702Y0080415D01*
X0098719Y0075871D02*
X0059600Y0075871D01*
X0059600Y0077469D02*
X0094116Y0077469D01*
X0093049Y0079068D02*
X0059600Y0079068D01*
X0059600Y0080666D02*
X0092819Y0080666D01*
X0093257Y0082265D02*
X0059600Y0082265D01*
X0059600Y0083863D02*
X0094721Y0083863D01*
X0099300Y0095415D02*
X0103702Y0095415D01*
X0108851Y0096651D02*
X0109949Y0096651D01*
X0109949Y0098250D02*
X0108851Y0098250D01*
X0108796Y0099848D02*
X0110181Y0099848D01*
X0114124Y0093454D02*
X0115673Y0093454D01*
X0115673Y0091856D02*
X0114124Y0091856D01*
X0114124Y0090257D02*
X0115673Y0090257D01*
X0119379Y0085462D02*
X0120387Y0085462D01*
X0119848Y0096651D02*
X0121500Y0096651D01*
X0121500Y0098250D02*
X0119848Y0098250D01*
X0119616Y0099848D02*
X0121500Y0099848D01*
X0129300Y0110415D02*
X0129300Y0077915D01*
X0158585Y0055090D02*
X0158600Y0055090D01*
X0159600Y0048090D02*
X0174975Y0032715D01*
X0159600Y0032715D01*
X0159600Y0048090D01*
X0159600Y0047098D02*
X0160592Y0047098D01*
X0159600Y0045499D02*
X0162191Y0045499D01*
X0163789Y0043901D02*
X0159600Y0043901D01*
X0159600Y0042302D02*
X0165388Y0042302D01*
X0166986Y0040704D02*
X0159600Y0040704D01*
X0159600Y0039105D02*
X0168585Y0039105D01*
X0170183Y0037507D02*
X0159600Y0037507D01*
X0159600Y0035908D02*
X0171782Y0035908D01*
X0173380Y0034310D02*
X0159600Y0034310D01*
X0171242Y0045499D02*
X0176203Y0045499D01*
X0176000Y0043901D02*
X0172840Y0043901D01*
X0174439Y0042302D02*
X0176298Y0042302D01*
X0176037Y0040704D02*
X0177241Y0040704D01*
X0177636Y0039105D02*
X0179789Y0039105D01*
X0188211Y0039105D02*
X0205389Y0039105D01*
X0202841Y0040704D02*
X0190759Y0040704D01*
X0179234Y0048696D02*
X0168045Y0048696D01*
X0169643Y0047098D02*
X0177011Y0047098D01*
X0199600Y0069477D02*
X0263733Y0069477D01*
X0264895Y0068315D02*
X0268705Y0068315D01*
X0271400Y0071010D01*
X0271400Y0074821D01*
X0268705Y0077515D01*
X0264895Y0077515D01*
X0262200Y0074821D01*
X0262200Y0071010D01*
X0264895Y0068315D01*
X0262200Y0071075D02*
X0246465Y0071075D01*
X0246205Y0070815D02*
X0248900Y0073510D01*
X0248900Y0077321D01*
X0246205Y0080015D01*
X0243660Y0080015D01*
X0243386Y0080289D01*
X0242357Y0080715D01*
X0224630Y0080715D01*
X0224055Y0081290D01*
X0222592Y0081897D01*
X0221008Y0081897D01*
X0219545Y0081290D01*
X0218425Y0080171D01*
X0217819Y0078707D01*
X0217819Y0077124D01*
X0218425Y0075660D01*
X0219545Y0074540D01*
X0221008Y0073934D01*
X0222592Y0073934D01*
X0224055Y0074540D01*
X0224630Y0075115D01*
X0239700Y0075115D01*
X0239700Y0073510D01*
X0242395Y0070815D01*
X0246205Y0070815D01*
X0248064Y0072674D02*
X0262200Y0072674D01*
X0262200Y0074272D02*
X0248900Y0074272D01*
X0248900Y0075871D02*
X0263250Y0075871D01*
X0264848Y0077469D02*
X0248752Y0077469D01*
X0247153Y0079068D02*
X0324188Y0079068D01*
X0325786Y0077469D02*
X0268752Y0077469D01*
X0270350Y0075871D02*
X0326500Y0075871D01*
X0326500Y0076470D02*
X0326500Y0074361D01*
X0327307Y0072413D01*
X0328798Y0070922D01*
X0330746Y0070115D01*
X0332854Y0070115D01*
X0334802Y0070922D01*
X0335695Y0071815D01*
X0345016Y0071815D01*
X0346339Y0072364D01*
X0368839Y0094864D01*
X0369852Y0095876D01*
X0370400Y0097199D01*
X0370400Y0111132D01*
X0369852Y0112455D01*
X0367900Y0114407D01*
X0367900Y0134428D01*
X0368425Y0133160D01*
X0369545Y0132040D01*
X0371008Y0131434D01*
X0372592Y0131434D01*
X0372979Y0131595D01*
X0372819Y0131207D01*
X0372819Y0129624D01*
X0373425Y0128160D01*
X0374545Y0127040D01*
X0376008Y0126434D01*
X0377592Y0126434D01*
X0379055Y0127040D01*
X0380175Y0128160D01*
X0380781Y0129624D01*
X0380781Y0131207D01*
X0380175Y0132671D01*
X0379055Y0133790D01*
X0377592Y0134397D01*
X0376008Y0134397D01*
X0375621Y0134236D01*
X0375781Y0134624D01*
X0375781Y0136207D01*
X0375175Y0137671D01*
X0374055Y0138790D01*
X0372592Y0139397D01*
X0372100Y0139397D01*
X0372100Y0310972D01*
X0371674Y0312002D01*
X0370886Y0312789D01*
X0369600Y0314075D01*
X0369600Y0348472D01*
X0369174Y0349502D01*
X0368386Y0350289D01*
X0366674Y0352002D01*
X0365886Y0352789D01*
X0364857Y0353215D01*
X0359630Y0353215D01*
X0359055Y0353790D01*
X0357592Y0354397D01*
X0356008Y0354397D01*
X0354545Y0353790D01*
X0353425Y0352671D01*
X0353050Y0351765D01*
X0352675Y0352671D01*
X0351555Y0353790D01*
X0350092Y0354397D01*
X0348508Y0354397D01*
X0347045Y0353790D01*
X0345925Y0352671D01*
X0345319Y0351207D01*
X0345319Y0349624D01*
X0345925Y0348160D01*
X0347045Y0347040D01*
X0348508Y0346434D01*
X0350092Y0346434D01*
X0351555Y0347040D01*
X0352675Y0348160D01*
X0353050Y0349066D01*
X0353425Y0348160D01*
X0354545Y0347040D01*
X0356008Y0346434D01*
X0357592Y0346434D01*
X0359055Y0347040D01*
X0359630Y0347615D01*
X0363140Y0347615D01*
X0364000Y0346756D01*
X0364000Y0313307D01*
X0360556Y0316751D01*
X0360175Y0317671D01*
X0359055Y0318790D01*
X0357592Y0319397D01*
X0356008Y0319397D01*
X0354545Y0318790D01*
X0353425Y0317671D01*
X0352819Y0316207D01*
X0352819Y0314624D01*
X0353425Y0313160D01*
X0354545Y0312040D01*
X0355465Y0311659D01*
X0360700Y0306424D01*
X0360700Y0299107D01*
X0319852Y0339955D01*
X0318839Y0340967D01*
X0317516Y0341515D01*
X0273291Y0341515D01*
X0263056Y0351751D01*
X0262675Y0352671D01*
X0261555Y0353790D01*
X0260092Y0354397D01*
X0258508Y0354397D01*
X0257045Y0353790D01*
X0255925Y0352671D01*
X0255319Y0351207D01*
X0255319Y0349624D01*
X0255925Y0348160D01*
X0257045Y0347040D01*
X0257965Y0346659D01*
X0269761Y0334864D01*
X0271084Y0334315D01*
X0315309Y0334315D01*
X0360700Y0288924D01*
X0360700Y0112199D01*
X0361248Y0110876D01*
X0362261Y0109864D01*
X0363200Y0108924D01*
X0363200Y0099407D01*
X0342809Y0079015D01*
X0335695Y0079015D01*
X0334802Y0079909D01*
X0332854Y0080715D01*
X0330746Y0080715D01*
X0330544Y0080632D01*
X0323386Y0087789D01*
X0322357Y0088215D01*
X0287960Y0088215D01*
X0269600Y0106575D01*
X0269600Y0109210D01*
X0271400Y0111010D01*
X0271400Y0114821D01*
X0268705Y0117515D01*
X0264895Y0117515D01*
X0262200Y0114821D01*
X0262200Y0113215D01*
X0229600Y0113215D01*
X0229600Y0139256D01*
X0230319Y0139975D01*
X0230319Y0139025D01*
X0230925Y0137562D01*
X0232045Y0136442D01*
X0233508Y0135836D01*
X0235092Y0135836D01*
X0236555Y0136442D01*
X0237675Y0137562D01*
X0238281Y0139025D01*
X0238281Y0139028D01*
X0238508Y0138934D01*
X0240092Y0138934D01*
X0241555Y0139540D01*
X0242675Y0140660D01*
X0243281Y0142124D01*
X0243281Y0143707D01*
X0242675Y0145171D01*
X0241555Y0146290D01*
X0240092Y0146897D01*
X0238508Y0146897D01*
X0237045Y0146290D01*
X0236470Y0145715D01*
X0228743Y0145715D01*
X0227714Y0145289D01*
X0225214Y0142789D01*
X0224426Y0142002D01*
X0224000Y0140972D01*
X0224000Y0114397D01*
X0223508Y0114397D01*
X0222045Y0113790D01*
X0220925Y0112671D01*
X0220550Y0111765D01*
X0220175Y0112671D01*
X0219055Y0113790D01*
X0217592Y0114397D01*
X0216008Y0114397D01*
X0214545Y0113790D01*
X0213425Y0112671D01*
X0212819Y0111207D01*
X0212819Y0109624D01*
X0213425Y0108160D01*
X0214545Y0107040D01*
X0216008Y0106434D01*
X0217592Y0106434D01*
X0219055Y0107040D01*
X0220175Y0108160D01*
X0220550Y0109066D01*
X0220925Y0108160D01*
X0222045Y0107040D01*
X0223508Y0106434D01*
X0225092Y0106434D01*
X0226555Y0107040D01*
X0227130Y0107615D01*
X0264000Y0107615D01*
X0264000Y0104859D01*
X0264426Y0103829D01*
X0285214Y0083042D01*
X0286243Y0082615D01*
X0320640Y0082615D01*
X0326584Y0076672D01*
X0326500Y0076470D01*
X0326537Y0074272D02*
X0271400Y0074272D01*
X0271400Y0072674D02*
X0327199Y0072674D01*
X0328645Y0071075D02*
X0271400Y0071075D01*
X0269867Y0069477D02*
X0390701Y0069477D01*
X0390701Y0071075D02*
X0384531Y0071075D01*
X0383871Y0070415D02*
X0386800Y0073344D01*
X0386800Y0077487D01*
X0383871Y0080415D01*
X0379729Y0080415D01*
X0376800Y0077487D01*
X0376800Y0077194D01*
X0376293Y0078418D01*
X0374802Y0079909D01*
X0372854Y0080715D01*
X0370746Y0080715D01*
X0368798Y0079909D01*
X0367307Y0078418D01*
X0366500Y0076470D01*
X0366500Y0074361D01*
X0367307Y0072413D01*
X0368798Y0070922D01*
X0370746Y0070115D01*
X0372854Y0070115D01*
X0374802Y0070922D01*
X0376293Y0072413D01*
X0376800Y0073637D01*
X0376800Y0073344D01*
X0379729Y0070415D01*
X0383871Y0070415D01*
X0386129Y0072674D02*
X0390701Y0072674D01*
X0390701Y0074272D02*
X0386800Y0074272D01*
X0386800Y0075871D02*
X0390701Y0075871D01*
X0390701Y0077469D02*
X0386800Y0077469D01*
X0385219Y0079068D02*
X0390701Y0079068D01*
X0390701Y0080666D02*
X0372973Y0080666D01*
X0370627Y0080666D02*
X0354642Y0080666D01*
X0353044Y0079068D02*
X0367957Y0079068D01*
X0366914Y0077469D02*
X0351445Y0077469D01*
X0349847Y0075871D02*
X0366500Y0075871D01*
X0366537Y0074272D02*
X0348248Y0074272D01*
X0346649Y0072674D02*
X0367199Y0072674D01*
X0368645Y0071075D02*
X0334955Y0071075D01*
X0331800Y0075415D02*
X0321800Y0085415D01*
X0286800Y0085415D01*
X0266800Y0105415D01*
X0266800Y0112915D01*
X0264300Y0110415D01*
X0224300Y0110415D01*
X0226800Y0112915D01*
X0226800Y0140415D01*
X0229300Y0142915D01*
X0239300Y0142915D01*
X0242985Y0141410D02*
X0360700Y0141410D01*
X0360700Y0143008D02*
X0243281Y0143008D01*
X0242909Y0144607D02*
X0360700Y0144607D01*
X0360700Y0146205D02*
X0241640Y0146205D01*
X0236960Y0146205D02*
X0137470Y0146205D01*
X0139068Y0144607D02*
X0227032Y0144607D01*
X0225433Y0143008D02*
X0140667Y0143008D01*
X0142265Y0141410D02*
X0224181Y0141410D01*
X0224000Y0139811D02*
X0143864Y0139811D01*
X0145463Y0138213D02*
X0224000Y0138213D01*
X0224000Y0136614D02*
X0147061Y0136614D01*
X0148660Y0135016D02*
X0224000Y0135016D01*
X0224000Y0133417D02*
X0150258Y0133417D01*
X0151857Y0131819D02*
X0224000Y0131819D01*
X0224000Y0130220D02*
X0153455Y0130220D01*
X0155054Y0128622D02*
X0224000Y0128622D01*
X0224000Y0127023D02*
X0156652Y0127023D01*
X0158251Y0125425D02*
X0224000Y0125425D01*
X0224000Y0123826D02*
X0159849Y0123826D01*
X0161448Y0122228D02*
X0224000Y0122228D01*
X0224000Y0120629D02*
X0163046Y0120629D01*
X0164645Y0119031D02*
X0224000Y0119031D01*
X0224000Y0117432D02*
X0166243Y0117432D01*
X0167842Y0115834D02*
X0224000Y0115834D01*
X0223118Y0114235D02*
X0217982Y0114235D01*
X0215618Y0114235D02*
X0169440Y0114235D01*
X0171039Y0112637D02*
X0213411Y0112637D01*
X0212819Y0111038D02*
X0172637Y0111038D01*
X0174236Y0109440D02*
X0212895Y0109440D01*
X0213744Y0107841D02*
X0175834Y0107841D01*
X0177433Y0106243D02*
X0264000Y0106243D01*
X0264089Y0104644D02*
X0179031Y0104644D01*
X0180630Y0103046D02*
X0265210Y0103046D01*
X0266809Y0101447D02*
X0182228Y0101447D01*
X0183827Y0099848D02*
X0268407Y0099848D01*
X0270006Y0098250D02*
X0185425Y0098250D01*
X0187024Y0096651D02*
X0271604Y0096651D01*
X0273203Y0095053D02*
X0188622Y0095053D01*
X0190221Y0093454D02*
X0274801Y0093454D01*
X0276400Y0091856D02*
X0191819Y0091856D01*
X0193418Y0090257D02*
X0277998Y0090257D01*
X0279597Y0088659D02*
X0195016Y0088659D01*
X0196615Y0087060D02*
X0281195Y0087060D01*
X0282794Y0085462D02*
X0198213Y0085462D01*
X0199438Y0083863D02*
X0284392Y0083863D01*
X0287516Y0088659D02*
X0352452Y0088659D01*
X0350854Y0087060D02*
X0324115Y0087060D01*
X0325713Y0085462D02*
X0349255Y0085462D01*
X0347657Y0083863D02*
X0327312Y0083863D01*
X0328910Y0082265D02*
X0346058Y0082265D01*
X0344460Y0080666D02*
X0332973Y0080666D01*
X0330627Y0080666D02*
X0330509Y0080666D01*
X0335643Y0079068D02*
X0342861Y0079068D01*
X0356241Y0082265D02*
X0390701Y0082265D01*
X0390701Y0083863D02*
X0357839Y0083863D01*
X0359438Y0085462D02*
X0390701Y0085462D01*
X0390701Y0087060D02*
X0361036Y0087060D01*
X0362635Y0088659D02*
X0390701Y0088659D01*
X0390701Y0090257D02*
X0364233Y0090257D01*
X0365832Y0091856D02*
X0390701Y0091856D01*
X0390701Y0093454D02*
X0384127Y0093454D01*
X0383788Y0093115D02*
X0386600Y0095927D01*
X0386600Y0097715D01*
X0382000Y0097715D01*
X0382000Y0093115D01*
X0383788Y0093115D01*
X0382000Y0093454D02*
X0381600Y0093454D01*
X0381600Y0093115D02*
X0381600Y0097715D01*
X0382000Y0097715D01*
X0382000Y0098115D01*
X0386600Y0098115D01*
X0386600Y0099904D01*
X0383788Y0102715D01*
X0382000Y0102715D01*
X0382000Y0098116D01*
X0381600Y0098116D01*
X0381600Y0102715D01*
X0379812Y0102715D01*
X0377000Y0099904D01*
X0377000Y0098115D01*
X0381600Y0098115D01*
X0381600Y0097715D01*
X0377000Y0097715D01*
X0377000Y0095927D01*
X0379812Y0093115D01*
X0381600Y0093115D01*
X0381600Y0095053D02*
X0382000Y0095053D01*
X0382000Y0096651D02*
X0381600Y0096651D01*
X0381600Y0098250D02*
X0382000Y0098250D01*
X0382000Y0099848D02*
X0381600Y0099848D01*
X0381600Y0101447D02*
X0382000Y0101447D01*
X0385057Y0101447D02*
X0390701Y0101447D01*
X0390701Y0103046D02*
X0370400Y0103046D01*
X0370400Y0104644D02*
X0390701Y0104644D01*
X0390701Y0106243D02*
X0370400Y0106243D01*
X0370400Y0107841D02*
X0390701Y0107841D01*
X0390701Y0109440D02*
X0370400Y0109440D01*
X0370400Y0111038D02*
X0390701Y0111038D01*
X0390701Y0112637D02*
X0369670Y0112637D01*
X0368072Y0114235D02*
X0390701Y0114235D01*
X0390701Y0115834D02*
X0367900Y0115834D01*
X0367900Y0117432D02*
X0390701Y0117432D01*
X0390701Y0119031D02*
X0367900Y0119031D01*
X0367900Y0120629D02*
X0390701Y0120629D01*
X0390701Y0122228D02*
X0367900Y0122228D01*
X0367900Y0123826D02*
X0390701Y0123826D01*
X0390701Y0125425D02*
X0367900Y0125425D01*
X0367900Y0127023D02*
X0374587Y0127023D01*
X0373234Y0128622D02*
X0367900Y0128622D01*
X0367900Y0130220D02*
X0372819Y0130220D01*
X0370080Y0131819D02*
X0367900Y0131819D01*
X0367900Y0133417D02*
X0368319Y0133417D01*
X0371800Y0135415D02*
X0369300Y0137915D01*
X0369300Y0310415D01*
X0366800Y0312915D01*
X0366800Y0347915D01*
X0364300Y0350415D01*
X0356800Y0350415D01*
X0353968Y0347618D02*
X0352132Y0347618D01*
X0352782Y0352413D02*
X0353318Y0352413D01*
X0355079Y0354012D02*
X0351021Y0354012D01*
X0347579Y0354012D02*
X0261021Y0354012D01*
X0262782Y0352413D02*
X0345818Y0352413D01*
X0345319Y0350815D02*
X0263992Y0350815D01*
X0265590Y0349216D02*
X0345488Y0349216D01*
X0346468Y0347618D02*
X0267189Y0347618D01*
X0268787Y0346019D02*
X0364000Y0346019D01*
X0364000Y0344421D02*
X0270386Y0344421D01*
X0271984Y0342822D02*
X0364000Y0342822D01*
X0364000Y0341224D02*
X0318220Y0341224D01*
X0320181Y0339625D02*
X0364000Y0339625D01*
X0364000Y0338027D02*
X0321780Y0338027D01*
X0323378Y0336428D02*
X0364000Y0336428D01*
X0364000Y0334830D02*
X0324977Y0334830D01*
X0326575Y0333231D02*
X0364000Y0333231D01*
X0364000Y0331633D02*
X0328174Y0331633D01*
X0329773Y0330034D02*
X0364000Y0330034D01*
X0364000Y0328436D02*
X0331371Y0328436D01*
X0332970Y0326837D02*
X0364000Y0326837D01*
X0364000Y0325239D02*
X0334568Y0325239D01*
X0336167Y0323640D02*
X0364000Y0323640D01*
X0364000Y0322042D02*
X0337765Y0322042D01*
X0339364Y0320443D02*
X0364000Y0320443D01*
X0364000Y0318845D02*
X0358925Y0318845D01*
X0360351Y0317246D02*
X0364000Y0317246D01*
X0364000Y0315648D02*
X0361659Y0315648D01*
X0363258Y0314049D02*
X0364000Y0314049D01*
X0357871Y0309253D02*
X0350553Y0309253D01*
X0352152Y0307655D02*
X0359469Y0307655D01*
X0360700Y0306056D02*
X0353750Y0306056D01*
X0355349Y0304458D02*
X0360700Y0304458D01*
X0360700Y0302859D02*
X0356947Y0302859D01*
X0358546Y0301261D02*
X0360700Y0301261D01*
X0360700Y0299662D02*
X0360144Y0299662D01*
X0354757Y0294867D02*
X0174600Y0294867D01*
X0174600Y0296465D02*
X0353159Y0296465D01*
X0351560Y0298064D02*
X0174600Y0298064D01*
X0174600Y0299662D02*
X0349962Y0299662D01*
X0348363Y0301261D02*
X0174600Y0301261D01*
X0174600Y0302859D02*
X0346765Y0302859D01*
X0345166Y0304458D02*
X0174600Y0304458D01*
X0174600Y0305972D02*
X0174174Y0307002D01*
X0170781Y0310394D01*
X0170781Y0311207D01*
X0170175Y0312671D01*
X0169055Y0313790D01*
X0167592Y0314397D01*
X0166008Y0314397D01*
X0164545Y0313790D01*
X0163425Y0312671D01*
X0162819Y0311207D01*
X0162819Y0309624D01*
X0163425Y0308160D01*
X0164545Y0307040D01*
X0166008Y0306434D01*
X0166821Y0306434D01*
X0169000Y0304256D01*
X0169000Y0262359D01*
X0169426Y0261329D01*
X0170214Y0260542D01*
X0184426Y0246329D01*
X0185214Y0245542D01*
X0186243Y0245115D01*
X0198970Y0245115D01*
X0199545Y0244540D01*
X0201008Y0243934D01*
X0202592Y0243934D01*
X0204055Y0244540D01*
X0205175Y0245660D01*
X0205781Y0247124D01*
X0205781Y0248707D01*
X0205175Y0250171D01*
X0204055Y0251290D01*
X0202592Y0251897D01*
X0201008Y0251897D01*
X0199545Y0251290D01*
X0198970Y0250715D01*
X0187960Y0250715D01*
X0174600Y0264075D01*
X0174600Y0305972D01*
X0174565Y0306056D02*
X0343568Y0306056D01*
X0341969Y0307655D02*
X0242170Y0307655D01*
X0242675Y0308160D02*
X0243281Y0309624D01*
X0243281Y0311207D01*
X0242675Y0312671D01*
X0242100Y0313246D01*
X0242100Y0316287D01*
X0242172Y0316215D01*
X0246428Y0316215D01*
X0246800Y0316587D01*
X0247172Y0316215D01*
X0251428Y0316215D01*
X0251800Y0316587D01*
X0252172Y0316215D01*
X0256428Y0316215D01*
X0256800Y0316587D01*
X0257172Y0316215D01*
X0261428Y0316215D01*
X0261800Y0316587D01*
X0262172Y0316215D01*
X0266428Y0316215D01*
X0266800Y0316587D01*
X0267172Y0316215D01*
X0271428Y0316215D01*
X0271800Y0316587D01*
X0272172Y0316215D01*
X0276428Y0316215D01*
X0276800Y0316587D01*
X0277172Y0316215D01*
X0281428Y0316215D01*
X0282600Y0317387D01*
X0282600Y0327044D01*
X0281428Y0328215D01*
X0277172Y0328215D01*
X0276800Y0327844D01*
X0276428Y0328215D01*
X0272172Y0328215D01*
X0271800Y0327844D01*
X0271428Y0328215D01*
X0267172Y0328215D01*
X0266800Y0327844D01*
X0266428Y0328215D01*
X0262172Y0328215D01*
X0262100Y0328144D01*
X0262100Y0340972D01*
X0261674Y0342002D01*
X0250886Y0352789D01*
X0249857Y0353215D01*
X0200460Y0353215D01*
X0199600Y0354075D01*
X0199600Y0370589D01*
X0199742Y0370447D01*
X0203858Y0370447D01*
X0206768Y0373357D01*
X0206768Y0377473D01*
X0203858Y0380384D01*
X0199742Y0380384D01*
X0199600Y0380242D01*
X0199600Y0380589D01*
X0199742Y0380447D01*
X0203858Y0380447D01*
X0206768Y0383357D01*
X0206768Y0387473D01*
X0206626Y0387615D01*
X0206973Y0387615D01*
X0206831Y0387473D01*
X0206831Y0383357D01*
X0209742Y0380447D01*
X0213858Y0380447D01*
X0216768Y0383357D01*
X0216768Y0387473D01*
X0216626Y0387615D01*
X0216973Y0387615D01*
X0216831Y0387473D01*
X0216831Y0383357D01*
X0219742Y0380447D01*
X0223858Y0380447D01*
X0226768Y0383357D01*
X0226768Y0387473D01*
X0226626Y0387615D01*
X0226973Y0387615D01*
X0226831Y0387473D01*
X0226831Y0383357D01*
X0229742Y0380447D01*
X0233858Y0380447D01*
X0236768Y0383357D01*
X0236768Y0387473D01*
X0236626Y0387615D01*
X0236973Y0387615D01*
X0236831Y0387473D01*
X0236831Y0383357D01*
X0239742Y0380447D01*
X0243858Y0380447D01*
X0246768Y0383357D01*
X0246768Y0386487D01*
X0246831Y0386424D01*
X0246831Y0383357D01*
X0249742Y0380447D01*
X0253858Y0380447D01*
X0256768Y0383357D01*
X0256768Y0387473D01*
X0253858Y0390384D01*
X0250791Y0390384D01*
X0249174Y0392002D01*
X0248386Y0392789D01*
X0247357Y0393215D01*
X0138743Y0393215D01*
X0137714Y0392789D01*
X0135214Y0390289D01*
X0134583Y0389659D01*
X0133858Y0390384D01*
X0129742Y0390384D01*
X0126831Y0387473D01*
X0126831Y0384407D01*
X0126768Y0384344D01*
X0126768Y0387473D01*
X0123858Y0390384D01*
X0119742Y0390384D01*
X0116831Y0387473D01*
X0116831Y0384407D01*
X0116768Y0384344D01*
X0116768Y0387473D01*
X0113858Y0390384D01*
X0109742Y0390384D01*
X0106831Y0387473D01*
X0106831Y0383357D01*
X0109742Y0380447D01*
X0113858Y0380447D01*
X0114000Y0380589D01*
X0114000Y0380242D01*
X0113858Y0380384D01*
X0109742Y0380384D01*
X0106831Y0377473D01*
X0106831Y0373357D01*
X0109742Y0370447D01*
X0113858Y0370447D01*
X0114000Y0370589D01*
X0114000Y0351575D01*
X0109426Y0347002D01*
X0109000Y0345972D01*
X0109000Y0344859D01*
X0109000Y0328644D01*
X0108928Y0328715D01*
X0104672Y0328715D01*
X0104300Y0328344D01*
X0103928Y0328715D01*
X0099672Y0328715D01*
X0099300Y0328344D01*
X0098928Y0328715D01*
X0094672Y0328715D01*
X0094300Y0328344D01*
X0093928Y0328715D01*
X0089672Y0328715D01*
X0089146Y0328190D01*
X0088795Y0328393D01*
X0088337Y0328515D01*
X0086800Y0328515D01*
X0085263Y0328515D01*
X0084805Y0328393D01*
X0084395Y0328156D01*
X0084060Y0327821D01*
X0083823Y0327410D01*
X0083700Y0326952D01*
X0083700Y0322716D01*
X0086800Y0322716D01*
X0086800Y0328515D01*
X0086800Y0322716D01*
X0086800Y0322716D01*
X0086800Y0322715D01*
X0086800Y0316915D01*
X0088337Y0316915D01*
X0088795Y0317038D01*
X0089146Y0317241D01*
X0089672Y0316715D01*
X0093928Y0316715D01*
X0094300Y0317087D01*
X0094672Y0316715D01*
X0098928Y0316715D01*
X0099300Y0317087D01*
X0099672Y0316715D01*
X0103928Y0316715D01*
X0104300Y0317087D01*
X0104672Y0316715D01*
X0108928Y0316715D01*
X0109300Y0317087D01*
X0109672Y0316715D01*
X0113928Y0316715D01*
X0114300Y0317087D01*
X0114672Y0316715D01*
X0118928Y0316715D01*
X0119300Y0317087D01*
X0119672Y0316715D01*
X0123928Y0316715D01*
X0124300Y0317087D01*
X0124672Y0316715D01*
X0128928Y0316715D01*
X0130100Y0317887D01*
X0130100Y0327544D01*
X0129600Y0328044D01*
X0129600Y0341756D01*
X0133600Y0345756D01*
X0133600Y0272279D01*
X0134087Y0271103D01*
X0134987Y0270203D01*
X0135319Y0269871D01*
X0135319Y0269624D01*
X0135925Y0268160D01*
X0137045Y0267040D01*
X0138508Y0266434D01*
X0140092Y0266434D01*
X0140529Y0266616D01*
X0140925Y0265660D01*
X0142045Y0264540D01*
X0143508Y0263934D01*
X0143756Y0263934D01*
X0151100Y0256590D01*
X0151100Y0241741D01*
X0147975Y0238615D01*
X0144230Y0238615D01*
X0144055Y0238790D01*
X0142592Y0239397D01*
X0141008Y0239397D01*
X0139545Y0238790D01*
X0139370Y0238615D01*
X0139230Y0238615D01*
X0139055Y0238790D01*
X0137592Y0239397D01*
X0136008Y0239397D01*
X0134545Y0238790D01*
X0133425Y0237671D01*
X0132819Y0236207D01*
X0132819Y0234624D01*
X0133425Y0233160D01*
X0134545Y0232040D01*
X0136008Y0231434D01*
X0137592Y0231434D01*
X0139055Y0232040D01*
X0139230Y0232215D01*
X0139370Y0232215D01*
X0139545Y0232040D01*
X0141008Y0231434D01*
X0142592Y0231434D01*
X0144055Y0232040D01*
X0144230Y0232215D01*
X0149937Y0232215D01*
X0151113Y0232703D01*
X0157013Y0238603D01*
X0157500Y0239779D01*
X0157500Y0258552D01*
X0157013Y0259728D01*
X0156113Y0260628D01*
X0148281Y0268460D01*
X0148281Y0268707D01*
X0147675Y0270171D01*
X0146555Y0271290D01*
X0145092Y0271897D01*
X0144844Y0271897D01*
X0143613Y0273128D01*
X0142437Y0273615D01*
X0141730Y0273615D01*
X0141555Y0273790D01*
X0140092Y0274397D01*
X0140000Y0274397D01*
X0140000Y0370447D01*
X0143858Y0370447D01*
X0146768Y0373357D01*
X0146768Y0377473D01*
X0143858Y0380384D01*
X0139742Y0380384D01*
X0139600Y0380242D01*
X0139600Y0380589D01*
X0139742Y0380447D01*
X0143858Y0380447D01*
X0146768Y0383357D01*
X0146768Y0387473D01*
X0146626Y0387615D01*
X0146973Y0387615D01*
X0146831Y0387473D01*
X0146831Y0383357D01*
X0149742Y0380447D01*
X0153858Y0380447D01*
X0156768Y0383357D01*
X0156768Y0387473D01*
X0156626Y0387615D01*
X0156973Y0387615D01*
X0156831Y0387473D01*
X0156831Y0383357D01*
X0159742Y0380447D01*
X0163858Y0380447D01*
X0166768Y0383357D01*
X0166768Y0387473D01*
X0166626Y0387615D01*
X0166973Y0387615D01*
X0166831Y0387473D01*
X0166831Y0383357D01*
X0169742Y0380447D01*
X0173858Y0380447D01*
X0176768Y0383357D01*
X0176768Y0387473D01*
X0176626Y0387615D01*
X0176973Y0387615D01*
X0176831Y0387473D01*
X0176831Y0383357D01*
X0179742Y0380447D01*
X0182809Y0380447D01*
X0182872Y0380384D01*
X0179742Y0380384D01*
X0176831Y0377473D01*
X0176831Y0373357D01*
X0179000Y0371189D01*
X0179000Y0337359D01*
X0179426Y0336329D01*
X0180214Y0335542D01*
X0182714Y0333042D01*
X0183743Y0332615D01*
X0238140Y0332615D01*
X0241500Y0329256D01*
X0241500Y0328144D01*
X0241428Y0328215D01*
X0237172Y0328215D01*
X0236000Y0327044D01*
X0236000Y0317387D01*
X0236500Y0316887D01*
X0236500Y0313246D01*
X0235925Y0312671D01*
X0235319Y0311207D01*
X0235319Y0309624D01*
X0235925Y0308160D01*
X0237045Y0307040D01*
X0238508Y0306434D01*
X0240092Y0306434D01*
X0241555Y0307040D01*
X0242675Y0308160D01*
X0243128Y0309253D02*
X0340371Y0309253D01*
X0338772Y0310852D02*
X0243281Y0310852D01*
X0242766Y0312450D02*
X0337174Y0312450D01*
X0335575Y0314049D02*
X0242100Y0314049D01*
X0242100Y0315648D02*
X0333977Y0315648D01*
X0332378Y0317246D02*
X0282459Y0317246D01*
X0282600Y0318845D02*
X0330780Y0318845D01*
X0329181Y0320443D02*
X0282600Y0320443D01*
X0282600Y0322042D02*
X0327583Y0322042D01*
X0325984Y0323640D02*
X0282600Y0323640D01*
X0282600Y0325239D02*
X0324386Y0325239D01*
X0322787Y0326837D02*
X0282600Y0326837D01*
X0269843Y0334830D02*
X0262100Y0334830D01*
X0262100Y0336428D02*
X0268196Y0336428D01*
X0266598Y0338027D02*
X0262100Y0338027D01*
X0262100Y0339625D02*
X0264999Y0339625D01*
X0263401Y0341224D02*
X0261996Y0341224D01*
X0261802Y0342822D02*
X0260853Y0342822D01*
X0260204Y0344421D02*
X0259255Y0344421D01*
X0258605Y0346019D02*
X0257656Y0346019D01*
X0256468Y0347618D02*
X0256058Y0347618D01*
X0255488Y0349216D02*
X0254459Y0349216D01*
X0255319Y0350815D02*
X0252860Y0350815D01*
X0251262Y0352413D02*
X0255818Y0352413D01*
X0257579Y0354012D02*
X0199663Y0354012D01*
X0199600Y0355610D02*
X0377260Y0355610D01*
X0374700Y0354012D02*
X0358521Y0354012D01*
X0366262Y0352413D02*
X0373101Y0352413D01*
X0372101Y0350815D02*
X0367860Y0350815D01*
X0369292Y0349216D02*
X0371328Y0349216D01*
X0370899Y0347618D02*
X0369600Y0347618D01*
X0369600Y0346019D02*
X0370701Y0346019D01*
X0370701Y0344421D02*
X0369600Y0344421D01*
X0369600Y0342822D02*
X0371004Y0342822D01*
X0371432Y0341224D02*
X0369600Y0341224D01*
X0369600Y0339625D02*
X0372327Y0339625D01*
X0373492Y0338027D02*
X0369600Y0338027D01*
X0369600Y0336428D02*
X0375168Y0336428D01*
X0378423Y0334830D02*
X0369600Y0334830D01*
X0369600Y0333231D02*
X0390701Y0333231D01*
X0390701Y0331633D02*
X0369600Y0331633D01*
X0369600Y0330034D02*
X0390701Y0330034D01*
X0390701Y0328436D02*
X0369600Y0328436D01*
X0369600Y0326837D02*
X0390701Y0326837D01*
X0390701Y0325239D02*
X0369600Y0325239D01*
X0369600Y0323640D02*
X0390701Y0323640D01*
X0390701Y0322042D02*
X0369600Y0322042D01*
X0369600Y0320443D02*
X0390701Y0320443D01*
X0390701Y0318845D02*
X0369600Y0318845D01*
X0369600Y0317246D02*
X0390701Y0317246D01*
X0390701Y0315648D02*
X0369600Y0315648D01*
X0369626Y0314049D02*
X0390701Y0314049D01*
X0390701Y0312450D02*
X0371225Y0312450D01*
X0372100Y0310852D02*
X0390701Y0310852D01*
X0390701Y0309253D02*
X0372100Y0309253D01*
X0372100Y0307655D02*
X0390701Y0307655D01*
X0390701Y0306056D02*
X0372100Y0306056D01*
X0372100Y0304458D02*
X0390701Y0304458D01*
X0390701Y0302859D02*
X0372100Y0302859D01*
X0372100Y0301261D02*
X0390701Y0301261D01*
X0390701Y0299662D02*
X0372100Y0299662D01*
X0372100Y0298064D02*
X0390701Y0298064D01*
X0390701Y0296465D02*
X0372100Y0296465D01*
X0372100Y0294867D02*
X0390701Y0294867D01*
X0390701Y0293268D02*
X0372100Y0293268D01*
X0372100Y0291670D02*
X0390701Y0291670D01*
X0390701Y0290071D02*
X0372100Y0290071D01*
X0372100Y0288473D02*
X0390701Y0288473D01*
X0390701Y0286874D02*
X0372100Y0286874D01*
X0372100Y0285276D02*
X0390701Y0285276D01*
X0390701Y0283677D02*
X0372100Y0283677D01*
X0372100Y0282079D02*
X0390701Y0282079D01*
X0390701Y0280480D02*
X0372100Y0280480D01*
X0372100Y0278882D02*
X0390701Y0278882D01*
X0390701Y0277283D02*
X0372100Y0277283D01*
X0372100Y0275685D02*
X0390701Y0275685D01*
X0390701Y0274086D02*
X0372100Y0274086D01*
X0372100Y0272488D02*
X0376773Y0272488D01*
X0375968Y0272154D02*
X0377805Y0272915D01*
X0385795Y0272915D01*
X0387632Y0272154D01*
X0389039Y0270748D01*
X0389800Y0268910D01*
X0389800Y0266921D01*
X0389039Y0265083D01*
X0387632Y0263677D01*
X0385795Y0262915D01*
X0377805Y0262915D01*
X0375968Y0262154D01*
X0374561Y0260748D01*
X0373800Y0258910D01*
X0373800Y0256921D01*
X0374561Y0255083D01*
X0375968Y0253677D01*
X0377805Y0252915D01*
X0375968Y0252154D01*
X0374561Y0250748D01*
X0373800Y0248910D01*
X0373800Y0246921D01*
X0374561Y0245083D01*
X0375968Y0243677D01*
X0377805Y0242915D01*
X0375968Y0242154D01*
X0374561Y0240748D01*
X0373800Y0238910D01*
X0373800Y0236921D01*
X0374561Y0235083D01*
X0375968Y0233677D01*
X0377805Y0232915D01*
X0375968Y0232154D01*
X0374561Y0230748D01*
X0373800Y0228910D01*
X0373800Y0226921D01*
X0374561Y0225083D01*
X0375968Y0223677D01*
X0377805Y0222915D01*
X0375968Y0222154D01*
X0374561Y0220748D01*
X0373800Y0218910D01*
X0373800Y0216921D01*
X0374561Y0215083D01*
X0375968Y0213677D01*
X0377805Y0212915D01*
X0385795Y0212915D01*
X0387632Y0213677D01*
X0389039Y0215083D01*
X0389800Y0216921D01*
X0389800Y0218910D01*
X0389039Y0220748D01*
X0387632Y0222154D01*
X0385795Y0222915D01*
X0377805Y0222915D01*
X0385795Y0222915D01*
X0387632Y0223677D01*
X0389039Y0225083D01*
X0389800Y0226921D01*
X0389800Y0228910D01*
X0389039Y0230748D01*
X0387632Y0232154D01*
X0385795Y0232915D01*
X0377805Y0232915D01*
X0385795Y0232915D01*
X0387632Y0233677D01*
X0389039Y0235083D01*
X0389800Y0236921D01*
X0389800Y0238910D01*
X0389039Y0240748D01*
X0387632Y0242154D01*
X0385795Y0242915D01*
X0377805Y0242915D01*
X0385795Y0242915D01*
X0387632Y0243677D01*
X0389039Y0245083D01*
X0389800Y0246921D01*
X0389800Y0248910D01*
X0389039Y0250748D01*
X0387632Y0252154D01*
X0385795Y0252915D01*
X0377805Y0252915D01*
X0385795Y0252915D01*
X0387632Y0253677D01*
X0389039Y0255083D01*
X0389800Y0256921D01*
X0389800Y0258910D01*
X0389039Y0260748D01*
X0387632Y0262154D01*
X0385795Y0262915D01*
X0377805Y0262915D01*
X0375968Y0263677D01*
X0374561Y0265083D01*
X0373800Y0266921D01*
X0373800Y0268910D01*
X0374561Y0270748D01*
X0375968Y0272154D01*
X0374703Y0270889D02*
X0372100Y0270889D01*
X0372100Y0269291D02*
X0373958Y0269291D01*
X0373800Y0267692D02*
X0372100Y0267692D01*
X0372100Y0266094D02*
X0374143Y0266094D01*
X0375149Y0264495D02*
X0372100Y0264495D01*
X0372100Y0262897D02*
X0377760Y0262897D01*
X0375112Y0261298D02*
X0372100Y0261298D01*
X0372100Y0259700D02*
X0374127Y0259700D01*
X0373800Y0258101D02*
X0372100Y0258101D01*
X0372100Y0256503D02*
X0373973Y0256503D01*
X0374740Y0254904D02*
X0372100Y0254904D01*
X0372100Y0253306D02*
X0376864Y0253306D01*
X0375521Y0251707D02*
X0372100Y0251707D01*
X0372100Y0250109D02*
X0374296Y0250109D01*
X0373800Y0248510D02*
X0372100Y0248510D01*
X0372100Y0246912D02*
X0373804Y0246912D01*
X0374466Y0245313D02*
X0372100Y0245313D01*
X0372100Y0243715D02*
X0375930Y0243715D01*
X0375929Y0242116D02*
X0372100Y0242116D01*
X0372100Y0240517D02*
X0374466Y0240517D01*
X0373804Y0238919D02*
X0372100Y0238919D01*
X0372100Y0237320D02*
X0373800Y0237320D01*
X0374297Y0235722D02*
X0372100Y0235722D01*
X0372100Y0234123D02*
X0375521Y0234123D01*
X0376863Y0232525D02*
X0372100Y0232525D01*
X0372100Y0230926D02*
X0374740Y0230926D01*
X0373973Y0229328D02*
X0372100Y0229328D01*
X0372100Y0227729D02*
X0373800Y0227729D01*
X0374127Y0226131D02*
X0372100Y0226131D01*
X0372100Y0224532D02*
X0375112Y0224532D01*
X0377761Y0222934D02*
X0372100Y0222934D01*
X0372100Y0221335D02*
X0375149Y0221335D01*
X0374142Y0219737D02*
X0372100Y0219737D01*
X0372100Y0218138D02*
X0373800Y0218138D01*
X0373958Y0216540D02*
X0372100Y0216540D01*
X0372100Y0214941D02*
X0374703Y0214941D01*
X0376774Y0213343D02*
X0372100Y0213343D01*
X0372100Y0211744D02*
X0375904Y0211744D01*
X0375673Y0211577D02*
X0375139Y0211042D01*
X0374695Y0210431D01*
X0374352Y0209758D01*
X0374118Y0209039D01*
X0374000Y0208293D01*
X0374000Y0208115D01*
X0381600Y0208115D01*
X0381600Y0207715D01*
X0382000Y0207715D01*
X0382000Y0203115D01*
X0385178Y0203115D01*
X0385924Y0203234D01*
X0386643Y0203467D01*
X0387316Y0203810D01*
X0387927Y0204254D01*
X0388461Y0204788D01*
X0388905Y0205400D01*
X0389248Y0206073D01*
X0389482Y0206791D01*
X0389600Y0207538D01*
X0389600Y0207715D01*
X0382000Y0207715D01*
X0382000Y0208115D01*
X0389600Y0208115D01*
X0389600Y0208293D01*
X0389482Y0209039D01*
X0389248Y0209758D01*
X0388905Y0210431D01*
X0388461Y0211042D01*
X0387927Y0211577D01*
X0387316Y0212021D01*
X0386643Y0212364D01*
X0385924Y0212597D01*
X0385178Y0212715D01*
X0382000Y0212715D01*
X0382000Y0208116D01*
X0381600Y0208116D01*
X0381600Y0212715D01*
X0378422Y0212715D01*
X0377676Y0212597D01*
X0376957Y0212364D01*
X0376284Y0212021D01*
X0375673Y0211577D01*
X0374549Y0210146D02*
X0372100Y0210146D01*
X0372100Y0208547D02*
X0374040Y0208547D01*
X0374000Y0207715D02*
X0374000Y0207538D01*
X0374118Y0206791D01*
X0374352Y0206073D01*
X0374695Y0205400D01*
X0375139Y0204788D01*
X0375673Y0204254D01*
X0376284Y0203810D01*
X0376957Y0203467D01*
X0377676Y0203234D01*
X0378422Y0203115D01*
X0381600Y0203115D01*
X0381600Y0207715D01*
X0374000Y0207715D01*
X0374093Y0206949D02*
X0372100Y0206949D01*
X0372100Y0205350D02*
X0374731Y0205350D01*
X0376399Y0203752D02*
X0372100Y0203752D01*
X0372100Y0202153D02*
X0390701Y0202153D01*
X0390701Y0200555D02*
X0372100Y0200555D01*
X0372100Y0198956D02*
X0390701Y0198956D01*
X0390701Y0197358D02*
X0372100Y0197358D01*
X0372100Y0195759D02*
X0390701Y0195759D01*
X0390701Y0194161D02*
X0372100Y0194161D01*
X0372100Y0192562D02*
X0390701Y0192562D01*
X0390701Y0190964D02*
X0372100Y0190964D01*
X0372100Y0189365D02*
X0390701Y0189365D01*
X0390701Y0187767D02*
X0372100Y0187767D01*
X0372100Y0186168D02*
X0390701Y0186168D01*
X0390701Y0184570D02*
X0372100Y0184570D01*
X0372100Y0182971D02*
X0390701Y0182971D01*
X0390701Y0181373D02*
X0372100Y0181373D01*
X0372100Y0179774D02*
X0390701Y0179774D01*
X0390701Y0178176D02*
X0372100Y0178176D01*
X0372100Y0176577D02*
X0390701Y0176577D01*
X0390701Y0174979D02*
X0372100Y0174979D01*
X0372100Y0173380D02*
X0390701Y0173380D01*
X0390701Y0171781D02*
X0372100Y0171781D01*
X0372100Y0170183D02*
X0390701Y0170183D01*
X0390701Y0168584D02*
X0372100Y0168584D01*
X0372100Y0166986D02*
X0390701Y0166986D01*
X0390701Y0165387D02*
X0372100Y0165387D01*
X0372100Y0163789D02*
X0390701Y0163789D01*
X0390701Y0162190D02*
X0372100Y0162190D01*
X0372100Y0160592D02*
X0390701Y0160592D01*
X0390701Y0158993D02*
X0372100Y0158993D01*
X0372100Y0157395D02*
X0390701Y0157395D01*
X0390701Y0155796D02*
X0372100Y0155796D01*
X0372100Y0154198D02*
X0390701Y0154198D01*
X0390701Y0152599D02*
X0372100Y0152599D01*
X0372100Y0151001D02*
X0390701Y0151001D01*
X0390701Y0149402D02*
X0372100Y0149402D01*
X0372100Y0147804D02*
X0390701Y0147804D01*
X0390701Y0146205D02*
X0372100Y0146205D01*
X0372100Y0144607D02*
X0390701Y0144607D01*
X0390701Y0143008D02*
X0372100Y0143008D01*
X0372100Y0141410D02*
X0390701Y0141410D01*
X0390701Y0139811D02*
X0372100Y0139811D01*
X0374633Y0138213D02*
X0390701Y0138213D01*
X0390701Y0136614D02*
X0375613Y0136614D01*
X0375781Y0135016D02*
X0390701Y0135016D01*
X0390701Y0133417D02*
X0379428Y0133417D01*
X0380528Y0131819D02*
X0390701Y0131819D01*
X0390701Y0130220D02*
X0380781Y0130220D01*
X0380366Y0128622D02*
X0390701Y0128622D01*
X0390701Y0127023D02*
X0379013Y0127023D01*
X0361181Y0111038D02*
X0324268Y0111038D01*
X0324268Y0109440D02*
X0343541Y0109440D01*
X0343883Y0109781D02*
X0342434Y0108333D01*
X0341650Y0106440D01*
X0341650Y0104391D01*
X0342434Y0102498D01*
X0343883Y0101050D01*
X0345776Y0100265D01*
X0347824Y0100265D01*
X0349717Y0101050D01*
X0351166Y0102498D01*
X0351850Y0104150D01*
X0351850Y0103365D01*
X0354750Y0100465D01*
X0356800Y0100465D01*
X0358850Y0100465D01*
X0361750Y0103365D01*
X0361750Y0105415D01*
X0356800Y0105415D01*
X0356800Y0100465D01*
X0356800Y0105415D01*
X0356800Y0105415D01*
X0356800Y0105416D01*
X0356800Y0110365D01*
X0358850Y0110365D01*
X0361750Y0107466D01*
X0361750Y0105416D01*
X0356800Y0105416D01*
X0356800Y0105416D01*
X0356800Y0110365D01*
X0354750Y0110365D01*
X0351850Y0107466D01*
X0351850Y0106681D01*
X0351166Y0108333D01*
X0349717Y0109781D01*
X0347824Y0110565D01*
X0345776Y0110565D01*
X0343883Y0109781D01*
X0342230Y0107841D02*
X0324268Y0107841D01*
X0324268Y0106459D02*
X0323512Y0104633D01*
X0322114Y0103235D01*
X0320288Y0102478D01*
X0318312Y0102478D01*
X0316486Y0103235D01*
X0315088Y0104633D01*
X0314331Y0106459D01*
X0314331Y0114372D01*
X0315088Y0116198D01*
X0316486Y0117596D01*
X0318312Y0118352D01*
X0320288Y0118352D01*
X0322114Y0117596D01*
X0323512Y0116198D01*
X0324268Y0114372D01*
X0324268Y0106459D01*
X0324179Y0106243D02*
X0341650Y0106243D01*
X0341650Y0104644D02*
X0323517Y0104644D01*
X0321657Y0103046D02*
X0342207Y0103046D01*
X0343485Y0101447D02*
X0274728Y0101447D01*
X0273130Y0103046D02*
X0296943Y0103046D01*
X0296486Y0103235D02*
X0298312Y0102478D01*
X0300288Y0102478D01*
X0302114Y0103235D01*
X0303512Y0104633D01*
X0304268Y0106459D01*
X0304268Y0114372D01*
X0303512Y0116198D01*
X0302114Y0117596D01*
X0300288Y0118352D01*
X0298312Y0118352D01*
X0296486Y0117596D01*
X0295088Y0116198D01*
X0294331Y0114372D01*
X0294331Y0106459D01*
X0295088Y0104633D01*
X0296486Y0103235D01*
X0295083Y0104644D02*
X0271531Y0104644D01*
X0269933Y0106243D02*
X0294421Y0106243D01*
X0294331Y0107841D02*
X0269600Y0107841D01*
X0269829Y0109440D02*
X0294331Y0109440D01*
X0294331Y0111038D02*
X0271400Y0111038D01*
X0271400Y0112637D02*
X0294331Y0112637D01*
X0294331Y0114235D02*
X0271400Y0114235D01*
X0270387Y0115834D02*
X0294937Y0115834D01*
X0296322Y0117432D02*
X0268789Y0117432D01*
X0264811Y0117432D02*
X0229600Y0117432D01*
X0229600Y0115834D02*
X0263213Y0115834D01*
X0262200Y0114235D02*
X0229600Y0114235D01*
X0229600Y0119031D02*
X0360700Y0119031D01*
X0360700Y0120629D02*
X0252017Y0120629D01*
X0252132Y0120677D02*
X0253539Y0122083D01*
X0254300Y0123921D01*
X0254300Y0131910D01*
X0253539Y0133748D01*
X0252132Y0135154D01*
X0250295Y0135915D01*
X0248305Y0135915D01*
X0246468Y0135154D01*
X0245061Y0133748D01*
X0244300Y0131910D01*
X0243539Y0133748D01*
X0242132Y0135154D01*
X0240295Y0135915D01*
X0238305Y0135915D01*
X0236468Y0135154D01*
X0235061Y0133748D01*
X0234300Y0131910D01*
X0234300Y0123921D01*
X0235061Y0122083D01*
X0236468Y0120677D01*
X0238305Y0119915D01*
X0240295Y0119915D01*
X0242132Y0120677D01*
X0243539Y0122083D01*
X0244300Y0123921D01*
X0244300Y0131910D01*
X0244300Y0123921D01*
X0245061Y0122083D01*
X0246468Y0120677D01*
X0248305Y0119915D01*
X0250295Y0119915D01*
X0252132Y0120677D01*
X0253599Y0122228D02*
X0360700Y0122228D01*
X0360700Y0123826D02*
X0254261Y0123826D01*
X0254300Y0125425D02*
X0360700Y0125425D01*
X0360700Y0127023D02*
X0254300Y0127023D01*
X0254300Y0128622D02*
X0360700Y0128622D01*
X0360700Y0130220D02*
X0254300Y0130220D01*
X0254300Y0131819D02*
X0360700Y0131819D01*
X0360700Y0133417D02*
X0253676Y0133417D01*
X0252271Y0135016D02*
X0360700Y0135016D01*
X0360700Y0136614D02*
X0236727Y0136614D01*
X0236329Y0135016D02*
X0229600Y0135016D01*
X0229600Y0136614D02*
X0231873Y0136614D01*
X0230655Y0138213D02*
X0229600Y0138213D01*
X0230156Y0139811D02*
X0230319Y0139811D01*
X0229600Y0133417D02*
X0234924Y0133417D01*
X0234300Y0131819D02*
X0229600Y0131819D01*
X0229600Y0130220D02*
X0234300Y0130220D01*
X0234300Y0128622D02*
X0229600Y0128622D01*
X0229600Y0127023D02*
X0234300Y0127023D01*
X0234300Y0125425D02*
X0229600Y0125425D01*
X0229600Y0123826D02*
X0234339Y0123826D01*
X0235001Y0122228D02*
X0229600Y0122228D01*
X0229600Y0120629D02*
X0236583Y0120629D01*
X0242017Y0120629D02*
X0246583Y0120629D01*
X0245001Y0122228D02*
X0243599Y0122228D01*
X0244261Y0123826D02*
X0244339Y0123826D01*
X0244300Y0125425D02*
X0244300Y0125425D01*
X0244300Y0127023D02*
X0244300Y0127023D01*
X0244300Y0128622D02*
X0244300Y0128622D01*
X0244300Y0130220D02*
X0244300Y0130220D01*
X0244300Y0131819D02*
X0244300Y0131819D01*
X0243676Y0133417D02*
X0244924Y0133417D01*
X0246329Y0135016D02*
X0242271Y0135016D01*
X0237945Y0138213D02*
X0360700Y0138213D01*
X0360700Y0139811D02*
X0241826Y0139811D01*
X0238705Y0158315D02*
X0234895Y0158315D01*
X0232200Y0161010D01*
X0232200Y0164821D01*
X0234895Y0167515D01*
X0238705Y0167515D01*
X0241400Y0164821D01*
X0241400Y0161010D01*
X0238705Y0158315D01*
X0239383Y0158993D02*
X0269217Y0158993D01*
X0269895Y0158315D02*
X0267200Y0161010D01*
X0267200Y0164821D01*
X0269895Y0167515D01*
X0273705Y0167515D01*
X0276400Y0164821D01*
X0276400Y0161010D01*
X0273705Y0158315D01*
X0269895Y0158315D01*
X0267618Y0160592D02*
X0240982Y0160592D01*
X0241400Y0162190D02*
X0267200Y0162190D01*
X0267200Y0163789D02*
X0241400Y0163789D01*
X0240833Y0165387D02*
X0267767Y0165387D01*
X0269365Y0166986D02*
X0239235Y0166986D01*
X0238705Y0168315D02*
X0241400Y0171010D01*
X0241400Y0174821D01*
X0238705Y0177515D01*
X0234895Y0177515D01*
X0232200Y0174821D01*
X0232200Y0171010D01*
X0234895Y0168315D01*
X0238705Y0168315D01*
X0238974Y0168584D02*
X0269626Y0168584D01*
X0269895Y0168315D02*
X0273705Y0168315D01*
X0276400Y0171010D01*
X0276400Y0174821D01*
X0273705Y0177515D01*
X0269895Y0177515D01*
X0267200Y0174821D01*
X0267200Y0171010D01*
X0269895Y0168315D01*
X0268027Y0170183D02*
X0240573Y0170183D01*
X0241400Y0171781D02*
X0267200Y0171781D01*
X0267200Y0173380D02*
X0241400Y0173380D01*
X0241242Y0174979D02*
X0267358Y0174979D01*
X0268956Y0176577D02*
X0239644Y0176577D01*
X0233956Y0176577D02*
X0209644Y0176577D01*
X0208705Y0177515D02*
X0204895Y0177515D01*
X0202200Y0174821D01*
X0202200Y0171010D01*
X0204895Y0168315D01*
X0208705Y0168315D01*
X0211400Y0171010D01*
X0211400Y0174821D01*
X0208705Y0177515D01*
X0211242Y0174979D02*
X0232358Y0174979D01*
X0232200Y0173380D02*
X0211400Y0173380D01*
X0211400Y0171781D02*
X0232200Y0171781D01*
X0233027Y0170183D02*
X0210573Y0170183D01*
X0208974Y0168584D02*
X0234626Y0168584D01*
X0234365Y0166986D02*
X0209235Y0166986D01*
X0208705Y0167515D02*
X0204895Y0167515D01*
X0202200Y0164821D01*
X0202200Y0161010D01*
X0204895Y0158315D01*
X0208705Y0158315D01*
X0211400Y0161010D01*
X0211400Y0164821D01*
X0208705Y0167515D01*
X0210833Y0165387D02*
X0232767Y0165387D01*
X0232200Y0163789D02*
X0211400Y0163789D01*
X0211400Y0162190D02*
X0232200Y0162190D01*
X0232618Y0160592D02*
X0210982Y0160592D01*
X0209383Y0158993D02*
X0234217Y0158993D01*
X0213632Y0189365D02*
X0281391Y0189365D01*
X0283378Y0187767D02*
X0117100Y0187767D01*
X0117100Y0189365D02*
X0209968Y0189365D01*
X0211800Y0192915D02*
X0281800Y0192915D01*
X0284300Y0190415D01*
X0289300Y0190415D01*
X0331800Y0190415D01*
X0336800Y0195415D01*
X0346800Y0195415D01*
X0351800Y0200415D01*
X0351800Y0230415D01*
X0350349Y0234123D02*
X0318251Y0234123D01*
X0317592Y0234397D02*
X0316008Y0234397D01*
X0315621Y0234236D01*
X0315781Y0234624D01*
X0315781Y0236207D01*
X0315621Y0236595D01*
X0316008Y0236434D01*
X0317592Y0236434D01*
X0319055Y0237040D01*
X0320175Y0238160D01*
X0320781Y0239624D01*
X0320781Y0241207D01*
X0320175Y0242671D01*
X0319055Y0243790D01*
X0317592Y0244397D01*
X0316008Y0244397D01*
X0315621Y0244236D01*
X0315781Y0244624D01*
X0315781Y0246207D01*
X0315175Y0247671D01*
X0314055Y0248790D01*
X0312592Y0249397D01*
X0311008Y0249397D01*
X0309545Y0248790D01*
X0308970Y0248215D01*
X0285460Y0248215D01*
X0262100Y0271575D01*
X0262100Y0277687D01*
X0262172Y0277615D01*
X0266428Y0277615D01*
X0266800Y0277987D01*
X0267172Y0277615D01*
X0271428Y0277615D01*
X0271800Y0277987D01*
X0272172Y0277615D01*
X0276428Y0277615D01*
X0276800Y0277987D01*
X0277172Y0277615D01*
X0281428Y0277615D01*
X0282600Y0278787D01*
X0282600Y0288444D01*
X0281428Y0289615D01*
X0277172Y0289615D01*
X0276800Y0289244D01*
X0276428Y0289615D01*
X0272172Y0289615D01*
X0271800Y0289244D01*
X0271428Y0289615D01*
X0267172Y0289615D01*
X0266800Y0289244D01*
X0266428Y0289615D01*
X0262172Y0289615D01*
X0261800Y0289244D01*
X0261428Y0289615D01*
X0257172Y0289615D01*
X0256800Y0289244D01*
X0256428Y0289615D01*
X0252172Y0289615D01*
X0251800Y0289244D01*
X0251428Y0289615D01*
X0247172Y0289615D01*
X0246800Y0289244D01*
X0246428Y0289615D01*
X0242172Y0289615D01*
X0241646Y0289090D01*
X0241295Y0289293D01*
X0240837Y0289415D01*
X0239300Y0289415D01*
X0237763Y0289415D01*
X0237305Y0289293D01*
X0236895Y0289056D01*
X0236560Y0288721D01*
X0236323Y0288310D01*
X0236200Y0287852D01*
X0236200Y0283616D01*
X0239300Y0283616D01*
X0239300Y0289415D01*
X0239300Y0283616D01*
X0239300Y0283616D01*
X0239300Y0283615D01*
X0239300Y0277815D01*
X0240837Y0277815D01*
X0241295Y0277938D01*
X0241500Y0278057D01*
X0241500Y0267359D01*
X0241926Y0266329D01*
X0242714Y0265542D01*
X0280214Y0228042D01*
X0281243Y0227615D01*
X0313970Y0227615D01*
X0314545Y0227040D01*
X0314892Y0226897D01*
X0313508Y0226897D01*
X0312045Y0226290D01*
X0311470Y0225715D01*
X0229630Y0225715D01*
X0229055Y0226290D01*
X0227592Y0226897D01*
X0226008Y0226897D01*
X0224545Y0226290D01*
X0223970Y0225715D01*
X0149630Y0225715D01*
X0149055Y0226290D01*
X0147592Y0226897D01*
X0146008Y0226897D01*
X0144545Y0226290D01*
X0143970Y0225715D01*
X0036243Y0225715D01*
X0035214Y0225289D01*
X0034321Y0224397D01*
X0033508Y0224397D01*
X0032045Y0223790D01*
X0030925Y0222671D01*
X0030319Y0221207D01*
X0030319Y0219624D01*
X0030925Y0218160D01*
X0032045Y0217040D01*
X0033508Y0216434D01*
X0035092Y0216434D01*
X0036555Y0217040D01*
X0037675Y0218160D01*
X0038281Y0219624D01*
X0038281Y0220115D01*
X0143970Y0220115D01*
X0144545Y0219540D01*
X0146008Y0218934D01*
X0147592Y0218934D01*
X0149055Y0219540D01*
X0149630Y0220115D01*
X0223970Y0220115D01*
X0224545Y0219540D01*
X0226008Y0218934D01*
X0227592Y0218934D01*
X0229055Y0219540D01*
X0229630Y0220115D01*
X0311470Y0220115D01*
X0312045Y0219540D01*
X0313508Y0218934D01*
X0315092Y0218934D01*
X0316555Y0219540D01*
X0317675Y0220660D01*
X0318281Y0222124D01*
X0318281Y0223707D01*
X0317675Y0225171D01*
X0316555Y0226290D01*
X0316208Y0226434D01*
X0317592Y0226434D01*
X0319055Y0227040D01*
X0320175Y0228160D01*
X0320781Y0229624D01*
X0320781Y0231207D01*
X0320175Y0232671D01*
X0319055Y0233790D01*
X0317592Y0234397D01*
X0315781Y0235722D02*
X0360700Y0235722D01*
X0360700Y0237320D02*
X0319335Y0237320D01*
X0320489Y0238919D02*
X0360700Y0238919D01*
X0360700Y0240517D02*
X0320781Y0240517D01*
X0320405Y0242116D02*
X0360700Y0242116D01*
X0360700Y0243715D02*
X0319131Y0243715D01*
X0315781Y0245313D02*
X0360700Y0245313D01*
X0360700Y0246912D02*
X0315489Y0246912D01*
X0314336Y0248510D02*
X0360700Y0248510D01*
X0360700Y0250109D02*
X0283567Y0250109D01*
X0281968Y0251707D02*
X0360700Y0251707D01*
X0360700Y0253306D02*
X0280370Y0253306D01*
X0278771Y0254904D02*
X0360700Y0254904D01*
X0360700Y0256503D02*
X0277173Y0256503D01*
X0275574Y0258101D02*
X0360700Y0258101D01*
X0360700Y0259700D02*
X0273976Y0259700D01*
X0272377Y0261298D02*
X0360700Y0261298D01*
X0360700Y0262897D02*
X0270779Y0262897D01*
X0269180Y0264495D02*
X0360700Y0264495D01*
X0360700Y0266094D02*
X0267582Y0266094D01*
X0265983Y0267692D02*
X0360700Y0267692D01*
X0360700Y0269291D02*
X0264385Y0269291D01*
X0262786Y0270889D02*
X0360700Y0270889D01*
X0360700Y0272488D02*
X0262100Y0272488D01*
X0262100Y0274086D02*
X0360700Y0274086D01*
X0360700Y0275685D02*
X0262100Y0275685D01*
X0262100Y0277283D02*
X0360700Y0277283D01*
X0360700Y0278882D02*
X0282600Y0278882D01*
X0282600Y0280480D02*
X0360700Y0280480D01*
X0360700Y0282079D02*
X0282600Y0282079D01*
X0282600Y0283677D02*
X0360700Y0283677D01*
X0360700Y0285276D02*
X0282600Y0285276D01*
X0282600Y0286874D02*
X0360700Y0286874D01*
X0360700Y0288473D02*
X0282571Y0288473D01*
X0259300Y0283615D02*
X0259300Y0270415D01*
X0284300Y0245415D01*
X0311800Y0245415D01*
X0309264Y0248510D02*
X0285165Y0248510D01*
X0284300Y0240415D02*
X0254300Y0270415D01*
X0254300Y0283615D01*
X0249300Y0283615D02*
X0249300Y0270415D01*
X0284300Y0235415D01*
X0311800Y0235415D01*
X0316800Y0230415D02*
X0281800Y0230415D01*
X0244300Y0267915D01*
X0244300Y0283615D01*
X0239300Y0283615D02*
X0239300Y0283615D01*
X0239300Y0277815D01*
X0237763Y0277815D01*
X0237305Y0277938D01*
X0236895Y0278175D01*
X0236560Y0278510D01*
X0236323Y0278921D01*
X0236200Y0279378D01*
X0236200Y0283615D01*
X0239300Y0283615D01*
X0239300Y0302915D01*
X0236430Y0307655D02*
X0173520Y0307655D01*
X0171922Y0309253D02*
X0235472Y0309253D01*
X0235319Y0310852D02*
X0170781Y0310852D01*
X0170266Y0312450D02*
X0235834Y0312450D01*
X0236500Y0314049D02*
X0168431Y0314049D01*
X0165169Y0314049D02*
X0140000Y0314049D01*
X0140000Y0315648D02*
X0236500Y0315648D01*
X0236141Y0317246D02*
X0140000Y0317246D01*
X0140000Y0318845D02*
X0236000Y0318845D01*
X0236000Y0320443D02*
X0140000Y0320443D01*
X0140000Y0322042D02*
X0236000Y0322042D01*
X0236000Y0323640D02*
X0140000Y0323640D01*
X0140000Y0325239D02*
X0236000Y0325239D01*
X0236000Y0326837D02*
X0140000Y0326837D01*
X0140000Y0328436D02*
X0241500Y0328436D01*
X0240722Y0330034D02*
X0140000Y0330034D01*
X0140000Y0331633D02*
X0239123Y0331633D01*
X0239300Y0335415D02*
X0184300Y0335415D01*
X0181800Y0337915D01*
X0181800Y0375415D01*
X0178594Y0371595D02*
X0175006Y0371595D01*
X0173858Y0370447D02*
X0176768Y0373357D01*
X0176768Y0377473D01*
X0173858Y0380384D01*
X0169742Y0380384D01*
X0166831Y0377473D01*
X0166831Y0373357D01*
X0169742Y0370447D01*
X0173858Y0370447D01*
X0176605Y0373194D02*
X0176995Y0373194D01*
X0176831Y0374792D02*
X0176768Y0374792D01*
X0176768Y0376391D02*
X0176831Y0376391D01*
X0177347Y0377989D02*
X0176253Y0377989D01*
X0174654Y0379588D02*
X0178946Y0379588D01*
X0179002Y0381186D02*
X0174598Y0381186D01*
X0176196Y0382785D02*
X0177404Y0382785D01*
X0176831Y0384384D02*
X0176768Y0384384D01*
X0176768Y0385982D02*
X0176831Y0385982D01*
X0176939Y0387581D02*
X0176661Y0387581D01*
X0181800Y0385415D02*
X0186800Y0380415D01*
X0186800Y0342915D01*
X0189300Y0340415D01*
X0244300Y0340415D01*
X0249300Y0335415D01*
X0249300Y0322215D01*
X0244300Y0322215D02*
X0244300Y0330415D01*
X0239300Y0335415D01*
X0246800Y0345415D02*
X0194300Y0345415D01*
X0191800Y0347915D01*
X0191800Y0375415D01*
X0196800Y0380415D02*
X0196800Y0352915D01*
X0199300Y0350415D01*
X0249300Y0350415D01*
X0259300Y0340415D01*
X0259300Y0322215D01*
X0254300Y0322215D02*
X0254300Y0337915D01*
X0246800Y0345415D01*
X0244300Y0360415D02*
X0259300Y0360415D01*
X0256800Y0362915D01*
X0256800Y0390415D01*
X0249300Y0397915D01*
X0206800Y0397915D01*
X0206661Y0387581D02*
X0206939Y0387581D01*
X0206831Y0385982D02*
X0206768Y0385982D01*
X0206768Y0384384D02*
X0206831Y0384384D01*
X0207404Y0382785D02*
X0206196Y0382785D01*
X0204598Y0381186D02*
X0209002Y0381186D01*
X0209742Y0380384D02*
X0206831Y0377473D01*
X0206831Y0373357D01*
X0209742Y0370447D01*
X0213858Y0370447D01*
X0216768Y0373357D01*
X0216768Y0377473D01*
X0213858Y0380384D01*
X0209742Y0380384D01*
X0208946Y0379588D02*
X0204654Y0379588D01*
X0206253Y0377989D02*
X0207347Y0377989D01*
X0206831Y0376391D02*
X0206768Y0376391D01*
X0206768Y0374792D02*
X0206831Y0374792D01*
X0206995Y0373194D02*
X0206605Y0373194D01*
X0205006Y0371595D02*
X0208594Y0371595D01*
X0215006Y0371595D02*
X0218594Y0371595D01*
X0219742Y0370447D02*
X0223858Y0370447D01*
X0226768Y0373357D01*
X0226768Y0377473D01*
X0223858Y0380384D01*
X0219742Y0380384D01*
X0216831Y0377473D01*
X0216831Y0373357D01*
X0219742Y0370447D01*
X0216995Y0373194D02*
X0216605Y0373194D01*
X0216768Y0374792D02*
X0216831Y0374792D01*
X0216831Y0376391D02*
X0216768Y0376391D01*
X0216253Y0377989D02*
X0217347Y0377989D01*
X0218946Y0379588D02*
X0214654Y0379588D01*
X0214598Y0381186D02*
X0219002Y0381186D01*
X0217404Y0382785D02*
X0216196Y0382785D01*
X0216768Y0384384D02*
X0216831Y0384384D01*
X0216831Y0385982D02*
X0216768Y0385982D01*
X0216661Y0387581D02*
X0216939Y0387581D01*
X0224598Y0381186D02*
X0229002Y0381186D01*
X0229742Y0380384D02*
X0226831Y0377473D01*
X0226831Y0373357D01*
X0229742Y0370447D01*
X0233858Y0370447D01*
X0236768Y0373357D01*
X0236768Y0377473D01*
X0233858Y0380384D01*
X0229742Y0380384D01*
X0228946Y0379588D02*
X0224654Y0379588D01*
X0226253Y0377989D02*
X0227347Y0377989D01*
X0226831Y0376391D02*
X0226768Y0376391D01*
X0226768Y0374792D02*
X0226831Y0374792D01*
X0226995Y0373194D02*
X0226605Y0373194D01*
X0225006Y0371595D02*
X0228594Y0371595D01*
X0235006Y0371595D02*
X0238876Y0371595D01*
X0239825Y0370647D02*
X0241616Y0370647D01*
X0241616Y0375231D01*
X0241984Y0375231D01*
X0241984Y0370647D01*
X0243775Y0370647D01*
X0246568Y0373440D01*
X0246568Y0375231D01*
X0241984Y0375231D01*
X0241984Y0375600D01*
X0241616Y0375600D01*
X0241616Y0380184D01*
X0239825Y0380184D01*
X0237031Y0377391D01*
X0237031Y0375600D01*
X0241616Y0375600D01*
X0241616Y0375231D01*
X0237031Y0375231D01*
X0237031Y0373440D01*
X0239825Y0370647D01*
X0241616Y0371595D02*
X0241984Y0371595D01*
X0241984Y0373194D02*
X0241616Y0373194D01*
X0241616Y0374792D02*
X0241984Y0374792D01*
X0241984Y0375600D02*
X0246568Y0375600D01*
X0246568Y0377391D01*
X0243775Y0380184D01*
X0241984Y0380184D01*
X0241984Y0375600D01*
X0241984Y0376391D02*
X0241616Y0376391D01*
X0241616Y0377989D02*
X0241984Y0377989D01*
X0241984Y0379588D02*
X0241616Y0379588D01*
X0239229Y0379588D02*
X0234654Y0379588D01*
X0234598Y0381186D02*
X0239002Y0381186D01*
X0237404Y0382785D02*
X0236196Y0382785D01*
X0236768Y0384384D02*
X0236831Y0384384D01*
X0236831Y0385982D02*
X0236768Y0385982D01*
X0236661Y0387581D02*
X0236939Y0387581D01*
X0236253Y0377989D02*
X0237630Y0377989D01*
X0237031Y0376391D02*
X0236768Y0376391D01*
X0236768Y0374792D02*
X0237031Y0374792D01*
X0237278Y0373194D02*
X0236605Y0373194D01*
X0244724Y0371595D02*
X0248594Y0371595D01*
X0249742Y0370447D02*
X0253858Y0370447D01*
X0256768Y0373357D01*
X0256768Y0377473D01*
X0253858Y0380384D01*
X0249742Y0380384D01*
X0246831Y0377473D01*
X0246831Y0373357D01*
X0249742Y0370447D01*
X0246995Y0373194D02*
X0246322Y0373194D01*
X0246568Y0374792D02*
X0246831Y0374792D01*
X0246831Y0376391D02*
X0246568Y0376391D01*
X0245970Y0377989D02*
X0247347Y0377989D01*
X0248946Y0379588D02*
X0244371Y0379588D01*
X0244598Y0381186D02*
X0249002Y0381186D01*
X0247404Y0382785D02*
X0246196Y0382785D01*
X0246768Y0384384D02*
X0246831Y0384384D01*
X0246831Y0385982D02*
X0246768Y0385982D01*
X0246800Y0390415D02*
X0139300Y0390415D01*
X0136800Y0387915D01*
X0136800Y0370415D01*
X0140000Y0369997D02*
X0179000Y0369997D01*
X0179000Y0368398D02*
X0140000Y0368398D01*
X0140000Y0366800D02*
X0179000Y0366800D01*
X0179000Y0365201D02*
X0140000Y0365201D01*
X0140000Y0363603D02*
X0179000Y0363603D01*
X0179000Y0362004D02*
X0140000Y0362004D01*
X0140000Y0360406D02*
X0179000Y0360406D01*
X0179000Y0358807D02*
X0140000Y0358807D01*
X0140000Y0357209D02*
X0179000Y0357209D01*
X0179000Y0355610D02*
X0140000Y0355610D01*
X0140000Y0354012D02*
X0179000Y0354012D01*
X0179000Y0352413D02*
X0140000Y0352413D01*
X0140000Y0350815D02*
X0179000Y0350815D01*
X0179000Y0349216D02*
X0140000Y0349216D01*
X0140000Y0347618D02*
X0179000Y0347618D01*
X0179000Y0346019D02*
X0140000Y0346019D01*
X0140000Y0344421D02*
X0179000Y0344421D01*
X0179000Y0342822D02*
X0140000Y0342822D01*
X0140000Y0341224D02*
X0179000Y0341224D01*
X0179000Y0339625D02*
X0140000Y0339625D01*
X0140000Y0338027D02*
X0179000Y0338027D01*
X0179385Y0336428D02*
X0140000Y0336428D01*
X0140000Y0334830D02*
X0180926Y0334830D01*
X0180214Y0335542D02*
X0180214Y0335542D01*
X0182525Y0333231D02*
X0140000Y0333231D01*
X0133600Y0333231D02*
X0129600Y0333231D01*
X0129600Y0331633D02*
X0133600Y0331633D01*
X0133600Y0330034D02*
X0129600Y0330034D01*
X0129600Y0328436D02*
X0133600Y0328436D01*
X0133600Y0326837D02*
X0130100Y0326837D01*
X0130100Y0325239D02*
X0133600Y0325239D01*
X0133600Y0323640D02*
X0130100Y0323640D01*
X0130100Y0322042D02*
X0133600Y0322042D01*
X0133600Y0320443D02*
X0130100Y0320443D01*
X0130100Y0318845D02*
X0133600Y0318845D01*
X0133600Y0317246D02*
X0129459Y0317246D01*
X0133600Y0315648D02*
X0006600Y0315648D01*
X0006600Y0317246D02*
X0084445Y0317246D01*
X0084395Y0317275D02*
X0084805Y0317038D01*
X0085263Y0316915D01*
X0086800Y0316915D01*
X0086800Y0322715D01*
X0086800Y0322715D01*
X0083700Y0322715D01*
X0083700Y0318478D01*
X0083823Y0318021D01*
X0084060Y0317610D01*
X0084395Y0317275D01*
X0083700Y0318845D02*
X0006600Y0318845D01*
X0006600Y0320443D02*
X0083700Y0320443D01*
X0083700Y0322042D02*
X0006600Y0322042D01*
X0006600Y0323640D02*
X0083700Y0323640D01*
X0083700Y0325239D02*
X0006600Y0325239D01*
X0006600Y0326837D02*
X0083700Y0326837D01*
X0084965Y0328436D02*
X0006600Y0328436D01*
X0006600Y0330034D02*
X0010160Y0330034D01*
X0007386Y0331633D02*
X0006600Y0331633D01*
X0018440Y0330034D02*
X0109000Y0330034D01*
X0109000Y0331633D02*
X0021214Y0331633D01*
X0022812Y0333231D02*
X0109000Y0333231D01*
X0109000Y0334830D02*
X0023891Y0334830D01*
X0024722Y0336428D02*
X0109000Y0336428D01*
X0109000Y0338027D02*
X0025151Y0338027D01*
X0025399Y0339625D02*
X0109000Y0339625D01*
X0109000Y0341224D02*
X0025399Y0341224D01*
X0025146Y0342822D02*
X0109000Y0342822D01*
X0109000Y0344421D02*
X0024718Y0344421D01*
X0023881Y0346019D02*
X0109019Y0346019D01*
X0110042Y0347618D02*
X0022794Y0347618D01*
X0021196Y0349216D02*
X0111641Y0349216D01*
X0113239Y0350815D02*
X0018373Y0350815D01*
X0010227Y0350815D02*
X0006600Y0350815D01*
X0006600Y0352413D02*
X0114000Y0352413D01*
X0114000Y0354012D02*
X0006600Y0354012D01*
X0006600Y0355610D02*
X0114000Y0355610D01*
X0114000Y0357209D02*
X0006600Y0357209D01*
X0006600Y0358807D02*
X0114000Y0358807D01*
X0114000Y0360406D02*
X0006600Y0360406D01*
X0006600Y0362004D02*
X0114000Y0362004D01*
X0114000Y0363603D02*
X0006600Y0363603D01*
X0006600Y0365201D02*
X0114000Y0365201D01*
X0114000Y0366800D02*
X0006600Y0366800D01*
X0006600Y0368398D02*
X0114000Y0368398D01*
X0114000Y0369997D02*
X0006600Y0369997D01*
X0006600Y0371595D02*
X0038594Y0371595D01*
X0039742Y0370447D02*
X0036831Y0373357D01*
X0036831Y0377473D01*
X0039742Y0380384D01*
X0043858Y0380384D01*
X0046768Y0377473D01*
X0046768Y0373357D01*
X0043858Y0370447D01*
X0039742Y0370447D01*
X0036995Y0373194D02*
X0006600Y0373194D01*
X0006600Y0374792D02*
X0036831Y0374792D01*
X0036831Y0376391D02*
X0006600Y0376391D01*
X0006600Y0377989D02*
X0037347Y0377989D01*
X0038946Y0379588D02*
X0006600Y0379588D01*
X0006600Y0381186D02*
X0039002Y0381186D01*
X0039742Y0380447D02*
X0036831Y0383357D01*
X0036831Y0387473D01*
X0039742Y0390384D01*
X0043858Y0390384D01*
X0046768Y0387473D01*
X0046768Y0383357D01*
X0043858Y0380447D01*
X0039742Y0380447D01*
X0037404Y0382785D02*
X0006600Y0382785D01*
X0006600Y0384384D02*
X0036831Y0384384D01*
X0036831Y0385982D02*
X0006600Y0385982D01*
X0006600Y0387581D02*
X0036939Y0387581D01*
X0038537Y0389179D02*
X0006600Y0389179D01*
X0006600Y0390778D02*
X0135702Y0390778D01*
X0137301Y0392376D02*
X0006600Y0392376D01*
X0006600Y0393975D02*
X0390701Y0393975D01*
X0390701Y0395573D02*
X0006600Y0395573D01*
X0006600Y0397172D02*
X0390701Y0397172D01*
X0390701Y0398770D02*
X0006600Y0398770D01*
X0006600Y0400369D02*
X0009503Y0400369D01*
X0007052Y0401967D02*
X0006600Y0401967D01*
X0019097Y0400369D02*
X0377003Y0400369D01*
X0374552Y0401967D02*
X0021548Y0401967D01*
X0023147Y0403566D02*
X0372953Y0403566D01*
X0372016Y0405164D02*
X0024084Y0405164D01*
X0024812Y0406763D02*
X0371288Y0406763D01*
X0370860Y0408361D02*
X0025240Y0408361D01*
X0025399Y0409960D02*
X0370701Y0409960D01*
X0370701Y0411558D02*
X0025399Y0411558D01*
X0025056Y0413157D02*
X0371044Y0413157D01*
X0371489Y0414755D02*
X0024611Y0414755D01*
X0023688Y0416354D02*
X0372412Y0416354D01*
X0386597Y0400369D02*
X0390701Y0400369D01*
X0390701Y0401967D02*
X0389048Y0401967D01*
X0390647Y0403566D02*
X0390701Y0403566D01*
X0390701Y0392376D02*
X0248799Y0392376D01*
X0250398Y0390778D02*
X0390701Y0390778D01*
X0390701Y0389179D02*
X0335063Y0389179D01*
X0333858Y0390384D02*
X0329742Y0390384D01*
X0326831Y0387473D01*
X0326831Y0383357D01*
X0329742Y0380447D01*
X0333858Y0380447D01*
X0336768Y0383357D01*
X0336768Y0387473D01*
X0333858Y0390384D01*
X0336661Y0387581D02*
X0390701Y0387581D01*
X0390701Y0385982D02*
X0336768Y0385982D01*
X0336768Y0384384D02*
X0390701Y0384384D01*
X0390701Y0382785D02*
X0336196Y0382785D01*
X0334598Y0381186D02*
X0390701Y0381186D01*
X0390701Y0379588D02*
X0334654Y0379588D01*
X0333858Y0380384D02*
X0336768Y0377473D01*
X0336768Y0373357D01*
X0333858Y0370447D01*
X0329742Y0370447D01*
X0326831Y0373357D01*
X0326831Y0377473D01*
X0329742Y0380384D01*
X0333858Y0380384D01*
X0336253Y0377989D02*
X0390701Y0377989D01*
X0390701Y0376391D02*
X0336768Y0376391D01*
X0336768Y0374792D02*
X0390701Y0374792D01*
X0390701Y0373194D02*
X0336605Y0373194D01*
X0335006Y0371595D02*
X0390701Y0371595D01*
X0390701Y0369997D02*
X0199600Y0369997D01*
X0199600Y0368398D02*
X0390701Y0368398D01*
X0390701Y0366800D02*
X0199600Y0366800D01*
X0199600Y0365201D02*
X0390701Y0365201D01*
X0390701Y0363603D02*
X0199600Y0363603D01*
X0199600Y0362004D02*
X0390701Y0362004D01*
X0390701Y0360406D02*
X0199600Y0360406D01*
X0199600Y0358807D02*
X0390701Y0358807D01*
X0390701Y0357209D02*
X0199600Y0357209D01*
X0196800Y0380415D02*
X0191800Y0385415D01*
X0169002Y0381186D02*
X0164598Y0381186D01*
X0163858Y0380384D02*
X0159742Y0380384D01*
X0156831Y0377473D01*
X0156831Y0373357D01*
X0159742Y0370447D01*
X0163858Y0370447D01*
X0166768Y0373357D01*
X0166768Y0377473D01*
X0163858Y0380384D01*
X0164654Y0379588D02*
X0168946Y0379588D01*
X0167347Y0377989D02*
X0166253Y0377989D01*
X0166768Y0376391D02*
X0166831Y0376391D01*
X0166831Y0374792D02*
X0166768Y0374792D01*
X0166605Y0373194D02*
X0166995Y0373194D01*
X0168594Y0371595D02*
X0165006Y0371595D01*
X0158594Y0371595D02*
X0155006Y0371595D01*
X0153858Y0370447D02*
X0156768Y0373357D01*
X0156768Y0377473D01*
X0153858Y0380384D01*
X0149742Y0380384D01*
X0146831Y0377473D01*
X0146831Y0373357D01*
X0149742Y0370447D01*
X0153858Y0370447D01*
X0156605Y0373194D02*
X0156995Y0373194D01*
X0156831Y0374792D02*
X0156768Y0374792D01*
X0156768Y0376391D02*
X0156831Y0376391D01*
X0157347Y0377989D02*
X0156253Y0377989D01*
X0154654Y0379588D02*
X0158946Y0379588D01*
X0159002Y0381186D02*
X0154598Y0381186D01*
X0156196Y0382785D02*
X0157404Y0382785D01*
X0156831Y0384384D02*
X0156768Y0384384D01*
X0156768Y0385982D02*
X0156831Y0385982D01*
X0156939Y0387581D02*
X0156661Y0387581D01*
X0146939Y0387581D02*
X0146661Y0387581D01*
X0146768Y0385982D02*
X0146831Y0385982D01*
X0146831Y0384384D02*
X0146768Y0384384D01*
X0146196Y0382785D02*
X0147404Y0382785D01*
X0149002Y0381186D02*
X0144598Y0381186D01*
X0144654Y0379588D02*
X0148946Y0379588D01*
X0147347Y0377989D02*
X0146253Y0377989D01*
X0146768Y0376391D02*
X0146831Y0376391D01*
X0146831Y0374792D02*
X0146768Y0374792D01*
X0146605Y0373194D02*
X0146995Y0373194D01*
X0148594Y0371595D02*
X0145006Y0371595D01*
X0131800Y0375415D02*
X0131800Y0347915D01*
X0126800Y0342915D01*
X0126800Y0322715D01*
X0121800Y0322715D02*
X0121800Y0345415D01*
X0126800Y0350415D01*
X0126800Y0380415D01*
X0131800Y0385415D01*
X0128537Y0389179D02*
X0125063Y0389179D01*
X0126661Y0387581D02*
X0126939Y0387581D01*
X0126831Y0385982D02*
X0126768Y0385982D01*
X0126768Y0384384D02*
X0126808Y0384384D01*
X0121800Y0385415D02*
X0116800Y0380415D01*
X0116800Y0350415D01*
X0111800Y0345415D01*
X0111800Y0322715D01*
X0116800Y0322715D02*
X0116800Y0345415D01*
X0121800Y0350415D01*
X0121800Y0375415D01*
X0116808Y0384384D02*
X0116768Y0384384D01*
X0116768Y0385982D02*
X0116831Y0385982D01*
X0116939Y0387581D02*
X0116661Y0387581D01*
X0115063Y0389179D02*
X0118537Y0389179D01*
X0108537Y0389179D02*
X0105063Y0389179D01*
X0103858Y0390384D02*
X0099742Y0390384D01*
X0096831Y0387473D01*
X0096831Y0383357D01*
X0099742Y0380447D01*
X0103858Y0380447D01*
X0106768Y0383357D01*
X0106768Y0387473D01*
X0103858Y0390384D01*
X0106661Y0387581D02*
X0106939Y0387581D01*
X0106831Y0385982D02*
X0106768Y0385982D01*
X0106768Y0384384D02*
X0106831Y0384384D01*
X0107404Y0382785D02*
X0106196Y0382785D01*
X0104598Y0381186D02*
X0109002Y0381186D01*
X0108946Y0379588D02*
X0104654Y0379588D01*
X0103858Y0380384D02*
X0106768Y0377473D01*
X0106768Y0373357D01*
X0103858Y0370447D01*
X0099742Y0370447D01*
X0096831Y0373357D01*
X0096831Y0377473D01*
X0099742Y0380384D01*
X0103858Y0380384D01*
X0106253Y0377989D02*
X0107347Y0377989D01*
X0106831Y0376391D02*
X0106768Y0376391D01*
X0106768Y0374792D02*
X0106831Y0374792D01*
X0106995Y0373194D02*
X0106605Y0373194D01*
X0105006Y0371595D02*
X0108594Y0371595D01*
X0098594Y0371595D02*
X0095006Y0371595D01*
X0093858Y0370447D02*
X0096768Y0373357D01*
X0096768Y0377473D01*
X0093858Y0380384D01*
X0089742Y0380384D01*
X0086831Y0377473D01*
X0086831Y0373357D01*
X0089742Y0370447D01*
X0093858Y0370447D01*
X0096605Y0373194D02*
X0096995Y0373194D01*
X0096831Y0374792D02*
X0096768Y0374792D01*
X0096768Y0376391D02*
X0096831Y0376391D01*
X0097347Y0377989D02*
X0096253Y0377989D01*
X0094654Y0379588D02*
X0098946Y0379588D01*
X0099002Y0381186D02*
X0094598Y0381186D01*
X0093858Y0380447D02*
X0096768Y0383357D01*
X0096768Y0387473D01*
X0093858Y0390384D01*
X0089742Y0390384D01*
X0086831Y0387473D01*
X0086831Y0383357D01*
X0089742Y0380447D01*
X0093858Y0380447D01*
X0096196Y0382785D02*
X0097404Y0382785D01*
X0096831Y0384384D02*
X0096768Y0384384D01*
X0096768Y0385982D02*
X0096831Y0385982D01*
X0096939Y0387581D02*
X0096661Y0387581D01*
X0095063Y0389179D02*
X0098537Y0389179D01*
X0088537Y0389179D02*
X0085063Y0389179D01*
X0083858Y0390384D02*
X0079742Y0390384D01*
X0076831Y0387473D01*
X0076831Y0383357D01*
X0079742Y0380447D01*
X0083858Y0380447D01*
X0086768Y0383357D01*
X0086768Y0387473D01*
X0083858Y0390384D01*
X0086661Y0387581D02*
X0086939Y0387581D01*
X0086831Y0385982D02*
X0086768Y0385982D01*
X0086768Y0384384D02*
X0086831Y0384384D01*
X0087404Y0382785D02*
X0086196Y0382785D01*
X0084598Y0381186D02*
X0089002Y0381186D01*
X0088946Y0379588D02*
X0084654Y0379588D01*
X0083858Y0380384D02*
X0086768Y0377473D01*
X0086768Y0373357D01*
X0083858Y0370447D01*
X0079742Y0370447D01*
X0076831Y0373357D01*
X0076831Y0377473D01*
X0079742Y0380384D01*
X0083858Y0380384D01*
X0086253Y0377989D02*
X0087347Y0377989D01*
X0086831Y0376391D02*
X0086768Y0376391D01*
X0086768Y0374792D02*
X0086831Y0374792D01*
X0086995Y0373194D02*
X0086605Y0373194D01*
X0085006Y0371595D02*
X0088594Y0371595D01*
X0078594Y0371595D02*
X0075006Y0371595D01*
X0073858Y0370447D02*
X0076768Y0373357D01*
X0076768Y0377473D01*
X0073858Y0380384D01*
X0069742Y0380384D01*
X0066831Y0377473D01*
X0066831Y0373357D01*
X0069742Y0370447D01*
X0073858Y0370447D01*
X0076605Y0373194D02*
X0076995Y0373194D01*
X0076831Y0374792D02*
X0076768Y0374792D01*
X0076768Y0376391D02*
X0076831Y0376391D01*
X0077347Y0377989D02*
X0076253Y0377989D01*
X0074654Y0379588D02*
X0078946Y0379588D01*
X0079002Y0381186D02*
X0074598Y0381186D01*
X0073858Y0380447D02*
X0076768Y0383357D01*
X0076768Y0387473D01*
X0073858Y0390384D01*
X0069742Y0390384D01*
X0066831Y0387473D01*
X0066831Y0383357D01*
X0069742Y0380447D01*
X0073858Y0380447D01*
X0076196Y0382785D02*
X0077404Y0382785D01*
X0076831Y0384384D02*
X0076768Y0384384D01*
X0076768Y0385982D02*
X0076831Y0385982D01*
X0076939Y0387581D02*
X0076661Y0387581D01*
X0075063Y0389179D02*
X0078537Y0389179D01*
X0068537Y0389179D02*
X0065063Y0389179D01*
X0063858Y0390384D02*
X0059742Y0390384D01*
X0056831Y0387473D01*
X0056831Y0383357D01*
X0059742Y0380447D01*
X0063858Y0380447D01*
X0066768Y0383357D01*
X0066768Y0387473D01*
X0063858Y0390384D01*
X0066661Y0387581D02*
X0066939Y0387581D01*
X0066831Y0385982D02*
X0066768Y0385982D01*
X0066768Y0384384D02*
X0066831Y0384384D01*
X0067404Y0382785D02*
X0066196Y0382785D01*
X0064598Y0381186D02*
X0069002Y0381186D01*
X0068946Y0379588D02*
X0064654Y0379588D01*
X0063858Y0380384D02*
X0066768Y0377473D01*
X0066768Y0373357D01*
X0063858Y0370447D01*
X0059742Y0370447D01*
X0056831Y0373357D01*
X0056831Y0377473D01*
X0059742Y0380384D01*
X0063858Y0380384D01*
X0066253Y0377989D02*
X0067347Y0377989D01*
X0066831Y0376391D02*
X0066768Y0376391D01*
X0066768Y0374792D02*
X0066831Y0374792D01*
X0066995Y0373194D02*
X0066605Y0373194D01*
X0065006Y0371595D02*
X0068594Y0371595D01*
X0058594Y0371595D02*
X0055006Y0371595D01*
X0053858Y0370447D02*
X0056768Y0373357D01*
X0056768Y0377473D01*
X0053858Y0380384D01*
X0049742Y0380384D01*
X0046831Y0377473D01*
X0046831Y0373357D01*
X0049742Y0370447D01*
X0053858Y0370447D01*
X0056605Y0373194D02*
X0056995Y0373194D01*
X0056831Y0374792D02*
X0056768Y0374792D01*
X0056768Y0376391D02*
X0056831Y0376391D01*
X0057347Y0377989D02*
X0056253Y0377989D01*
X0054654Y0379588D02*
X0058946Y0379588D01*
X0059002Y0381186D02*
X0054598Y0381186D01*
X0053858Y0380447D02*
X0056768Y0383357D01*
X0056768Y0387473D01*
X0053858Y0390384D01*
X0049742Y0390384D01*
X0046831Y0387473D01*
X0046831Y0383357D01*
X0049742Y0380447D01*
X0053858Y0380447D01*
X0056196Y0382785D02*
X0057404Y0382785D01*
X0056831Y0384384D02*
X0056768Y0384384D01*
X0056768Y0385982D02*
X0056831Y0385982D01*
X0056939Y0387581D02*
X0056661Y0387581D01*
X0055063Y0389179D02*
X0058537Y0389179D01*
X0048537Y0389179D02*
X0045063Y0389179D01*
X0046661Y0387581D02*
X0046939Y0387581D01*
X0046831Y0385982D02*
X0046768Y0385982D01*
X0046768Y0384384D02*
X0046831Y0384384D01*
X0047404Y0382785D02*
X0046196Y0382785D01*
X0044598Y0381186D02*
X0049002Y0381186D01*
X0048946Y0379588D02*
X0044654Y0379588D01*
X0046253Y0377989D02*
X0047347Y0377989D01*
X0046831Y0376391D02*
X0046768Y0376391D01*
X0046768Y0374792D02*
X0046831Y0374792D01*
X0046995Y0373194D02*
X0046605Y0373194D01*
X0045006Y0371595D02*
X0048594Y0371595D01*
X0086800Y0328436D02*
X0086800Y0328436D01*
X0086800Y0326837D02*
X0086800Y0326837D01*
X0086800Y0325239D02*
X0086800Y0325239D01*
X0086800Y0323640D02*
X0086800Y0323640D01*
X0086600Y0322915D02*
X0086800Y0322715D01*
X0086600Y0322915D02*
X0081800Y0322915D01*
X0082000Y0322715D01*
X0086800Y0322042D02*
X0086800Y0322042D01*
X0086800Y0320443D02*
X0086800Y0320443D01*
X0086800Y0318845D02*
X0086800Y0318845D01*
X0086800Y0317246D02*
X0086800Y0317246D01*
X0088635Y0328436D02*
X0089392Y0328436D01*
X0094208Y0328436D02*
X0094392Y0328436D01*
X0099208Y0328436D02*
X0099392Y0328436D01*
X0104208Y0328436D02*
X0104392Y0328436D01*
X0129600Y0334830D02*
X0133600Y0334830D01*
X0133600Y0336428D02*
X0129600Y0336428D01*
X0129600Y0338027D02*
X0133600Y0338027D01*
X0133600Y0339625D02*
X0129600Y0339625D01*
X0129600Y0341224D02*
X0133600Y0341224D01*
X0133600Y0342822D02*
X0130667Y0342822D01*
X0132265Y0344421D02*
X0133600Y0344421D01*
X0133600Y0314049D02*
X0006600Y0314049D01*
X0006600Y0312450D02*
X0133600Y0312450D01*
X0133600Y0310852D02*
X0006600Y0310852D01*
X0006600Y0309253D02*
X0133600Y0309253D01*
X0133600Y0307655D02*
X0006600Y0307655D01*
X0006600Y0306056D02*
X0133600Y0306056D01*
X0133600Y0304458D02*
X0006600Y0304458D01*
X0006600Y0302859D02*
X0133600Y0302859D01*
X0133600Y0301261D02*
X0006600Y0301261D01*
X0006600Y0299662D02*
X0133600Y0299662D01*
X0133600Y0298064D02*
X0006600Y0298064D01*
X0006600Y0296465D02*
X0133600Y0296465D01*
X0133600Y0294867D02*
X0006600Y0294867D01*
X0006600Y0293268D02*
X0133600Y0293268D01*
X0133600Y0291670D02*
X0006600Y0291670D01*
X0006600Y0290071D02*
X0133600Y0290071D01*
X0133600Y0288473D02*
X0129571Y0288473D01*
X0130100Y0287944D02*
X0128928Y0289115D01*
X0124672Y0289115D01*
X0124300Y0288744D01*
X0123928Y0289115D01*
X0119672Y0289115D01*
X0119300Y0288744D01*
X0118928Y0289115D01*
X0114672Y0289115D01*
X0114300Y0288744D01*
X0113928Y0289115D01*
X0109672Y0289115D01*
X0109300Y0288744D01*
X0108928Y0289115D01*
X0104672Y0289115D01*
X0104300Y0288744D01*
X0103928Y0289115D01*
X0099672Y0289115D01*
X0099300Y0288744D01*
X0098928Y0289115D01*
X0094672Y0289115D01*
X0094300Y0288744D01*
X0093928Y0289115D01*
X0089672Y0289115D01*
X0089300Y0288744D01*
X0088928Y0289115D01*
X0084672Y0289115D01*
X0083500Y0287944D01*
X0083500Y0279393D01*
X0082045Y0278790D01*
X0080925Y0277671D01*
X0080319Y0276207D01*
X0080319Y0274624D01*
X0080925Y0273160D01*
X0081100Y0272985D01*
X0081100Y0272846D01*
X0080925Y0272671D01*
X0080319Y0271207D01*
X0080319Y0269624D01*
X0080925Y0268160D01*
X0082045Y0267040D01*
X0083508Y0266434D01*
X0085092Y0266434D01*
X0086555Y0267040D01*
X0087675Y0268160D01*
X0088281Y0269624D01*
X0088281Y0271207D01*
X0087675Y0272671D01*
X0087500Y0272846D01*
X0087500Y0272985D01*
X0087675Y0273160D01*
X0088281Y0274624D01*
X0088281Y0274871D01*
X0089513Y0276103D01*
X0089932Y0277115D01*
X0093928Y0277115D01*
X0094300Y0277487D01*
X0094672Y0277115D01*
X0098928Y0277115D01*
X0099300Y0277487D01*
X0099672Y0277115D01*
X0103928Y0277115D01*
X0104300Y0277487D01*
X0104672Y0277115D01*
X0108928Y0277115D01*
X0109000Y0277187D01*
X0109000Y0257359D01*
X0109426Y0256329D01*
X0110214Y0255542D01*
X0122714Y0243042D01*
X0123743Y0242615D01*
X0141470Y0242615D01*
X0142045Y0242040D01*
X0143508Y0241434D01*
X0145092Y0241434D01*
X0146555Y0242040D01*
X0147675Y0243160D01*
X0148281Y0244624D01*
X0148281Y0246207D01*
X0147675Y0247671D01*
X0146555Y0248790D01*
X0145092Y0249397D01*
X0143508Y0249397D01*
X0142045Y0248790D01*
X0141470Y0248215D01*
X0140198Y0248215D01*
X0140781Y0249624D01*
X0140781Y0251207D01*
X0140198Y0252615D01*
X0141470Y0252615D01*
X0142045Y0252040D01*
X0143508Y0251434D01*
X0145092Y0251434D01*
X0146555Y0252040D01*
X0147675Y0253160D01*
X0148281Y0254624D01*
X0148281Y0256207D01*
X0147675Y0257671D01*
X0146555Y0258790D01*
X0145092Y0259397D01*
X0143508Y0259397D01*
X0142045Y0258790D01*
X0141470Y0258215D01*
X0140198Y0258215D01*
X0140781Y0259624D01*
X0140781Y0261207D01*
X0140175Y0262671D01*
X0139055Y0263790D01*
X0137592Y0264397D01*
X0136008Y0264397D01*
X0134545Y0263790D01*
X0133970Y0263215D01*
X0132960Y0263215D01*
X0129600Y0266575D01*
X0129600Y0277787D01*
X0130100Y0278287D01*
X0130100Y0287944D01*
X0130100Y0286874D02*
X0133600Y0286874D01*
X0133600Y0285276D02*
X0130100Y0285276D01*
X0130100Y0283677D02*
X0133600Y0283677D01*
X0133600Y0282079D02*
X0130100Y0282079D01*
X0130100Y0280480D02*
X0133600Y0280480D01*
X0133600Y0278882D02*
X0130100Y0278882D01*
X0129600Y0277283D02*
X0133600Y0277283D01*
X0133600Y0275685D02*
X0129600Y0275685D01*
X0129600Y0274086D02*
X0133600Y0274086D01*
X0133600Y0272488D02*
X0129600Y0272488D01*
X0129600Y0270889D02*
X0134301Y0270889D01*
X0135457Y0269291D02*
X0129600Y0269291D01*
X0129600Y0267692D02*
X0136393Y0267692D01*
X0140746Y0266094D02*
X0130082Y0266094D01*
X0131680Y0264495D02*
X0142154Y0264495D01*
X0139949Y0262897D02*
X0144793Y0262897D01*
X0146392Y0261298D02*
X0140744Y0261298D01*
X0140781Y0259700D02*
X0147990Y0259700D01*
X0147244Y0258101D02*
X0149589Y0258101D01*
X0148159Y0256503D02*
X0151100Y0256503D01*
X0151100Y0254904D02*
X0148281Y0254904D01*
X0147735Y0253306D02*
X0151100Y0253306D01*
X0151100Y0251707D02*
X0145750Y0251707D01*
X0142850Y0251707D02*
X0140574Y0251707D01*
X0140781Y0250109D02*
X0151100Y0250109D01*
X0151100Y0248510D02*
X0146836Y0248510D01*
X0147989Y0246912D02*
X0151100Y0246912D01*
X0151100Y0245313D02*
X0148281Y0245313D01*
X0147905Y0243715D02*
X0151100Y0243715D01*
X0151100Y0242116D02*
X0146631Y0242116D01*
X0148278Y0238919D02*
X0143745Y0238919D01*
X0141969Y0242116D02*
X0006600Y0242116D01*
X0006600Y0243715D02*
X0122041Y0243715D01*
X0120443Y0245313D02*
X0006600Y0245313D01*
X0006600Y0246912D02*
X0118844Y0246912D01*
X0117246Y0248510D02*
X0006600Y0248510D01*
X0006600Y0250109D02*
X0115647Y0250109D01*
X0114049Y0251707D02*
X0006600Y0251707D01*
X0006600Y0253306D02*
X0112450Y0253306D01*
X0110852Y0254904D02*
X0006600Y0254904D01*
X0006600Y0256503D02*
X0109355Y0256503D01*
X0109000Y0258101D02*
X0006600Y0258101D01*
X0006600Y0259700D02*
X0109000Y0259700D01*
X0109000Y0261298D02*
X0006600Y0261298D01*
X0006600Y0262897D02*
X0109000Y0262897D01*
X0109000Y0264495D02*
X0006600Y0264495D01*
X0006600Y0266094D02*
X0109000Y0266094D01*
X0109000Y0267692D02*
X0087207Y0267692D01*
X0088143Y0269291D02*
X0109000Y0269291D01*
X0109000Y0270889D02*
X0088281Y0270889D01*
X0087751Y0272488D02*
X0109000Y0272488D01*
X0109000Y0274086D02*
X0088059Y0274086D01*
X0089095Y0275685D02*
X0109000Y0275685D01*
X0104504Y0277283D02*
X0104096Y0277283D01*
X0099504Y0277283D02*
X0099096Y0277283D01*
X0094504Y0277283D02*
X0094096Y0277283D01*
X0083500Y0280480D02*
X0006600Y0280480D01*
X0006600Y0278882D02*
X0082265Y0278882D01*
X0080765Y0277283D02*
X0006600Y0277283D01*
X0006600Y0275685D02*
X0080319Y0275685D01*
X0080541Y0274086D02*
X0006600Y0274086D01*
X0006600Y0272488D02*
X0080849Y0272488D01*
X0080319Y0270889D02*
X0006600Y0270889D01*
X0006600Y0269291D02*
X0080457Y0269291D01*
X0081393Y0267692D02*
X0006600Y0267692D01*
X0006600Y0282079D02*
X0083500Y0282079D01*
X0083500Y0283677D02*
X0006600Y0283677D01*
X0006600Y0285276D02*
X0083500Y0285276D01*
X0083500Y0286874D02*
X0006600Y0286874D01*
X0006600Y0288473D02*
X0084029Y0288473D01*
X0111800Y0283115D02*
X0111800Y0257915D01*
X0124300Y0245415D01*
X0144300Y0245415D01*
X0141764Y0248510D02*
X0140320Y0248510D01*
X0136800Y0250415D02*
X0126800Y0250415D01*
X0116800Y0260415D01*
X0116800Y0283115D01*
X0121800Y0283115D02*
X0121800Y0262915D01*
X0129300Y0255415D01*
X0144300Y0255415D01*
X0136800Y0260415D02*
X0131800Y0260415D01*
X0126800Y0265415D01*
X0126800Y0283115D01*
X0140000Y0283677D02*
X0169000Y0283677D01*
X0169000Y0282079D02*
X0140000Y0282079D01*
X0140000Y0280480D02*
X0169000Y0280480D01*
X0169000Y0278882D02*
X0140000Y0278882D01*
X0140000Y0277283D02*
X0169000Y0277283D01*
X0169000Y0275685D02*
X0140000Y0275685D01*
X0140841Y0274086D02*
X0169000Y0274086D01*
X0169000Y0272488D02*
X0144253Y0272488D01*
X0146956Y0270889D02*
X0169000Y0270889D01*
X0169000Y0269291D02*
X0148039Y0269291D01*
X0149049Y0267692D02*
X0169000Y0267692D01*
X0169000Y0266094D02*
X0150647Y0266094D01*
X0152246Y0264495D02*
X0169000Y0264495D01*
X0169000Y0262897D02*
X0153844Y0262897D01*
X0155443Y0261298D02*
X0169458Y0261298D01*
X0170214Y0260542D02*
X0170214Y0260542D01*
X0171056Y0259700D02*
X0157025Y0259700D01*
X0157500Y0258101D02*
X0172655Y0258101D01*
X0174253Y0256503D02*
X0157500Y0256503D01*
X0157500Y0254904D02*
X0175852Y0254904D01*
X0177450Y0253306D02*
X0157500Y0253306D01*
X0157500Y0251707D02*
X0179049Y0251707D01*
X0180647Y0250109D02*
X0157500Y0250109D01*
X0157500Y0248510D02*
X0182246Y0248510D01*
X0183844Y0246912D02*
X0157500Y0246912D01*
X0157500Y0245313D02*
X0185766Y0245313D01*
X0184426Y0246329D02*
X0184426Y0246329D01*
X0186800Y0247915D02*
X0171800Y0262915D01*
X0171800Y0305415D01*
X0166800Y0310415D01*
X0163930Y0307655D02*
X0140000Y0307655D01*
X0140000Y0309253D02*
X0162972Y0309253D01*
X0162819Y0310852D02*
X0140000Y0310852D01*
X0140000Y0312450D02*
X0163334Y0312450D01*
X0167199Y0306056D02*
X0140000Y0306056D01*
X0140000Y0304458D02*
X0168798Y0304458D01*
X0169000Y0302859D02*
X0140000Y0302859D01*
X0140000Y0301261D02*
X0169000Y0301261D01*
X0169000Y0299662D02*
X0140000Y0299662D01*
X0140000Y0298064D02*
X0169000Y0298064D01*
X0169000Y0296465D02*
X0140000Y0296465D01*
X0140000Y0294867D02*
X0169000Y0294867D01*
X0169000Y0293268D02*
X0140000Y0293268D01*
X0140000Y0291670D02*
X0169000Y0291670D01*
X0169000Y0290071D02*
X0140000Y0290071D01*
X0140000Y0288473D02*
X0169000Y0288473D01*
X0169000Y0286874D02*
X0140000Y0286874D01*
X0140000Y0285276D02*
X0169000Y0285276D01*
X0174600Y0285276D02*
X0236200Y0285276D01*
X0236200Y0286874D02*
X0174600Y0286874D01*
X0174600Y0288473D02*
X0236417Y0288473D01*
X0239300Y0288473D02*
X0239300Y0288473D01*
X0239300Y0286874D02*
X0239300Y0286874D01*
X0239300Y0285276D02*
X0239300Y0285276D01*
X0239300Y0283677D02*
X0239300Y0283677D01*
X0239300Y0282079D02*
X0239300Y0282079D01*
X0239300Y0280480D02*
X0239300Y0280480D01*
X0239300Y0278882D02*
X0239300Y0278882D01*
X0241500Y0277283D02*
X0174600Y0277283D01*
X0174600Y0275685D02*
X0241500Y0275685D01*
X0241500Y0274086D02*
X0174600Y0274086D01*
X0174600Y0272488D02*
X0241500Y0272488D01*
X0241500Y0270889D02*
X0174600Y0270889D01*
X0174600Y0269291D02*
X0241500Y0269291D01*
X0241500Y0267692D02*
X0174600Y0267692D01*
X0174600Y0266094D02*
X0242162Y0266094D01*
X0243761Y0264495D02*
X0174600Y0264495D01*
X0175779Y0262897D02*
X0245359Y0262897D01*
X0246958Y0261298D02*
X0177377Y0261298D01*
X0178976Y0259700D02*
X0248556Y0259700D01*
X0250155Y0258101D02*
X0180574Y0258101D01*
X0182173Y0256503D02*
X0251753Y0256503D01*
X0253352Y0254904D02*
X0183771Y0254904D01*
X0185370Y0253306D02*
X0254950Y0253306D01*
X0256549Y0251707D02*
X0203049Y0251707D01*
X0200551Y0251707D02*
X0186968Y0251707D01*
X0186800Y0247915D02*
X0201800Y0247915D01*
X0204828Y0245313D02*
X0262943Y0245313D01*
X0264541Y0243715D02*
X0157500Y0243715D01*
X0157500Y0242116D02*
X0266140Y0242116D01*
X0267738Y0240517D02*
X0157500Y0240517D01*
X0157144Y0238919D02*
X0269337Y0238919D01*
X0270935Y0237320D02*
X0155730Y0237320D01*
X0154132Y0235722D02*
X0272534Y0235722D01*
X0274132Y0234123D02*
X0152533Y0234123D01*
X0150684Y0232525D02*
X0275731Y0232525D01*
X0277329Y0230926D02*
X0006600Y0230926D01*
X0006600Y0229328D02*
X0278928Y0229328D01*
X0280968Y0227729D02*
X0006600Y0227729D01*
X0006600Y0226131D02*
X0144385Y0226131D01*
X0146800Y0222915D02*
X0036800Y0222915D01*
X0034300Y0220415D01*
X0031188Y0222934D02*
X0006600Y0222934D01*
X0006600Y0224532D02*
X0034457Y0224532D01*
X0030372Y0221335D02*
X0006600Y0221335D01*
X0006600Y0219737D02*
X0030319Y0219737D01*
X0030947Y0218138D02*
X0006600Y0218138D01*
X0006600Y0216540D02*
X0033254Y0216540D01*
X0035346Y0216540D02*
X0075147Y0216540D01*
X0072366Y0214941D02*
X0006600Y0214941D01*
X0006600Y0213343D02*
X0070768Y0213343D01*
X0073892Y0208547D02*
X0076802Y0208547D01*
X0075626Y0206949D02*
X0062293Y0206949D01*
X0060695Y0205350D02*
X0075275Y0205350D01*
X0074116Y0203752D02*
X0059096Y0203752D01*
X0057498Y0202153D02*
X0074000Y0202153D01*
X0074000Y0200555D02*
X0055899Y0200555D01*
X0054301Y0198956D02*
X0074000Y0198956D01*
X0074000Y0197358D02*
X0052702Y0197358D01*
X0055220Y0192562D02*
X0074000Y0192562D01*
X0074000Y0190964D02*
X0055781Y0190964D01*
X0056810Y0189365D02*
X0074000Y0189365D01*
X0074000Y0187767D02*
X0058409Y0187767D01*
X0060007Y0186168D02*
X0074000Y0186168D01*
X0074000Y0184570D02*
X0061606Y0184570D01*
X0063204Y0182971D02*
X0074000Y0182971D01*
X0074000Y0181373D02*
X0064803Y0181373D01*
X0066401Y0179774D02*
X0074000Y0179774D01*
X0074000Y0178176D02*
X0068000Y0178176D01*
X0069598Y0176577D02*
X0074000Y0176577D01*
X0074000Y0174979D02*
X0071197Y0174979D01*
X0072795Y0173380D02*
X0074000Y0173380D01*
X0047979Y0200555D02*
X0006600Y0200555D01*
X0006600Y0202153D02*
X0049578Y0202153D01*
X0051176Y0203752D02*
X0006600Y0203752D01*
X0006600Y0205350D02*
X0052775Y0205350D01*
X0054373Y0206949D02*
X0006600Y0206949D01*
X0006600Y0208547D02*
X0055972Y0208547D01*
X0057570Y0210146D02*
X0006600Y0210146D01*
X0006600Y0211744D02*
X0059169Y0211744D01*
X0056800Y0217915D02*
X0051800Y0212915D01*
X0056800Y0217915D02*
X0144300Y0217915D01*
X0209300Y0217915D01*
X0306800Y0217915D01*
X0309300Y0215415D01*
X0314300Y0215415D01*
X0315768Y0213343D02*
X0302832Y0213343D01*
X0301234Y0214941D02*
X0317366Y0214941D01*
X0318965Y0216540D02*
X0248453Y0216540D01*
X0245147Y0216540D02*
X0168453Y0216540D01*
X0165147Y0216540D02*
X0078453Y0216540D01*
X0046381Y0198956D02*
X0006600Y0198956D01*
X0006600Y0197358D02*
X0044782Y0197358D01*
X0043184Y0195759D02*
X0006600Y0195759D01*
X0006600Y0194161D02*
X0041585Y0194161D01*
X0039987Y0192562D02*
X0006600Y0192562D01*
X0006600Y0190964D02*
X0038388Y0190964D01*
X0036790Y0189365D02*
X0006600Y0189365D01*
X0006600Y0187767D02*
X0035191Y0187767D01*
X0033593Y0186168D02*
X0006600Y0186168D01*
X0006600Y0184570D02*
X0031994Y0184570D01*
X0030396Y0182971D02*
X0006600Y0182971D01*
X0006600Y0181373D02*
X0028797Y0181373D01*
X0027199Y0179774D02*
X0006600Y0179774D01*
X0006600Y0178176D02*
X0025600Y0178176D01*
X0024250Y0176577D02*
X0006600Y0176577D01*
X0006600Y0174979D02*
X0024000Y0174979D01*
X0024000Y0173380D02*
X0006600Y0173380D01*
X0006600Y0171781D02*
X0024000Y0171781D01*
X0024000Y0170183D02*
X0006600Y0170183D01*
X0006600Y0168584D02*
X0024000Y0168584D01*
X0024000Y0166986D02*
X0006600Y0166986D01*
X0006600Y0165387D02*
X0024000Y0165387D01*
X0024000Y0163789D02*
X0006600Y0163789D01*
X0006600Y0162190D02*
X0024000Y0162190D01*
X0024000Y0160592D02*
X0006600Y0160592D01*
X0006600Y0158993D02*
X0024000Y0158993D01*
X0024000Y0157395D02*
X0006600Y0157395D01*
X0006600Y0155796D02*
X0024000Y0155796D01*
X0024000Y0154198D02*
X0006600Y0154198D01*
X0006600Y0152599D02*
X0024000Y0152599D01*
X0024000Y0151001D02*
X0006600Y0151001D01*
X0006600Y0149402D02*
X0024000Y0149402D01*
X0024000Y0147804D02*
X0006600Y0147804D01*
X0006600Y0146205D02*
X0024000Y0146205D01*
X0024000Y0144607D02*
X0006600Y0144607D01*
X0006600Y0143008D02*
X0024000Y0143008D01*
X0024000Y0141410D02*
X0006600Y0141410D01*
X0006600Y0139811D02*
X0024000Y0139811D01*
X0024000Y0138213D02*
X0006600Y0138213D01*
X0006600Y0136614D02*
X0024000Y0136614D01*
X0024000Y0135016D02*
X0006600Y0135016D01*
X0006600Y0133417D02*
X0024000Y0133417D01*
X0024000Y0131819D02*
X0006600Y0131819D01*
X0006600Y0130220D02*
X0024000Y0130220D01*
X0024000Y0128622D02*
X0006600Y0128622D01*
X0039400Y0098250D02*
X0039800Y0098250D01*
X0039800Y0096651D02*
X0039400Y0096651D01*
X0039400Y0095053D02*
X0039800Y0095053D01*
X0039800Y0093454D02*
X0039400Y0093454D01*
X0039400Y0091856D02*
X0039800Y0091856D01*
X0039800Y0090257D02*
X0039400Y0090257D01*
X0045181Y0090257D02*
X0046500Y0090257D01*
X0052100Y0090257D02*
X0054000Y0090257D01*
X0054000Y0088659D02*
X0052100Y0088659D01*
X0052928Y0087060D02*
X0054000Y0087060D01*
X0054000Y0085462D02*
X0053281Y0085462D01*
X0054000Y0091856D02*
X0052100Y0091856D01*
X0052100Y0093454D02*
X0054000Y0093454D01*
X0054000Y0095053D02*
X0052100Y0095053D01*
X0052100Y0096651D02*
X0054281Y0096651D01*
X0055675Y0098250D02*
X0052100Y0098250D01*
X0052100Y0099848D02*
X0056500Y0099848D01*
X0056500Y0101447D02*
X0052100Y0101447D01*
X0052100Y0103046D02*
X0056500Y0103046D01*
X0056500Y0104644D02*
X0052100Y0104644D01*
X0052100Y0106243D02*
X0055684Y0106243D01*
X0055319Y0107841D02*
X0053185Y0107841D01*
X0054784Y0109440D02*
X0055622Y0109440D01*
X0059300Y0107915D02*
X0059300Y0097915D01*
X0056800Y0095415D01*
X0056800Y0065415D01*
X0053633Y0067878D02*
X0049967Y0067878D01*
X0050751Y0066280D02*
X0052849Y0066280D01*
X0052819Y0064681D02*
X0050781Y0064681D01*
X0050097Y0063083D02*
X0053503Y0063083D01*
X0054000Y0069477D02*
X0031698Y0069477D01*
X0030100Y0071075D02*
X0054000Y0071075D01*
X0054000Y0072674D02*
X0045829Y0072674D01*
X0047083Y0074272D02*
X0054000Y0074272D01*
X0054000Y0075871D02*
X0047600Y0075871D01*
X0047600Y0077469D02*
X0054000Y0077469D01*
X0054000Y0079068D02*
X0046955Y0079068D01*
X0033680Y0080666D02*
X0029600Y0080666D01*
X0029600Y0079068D02*
X0032245Y0079068D01*
X0031600Y0077469D02*
X0029600Y0077469D01*
X0029600Y0075871D02*
X0031600Y0075871D01*
X0032117Y0074272D02*
X0029600Y0074272D01*
X0029600Y0072674D02*
X0033371Y0072674D01*
X0026800Y0070415D02*
X0031800Y0065415D01*
X0046800Y0065415D01*
X0046793Y0050295D02*
X0051807Y0050295D01*
X0050040Y0048696D02*
X0048560Y0048696D01*
X0049222Y0047098D02*
X0049378Y0047098D01*
X0049300Y0045499D02*
X0049300Y0045499D01*
X0049300Y0043901D02*
X0049300Y0043901D01*
X0049300Y0042302D02*
X0049300Y0042302D01*
X0049300Y0040704D02*
X0049300Y0040704D01*
X0049300Y0039105D02*
X0049300Y0039105D01*
X0048714Y0037507D02*
X0049886Y0037507D01*
X0051236Y0035908D02*
X0047364Y0035908D01*
X0062100Y0103046D02*
X0075210Y0103046D01*
X0073612Y0104644D02*
X0062100Y0104644D01*
X0062916Y0106243D02*
X0072013Y0106243D01*
X0070415Y0107841D02*
X0063281Y0107841D01*
X0062978Y0109440D02*
X0068816Y0109440D01*
X0051660Y0114235D02*
X0046400Y0114235D01*
X0046400Y0112637D02*
X0050061Y0112637D01*
X0048463Y0111038D02*
X0046400Y0111038D01*
X0046901Y0109440D02*
X0044829Y0109440D01*
X0107386Y0163789D02*
X0111967Y0163789D01*
X0111500Y0165387D02*
X0107100Y0165387D01*
X0107100Y0166986D02*
X0111500Y0166986D01*
X0111500Y0168584D02*
X0107100Y0168584D01*
X0107100Y0170183D02*
X0111500Y0170183D01*
X0111500Y0171781D02*
X0107100Y0171781D01*
X0107100Y0173380D02*
X0111500Y0173380D01*
X0111500Y0174979D02*
X0107100Y0174979D01*
X0107100Y0176577D02*
X0111500Y0176577D01*
X0111500Y0178176D02*
X0107100Y0178176D01*
X0107100Y0179774D02*
X0111500Y0179774D01*
X0111500Y0181373D02*
X0107100Y0181373D01*
X0107100Y0182971D02*
X0111500Y0182971D01*
X0117100Y0182971D02*
X0360700Y0182971D01*
X0360700Y0181373D02*
X0351608Y0181373D01*
X0351943Y0181264D02*
X0351224Y0181497D01*
X0350478Y0181615D01*
X0347300Y0181615D01*
X0347300Y0177016D01*
X0346900Y0177016D01*
X0346900Y0181615D01*
X0343722Y0181615D01*
X0342976Y0181497D01*
X0342257Y0181264D01*
X0341584Y0180921D01*
X0340973Y0180477D01*
X0340439Y0179942D01*
X0339995Y0179331D01*
X0339652Y0178658D01*
X0339418Y0177939D01*
X0339300Y0177193D01*
X0339300Y0177015D01*
X0346900Y0177015D01*
X0346900Y0176615D01*
X0347300Y0176615D01*
X0347300Y0172015D01*
X0350478Y0172015D01*
X0351224Y0172134D01*
X0351943Y0172367D01*
X0352616Y0172710D01*
X0353227Y0173154D01*
X0353761Y0173688D01*
X0354205Y0174300D01*
X0354548Y0174973D01*
X0354782Y0175691D01*
X0354900Y0176438D01*
X0354900Y0176615D01*
X0347300Y0176615D01*
X0347300Y0177015D01*
X0354900Y0177015D01*
X0354900Y0177193D01*
X0354782Y0177939D01*
X0354548Y0178658D01*
X0354205Y0179331D01*
X0353761Y0179942D01*
X0353227Y0180477D01*
X0352616Y0180921D01*
X0351943Y0181264D01*
X0353884Y0179774D02*
X0360700Y0179774D01*
X0360700Y0178176D02*
X0354705Y0178176D01*
X0354900Y0176577D02*
X0360700Y0176577D01*
X0360700Y0174979D02*
X0354550Y0174979D01*
X0353453Y0173380D02*
X0360700Y0173380D01*
X0360700Y0171781D02*
X0276400Y0171781D01*
X0276400Y0173380D02*
X0315147Y0173380D01*
X0315373Y0173154D02*
X0314839Y0173688D01*
X0314395Y0174300D01*
X0314052Y0174973D01*
X0313818Y0175691D01*
X0313700Y0176438D01*
X0313700Y0176615D01*
X0321300Y0176615D01*
X0321700Y0176615D01*
X0321700Y0172015D01*
X0324878Y0172015D01*
X0325624Y0172134D01*
X0326343Y0172367D01*
X0327016Y0172710D01*
X0327627Y0173154D01*
X0328161Y0173688D01*
X0328605Y0174300D01*
X0328948Y0174973D01*
X0329182Y0175691D01*
X0329300Y0176438D01*
X0329300Y0176615D01*
X0321700Y0176615D01*
X0321700Y0177015D01*
X0329300Y0177015D01*
X0329300Y0177193D01*
X0329182Y0177939D01*
X0328948Y0178658D01*
X0328605Y0179331D01*
X0328161Y0179942D01*
X0327627Y0180477D01*
X0327016Y0180921D01*
X0326343Y0181264D01*
X0325624Y0181497D01*
X0324878Y0181615D01*
X0321700Y0181615D01*
X0321700Y0177016D01*
X0321300Y0177016D01*
X0321300Y0181615D01*
X0318122Y0181615D01*
X0317376Y0181497D01*
X0316657Y0181264D01*
X0315984Y0180921D01*
X0315373Y0180477D01*
X0314839Y0179942D01*
X0314395Y0179331D01*
X0314052Y0178658D01*
X0313818Y0177939D01*
X0313700Y0177193D01*
X0313700Y0177015D01*
X0321300Y0177015D01*
X0321300Y0176615D01*
X0321300Y0172015D01*
X0318122Y0172015D01*
X0317376Y0172134D01*
X0316657Y0172367D01*
X0315984Y0172710D01*
X0315373Y0173154D01*
X0314050Y0174979D02*
X0276242Y0174979D01*
X0274644Y0176577D02*
X0313700Y0176577D01*
X0313895Y0178176D02*
X0117100Y0178176D01*
X0117100Y0179774D02*
X0314716Y0179774D01*
X0316992Y0181373D02*
X0117100Y0181373D01*
X0117100Y0184570D02*
X0360700Y0184570D01*
X0360700Y0186168D02*
X0117100Y0186168D01*
X0114300Y0192915D02*
X0211800Y0192915D01*
X0203956Y0176577D02*
X0177144Y0176577D01*
X0176205Y0177515D02*
X0172395Y0177515D01*
X0169700Y0174821D01*
X0169700Y0171010D01*
X0172395Y0168315D01*
X0176205Y0168315D01*
X0178900Y0171010D01*
X0178900Y0174821D01*
X0176205Y0177515D01*
X0178742Y0174979D02*
X0202358Y0174979D01*
X0202200Y0173380D02*
X0178900Y0173380D01*
X0178900Y0171781D02*
X0202200Y0171781D01*
X0203027Y0170183D02*
X0178073Y0170183D01*
X0176474Y0168584D02*
X0204626Y0168584D01*
X0204365Y0166986D02*
X0176735Y0166986D01*
X0176205Y0167515D02*
X0172395Y0167515D01*
X0169700Y0164821D01*
X0169700Y0161010D01*
X0172395Y0158315D01*
X0176205Y0158315D01*
X0178900Y0161010D01*
X0178900Y0164821D01*
X0176205Y0167515D01*
X0178333Y0165387D02*
X0202767Y0165387D01*
X0202200Y0163789D02*
X0178900Y0163789D01*
X0178900Y0162190D02*
X0202200Y0162190D01*
X0202618Y0160592D02*
X0178482Y0160592D01*
X0176883Y0158993D02*
X0204217Y0158993D01*
X0171717Y0158993D02*
X0124682Y0158993D01*
X0126280Y0157395D02*
X0313759Y0157395D01*
X0313500Y0158021D02*
X0314261Y0156183D01*
X0315668Y0154777D01*
X0317505Y0154015D01*
X0325495Y0154015D01*
X0327332Y0154777D01*
X0328739Y0156183D01*
X0329500Y0158021D01*
X0329500Y0160010D01*
X0328739Y0161848D01*
X0327332Y0163254D01*
X0325495Y0164015D01*
X0317505Y0164015D01*
X0315668Y0163254D01*
X0314261Y0161848D01*
X0313500Y0160010D01*
X0313500Y0158021D01*
X0313500Y0158993D02*
X0274383Y0158993D01*
X0275982Y0160592D02*
X0313741Y0160592D01*
X0314604Y0162190D02*
X0276400Y0162190D01*
X0276400Y0163789D02*
X0316959Y0163789D01*
X0314648Y0155796D02*
X0127879Y0155796D01*
X0129477Y0154198D02*
X0317065Y0154198D01*
X0325935Y0154198D02*
X0342665Y0154198D01*
X0343105Y0154015D02*
X0351095Y0154015D01*
X0352932Y0154777D01*
X0354339Y0156183D01*
X0355100Y0158021D01*
X0355100Y0160010D01*
X0354339Y0161848D01*
X0352932Y0163254D01*
X0351095Y0164015D01*
X0343105Y0164015D01*
X0341268Y0163254D01*
X0339861Y0161848D01*
X0339100Y0160010D01*
X0339100Y0158021D01*
X0339861Y0156183D01*
X0341268Y0154777D01*
X0343105Y0154015D01*
X0340248Y0155796D02*
X0328352Y0155796D01*
X0329241Y0157395D02*
X0339359Y0157395D01*
X0339100Y0158993D02*
X0329500Y0158993D01*
X0329259Y0160592D02*
X0339341Y0160592D01*
X0340204Y0162190D02*
X0328396Y0162190D01*
X0326041Y0163789D02*
X0342559Y0163789D01*
X0343722Y0172015D02*
X0346900Y0172015D01*
X0346900Y0176615D01*
X0339300Y0176615D01*
X0339300Y0176438D01*
X0339418Y0175691D01*
X0339652Y0174973D01*
X0339995Y0174300D01*
X0340439Y0173688D01*
X0340973Y0173154D01*
X0341584Y0172710D01*
X0342257Y0172367D01*
X0342976Y0172134D01*
X0343722Y0172015D01*
X0340747Y0173380D02*
X0327853Y0173380D01*
X0328950Y0174979D02*
X0339650Y0174979D01*
X0339300Y0176577D02*
X0329300Y0176577D01*
X0329105Y0178176D02*
X0339495Y0178176D01*
X0340316Y0179774D02*
X0328284Y0179774D01*
X0326008Y0181373D02*
X0342592Y0181373D01*
X0346900Y0181373D02*
X0347300Y0181373D01*
X0347300Y0179774D02*
X0346900Y0179774D01*
X0346900Y0178176D02*
X0347300Y0178176D01*
X0347300Y0176577D02*
X0346900Y0176577D01*
X0346900Y0174979D02*
X0347300Y0174979D01*
X0347300Y0173380D02*
X0346900Y0173380D01*
X0351641Y0163789D02*
X0360700Y0163789D01*
X0360700Y0165387D02*
X0275833Y0165387D01*
X0274235Y0166986D02*
X0360700Y0166986D01*
X0360700Y0168584D02*
X0273974Y0168584D01*
X0275573Y0170183D02*
X0360700Y0170183D01*
X0360700Y0162190D02*
X0353996Y0162190D01*
X0354859Y0160592D02*
X0360700Y0160592D01*
X0360700Y0158993D02*
X0355100Y0158993D01*
X0354841Y0157395D02*
X0360700Y0157395D01*
X0360700Y0155796D02*
X0353952Y0155796D01*
X0351535Y0154198D02*
X0360700Y0154198D01*
X0360700Y0152599D02*
X0131076Y0152599D01*
X0132674Y0151001D02*
X0360700Y0151001D01*
X0360700Y0149402D02*
X0134273Y0149402D01*
X0135871Y0147804D02*
X0360700Y0147804D01*
X0360700Y0117432D02*
X0322278Y0117432D01*
X0323663Y0115834D02*
X0360700Y0115834D01*
X0360700Y0114235D02*
X0324268Y0114235D01*
X0324268Y0112637D02*
X0360700Y0112637D01*
X0359776Y0109440D02*
X0362685Y0109440D01*
X0363200Y0107841D02*
X0361375Y0107841D01*
X0361750Y0106243D02*
X0363200Y0106243D01*
X0363200Y0104644D02*
X0361750Y0104644D01*
X0361430Y0103046D02*
X0363200Y0103046D01*
X0363200Y0101447D02*
X0359832Y0101447D01*
X0356800Y0101447D02*
X0356800Y0101447D01*
X0356800Y0103046D02*
X0356800Y0103046D01*
X0356800Y0104644D02*
X0356800Y0104644D01*
X0356800Y0105415D02*
X0356800Y0190415D01*
X0356800Y0235415D01*
X0354300Y0237915D01*
X0336800Y0237915D01*
X0306800Y0267915D01*
X0316800Y0240415D02*
X0284300Y0240415D01*
X0261344Y0246912D02*
X0205693Y0246912D01*
X0205781Y0248510D02*
X0259746Y0248510D01*
X0258147Y0250109D02*
X0205201Y0250109D01*
X0224385Y0226131D02*
X0149215Y0226131D01*
X0146800Y0222915D02*
X0226800Y0222915D01*
X0314300Y0222915D01*
X0318281Y0222934D02*
X0349000Y0222934D01*
X0349000Y0224532D02*
X0317939Y0224532D01*
X0316715Y0226131D02*
X0349000Y0226131D01*
X0348856Y0227729D02*
X0319744Y0227729D01*
X0320659Y0229328D02*
X0347941Y0229328D01*
X0347819Y0230926D02*
X0320781Y0230926D01*
X0320235Y0232525D02*
X0348365Y0232525D01*
X0353251Y0234123D02*
X0360700Y0234123D01*
X0360700Y0232525D02*
X0355235Y0232525D01*
X0355781Y0230926D02*
X0360700Y0230926D01*
X0360700Y0229328D02*
X0355659Y0229328D01*
X0354744Y0227729D02*
X0360700Y0227729D01*
X0360700Y0226131D02*
X0354600Y0226131D01*
X0354600Y0224532D02*
X0360700Y0224532D01*
X0360700Y0222934D02*
X0354600Y0222934D01*
X0354600Y0221335D02*
X0360700Y0221335D01*
X0360700Y0219737D02*
X0354600Y0219737D01*
X0354600Y0218138D02*
X0360700Y0218138D01*
X0360700Y0216540D02*
X0354600Y0216540D01*
X0354600Y0214941D02*
X0360700Y0214941D01*
X0360700Y0213343D02*
X0354600Y0213343D01*
X0354600Y0211744D02*
X0360700Y0211744D01*
X0360700Y0210146D02*
X0354600Y0210146D01*
X0354600Y0208547D02*
X0360700Y0208547D01*
X0360700Y0206949D02*
X0354600Y0206949D01*
X0354600Y0205350D02*
X0360700Y0205350D01*
X0360700Y0203752D02*
X0354600Y0203752D01*
X0354600Y0202153D02*
X0360700Y0202153D01*
X0360700Y0200555D02*
X0354600Y0200555D01*
X0354226Y0198956D02*
X0360700Y0198956D01*
X0360700Y0197358D02*
X0352702Y0197358D01*
X0351103Y0195759D02*
X0360700Y0195759D01*
X0360700Y0194161D02*
X0349505Y0194161D01*
X0360700Y0192562D02*
X0337906Y0192562D01*
X0336308Y0190964D02*
X0360700Y0190964D01*
X0360700Y0189365D02*
X0334709Y0189365D01*
X0332722Y0187767D02*
X0360700Y0187767D01*
X0381600Y0203752D02*
X0382000Y0203752D01*
X0382000Y0205350D02*
X0381600Y0205350D01*
X0381600Y0206949D02*
X0382000Y0206949D01*
X0382000Y0208547D02*
X0381600Y0208547D01*
X0381600Y0210146D02*
X0382000Y0210146D01*
X0382000Y0211744D02*
X0381600Y0211744D01*
X0386826Y0213343D02*
X0390701Y0213343D01*
X0390701Y0214941D02*
X0388897Y0214941D01*
X0389642Y0216540D02*
X0390701Y0216540D01*
X0390701Y0218138D02*
X0389800Y0218138D01*
X0389458Y0219737D02*
X0390701Y0219737D01*
X0390701Y0221335D02*
X0388451Y0221335D01*
X0390701Y0222934D02*
X0385839Y0222934D01*
X0388488Y0224532D02*
X0390701Y0224532D01*
X0390701Y0226131D02*
X0389473Y0226131D01*
X0389800Y0227729D02*
X0390701Y0227729D01*
X0390701Y0229328D02*
X0389627Y0229328D01*
X0388860Y0230926D02*
X0390701Y0230926D01*
X0390701Y0232525D02*
X0386737Y0232525D01*
X0388079Y0234123D02*
X0390701Y0234123D01*
X0390701Y0235722D02*
X0389303Y0235722D01*
X0389800Y0237320D02*
X0390701Y0237320D01*
X0390701Y0238919D02*
X0389796Y0238919D01*
X0389134Y0240517D02*
X0390701Y0240517D01*
X0390701Y0242116D02*
X0387671Y0242116D01*
X0387670Y0243715D02*
X0390701Y0243715D01*
X0390701Y0245313D02*
X0389134Y0245313D01*
X0389796Y0246912D02*
X0390701Y0246912D01*
X0390701Y0248510D02*
X0389800Y0248510D01*
X0389304Y0250109D02*
X0390701Y0250109D01*
X0390701Y0251707D02*
X0388079Y0251707D01*
X0386736Y0253306D02*
X0390701Y0253306D01*
X0390701Y0254904D02*
X0388860Y0254904D01*
X0389627Y0256503D02*
X0390701Y0256503D01*
X0390701Y0258101D02*
X0389800Y0258101D01*
X0389473Y0259700D02*
X0390701Y0259700D01*
X0390701Y0261298D02*
X0388488Y0261298D01*
X0390701Y0262897D02*
X0385840Y0262897D01*
X0388451Y0264495D02*
X0390701Y0264495D01*
X0390701Y0266094D02*
X0389457Y0266094D01*
X0389800Y0267692D02*
X0390701Y0267692D01*
X0390701Y0269291D02*
X0389642Y0269291D01*
X0388897Y0270889D02*
X0390701Y0270889D01*
X0390701Y0272488D02*
X0386827Y0272488D01*
X0359553Y0290071D02*
X0174600Y0290071D01*
X0174600Y0291670D02*
X0357954Y0291670D01*
X0356356Y0293268D02*
X0174600Y0293268D01*
X0174600Y0283677D02*
X0236200Y0283677D01*
X0236200Y0282079D02*
X0174600Y0282079D01*
X0174600Y0280480D02*
X0236200Y0280480D01*
X0236345Y0278882D02*
X0174600Y0278882D01*
X0191800Y0307915D02*
X0191800Y0320415D01*
X0196800Y0325415D01*
X0239300Y0322215D02*
X0239300Y0310415D01*
X0262100Y0328436D02*
X0321189Y0328436D01*
X0319590Y0330034D02*
X0262100Y0330034D01*
X0262100Y0331633D02*
X0317992Y0331633D01*
X0316393Y0333231D02*
X0262100Y0333231D01*
X0263858Y0370447D02*
X0259742Y0370447D01*
X0256831Y0373357D01*
X0256831Y0377473D01*
X0259742Y0380384D01*
X0263858Y0380384D01*
X0266768Y0377473D01*
X0266768Y0373357D01*
X0263858Y0370447D01*
X0265006Y0371595D02*
X0268594Y0371595D01*
X0269742Y0370447D02*
X0266831Y0373357D01*
X0266831Y0377473D01*
X0269742Y0380384D01*
X0273858Y0380384D01*
X0276768Y0377473D01*
X0276768Y0373357D01*
X0273858Y0370447D01*
X0269742Y0370447D01*
X0266995Y0373194D02*
X0266605Y0373194D01*
X0266768Y0374792D02*
X0266831Y0374792D01*
X0266831Y0376391D02*
X0266768Y0376391D01*
X0266253Y0377989D02*
X0267347Y0377989D01*
X0268946Y0379588D02*
X0264654Y0379588D01*
X0263858Y0380447D02*
X0259742Y0380447D01*
X0256831Y0383357D01*
X0256831Y0387473D01*
X0259742Y0390384D01*
X0263858Y0390384D01*
X0266768Y0387473D01*
X0266768Y0383357D01*
X0263858Y0380447D01*
X0264598Y0381186D02*
X0269002Y0381186D01*
X0269742Y0380447D02*
X0266831Y0383357D01*
X0266831Y0387473D01*
X0269742Y0390384D01*
X0273858Y0390384D01*
X0276768Y0387473D01*
X0276768Y0383357D01*
X0273858Y0380447D01*
X0269742Y0380447D01*
X0267404Y0382785D02*
X0266196Y0382785D01*
X0266768Y0384384D02*
X0266831Y0384384D01*
X0266831Y0385982D02*
X0266768Y0385982D01*
X0266661Y0387581D02*
X0266939Y0387581D01*
X0268537Y0389179D02*
X0265063Y0389179D01*
X0258537Y0389179D02*
X0255063Y0389179D01*
X0256661Y0387581D02*
X0256939Y0387581D01*
X0256831Y0385982D02*
X0256768Y0385982D01*
X0256768Y0384384D02*
X0256831Y0384384D01*
X0257404Y0382785D02*
X0256196Y0382785D01*
X0254598Y0381186D02*
X0259002Y0381186D01*
X0258946Y0379588D02*
X0254654Y0379588D01*
X0256253Y0377989D02*
X0257347Y0377989D01*
X0256831Y0376391D02*
X0256768Y0376391D01*
X0256768Y0374792D02*
X0256831Y0374792D01*
X0256995Y0373194D02*
X0256605Y0373194D01*
X0255006Y0371595D02*
X0258594Y0371595D01*
X0251800Y0385415D02*
X0246800Y0390415D01*
X0226939Y0387581D02*
X0226661Y0387581D01*
X0226768Y0385982D02*
X0226831Y0385982D01*
X0226831Y0384384D02*
X0226768Y0384384D01*
X0226196Y0382785D02*
X0227404Y0382785D01*
X0274598Y0381186D02*
X0279002Y0381186D01*
X0279742Y0380447D02*
X0283858Y0380447D01*
X0286768Y0383357D01*
X0286768Y0387473D01*
X0283858Y0390384D01*
X0279742Y0390384D01*
X0276831Y0387473D01*
X0276831Y0383357D01*
X0279742Y0380447D01*
X0279742Y0380384D02*
X0276831Y0377473D01*
X0276831Y0373357D01*
X0279742Y0370447D01*
X0283858Y0370447D01*
X0286768Y0373357D01*
X0286768Y0377473D01*
X0283858Y0380384D01*
X0279742Y0380384D01*
X0278946Y0379588D02*
X0274654Y0379588D01*
X0276253Y0377989D02*
X0277347Y0377989D01*
X0276831Y0376391D02*
X0276768Y0376391D01*
X0276768Y0374792D02*
X0276831Y0374792D01*
X0276995Y0373194D02*
X0276605Y0373194D01*
X0275006Y0371595D02*
X0278594Y0371595D01*
X0285006Y0371595D02*
X0288594Y0371595D01*
X0289742Y0370447D02*
X0286831Y0373357D01*
X0286831Y0377473D01*
X0289742Y0380384D01*
X0293858Y0380384D01*
X0296768Y0377473D01*
X0296768Y0373357D01*
X0293858Y0370447D01*
X0289742Y0370447D01*
X0286995Y0373194D02*
X0286605Y0373194D01*
X0286768Y0374792D02*
X0286831Y0374792D01*
X0286831Y0376391D02*
X0286768Y0376391D01*
X0286253Y0377989D02*
X0287347Y0377989D01*
X0288946Y0379588D02*
X0284654Y0379588D01*
X0284598Y0381186D02*
X0289002Y0381186D01*
X0289742Y0380447D02*
X0286831Y0383357D01*
X0286831Y0387473D01*
X0289742Y0390384D01*
X0293858Y0390384D01*
X0296768Y0387473D01*
X0296768Y0383357D01*
X0293858Y0380447D01*
X0289742Y0380447D01*
X0287404Y0382785D02*
X0286196Y0382785D01*
X0286768Y0384384D02*
X0286831Y0384384D01*
X0286831Y0385982D02*
X0286768Y0385982D01*
X0286661Y0387581D02*
X0286939Y0387581D01*
X0288537Y0389179D02*
X0285063Y0389179D01*
X0278537Y0389179D02*
X0275063Y0389179D01*
X0276661Y0387581D02*
X0276939Y0387581D01*
X0276831Y0385982D02*
X0276768Y0385982D01*
X0276768Y0384384D02*
X0276831Y0384384D01*
X0277404Y0382785D02*
X0276196Y0382785D01*
X0294598Y0381186D02*
X0299002Y0381186D01*
X0299742Y0380447D02*
X0303858Y0380447D01*
X0306768Y0383357D01*
X0306768Y0387473D01*
X0303858Y0390384D01*
X0299742Y0390384D01*
X0296831Y0387473D01*
X0296831Y0383357D01*
X0299742Y0380447D01*
X0299742Y0380384D02*
X0296831Y0377473D01*
X0296831Y0373357D01*
X0299742Y0370447D01*
X0303858Y0370447D01*
X0306768Y0373357D01*
X0306768Y0377473D01*
X0303858Y0380384D01*
X0299742Y0380384D01*
X0298946Y0379588D02*
X0294654Y0379588D01*
X0296253Y0377989D02*
X0297347Y0377989D01*
X0296831Y0376391D02*
X0296768Y0376391D01*
X0296768Y0374792D02*
X0296831Y0374792D01*
X0296995Y0373194D02*
X0296605Y0373194D01*
X0295006Y0371595D02*
X0298594Y0371595D01*
X0305006Y0371595D02*
X0308594Y0371595D01*
X0309742Y0370447D02*
X0306831Y0373357D01*
X0306831Y0377473D01*
X0309742Y0380384D01*
X0313858Y0380384D01*
X0316768Y0377473D01*
X0316768Y0373357D01*
X0313858Y0370447D01*
X0309742Y0370447D01*
X0306995Y0373194D02*
X0306605Y0373194D01*
X0306768Y0374792D02*
X0306831Y0374792D01*
X0306831Y0376391D02*
X0306768Y0376391D01*
X0306253Y0377989D02*
X0307347Y0377989D01*
X0308946Y0379588D02*
X0304654Y0379588D01*
X0304598Y0381186D02*
X0309002Y0381186D01*
X0309742Y0380447D02*
X0306831Y0383357D01*
X0306831Y0387473D01*
X0309742Y0390384D01*
X0313858Y0390384D01*
X0316768Y0387473D01*
X0316768Y0383357D01*
X0313858Y0380447D01*
X0309742Y0380447D01*
X0307404Y0382785D02*
X0306196Y0382785D01*
X0306768Y0384384D02*
X0306831Y0384384D01*
X0306831Y0385982D02*
X0306768Y0385982D01*
X0306661Y0387581D02*
X0306939Y0387581D01*
X0308537Y0389179D02*
X0305063Y0389179D01*
X0298537Y0389179D02*
X0295063Y0389179D01*
X0296661Y0387581D02*
X0296939Y0387581D01*
X0296831Y0385982D02*
X0296768Y0385982D01*
X0296768Y0384384D02*
X0296831Y0384384D01*
X0297404Y0382785D02*
X0296196Y0382785D01*
X0314598Y0381186D02*
X0319002Y0381186D01*
X0319742Y0380447D02*
X0323858Y0380447D01*
X0326768Y0383357D01*
X0326768Y0387473D01*
X0323858Y0390384D01*
X0319742Y0390384D01*
X0316831Y0387473D01*
X0316831Y0383357D01*
X0319742Y0380447D01*
X0319742Y0380384D02*
X0316831Y0377473D01*
X0316831Y0373357D01*
X0319742Y0370447D01*
X0323858Y0370447D01*
X0326768Y0373357D01*
X0326768Y0377473D01*
X0323858Y0380384D01*
X0319742Y0380384D01*
X0318946Y0379588D02*
X0314654Y0379588D01*
X0316253Y0377989D02*
X0317347Y0377989D01*
X0316831Y0376391D02*
X0316768Y0376391D01*
X0316768Y0374792D02*
X0316831Y0374792D01*
X0316995Y0373194D02*
X0316605Y0373194D01*
X0315006Y0371595D02*
X0318594Y0371595D01*
X0325006Y0371595D02*
X0328594Y0371595D01*
X0326995Y0373194D02*
X0326605Y0373194D01*
X0326768Y0374792D02*
X0326831Y0374792D01*
X0326831Y0376391D02*
X0326768Y0376391D01*
X0326253Y0377989D02*
X0327347Y0377989D01*
X0328946Y0379588D02*
X0324654Y0379588D01*
X0324598Y0381186D02*
X0329002Y0381186D01*
X0327404Y0382785D02*
X0326196Y0382785D01*
X0326768Y0384384D02*
X0326831Y0384384D01*
X0326831Y0385982D02*
X0326768Y0385982D01*
X0326661Y0387581D02*
X0326939Y0387581D01*
X0328537Y0389179D02*
X0325063Y0389179D01*
X0318537Y0389179D02*
X0315063Y0389179D01*
X0316661Y0387581D02*
X0316939Y0387581D01*
X0316831Y0385982D02*
X0316768Y0385982D01*
X0316768Y0384384D02*
X0316831Y0384384D01*
X0317404Y0382785D02*
X0316196Y0382785D01*
X0340962Y0318845D02*
X0354675Y0318845D01*
X0353249Y0317246D02*
X0342561Y0317246D01*
X0344159Y0315648D02*
X0352819Y0315648D01*
X0353057Y0314049D02*
X0345758Y0314049D01*
X0347356Y0312450D02*
X0354135Y0312450D01*
X0356272Y0310852D02*
X0348955Y0310852D01*
X0385177Y0334830D02*
X0390701Y0334830D01*
X0390701Y0336428D02*
X0388432Y0336428D01*
X0390108Y0338027D02*
X0390701Y0338027D01*
X0390701Y0352413D02*
X0390499Y0352413D01*
X0390701Y0354012D02*
X0388900Y0354012D01*
X0390701Y0355610D02*
X0386340Y0355610D01*
X0311885Y0226131D02*
X0229215Y0226131D01*
X0229251Y0219737D02*
X0311849Y0219737D01*
X0316751Y0219737D02*
X0349000Y0219737D01*
X0349000Y0221335D02*
X0317955Y0221335D01*
X0321057Y0218138D02*
X0037653Y0218138D01*
X0038281Y0219737D02*
X0144349Y0219737D01*
X0149251Y0219737D02*
X0224349Y0219737D01*
X0171456Y0176577D02*
X0117100Y0176577D01*
X0117100Y0174979D02*
X0169858Y0174979D01*
X0169700Y0173380D02*
X0117100Y0173380D01*
X0117100Y0171781D02*
X0169700Y0171781D01*
X0170527Y0170183D02*
X0117100Y0170183D01*
X0117100Y0168584D02*
X0172126Y0168584D01*
X0171865Y0166986D02*
X0117100Y0166986D01*
X0118288Y0165387D02*
X0170267Y0165387D01*
X0169700Y0163789D02*
X0119886Y0163789D01*
X0121485Y0162190D02*
X0169700Y0162190D01*
X0170118Y0160592D02*
X0123083Y0160592D01*
X0119959Y0155796D02*
X0115379Y0155796D01*
X0116977Y0154198D02*
X0121558Y0154198D01*
X0123156Y0152599D02*
X0118576Y0152599D01*
X0120174Y0151001D02*
X0124755Y0151001D01*
X0126353Y0149402D02*
X0121773Y0149402D01*
X0123371Y0147804D02*
X0127952Y0147804D01*
X0129550Y0146205D02*
X0124970Y0146205D01*
X0126568Y0144607D02*
X0131149Y0144607D01*
X0132747Y0143008D02*
X0128167Y0143008D01*
X0129765Y0141410D02*
X0134346Y0141410D01*
X0135944Y0139811D02*
X0131364Y0139811D01*
X0132963Y0138213D02*
X0137543Y0138213D01*
X0139141Y0136614D02*
X0134561Y0136614D01*
X0136160Y0135016D02*
X0140740Y0135016D01*
X0142338Y0133417D02*
X0137758Y0133417D01*
X0139357Y0131819D02*
X0143937Y0131819D01*
X0145535Y0130220D02*
X0140955Y0130220D01*
X0142554Y0128622D02*
X0147134Y0128622D01*
X0148732Y0127023D02*
X0144152Y0127023D01*
X0145751Y0125425D02*
X0150331Y0125425D01*
X0151930Y0123826D02*
X0147349Y0123826D01*
X0148948Y0122228D02*
X0153528Y0122228D01*
X0155127Y0120629D02*
X0150546Y0120629D01*
X0152145Y0119031D02*
X0156725Y0119031D01*
X0158324Y0117432D02*
X0153743Y0117432D01*
X0155342Y0115834D02*
X0159922Y0115834D01*
X0161521Y0114235D02*
X0156940Y0114235D01*
X0158539Y0112637D02*
X0163119Y0112637D01*
X0164718Y0111038D02*
X0160137Y0111038D01*
X0161736Y0109440D02*
X0166316Y0109440D01*
X0167915Y0107841D02*
X0163334Y0107841D01*
X0164488Y0106243D02*
X0169513Y0106243D01*
X0171112Y0104644D02*
X0164600Y0104644D01*
X0164600Y0103046D02*
X0172710Y0103046D01*
X0174309Y0101447D02*
X0164600Y0101447D01*
X0164600Y0099848D02*
X0175907Y0099848D01*
X0177506Y0098250D02*
X0164600Y0098250D01*
X0164600Y0096651D02*
X0179104Y0096651D01*
X0180703Y0095053D02*
X0165224Y0095053D01*
X0165781Y0093454D02*
X0182301Y0093454D01*
X0183900Y0091856D02*
X0165670Y0091856D01*
X0164772Y0090257D02*
X0185498Y0090257D01*
X0187097Y0088659D02*
X0162516Y0088659D01*
X0164115Y0087060D02*
X0188695Y0087060D01*
X0199600Y0082265D02*
X0320991Y0082265D01*
X0322589Y0080666D02*
X0242476Y0080666D01*
X0241800Y0077915D02*
X0244300Y0075415D01*
X0241800Y0077915D02*
X0221800Y0077915D01*
X0223408Y0074272D02*
X0239700Y0074272D01*
X0240536Y0072674D02*
X0207781Y0072674D01*
X0208700Y0073593D02*
X0208700Y0075415D01*
X0204300Y0075415D01*
X0204300Y0071015D01*
X0206123Y0071015D01*
X0208700Y0073593D01*
X0208700Y0074272D02*
X0220192Y0074272D01*
X0218338Y0075871D02*
X0208700Y0075871D01*
X0208700Y0075416D02*
X0208700Y0077238D01*
X0206123Y0079815D01*
X0204300Y0079815D01*
X0202477Y0079815D01*
X0199900Y0077238D01*
X0199900Y0075416D01*
X0204300Y0075416D01*
X0204300Y0079815D01*
X0204300Y0075416D01*
X0204300Y0075416D01*
X0208700Y0075416D01*
X0208469Y0077469D02*
X0217819Y0077469D01*
X0217968Y0079068D02*
X0206870Y0079068D01*
X0204300Y0079068D02*
X0204300Y0079068D01*
X0204300Y0077469D02*
X0204300Y0077469D01*
X0204300Y0075871D02*
X0204300Y0075871D01*
X0204300Y0075416D02*
X0204300Y0075415D01*
X0204300Y0075415D01*
X0204300Y0071015D01*
X0202477Y0071015D01*
X0199900Y0073593D01*
X0199900Y0075415D01*
X0204300Y0075415D01*
X0204300Y0075416D01*
X0204300Y0074272D02*
X0204300Y0074272D01*
X0204300Y0072674D02*
X0204300Y0072674D01*
X0204300Y0071075D02*
X0204300Y0071075D01*
X0206182Y0071075D02*
X0242135Y0071075D01*
X0218921Y0080666D02*
X0199600Y0080666D01*
X0199600Y0079068D02*
X0201730Y0079068D01*
X0200131Y0077469D02*
X0199600Y0077469D01*
X0199600Y0075871D02*
X0199900Y0075871D01*
X0199900Y0074272D02*
X0199600Y0074272D01*
X0199600Y0072674D02*
X0200819Y0072674D01*
X0199600Y0071075D02*
X0202418Y0071075D01*
X0219856Y0107841D02*
X0221244Y0107841D01*
X0220911Y0112637D02*
X0220189Y0112637D01*
X0271800Y0055090D02*
X0271800Y0055090D01*
X0271800Y0053492D02*
X0271800Y0053492D01*
X0271800Y0051893D02*
X0271800Y0051893D01*
X0274126Y0055090D02*
X0390701Y0055090D01*
X0390701Y0053492D02*
X0385213Y0053492D01*
X0388449Y0051893D02*
X0390701Y0051893D01*
X0390701Y0050295D02*
X0390117Y0050295D01*
X0378387Y0053492D02*
X0275724Y0053492D01*
X0311635Y0050295D02*
X0317453Y0050295D01*
X0317470Y0050303D02*
X0316801Y0049962D01*
X0316194Y0049521D01*
X0315663Y0048990D01*
X0315222Y0048383D01*
X0314881Y0047714D01*
X0314649Y0047001D01*
X0314531Y0046259D01*
X0314531Y0043100D01*
X0319116Y0043100D01*
X0319116Y0050652D01*
X0318925Y0050652D01*
X0318183Y0050535D01*
X0317470Y0050303D01*
X0319116Y0050295D02*
X0319484Y0050295D01*
X0319484Y0050652D02*
X0319484Y0043100D01*
X0319116Y0043100D01*
X0319116Y0042731D01*
X0319484Y0042731D01*
X0319484Y0035178D01*
X0319675Y0035178D01*
X0320417Y0035296D01*
X0321130Y0035528D01*
X0321799Y0035869D01*
X0322406Y0036310D01*
X0322937Y0036841D01*
X0323378Y0037448D01*
X0323719Y0038116D01*
X0323951Y0038830D01*
X0324068Y0039572D01*
X0324068Y0042731D01*
X0319484Y0042731D01*
X0319484Y0043100D01*
X0324068Y0043100D01*
X0324068Y0046259D01*
X0323951Y0047001D01*
X0323719Y0047714D01*
X0323378Y0048383D01*
X0322937Y0048990D01*
X0322406Y0049521D01*
X0321799Y0049962D01*
X0321130Y0050303D01*
X0320417Y0050535D01*
X0319675Y0050652D01*
X0319484Y0050652D01*
X0321147Y0050295D02*
X0326965Y0050295D01*
X0325087Y0048696D02*
X0323151Y0048696D01*
X0323920Y0047098D02*
X0324425Y0047098D01*
X0324331Y0045499D02*
X0324068Y0045499D01*
X0324068Y0043901D02*
X0324331Y0043901D01*
X0324331Y0042302D02*
X0324068Y0042302D01*
X0324068Y0040704D02*
X0324331Y0040704D01*
X0324331Y0039105D02*
X0323995Y0039105D01*
X0323408Y0037507D02*
X0324933Y0037507D01*
X0326312Y0035908D02*
X0321854Y0035908D01*
X0319484Y0035908D02*
X0319116Y0035908D01*
X0319116Y0035178D02*
X0319116Y0042731D01*
X0314531Y0042731D01*
X0314531Y0039572D01*
X0314649Y0038830D01*
X0314881Y0038116D01*
X0315222Y0037448D01*
X0315663Y0036841D01*
X0316194Y0036310D01*
X0316801Y0035869D01*
X0317470Y0035528D01*
X0318183Y0035296D01*
X0318925Y0035178D01*
X0319116Y0035178D01*
X0319116Y0037507D02*
X0319484Y0037507D01*
X0319484Y0039105D02*
X0319116Y0039105D01*
X0319116Y0040704D02*
X0319484Y0040704D01*
X0319484Y0042302D02*
X0319116Y0042302D01*
X0319116Y0043901D02*
X0319484Y0043901D01*
X0319484Y0045499D02*
X0319116Y0045499D01*
X0319116Y0047098D02*
X0319484Y0047098D01*
X0319484Y0048696D02*
X0319116Y0048696D01*
X0315449Y0048696D02*
X0313513Y0048696D01*
X0314175Y0047098D02*
X0314680Y0047098D01*
X0314531Y0045499D02*
X0314268Y0045499D01*
X0314268Y0043901D02*
X0314531Y0043901D01*
X0314531Y0042302D02*
X0314268Y0042302D01*
X0314268Y0040704D02*
X0314531Y0040704D01*
X0314605Y0039105D02*
X0314268Y0039105D01*
X0313667Y0037507D02*
X0315192Y0037507D01*
X0316746Y0035908D02*
X0312288Y0035908D01*
X0285918Y0090257D02*
X0354051Y0090257D01*
X0355649Y0091856D02*
X0284319Y0091856D01*
X0282721Y0093454D02*
X0357248Y0093454D01*
X0358846Y0095053D02*
X0281122Y0095053D01*
X0279524Y0096651D02*
X0360445Y0096651D01*
X0362043Y0098250D02*
X0277925Y0098250D01*
X0276327Y0099848D02*
X0363200Y0099848D01*
X0367430Y0093454D02*
X0379473Y0093454D01*
X0377874Y0095053D02*
X0369029Y0095053D01*
X0370173Y0096651D02*
X0377000Y0096651D01*
X0377000Y0098250D02*
X0370400Y0098250D01*
X0370400Y0099848D02*
X0377000Y0099848D01*
X0378543Y0101447D02*
X0370400Y0101447D01*
X0356800Y0106243D02*
X0356800Y0106243D01*
X0356800Y0107841D02*
X0356800Y0107841D01*
X0356800Y0109440D02*
X0356800Y0109440D01*
X0353824Y0109440D02*
X0350059Y0109440D01*
X0351370Y0107841D02*
X0352225Y0107841D01*
X0352170Y0103046D02*
X0351393Y0103046D01*
X0350115Y0101447D02*
X0353768Y0101447D01*
X0375643Y0079068D02*
X0378381Y0079068D01*
X0376800Y0077469D02*
X0376686Y0077469D01*
X0376401Y0072674D02*
X0377471Y0072674D01*
X0379069Y0071075D02*
X0374955Y0071075D01*
X0385726Y0095053D02*
X0390701Y0095053D01*
X0390701Y0096651D02*
X0386600Y0096651D01*
X0386600Y0098250D02*
X0390701Y0098250D01*
X0390701Y0099848D02*
X0386600Y0099848D01*
X0316943Y0103046D02*
X0311165Y0103046D01*
X0311130Y0103028D02*
X0311799Y0103369D01*
X0312406Y0103810D01*
X0312937Y0104341D01*
X0313378Y0104948D01*
X0313719Y0105616D01*
X0313951Y0106330D01*
X0314068Y0107072D01*
X0314068Y0110231D01*
X0309484Y0110231D01*
X0309484Y0102678D01*
X0309675Y0102678D01*
X0310417Y0102796D01*
X0311130Y0103028D01*
X0309484Y0103046D02*
X0309116Y0103046D01*
X0309116Y0102678D02*
X0309116Y0110231D01*
X0309484Y0110231D01*
X0309484Y0110600D01*
X0309116Y0110600D01*
X0309116Y0118152D01*
X0308925Y0118152D01*
X0308183Y0118035D01*
X0307470Y0117803D01*
X0306801Y0117462D01*
X0306194Y0117021D01*
X0305663Y0116490D01*
X0305222Y0115883D01*
X0304881Y0115214D01*
X0304649Y0114501D01*
X0304531Y0113759D01*
X0304531Y0110600D01*
X0309116Y0110600D01*
X0309116Y0110231D01*
X0304531Y0110231D01*
X0304531Y0107072D01*
X0304649Y0106330D01*
X0304881Y0105616D01*
X0305222Y0104948D01*
X0305663Y0104341D01*
X0306194Y0103810D01*
X0306801Y0103369D01*
X0307470Y0103028D01*
X0308183Y0102796D01*
X0308925Y0102678D01*
X0309116Y0102678D01*
X0307435Y0103046D02*
X0301657Y0103046D01*
X0303517Y0104644D02*
X0305442Y0104644D01*
X0304677Y0106243D02*
X0304179Y0106243D01*
X0304268Y0107841D02*
X0304531Y0107841D01*
X0304531Y0109440D02*
X0304268Y0109440D01*
X0304268Y0111038D02*
X0304531Y0111038D01*
X0304531Y0112637D02*
X0304268Y0112637D01*
X0304268Y0114235D02*
X0304607Y0114235D01*
X0305196Y0115834D02*
X0303663Y0115834D01*
X0302278Y0117432D02*
X0306759Y0117432D01*
X0309116Y0117432D02*
X0309484Y0117432D01*
X0309484Y0118152D02*
X0309484Y0110600D01*
X0314068Y0110600D01*
X0314068Y0113759D01*
X0313951Y0114501D01*
X0313719Y0115214D01*
X0313378Y0115883D01*
X0312937Y0116490D01*
X0312406Y0117021D01*
X0311799Y0117462D01*
X0311130Y0117803D01*
X0310417Y0118035D01*
X0309675Y0118152D01*
X0309484Y0118152D01*
X0309484Y0115834D02*
X0309116Y0115834D01*
X0309116Y0114235D02*
X0309484Y0114235D01*
X0309484Y0112637D02*
X0309116Y0112637D01*
X0309116Y0111038D02*
X0309484Y0111038D01*
X0309484Y0109440D02*
X0309116Y0109440D01*
X0309116Y0107841D02*
X0309484Y0107841D01*
X0309484Y0106243D02*
X0309116Y0106243D01*
X0309116Y0104644D02*
X0309484Y0104644D01*
X0313158Y0104644D02*
X0315083Y0104644D01*
X0314421Y0106243D02*
X0313923Y0106243D01*
X0314068Y0107841D02*
X0314331Y0107841D01*
X0314331Y0109440D02*
X0314068Y0109440D01*
X0314068Y0111038D02*
X0314331Y0111038D01*
X0314331Y0112637D02*
X0314068Y0112637D01*
X0313993Y0114235D02*
X0314331Y0114235D01*
X0314937Y0115834D02*
X0313404Y0115834D01*
X0311841Y0117432D02*
X0316322Y0117432D01*
X0321300Y0173380D02*
X0321700Y0173380D01*
X0321700Y0174979D02*
X0321300Y0174979D01*
X0321300Y0176577D02*
X0321700Y0176577D01*
X0321700Y0178176D02*
X0321300Y0178176D01*
X0321300Y0179774D02*
X0321700Y0179774D01*
X0321700Y0181373D02*
X0321300Y0181373D01*
X0387201Y0203752D02*
X0390701Y0203752D01*
X0390701Y0205350D02*
X0388869Y0205350D01*
X0389507Y0206949D02*
X0390701Y0206949D01*
X0390701Y0208547D02*
X0389560Y0208547D01*
X0389051Y0210146D02*
X0390701Y0210146D01*
X0390701Y0211744D02*
X0387696Y0211744D01*
X0167404Y0382785D02*
X0166196Y0382785D01*
X0166768Y0384384D02*
X0166831Y0384384D01*
X0166831Y0385982D02*
X0166768Y0385982D01*
X0166661Y0387581D02*
X0166939Y0387581D01*
X0149877Y0240517D02*
X0006600Y0240517D01*
X0006600Y0238919D02*
X0134855Y0238919D01*
X0133280Y0237320D02*
X0006600Y0237320D01*
X0006600Y0235722D02*
X0132819Y0235722D01*
X0133026Y0234123D02*
X0006600Y0234123D01*
X0006600Y0232525D02*
X0134060Y0232525D01*
X0138745Y0238919D02*
X0139855Y0238919D01*
X0113565Y0162190D02*
X0108985Y0162190D01*
X0110583Y0160592D02*
X0115164Y0160592D01*
X0116762Y0158993D02*
X0112182Y0158993D01*
X0113780Y0157395D02*
X0118361Y0157395D01*
X0007404Y0349216D02*
X0006600Y0349216D01*
D22*
X0029300Y0355415D03*
X0029300Y0327915D03*
X0029300Y0302915D03*
X0054300Y0310415D03*
X0081800Y0322915D03*
X0111800Y0307915D03*
X0084300Y0275415D03*
X0084300Y0270415D03*
X0084300Y0240415D03*
X0076800Y0212915D03*
X0079300Y0205415D03*
X0089300Y0202915D03*
X0081800Y0192915D03*
X0094300Y0177915D03*
X0104300Y0187346D03*
X0114300Y0192915D03*
X0131800Y0185415D03*
X0144300Y0217915D03*
X0146800Y0222915D03*
X0141800Y0235415D03*
X0136800Y0235415D03*
X0144300Y0245415D03*
X0136800Y0250415D03*
X0144300Y0255415D03*
X0136800Y0260415D03*
X0139300Y0270415D03*
X0144300Y0267915D03*
X0166800Y0310415D03*
X0156800Y0320415D03*
X0191800Y0307915D03*
X0196800Y0325415D03*
X0216800Y0295415D03*
X0199300Y0282915D03*
X0201800Y0247915D03*
X0206800Y0230415D03*
X0209300Y0217915D03*
X0226800Y0222915D03*
X0246800Y0212915D03*
X0251800Y0207915D03*
X0256800Y0202915D03*
X0261800Y0197915D03*
X0241800Y0182915D03*
X0211800Y0192915D03*
X0191800Y0180415D03*
X0181800Y0197915D03*
X0176800Y0202915D03*
X0171800Y0207915D03*
X0166800Y0212915D03*
X0106800Y0150415D03*
X0124300Y0132915D03*
X0106800Y0112915D03*
X0116800Y0102915D03*
X0099300Y0095415D03*
X0096800Y0080415D03*
X0124300Y0060415D03*
X0129300Y0077915D03*
X0161800Y0072915D03*
X0161800Y0067915D03*
X0164300Y0082915D03*
X0169300Y0090415D03*
X0161800Y0092915D03*
X0184300Y0107915D03*
X0216800Y0110415D03*
X0224300Y0110415D03*
X0234300Y0139817D03*
X0239300Y0142915D03*
X0279300Y0112915D03*
X0254300Y0082915D03*
X0251800Y0055415D03*
X0254300Y0035415D03*
X0221800Y0057915D03*
X0221800Y0077915D03*
X0166800Y0035415D03*
X0079300Y0127915D03*
X0064300Y0150415D03*
X0044300Y0182915D03*
X0051800Y0190415D03*
X0064300Y0187915D03*
X0051800Y0212915D03*
X0034300Y0220415D03*
X0029300Y0232915D03*
X0029300Y0267915D03*
X0026800Y0190415D03*
X0016800Y0120415D03*
X0049300Y0085415D03*
X0066800Y0097915D03*
X0059300Y0107915D03*
X0056800Y0065415D03*
X0046800Y0065415D03*
X0009300Y0070415D03*
X0239300Y0302915D03*
X0239300Y0310415D03*
X0259300Y0350415D03*
X0259300Y0360415D03*
X0244300Y0360415D03*
X0244300Y0355415D03*
X0206800Y0397915D03*
X0306800Y0355415D03*
X0321800Y0320415D03*
X0349300Y0350415D03*
X0356800Y0350415D03*
X0354300Y0342915D03*
X0356800Y0315415D03*
X0354300Y0280415D03*
X0344300Y0252915D03*
X0336800Y0237915D03*
X0351800Y0230415D03*
X0336800Y0215415D03*
X0344300Y0210415D03*
X0336800Y0205415D03*
X0344300Y0200415D03*
X0356800Y0190415D03*
X0314300Y0215415D03*
X0314300Y0222915D03*
X0316800Y0230415D03*
X0311800Y0235415D03*
X0316800Y0240415D03*
X0311800Y0245415D03*
X0306800Y0267915D03*
X0254300Y0240415D03*
X0289300Y0190415D03*
X0301800Y0152915D03*
X0309300Y0140415D03*
X0341800Y0117915D03*
X0344300Y0090415D03*
X0316800Y0075415D03*
X0281800Y0077915D03*
X0361800Y0057915D03*
X0361800Y0035415D03*
X0376800Y0130415D03*
X0371800Y0135415D03*
X0361800Y0372915D03*
X0341800Y0375415D03*
X0031800Y0387915D03*
D23*
X0086800Y0283115D02*
X0086800Y0277915D01*
X0084300Y0275415D01*
X0084300Y0270415D01*
X0136800Y0272915D02*
X0136800Y0370415D01*
X0136800Y0272915D02*
X0139300Y0270415D01*
X0141800Y0270415D01*
X0154300Y0257915D01*
X0154300Y0240415D01*
X0149300Y0235415D01*
X0136800Y0235415D01*
X0244300Y0355415D02*
X0244300Y0360415D01*
X0161800Y0067915D02*
X0119300Y0067915D01*
X0116800Y0070415D01*
X0161800Y0067915D02*
X0161800Y0050415D01*
X0176800Y0035415D01*
X0231800Y0035415D01*
X0236800Y0040415D01*
X0271800Y0040415D01*
D24*
X0331800Y0075415D02*
X0344300Y0075415D01*
X0366800Y0097915D01*
X0366800Y0110415D01*
X0364300Y0112915D01*
X0364300Y0290415D01*
X0364300Y0307915D01*
X0356800Y0315415D01*
X0364300Y0290415D02*
X0316800Y0337915D01*
X0271800Y0337915D01*
X0259300Y0350415D01*
M02*
