G04 #@! TF.GenerationSoftware,KiCad,Pcbnew,(5.1.9)-1*
G04 #@! TF.CreationDate,2021-04-20T14:37:46+02:00*
G04 #@! TF.ProjectId,light-external-controller,6c696768-742d-4657-9874-65726e616c2d,rev?*
G04 #@! TF.SameCoordinates,Original*
G04 #@! TF.FileFunction,Paste,Top*
G04 #@! TF.FilePolarity,Positive*
%FSLAX46Y46*%
G04 Gerber Fmt 4.6, Leading zero omitted, Abs format (unit mm)*
G04 Created by KiCad (PCBNEW (5.1.9)-1) date 2021-04-20 14:37:46*
%MOMM*%
%LPD*%
G01*
G04 APERTURE LIST*
%ADD10R,0.550000X1.600000*%
%ADD11R,1.600000X0.550000*%
%ADD12R,0.500000X0.900000*%
%ADD13R,1.200000X0.750000*%
%ADD14R,0.750000X1.200000*%
G04 APERTURE END LIST*
D10*
X132200000Y-96750000D03*
X133000000Y-96750000D03*
X133800000Y-96750000D03*
X134600000Y-96750000D03*
X135400000Y-96750000D03*
X136200000Y-96750000D03*
X137000000Y-96750000D03*
X137800000Y-96750000D03*
D11*
X139250000Y-98200000D03*
X139250000Y-99000000D03*
X139250000Y-99800000D03*
X139250000Y-100600000D03*
X139250000Y-101400000D03*
X139250000Y-102200000D03*
X139250000Y-103000000D03*
X139250000Y-103800000D03*
D10*
X137800000Y-105250000D03*
X137000000Y-105250000D03*
X136200000Y-105250000D03*
X135400000Y-105250000D03*
X134600000Y-105250000D03*
X133800000Y-105250000D03*
X133000000Y-105250000D03*
X132200000Y-105250000D03*
D11*
X130750000Y-103800000D03*
X130750000Y-103000000D03*
X130750000Y-102200000D03*
X130750000Y-101400000D03*
X130750000Y-100600000D03*
X130750000Y-99800000D03*
X130750000Y-99000000D03*
X130750000Y-98200000D03*
D12*
X136750000Y-90000000D03*
X135250000Y-90000000D03*
D13*
X135050000Y-92000000D03*
X136950000Y-92000000D03*
D14*
X128000000Y-101450000D03*
X128000000Y-99550000D03*
X142000000Y-101050000D03*
X142000000Y-102950000D03*
X128000000Y-105050000D03*
X128000000Y-106950000D03*
D13*
X121050000Y-104500000D03*
X122950000Y-104500000D03*
M02*
