G04 #@! TF.GenerationSoftware,KiCad,Pcbnew,(5.1.9)-1*
G04 #@! TF.CreationDate,2021-04-20T14:37:47+02:00*
G04 #@! TF.ProjectId,light-external-controller,6c696768-742d-4657-9874-65726e616c2d,rev?*
G04 #@! TF.SameCoordinates,Original*
G04 #@! TF.FileFunction,Legend,Bot*
G04 #@! TF.FilePolarity,Positive*
%FSLAX46Y46*%
G04 Gerber Fmt 4.6, Leading zero omitted, Abs format (unit mm)*
G04 Created by KiCad (PCBNEW (5.1.9)-1) date 2021-04-20 14:37:47*
%MOMM*%
%LPD*%
G01*
G04 APERTURE LIST*
%ADD10C,0.150000*%
%ADD11C,0.010000*%
%ADD12C,0.120000*%
%ADD13C,1.524000*%
%ADD14C,1.500000*%
%ADD15O,3.048000X1.850000*%
%ADD16R,2.000000X2.000000*%
%ADD17C,2.000000*%
%ADD18R,3.200000X2.000000*%
%ADD19R,0.900000X0.500000*%
%ADD20O,1.700000X1.700000*%
%ADD21R,1.700000X1.700000*%
%ADD22C,1.700000*%
%ADD23C,3.700000*%
G04 APERTURE END LIST*
D10*
X128880952Y-101404761D02*
X128833333Y-101309523D01*
X128785714Y-101261904D01*
X128690476Y-101214285D01*
X128642857Y-101214285D01*
X128547619Y-101261904D01*
X128500000Y-101309523D01*
X128452380Y-101404761D01*
X128452380Y-101595238D01*
X128500000Y-101690476D01*
X128547619Y-101738095D01*
X128642857Y-101785714D01*
X128690476Y-101785714D01*
X128785714Y-101738095D01*
X128833333Y-101690476D01*
X128880952Y-101595238D01*
X128880952Y-101404761D01*
X128928571Y-101309523D01*
X128976190Y-101261904D01*
X129071428Y-101214285D01*
X129261904Y-101214285D01*
X129357142Y-101261904D01*
X129404761Y-101309523D01*
X129452380Y-101404761D01*
X129452380Y-101595238D01*
X129404761Y-101690476D01*
X129357142Y-101738095D01*
X129261904Y-101785714D01*
X129071428Y-101785714D01*
X128976190Y-101738095D01*
X128928571Y-101690476D01*
X128880952Y-101595238D01*
X129452380Y-102214285D02*
X128452380Y-102214285D01*
X129166666Y-102547619D01*
X128452380Y-102880952D01*
X129452380Y-102880952D01*
X129452380Y-103357142D02*
X128452380Y-103357142D01*
X128928571Y-103357142D02*
X128928571Y-103928571D01*
X129452380Y-103928571D02*
X128452380Y-103928571D01*
X128785714Y-104309523D02*
X128785714Y-104833333D01*
X129452380Y-104309523D01*
X129452380Y-104833333D01*
D11*
G36*
X67953465Y-91133172D02*
G01*
X67840883Y-91730363D01*
X67425469Y-91901610D01*
X67010056Y-92072857D01*
X66511698Y-91733978D01*
X66372132Y-91639622D01*
X66245972Y-91555375D01*
X66139105Y-91485083D01*
X66057418Y-91432592D01*
X66006799Y-91401749D01*
X65993014Y-91395098D01*
X65968180Y-91412203D01*
X65915112Y-91459489D01*
X65839760Y-91530917D01*
X65748071Y-91620445D01*
X65645993Y-91722034D01*
X65539474Y-91829643D01*
X65434464Y-91937232D01*
X65336909Y-92038760D01*
X65252758Y-92128186D01*
X65187960Y-92199471D01*
X65148462Y-92246573D01*
X65139020Y-92262337D01*
X65152609Y-92291398D01*
X65190707Y-92355066D01*
X65249306Y-92447112D01*
X65324403Y-92561309D01*
X65411991Y-92691429D01*
X65462746Y-92765646D01*
X65555255Y-92901167D01*
X65637460Y-93023461D01*
X65705370Y-93126440D01*
X65755000Y-93204018D01*
X65782360Y-93250106D01*
X65786471Y-93259792D01*
X65777151Y-93287319D01*
X65751746Y-93351473D01*
X65714089Y-93443235D01*
X65668014Y-93553584D01*
X65617354Y-93673500D01*
X65565941Y-93793964D01*
X65517611Y-93905954D01*
X65476194Y-94000452D01*
X65445526Y-94068437D01*
X65429438Y-94100888D01*
X65428489Y-94102165D01*
X65403228Y-94108362D01*
X65335954Y-94122185D01*
X65233640Y-94142277D01*
X65103259Y-94167279D01*
X64951784Y-94195831D01*
X64863406Y-94212296D01*
X64701548Y-94243114D01*
X64555351Y-94272439D01*
X64432213Y-94298666D01*
X64339531Y-94320191D01*
X64284699Y-94335410D01*
X64273677Y-94340238D01*
X64262881Y-94372919D01*
X64254171Y-94446730D01*
X64247540Y-94553037D01*
X64242982Y-94683212D01*
X64240491Y-94828621D01*
X64240062Y-94980635D01*
X64241689Y-95130622D01*
X64245365Y-95269951D01*
X64251085Y-95389990D01*
X64258842Y-95482110D01*
X64268632Y-95537677D01*
X64274504Y-95549245D01*
X64309601Y-95563110D01*
X64383972Y-95582933D01*
X64487777Y-95606384D01*
X64611181Y-95631136D01*
X64654259Y-95639143D01*
X64861953Y-95677186D01*
X65026016Y-95707824D01*
X65151870Y-95732274D01*
X65244935Y-95751754D01*
X65310633Y-95767481D01*
X65354383Y-95780673D01*
X65381608Y-95792549D01*
X65397728Y-95804325D01*
X65399983Y-95806653D01*
X65422497Y-95844145D01*
X65456842Y-95917110D01*
X65499589Y-96016612D01*
X65547308Y-96133718D01*
X65596570Y-96259493D01*
X65643945Y-96385002D01*
X65686005Y-96501310D01*
X65719320Y-96599484D01*
X65740459Y-96670588D01*
X65745995Y-96705687D01*
X65745534Y-96706917D01*
X65726777Y-96735606D01*
X65684224Y-96798730D01*
X65622347Y-96889718D01*
X65545618Y-97002000D01*
X65458509Y-97129005D01*
X65433701Y-97165098D01*
X65345247Y-97295948D01*
X65267412Y-97415336D01*
X65204434Y-97516407D01*
X65160555Y-97592304D01*
X65140015Y-97636172D01*
X65139020Y-97641562D01*
X65156278Y-97669889D01*
X65203964Y-97726006D01*
X65275950Y-97803882D01*
X65366103Y-97897485D01*
X65468295Y-98000786D01*
X65576394Y-98107751D01*
X65684272Y-98212351D01*
X65785796Y-98308554D01*
X65874838Y-98390329D01*
X65945267Y-98451645D01*
X65990953Y-98486471D01*
X66003591Y-98492157D01*
X66033009Y-98478765D01*
X66093239Y-98442644D01*
X66174470Y-98389881D01*
X66236970Y-98347412D01*
X66350215Y-98269485D01*
X66484326Y-98177729D01*
X66618845Y-98086120D01*
X66691167Y-98037091D01*
X66935962Y-97871515D01*
X67141449Y-97982620D01*
X67235064Y-98031293D01*
X67314670Y-98069126D01*
X67368533Y-98090703D01*
X67382243Y-98093706D01*
X67398730Y-98071538D01*
X67431255Y-98008894D01*
X67477391Y-97911554D01*
X67534710Y-97785294D01*
X67600784Y-97635895D01*
X67673185Y-97469133D01*
X67749484Y-97290787D01*
X67827254Y-97106636D01*
X67904066Y-96922457D01*
X67977494Y-96744030D01*
X68045108Y-96577132D01*
X68104480Y-96427542D01*
X68153184Y-96301038D01*
X68188790Y-96203399D01*
X68208870Y-96140402D01*
X68212100Y-96118766D01*
X68186504Y-96091169D01*
X68130461Y-96046370D01*
X68055689Y-95993679D01*
X68049413Y-95989510D01*
X67856155Y-95834814D01*
X67700326Y-95654336D01*
X67583276Y-95453847D01*
X67506355Y-95239119D01*
X67470914Y-95015922D01*
X67478303Y-94790026D01*
X67529873Y-94567204D01*
X67626974Y-94353224D01*
X67655542Y-94306409D01*
X67804132Y-94117363D01*
X67979673Y-93965557D01*
X68176090Y-93851779D01*
X68387307Y-93776820D01*
X68607247Y-93741467D01*
X68829837Y-93746512D01*
X69048999Y-93792744D01*
X69258658Y-93880951D01*
X69452739Y-94011924D01*
X69512774Y-94065082D01*
X69665565Y-94231484D01*
X69776903Y-94406657D01*
X69853277Y-94603011D01*
X69895813Y-94797462D01*
X69906314Y-95016087D01*
X69871299Y-95235797D01*
X69794327Y-95449165D01*
X69678953Y-95648767D01*
X69528734Y-95827174D01*
X69347227Y-95976962D01*
X69323373Y-95992751D01*
X69247799Y-96044457D01*
X69190349Y-96089257D01*
X69162883Y-96117862D01*
X69162483Y-96118766D01*
X69168380Y-96149709D01*
X69191755Y-96219936D01*
X69230179Y-96323670D01*
X69281223Y-96455135D01*
X69342458Y-96608552D01*
X69411456Y-96778146D01*
X69485786Y-96958138D01*
X69563022Y-97142753D01*
X69640732Y-97326213D01*
X69716489Y-97502741D01*
X69787863Y-97666559D01*
X69852426Y-97811892D01*
X69907748Y-97932962D01*
X69951400Y-98023992D01*
X69980954Y-98079205D01*
X69992856Y-98093706D01*
X70029223Y-98082414D01*
X70097270Y-98052130D01*
X70185263Y-98008265D01*
X70233649Y-97982620D01*
X70439137Y-97871515D01*
X70683932Y-98037091D01*
X70808894Y-98121915D01*
X70945705Y-98215261D01*
X71073911Y-98303153D01*
X71138129Y-98347412D01*
X71228449Y-98408063D01*
X71304929Y-98456126D01*
X71357593Y-98485515D01*
X71374698Y-98491727D01*
X71399595Y-98474968D01*
X71454695Y-98428181D01*
X71534657Y-98356225D01*
X71634139Y-98263957D01*
X71747800Y-98156235D01*
X71819685Y-98087071D01*
X71945449Y-97963502D01*
X72054137Y-97852979D01*
X72141355Y-97760230D01*
X72202711Y-97689982D01*
X72233809Y-97646965D01*
X72236792Y-97638235D01*
X72222947Y-97605029D01*
X72184688Y-97537887D01*
X72126258Y-97443608D01*
X72051903Y-97328990D01*
X71965865Y-97200828D01*
X71941397Y-97165098D01*
X71852245Y-97035234D01*
X71772262Y-96918314D01*
X71705920Y-96820907D01*
X71657689Y-96749584D01*
X71632043Y-96710915D01*
X71629565Y-96706917D01*
X71633271Y-96676100D01*
X71652939Y-96608344D01*
X71685140Y-96512584D01*
X71726445Y-96397754D01*
X71773425Y-96272789D01*
X71822651Y-96146624D01*
X71870692Y-96028193D01*
X71914119Y-95926430D01*
X71949504Y-95850271D01*
X71973416Y-95808649D01*
X71975116Y-95806653D01*
X71989738Y-95794758D01*
X72014435Y-95782995D01*
X72054628Y-95770146D01*
X72115737Y-95754994D01*
X72203183Y-95736321D01*
X72322388Y-95712910D01*
X72478773Y-95683542D01*
X72677757Y-95647000D01*
X72720840Y-95639143D01*
X72848529Y-95614472D01*
X72959847Y-95590338D01*
X73044955Y-95569069D01*
X73094017Y-95552993D01*
X73100595Y-95549245D01*
X73111436Y-95516018D01*
X73120247Y-95441766D01*
X73127024Y-95335121D01*
X73131760Y-95204712D01*
X73134450Y-95059172D01*
X73135087Y-94907131D01*
X73133666Y-94757221D01*
X73130180Y-94618073D01*
X73124624Y-94498317D01*
X73116992Y-94406586D01*
X73107278Y-94351511D01*
X73101422Y-94340238D01*
X73068820Y-94328868D01*
X72994582Y-94310369D01*
X72886104Y-94286347D01*
X72750783Y-94258407D01*
X72596015Y-94228153D01*
X72511692Y-94212296D01*
X72351704Y-94182389D01*
X72209033Y-94155295D01*
X72090652Y-94132376D01*
X72003535Y-94114988D01*
X71954655Y-94104492D01*
X71946610Y-94102165D01*
X71933013Y-94075931D01*
X71904271Y-94012740D01*
X71864215Y-93921622D01*
X71816676Y-93811602D01*
X71765485Y-93691710D01*
X71714474Y-93570972D01*
X71667474Y-93458416D01*
X71628316Y-93363071D01*
X71600831Y-93293962D01*
X71588851Y-93260119D01*
X71588628Y-93258640D01*
X71602209Y-93231942D01*
X71640285Y-93170505D01*
X71698853Y-93080434D01*
X71773912Y-92967835D01*
X71861460Y-92838815D01*
X71912353Y-92764706D01*
X72005091Y-92628822D01*
X72087459Y-92505454D01*
X72155439Y-92400842D01*
X72205012Y-92321228D01*
X72232158Y-92272852D01*
X72236079Y-92262007D01*
X72219225Y-92236765D01*
X72172632Y-92182869D01*
X72102251Y-92106358D01*
X72014035Y-92013268D01*
X71913935Y-91909640D01*
X71807902Y-91801509D01*
X71701889Y-91694915D01*
X71601848Y-91595895D01*
X71513730Y-91510487D01*
X71443487Y-91444730D01*
X71397072Y-91404661D01*
X71381544Y-91395098D01*
X71356261Y-91408545D01*
X71295789Y-91446320D01*
X71206008Y-91504580D01*
X71092797Y-91579479D01*
X70962036Y-91667170D01*
X70863400Y-91733978D01*
X70365043Y-92072857D01*
X69949629Y-91901610D01*
X69534216Y-91730363D01*
X69421634Y-91133172D01*
X69309051Y-90535980D01*
X68066048Y-90535980D01*
X67953465Y-91133172D01*
G37*
X67953465Y-91133172D02*
X67840883Y-91730363D01*
X67425469Y-91901610D01*
X67010056Y-92072857D01*
X66511698Y-91733978D01*
X66372132Y-91639622D01*
X66245972Y-91555375D01*
X66139105Y-91485083D01*
X66057418Y-91432592D01*
X66006799Y-91401749D01*
X65993014Y-91395098D01*
X65968180Y-91412203D01*
X65915112Y-91459489D01*
X65839760Y-91530917D01*
X65748071Y-91620445D01*
X65645993Y-91722034D01*
X65539474Y-91829643D01*
X65434464Y-91937232D01*
X65336909Y-92038760D01*
X65252758Y-92128186D01*
X65187960Y-92199471D01*
X65148462Y-92246573D01*
X65139020Y-92262337D01*
X65152609Y-92291398D01*
X65190707Y-92355066D01*
X65249306Y-92447112D01*
X65324403Y-92561309D01*
X65411991Y-92691429D01*
X65462746Y-92765646D01*
X65555255Y-92901167D01*
X65637460Y-93023461D01*
X65705370Y-93126440D01*
X65755000Y-93204018D01*
X65782360Y-93250106D01*
X65786471Y-93259792D01*
X65777151Y-93287319D01*
X65751746Y-93351473D01*
X65714089Y-93443235D01*
X65668014Y-93553584D01*
X65617354Y-93673500D01*
X65565941Y-93793964D01*
X65517611Y-93905954D01*
X65476194Y-94000452D01*
X65445526Y-94068437D01*
X65429438Y-94100888D01*
X65428489Y-94102165D01*
X65403228Y-94108362D01*
X65335954Y-94122185D01*
X65233640Y-94142277D01*
X65103259Y-94167279D01*
X64951784Y-94195831D01*
X64863406Y-94212296D01*
X64701548Y-94243114D01*
X64555351Y-94272439D01*
X64432213Y-94298666D01*
X64339531Y-94320191D01*
X64284699Y-94335410D01*
X64273677Y-94340238D01*
X64262881Y-94372919D01*
X64254171Y-94446730D01*
X64247540Y-94553037D01*
X64242982Y-94683212D01*
X64240491Y-94828621D01*
X64240062Y-94980635D01*
X64241689Y-95130622D01*
X64245365Y-95269951D01*
X64251085Y-95389990D01*
X64258842Y-95482110D01*
X64268632Y-95537677D01*
X64274504Y-95549245D01*
X64309601Y-95563110D01*
X64383972Y-95582933D01*
X64487777Y-95606384D01*
X64611181Y-95631136D01*
X64654259Y-95639143D01*
X64861953Y-95677186D01*
X65026016Y-95707824D01*
X65151870Y-95732274D01*
X65244935Y-95751754D01*
X65310633Y-95767481D01*
X65354383Y-95780673D01*
X65381608Y-95792549D01*
X65397728Y-95804325D01*
X65399983Y-95806653D01*
X65422497Y-95844145D01*
X65456842Y-95917110D01*
X65499589Y-96016612D01*
X65547308Y-96133718D01*
X65596570Y-96259493D01*
X65643945Y-96385002D01*
X65686005Y-96501310D01*
X65719320Y-96599484D01*
X65740459Y-96670588D01*
X65745995Y-96705687D01*
X65745534Y-96706917D01*
X65726777Y-96735606D01*
X65684224Y-96798730D01*
X65622347Y-96889718D01*
X65545618Y-97002000D01*
X65458509Y-97129005D01*
X65433701Y-97165098D01*
X65345247Y-97295948D01*
X65267412Y-97415336D01*
X65204434Y-97516407D01*
X65160555Y-97592304D01*
X65140015Y-97636172D01*
X65139020Y-97641562D01*
X65156278Y-97669889D01*
X65203964Y-97726006D01*
X65275950Y-97803882D01*
X65366103Y-97897485D01*
X65468295Y-98000786D01*
X65576394Y-98107751D01*
X65684272Y-98212351D01*
X65785796Y-98308554D01*
X65874838Y-98390329D01*
X65945267Y-98451645D01*
X65990953Y-98486471D01*
X66003591Y-98492157D01*
X66033009Y-98478765D01*
X66093239Y-98442644D01*
X66174470Y-98389881D01*
X66236970Y-98347412D01*
X66350215Y-98269485D01*
X66484326Y-98177729D01*
X66618845Y-98086120D01*
X66691167Y-98037091D01*
X66935962Y-97871515D01*
X67141449Y-97982620D01*
X67235064Y-98031293D01*
X67314670Y-98069126D01*
X67368533Y-98090703D01*
X67382243Y-98093706D01*
X67398730Y-98071538D01*
X67431255Y-98008894D01*
X67477391Y-97911554D01*
X67534710Y-97785294D01*
X67600784Y-97635895D01*
X67673185Y-97469133D01*
X67749484Y-97290787D01*
X67827254Y-97106636D01*
X67904066Y-96922457D01*
X67977494Y-96744030D01*
X68045108Y-96577132D01*
X68104480Y-96427542D01*
X68153184Y-96301038D01*
X68188790Y-96203399D01*
X68208870Y-96140402D01*
X68212100Y-96118766D01*
X68186504Y-96091169D01*
X68130461Y-96046370D01*
X68055689Y-95993679D01*
X68049413Y-95989510D01*
X67856155Y-95834814D01*
X67700326Y-95654336D01*
X67583276Y-95453847D01*
X67506355Y-95239119D01*
X67470914Y-95015922D01*
X67478303Y-94790026D01*
X67529873Y-94567204D01*
X67626974Y-94353224D01*
X67655542Y-94306409D01*
X67804132Y-94117363D01*
X67979673Y-93965557D01*
X68176090Y-93851779D01*
X68387307Y-93776820D01*
X68607247Y-93741467D01*
X68829837Y-93746512D01*
X69048999Y-93792744D01*
X69258658Y-93880951D01*
X69452739Y-94011924D01*
X69512774Y-94065082D01*
X69665565Y-94231484D01*
X69776903Y-94406657D01*
X69853277Y-94603011D01*
X69895813Y-94797462D01*
X69906314Y-95016087D01*
X69871299Y-95235797D01*
X69794327Y-95449165D01*
X69678953Y-95648767D01*
X69528734Y-95827174D01*
X69347227Y-95976962D01*
X69323373Y-95992751D01*
X69247799Y-96044457D01*
X69190349Y-96089257D01*
X69162883Y-96117862D01*
X69162483Y-96118766D01*
X69168380Y-96149709D01*
X69191755Y-96219936D01*
X69230179Y-96323670D01*
X69281223Y-96455135D01*
X69342458Y-96608552D01*
X69411456Y-96778146D01*
X69485786Y-96958138D01*
X69563022Y-97142753D01*
X69640732Y-97326213D01*
X69716489Y-97502741D01*
X69787863Y-97666559D01*
X69852426Y-97811892D01*
X69907748Y-97932962D01*
X69951400Y-98023992D01*
X69980954Y-98079205D01*
X69992856Y-98093706D01*
X70029223Y-98082414D01*
X70097270Y-98052130D01*
X70185263Y-98008265D01*
X70233649Y-97982620D01*
X70439137Y-97871515D01*
X70683932Y-98037091D01*
X70808894Y-98121915D01*
X70945705Y-98215261D01*
X71073911Y-98303153D01*
X71138129Y-98347412D01*
X71228449Y-98408063D01*
X71304929Y-98456126D01*
X71357593Y-98485515D01*
X71374698Y-98491727D01*
X71399595Y-98474968D01*
X71454695Y-98428181D01*
X71534657Y-98356225D01*
X71634139Y-98263957D01*
X71747800Y-98156235D01*
X71819685Y-98087071D01*
X71945449Y-97963502D01*
X72054137Y-97852979D01*
X72141355Y-97760230D01*
X72202711Y-97689982D01*
X72233809Y-97646965D01*
X72236792Y-97638235D01*
X72222947Y-97605029D01*
X72184688Y-97537887D01*
X72126258Y-97443608D01*
X72051903Y-97328990D01*
X71965865Y-97200828D01*
X71941397Y-97165098D01*
X71852245Y-97035234D01*
X71772262Y-96918314D01*
X71705920Y-96820907D01*
X71657689Y-96749584D01*
X71632043Y-96710915D01*
X71629565Y-96706917D01*
X71633271Y-96676100D01*
X71652939Y-96608344D01*
X71685140Y-96512584D01*
X71726445Y-96397754D01*
X71773425Y-96272789D01*
X71822651Y-96146624D01*
X71870692Y-96028193D01*
X71914119Y-95926430D01*
X71949504Y-95850271D01*
X71973416Y-95808649D01*
X71975116Y-95806653D01*
X71989738Y-95794758D01*
X72014435Y-95782995D01*
X72054628Y-95770146D01*
X72115737Y-95754994D01*
X72203183Y-95736321D01*
X72322388Y-95712910D01*
X72478773Y-95683542D01*
X72677757Y-95647000D01*
X72720840Y-95639143D01*
X72848529Y-95614472D01*
X72959847Y-95590338D01*
X73044955Y-95569069D01*
X73094017Y-95552993D01*
X73100595Y-95549245D01*
X73111436Y-95516018D01*
X73120247Y-95441766D01*
X73127024Y-95335121D01*
X73131760Y-95204712D01*
X73134450Y-95059172D01*
X73135087Y-94907131D01*
X73133666Y-94757221D01*
X73130180Y-94618073D01*
X73124624Y-94498317D01*
X73116992Y-94406586D01*
X73107278Y-94351511D01*
X73101422Y-94340238D01*
X73068820Y-94328868D01*
X72994582Y-94310369D01*
X72886104Y-94286347D01*
X72750783Y-94258407D01*
X72596015Y-94228153D01*
X72511692Y-94212296D01*
X72351704Y-94182389D01*
X72209033Y-94155295D01*
X72090652Y-94132376D01*
X72003535Y-94114988D01*
X71954655Y-94104492D01*
X71946610Y-94102165D01*
X71933013Y-94075931D01*
X71904271Y-94012740D01*
X71864215Y-93921622D01*
X71816676Y-93811602D01*
X71765485Y-93691710D01*
X71714474Y-93570972D01*
X71667474Y-93458416D01*
X71628316Y-93363071D01*
X71600831Y-93293962D01*
X71588851Y-93260119D01*
X71588628Y-93258640D01*
X71602209Y-93231942D01*
X71640285Y-93170505D01*
X71698853Y-93080434D01*
X71773912Y-92967835D01*
X71861460Y-92838815D01*
X71912353Y-92764706D01*
X72005091Y-92628822D01*
X72087459Y-92505454D01*
X72155439Y-92400842D01*
X72205012Y-92321228D01*
X72232158Y-92272852D01*
X72236079Y-92262007D01*
X72219225Y-92236765D01*
X72172632Y-92182869D01*
X72102251Y-92106358D01*
X72014035Y-92013268D01*
X71913935Y-91909640D01*
X71807902Y-91801509D01*
X71701889Y-91694915D01*
X71601848Y-91595895D01*
X71513730Y-91510487D01*
X71443487Y-91444730D01*
X71397072Y-91404661D01*
X71381544Y-91395098D01*
X71356261Y-91408545D01*
X71295789Y-91446320D01*
X71206008Y-91504580D01*
X71092797Y-91579479D01*
X70962036Y-91667170D01*
X70863400Y-91733978D01*
X70365043Y-92072857D01*
X69949629Y-91901610D01*
X69534216Y-91730363D01*
X69421634Y-91133172D01*
X69309051Y-90535980D01*
X68066048Y-90535980D01*
X67953465Y-91133172D01*
G36*
X65136363Y-99387472D02*
G01*
X65050710Y-99413641D01*
X64995563Y-99446707D01*
X64977599Y-99472855D01*
X64982543Y-99503852D01*
X65014628Y-99552547D01*
X65041757Y-99587035D01*
X65097683Y-99649383D01*
X65139701Y-99675615D01*
X65175520Y-99673903D01*
X65281776Y-99646863D01*
X65359811Y-99648091D01*
X65423180Y-99678735D01*
X65444454Y-99696670D01*
X65512549Y-99759779D01*
X65512549Y-100583922D01*
X65786471Y-100583922D01*
X65786471Y-99388628D01*
X65649510Y-99388628D01*
X65567281Y-99391879D01*
X65524856Y-99403426D01*
X65512555Y-99425952D01*
X65512549Y-99426620D01*
X65506740Y-99450215D01*
X65480469Y-99447138D01*
X65444069Y-99430115D01*
X65368889Y-99398439D01*
X65307842Y-99379381D01*
X65229292Y-99374496D01*
X65136363Y-99387472D01*
G37*
X65136363Y-99387472D02*
X65050710Y-99413641D01*
X64995563Y-99446707D01*
X64977599Y-99472855D01*
X64982543Y-99503852D01*
X65014628Y-99552547D01*
X65041757Y-99587035D01*
X65097683Y-99649383D01*
X65139701Y-99675615D01*
X65175520Y-99673903D01*
X65281776Y-99646863D01*
X65359811Y-99648091D01*
X65423180Y-99678735D01*
X65444454Y-99696670D01*
X65512549Y-99759779D01*
X65512549Y-100583922D01*
X65786471Y-100583922D01*
X65786471Y-99388628D01*
X65649510Y-99388628D01*
X65567281Y-99391879D01*
X65524856Y-99403426D01*
X65512555Y-99425952D01*
X65512549Y-99426620D01*
X65506740Y-99450215D01*
X65480469Y-99447138D01*
X65444069Y-99430115D01*
X65368889Y-99398439D01*
X65307842Y-99379381D01*
X65229292Y-99374496D01*
X65136363Y-99387472D01*
G36*
X70193240Y-99409199D02*
G01*
X70131264Y-99438802D01*
X70071241Y-99481561D01*
X70025514Y-99530775D01*
X69992207Y-99593544D01*
X69969445Y-99676971D01*
X69955353Y-99788159D01*
X69948058Y-99934209D01*
X69945682Y-100122223D01*
X69945645Y-100141912D01*
X69945098Y-100583922D01*
X70219020Y-100583922D01*
X70219020Y-100176435D01*
X70219215Y-100025471D01*
X70220564Y-99916056D01*
X70224212Y-99839933D01*
X70231304Y-99788848D01*
X70242987Y-99754545D01*
X70260406Y-99728768D01*
X70284671Y-99703298D01*
X70369565Y-99648571D01*
X70462239Y-99638416D01*
X70550527Y-99673017D01*
X70581230Y-99698770D01*
X70603771Y-99722982D01*
X70619954Y-99748912D01*
X70630832Y-99784708D01*
X70637458Y-99838519D01*
X70640885Y-99918493D01*
X70642166Y-100032779D01*
X70642353Y-100171907D01*
X70642353Y-100583922D01*
X70916275Y-100583922D01*
X70916275Y-99388628D01*
X70779314Y-99388628D01*
X70697084Y-99391879D01*
X70654660Y-99403426D01*
X70642359Y-99425952D01*
X70642353Y-99426620D01*
X70636646Y-99448681D01*
X70611473Y-99446177D01*
X70561422Y-99421937D01*
X70447906Y-99386271D01*
X70318055Y-99382305D01*
X70193240Y-99409199D01*
G37*
X70193240Y-99409199D02*
X70131264Y-99438802D01*
X70071241Y-99481561D01*
X70025514Y-99530775D01*
X69992207Y-99593544D01*
X69969445Y-99676971D01*
X69955353Y-99788159D01*
X69948058Y-99934209D01*
X69945682Y-100122223D01*
X69945645Y-100141912D01*
X69945098Y-100583922D01*
X70219020Y-100583922D01*
X70219020Y-100176435D01*
X70219215Y-100025471D01*
X70220564Y-99916056D01*
X70224212Y-99839933D01*
X70231304Y-99788848D01*
X70242987Y-99754545D01*
X70260406Y-99728768D01*
X70284671Y-99703298D01*
X70369565Y-99648571D01*
X70462239Y-99638416D01*
X70550527Y-99673017D01*
X70581230Y-99698770D01*
X70603771Y-99722982D01*
X70619954Y-99748912D01*
X70630832Y-99784708D01*
X70637458Y-99838519D01*
X70640885Y-99918493D01*
X70642166Y-100032779D01*
X70642353Y-100171907D01*
X70642353Y-100583922D01*
X70916275Y-100583922D01*
X70916275Y-99388628D01*
X70779314Y-99388628D01*
X70697084Y-99391879D01*
X70654660Y-99403426D01*
X70642359Y-99425952D01*
X70642353Y-99426620D01*
X70636646Y-99448681D01*
X70611473Y-99446177D01*
X70561422Y-99421937D01*
X70447906Y-99386271D01*
X70318055Y-99382305D01*
X70193240Y-99409199D01*
G36*
X63396713Y-99384355D02*
G01*
X63332949Y-99399845D01*
X63210700Y-99456569D01*
X63106166Y-99543202D01*
X63033820Y-99647074D01*
X63023881Y-99670396D01*
X63010246Y-99731484D01*
X63000702Y-99821853D01*
X62997451Y-99913190D01*
X62997451Y-100085882D01*
X63358530Y-100085882D01*
X63507454Y-100086445D01*
X63612368Y-100089864D01*
X63679063Y-100098731D01*
X63713334Y-100115641D01*
X63720972Y-100143189D01*
X63707771Y-100183968D01*
X63684123Y-100231683D01*
X63618157Y-100311314D01*
X63526488Y-100350987D01*
X63414445Y-100349695D01*
X63287528Y-100306514D01*
X63177842Y-100253224D01*
X63086827Y-100325191D01*
X62995812Y-100397157D01*
X63081437Y-100476269D01*
X63195750Y-100551017D01*
X63336334Y-100596084D01*
X63487551Y-100608696D01*
X63633764Y-100586079D01*
X63657353Y-100578405D01*
X63785859Y-100511296D01*
X63881449Y-100411247D01*
X63946139Y-100275271D01*
X63981943Y-100100380D01*
X63982360Y-100096632D01*
X63985566Y-99906032D01*
X63972607Y-99838035D01*
X63719608Y-99838035D01*
X63696373Y-99848491D01*
X63633290Y-99856500D01*
X63540294Y-99861073D01*
X63481362Y-99861765D01*
X63371463Y-99861332D01*
X63302748Y-99858578D01*
X63266595Y-99851321D01*
X63254385Y-99837376D01*
X63257496Y-99814562D01*
X63260106Y-99805735D01*
X63304656Y-99722800D01*
X63374721Y-99655960D01*
X63436554Y-99626589D01*
X63518699Y-99628362D01*
X63601938Y-99664990D01*
X63671762Y-99725634D01*
X63713663Y-99799456D01*
X63719608Y-99838035D01*
X63972607Y-99838035D01*
X63953615Y-99738395D01*
X63890227Y-99597711D01*
X63799122Y-99487974D01*
X63684022Y-99413174D01*
X63548645Y-99377304D01*
X63396713Y-99384355D01*
G37*
X63396713Y-99384355D02*
X63332949Y-99399845D01*
X63210700Y-99456569D01*
X63106166Y-99543202D01*
X63033820Y-99647074D01*
X63023881Y-99670396D01*
X63010246Y-99731484D01*
X63000702Y-99821853D01*
X62997451Y-99913190D01*
X62997451Y-100085882D01*
X63358530Y-100085882D01*
X63507454Y-100086445D01*
X63612368Y-100089864D01*
X63679063Y-100098731D01*
X63713334Y-100115641D01*
X63720972Y-100143189D01*
X63707771Y-100183968D01*
X63684123Y-100231683D01*
X63618157Y-100311314D01*
X63526488Y-100350987D01*
X63414445Y-100349695D01*
X63287528Y-100306514D01*
X63177842Y-100253224D01*
X63086827Y-100325191D01*
X62995812Y-100397157D01*
X63081437Y-100476269D01*
X63195750Y-100551017D01*
X63336334Y-100596084D01*
X63487551Y-100608696D01*
X63633764Y-100586079D01*
X63657353Y-100578405D01*
X63785859Y-100511296D01*
X63881449Y-100411247D01*
X63946139Y-100275271D01*
X63981943Y-100100380D01*
X63982360Y-100096632D01*
X63985566Y-99906032D01*
X63972607Y-99838035D01*
X63719608Y-99838035D01*
X63696373Y-99848491D01*
X63633290Y-99856500D01*
X63540294Y-99861073D01*
X63481362Y-99861765D01*
X63371463Y-99861332D01*
X63302748Y-99858578D01*
X63266595Y-99851321D01*
X63254385Y-99837376D01*
X63257496Y-99814562D01*
X63260106Y-99805735D01*
X63304656Y-99722800D01*
X63374721Y-99655960D01*
X63436554Y-99626589D01*
X63518699Y-99628362D01*
X63601938Y-99664990D01*
X63671762Y-99725634D01*
X63713663Y-99799456D01*
X63719608Y-99838035D01*
X63972607Y-99838035D01*
X63953615Y-99738395D01*
X63890227Y-99597711D01*
X63799122Y-99487974D01*
X63684022Y-99413174D01*
X63548645Y-99377304D01*
X63396713Y-99384355D01*
G36*
X64309024Y-99399056D02*
G01*
X64164744Y-99460348D01*
X64119301Y-99490185D01*
X64061221Y-99536036D01*
X64024762Y-99572089D01*
X64018432Y-99583832D01*
X64036307Y-99609889D01*
X64082050Y-99654105D01*
X64118672Y-99684965D01*
X64218912Y-99765520D01*
X64298065Y-99698918D01*
X64359231Y-99655921D01*
X64418871Y-99641079D01*
X64487128Y-99644704D01*
X64595518Y-99671652D01*
X64670128Y-99727587D01*
X64715470Y-99818014D01*
X64736053Y-99948435D01*
X64736058Y-99948517D01*
X64734278Y-100094290D01*
X64706613Y-100201245D01*
X64651429Y-100274064D01*
X64613808Y-100298723D01*
X64513895Y-100329431D01*
X64407178Y-100329449D01*
X64314331Y-100299655D01*
X64292353Y-100285098D01*
X64237235Y-100247914D01*
X64194141Y-100241820D01*
X64147665Y-100269496D01*
X64096284Y-100319205D01*
X64014954Y-100403116D01*
X64105251Y-100477546D01*
X64244764Y-100561549D01*
X64402088Y-100602947D01*
X64566497Y-100599950D01*
X64674469Y-100572500D01*
X64800669Y-100504620D01*
X64901599Y-100397831D01*
X64947452Y-100322451D01*
X64984590Y-100214297D01*
X65003173Y-100077318D01*
X65003316Y-99928864D01*
X64985135Y-99786281D01*
X64948745Y-99666918D01*
X64943013Y-99654680D01*
X64858135Y-99534655D01*
X64743218Y-99447267D01*
X64607341Y-99394329D01*
X64459583Y-99377654D01*
X64309024Y-99399056D01*
G37*
X64309024Y-99399056D02*
X64164744Y-99460348D01*
X64119301Y-99490185D01*
X64061221Y-99536036D01*
X64024762Y-99572089D01*
X64018432Y-99583832D01*
X64036307Y-99609889D01*
X64082050Y-99654105D01*
X64118672Y-99684965D01*
X64218912Y-99765520D01*
X64298065Y-99698918D01*
X64359231Y-99655921D01*
X64418871Y-99641079D01*
X64487128Y-99644704D01*
X64595518Y-99671652D01*
X64670128Y-99727587D01*
X64715470Y-99818014D01*
X64736053Y-99948435D01*
X64736058Y-99948517D01*
X64734278Y-100094290D01*
X64706613Y-100201245D01*
X64651429Y-100274064D01*
X64613808Y-100298723D01*
X64513895Y-100329431D01*
X64407178Y-100329449D01*
X64314331Y-100299655D01*
X64292353Y-100285098D01*
X64237235Y-100247914D01*
X64194141Y-100241820D01*
X64147665Y-100269496D01*
X64096284Y-100319205D01*
X64014954Y-100403116D01*
X64105251Y-100477546D01*
X64244764Y-100561549D01*
X64402088Y-100602947D01*
X64566497Y-100599950D01*
X64674469Y-100572500D01*
X64800669Y-100504620D01*
X64901599Y-100397831D01*
X64947452Y-100322451D01*
X64984590Y-100214297D01*
X65003173Y-100077318D01*
X65003316Y-99928864D01*
X64985135Y-99786281D01*
X64948745Y-99666918D01*
X64943013Y-99654680D01*
X64858135Y-99534655D01*
X64743218Y-99447267D01*
X64607341Y-99394329D01*
X64459583Y-99377654D01*
X64309024Y-99399056D01*
G36*
X66732746Y-99776245D02*
G01*
X66730392Y-99958879D01*
X66721793Y-100097600D01*
X66704640Y-100198147D01*
X66676626Y-100266254D01*
X66635443Y-100307659D01*
X66578783Y-100328097D01*
X66508628Y-100333318D01*
X66435152Y-100327468D01*
X66379343Y-100306093D01*
X66338891Y-100263458D01*
X66311491Y-100193825D01*
X66294833Y-100091460D01*
X66286611Y-99950624D01*
X66284510Y-99776245D01*
X66284510Y-99388628D01*
X66010589Y-99388628D01*
X66010589Y-100583922D01*
X66147549Y-100583922D01*
X66230116Y-100580576D01*
X66272632Y-100568826D01*
X66284510Y-100546520D01*
X66291664Y-100526654D01*
X66320135Y-100530857D01*
X66377524Y-100558971D01*
X66509055Y-100602342D01*
X66648562Y-100599270D01*
X66782235Y-100552174D01*
X66845892Y-100514971D01*
X66894447Y-100474691D01*
X66929919Y-100424291D01*
X66954326Y-100356729D01*
X66969687Y-100264965D01*
X66978018Y-100141955D01*
X66981338Y-99980659D01*
X66981765Y-99855928D01*
X66981765Y-99388628D01*
X66732746Y-99388628D01*
X66732746Y-99776245D01*
G37*
X66732746Y-99776245D02*
X66730392Y-99958879D01*
X66721793Y-100097600D01*
X66704640Y-100198147D01*
X66676626Y-100266254D01*
X66635443Y-100307659D01*
X66578783Y-100328097D01*
X66508628Y-100333318D01*
X66435152Y-100327468D01*
X66379343Y-100306093D01*
X66338891Y-100263458D01*
X66311491Y-100193825D01*
X66294833Y-100091460D01*
X66286611Y-99950624D01*
X66284510Y-99776245D01*
X66284510Y-99388628D01*
X66010589Y-99388628D01*
X66010589Y-100583922D01*
X66147549Y-100583922D01*
X66230116Y-100580576D01*
X66272632Y-100568826D01*
X66284510Y-100546520D01*
X66291664Y-100526654D01*
X66320135Y-100530857D01*
X66377524Y-100558971D01*
X66509055Y-100602342D01*
X66648562Y-100599270D01*
X66782235Y-100552174D01*
X66845892Y-100514971D01*
X66894447Y-100474691D01*
X66929919Y-100424291D01*
X66954326Y-100356729D01*
X66969687Y-100264965D01*
X66978018Y-100141955D01*
X66981338Y-99980659D01*
X66981765Y-99855928D01*
X66981765Y-99388628D01*
X66732746Y-99388628D01*
X66732746Y-99776245D01*
G36*
X67490453Y-99403364D02*
G01*
X67364498Y-99471959D01*
X67265953Y-99580245D01*
X67219522Y-99668315D01*
X67199588Y-99746101D01*
X67186672Y-99856993D01*
X67181137Y-99984738D01*
X67183346Y-100113084D01*
X67193663Y-100225779D01*
X67205714Y-100285969D01*
X67246366Y-100368311D01*
X67316770Y-100455770D01*
X67401618Y-100532251D01*
X67485603Y-100581655D01*
X67487651Y-100582439D01*
X67591866Y-100604027D01*
X67715373Y-100604562D01*
X67832739Y-100584908D01*
X67878058Y-100569155D01*
X67994780Y-100502966D01*
X68078376Y-100416246D01*
X68133299Y-100301438D01*
X68164005Y-100150982D01*
X68170953Y-100072173D01*
X68170067Y-99973145D01*
X67903138Y-99973145D01*
X67894146Y-100117645D01*
X67868264Y-100227760D01*
X67827132Y-100298116D01*
X67797828Y-100318235D01*
X67722749Y-100332265D01*
X67633506Y-100328111D01*
X67556350Y-100307922D01*
X67536117Y-100296815D01*
X67482735Y-100232123D01*
X67447500Y-100133119D01*
X67432502Y-100012632D01*
X67439828Y-99883494D01*
X67456201Y-99805775D01*
X67503210Y-99715771D01*
X67577418Y-99659509D01*
X67666791Y-99640057D01*
X67759293Y-99660481D01*
X67830347Y-99710437D01*
X67867688Y-99751655D01*
X67889482Y-99792281D01*
X67899870Y-99847264D01*
X67902994Y-99931549D01*
X67903138Y-99973145D01*
X68170067Y-99973145D01*
X68169070Y-99861874D01*
X68134820Y-99689423D01*
X68068198Y-99554814D01*
X67969201Y-99458040D01*
X67837825Y-99399094D01*
X67809615Y-99392259D01*
X67640074Y-99376213D01*
X67490453Y-99403364D01*
G37*
X67490453Y-99403364D02*
X67364498Y-99471959D01*
X67265953Y-99580245D01*
X67219522Y-99668315D01*
X67199588Y-99746101D01*
X67186672Y-99856993D01*
X67181137Y-99984738D01*
X67183346Y-100113084D01*
X67193663Y-100225779D01*
X67205714Y-100285969D01*
X67246366Y-100368311D01*
X67316770Y-100455770D01*
X67401618Y-100532251D01*
X67485603Y-100581655D01*
X67487651Y-100582439D01*
X67591866Y-100604027D01*
X67715373Y-100604562D01*
X67832739Y-100584908D01*
X67878058Y-100569155D01*
X67994780Y-100502966D01*
X68078376Y-100416246D01*
X68133299Y-100301438D01*
X68164005Y-100150982D01*
X68170953Y-100072173D01*
X68170067Y-99973145D01*
X67903138Y-99973145D01*
X67894146Y-100117645D01*
X67868264Y-100227760D01*
X67827132Y-100298116D01*
X67797828Y-100318235D01*
X67722749Y-100332265D01*
X67633506Y-100328111D01*
X67556350Y-100307922D01*
X67536117Y-100296815D01*
X67482735Y-100232123D01*
X67447500Y-100133119D01*
X67432502Y-100012632D01*
X67439828Y-99883494D01*
X67456201Y-99805775D01*
X67503210Y-99715771D01*
X67577418Y-99659509D01*
X67666791Y-99640057D01*
X67759293Y-99660481D01*
X67830347Y-99710437D01*
X67867688Y-99751655D01*
X67889482Y-99792281D01*
X67899870Y-99847264D01*
X67902994Y-99931549D01*
X67903138Y-99973145D01*
X68170067Y-99973145D01*
X68169070Y-99861874D01*
X68134820Y-99689423D01*
X68068198Y-99554814D01*
X67969201Y-99458040D01*
X67837825Y-99399094D01*
X67809615Y-99392259D01*
X67640074Y-99376213D01*
X67490453Y-99403364D01*
G36*
X68672241Y-99384345D02*
G01*
X68577941Y-99402229D01*
X68480110Y-99439633D01*
X68469657Y-99444402D01*
X68395469Y-99483412D01*
X68344090Y-99519664D01*
X68327483Y-99542887D01*
X68343298Y-99580761D01*
X68381712Y-99636644D01*
X68398763Y-99657505D01*
X68469031Y-99739618D01*
X68559621Y-99686168D01*
X68645836Y-99650561D01*
X68745451Y-99631529D01*
X68840981Y-99630326D01*
X68914939Y-99648210D01*
X68932688Y-99659373D01*
X68966488Y-99710553D01*
X68970596Y-99769509D01*
X68945304Y-99815567D01*
X68930344Y-99824499D01*
X68885514Y-99835592D01*
X68806714Y-99848630D01*
X68709574Y-99861088D01*
X68691654Y-99863042D01*
X68535635Y-99890030D01*
X68422477Y-99935873D01*
X68347431Y-100004803D01*
X68305747Y-100101054D01*
X68292762Y-100218617D01*
X68310701Y-100352254D01*
X68368950Y-100457195D01*
X68467745Y-100533630D01*
X68607318Y-100581748D01*
X68762255Y-100600732D01*
X68888602Y-100600504D01*
X68991087Y-100583262D01*
X69061079Y-100559457D01*
X69149517Y-100517978D01*
X69231246Y-100469842D01*
X69260295Y-100448655D01*
X69335000Y-100387676D01*
X69244902Y-100296508D01*
X69154804Y-100205339D01*
X69052368Y-100273128D01*
X68949626Y-100324042D01*
X68839913Y-100350673D01*
X68734449Y-100353483D01*
X68644454Y-100332935D01*
X68581146Y-100289493D01*
X68560704Y-100252838D01*
X68563771Y-100194053D01*
X68614566Y-100149099D01*
X68712952Y-100118057D01*
X68820744Y-100103710D01*
X68986635Y-100076337D01*
X69109876Y-100024693D01*
X69192114Y-99947266D01*
X69234999Y-99842544D01*
X69240940Y-99718387D01*
X69211594Y-99588702D01*
X69144691Y-99490677D01*
X69039629Y-99423866D01*
X68895810Y-99387820D01*
X68789262Y-99380754D01*
X68672241Y-99384345D01*
G37*
X68672241Y-99384345D02*
X68577941Y-99402229D01*
X68480110Y-99439633D01*
X68469657Y-99444402D01*
X68395469Y-99483412D01*
X68344090Y-99519664D01*
X68327483Y-99542887D01*
X68343298Y-99580761D01*
X68381712Y-99636644D01*
X68398763Y-99657505D01*
X68469031Y-99739618D01*
X68559621Y-99686168D01*
X68645836Y-99650561D01*
X68745451Y-99631529D01*
X68840981Y-99630326D01*
X68914939Y-99648210D01*
X68932688Y-99659373D01*
X68966488Y-99710553D01*
X68970596Y-99769509D01*
X68945304Y-99815567D01*
X68930344Y-99824499D01*
X68885514Y-99835592D01*
X68806714Y-99848630D01*
X68709574Y-99861088D01*
X68691654Y-99863042D01*
X68535635Y-99890030D01*
X68422477Y-99935873D01*
X68347431Y-100004803D01*
X68305747Y-100101054D01*
X68292762Y-100218617D01*
X68310701Y-100352254D01*
X68368950Y-100457195D01*
X68467745Y-100533630D01*
X68607318Y-100581748D01*
X68762255Y-100600732D01*
X68888602Y-100600504D01*
X68991087Y-100583262D01*
X69061079Y-100559457D01*
X69149517Y-100517978D01*
X69231246Y-100469842D01*
X69260295Y-100448655D01*
X69335000Y-100387676D01*
X69244902Y-100296508D01*
X69154804Y-100205339D01*
X69052368Y-100273128D01*
X68949626Y-100324042D01*
X68839913Y-100350673D01*
X68734449Y-100353483D01*
X68644454Y-100332935D01*
X68581146Y-100289493D01*
X68560704Y-100252838D01*
X68563771Y-100194053D01*
X68614566Y-100149099D01*
X68712952Y-100118057D01*
X68820744Y-100103710D01*
X68986635Y-100076337D01*
X69109876Y-100024693D01*
X69192114Y-99947266D01*
X69234999Y-99842544D01*
X69240940Y-99718387D01*
X69211594Y-99588702D01*
X69144691Y-99490677D01*
X69039629Y-99423866D01*
X68895810Y-99387820D01*
X68789262Y-99380754D01*
X68672241Y-99384345D01*
G36*
X71386796Y-99416354D02*
G01*
X71361981Y-99428037D01*
X71276094Y-99490951D01*
X71194879Y-99582769D01*
X71134236Y-99683868D01*
X71116988Y-99730349D01*
X71101251Y-99813376D01*
X71091867Y-99913713D01*
X71090728Y-99955147D01*
X71090589Y-100085882D01*
X71843047Y-100085882D01*
X71827007Y-100154363D01*
X71787637Y-100235355D01*
X71718806Y-100305351D01*
X71636919Y-100350441D01*
X71584737Y-100359804D01*
X71513971Y-100348441D01*
X71429540Y-100319943D01*
X71400858Y-100306831D01*
X71294791Y-100253858D01*
X71204272Y-100322901D01*
X71152039Y-100369597D01*
X71124247Y-100408140D01*
X71122840Y-100419452D01*
X71147668Y-100446868D01*
X71202083Y-100488532D01*
X71251472Y-100521037D01*
X71384748Y-100579468D01*
X71534161Y-100605915D01*
X71682249Y-100599039D01*
X71800295Y-100563096D01*
X71921982Y-100486101D01*
X72008460Y-100384728D01*
X72062559Y-100253570D01*
X72087109Y-100087224D01*
X72089286Y-100011108D01*
X72080573Y-99836685D01*
X72079503Y-99831611D01*
X71830173Y-99831611D01*
X71823306Y-99847968D01*
X71795083Y-99856988D01*
X71736873Y-99860854D01*
X71640042Y-99861749D01*
X71602757Y-99861765D01*
X71489317Y-99860413D01*
X71417378Y-99855505D01*
X71378687Y-99845760D01*
X71364995Y-99829899D01*
X71364510Y-99824805D01*
X71380137Y-99784326D01*
X71419247Y-99727621D01*
X71436061Y-99707766D01*
X71498481Y-99651611D01*
X71563547Y-99629532D01*
X71598603Y-99627686D01*
X71693442Y-99650766D01*
X71772973Y-99712759D01*
X71823423Y-99802802D01*
X71824317Y-99805735D01*
X71830173Y-99831611D01*
X72079503Y-99831611D01*
X72051601Y-99699343D01*
X71999410Y-99589461D01*
X71935579Y-99511461D01*
X71817567Y-99426882D01*
X71678842Y-99381686D01*
X71531290Y-99377600D01*
X71386796Y-99416354D01*
G37*
X71386796Y-99416354D02*
X71361981Y-99428037D01*
X71276094Y-99490951D01*
X71194879Y-99582769D01*
X71134236Y-99683868D01*
X71116988Y-99730349D01*
X71101251Y-99813376D01*
X71091867Y-99913713D01*
X71090728Y-99955147D01*
X71090589Y-100085882D01*
X71843047Y-100085882D01*
X71827007Y-100154363D01*
X71787637Y-100235355D01*
X71718806Y-100305351D01*
X71636919Y-100350441D01*
X71584737Y-100359804D01*
X71513971Y-100348441D01*
X71429540Y-100319943D01*
X71400858Y-100306831D01*
X71294791Y-100253858D01*
X71204272Y-100322901D01*
X71152039Y-100369597D01*
X71124247Y-100408140D01*
X71122840Y-100419452D01*
X71147668Y-100446868D01*
X71202083Y-100488532D01*
X71251472Y-100521037D01*
X71384748Y-100579468D01*
X71534161Y-100605915D01*
X71682249Y-100599039D01*
X71800295Y-100563096D01*
X71921982Y-100486101D01*
X72008460Y-100384728D01*
X72062559Y-100253570D01*
X72087109Y-100087224D01*
X72089286Y-100011108D01*
X72080573Y-99836685D01*
X72079503Y-99831611D01*
X71830173Y-99831611D01*
X71823306Y-99847968D01*
X71795083Y-99856988D01*
X71736873Y-99860854D01*
X71640042Y-99861749D01*
X71602757Y-99861765D01*
X71489317Y-99860413D01*
X71417378Y-99855505D01*
X71378687Y-99845760D01*
X71364995Y-99829899D01*
X71364510Y-99824805D01*
X71380137Y-99784326D01*
X71419247Y-99727621D01*
X71436061Y-99707766D01*
X71498481Y-99651611D01*
X71563547Y-99629532D01*
X71598603Y-99627686D01*
X71693442Y-99650766D01*
X71772973Y-99712759D01*
X71823423Y-99802802D01*
X71824317Y-99805735D01*
X71830173Y-99831611D01*
X72079503Y-99831611D01*
X72051601Y-99699343D01*
X71999410Y-99589461D01*
X71935579Y-99511461D01*
X71817567Y-99426882D01*
X71678842Y-99381686D01*
X71531290Y-99377600D01*
X71386796Y-99416354D01*
G36*
X73726753Y-99401568D02*
G01*
X73596478Y-99459163D01*
X73497581Y-99555334D01*
X73429918Y-99690229D01*
X73393345Y-99863996D01*
X73390724Y-99891126D01*
X73388670Y-100082408D01*
X73415301Y-100250073D01*
X73468999Y-100385967D01*
X73497753Y-100429681D01*
X73597909Y-100522198D01*
X73725463Y-100582119D01*
X73868163Y-100606985D01*
X74013760Y-100594339D01*
X74124438Y-100555391D01*
X74219616Y-100489755D01*
X74297406Y-100403699D01*
X74298751Y-100401685D01*
X74330343Y-100348570D01*
X74350873Y-100295160D01*
X74363305Y-100227754D01*
X74370603Y-100132653D01*
X74373818Y-100054666D01*
X74375156Y-99983944D01*
X74126186Y-99983944D01*
X74123753Y-100054348D01*
X74114920Y-100148068D01*
X74099336Y-100208214D01*
X74071234Y-100251006D01*
X74044914Y-100276002D01*
X73951608Y-100328338D01*
X73853980Y-100335333D01*
X73763058Y-100297676D01*
X73717598Y-100255479D01*
X73684838Y-100212956D01*
X73665677Y-100172267D01*
X73657267Y-100119314D01*
X73656763Y-100039997D01*
X73659355Y-99966950D01*
X73664929Y-99862601D01*
X73673766Y-99794920D01*
X73689693Y-99750774D01*
X73716538Y-99717031D01*
X73737811Y-99697746D01*
X73826794Y-99647086D01*
X73922789Y-99644560D01*
X74003281Y-99674567D01*
X74071947Y-99737231D01*
X74112856Y-99840168D01*
X74126186Y-99983944D01*
X74375156Y-99983944D01*
X74376754Y-99899582D01*
X74371740Y-99783600D01*
X74356717Y-99696367D01*
X74329624Y-99627530D01*
X74288400Y-99566737D01*
X74273115Y-99548686D01*
X74177546Y-99458746D01*
X74075039Y-99406211D01*
X73949679Y-99384201D01*
X73888550Y-99382402D01*
X73726753Y-99401568D01*
G37*
X73726753Y-99401568D02*
X73596478Y-99459163D01*
X73497581Y-99555334D01*
X73429918Y-99690229D01*
X73393345Y-99863996D01*
X73390724Y-99891126D01*
X73388670Y-100082408D01*
X73415301Y-100250073D01*
X73468999Y-100385967D01*
X73497753Y-100429681D01*
X73597909Y-100522198D01*
X73725463Y-100582119D01*
X73868163Y-100606985D01*
X74013760Y-100594339D01*
X74124438Y-100555391D01*
X74219616Y-100489755D01*
X74297406Y-100403699D01*
X74298751Y-100401685D01*
X74330343Y-100348570D01*
X74350873Y-100295160D01*
X74363305Y-100227754D01*
X74370603Y-100132653D01*
X74373818Y-100054666D01*
X74375156Y-99983944D01*
X74126186Y-99983944D01*
X74123753Y-100054348D01*
X74114920Y-100148068D01*
X74099336Y-100208214D01*
X74071234Y-100251006D01*
X74044914Y-100276002D01*
X73951608Y-100328338D01*
X73853980Y-100335333D01*
X73763058Y-100297676D01*
X73717598Y-100255479D01*
X73684838Y-100212956D01*
X73665677Y-100172267D01*
X73657267Y-100119314D01*
X73656763Y-100039997D01*
X73659355Y-99966950D01*
X73664929Y-99862601D01*
X73673766Y-99794920D01*
X73689693Y-99750774D01*
X73716538Y-99717031D01*
X73737811Y-99697746D01*
X73826794Y-99647086D01*
X73922789Y-99644560D01*
X74003281Y-99674567D01*
X74071947Y-99737231D01*
X74112856Y-99840168D01*
X74126186Y-99983944D01*
X74375156Y-99983944D01*
X74376754Y-99899582D01*
X74371740Y-99783600D01*
X74356717Y-99696367D01*
X74329624Y-99627530D01*
X74288400Y-99566737D01*
X74273115Y-99548686D01*
X74177546Y-99458746D01*
X74075039Y-99406211D01*
X73949679Y-99384201D01*
X73888550Y-99382402D01*
X73726753Y-99401568D01*
G36*
X64674693Y-101262784D02*
G01*
X64555663Y-101293731D01*
X64455979Y-101357600D01*
X64407712Y-101405313D01*
X64328592Y-101518106D01*
X64283248Y-101648950D01*
X64267670Y-101809792D01*
X64267590Y-101822794D01*
X64267451Y-101953530D01*
X65019909Y-101953530D01*
X65003870Y-102022010D01*
X64974909Y-102084031D01*
X64924222Y-102148654D01*
X64913621Y-102158971D01*
X64822506Y-102214805D01*
X64718600Y-102224275D01*
X64599000Y-102187540D01*
X64578726Y-102177647D01*
X64516544Y-102147574D01*
X64474894Y-102130440D01*
X64467627Y-102128855D01*
X64442260Y-102144242D01*
X64393880Y-102181887D01*
X64369321Y-102202459D01*
X64318430Y-102249714D01*
X64301719Y-102280917D01*
X64313317Y-102309620D01*
X64319517Y-102317468D01*
X64361507Y-102351819D01*
X64430794Y-102393565D01*
X64479118Y-102417935D01*
X64616289Y-102460873D01*
X64768153Y-102474786D01*
X64911976Y-102458300D01*
X64952255Y-102446496D01*
X65076922Y-102379689D01*
X65169329Y-102276892D01*
X65230010Y-102137105D01*
X65259502Y-101959330D01*
X65262740Y-101866373D01*
X65253286Y-101731033D01*
X65014510Y-101731033D01*
X64991416Y-101741038D01*
X64929338Y-101748888D01*
X64839086Y-101753521D01*
X64777942Y-101754314D01*
X64667960Y-101753549D01*
X64598543Y-101749970D01*
X64560462Y-101741649D01*
X64544485Y-101726657D01*
X64541373Y-101704903D01*
X64562722Y-101637892D01*
X64616471Y-101571664D01*
X64687178Y-101520832D01*
X64757911Y-101500038D01*
X64853984Y-101518484D01*
X64937151Y-101571811D01*
X64994814Y-101648677D01*
X65014510Y-101731033D01*
X65253286Y-101731033D01*
X65248972Y-101669291D01*
X65206480Y-101512271D01*
X65134365Y-101394069D01*
X65031727Y-101313440D01*
X64897668Y-101269139D01*
X64825043Y-101260607D01*
X64674693Y-101262784D01*
G37*
X64674693Y-101262784D02*
X64555663Y-101293731D01*
X64455979Y-101357600D01*
X64407712Y-101405313D01*
X64328592Y-101518106D01*
X64283248Y-101648950D01*
X64267670Y-101809792D01*
X64267590Y-101822794D01*
X64267451Y-101953530D01*
X65019909Y-101953530D01*
X65003870Y-102022010D01*
X64974909Y-102084031D01*
X64924222Y-102148654D01*
X64913621Y-102158971D01*
X64822506Y-102214805D01*
X64718600Y-102224275D01*
X64599000Y-102187540D01*
X64578726Y-102177647D01*
X64516544Y-102147574D01*
X64474894Y-102130440D01*
X64467627Y-102128855D01*
X64442260Y-102144242D01*
X64393880Y-102181887D01*
X64369321Y-102202459D01*
X64318430Y-102249714D01*
X64301719Y-102280917D01*
X64313317Y-102309620D01*
X64319517Y-102317468D01*
X64361507Y-102351819D01*
X64430794Y-102393565D01*
X64479118Y-102417935D01*
X64616289Y-102460873D01*
X64768153Y-102474786D01*
X64911976Y-102458300D01*
X64952255Y-102446496D01*
X65076922Y-102379689D01*
X65169329Y-102276892D01*
X65230010Y-102137105D01*
X65259502Y-101959330D01*
X65262740Y-101866373D01*
X65253286Y-101731033D01*
X65014510Y-101731033D01*
X64991416Y-101741038D01*
X64929338Y-101748888D01*
X64839086Y-101753521D01*
X64777942Y-101754314D01*
X64667960Y-101753549D01*
X64598543Y-101749970D01*
X64560462Y-101741649D01*
X64544485Y-101726657D01*
X64541373Y-101704903D01*
X64562722Y-101637892D01*
X64616471Y-101571664D01*
X64687178Y-101520832D01*
X64757911Y-101500038D01*
X64853984Y-101518484D01*
X64937151Y-101571811D01*
X64994814Y-101648677D01*
X65014510Y-101731033D01*
X65253286Y-101731033D01*
X65248972Y-101669291D01*
X65206480Y-101512271D01*
X65134365Y-101394069D01*
X65031727Y-101313440D01*
X64897668Y-101269139D01*
X64825043Y-101260607D01*
X64674693Y-101262784D01*
G36*
X65461554Y-101255883D02*
G01*
X65365823Y-101274755D01*
X65311323Y-101302699D01*
X65253992Y-101349123D01*
X65335559Y-101452111D01*
X65385850Y-101514479D01*
X65419999Y-101544907D01*
X65453937Y-101549555D01*
X65503594Y-101534586D01*
X65526904Y-101526117D01*
X65621937Y-101513622D01*
X65708968Y-101540406D01*
X65772862Y-101600915D01*
X65783241Y-101620208D01*
X65794544Y-101671314D01*
X65803268Y-101765500D01*
X65809003Y-101896089D01*
X65811340Y-102056405D01*
X65811373Y-102079211D01*
X65811373Y-102476471D01*
X66085295Y-102476471D01*
X66085295Y-101256275D01*
X65948334Y-101256275D01*
X65869362Y-101258337D01*
X65828221Y-101267513D01*
X65813008Y-101288290D01*
X65811373Y-101307886D01*
X65811373Y-101359497D01*
X65745760Y-101307886D01*
X65670525Y-101272675D01*
X65569456Y-101255265D01*
X65461554Y-101255883D01*
G37*
X65461554Y-101255883D02*
X65365823Y-101274755D01*
X65311323Y-101302699D01*
X65253992Y-101349123D01*
X65335559Y-101452111D01*
X65385850Y-101514479D01*
X65419999Y-101544907D01*
X65453937Y-101549555D01*
X65503594Y-101534586D01*
X65526904Y-101526117D01*
X65621937Y-101513622D01*
X65708968Y-101540406D01*
X65772862Y-101600915D01*
X65783241Y-101620208D01*
X65794544Y-101671314D01*
X65803268Y-101765500D01*
X65809003Y-101896089D01*
X65811340Y-102056405D01*
X65811373Y-102079211D01*
X65811373Y-102476471D01*
X66085295Y-102476471D01*
X66085295Y-101256275D01*
X65948334Y-101256275D01*
X65869362Y-101258337D01*
X65828221Y-101267513D01*
X65813008Y-101288290D01*
X65811373Y-101307886D01*
X65811373Y-101359497D01*
X65745760Y-101307886D01*
X65670525Y-101272675D01*
X65569456Y-101255265D01*
X65461554Y-101255883D01*
G36*
X66643541Y-101263669D02*
G01*
X66538580Y-101289163D01*
X66508239Y-101302669D01*
X66449427Y-101338046D01*
X66404291Y-101377890D01*
X66370894Y-101429120D01*
X66347299Y-101498654D01*
X66331567Y-101593409D01*
X66321761Y-101720305D01*
X66315943Y-101886258D01*
X66313734Y-101997108D01*
X66305604Y-102476471D01*
X66444469Y-102476471D01*
X66528713Y-102472938D01*
X66572116Y-102460866D01*
X66583334Y-102440594D01*
X66589256Y-102418674D01*
X66615734Y-102422865D01*
X66651814Y-102440441D01*
X66742138Y-102467382D01*
X66858223Y-102474642D01*
X66980320Y-102462767D01*
X67088679Y-102432305D01*
X67098398Y-102428077D01*
X67197432Y-102358505D01*
X67262719Y-102261789D01*
X67292760Y-102148738D01*
X67290465Y-102108122D01*
X67045367Y-102108122D01*
X67023771Y-102162782D01*
X66959741Y-102201952D01*
X66856435Y-102222974D01*
X66801226Y-102225766D01*
X66709218Y-102218620D01*
X66648059Y-102190848D01*
X66633138Y-102177647D01*
X66592713Y-102105829D01*
X66583334Y-102040686D01*
X66583334Y-101953530D01*
X66704731Y-101953530D01*
X66845847Y-101960722D01*
X66944827Y-101983345D01*
X67007367Y-102022964D01*
X67021369Y-102040628D01*
X67045367Y-102108122D01*
X67290465Y-102108122D01*
X67286059Y-102030157D01*
X67241120Y-101916855D01*
X67179804Y-101840285D01*
X67142668Y-101807181D01*
X67106313Y-101785425D01*
X67059010Y-101772161D01*
X66989027Y-101764528D01*
X66884636Y-101759670D01*
X66843230Y-101758273D01*
X66583334Y-101749780D01*
X66583715Y-101671116D01*
X66593781Y-101588428D01*
X66630171Y-101538431D01*
X66703689Y-101506489D01*
X66705661Y-101505920D01*
X66809895Y-101493361D01*
X66911892Y-101509766D01*
X66987695Y-101549657D01*
X67018110Y-101569354D01*
X67050868Y-101566629D01*
X67101279Y-101538091D01*
X67130881Y-101517950D01*
X67188782Y-101474919D01*
X67224648Y-101442662D01*
X67230403Y-101433427D01*
X67206705Y-101385636D01*
X67136687Y-101328562D01*
X67106275Y-101309305D01*
X67018845Y-101276140D01*
X66901017Y-101257350D01*
X66770134Y-101253129D01*
X66643541Y-101263669D01*
G37*
X66643541Y-101263669D02*
X66538580Y-101289163D01*
X66508239Y-101302669D01*
X66449427Y-101338046D01*
X66404291Y-101377890D01*
X66370894Y-101429120D01*
X66347299Y-101498654D01*
X66331567Y-101593409D01*
X66321761Y-101720305D01*
X66315943Y-101886258D01*
X66313734Y-101997108D01*
X66305604Y-102476471D01*
X66444469Y-102476471D01*
X66528713Y-102472938D01*
X66572116Y-102460866D01*
X66583334Y-102440594D01*
X66589256Y-102418674D01*
X66615734Y-102422865D01*
X66651814Y-102440441D01*
X66742138Y-102467382D01*
X66858223Y-102474642D01*
X66980320Y-102462767D01*
X67088679Y-102432305D01*
X67098398Y-102428077D01*
X67197432Y-102358505D01*
X67262719Y-102261789D01*
X67292760Y-102148738D01*
X67290465Y-102108122D01*
X67045367Y-102108122D01*
X67023771Y-102162782D01*
X66959741Y-102201952D01*
X66856435Y-102222974D01*
X66801226Y-102225766D01*
X66709218Y-102218620D01*
X66648059Y-102190848D01*
X66633138Y-102177647D01*
X66592713Y-102105829D01*
X66583334Y-102040686D01*
X66583334Y-101953530D01*
X66704731Y-101953530D01*
X66845847Y-101960722D01*
X66944827Y-101983345D01*
X67007367Y-102022964D01*
X67021369Y-102040628D01*
X67045367Y-102108122D01*
X67290465Y-102108122D01*
X67286059Y-102030157D01*
X67241120Y-101916855D01*
X67179804Y-101840285D01*
X67142668Y-101807181D01*
X67106313Y-101785425D01*
X67059010Y-101772161D01*
X66989027Y-101764528D01*
X66884636Y-101759670D01*
X66843230Y-101758273D01*
X66583334Y-101749780D01*
X66583715Y-101671116D01*
X66593781Y-101588428D01*
X66630171Y-101538431D01*
X66703689Y-101506489D01*
X66705661Y-101505920D01*
X66809895Y-101493361D01*
X66911892Y-101509766D01*
X66987695Y-101549657D01*
X67018110Y-101569354D01*
X67050868Y-101566629D01*
X67101279Y-101538091D01*
X67130881Y-101517950D01*
X67188782Y-101474919D01*
X67224648Y-101442662D01*
X67230403Y-101433427D01*
X67206705Y-101385636D01*
X67136687Y-101328562D01*
X67106275Y-101309305D01*
X67018845Y-101276140D01*
X66901017Y-101257350D01*
X66770134Y-101253129D01*
X66643541Y-101263669D01*
G36*
X68142472Y-101261332D02*
G01*
X68043986Y-101268726D01*
X67915224Y-101654706D01*
X67786463Y-102040686D01*
X67746089Y-101903726D01*
X67721793Y-101819083D01*
X67689833Y-101704697D01*
X67655321Y-101578963D01*
X67637072Y-101511520D01*
X67568429Y-101256275D01*
X67285227Y-101256275D01*
X67369878Y-101523971D01*
X67411565Y-101655638D01*
X67461926Y-101814458D01*
X67514519Y-101980128D01*
X67561470Y-102127843D01*
X67668411Y-102464020D01*
X67899339Y-102479044D01*
X67961950Y-102272316D01*
X68000562Y-102143896D01*
X68042700Y-102002322D01*
X68079528Y-101877285D01*
X68080982Y-101872309D01*
X68108489Y-101787586D01*
X68132758Y-101729778D01*
X68149757Y-101707918D01*
X68153250Y-101710446D01*
X68165510Y-101744336D01*
X68188805Y-101816930D01*
X68220300Y-101919101D01*
X68257158Y-102041720D01*
X68277101Y-102109167D01*
X68385105Y-102476471D01*
X68614321Y-102476471D01*
X68797561Y-101897500D01*
X68849037Y-101735091D01*
X68895930Y-101587602D01*
X68936023Y-101461960D01*
X68967103Y-101365095D01*
X68986955Y-101303934D01*
X68992989Y-101286065D01*
X68988212Y-101267768D01*
X68950703Y-101259755D01*
X68872645Y-101260557D01*
X68860426Y-101261163D01*
X68715674Y-101268726D01*
X68620870Y-101617353D01*
X68586023Y-101744497D01*
X68554883Y-101856265D01*
X68530191Y-101942953D01*
X68514688Y-101994856D01*
X68511824Y-102003318D01*
X68499954Y-101993587D01*
X68476017Y-101943172D01*
X68442761Y-101858935D01*
X68402936Y-101747741D01*
X68369270Y-101647297D01*
X68240959Y-101253939D01*
X68142472Y-101261332D01*
G37*
X68142472Y-101261332D02*
X68043986Y-101268726D01*
X67915224Y-101654706D01*
X67786463Y-102040686D01*
X67746089Y-101903726D01*
X67721793Y-101819083D01*
X67689833Y-101704697D01*
X67655321Y-101578963D01*
X67637072Y-101511520D01*
X67568429Y-101256275D01*
X67285227Y-101256275D01*
X67369878Y-101523971D01*
X67411565Y-101655638D01*
X67461926Y-101814458D01*
X67514519Y-101980128D01*
X67561470Y-102127843D01*
X67668411Y-102464020D01*
X67899339Y-102479044D01*
X67961950Y-102272316D01*
X68000562Y-102143896D01*
X68042700Y-102002322D01*
X68079528Y-101877285D01*
X68080982Y-101872309D01*
X68108489Y-101787586D01*
X68132758Y-101729778D01*
X68149757Y-101707918D01*
X68153250Y-101710446D01*
X68165510Y-101744336D01*
X68188805Y-101816930D01*
X68220300Y-101919101D01*
X68257158Y-102041720D01*
X68277101Y-102109167D01*
X68385105Y-102476471D01*
X68614321Y-102476471D01*
X68797561Y-101897500D01*
X68849037Y-101735091D01*
X68895930Y-101587602D01*
X68936023Y-101461960D01*
X68967103Y-101365095D01*
X68986955Y-101303934D01*
X68992989Y-101286065D01*
X68988212Y-101267768D01*
X68950703Y-101259755D01*
X68872645Y-101260557D01*
X68860426Y-101261163D01*
X68715674Y-101268726D01*
X68620870Y-101617353D01*
X68586023Y-101744497D01*
X68554883Y-101856265D01*
X68530191Y-101942953D01*
X68514688Y-101994856D01*
X68511824Y-102003318D01*
X68499954Y-101993587D01*
X68476017Y-101943172D01*
X68442761Y-101858935D01*
X68402936Y-101747741D01*
X68369270Y-101647297D01*
X68240959Y-101253939D01*
X68142472Y-101261332D01*
G36*
X69098432Y-102476471D02*
G01*
X69235393Y-102476471D01*
X69314889Y-102474140D01*
X69356292Y-102464488D01*
X69371199Y-102443525D01*
X69372353Y-102429351D01*
X69374867Y-102400927D01*
X69390720Y-102395475D01*
X69432379Y-102412998D01*
X69464776Y-102429351D01*
X69589151Y-102468103D01*
X69724354Y-102470346D01*
X69834274Y-102441444D01*
X69936634Y-102371619D01*
X70014660Y-102268555D01*
X70057386Y-102146989D01*
X70058474Y-102140192D01*
X70064822Y-102066032D01*
X70067979Y-101959570D01*
X70067725Y-101879052D01*
X69795711Y-101879052D01*
X69789410Y-101986070D01*
X69775075Y-102074278D01*
X69755669Y-102124090D01*
X69682254Y-102192162D01*
X69595086Y-102216564D01*
X69505196Y-102196831D01*
X69428383Y-102137968D01*
X69399292Y-102098379D01*
X69382283Y-102051138D01*
X69374316Y-101982181D01*
X69372353Y-101878607D01*
X69375866Y-101776039D01*
X69385143Y-101685921D01*
X69398294Y-101625613D01*
X69400486Y-101620208D01*
X69453522Y-101555940D01*
X69530933Y-101520656D01*
X69617546Y-101514959D01*
X69698193Y-101539453D01*
X69757703Y-101594742D01*
X69763876Y-101605743D01*
X69783199Y-101672827D01*
X69793726Y-101769284D01*
X69795711Y-101879052D01*
X70067725Y-101879052D01*
X70067596Y-101838225D01*
X70065806Y-101772918D01*
X70053627Y-101611355D01*
X70028315Y-101490053D01*
X69986207Y-101400379D01*
X69923641Y-101333699D01*
X69862900Y-101294557D01*
X69778036Y-101267040D01*
X69672485Y-101257603D01*
X69564402Y-101265290D01*
X69471942Y-101289146D01*
X69423090Y-101317685D01*
X69372353Y-101363601D01*
X69372353Y-100783137D01*
X69098432Y-100783137D01*
X69098432Y-102476471D01*
G37*
X69098432Y-102476471D02*
X69235393Y-102476471D01*
X69314889Y-102474140D01*
X69356292Y-102464488D01*
X69371199Y-102443525D01*
X69372353Y-102429351D01*
X69374867Y-102400927D01*
X69390720Y-102395475D01*
X69432379Y-102412998D01*
X69464776Y-102429351D01*
X69589151Y-102468103D01*
X69724354Y-102470346D01*
X69834274Y-102441444D01*
X69936634Y-102371619D01*
X70014660Y-102268555D01*
X70057386Y-102146989D01*
X70058474Y-102140192D01*
X70064822Y-102066032D01*
X70067979Y-101959570D01*
X70067725Y-101879052D01*
X69795711Y-101879052D01*
X69789410Y-101986070D01*
X69775075Y-102074278D01*
X69755669Y-102124090D01*
X69682254Y-102192162D01*
X69595086Y-102216564D01*
X69505196Y-102196831D01*
X69428383Y-102137968D01*
X69399292Y-102098379D01*
X69382283Y-102051138D01*
X69374316Y-101982181D01*
X69372353Y-101878607D01*
X69375866Y-101776039D01*
X69385143Y-101685921D01*
X69398294Y-101625613D01*
X69400486Y-101620208D01*
X69453522Y-101555940D01*
X69530933Y-101520656D01*
X69617546Y-101514959D01*
X69698193Y-101539453D01*
X69757703Y-101594742D01*
X69763876Y-101605743D01*
X69783199Y-101672827D01*
X69793726Y-101769284D01*
X69795711Y-101879052D01*
X70067725Y-101879052D01*
X70067596Y-101838225D01*
X70065806Y-101772918D01*
X70053627Y-101611355D01*
X70028315Y-101490053D01*
X69986207Y-101400379D01*
X69923641Y-101333699D01*
X69862900Y-101294557D01*
X69778036Y-101267040D01*
X69672485Y-101257603D01*
X69564402Y-101265290D01*
X69471942Y-101289146D01*
X69423090Y-101317685D01*
X69372353Y-101363601D01*
X69372353Y-100783137D01*
X69098432Y-100783137D01*
X69098432Y-102476471D01*
G36*
X70667236Y-101258921D02*
G01*
X70629970Y-101270091D01*
X70617957Y-101294633D01*
X70617451Y-101305712D01*
X70615296Y-101336572D01*
X70600449Y-101341417D01*
X70560343Y-101320260D01*
X70536520Y-101305806D01*
X70461362Y-101274850D01*
X70371594Y-101259544D01*
X70277471Y-101258367D01*
X70189246Y-101269799D01*
X70117174Y-101292320D01*
X70071508Y-101324409D01*
X70062502Y-101364545D01*
X70067047Y-101375415D01*
X70100179Y-101420534D01*
X70151555Y-101476026D01*
X70160848Y-101484996D01*
X70209818Y-101526245D01*
X70252069Y-101539572D01*
X70311159Y-101530271D01*
X70334831Y-101524090D01*
X70408496Y-101509246D01*
X70460290Y-101515921D01*
X70504031Y-101539465D01*
X70544098Y-101571061D01*
X70573608Y-101610798D01*
X70594116Y-101666252D01*
X70607176Y-101745003D01*
X70614344Y-101854629D01*
X70617176Y-102002706D01*
X70617451Y-102092111D01*
X70617451Y-102476471D01*
X70866471Y-102476471D01*
X70866471Y-101256275D01*
X70741961Y-101256275D01*
X70667236Y-101258921D01*
G37*
X70667236Y-101258921D02*
X70629970Y-101270091D01*
X70617957Y-101294633D01*
X70617451Y-101305712D01*
X70615296Y-101336572D01*
X70600449Y-101341417D01*
X70560343Y-101320260D01*
X70536520Y-101305806D01*
X70461362Y-101274850D01*
X70371594Y-101259544D01*
X70277471Y-101258367D01*
X70189246Y-101269799D01*
X70117174Y-101292320D01*
X70071508Y-101324409D01*
X70062502Y-101364545D01*
X70067047Y-101375415D01*
X70100179Y-101420534D01*
X70151555Y-101476026D01*
X70160848Y-101484996D01*
X70209818Y-101526245D01*
X70252069Y-101539572D01*
X70311159Y-101530271D01*
X70334831Y-101524090D01*
X70408496Y-101509246D01*
X70460290Y-101515921D01*
X70504031Y-101539465D01*
X70544098Y-101571061D01*
X70573608Y-101610798D01*
X70594116Y-101666252D01*
X70607176Y-101745003D01*
X70614344Y-101854629D01*
X70617176Y-102002706D01*
X70617451Y-102092111D01*
X70617451Y-102476471D01*
X70866471Y-102476471D01*
X70866471Y-101256275D01*
X70741961Y-101256275D01*
X70667236Y-101258921D01*
G36*
X71441280Y-101265922D02*
G01*
X71324130Y-101297180D01*
X71234949Y-101353837D01*
X71172016Y-101428045D01*
X71152452Y-101459716D01*
X71138008Y-101492891D01*
X71127911Y-101535329D01*
X71121385Y-101594788D01*
X71117658Y-101679029D01*
X71115954Y-101795810D01*
X71115500Y-101952890D01*
X71115491Y-101994565D01*
X71115491Y-102476471D01*
X71235020Y-102476471D01*
X71311261Y-102471131D01*
X71367634Y-102457604D01*
X71381758Y-102449262D01*
X71420370Y-102434864D01*
X71459808Y-102449262D01*
X71524738Y-102467237D01*
X71619055Y-102474472D01*
X71723593Y-102471333D01*
X71819189Y-102458186D01*
X71875000Y-102441318D01*
X71983002Y-102371986D01*
X72050497Y-102275772D01*
X72080841Y-102147844D01*
X72081123Y-102144559D01*
X72078460Y-102087808D01*
X71837647Y-102087808D01*
X71816595Y-102152358D01*
X71782303Y-102188686D01*
X71713468Y-102216162D01*
X71622610Y-102227129D01*
X71529958Y-102221731D01*
X71455744Y-102200110D01*
X71434951Y-102186239D01*
X71398619Y-102122143D01*
X71389412Y-102049278D01*
X71389412Y-101953530D01*
X71527173Y-101953530D01*
X71658047Y-101963605D01*
X71757259Y-101992148D01*
X71818977Y-102036639D01*
X71837647Y-102087808D01*
X72078460Y-102087808D01*
X72074564Y-102004790D01*
X72028466Y-101894282D01*
X71941800Y-101810712D01*
X71929821Y-101803110D01*
X71878345Y-101778357D01*
X71814632Y-101763368D01*
X71725565Y-101756082D01*
X71619755Y-101754407D01*
X71389412Y-101754314D01*
X71389412Y-101657755D01*
X71399183Y-101582836D01*
X71424116Y-101532644D01*
X71427035Y-101529972D01*
X71482519Y-101508015D01*
X71566273Y-101499505D01*
X71658833Y-101503687D01*
X71740730Y-101519809D01*
X71789327Y-101543990D01*
X71815659Y-101563359D01*
X71843465Y-101567057D01*
X71881839Y-101551188D01*
X71939875Y-101511855D01*
X72026669Y-101445164D01*
X72034635Y-101438916D01*
X72030553Y-101415800D01*
X71996499Y-101377352D01*
X71944740Y-101334627D01*
X71887545Y-101298679D01*
X71869575Y-101290191D01*
X71804028Y-101273252D01*
X71707980Y-101261170D01*
X71600671Y-101256323D01*
X71595653Y-101256313D01*
X71441280Y-101265922D01*
G37*
X71441280Y-101265922D02*
X71324130Y-101297180D01*
X71234949Y-101353837D01*
X71172016Y-101428045D01*
X71152452Y-101459716D01*
X71138008Y-101492891D01*
X71127911Y-101535329D01*
X71121385Y-101594788D01*
X71117658Y-101679029D01*
X71115954Y-101795810D01*
X71115500Y-101952890D01*
X71115491Y-101994565D01*
X71115491Y-102476471D01*
X71235020Y-102476471D01*
X71311261Y-102471131D01*
X71367634Y-102457604D01*
X71381758Y-102449262D01*
X71420370Y-102434864D01*
X71459808Y-102449262D01*
X71524738Y-102467237D01*
X71619055Y-102474472D01*
X71723593Y-102471333D01*
X71819189Y-102458186D01*
X71875000Y-102441318D01*
X71983002Y-102371986D01*
X72050497Y-102275772D01*
X72080841Y-102147844D01*
X72081123Y-102144559D01*
X72078460Y-102087808D01*
X71837647Y-102087808D01*
X71816595Y-102152358D01*
X71782303Y-102188686D01*
X71713468Y-102216162D01*
X71622610Y-102227129D01*
X71529958Y-102221731D01*
X71455744Y-102200110D01*
X71434951Y-102186239D01*
X71398619Y-102122143D01*
X71389412Y-102049278D01*
X71389412Y-101953530D01*
X71527173Y-101953530D01*
X71658047Y-101963605D01*
X71757259Y-101992148D01*
X71818977Y-102036639D01*
X71837647Y-102087808D01*
X72078460Y-102087808D01*
X72074564Y-102004790D01*
X72028466Y-101894282D01*
X71941800Y-101810712D01*
X71929821Y-101803110D01*
X71878345Y-101778357D01*
X71814632Y-101763368D01*
X71725565Y-101756082D01*
X71619755Y-101754407D01*
X71389412Y-101754314D01*
X71389412Y-101657755D01*
X71399183Y-101582836D01*
X71424116Y-101532644D01*
X71427035Y-101529972D01*
X71482519Y-101508015D01*
X71566273Y-101499505D01*
X71658833Y-101503687D01*
X71740730Y-101519809D01*
X71789327Y-101543990D01*
X71815659Y-101563359D01*
X71843465Y-101567057D01*
X71881839Y-101551188D01*
X71939875Y-101511855D01*
X72026669Y-101445164D01*
X72034635Y-101438916D01*
X72030553Y-101415800D01*
X71996499Y-101377352D01*
X71944740Y-101334627D01*
X71887545Y-101298679D01*
X71869575Y-101290191D01*
X71804028Y-101273252D01*
X71707980Y-101261170D01*
X71600671Y-101256323D01*
X71595653Y-101256313D01*
X71441280Y-101265922D01*
G36*
X72480091Y-99409560D02*
G01*
X72427588Y-99435499D01*
X72362842Y-99480700D01*
X72315653Y-99529991D01*
X72283335Y-99591885D01*
X72263203Y-99674896D01*
X72252570Y-99787538D01*
X72248753Y-99938324D01*
X72248530Y-100003149D01*
X72249182Y-100145221D01*
X72251888Y-100246757D01*
X72257776Y-100317015D01*
X72267973Y-100365256D01*
X72283606Y-100400738D01*
X72299872Y-100424943D01*
X72403705Y-100527929D01*
X72525979Y-100589874D01*
X72657886Y-100608506D01*
X72790616Y-100581549D01*
X72832667Y-100562486D01*
X72933334Y-100510015D01*
X72933334Y-101332259D01*
X72859865Y-101294267D01*
X72763059Y-101264872D01*
X72644072Y-101257342D01*
X72525255Y-101271245D01*
X72435527Y-101302476D01*
X72361101Y-101361954D01*
X72297510Y-101447066D01*
X72292729Y-101455805D01*
X72272563Y-101496966D01*
X72257835Y-101538454D01*
X72247697Y-101588713D01*
X72241301Y-101656184D01*
X72237799Y-101749309D01*
X72236342Y-101876531D01*
X72236079Y-102019701D01*
X72236079Y-102476471D01*
X72510000Y-102476471D01*
X72510000Y-101634231D01*
X72586617Y-101569763D01*
X72666207Y-101518194D01*
X72741578Y-101508818D01*
X72817367Y-101532947D01*
X72857759Y-101556574D01*
X72887821Y-101590227D01*
X72909203Y-101641087D01*
X72923550Y-101716334D01*
X72932510Y-101823146D01*
X72937730Y-101968704D01*
X72939569Y-102065588D01*
X72945785Y-102464020D01*
X73076520Y-102471547D01*
X73207255Y-102479073D01*
X73207255Y-100006582D01*
X72933334Y-100006582D01*
X72926350Y-100144423D01*
X72902818Y-100240107D01*
X72858865Y-100299641D01*
X72790618Y-100329029D01*
X72721667Y-100334902D01*
X72643614Y-100328154D01*
X72591811Y-100301594D01*
X72559417Y-100266499D01*
X72533916Y-100228752D01*
X72518735Y-100186700D01*
X72511981Y-100127779D01*
X72511759Y-100039428D01*
X72514032Y-99965448D01*
X72519251Y-99854000D01*
X72527021Y-99780833D01*
X72540105Y-99734422D01*
X72561268Y-99703244D01*
X72581240Y-99685223D01*
X72664686Y-99645925D01*
X72763449Y-99639579D01*
X72820159Y-99653116D01*
X72876308Y-99701233D01*
X72913501Y-99794833D01*
X72931528Y-99933254D01*
X72933334Y-100006582D01*
X73207255Y-100006582D01*
X73207255Y-99388628D01*
X73070295Y-99388628D01*
X72988065Y-99391879D01*
X72945640Y-99403426D01*
X72933339Y-99425952D01*
X72933334Y-99426620D01*
X72927626Y-99448681D01*
X72902453Y-99446176D01*
X72852402Y-99421935D01*
X72735781Y-99384851D01*
X72604571Y-99380953D01*
X72480091Y-99409560D01*
G37*
X72480091Y-99409560D02*
X72427588Y-99435499D01*
X72362842Y-99480700D01*
X72315653Y-99529991D01*
X72283335Y-99591885D01*
X72263203Y-99674896D01*
X72252570Y-99787538D01*
X72248753Y-99938324D01*
X72248530Y-100003149D01*
X72249182Y-100145221D01*
X72251888Y-100246757D01*
X72257776Y-100317015D01*
X72267973Y-100365256D01*
X72283606Y-100400738D01*
X72299872Y-100424943D01*
X72403705Y-100527929D01*
X72525979Y-100589874D01*
X72657886Y-100608506D01*
X72790616Y-100581549D01*
X72832667Y-100562486D01*
X72933334Y-100510015D01*
X72933334Y-101332259D01*
X72859865Y-101294267D01*
X72763059Y-101264872D01*
X72644072Y-101257342D01*
X72525255Y-101271245D01*
X72435527Y-101302476D01*
X72361101Y-101361954D01*
X72297510Y-101447066D01*
X72292729Y-101455805D01*
X72272563Y-101496966D01*
X72257835Y-101538454D01*
X72247697Y-101588713D01*
X72241301Y-101656184D01*
X72237799Y-101749309D01*
X72236342Y-101876531D01*
X72236079Y-102019701D01*
X72236079Y-102476471D01*
X72510000Y-102476471D01*
X72510000Y-101634231D01*
X72586617Y-101569763D01*
X72666207Y-101518194D01*
X72741578Y-101508818D01*
X72817367Y-101532947D01*
X72857759Y-101556574D01*
X72887821Y-101590227D01*
X72909203Y-101641087D01*
X72923550Y-101716334D01*
X72932510Y-101823146D01*
X72937730Y-101968704D01*
X72939569Y-102065588D01*
X72945785Y-102464020D01*
X73076520Y-102471547D01*
X73207255Y-102479073D01*
X73207255Y-100006582D01*
X72933334Y-100006582D01*
X72926350Y-100144423D01*
X72902818Y-100240107D01*
X72858865Y-100299641D01*
X72790618Y-100329029D01*
X72721667Y-100334902D01*
X72643614Y-100328154D01*
X72591811Y-100301594D01*
X72559417Y-100266499D01*
X72533916Y-100228752D01*
X72518735Y-100186700D01*
X72511981Y-100127779D01*
X72511759Y-100039428D01*
X72514032Y-99965448D01*
X72519251Y-99854000D01*
X72527021Y-99780833D01*
X72540105Y-99734422D01*
X72561268Y-99703244D01*
X72581240Y-99685223D01*
X72664686Y-99645925D01*
X72763449Y-99639579D01*
X72820159Y-99653116D01*
X72876308Y-99701233D01*
X72913501Y-99794833D01*
X72931528Y-99933254D01*
X72933334Y-100006582D01*
X73207255Y-100006582D01*
X73207255Y-99388628D01*
X73070295Y-99388628D01*
X72988065Y-99391879D01*
X72945640Y-99403426D01*
X72933339Y-99425952D01*
X72933334Y-99426620D01*
X72927626Y-99448681D01*
X72902453Y-99446176D01*
X72852402Y-99421935D01*
X72735781Y-99384851D01*
X72604571Y-99380953D01*
X72480091Y-99409560D01*
D12*
X127525000Y-106640000D02*
G75*
G02*
X122475000Y-106640000I-2525000J0D01*
G01*
X127525000Y-100240000D02*
G75*
G03*
X122475000Y-100240000I-2525000J0D01*
G01*
X122475000Y-100240000D02*
X122475000Y-106640000D01*
X127525000Y-100240000D02*
X127525000Y-106640000D01*
X146680000Y-125500000D02*
X146680000Y-124500000D01*
X145320000Y-124500000D02*
X145320000Y-125500000D01*
X86680000Y-125500000D02*
X86680000Y-124500000D01*
X85320000Y-124500000D02*
X85320000Y-125500000D01*
X131680000Y-125500000D02*
X131680000Y-124500000D01*
X130320000Y-124500000D02*
X130320000Y-125500000D01*
X116680000Y-125500000D02*
X116680000Y-124500000D01*
X115320000Y-124500000D02*
X115320000Y-125500000D01*
X71680000Y-125500000D02*
X71680000Y-124500000D01*
X70320000Y-124500000D02*
X70320000Y-125500000D01*
X101680000Y-125500000D02*
X101680000Y-124500000D01*
X100320000Y-124500000D02*
X100320000Y-125500000D01*
X56680000Y-125500000D02*
X56680000Y-124500000D01*
X55320000Y-124500000D02*
X55320000Y-125500000D01*
X133870000Y-85670000D02*
X133870000Y-88330000D01*
X128730000Y-85670000D02*
X133870000Y-85670000D01*
X128730000Y-88330000D02*
X133870000Y-88330000D01*
X128730000Y-85670000D02*
X128730000Y-88330000D01*
X127460000Y-85670000D02*
X126130000Y-85670000D01*
X126130000Y-85670000D02*
X126130000Y-87000000D01*
X144710000Y-111210000D02*
X153830000Y-111210000D01*
X153830000Y-111210000D02*
X153830000Y-95710000D01*
X153830000Y-95710000D02*
X144710000Y-95710000D01*
X144710000Y-95710000D02*
X144710000Y-111210000D01*
X144710000Y-105510000D02*
X146020000Y-105510000D01*
X146020000Y-105510000D02*
X146020000Y-109910000D01*
X146020000Y-109910000D02*
X152520000Y-109910000D01*
X152520000Y-109910000D02*
X152520000Y-97010000D01*
X152520000Y-97010000D02*
X146020000Y-97010000D01*
X146020000Y-97010000D02*
X146020000Y-101410000D01*
X146020000Y-101410000D02*
X146020000Y-101410000D01*
X146020000Y-101410000D02*
X144710000Y-101410000D01*
X144320000Y-106000000D02*
X143320000Y-106500000D01*
X143320000Y-106500000D02*
X143320000Y-105500000D01*
X143320000Y-105500000D02*
X144320000Y-106000000D01*
%LPC*%
D13*
X115700000Y-114950000D03*
X115750000Y-120550000D03*
X119000000Y-115500000D03*
X112500000Y-115500000D03*
X119000000Y-120000000D03*
X112500000Y-120000000D03*
D14*
X125000000Y-105880000D03*
X125000000Y-101000000D03*
D15*
X107500000Y-137500000D03*
X107500000Y-132500000D03*
X120000000Y-137500000D03*
X120000000Y-132500000D03*
X57500000Y-137500000D03*
X57500000Y-132500000D03*
X70000000Y-137500000D03*
X70000000Y-132500000D03*
X132500000Y-137500000D03*
X132500000Y-132500000D03*
X145000000Y-137500000D03*
X145000000Y-132500000D03*
X82500000Y-137500000D03*
X82500000Y-132500000D03*
X95000000Y-137500000D03*
X95000000Y-132500000D03*
D13*
X145700000Y-114950000D03*
X145750000Y-120550000D03*
X149000000Y-115500000D03*
X142500000Y-115500000D03*
X149000000Y-120000000D03*
X142500000Y-120000000D03*
X85700000Y-114950000D03*
X85750000Y-120550000D03*
X89000000Y-115500000D03*
X82500000Y-115500000D03*
X89000000Y-120000000D03*
X82500000Y-120000000D03*
X130700000Y-114950000D03*
X130750000Y-120550000D03*
X134000000Y-115500000D03*
X127500000Y-115500000D03*
X134000000Y-120000000D03*
X127500000Y-120000000D03*
X70700000Y-114950000D03*
X70750000Y-120550000D03*
X74000000Y-115500000D03*
X67500000Y-115500000D03*
X74000000Y-120000000D03*
X67500000Y-120000000D03*
X100700000Y-114950000D03*
X100750000Y-120550000D03*
X104000000Y-115500000D03*
X97500000Y-115500000D03*
X104000000Y-120000000D03*
X97500000Y-120000000D03*
X55700000Y-114950000D03*
X55750000Y-120550000D03*
X59000000Y-115500000D03*
X52500000Y-115500000D03*
X59000000Y-120000000D03*
X52500000Y-120000000D03*
D16*
X106000000Y-94000000D03*
D17*
X106000000Y-96500000D03*
X106000000Y-99000000D03*
D18*
X113500000Y-90900000D03*
X113500000Y-102100000D03*
D17*
X120500000Y-94000000D03*
X120500000Y-99000000D03*
D16*
X82000000Y-94000000D03*
D17*
X82000000Y-96500000D03*
X82000000Y-99000000D03*
D18*
X89500000Y-90900000D03*
X89500000Y-102100000D03*
D17*
X96500000Y-94000000D03*
X96500000Y-99000000D03*
D19*
X146000000Y-125750000D03*
X146000000Y-124250000D03*
X86000000Y-125750000D03*
X86000000Y-124250000D03*
X131000000Y-125750000D03*
X131000000Y-124250000D03*
X116000000Y-125750000D03*
X116000000Y-124250000D03*
X71000000Y-125750000D03*
X71000000Y-124250000D03*
X101000000Y-125750000D03*
X101000000Y-124250000D03*
X56000000Y-125750000D03*
X56000000Y-124250000D03*
D20*
X132540000Y-87000000D03*
X130000000Y-87000000D03*
D21*
X127460000Y-87000000D03*
D22*
X150540000Y-100920000D03*
X150540000Y-103460000D03*
X150540000Y-106000000D03*
X148000000Y-100920000D03*
X148000000Y-103460000D03*
G36*
G01*
X147150000Y-106600000D02*
X147150000Y-105400000D01*
G75*
G02*
X147400000Y-105150000I250000J0D01*
G01*
X148600000Y-105150000D01*
G75*
G02*
X148850000Y-105400000I0J-250000D01*
G01*
X148850000Y-106600000D01*
G75*
G02*
X148600000Y-106850000I-250000J0D01*
G01*
X147400000Y-106850000D01*
G75*
G02*
X147150000Y-106600000I0J250000D01*
G01*
G37*
D23*
X55000000Y-90000000D03*
X55000000Y-145000000D03*
X150000000Y-90000000D03*
X150000000Y-145000000D03*
M02*
