G04 #@! TF.GenerationSoftware,KiCad,Pcbnew,(5.1.9)-1*
G04 #@! TF.CreationDate,2021-04-20T14:37:47+02:00*
G04 #@! TF.ProjectId,light-external-controller,6c696768-742d-4657-9874-65726e616c2d,rev?*
G04 #@! TF.SameCoordinates,Original*
G04 #@! TF.FileFunction,Legend,Top*
G04 #@! TF.FilePolarity,Positive*
%FSLAX46Y46*%
G04 Gerber Fmt 4.6, Leading zero omitted, Abs format (unit mm)*
G04 Created by KiCad (PCBNEW (5.1.9)-1) date 2021-04-20 14:37:47*
%MOMM*%
%LPD*%
G01*
G04 APERTURE LIST*
%ADD10C,0.230000*%
%ADD11C,0.400000*%
%ADD12C,0.150000*%
%ADD13C,0.300000*%
%ADD14C,0.250000*%
%ADD15C,0.010000*%
%ADD16C,0.100000*%
%ADD17C,0.120000*%
%ADD18C,1.524000*%
%ADD19C,1.500000*%
%ADD20R,0.550000X1.600000*%
%ADD21R,1.600000X0.550000*%
%ADD22O,3.048000X1.850000*%
%ADD23R,2.000000X2.000000*%
%ADD24C,2.000000*%
%ADD25R,3.200000X2.000000*%
%ADD26R,0.500000X0.900000*%
%ADD27O,1.700000X1.700000*%
%ADD28R,1.700000X1.700000*%
%ADD29C,1.700000*%
%ADD30C,3.700000*%
%ADD31R,1.200000X0.750000*%
%ADD32R,0.750000X1.200000*%
G04 APERTURE END LIST*
D10*
X130571428Y-144678571D02*
X130714285Y-144678571D01*
X130857142Y-144750000D01*
X130928571Y-144821428D01*
X131000000Y-144964285D01*
X131071428Y-145250000D01*
X131071428Y-145607142D01*
X131000000Y-145892857D01*
X130928571Y-146035714D01*
X130857142Y-146107142D01*
X130714285Y-146178571D01*
X130571428Y-146178571D01*
X130428571Y-146107142D01*
X130357142Y-146035714D01*
X130285714Y-145892857D01*
X130214285Y-145607142D01*
X130214285Y-145250000D01*
X130285714Y-144964285D01*
X130357142Y-144821428D01*
X130428571Y-144750000D01*
X130571428Y-144678571D01*
X132357142Y-145178571D02*
X132357142Y-146178571D01*
X132000000Y-144607142D02*
X131642857Y-145678571D01*
X132571428Y-145678571D01*
X134214285Y-144607142D02*
X132928571Y-146535714D01*
X134642857Y-144821428D02*
X134714285Y-144750000D01*
X134857142Y-144678571D01*
X135214285Y-144678571D01*
X135357142Y-144750000D01*
X135428571Y-144821428D01*
X135500000Y-144964285D01*
X135500000Y-145107142D01*
X135428571Y-145321428D01*
X134571428Y-146178571D01*
X135500000Y-146178571D01*
X136428571Y-144678571D02*
X136571428Y-144678571D01*
X136714285Y-144750000D01*
X136785714Y-144821428D01*
X136857142Y-144964285D01*
X136928571Y-145250000D01*
X136928571Y-145607142D01*
X136857142Y-145892857D01*
X136785714Y-146035714D01*
X136714285Y-146107142D01*
X136571428Y-146178571D01*
X136428571Y-146178571D01*
X136285714Y-146107142D01*
X136214285Y-146035714D01*
X136142857Y-145892857D01*
X136071428Y-145607142D01*
X136071428Y-145250000D01*
X136142857Y-144964285D01*
X136214285Y-144821428D01*
X136285714Y-144750000D01*
X136428571Y-144678571D01*
X137500000Y-144821428D02*
X137571428Y-144750000D01*
X137714285Y-144678571D01*
X138071428Y-144678571D01*
X138214285Y-144750000D01*
X138285714Y-144821428D01*
X138357142Y-144964285D01*
X138357142Y-145107142D01*
X138285714Y-145321428D01*
X137428571Y-146178571D01*
X138357142Y-146178571D01*
X139785714Y-146178571D02*
X138928571Y-146178571D01*
X139357142Y-146178571D02*
X139357142Y-144678571D01*
X139214285Y-144892857D01*
X139071428Y-145035714D01*
X138928571Y-145107142D01*
D11*
X129300000Y-98100000D02*
G75*
G03*
X129300000Y-98100000I-200000J0D01*
G01*
D12*
X128352380Y-97919047D02*
X128352380Y-98490476D01*
X128352380Y-98204761D02*
X127352380Y-98204761D01*
X127495238Y-98300000D01*
X127590476Y-98395238D01*
X127638095Y-98490476D01*
X127352380Y-97300000D02*
X127352380Y-97204761D01*
X127400000Y-97109523D01*
X127447619Y-97061904D01*
X127542857Y-97014285D01*
X127733333Y-96966666D01*
X127971428Y-96966666D01*
X128161904Y-97014285D01*
X128257142Y-97061904D01*
X128304761Y-97109523D01*
X128352380Y-97204761D01*
X128352380Y-97300000D01*
X128304761Y-97395238D01*
X128257142Y-97442857D01*
X128161904Y-97490476D01*
X127971428Y-97538095D01*
X127733333Y-97538095D01*
X127542857Y-97490476D01*
X127447619Y-97442857D01*
X127400000Y-97395238D01*
X127352380Y-97300000D01*
X127352380Y-96347619D02*
X127352380Y-96252380D01*
X127400000Y-96157142D01*
X127447619Y-96109523D01*
X127542857Y-96061904D01*
X127733333Y-96014285D01*
X127971428Y-96014285D01*
X128161904Y-96061904D01*
X128257142Y-96109523D01*
X128304761Y-96157142D01*
X128352380Y-96252380D01*
X128352380Y-96347619D01*
X128304761Y-96442857D01*
X128257142Y-96490476D01*
X128161904Y-96538095D01*
X127971428Y-96585714D01*
X127733333Y-96585714D01*
X127542857Y-96538095D01*
X127447619Y-96490476D01*
X127400000Y-96442857D01*
X127352380Y-96347619D01*
X127685714Y-95585714D02*
X128352380Y-95585714D01*
X127780952Y-95585714D02*
X127733333Y-95538095D01*
X127685714Y-95442857D01*
X127685714Y-95300000D01*
X127733333Y-95204761D01*
X127828571Y-95157142D01*
X128352380Y-95157142D01*
X118085714Y-105547619D02*
X118133333Y-105500000D01*
X118228571Y-105452380D01*
X118466666Y-105452380D01*
X118561904Y-105500000D01*
X118609523Y-105547619D01*
X118657142Y-105642857D01*
X118657142Y-105738095D01*
X118609523Y-105880952D01*
X118038095Y-106452380D01*
X118657142Y-106452380D01*
X119038095Y-105547619D02*
X119085714Y-105500000D01*
X119180952Y-105452380D01*
X119419047Y-105452380D01*
X119514285Y-105500000D01*
X119561904Y-105547619D01*
X119609523Y-105642857D01*
X119609523Y-105738095D01*
X119561904Y-105880952D01*
X118990476Y-106452380D01*
X119609523Y-106452380D01*
X120038095Y-105785714D02*
X120038095Y-106785714D01*
X120038095Y-105833333D02*
X120133333Y-105785714D01*
X120323809Y-105785714D01*
X120419047Y-105833333D01*
X120466666Y-105880952D01*
X120514285Y-105976190D01*
X120514285Y-106261904D01*
X120466666Y-106357142D01*
X120419047Y-106404761D01*
X120323809Y-106452380D01*
X120133333Y-106452380D01*
X120038095Y-106404761D01*
X129085714Y-107247619D02*
X129133333Y-107200000D01*
X129228571Y-107152380D01*
X129466666Y-107152380D01*
X129561904Y-107200000D01*
X129609523Y-107247619D01*
X129657142Y-107342857D01*
X129657142Y-107438095D01*
X129609523Y-107580952D01*
X129038095Y-108152380D01*
X129657142Y-108152380D01*
X130038095Y-107247619D02*
X130085714Y-107200000D01*
X130180952Y-107152380D01*
X130419047Y-107152380D01*
X130514285Y-107200000D01*
X130561904Y-107247619D01*
X130609523Y-107342857D01*
X130609523Y-107438095D01*
X130561904Y-107580952D01*
X129990476Y-108152380D01*
X130609523Y-108152380D01*
X131038095Y-107485714D02*
X131038095Y-108485714D01*
X131038095Y-107533333D02*
X131133333Y-107485714D01*
X131323809Y-107485714D01*
X131419047Y-107533333D01*
X131466666Y-107580952D01*
X131514285Y-107676190D01*
X131514285Y-107961904D01*
X131466666Y-108057142D01*
X131419047Y-108104761D01*
X131323809Y-108152380D01*
X131133333Y-108152380D01*
X131038095Y-108104761D01*
X139980952Y-92452380D02*
X139409523Y-92452380D01*
X139695238Y-92452380D02*
X139695238Y-91452380D01*
X139600000Y-91595238D01*
X139504761Y-91690476D01*
X139409523Y-91738095D01*
X140600000Y-91452380D02*
X140695238Y-91452380D01*
X140790476Y-91500000D01*
X140838095Y-91547619D01*
X140885714Y-91642857D01*
X140933333Y-91833333D01*
X140933333Y-92071428D01*
X140885714Y-92261904D01*
X140838095Y-92357142D01*
X140790476Y-92404761D01*
X140695238Y-92452380D01*
X140600000Y-92452380D01*
X140504761Y-92404761D01*
X140457142Y-92357142D01*
X140409523Y-92261904D01*
X140361904Y-92071428D01*
X140361904Y-91833333D01*
X140409523Y-91642857D01*
X140457142Y-91547619D01*
X140504761Y-91500000D01*
X140600000Y-91452380D01*
X141552380Y-91452380D02*
X141647619Y-91452380D01*
X141742857Y-91500000D01*
X141790476Y-91547619D01*
X141838095Y-91642857D01*
X141885714Y-91833333D01*
X141885714Y-92071428D01*
X141838095Y-92261904D01*
X141790476Y-92357142D01*
X141742857Y-92404761D01*
X141647619Y-92452380D01*
X141552380Y-92452380D01*
X141457142Y-92404761D01*
X141409523Y-92357142D01*
X141361904Y-92261904D01*
X141314285Y-92071428D01*
X141314285Y-91833333D01*
X141361904Y-91642857D01*
X141409523Y-91547619D01*
X141457142Y-91500000D01*
X141552380Y-91452380D01*
X142314285Y-91785714D02*
X142314285Y-92452380D01*
X142314285Y-91880952D02*
X142361904Y-91833333D01*
X142457142Y-91785714D01*
X142600000Y-91785714D01*
X142695238Y-91833333D01*
X142742857Y-91928571D01*
X142742857Y-92452380D01*
X138704761Y-90652380D02*
X138133333Y-90652380D01*
X138419047Y-90652380D02*
X138419047Y-89652380D01*
X138323809Y-89795238D01*
X138228571Y-89890476D01*
X138133333Y-89938095D01*
X139323809Y-89652380D02*
X139419047Y-89652380D01*
X139514285Y-89700000D01*
X139561904Y-89747619D01*
X139609523Y-89842857D01*
X139657142Y-90033333D01*
X139657142Y-90271428D01*
X139609523Y-90461904D01*
X139561904Y-90557142D01*
X139514285Y-90604761D01*
X139419047Y-90652380D01*
X139323809Y-90652380D01*
X139228571Y-90604761D01*
X139180952Y-90557142D01*
X139133333Y-90461904D01*
X139085714Y-90271428D01*
X139085714Y-90033333D01*
X139133333Y-89842857D01*
X139180952Y-89747619D01*
X139228571Y-89700000D01*
X139323809Y-89652380D01*
X140085714Y-90652380D02*
X140085714Y-89652380D01*
X140180952Y-90271428D02*
X140466666Y-90652380D01*
X140466666Y-89985714D02*
X140085714Y-90366666D01*
X142352380Y-107019047D02*
X142352380Y-107590476D01*
X142352380Y-107304761D02*
X141352380Y-107304761D01*
X141495238Y-107400000D01*
X141590476Y-107495238D01*
X141638095Y-107590476D01*
X141352380Y-106400000D02*
X141352380Y-106304761D01*
X141400000Y-106209523D01*
X141447619Y-106161904D01*
X141542857Y-106114285D01*
X141733333Y-106066666D01*
X141971428Y-106066666D01*
X142161904Y-106114285D01*
X142257142Y-106161904D01*
X142304761Y-106209523D01*
X142352380Y-106304761D01*
X142352380Y-106400000D01*
X142304761Y-106495238D01*
X142257142Y-106542857D01*
X142161904Y-106590476D01*
X141971428Y-106638095D01*
X141733333Y-106638095D01*
X141542857Y-106590476D01*
X141447619Y-106542857D01*
X141400000Y-106495238D01*
X141352380Y-106400000D01*
X141352380Y-105447619D02*
X141352380Y-105352380D01*
X141400000Y-105257142D01*
X141447619Y-105209523D01*
X141542857Y-105161904D01*
X141733333Y-105114285D01*
X141971428Y-105114285D01*
X142161904Y-105161904D01*
X142257142Y-105209523D01*
X142304761Y-105257142D01*
X142352380Y-105352380D01*
X142352380Y-105447619D01*
X142304761Y-105542857D01*
X142257142Y-105590476D01*
X142161904Y-105638095D01*
X141971428Y-105685714D01*
X141733333Y-105685714D01*
X141542857Y-105638095D01*
X141447619Y-105590476D01*
X141400000Y-105542857D01*
X141352380Y-105447619D01*
X141685714Y-104685714D02*
X142352380Y-104685714D01*
X141780952Y-104685714D02*
X141733333Y-104638095D01*
X141685714Y-104542857D01*
X141685714Y-104400000D01*
X141733333Y-104304761D01*
X141828571Y-104257142D01*
X142352380Y-104257142D01*
X132052380Y-92761904D02*
X132052380Y-92190476D01*
X133052380Y-92476190D02*
X132052380Y-92476190D01*
X132052380Y-91952380D02*
X133052380Y-91285714D01*
X132052380Y-91285714D02*
X133052380Y-91952380D01*
X129600000Y-93261904D02*
X129552380Y-93357142D01*
X129552380Y-93500000D01*
X129600000Y-93642857D01*
X129695238Y-93738095D01*
X129790476Y-93785714D01*
X129980952Y-93833333D01*
X130123809Y-93833333D01*
X130314285Y-93785714D01*
X130409523Y-93738095D01*
X130504761Y-93642857D01*
X130552380Y-93500000D01*
X130552380Y-93404761D01*
X130504761Y-93261904D01*
X130457142Y-93214285D01*
X130123809Y-93214285D01*
X130123809Y-93404761D01*
X130552380Y-92785714D02*
X129552380Y-92785714D01*
X130552380Y-92214285D01*
X129552380Y-92214285D01*
X130552380Y-91738095D02*
X129552380Y-91738095D01*
X129552380Y-91500000D01*
X129600000Y-91357142D01*
X129695238Y-91261904D01*
X129790476Y-91214285D01*
X129980952Y-91166666D01*
X130123809Y-91166666D01*
X130314285Y-91214285D01*
X130409523Y-91261904D01*
X130504761Y-91357142D01*
X130552380Y-91500000D01*
X130552380Y-91738095D01*
X127371428Y-94761904D02*
X127371428Y-94000000D01*
X127752380Y-94380952D02*
X126990476Y-94380952D01*
X126752380Y-93619047D02*
X126752380Y-93000000D01*
X127133333Y-93333333D01*
X127133333Y-93190476D01*
X127180952Y-93095238D01*
X127228571Y-93047619D01*
X127323809Y-93000000D01*
X127561904Y-93000000D01*
X127657142Y-93047619D01*
X127704761Y-93095238D01*
X127752380Y-93190476D01*
X127752380Y-93476190D01*
X127704761Y-93571428D01*
X127657142Y-93619047D01*
X126752380Y-92714285D02*
X127752380Y-92380952D01*
X126752380Y-92047619D01*
X126752380Y-91809523D02*
X126752380Y-91190476D01*
X127133333Y-91523809D01*
X127133333Y-91380952D01*
X127180952Y-91285714D01*
X127228571Y-91238095D01*
X127323809Y-91190476D01*
X127561904Y-91190476D01*
X127657142Y-91238095D01*
X127704761Y-91285714D01*
X127752380Y-91380952D01*
X127752380Y-91666666D01*
X127704761Y-91761904D01*
X127657142Y-91809523D01*
D13*
X79176190Y-146304761D02*
X78223809Y-146304761D01*
X78223809Y-144304761D01*
X79842857Y-146304761D02*
X79842857Y-144971428D01*
X79842857Y-144304761D02*
X79747619Y-144400000D01*
X79842857Y-144495238D01*
X79938095Y-144400000D01*
X79842857Y-144304761D01*
X79842857Y-144495238D01*
X81652380Y-144971428D02*
X81652380Y-146590476D01*
X81557142Y-146780952D01*
X81461904Y-146876190D01*
X81271428Y-146971428D01*
X80985714Y-146971428D01*
X80795238Y-146876190D01*
X81652380Y-146209523D02*
X81461904Y-146304761D01*
X81080952Y-146304761D01*
X80890476Y-146209523D01*
X80795238Y-146114285D01*
X80700000Y-145923809D01*
X80700000Y-145352380D01*
X80795238Y-145161904D01*
X80890476Y-145066666D01*
X81080952Y-144971428D01*
X81461904Y-144971428D01*
X81652380Y-145066666D01*
X82604761Y-146304761D02*
X82604761Y-144304761D01*
X83461904Y-146304761D02*
X83461904Y-145257142D01*
X83366666Y-145066666D01*
X83176190Y-144971428D01*
X82890476Y-144971428D01*
X82700000Y-145066666D01*
X82604761Y-145161904D01*
X84128571Y-144971428D02*
X84890476Y-144971428D01*
X84414285Y-144304761D02*
X84414285Y-146019047D01*
X84509523Y-146209523D01*
X84700000Y-146304761D01*
X84890476Y-146304761D01*
X86414285Y-146209523D02*
X86223809Y-146304761D01*
X85842857Y-146304761D01*
X85652380Y-146209523D01*
X85557142Y-146114285D01*
X85461904Y-145923809D01*
X85461904Y-145352380D01*
X85557142Y-145161904D01*
X85652380Y-145066666D01*
X85842857Y-144971428D01*
X86223809Y-144971428D01*
X86414285Y-145066666D01*
X87557142Y-146304761D02*
X87366666Y-146209523D01*
X87271428Y-146114285D01*
X87176190Y-145923809D01*
X87176190Y-145352380D01*
X87271428Y-145161904D01*
X87366666Y-145066666D01*
X87557142Y-144971428D01*
X87842857Y-144971428D01*
X88033333Y-145066666D01*
X88128571Y-145161904D01*
X88223809Y-145352380D01*
X88223809Y-145923809D01*
X88128571Y-146114285D01*
X88033333Y-146209523D01*
X87842857Y-146304761D01*
X87557142Y-146304761D01*
X89080952Y-144971428D02*
X89080952Y-146304761D01*
X89080952Y-145161904D02*
X89176190Y-145066666D01*
X89366666Y-144971428D01*
X89652380Y-144971428D01*
X89842857Y-145066666D01*
X89938095Y-145257142D01*
X89938095Y-146304761D01*
X90604761Y-144971428D02*
X91366666Y-144971428D01*
X90890476Y-144304761D02*
X90890476Y-146019047D01*
X90985714Y-146209523D01*
X91176190Y-146304761D01*
X91366666Y-146304761D01*
X92033333Y-146304761D02*
X92033333Y-144971428D01*
X92033333Y-145352380D02*
X92128571Y-145161904D01*
X92223809Y-145066666D01*
X92414285Y-144971428D01*
X92604761Y-144971428D01*
X93557142Y-146304761D02*
X93366666Y-146209523D01*
X93271428Y-146114285D01*
X93176190Y-145923809D01*
X93176190Y-145352380D01*
X93271428Y-145161904D01*
X93366666Y-145066666D01*
X93557142Y-144971428D01*
X93842857Y-144971428D01*
X94033333Y-145066666D01*
X94128571Y-145161904D01*
X94223809Y-145352380D01*
X94223809Y-145923809D01*
X94128571Y-146114285D01*
X94033333Y-146209523D01*
X93842857Y-146304761D01*
X93557142Y-146304761D01*
X95366666Y-146304761D02*
X95176190Y-146209523D01*
X95080952Y-146019047D01*
X95080952Y-144304761D01*
X96414285Y-146304761D02*
X96223809Y-146209523D01*
X96128571Y-146019047D01*
X96128571Y-144304761D01*
X97938095Y-146209523D02*
X97747619Y-146304761D01*
X97366666Y-146304761D01*
X97176190Y-146209523D01*
X97080952Y-146019047D01*
X97080952Y-145257142D01*
X97176190Y-145066666D01*
X97366666Y-144971428D01*
X97747619Y-144971428D01*
X97938095Y-145066666D01*
X98033333Y-145257142D01*
X98033333Y-145447619D01*
X97080952Y-145638095D01*
X98890476Y-146304761D02*
X98890476Y-144971428D01*
X98890476Y-145352380D02*
X98985714Y-145161904D01*
X99080952Y-145066666D01*
X99271428Y-144971428D01*
X99461904Y-144971428D01*
X102319047Y-145257142D02*
X102604761Y-145352380D01*
X102700000Y-145447619D01*
X102795238Y-145638095D01*
X102795238Y-145923809D01*
X102700000Y-146114285D01*
X102604761Y-146209523D01*
X102414285Y-146304761D01*
X101652380Y-146304761D01*
X101652380Y-144304761D01*
X102319047Y-144304761D01*
X102509523Y-144400000D01*
X102604761Y-144495238D01*
X102700000Y-144685714D01*
X102700000Y-144876190D01*
X102604761Y-145066666D01*
X102509523Y-145161904D01*
X102319047Y-145257142D01*
X101652380Y-145257142D01*
X104509523Y-144971428D02*
X104509523Y-146304761D01*
X103652380Y-144971428D02*
X103652380Y-146019047D01*
X103747619Y-146209523D01*
X103938095Y-146304761D01*
X104223809Y-146304761D01*
X104414285Y-146209523D01*
X104509523Y-146114285D01*
X105176190Y-144971428D02*
X105938095Y-144971428D01*
X105461904Y-144304761D02*
X105461904Y-146019047D01*
X105557142Y-146209523D01*
X105747619Y-146304761D01*
X105938095Y-146304761D01*
X106319047Y-144971428D02*
X107080952Y-144971428D01*
X106604761Y-144304761D02*
X106604761Y-146019047D01*
X106700000Y-146209523D01*
X106890476Y-146304761D01*
X107080952Y-146304761D01*
X108033333Y-146304761D02*
X107842857Y-146209523D01*
X107747619Y-146114285D01*
X107652380Y-145923809D01*
X107652380Y-145352380D01*
X107747619Y-145161904D01*
X107842857Y-145066666D01*
X108033333Y-144971428D01*
X108319047Y-144971428D01*
X108509523Y-145066666D01*
X108604761Y-145161904D01*
X108700000Y-145352380D01*
X108700000Y-145923809D01*
X108604761Y-146114285D01*
X108509523Y-146209523D01*
X108319047Y-146304761D01*
X108033333Y-146304761D01*
X109557142Y-144971428D02*
X109557142Y-146304761D01*
X109557142Y-145161904D02*
X109652380Y-145066666D01*
X109842857Y-144971428D01*
X110128571Y-144971428D01*
X110319047Y-145066666D01*
X110414285Y-145257142D01*
X110414285Y-146304761D01*
X112890476Y-146304761D02*
X112890476Y-144304761D01*
X113842857Y-144971428D02*
X113842857Y-146304761D01*
X113842857Y-145161904D02*
X113938095Y-145066666D01*
X114128571Y-144971428D01*
X114414285Y-144971428D01*
X114604761Y-145066666D01*
X114700000Y-145257142D01*
X114700000Y-146304761D01*
X115366666Y-144971428D02*
X116128571Y-144971428D01*
X115652380Y-144304761D02*
X115652380Y-146019047D01*
X115747619Y-146209523D01*
X115938095Y-146304761D01*
X116128571Y-146304761D01*
X117557142Y-146209523D02*
X117366666Y-146304761D01*
X116985714Y-146304761D01*
X116795238Y-146209523D01*
X116700000Y-146019047D01*
X116700000Y-145257142D01*
X116795238Y-145066666D01*
X116985714Y-144971428D01*
X117366666Y-144971428D01*
X117557142Y-145066666D01*
X117652380Y-145257142D01*
X117652380Y-145447619D01*
X116700000Y-145638095D01*
X118509523Y-146304761D02*
X118509523Y-144971428D01*
X118509523Y-145352380D02*
X118604761Y-145161904D01*
X118700000Y-145066666D01*
X118890476Y-144971428D01*
X119080952Y-144971428D01*
X119461904Y-144971428D02*
X120223809Y-144971428D01*
X119747619Y-146304761D02*
X119747619Y-144590476D01*
X119842857Y-144400000D01*
X120033333Y-144304761D01*
X120223809Y-144304761D01*
X121747619Y-146304761D02*
X121747619Y-145257142D01*
X121652380Y-145066666D01*
X121461904Y-144971428D01*
X121080952Y-144971428D01*
X120890476Y-145066666D01*
X121747619Y-146209523D02*
X121557142Y-146304761D01*
X121080952Y-146304761D01*
X120890476Y-146209523D01*
X120795238Y-146019047D01*
X120795238Y-145828571D01*
X120890476Y-145638095D01*
X121080952Y-145542857D01*
X121557142Y-145542857D01*
X121747619Y-145447619D01*
X123557142Y-146209523D02*
X123366666Y-146304761D01*
X122985714Y-146304761D01*
X122795238Y-146209523D01*
X122700000Y-146114285D01*
X122604761Y-145923809D01*
X122604761Y-145352380D01*
X122700000Y-145161904D01*
X122795238Y-145066666D01*
X122985714Y-144971428D01*
X123366666Y-144971428D01*
X123557142Y-145066666D01*
X125176190Y-146209523D02*
X124985714Y-146304761D01*
X124604761Y-146304761D01*
X124414285Y-146209523D01*
X124319047Y-146019047D01*
X124319047Y-145257142D01*
X124414285Y-145066666D01*
X124604761Y-144971428D01*
X124985714Y-144971428D01*
X125176190Y-145066666D01*
X125271428Y-145257142D01*
X125271428Y-145447619D01*
X124319047Y-145638095D01*
D12*
X113285714Y-111804761D02*
X113380952Y-111852380D01*
X113571428Y-111852380D01*
X113666666Y-111804761D01*
X113714285Y-111709523D01*
X113714285Y-111661904D01*
X113666666Y-111566666D01*
X113571428Y-111519047D01*
X113428571Y-111519047D01*
X113333333Y-111471428D01*
X113285714Y-111376190D01*
X113285714Y-111328571D01*
X113333333Y-111233333D01*
X113428571Y-111185714D01*
X113571428Y-111185714D01*
X113666666Y-111233333D01*
X114571428Y-111852380D02*
X114571428Y-110852380D01*
X114571428Y-111804761D02*
X114476190Y-111852380D01*
X114285714Y-111852380D01*
X114190476Y-111804761D01*
X114142857Y-111757142D01*
X114095238Y-111661904D01*
X114095238Y-111376190D01*
X114142857Y-111280952D01*
X114190476Y-111233333D01*
X114285714Y-111185714D01*
X114476190Y-111185714D01*
X114571428Y-111233333D01*
X115047619Y-111852380D02*
X115047619Y-110852380D01*
X115047619Y-111233333D02*
X115142857Y-111185714D01*
X115333333Y-111185714D01*
X115428571Y-111233333D01*
X115476190Y-111280952D01*
X115523809Y-111376190D01*
X115523809Y-111661904D01*
X115476190Y-111757142D01*
X115428571Y-111804761D01*
X115333333Y-111852380D01*
X115142857Y-111852380D01*
X115047619Y-111804761D01*
X115952380Y-111757142D02*
X116000000Y-111804761D01*
X115952380Y-111852380D01*
X115904761Y-111804761D01*
X115952380Y-111757142D01*
X115952380Y-111852380D01*
X116428571Y-111185714D02*
X116428571Y-112042857D01*
X116380952Y-112138095D01*
X116285714Y-112185714D01*
X116238095Y-112185714D01*
X116428571Y-110852380D02*
X116380952Y-110900000D01*
X116428571Y-110947619D01*
X116476190Y-110900000D01*
X116428571Y-110852380D01*
X116428571Y-110947619D01*
X117333333Y-111185714D02*
X117333333Y-111852380D01*
X116904761Y-111185714D02*
X116904761Y-111709523D01*
X116952380Y-111804761D01*
X117047619Y-111852380D01*
X117190476Y-111852380D01*
X117285714Y-111804761D01*
X117333333Y-111757142D01*
X117952380Y-111852380D02*
X117857142Y-111804761D01*
X117809523Y-111709523D01*
X117809523Y-110852380D01*
X118333333Y-111852380D02*
X118333333Y-111185714D01*
X118333333Y-110852380D02*
X118285714Y-110900000D01*
X118333333Y-110947619D01*
X118380952Y-110900000D01*
X118333333Y-110852380D01*
X118333333Y-110947619D01*
X119238095Y-111852380D02*
X119238095Y-111328571D01*
X119190476Y-111233333D01*
X119095238Y-111185714D01*
X118904761Y-111185714D01*
X118809523Y-111233333D01*
X119238095Y-111804761D02*
X119142857Y-111852380D01*
X118904761Y-111852380D01*
X118809523Y-111804761D01*
X118761904Y-111709523D01*
X118761904Y-111614285D01*
X118809523Y-111519047D01*
X118904761Y-111471428D01*
X119142857Y-111471428D01*
X119238095Y-111423809D01*
X119714285Y-111185714D02*
X119714285Y-111852380D01*
X119714285Y-111280952D02*
X119761904Y-111233333D01*
X119857142Y-111185714D01*
X120000000Y-111185714D01*
X120095238Y-111233333D01*
X120142857Y-111328571D01*
X120142857Y-111852380D01*
X120619047Y-111471428D02*
X121380952Y-111471428D01*
X121761904Y-111185714D02*
X121952380Y-111852380D01*
X122142857Y-111376190D01*
X122333333Y-111852380D01*
X122523809Y-111185714D01*
X122904761Y-111757142D02*
X122952380Y-111804761D01*
X122904761Y-111852380D01*
X122857142Y-111804761D01*
X122904761Y-111757142D01*
X122904761Y-111852380D01*
X123809523Y-111852380D02*
X123809523Y-110852380D01*
X123809523Y-111804761D02*
X123714285Y-111852380D01*
X123523809Y-111852380D01*
X123428571Y-111804761D01*
X123380952Y-111757142D01*
X123333333Y-111661904D01*
X123333333Y-111376190D01*
X123380952Y-111280952D01*
X123428571Y-111233333D01*
X123523809Y-111185714D01*
X123714285Y-111185714D01*
X123809523Y-111233333D01*
X124666666Y-111804761D02*
X124571428Y-111852380D01*
X124380952Y-111852380D01*
X124285714Y-111804761D01*
X124238095Y-111709523D01*
X124238095Y-111328571D01*
X124285714Y-111233333D01*
X124380952Y-111185714D01*
X124571428Y-111185714D01*
X124666666Y-111233333D01*
X124714285Y-111328571D01*
X124714285Y-111423809D01*
X124238095Y-111519047D01*
D14*
X114178571Y-110007142D02*
X114392857Y-110078571D01*
X114750000Y-110078571D01*
X114892857Y-110007142D01*
X114964285Y-109935714D01*
X115035714Y-109792857D01*
X115035714Y-109650000D01*
X114964285Y-109507142D01*
X114892857Y-109435714D01*
X114750000Y-109364285D01*
X114464285Y-109292857D01*
X114321428Y-109221428D01*
X114250000Y-109150000D01*
X114178571Y-109007142D01*
X114178571Y-108864285D01*
X114250000Y-108721428D01*
X114321428Y-108650000D01*
X114464285Y-108578571D01*
X114821428Y-108578571D01*
X115035714Y-108650000D01*
X115678571Y-110078571D02*
X115678571Y-108578571D01*
X116035714Y-108578571D01*
X116250000Y-108650000D01*
X116392857Y-108792857D01*
X116464285Y-108935714D01*
X116535714Y-109221428D01*
X116535714Y-109435714D01*
X116464285Y-109721428D01*
X116392857Y-109864285D01*
X116250000Y-110007142D01*
X116035714Y-110078571D01*
X115678571Y-110078571D01*
X117678571Y-109292857D02*
X117892857Y-109364285D01*
X117964285Y-109435714D01*
X118035714Y-109578571D01*
X118035714Y-109792857D01*
X117964285Y-109935714D01*
X117892857Y-110007142D01*
X117750000Y-110078571D01*
X117178571Y-110078571D01*
X117178571Y-108578571D01*
X117678571Y-108578571D01*
X117821428Y-108650000D01*
X117892857Y-108721428D01*
X117964285Y-108864285D01*
X117964285Y-109007142D01*
X117892857Y-109150000D01*
X117821428Y-109221428D01*
X117678571Y-109292857D01*
X117178571Y-109292857D01*
X118607142Y-109078571D02*
X119678571Y-109078571D01*
X119035714Y-108435714D02*
X118607142Y-110364285D01*
X119535714Y-109721428D02*
X118464285Y-109721428D01*
X119107142Y-110364285D02*
X119535714Y-108435714D01*
X120464285Y-108578571D02*
X120607142Y-108578571D01*
X120750000Y-108650000D01*
X120821428Y-108721428D01*
X120892857Y-108864285D01*
X120964285Y-109150000D01*
X120964285Y-109507142D01*
X120892857Y-109792857D01*
X120821428Y-109935714D01*
X120750000Y-110007142D01*
X120607142Y-110078571D01*
X120464285Y-110078571D01*
X120321428Y-110007142D01*
X120250000Y-109935714D01*
X120178571Y-109792857D01*
X120107142Y-109507142D01*
X120107142Y-109150000D01*
X120178571Y-108864285D01*
X120250000Y-108721428D01*
X120321428Y-108650000D01*
X120464285Y-108578571D01*
X121535714Y-108721428D02*
X121607142Y-108650000D01*
X121750000Y-108578571D01*
X122107142Y-108578571D01*
X122250000Y-108650000D01*
X122321428Y-108721428D01*
X122392857Y-108864285D01*
X122392857Y-109007142D01*
X122321428Y-109221428D01*
X121464285Y-110078571D01*
X122392857Y-110078571D01*
X122892857Y-108578571D02*
X123892857Y-108578571D01*
X123250000Y-110078571D01*
D15*
G36*
X69446535Y-91133172D02*
G01*
X69559117Y-91730363D01*
X69974531Y-91901610D01*
X70389944Y-92072857D01*
X70888302Y-91733978D01*
X71027868Y-91639622D01*
X71154028Y-91555375D01*
X71260895Y-91485083D01*
X71342582Y-91432592D01*
X71393201Y-91401749D01*
X71406986Y-91395098D01*
X71431820Y-91412203D01*
X71484888Y-91459489D01*
X71560240Y-91530917D01*
X71651929Y-91620445D01*
X71754007Y-91722034D01*
X71860526Y-91829643D01*
X71965536Y-91937232D01*
X72063091Y-92038760D01*
X72147242Y-92128186D01*
X72212040Y-92199471D01*
X72251538Y-92246573D01*
X72260980Y-92262337D01*
X72247391Y-92291398D01*
X72209293Y-92355066D01*
X72150694Y-92447112D01*
X72075597Y-92561309D01*
X71988009Y-92691429D01*
X71937254Y-92765646D01*
X71844745Y-92901167D01*
X71762540Y-93023461D01*
X71694630Y-93126440D01*
X71645000Y-93204018D01*
X71617640Y-93250106D01*
X71613529Y-93259792D01*
X71622849Y-93287319D01*
X71648254Y-93351473D01*
X71685911Y-93443235D01*
X71731986Y-93553584D01*
X71782646Y-93673500D01*
X71834059Y-93793964D01*
X71882389Y-93905954D01*
X71923806Y-94000452D01*
X71954474Y-94068437D01*
X71970562Y-94100888D01*
X71971511Y-94102165D01*
X71996772Y-94108362D01*
X72064046Y-94122185D01*
X72166360Y-94142277D01*
X72296741Y-94167279D01*
X72448216Y-94195831D01*
X72536594Y-94212296D01*
X72698452Y-94243114D01*
X72844649Y-94272439D01*
X72967787Y-94298666D01*
X73060469Y-94320191D01*
X73115301Y-94335410D01*
X73126323Y-94340238D01*
X73137119Y-94372919D01*
X73145829Y-94446730D01*
X73152460Y-94553037D01*
X73157018Y-94683212D01*
X73159509Y-94828621D01*
X73159938Y-94980635D01*
X73158311Y-95130622D01*
X73154635Y-95269951D01*
X73148915Y-95389990D01*
X73141158Y-95482110D01*
X73131368Y-95537677D01*
X73125496Y-95549245D01*
X73090399Y-95563110D01*
X73016028Y-95582933D01*
X72912223Y-95606384D01*
X72788819Y-95631136D01*
X72745741Y-95639143D01*
X72538047Y-95677186D01*
X72373984Y-95707824D01*
X72248130Y-95732274D01*
X72155065Y-95751754D01*
X72089367Y-95767481D01*
X72045617Y-95780673D01*
X72018392Y-95792549D01*
X72002272Y-95804325D01*
X72000017Y-95806653D01*
X71977503Y-95844145D01*
X71943158Y-95917110D01*
X71900411Y-96016612D01*
X71852692Y-96133718D01*
X71803430Y-96259493D01*
X71756055Y-96385002D01*
X71713995Y-96501310D01*
X71680680Y-96599484D01*
X71659541Y-96670588D01*
X71654005Y-96705687D01*
X71654466Y-96706917D01*
X71673223Y-96735606D01*
X71715776Y-96798730D01*
X71777653Y-96889718D01*
X71854382Y-97002000D01*
X71941491Y-97129005D01*
X71966299Y-97165098D01*
X72054753Y-97295948D01*
X72132588Y-97415336D01*
X72195566Y-97516407D01*
X72239445Y-97592304D01*
X72259985Y-97636172D01*
X72260980Y-97641562D01*
X72243722Y-97669889D01*
X72196036Y-97726006D01*
X72124050Y-97803882D01*
X72033897Y-97897485D01*
X71931705Y-98000786D01*
X71823606Y-98107751D01*
X71715728Y-98212351D01*
X71614204Y-98308554D01*
X71525162Y-98390329D01*
X71454733Y-98451645D01*
X71409047Y-98486471D01*
X71396409Y-98492157D01*
X71366991Y-98478765D01*
X71306761Y-98442644D01*
X71225530Y-98389881D01*
X71163030Y-98347412D01*
X71049785Y-98269485D01*
X70915674Y-98177729D01*
X70781155Y-98086120D01*
X70708833Y-98037091D01*
X70464038Y-97871515D01*
X70258551Y-97982620D01*
X70164936Y-98031293D01*
X70085330Y-98069126D01*
X70031467Y-98090703D01*
X70017757Y-98093706D01*
X70001270Y-98071538D01*
X69968745Y-98008894D01*
X69922609Y-97911554D01*
X69865290Y-97785294D01*
X69799216Y-97635895D01*
X69726815Y-97469133D01*
X69650516Y-97290787D01*
X69572746Y-97106636D01*
X69495934Y-96922457D01*
X69422506Y-96744030D01*
X69354892Y-96577132D01*
X69295520Y-96427542D01*
X69246816Y-96301038D01*
X69211210Y-96203399D01*
X69191130Y-96140402D01*
X69187900Y-96118766D01*
X69213496Y-96091169D01*
X69269539Y-96046370D01*
X69344311Y-95993679D01*
X69350587Y-95989510D01*
X69543845Y-95834814D01*
X69699674Y-95654336D01*
X69816724Y-95453847D01*
X69893645Y-95239119D01*
X69929086Y-95015922D01*
X69921697Y-94790026D01*
X69870127Y-94567204D01*
X69773026Y-94353224D01*
X69744458Y-94306409D01*
X69595868Y-94117363D01*
X69420327Y-93965557D01*
X69223910Y-93851779D01*
X69012693Y-93776820D01*
X68792753Y-93741467D01*
X68570163Y-93746512D01*
X68351001Y-93792744D01*
X68141342Y-93880951D01*
X67947261Y-94011924D01*
X67887226Y-94065082D01*
X67734435Y-94231484D01*
X67623097Y-94406657D01*
X67546723Y-94603011D01*
X67504187Y-94797462D01*
X67493686Y-95016087D01*
X67528701Y-95235797D01*
X67605673Y-95449165D01*
X67721047Y-95648767D01*
X67871266Y-95827174D01*
X68052773Y-95976962D01*
X68076627Y-95992751D01*
X68152201Y-96044457D01*
X68209651Y-96089257D01*
X68237117Y-96117862D01*
X68237517Y-96118766D01*
X68231620Y-96149709D01*
X68208245Y-96219936D01*
X68169821Y-96323670D01*
X68118777Y-96455135D01*
X68057542Y-96608552D01*
X67988544Y-96778146D01*
X67914214Y-96958138D01*
X67836978Y-97142753D01*
X67759268Y-97326213D01*
X67683511Y-97502741D01*
X67612137Y-97666559D01*
X67547574Y-97811892D01*
X67492252Y-97932962D01*
X67448600Y-98023992D01*
X67419046Y-98079205D01*
X67407144Y-98093706D01*
X67370777Y-98082414D01*
X67302730Y-98052130D01*
X67214737Y-98008265D01*
X67166351Y-97982620D01*
X66960863Y-97871515D01*
X66716068Y-98037091D01*
X66591106Y-98121915D01*
X66454295Y-98215261D01*
X66326089Y-98303153D01*
X66261871Y-98347412D01*
X66171551Y-98408063D01*
X66095071Y-98456126D01*
X66042407Y-98485515D01*
X66025302Y-98491727D01*
X66000405Y-98474968D01*
X65945305Y-98428181D01*
X65865343Y-98356225D01*
X65765861Y-98263957D01*
X65652200Y-98156235D01*
X65580315Y-98087071D01*
X65454551Y-97963502D01*
X65345863Y-97852979D01*
X65258645Y-97760230D01*
X65197289Y-97689982D01*
X65166191Y-97646965D01*
X65163208Y-97638235D01*
X65177053Y-97605029D01*
X65215312Y-97537887D01*
X65273742Y-97443608D01*
X65348097Y-97328990D01*
X65434135Y-97200828D01*
X65458603Y-97165098D01*
X65547755Y-97035234D01*
X65627738Y-96918314D01*
X65694080Y-96820907D01*
X65742311Y-96749584D01*
X65767957Y-96710915D01*
X65770435Y-96706917D01*
X65766729Y-96676100D01*
X65747061Y-96608344D01*
X65714860Y-96512584D01*
X65673555Y-96397754D01*
X65626575Y-96272789D01*
X65577349Y-96146624D01*
X65529308Y-96028193D01*
X65485881Y-95926430D01*
X65450496Y-95850271D01*
X65426584Y-95808649D01*
X65424884Y-95806653D01*
X65410262Y-95794758D01*
X65385565Y-95782995D01*
X65345372Y-95770146D01*
X65284263Y-95754994D01*
X65196817Y-95736321D01*
X65077612Y-95712910D01*
X64921227Y-95683542D01*
X64722243Y-95647000D01*
X64679160Y-95639143D01*
X64551471Y-95614472D01*
X64440153Y-95590338D01*
X64355045Y-95569069D01*
X64305983Y-95552993D01*
X64299405Y-95549245D01*
X64288564Y-95516018D01*
X64279753Y-95441766D01*
X64272976Y-95335121D01*
X64268240Y-95204712D01*
X64265550Y-95059172D01*
X64264913Y-94907131D01*
X64266334Y-94757221D01*
X64269820Y-94618073D01*
X64275376Y-94498317D01*
X64283008Y-94406586D01*
X64292722Y-94351511D01*
X64298578Y-94340238D01*
X64331180Y-94328868D01*
X64405418Y-94310369D01*
X64513896Y-94286347D01*
X64649217Y-94258407D01*
X64803985Y-94228153D01*
X64888308Y-94212296D01*
X65048296Y-94182389D01*
X65190967Y-94155295D01*
X65309348Y-94132376D01*
X65396465Y-94114988D01*
X65445345Y-94104492D01*
X65453390Y-94102165D01*
X65466987Y-94075931D01*
X65495729Y-94012740D01*
X65535785Y-93921622D01*
X65583324Y-93811602D01*
X65634515Y-93691710D01*
X65685526Y-93570972D01*
X65732526Y-93458416D01*
X65771684Y-93363071D01*
X65799169Y-93293962D01*
X65811149Y-93260119D01*
X65811372Y-93258640D01*
X65797791Y-93231942D01*
X65759715Y-93170505D01*
X65701147Y-93080434D01*
X65626088Y-92967835D01*
X65538540Y-92838815D01*
X65487647Y-92764706D01*
X65394909Y-92628822D01*
X65312541Y-92505454D01*
X65244561Y-92400842D01*
X65194988Y-92321228D01*
X65167842Y-92272852D01*
X65163921Y-92262007D01*
X65180775Y-92236765D01*
X65227368Y-92182869D01*
X65297749Y-92106358D01*
X65385965Y-92013268D01*
X65486065Y-91909640D01*
X65592098Y-91801509D01*
X65698111Y-91694915D01*
X65798152Y-91595895D01*
X65886270Y-91510487D01*
X65956513Y-91444730D01*
X66002928Y-91404661D01*
X66018456Y-91395098D01*
X66043739Y-91408545D01*
X66104211Y-91446320D01*
X66193992Y-91504580D01*
X66307203Y-91579479D01*
X66437964Y-91667170D01*
X66536600Y-91733978D01*
X67034957Y-92072857D01*
X67450371Y-91901610D01*
X67865784Y-91730363D01*
X67978366Y-91133172D01*
X68090949Y-90535980D01*
X69333952Y-90535980D01*
X69446535Y-91133172D01*
G37*
X69446535Y-91133172D02*
X69559117Y-91730363D01*
X69974531Y-91901610D01*
X70389944Y-92072857D01*
X70888302Y-91733978D01*
X71027868Y-91639622D01*
X71154028Y-91555375D01*
X71260895Y-91485083D01*
X71342582Y-91432592D01*
X71393201Y-91401749D01*
X71406986Y-91395098D01*
X71431820Y-91412203D01*
X71484888Y-91459489D01*
X71560240Y-91530917D01*
X71651929Y-91620445D01*
X71754007Y-91722034D01*
X71860526Y-91829643D01*
X71965536Y-91937232D01*
X72063091Y-92038760D01*
X72147242Y-92128186D01*
X72212040Y-92199471D01*
X72251538Y-92246573D01*
X72260980Y-92262337D01*
X72247391Y-92291398D01*
X72209293Y-92355066D01*
X72150694Y-92447112D01*
X72075597Y-92561309D01*
X71988009Y-92691429D01*
X71937254Y-92765646D01*
X71844745Y-92901167D01*
X71762540Y-93023461D01*
X71694630Y-93126440D01*
X71645000Y-93204018D01*
X71617640Y-93250106D01*
X71613529Y-93259792D01*
X71622849Y-93287319D01*
X71648254Y-93351473D01*
X71685911Y-93443235D01*
X71731986Y-93553584D01*
X71782646Y-93673500D01*
X71834059Y-93793964D01*
X71882389Y-93905954D01*
X71923806Y-94000452D01*
X71954474Y-94068437D01*
X71970562Y-94100888D01*
X71971511Y-94102165D01*
X71996772Y-94108362D01*
X72064046Y-94122185D01*
X72166360Y-94142277D01*
X72296741Y-94167279D01*
X72448216Y-94195831D01*
X72536594Y-94212296D01*
X72698452Y-94243114D01*
X72844649Y-94272439D01*
X72967787Y-94298666D01*
X73060469Y-94320191D01*
X73115301Y-94335410D01*
X73126323Y-94340238D01*
X73137119Y-94372919D01*
X73145829Y-94446730D01*
X73152460Y-94553037D01*
X73157018Y-94683212D01*
X73159509Y-94828621D01*
X73159938Y-94980635D01*
X73158311Y-95130622D01*
X73154635Y-95269951D01*
X73148915Y-95389990D01*
X73141158Y-95482110D01*
X73131368Y-95537677D01*
X73125496Y-95549245D01*
X73090399Y-95563110D01*
X73016028Y-95582933D01*
X72912223Y-95606384D01*
X72788819Y-95631136D01*
X72745741Y-95639143D01*
X72538047Y-95677186D01*
X72373984Y-95707824D01*
X72248130Y-95732274D01*
X72155065Y-95751754D01*
X72089367Y-95767481D01*
X72045617Y-95780673D01*
X72018392Y-95792549D01*
X72002272Y-95804325D01*
X72000017Y-95806653D01*
X71977503Y-95844145D01*
X71943158Y-95917110D01*
X71900411Y-96016612D01*
X71852692Y-96133718D01*
X71803430Y-96259493D01*
X71756055Y-96385002D01*
X71713995Y-96501310D01*
X71680680Y-96599484D01*
X71659541Y-96670588D01*
X71654005Y-96705687D01*
X71654466Y-96706917D01*
X71673223Y-96735606D01*
X71715776Y-96798730D01*
X71777653Y-96889718D01*
X71854382Y-97002000D01*
X71941491Y-97129005D01*
X71966299Y-97165098D01*
X72054753Y-97295948D01*
X72132588Y-97415336D01*
X72195566Y-97516407D01*
X72239445Y-97592304D01*
X72259985Y-97636172D01*
X72260980Y-97641562D01*
X72243722Y-97669889D01*
X72196036Y-97726006D01*
X72124050Y-97803882D01*
X72033897Y-97897485D01*
X71931705Y-98000786D01*
X71823606Y-98107751D01*
X71715728Y-98212351D01*
X71614204Y-98308554D01*
X71525162Y-98390329D01*
X71454733Y-98451645D01*
X71409047Y-98486471D01*
X71396409Y-98492157D01*
X71366991Y-98478765D01*
X71306761Y-98442644D01*
X71225530Y-98389881D01*
X71163030Y-98347412D01*
X71049785Y-98269485D01*
X70915674Y-98177729D01*
X70781155Y-98086120D01*
X70708833Y-98037091D01*
X70464038Y-97871515D01*
X70258551Y-97982620D01*
X70164936Y-98031293D01*
X70085330Y-98069126D01*
X70031467Y-98090703D01*
X70017757Y-98093706D01*
X70001270Y-98071538D01*
X69968745Y-98008894D01*
X69922609Y-97911554D01*
X69865290Y-97785294D01*
X69799216Y-97635895D01*
X69726815Y-97469133D01*
X69650516Y-97290787D01*
X69572746Y-97106636D01*
X69495934Y-96922457D01*
X69422506Y-96744030D01*
X69354892Y-96577132D01*
X69295520Y-96427542D01*
X69246816Y-96301038D01*
X69211210Y-96203399D01*
X69191130Y-96140402D01*
X69187900Y-96118766D01*
X69213496Y-96091169D01*
X69269539Y-96046370D01*
X69344311Y-95993679D01*
X69350587Y-95989510D01*
X69543845Y-95834814D01*
X69699674Y-95654336D01*
X69816724Y-95453847D01*
X69893645Y-95239119D01*
X69929086Y-95015922D01*
X69921697Y-94790026D01*
X69870127Y-94567204D01*
X69773026Y-94353224D01*
X69744458Y-94306409D01*
X69595868Y-94117363D01*
X69420327Y-93965557D01*
X69223910Y-93851779D01*
X69012693Y-93776820D01*
X68792753Y-93741467D01*
X68570163Y-93746512D01*
X68351001Y-93792744D01*
X68141342Y-93880951D01*
X67947261Y-94011924D01*
X67887226Y-94065082D01*
X67734435Y-94231484D01*
X67623097Y-94406657D01*
X67546723Y-94603011D01*
X67504187Y-94797462D01*
X67493686Y-95016087D01*
X67528701Y-95235797D01*
X67605673Y-95449165D01*
X67721047Y-95648767D01*
X67871266Y-95827174D01*
X68052773Y-95976962D01*
X68076627Y-95992751D01*
X68152201Y-96044457D01*
X68209651Y-96089257D01*
X68237117Y-96117862D01*
X68237517Y-96118766D01*
X68231620Y-96149709D01*
X68208245Y-96219936D01*
X68169821Y-96323670D01*
X68118777Y-96455135D01*
X68057542Y-96608552D01*
X67988544Y-96778146D01*
X67914214Y-96958138D01*
X67836978Y-97142753D01*
X67759268Y-97326213D01*
X67683511Y-97502741D01*
X67612137Y-97666559D01*
X67547574Y-97811892D01*
X67492252Y-97932962D01*
X67448600Y-98023992D01*
X67419046Y-98079205D01*
X67407144Y-98093706D01*
X67370777Y-98082414D01*
X67302730Y-98052130D01*
X67214737Y-98008265D01*
X67166351Y-97982620D01*
X66960863Y-97871515D01*
X66716068Y-98037091D01*
X66591106Y-98121915D01*
X66454295Y-98215261D01*
X66326089Y-98303153D01*
X66261871Y-98347412D01*
X66171551Y-98408063D01*
X66095071Y-98456126D01*
X66042407Y-98485515D01*
X66025302Y-98491727D01*
X66000405Y-98474968D01*
X65945305Y-98428181D01*
X65865343Y-98356225D01*
X65765861Y-98263957D01*
X65652200Y-98156235D01*
X65580315Y-98087071D01*
X65454551Y-97963502D01*
X65345863Y-97852979D01*
X65258645Y-97760230D01*
X65197289Y-97689982D01*
X65166191Y-97646965D01*
X65163208Y-97638235D01*
X65177053Y-97605029D01*
X65215312Y-97537887D01*
X65273742Y-97443608D01*
X65348097Y-97328990D01*
X65434135Y-97200828D01*
X65458603Y-97165098D01*
X65547755Y-97035234D01*
X65627738Y-96918314D01*
X65694080Y-96820907D01*
X65742311Y-96749584D01*
X65767957Y-96710915D01*
X65770435Y-96706917D01*
X65766729Y-96676100D01*
X65747061Y-96608344D01*
X65714860Y-96512584D01*
X65673555Y-96397754D01*
X65626575Y-96272789D01*
X65577349Y-96146624D01*
X65529308Y-96028193D01*
X65485881Y-95926430D01*
X65450496Y-95850271D01*
X65426584Y-95808649D01*
X65424884Y-95806653D01*
X65410262Y-95794758D01*
X65385565Y-95782995D01*
X65345372Y-95770146D01*
X65284263Y-95754994D01*
X65196817Y-95736321D01*
X65077612Y-95712910D01*
X64921227Y-95683542D01*
X64722243Y-95647000D01*
X64679160Y-95639143D01*
X64551471Y-95614472D01*
X64440153Y-95590338D01*
X64355045Y-95569069D01*
X64305983Y-95552993D01*
X64299405Y-95549245D01*
X64288564Y-95516018D01*
X64279753Y-95441766D01*
X64272976Y-95335121D01*
X64268240Y-95204712D01*
X64265550Y-95059172D01*
X64264913Y-94907131D01*
X64266334Y-94757221D01*
X64269820Y-94618073D01*
X64275376Y-94498317D01*
X64283008Y-94406586D01*
X64292722Y-94351511D01*
X64298578Y-94340238D01*
X64331180Y-94328868D01*
X64405418Y-94310369D01*
X64513896Y-94286347D01*
X64649217Y-94258407D01*
X64803985Y-94228153D01*
X64888308Y-94212296D01*
X65048296Y-94182389D01*
X65190967Y-94155295D01*
X65309348Y-94132376D01*
X65396465Y-94114988D01*
X65445345Y-94104492D01*
X65453390Y-94102165D01*
X65466987Y-94075931D01*
X65495729Y-94012740D01*
X65535785Y-93921622D01*
X65583324Y-93811602D01*
X65634515Y-93691710D01*
X65685526Y-93570972D01*
X65732526Y-93458416D01*
X65771684Y-93363071D01*
X65799169Y-93293962D01*
X65811149Y-93260119D01*
X65811372Y-93258640D01*
X65797791Y-93231942D01*
X65759715Y-93170505D01*
X65701147Y-93080434D01*
X65626088Y-92967835D01*
X65538540Y-92838815D01*
X65487647Y-92764706D01*
X65394909Y-92628822D01*
X65312541Y-92505454D01*
X65244561Y-92400842D01*
X65194988Y-92321228D01*
X65167842Y-92272852D01*
X65163921Y-92262007D01*
X65180775Y-92236765D01*
X65227368Y-92182869D01*
X65297749Y-92106358D01*
X65385965Y-92013268D01*
X65486065Y-91909640D01*
X65592098Y-91801509D01*
X65698111Y-91694915D01*
X65798152Y-91595895D01*
X65886270Y-91510487D01*
X65956513Y-91444730D01*
X66002928Y-91404661D01*
X66018456Y-91395098D01*
X66043739Y-91408545D01*
X66104211Y-91446320D01*
X66193992Y-91504580D01*
X66307203Y-91579479D01*
X66437964Y-91667170D01*
X66536600Y-91733978D01*
X67034957Y-92072857D01*
X67450371Y-91901610D01*
X67865784Y-91730363D01*
X67978366Y-91133172D01*
X68090949Y-90535980D01*
X69333952Y-90535980D01*
X69446535Y-91133172D01*
G36*
X72263637Y-99387472D02*
G01*
X72349290Y-99413641D01*
X72404437Y-99446707D01*
X72422401Y-99472855D01*
X72417457Y-99503852D01*
X72385372Y-99552547D01*
X72358243Y-99587035D01*
X72302317Y-99649383D01*
X72260299Y-99675615D01*
X72224480Y-99673903D01*
X72118224Y-99646863D01*
X72040189Y-99648091D01*
X71976820Y-99678735D01*
X71955546Y-99696670D01*
X71887451Y-99759779D01*
X71887451Y-100583922D01*
X71613529Y-100583922D01*
X71613529Y-99388628D01*
X71750490Y-99388628D01*
X71832719Y-99391879D01*
X71875144Y-99403426D01*
X71887445Y-99425952D01*
X71887451Y-99426620D01*
X71893260Y-99450215D01*
X71919531Y-99447138D01*
X71955931Y-99430115D01*
X72031111Y-99398439D01*
X72092158Y-99379381D01*
X72170708Y-99374496D01*
X72263637Y-99387472D01*
G37*
X72263637Y-99387472D02*
X72349290Y-99413641D01*
X72404437Y-99446707D01*
X72422401Y-99472855D01*
X72417457Y-99503852D01*
X72385372Y-99552547D01*
X72358243Y-99587035D01*
X72302317Y-99649383D01*
X72260299Y-99675615D01*
X72224480Y-99673903D01*
X72118224Y-99646863D01*
X72040189Y-99648091D01*
X71976820Y-99678735D01*
X71955546Y-99696670D01*
X71887451Y-99759779D01*
X71887451Y-100583922D01*
X71613529Y-100583922D01*
X71613529Y-99388628D01*
X71750490Y-99388628D01*
X71832719Y-99391879D01*
X71875144Y-99403426D01*
X71887445Y-99425952D01*
X71887451Y-99426620D01*
X71893260Y-99450215D01*
X71919531Y-99447138D01*
X71955931Y-99430115D01*
X72031111Y-99398439D01*
X72092158Y-99379381D01*
X72170708Y-99374496D01*
X72263637Y-99387472D01*
G36*
X67206760Y-99409199D02*
G01*
X67268736Y-99438802D01*
X67328759Y-99481561D01*
X67374486Y-99530775D01*
X67407793Y-99593544D01*
X67430555Y-99676971D01*
X67444647Y-99788159D01*
X67451942Y-99934209D01*
X67454318Y-100122223D01*
X67454355Y-100141912D01*
X67454902Y-100583922D01*
X67180980Y-100583922D01*
X67180980Y-100176435D01*
X67180785Y-100025471D01*
X67179436Y-99916056D01*
X67175788Y-99839933D01*
X67168696Y-99788848D01*
X67157013Y-99754545D01*
X67139594Y-99728768D01*
X67115329Y-99703298D01*
X67030435Y-99648571D01*
X66937761Y-99638416D01*
X66849473Y-99673017D01*
X66818770Y-99698770D01*
X66796229Y-99722982D01*
X66780046Y-99748912D01*
X66769168Y-99784708D01*
X66762542Y-99838519D01*
X66759115Y-99918493D01*
X66757834Y-100032779D01*
X66757647Y-100171907D01*
X66757647Y-100583922D01*
X66483725Y-100583922D01*
X66483725Y-99388628D01*
X66620686Y-99388628D01*
X66702916Y-99391879D01*
X66745340Y-99403426D01*
X66757641Y-99425952D01*
X66757647Y-99426620D01*
X66763354Y-99448681D01*
X66788527Y-99446177D01*
X66838578Y-99421937D01*
X66952094Y-99386271D01*
X67081945Y-99382305D01*
X67206760Y-99409199D01*
G37*
X67206760Y-99409199D02*
X67268736Y-99438802D01*
X67328759Y-99481561D01*
X67374486Y-99530775D01*
X67407793Y-99593544D01*
X67430555Y-99676971D01*
X67444647Y-99788159D01*
X67451942Y-99934209D01*
X67454318Y-100122223D01*
X67454355Y-100141912D01*
X67454902Y-100583922D01*
X67180980Y-100583922D01*
X67180980Y-100176435D01*
X67180785Y-100025471D01*
X67179436Y-99916056D01*
X67175788Y-99839933D01*
X67168696Y-99788848D01*
X67157013Y-99754545D01*
X67139594Y-99728768D01*
X67115329Y-99703298D01*
X67030435Y-99648571D01*
X66937761Y-99638416D01*
X66849473Y-99673017D01*
X66818770Y-99698770D01*
X66796229Y-99722982D01*
X66780046Y-99748912D01*
X66769168Y-99784708D01*
X66762542Y-99838519D01*
X66759115Y-99918493D01*
X66757834Y-100032779D01*
X66757647Y-100171907D01*
X66757647Y-100583922D01*
X66483725Y-100583922D01*
X66483725Y-99388628D01*
X66620686Y-99388628D01*
X66702916Y-99391879D01*
X66745340Y-99403426D01*
X66757641Y-99425952D01*
X66757647Y-99426620D01*
X66763354Y-99448681D01*
X66788527Y-99446177D01*
X66838578Y-99421937D01*
X66952094Y-99386271D01*
X67081945Y-99382305D01*
X67206760Y-99409199D01*
G36*
X74003287Y-99384355D02*
G01*
X74067051Y-99399845D01*
X74189300Y-99456569D01*
X74293834Y-99543202D01*
X74366180Y-99647074D01*
X74376119Y-99670396D01*
X74389754Y-99731484D01*
X74399298Y-99821853D01*
X74402549Y-99913190D01*
X74402549Y-100085882D01*
X74041470Y-100085882D01*
X73892546Y-100086445D01*
X73787632Y-100089864D01*
X73720937Y-100098731D01*
X73686666Y-100115641D01*
X73679028Y-100143189D01*
X73692229Y-100183968D01*
X73715877Y-100231683D01*
X73781843Y-100311314D01*
X73873512Y-100350987D01*
X73985555Y-100349695D01*
X74112472Y-100306514D01*
X74222158Y-100253224D01*
X74313173Y-100325191D01*
X74404188Y-100397157D01*
X74318563Y-100476269D01*
X74204250Y-100551017D01*
X74063666Y-100596084D01*
X73912449Y-100608696D01*
X73766236Y-100586079D01*
X73742647Y-100578405D01*
X73614141Y-100511296D01*
X73518551Y-100411247D01*
X73453861Y-100275271D01*
X73418057Y-100100380D01*
X73417640Y-100096632D01*
X73414434Y-99906032D01*
X73427393Y-99838035D01*
X73680392Y-99838035D01*
X73703627Y-99848491D01*
X73766710Y-99856500D01*
X73859706Y-99861073D01*
X73918638Y-99861765D01*
X74028537Y-99861332D01*
X74097252Y-99858578D01*
X74133405Y-99851321D01*
X74145615Y-99837376D01*
X74142504Y-99814562D01*
X74139894Y-99805735D01*
X74095344Y-99722800D01*
X74025279Y-99655960D01*
X73963446Y-99626589D01*
X73881301Y-99628362D01*
X73798062Y-99664990D01*
X73728238Y-99725634D01*
X73686337Y-99799456D01*
X73680392Y-99838035D01*
X73427393Y-99838035D01*
X73446385Y-99738395D01*
X73509773Y-99597711D01*
X73600878Y-99487974D01*
X73715978Y-99413174D01*
X73851355Y-99377304D01*
X74003287Y-99384355D01*
G37*
X74003287Y-99384355D02*
X74067051Y-99399845D01*
X74189300Y-99456569D01*
X74293834Y-99543202D01*
X74366180Y-99647074D01*
X74376119Y-99670396D01*
X74389754Y-99731484D01*
X74399298Y-99821853D01*
X74402549Y-99913190D01*
X74402549Y-100085882D01*
X74041470Y-100085882D01*
X73892546Y-100086445D01*
X73787632Y-100089864D01*
X73720937Y-100098731D01*
X73686666Y-100115641D01*
X73679028Y-100143189D01*
X73692229Y-100183968D01*
X73715877Y-100231683D01*
X73781843Y-100311314D01*
X73873512Y-100350987D01*
X73985555Y-100349695D01*
X74112472Y-100306514D01*
X74222158Y-100253224D01*
X74313173Y-100325191D01*
X74404188Y-100397157D01*
X74318563Y-100476269D01*
X74204250Y-100551017D01*
X74063666Y-100596084D01*
X73912449Y-100608696D01*
X73766236Y-100586079D01*
X73742647Y-100578405D01*
X73614141Y-100511296D01*
X73518551Y-100411247D01*
X73453861Y-100275271D01*
X73418057Y-100100380D01*
X73417640Y-100096632D01*
X73414434Y-99906032D01*
X73427393Y-99838035D01*
X73680392Y-99838035D01*
X73703627Y-99848491D01*
X73766710Y-99856500D01*
X73859706Y-99861073D01*
X73918638Y-99861765D01*
X74028537Y-99861332D01*
X74097252Y-99858578D01*
X74133405Y-99851321D01*
X74145615Y-99837376D01*
X74142504Y-99814562D01*
X74139894Y-99805735D01*
X74095344Y-99722800D01*
X74025279Y-99655960D01*
X73963446Y-99626589D01*
X73881301Y-99628362D01*
X73798062Y-99664990D01*
X73728238Y-99725634D01*
X73686337Y-99799456D01*
X73680392Y-99838035D01*
X73427393Y-99838035D01*
X73446385Y-99738395D01*
X73509773Y-99597711D01*
X73600878Y-99487974D01*
X73715978Y-99413174D01*
X73851355Y-99377304D01*
X74003287Y-99384355D01*
G36*
X73090976Y-99399056D02*
G01*
X73235256Y-99460348D01*
X73280699Y-99490185D01*
X73338779Y-99536036D01*
X73375238Y-99572089D01*
X73381568Y-99583832D01*
X73363693Y-99609889D01*
X73317950Y-99654105D01*
X73281328Y-99684965D01*
X73181088Y-99765520D01*
X73101935Y-99698918D01*
X73040769Y-99655921D01*
X72981129Y-99641079D01*
X72912872Y-99644704D01*
X72804482Y-99671652D01*
X72729872Y-99727587D01*
X72684530Y-99818014D01*
X72663947Y-99948435D01*
X72663942Y-99948517D01*
X72665722Y-100094290D01*
X72693387Y-100201245D01*
X72748571Y-100274064D01*
X72786192Y-100298723D01*
X72886105Y-100329431D01*
X72992822Y-100329449D01*
X73085669Y-100299655D01*
X73107647Y-100285098D01*
X73162765Y-100247914D01*
X73205859Y-100241820D01*
X73252335Y-100269496D01*
X73303716Y-100319205D01*
X73385046Y-100403116D01*
X73294749Y-100477546D01*
X73155236Y-100561549D01*
X72997912Y-100602947D01*
X72833503Y-100599950D01*
X72725531Y-100572500D01*
X72599331Y-100504620D01*
X72498401Y-100397831D01*
X72452548Y-100322451D01*
X72415410Y-100214297D01*
X72396827Y-100077318D01*
X72396684Y-99928864D01*
X72414865Y-99786281D01*
X72451255Y-99666918D01*
X72456987Y-99654680D01*
X72541865Y-99534655D01*
X72656782Y-99447267D01*
X72792659Y-99394329D01*
X72940417Y-99377654D01*
X73090976Y-99399056D01*
G37*
X73090976Y-99399056D02*
X73235256Y-99460348D01*
X73280699Y-99490185D01*
X73338779Y-99536036D01*
X73375238Y-99572089D01*
X73381568Y-99583832D01*
X73363693Y-99609889D01*
X73317950Y-99654105D01*
X73281328Y-99684965D01*
X73181088Y-99765520D01*
X73101935Y-99698918D01*
X73040769Y-99655921D01*
X72981129Y-99641079D01*
X72912872Y-99644704D01*
X72804482Y-99671652D01*
X72729872Y-99727587D01*
X72684530Y-99818014D01*
X72663947Y-99948435D01*
X72663942Y-99948517D01*
X72665722Y-100094290D01*
X72693387Y-100201245D01*
X72748571Y-100274064D01*
X72786192Y-100298723D01*
X72886105Y-100329431D01*
X72992822Y-100329449D01*
X73085669Y-100299655D01*
X73107647Y-100285098D01*
X73162765Y-100247914D01*
X73205859Y-100241820D01*
X73252335Y-100269496D01*
X73303716Y-100319205D01*
X73385046Y-100403116D01*
X73294749Y-100477546D01*
X73155236Y-100561549D01*
X72997912Y-100602947D01*
X72833503Y-100599950D01*
X72725531Y-100572500D01*
X72599331Y-100504620D01*
X72498401Y-100397831D01*
X72452548Y-100322451D01*
X72415410Y-100214297D01*
X72396827Y-100077318D01*
X72396684Y-99928864D01*
X72414865Y-99786281D01*
X72451255Y-99666918D01*
X72456987Y-99654680D01*
X72541865Y-99534655D01*
X72656782Y-99447267D01*
X72792659Y-99394329D01*
X72940417Y-99377654D01*
X73090976Y-99399056D01*
G36*
X70667254Y-99776245D02*
G01*
X70669608Y-99958879D01*
X70678207Y-100097600D01*
X70695360Y-100198147D01*
X70723374Y-100266254D01*
X70764557Y-100307659D01*
X70821217Y-100328097D01*
X70891372Y-100333318D01*
X70964848Y-100327468D01*
X71020657Y-100306093D01*
X71061109Y-100263458D01*
X71088509Y-100193825D01*
X71105167Y-100091460D01*
X71113389Y-99950624D01*
X71115490Y-99776245D01*
X71115490Y-99388628D01*
X71389411Y-99388628D01*
X71389411Y-100583922D01*
X71252451Y-100583922D01*
X71169884Y-100580576D01*
X71127368Y-100568826D01*
X71115490Y-100546520D01*
X71108336Y-100526654D01*
X71079865Y-100530857D01*
X71022476Y-100558971D01*
X70890945Y-100602342D01*
X70751438Y-100599270D01*
X70617765Y-100552174D01*
X70554108Y-100514971D01*
X70505553Y-100474691D01*
X70470081Y-100424291D01*
X70445674Y-100356729D01*
X70430313Y-100264965D01*
X70421982Y-100141955D01*
X70418662Y-99980659D01*
X70418235Y-99855928D01*
X70418235Y-99388628D01*
X70667254Y-99388628D01*
X70667254Y-99776245D01*
G37*
X70667254Y-99776245D02*
X70669608Y-99958879D01*
X70678207Y-100097600D01*
X70695360Y-100198147D01*
X70723374Y-100266254D01*
X70764557Y-100307659D01*
X70821217Y-100328097D01*
X70891372Y-100333318D01*
X70964848Y-100327468D01*
X71020657Y-100306093D01*
X71061109Y-100263458D01*
X71088509Y-100193825D01*
X71105167Y-100091460D01*
X71113389Y-99950624D01*
X71115490Y-99776245D01*
X71115490Y-99388628D01*
X71389411Y-99388628D01*
X71389411Y-100583922D01*
X71252451Y-100583922D01*
X71169884Y-100580576D01*
X71127368Y-100568826D01*
X71115490Y-100546520D01*
X71108336Y-100526654D01*
X71079865Y-100530857D01*
X71022476Y-100558971D01*
X70890945Y-100602342D01*
X70751438Y-100599270D01*
X70617765Y-100552174D01*
X70554108Y-100514971D01*
X70505553Y-100474691D01*
X70470081Y-100424291D01*
X70445674Y-100356729D01*
X70430313Y-100264965D01*
X70421982Y-100141955D01*
X70418662Y-99980659D01*
X70418235Y-99855928D01*
X70418235Y-99388628D01*
X70667254Y-99388628D01*
X70667254Y-99776245D01*
G36*
X69909547Y-99403364D02*
G01*
X70035502Y-99471959D01*
X70134047Y-99580245D01*
X70180478Y-99668315D01*
X70200412Y-99746101D01*
X70213328Y-99856993D01*
X70218863Y-99984738D01*
X70216654Y-100113084D01*
X70206337Y-100225779D01*
X70194286Y-100285969D01*
X70153634Y-100368311D01*
X70083230Y-100455770D01*
X69998382Y-100532251D01*
X69914397Y-100581655D01*
X69912349Y-100582439D01*
X69808134Y-100604027D01*
X69684627Y-100604562D01*
X69567261Y-100584908D01*
X69521942Y-100569155D01*
X69405220Y-100502966D01*
X69321624Y-100416246D01*
X69266701Y-100301438D01*
X69235995Y-100150982D01*
X69229047Y-100072173D01*
X69229933Y-99973145D01*
X69496862Y-99973145D01*
X69505854Y-100117645D01*
X69531736Y-100227760D01*
X69572868Y-100298116D01*
X69602172Y-100318235D01*
X69677251Y-100332265D01*
X69766494Y-100328111D01*
X69843650Y-100307922D01*
X69863883Y-100296815D01*
X69917265Y-100232123D01*
X69952500Y-100133119D01*
X69967498Y-100012632D01*
X69960172Y-99883494D01*
X69943799Y-99805775D01*
X69896790Y-99715771D01*
X69822582Y-99659509D01*
X69733209Y-99640057D01*
X69640707Y-99660481D01*
X69569653Y-99710437D01*
X69532312Y-99751655D01*
X69510518Y-99792281D01*
X69500130Y-99847264D01*
X69497006Y-99931549D01*
X69496862Y-99973145D01*
X69229933Y-99973145D01*
X69230930Y-99861874D01*
X69265180Y-99689423D01*
X69331802Y-99554814D01*
X69430799Y-99458040D01*
X69562175Y-99399094D01*
X69590385Y-99392259D01*
X69759926Y-99376213D01*
X69909547Y-99403364D01*
G37*
X69909547Y-99403364D02*
X70035502Y-99471959D01*
X70134047Y-99580245D01*
X70180478Y-99668315D01*
X70200412Y-99746101D01*
X70213328Y-99856993D01*
X70218863Y-99984738D01*
X70216654Y-100113084D01*
X70206337Y-100225779D01*
X70194286Y-100285969D01*
X70153634Y-100368311D01*
X70083230Y-100455770D01*
X69998382Y-100532251D01*
X69914397Y-100581655D01*
X69912349Y-100582439D01*
X69808134Y-100604027D01*
X69684627Y-100604562D01*
X69567261Y-100584908D01*
X69521942Y-100569155D01*
X69405220Y-100502966D01*
X69321624Y-100416246D01*
X69266701Y-100301438D01*
X69235995Y-100150982D01*
X69229047Y-100072173D01*
X69229933Y-99973145D01*
X69496862Y-99973145D01*
X69505854Y-100117645D01*
X69531736Y-100227760D01*
X69572868Y-100298116D01*
X69602172Y-100318235D01*
X69677251Y-100332265D01*
X69766494Y-100328111D01*
X69843650Y-100307922D01*
X69863883Y-100296815D01*
X69917265Y-100232123D01*
X69952500Y-100133119D01*
X69967498Y-100012632D01*
X69960172Y-99883494D01*
X69943799Y-99805775D01*
X69896790Y-99715771D01*
X69822582Y-99659509D01*
X69733209Y-99640057D01*
X69640707Y-99660481D01*
X69569653Y-99710437D01*
X69532312Y-99751655D01*
X69510518Y-99792281D01*
X69500130Y-99847264D01*
X69497006Y-99931549D01*
X69496862Y-99973145D01*
X69229933Y-99973145D01*
X69230930Y-99861874D01*
X69265180Y-99689423D01*
X69331802Y-99554814D01*
X69430799Y-99458040D01*
X69562175Y-99399094D01*
X69590385Y-99392259D01*
X69759926Y-99376213D01*
X69909547Y-99403364D01*
G36*
X68727759Y-99384345D02*
G01*
X68822059Y-99402229D01*
X68919890Y-99439633D01*
X68930343Y-99444402D01*
X69004531Y-99483412D01*
X69055910Y-99519664D01*
X69072517Y-99542887D01*
X69056702Y-99580761D01*
X69018288Y-99636644D01*
X69001237Y-99657505D01*
X68930969Y-99739618D01*
X68840379Y-99686168D01*
X68754164Y-99650561D01*
X68654549Y-99631529D01*
X68559019Y-99630326D01*
X68485061Y-99648210D01*
X68467312Y-99659373D01*
X68433512Y-99710553D01*
X68429404Y-99769509D01*
X68454696Y-99815567D01*
X68469656Y-99824499D01*
X68514486Y-99835592D01*
X68593286Y-99848630D01*
X68690426Y-99861088D01*
X68708346Y-99863042D01*
X68864365Y-99890030D01*
X68977523Y-99935873D01*
X69052569Y-100004803D01*
X69094253Y-100101054D01*
X69107238Y-100218617D01*
X69089299Y-100352254D01*
X69031050Y-100457195D01*
X68932255Y-100533630D01*
X68792682Y-100581748D01*
X68637745Y-100600732D01*
X68511398Y-100600504D01*
X68408913Y-100583262D01*
X68338921Y-100559457D01*
X68250483Y-100517978D01*
X68168754Y-100469842D01*
X68139705Y-100448655D01*
X68065000Y-100387676D01*
X68155098Y-100296508D01*
X68245196Y-100205339D01*
X68347632Y-100273128D01*
X68450374Y-100324042D01*
X68560087Y-100350673D01*
X68665551Y-100353483D01*
X68755546Y-100332935D01*
X68818854Y-100289493D01*
X68839296Y-100252838D01*
X68836229Y-100194053D01*
X68785434Y-100149099D01*
X68687048Y-100118057D01*
X68579256Y-100103710D01*
X68413365Y-100076337D01*
X68290124Y-100024693D01*
X68207886Y-99947266D01*
X68165001Y-99842544D01*
X68159060Y-99718387D01*
X68188406Y-99588702D01*
X68255309Y-99490677D01*
X68360371Y-99423866D01*
X68504190Y-99387820D01*
X68610738Y-99380754D01*
X68727759Y-99384345D01*
G37*
X68727759Y-99384345D02*
X68822059Y-99402229D01*
X68919890Y-99439633D01*
X68930343Y-99444402D01*
X69004531Y-99483412D01*
X69055910Y-99519664D01*
X69072517Y-99542887D01*
X69056702Y-99580761D01*
X69018288Y-99636644D01*
X69001237Y-99657505D01*
X68930969Y-99739618D01*
X68840379Y-99686168D01*
X68754164Y-99650561D01*
X68654549Y-99631529D01*
X68559019Y-99630326D01*
X68485061Y-99648210D01*
X68467312Y-99659373D01*
X68433512Y-99710553D01*
X68429404Y-99769509D01*
X68454696Y-99815567D01*
X68469656Y-99824499D01*
X68514486Y-99835592D01*
X68593286Y-99848630D01*
X68690426Y-99861088D01*
X68708346Y-99863042D01*
X68864365Y-99890030D01*
X68977523Y-99935873D01*
X69052569Y-100004803D01*
X69094253Y-100101054D01*
X69107238Y-100218617D01*
X69089299Y-100352254D01*
X69031050Y-100457195D01*
X68932255Y-100533630D01*
X68792682Y-100581748D01*
X68637745Y-100600732D01*
X68511398Y-100600504D01*
X68408913Y-100583262D01*
X68338921Y-100559457D01*
X68250483Y-100517978D01*
X68168754Y-100469842D01*
X68139705Y-100448655D01*
X68065000Y-100387676D01*
X68155098Y-100296508D01*
X68245196Y-100205339D01*
X68347632Y-100273128D01*
X68450374Y-100324042D01*
X68560087Y-100350673D01*
X68665551Y-100353483D01*
X68755546Y-100332935D01*
X68818854Y-100289493D01*
X68839296Y-100252838D01*
X68836229Y-100194053D01*
X68785434Y-100149099D01*
X68687048Y-100118057D01*
X68579256Y-100103710D01*
X68413365Y-100076337D01*
X68290124Y-100024693D01*
X68207886Y-99947266D01*
X68165001Y-99842544D01*
X68159060Y-99718387D01*
X68188406Y-99588702D01*
X68255309Y-99490677D01*
X68360371Y-99423866D01*
X68504190Y-99387820D01*
X68610738Y-99380754D01*
X68727759Y-99384345D01*
G36*
X66013204Y-99416354D02*
G01*
X66038019Y-99428037D01*
X66123906Y-99490951D01*
X66205121Y-99582769D01*
X66265764Y-99683868D01*
X66283012Y-99730349D01*
X66298749Y-99813376D01*
X66308133Y-99913713D01*
X66309272Y-99955147D01*
X66309411Y-100085882D01*
X65556953Y-100085882D01*
X65572993Y-100154363D01*
X65612363Y-100235355D01*
X65681194Y-100305351D01*
X65763081Y-100350441D01*
X65815263Y-100359804D01*
X65886029Y-100348441D01*
X65970460Y-100319943D01*
X65999142Y-100306831D01*
X66105209Y-100253858D01*
X66195728Y-100322901D01*
X66247961Y-100369597D01*
X66275753Y-100408140D01*
X66277160Y-100419452D01*
X66252332Y-100446868D01*
X66197917Y-100488532D01*
X66148528Y-100521037D01*
X66015252Y-100579468D01*
X65865839Y-100605915D01*
X65717751Y-100599039D01*
X65599705Y-100563096D01*
X65478018Y-100486101D01*
X65391540Y-100384728D01*
X65337441Y-100253570D01*
X65312891Y-100087224D01*
X65310714Y-100011108D01*
X65319427Y-99836685D01*
X65320497Y-99831611D01*
X65569827Y-99831611D01*
X65576694Y-99847968D01*
X65604917Y-99856988D01*
X65663127Y-99860854D01*
X65759958Y-99861749D01*
X65797243Y-99861765D01*
X65910683Y-99860413D01*
X65982622Y-99855505D01*
X66021313Y-99845760D01*
X66035005Y-99829899D01*
X66035490Y-99824805D01*
X66019863Y-99784326D01*
X65980753Y-99727621D01*
X65963939Y-99707766D01*
X65901519Y-99651611D01*
X65836453Y-99629532D01*
X65801397Y-99627686D01*
X65706558Y-99650766D01*
X65627027Y-99712759D01*
X65576577Y-99802802D01*
X65575683Y-99805735D01*
X65569827Y-99831611D01*
X65320497Y-99831611D01*
X65348399Y-99699343D01*
X65400590Y-99589461D01*
X65464421Y-99511461D01*
X65582433Y-99426882D01*
X65721158Y-99381686D01*
X65868710Y-99377600D01*
X66013204Y-99416354D01*
G37*
X66013204Y-99416354D02*
X66038019Y-99428037D01*
X66123906Y-99490951D01*
X66205121Y-99582769D01*
X66265764Y-99683868D01*
X66283012Y-99730349D01*
X66298749Y-99813376D01*
X66308133Y-99913713D01*
X66309272Y-99955147D01*
X66309411Y-100085882D01*
X65556953Y-100085882D01*
X65572993Y-100154363D01*
X65612363Y-100235355D01*
X65681194Y-100305351D01*
X65763081Y-100350441D01*
X65815263Y-100359804D01*
X65886029Y-100348441D01*
X65970460Y-100319943D01*
X65999142Y-100306831D01*
X66105209Y-100253858D01*
X66195728Y-100322901D01*
X66247961Y-100369597D01*
X66275753Y-100408140D01*
X66277160Y-100419452D01*
X66252332Y-100446868D01*
X66197917Y-100488532D01*
X66148528Y-100521037D01*
X66015252Y-100579468D01*
X65865839Y-100605915D01*
X65717751Y-100599039D01*
X65599705Y-100563096D01*
X65478018Y-100486101D01*
X65391540Y-100384728D01*
X65337441Y-100253570D01*
X65312891Y-100087224D01*
X65310714Y-100011108D01*
X65319427Y-99836685D01*
X65320497Y-99831611D01*
X65569827Y-99831611D01*
X65576694Y-99847968D01*
X65604917Y-99856988D01*
X65663127Y-99860854D01*
X65759958Y-99861749D01*
X65797243Y-99861765D01*
X65910683Y-99860413D01*
X65982622Y-99855505D01*
X66021313Y-99845760D01*
X66035005Y-99829899D01*
X66035490Y-99824805D01*
X66019863Y-99784326D01*
X65980753Y-99727621D01*
X65963939Y-99707766D01*
X65901519Y-99651611D01*
X65836453Y-99629532D01*
X65801397Y-99627686D01*
X65706558Y-99650766D01*
X65627027Y-99712759D01*
X65576577Y-99802802D01*
X65575683Y-99805735D01*
X65569827Y-99831611D01*
X65320497Y-99831611D01*
X65348399Y-99699343D01*
X65400590Y-99589461D01*
X65464421Y-99511461D01*
X65582433Y-99426882D01*
X65721158Y-99381686D01*
X65868710Y-99377600D01*
X66013204Y-99416354D01*
G36*
X63673247Y-99401568D02*
G01*
X63803522Y-99459163D01*
X63902419Y-99555334D01*
X63970082Y-99690229D01*
X64006655Y-99863996D01*
X64009276Y-99891126D01*
X64011330Y-100082408D01*
X63984699Y-100250073D01*
X63931001Y-100385967D01*
X63902247Y-100429681D01*
X63802091Y-100522198D01*
X63674537Y-100582119D01*
X63531837Y-100606985D01*
X63386240Y-100594339D01*
X63275562Y-100555391D01*
X63180384Y-100489755D01*
X63102594Y-100403699D01*
X63101249Y-100401685D01*
X63069657Y-100348570D01*
X63049127Y-100295160D01*
X63036695Y-100227754D01*
X63029397Y-100132653D01*
X63026182Y-100054666D01*
X63024844Y-99983944D01*
X63273814Y-99983944D01*
X63276247Y-100054348D01*
X63285080Y-100148068D01*
X63300664Y-100208214D01*
X63328766Y-100251006D01*
X63355086Y-100276002D01*
X63448392Y-100328338D01*
X63546020Y-100335333D01*
X63636942Y-100297676D01*
X63682402Y-100255479D01*
X63715162Y-100212956D01*
X63734323Y-100172267D01*
X63742733Y-100119314D01*
X63743237Y-100039997D01*
X63740645Y-99966950D01*
X63735071Y-99862601D01*
X63726234Y-99794920D01*
X63710307Y-99750774D01*
X63683462Y-99717031D01*
X63662189Y-99697746D01*
X63573206Y-99647086D01*
X63477211Y-99644560D01*
X63396719Y-99674567D01*
X63328053Y-99737231D01*
X63287144Y-99840168D01*
X63273814Y-99983944D01*
X63024844Y-99983944D01*
X63023246Y-99899582D01*
X63028260Y-99783600D01*
X63043283Y-99696367D01*
X63070376Y-99627530D01*
X63111600Y-99566737D01*
X63126885Y-99548686D01*
X63222454Y-99458746D01*
X63324961Y-99406211D01*
X63450321Y-99384201D01*
X63511450Y-99382402D01*
X63673247Y-99401568D01*
G37*
X63673247Y-99401568D02*
X63803522Y-99459163D01*
X63902419Y-99555334D01*
X63970082Y-99690229D01*
X64006655Y-99863996D01*
X64009276Y-99891126D01*
X64011330Y-100082408D01*
X63984699Y-100250073D01*
X63931001Y-100385967D01*
X63902247Y-100429681D01*
X63802091Y-100522198D01*
X63674537Y-100582119D01*
X63531837Y-100606985D01*
X63386240Y-100594339D01*
X63275562Y-100555391D01*
X63180384Y-100489755D01*
X63102594Y-100403699D01*
X63101249Y-100401685D01*
X63069657Y-100348570D01*
X63049127Y-100295160D01*
X63036695Y-100227754D01*
X63029397Y-100132653D01*
X63026182Y-100054666D01*
X63024844Y-99983944D01*
X63273814Y-99983944D01*
X63276247Y-100054348D01*
X63285080Y-100148068D01*
X63300664Y-100208214D01*
X63328766Y-100251006D01*
X63355086Y-100276002D01*
X63448392Y-100328338D01*
X63546020Y-100335333D01*
X63636942Y-100297676D01*
X63682402Y-100255479D01*
X63715162Y-100212956D01*
X63734323Y-100172267D01*
X63742733Y-100119314D01*
X63743237Y-100039997D01*
X63740645Y-99966950D01*
X63735071Y-99862601D01*
X63726234Y-99794920D01*
X63710307Y-99750774D01*
X63683462Y-99717031D01*
X63662189Y-99697746D01*
X63573206Y-99647086D01*
X63477211Y-99644560D01*
X63396719Y-99674567D01*
X63328053Y-99737231D01*
X63287144Y-99840168D01*
X63273814Y-99983944D01*
X63024844Y-99983944D01*
X63023246Y-99899582D01*
X63028260Y-99783600D01*
X63043283Y-99696367D01*
X63070376Y-99627530D01*
X63111600Y-99566737D01*
X63126885Y-99548686D01*
X63222454Y-99458746D01*
X63324961Y-99406211D01*
X63450321Y-99384201D01*
X63511450Y-99382402D01*
X63673247Y-99401568D01*
G36*
X72725307Y-101262784D02*
G01*
X72844337Y-101293731D01*
X72944021Y-101357600D01*
X72992288Y-101405313D01*
X73071408Y-101518106D01*
X73116752Y-101648950D01*
X73132330Y-101809792D01*
X73132410Y-101822794D01*
X73132549Y-101953530D01*
X72380091Y-101953530D01*
X72396130Y-102022010D01*
X72425091Y-102084031D01*
X72475778Y-102148654D01*
X72486379Y-102158971D01*
X72577494Y-102214805D01*
X72681400Y-102224275D01*
X72801000Y-102187540D01*
X72821274Y-102177647D01*
X72883456Y-102147574D01*
X72925106Y-102130440D01*
X72932373Y-102128855D01*
X72957740Y-102144242D01*
X73006120Y-102181887D01*
X73030679Y-102202459D01*
X73081570Y-102249714D01*
X73098281Y-102280917D01*
X73086683Y-102309620D01*
X73080483Y-102317468D01*
X73038493Y-102351819D01*
X72969206Y-102393565D01*
X72920882Y-102417935D01*
X72783711Y-102460873D01*
X72631847Y-102474786D01*
X72488024Y-102458300D01*
X72447745Y-102446496D01*
X72323078Y-102379689D01*
X72230671Y-102276892D01*
X72169990Y-102137105D01*
X72140498Y-101959330D01*
X72137260Y-101866373D01*
X72146714Y-101731033D01*
X72385490Y-101731033D01*
X72408584Y-101741038D01*
X72470662Y-101748888D01*
X72560914Y-101753521D01*
X72622058Y-101754314D01*
X72732040Y-101753549D01*
X72801457Y-101749970D01*
X72839538Y-101741649D01*
X72855515Y-101726657D01*
X72858627Y-101704903D01*
X72837278Y-101637892D01*
X72783529Y-101571664D01*
X72712822Y-101520832D01*
X72642089Y-101500038D01*
X72546016Y-101518484D01*
X72462849Y-101571811D01*
X72405186Y-101648677D01*
X72385490Y-101731033D01*
X72146714Y-101731033D01*
X72151028Y-101669291D01*
X72193520Y-101512271D01*
X72265635Y-101394069D01*
X72368273Y-101313440D01*
X72502332Y-101269139D01*
X72574957Y-101260607D01*
X72725307Y-101262784D01*
G37*
X72725307Y-101262784D02*
X72844337Y-101293731D01*
X72944021Y-101357600D01*
X72992288Y-101405313D01*
X73071408Y-101518106D01*
X73116752Y-101648950D01*
X73132330Y-101809792D01*
X73132410Y-101822794D01*
X73132549Y-101953530D01*
X72380091Y-101953530D01*
X72396130Y-102022010D01*
X72425091Y-102084031D01*
X72475778Y-102148654D01*
X72486379Y-102158971D01*
X72577494Y-102214805D01*
X72681400Y-102224275D01*
X72801000Y-102187540D01*
X72821274Y-102177647D01*
X72883456Y-102147574D01*
X72925106Y-102130440D01*
X72932373Y-102128855D01*
X72957740Y-102144242D01*
X73006120Y-102181887D01*
X73030679Y-102202459D01*
X73081570Y-102249714D01*
X73098281Y-102280917D01*
X73086683Y-102309620D01*
X73080483Y-102317468D01*
X73038493Y-102351819D01*
X72969206Y-102393565D01*
X72920882Y-102417935D01*
X72783711Y-102460873D01*
X72631847Y-102474786D01*
X72488024Y-102458300D01*
X72447745Y-102446496D01*
X72323078Y-102379689D01*
X72230671Y-102276892D01*
X72169990Y-102137105D01*
X72140498Y-101959330D01*
X72137260Y-101866373D01*
X72146714Y-101731033D01*
X72385490Y-101731033D01*
X72408584Y-101741038D01*
X72470662Y-101748888D01*
X72560914Y-101753521D01*
X72622058Y-101754314D01*
X72732040Y-101753549D01*
X72801457Y-101749970D01*
X72839538Y-101741649D01*
X72855515Y-101726657D01*
X72858627Y-101704903D01*
X72837278Y-101637892D01*
X72783529Y-101571664D01*
X72712822Y-101520832D01*
X72642089Y-101500038D01*
X72546016Y-101518484D01*
X72462849Y-101571811D01*
X72405186Y-101648677D01*
X72385490Y-101731033D01*
X72146714Y-101731033D01*
X72151028Y-101669291D01*
X72193520Y-101512271D01*
X72265635Y-101394069D01*
X72368273Y-101313440D01*
X72502332Y-101269139D01*
X72574957Y-101260607D01*
X72725307Y-101262784D01*
G36*
X71938446Y-101255883D02*
G01*
X72034177Y-101274755D01*
X72088677Y-101302699D01*
X72146008Y-101349123D01*
X72064441Y-101452111D01*
X72014150Y-101514479D01*
X71980001Y-101544907D01*
X71946063Y-101549555D01*
X71896406Y-101534586D01*
X71873096Y-101526117D01*
X71778063Y-101513622D01*
X71691032Y-101540406D01*
X71627138Y-101600915D01*
X71616759Y-101620208D01*
X71605456Y-101671314D01*
X71596732Y-101765500D01*
X71590997Y-101896089D01*
X71588660Y-102056405D01*
X71588627Y-102079211D01*
X71588627Y-102476471D01*
X71314705Y-102476471D01*
X71314705Y-101256275D01*
X71451666Y-101256275D01*
X71530638Y-101258337D01*
X71571779Y-101267513D01*
X71586992Y-101288290D01*
X71588627Y-101307886D01*
X71588627Y-101359497D01*
X71654240Y-101307886D01*
X71729475Y-101272675D01*
X71830544Y-101255265D01*
X71938446Y-101255883D01*
G37*
X71938446Y-101255883D02*
X72034177Y-101274755D01*
X72088677Y-101302699D01*
X72146008Y-101349123D01*
X72064441Y-101452111D01*
X72014150Y-101514479D01*
X71980001Y-101544907D01*
X71946063Y-101549555D01*
X71896406Y-101534586D01*
X71873096Y-101526117D01*
X71778063Y-101513622D01*
X71691032Y-101540406D01*
X71627138Y-101600915D01*
X71616759Y-101620208D01*
X71605456Y-101671314D01*
X71596732Y-101765500D01*
X71590997Y-101896089D01*
X71588660Y-102056405D01*
X71588627Y-102079211D01*
X71588627Y-102476471D01*
X71314705Y-102476471D01*
X71314705Y-101256275D01*
X71451666Y-101256275D01*
X71530638Y-101258337D01*
X71571779Y-101267513D01*
X71586992Y-101288290D01*
X71588627Y-101307886D01*
X71588627Y-101359497D01*
X71654240Y-101307886D01*
X71729475Y-101272675D01*
X71830544Y-101255265D01*
X71938446Y-101255883D01*
G36*
X70756459Y-101263669D02*
G01*
X70861420Y-101289163D01*
X70891761Y-101302669D01*
X70950573Y-101338046D01*
X70995709Y-101377890D01*
X71029106Y-101429120D01*
X71052701Y-101498654D01*
X71068433Y-101593409D01*
X71078239Y-101720305D01*
X71084057Y-101886258D01*
X71086266Y-101997108D01*
X71094396Y-102476471D01*
X70955531Y-102476471D01*
X70871287Y-102472938D01*
X70827884Y-102460866D01*
X70816666Y-102440594D01*
X70810744Y-102418674D01*
X70784266Y-102422865D01*
X70748186Y-102440441D01*
X70657862Y-102467382D01*
X70541777Y-102474642D01*
X70419680Y-102462767D01*
X70311321Y-102432305D01*
X70301602Y-102428077D01*
X70202568Y-102358505D01*
X70137281Y-102261789D01*
X70107240Y-102148738D01*
X70109535Y-102108122D01*
X70354633Y-102108122D01*
X70376229Y-102162782D01*
X70440259Y-102201952D01*
X70543565Y-102222974D01*
X70598774Y-102225766D01*
X70690782Y-102218620D01*
X70751941Y-102190848D01*
X70766862Y-102177647D01*
X70807287Y-102105829D01*
X70816666Y-102040686D01*
X70816666Y-101953530D01*
X70695269Y-101953530D01*
X70554153Y-101960722D01*
X70455173Y-101983345D01*
X70392633Y-102022964D01*
X70378631Y-102040628D01*
X70354633Y-102108122D01*
X70109535Y-102108122D01*
X70113941Y-102030157D01*
X70158880Y-101916855D01*
X70220196Y-101840285D01*
X70257332Y-101807181D01*
X70293687Y-101785425D01*
X70340990Y-101772161D01*
X70410973Y-101764528D01*
X70515364Y-101759670D01*
X70556770Y-101758273D01*
X70816666Y-101749780D01*
X70816285Y-101671116D01*
X70806219Y-101588428D01*
X70769829Y-101538431D01*
X70696311Y-101506489D01*
X70694339Y-101505920D01*
X70590105Y-101493361D01*
X70488108Y-101509766D01*
X70412305Y-101549657D01*
X70381890Y-101569354D01*
X70349132Y-101566629D01*
X70298721Y-101538091D01*
X70269119Y-101517950D01*
X70211218Y-101474919D01*
X70175352Y-101442662D01*
X70169597Y-101433427D01*
X70193295Y-101385636D01*
X70263313Y-101328562D01*
X70293725Y-101309305D01*
X70381155Y-101276140D01*
X70498983Y-101257350D01*
X70629866Y-101253129D01*
X70756459Y-101263669D01*
G37*
X70756459Y-101263669D02*
X70861420Y-101289163D01*
X70891761Y-101302669D01*
X70950573Y-101338046D01*
X70995709Y-101377890D01*
X71029106Y-101429120D01*
X71052701Y-101498654D01*
X71068433Y-101593409D01*
X71078239Y-101720305D01*
X71084057Y-101886258D01*
X71086266Y-101997108D01*
X71094396Y-102476471D01*
X70955531Y-102476471D01*
X70871287Y-102472938D01*
X70827884Y-102460866D01*
X70816666Y-102440594D01*
X70810744Y-102418674D01*
X70784266Y-102422865D01*
X70748186Y-102440441D01*
X70657862Y-102467382D01*
X70541777Y-102474642D01*
X70419680Y-102462767D01*
X70311321Y-102432305D01*
X70301602Y-102428077D01*
X70202568Y-102358505D01*
X70137281Y-102261789D01*
X70107240Y-102148738D01*
X70109535Y-102108122D01*
X70354633Y-102108122D01*
X70376229Y-102162782D01*
X70440259Y-102201952D01*
X70543565Y-102222974D01*
X70598774Y-102225766D01*
X70690782Y-102218620D01*
X70751941Y-102190848D01*
X70766862Y-102177647D01*
X70807287Y-102105829D01*
X70816666Y-102040686D01*
X70816666Y-101953530D01*
X70695269Y-101953530D01*
X70554153Y-101960722D01*
X70455173Y-101983345D01*
X70392633Y-102022964D01*
X70378631Y-102040628D01*
X70354633Y-102108122D01*
X70109535Y-102108122D01*
X70113941Y-102030157D01*
X70158880Y-101916855D01*
X70220196Y-101840285D01*
X70257332Y-101807181D01*
X70293687Y-101785425D01*
X70340990Y-101772161D01*
X70410973Y-101764528D01*
X70515364Y-101759670D01*
X70556770Y-101758273D01*
X70816666Y-101749780D01*
X70816285Y-101671116D01*
X70806219Y-101588428D01*
X70769829Y-101538431D01*
X70696311Y-101506489D01*
X70694339Y-101505920D01*
X70590105Y-101493361D01*
X70488108Y-101509766D01*
X70412305Y-101549657D01*
X70381890Y-101569354D01*
X70349132Y-101566629D01*
X70298721Y-101538091D01*
X70269119Y-101517950D01*
X70211218Y-101474919D01*
X70175352Y-101442662D01*
X70169597Y-101433427D01*
X70193295Y-101385636D01*
X70263313Y-101328562D01*
X70293725Y-101309305D01*
X70381155Y-101276140D01*
X70498983Y-101257350D01*
X70629866Y-101253129D01*
X70756459Y-101263669D01*
G36*
X69257528Y-101261332D02*
G01*
X69356014Y-101268726D01*
X69484776Y-101654706D01*
X69613537Y-102040686D01*
X69653911Y-101903726D01*
X69678207Y-101819083D01*
X69710167Y-101704697D01*
X69744679Y-101578963D01*
X69762928Y-101511520D01*
X69831571Y-101256275D01*
X70114773Y-101256275D01*
X70030122Y-101523971D01*
X69988435Y-101655638D01*
X69938074Y-101814458D01*
X69885481Y-101980128D01*
X69838530Y-102127843D01*
X69731589Y-102464020D01*
X69500661Y-102479044D01*
X69438050Y-102272316D01*
X69399438Y-102143896D01*
X69357300Y-102002322D01*
X69320472Y-101877285D01*
X69319018Y-101872309D01*
X69291511Y-101787586D01*
X69267242Y-101729778D01*
X69250243Y-101707918D01*
X69246750Y-101710446D01*
X69234490Y-101744336D01*
X69211195Y-101816930D01*
X69179700Y-101919101D01*
X69142842Y-102041720D01*
X69122899Y-102109167D01*
X69014895Y-102476471D01*
X68785679Y-102476471D01*
X68602439Y-101897500D01*
X68550963Y-101735091D01*
X68504070Y-101587602D01*
X68463977Y-101461960D01*
X68432897Y-101365095D01*
X68413045Y-101303934D01*
X68407011Y-101286065D01*
X68411788Y-101267768D01*
X68449297Y-101259755D01*
X68527355Y-101260557D01*
X68539574Y-101261163D01*
X68684326Y-101268726D01*
X68779130Y-101617353D01*
X68813977Y-101744497D01*
X68845117Y-101856265D01*
X68869809Y-101942953D01*
X68885312Y-101994856D01*
X68888176Y-102003318D01*
X68900046Y-101993587D01*
X68923983Y-101943172D01*
X68957239Y-101858935D01*
X68997064Y-101747741D01*
X69030730Y-101647297D01*
X69159041Y-101253939D01*
X69257528Y-101261332D01*
G37*
X69257528Y-101261332D02*
X69356014Y-101268726D01*
X69484776Y-101654706D01*
X69613537Y-102040686D01*
X69653911Y-101903726D01*
X69678207Y-101819083D01*
X69710167Y-101704697D01*
X69744679Y-101578963D01*
X69762928Y-101511520D01*
X69831571Y-101256275D01*
X70114773Y-101256275D01*
X70030122Y-101523971D01*
X69988435Y-101655638D01*
X69938074Y-101814458D01*
X69885481Y-101980128D01*
X69838530Y-102127843D01*
X69731589Y-102464020D01*
X69500661Y-102479044D01*
X69438050Y-102272316D01*
X69399438Y-102143896D01*
X69357300Y-102002322D01*
X69320472Y-101877285D01*
X69319018Y-101872309D01*
X69291511Y-101787586D01*
X69267242Y-101729778D01*
X69250243Y-101707918D01*
X69246750Y-101710446D01*
X69234490Y-101744336D01*
X69211195Y-101816930D01*
X69179700Y-101919101D01*
X69142842Y-102041720D01*
X69122899Y-102109167D01*
X69014895Y-102476471D01*
X68785679Y-102476471D01*
X68602439Y-101897500D01*
X68550963Y-101735091D01*
X68504070Y-101587602D01*
X68463977Y-101461960D01*
X68432897Y-101365095D01*
X68413045Y-101303934D01*
X68407011Y-101286065D01*
X68411788Y-101267768D01*
X68449297Y-101259755D01*
X68527355Y-101260557D01*
X68539574Y-101261163D01*
X68684326Y-101268726D01*
X68779130Y-101617353D01*
X68813977Y-101744497D01*
X68845117Y-101856265D01*
X68869809Y-101942953D01*
X68885312Y-101994856D01*
X68888176Y-102003318D01*
X68900046Y-101993587D01*
X68923983Y-101943172D01*
X68957239Y-101858935D01*
X68997064Y-101747741D01*
X69030730Y-101647297D01*
X69159041Y-101253939D01*
X69257528Y-101261332D01*
G36*
X68301568Y-102476471D02*
G01*
X68164607Y-102476471D01*
X68085111Y-102474140D01*
X68043708Y-102464488D01*
X68028801Y-102443525D01*
X68027647Y-102429351D01*
X68025133Y-102400927D01*
X68009280Y-102395475D01*
X67967621Y-102412998D01*
X67935224Y-102429351D01*
X67810849Y-102468103D01*
X67675646Y-102470346D01*
X67565726Y-102441444D01*
X67463366Y-102371619D01*
X67385340Y-102268555D01*
X67342614Y-102146989D01*
X67341526Y-102140192D01*
X67335178Y-102066032D01*
X67332021Y-101959570D01*
X67332275Y-101879052D01*
X67604289Y-101879052D01*
X67610590Y-101986070D01*
X67624925Y-102074278D01*
X67644331Y-102124090D01*
X67717746Y-102192162D01*
X67804914Y-102216564D01*
X67894804Y-102196831D01*
X67971617Y-102137968D01*
X68000708Y-102098379D01*
X68017717Y-102051138D01*
X68025684Y-101982181D01*
X68027647Y-101878607D01*
X68024134Y-101776039D01*
X68014857Y-101685921D01*
X68001706Y-101625613D01*
X67999514Y-101620208D01*
X67946478Y-101555940D01*
X67869067Y-101520656D01*
X67782454Y-101514959D01*
X67701807Y-101539453D01*
X67642297Y-101594742D01*
X67636124Y-101605743D01*
X67616801Y-101672827D01*
X67606274Y-101769284D01*
X67604289Y-101879052D01*
X67332275Y-101879052D01*
X67332404Y-101838225D01*
X67334194Y-101772918D01*
X67346373Y-101611355D01*
X67371685Y-101490053D01*
X67413793Y-101400379D01*
X67476359Y-101333699D01*
X67537100Y-101294557D01*
X67621964Y-101267040D01*
X67727515Y-101257603D01*
X67835598Y-101265290D01*
X67928058Y-101289146D01*
X67976910Y-101317685D01*
X68027647Y-101363601D01*
X68027647Y-100783137D01*
X68301568Y-100783137D01*
X68301568Y-102476471D01*
G37*
X68301568Y-102476471D02*
X68164607Y-102476471D01*
X68085111Y-102474140D01*
X68043708Y-102464488D01*
X68028801Y-102443525D01*
X68027647Y-102429351D01*
X68025133Y-102400927D01*
X68009280Y-102395475D01*
X67967621Y-102412998D01*
X67935224Y-102429351D01*
X67810849Y-102468103D01*
X67675646Y-102470346D01*
X67565726Y-102441444D01*
X67463366Y-102371619D01*
X67385340Y-102268555D01*
X67342614Y-102146989D01*
X67341526Y-102140192D01*
X67335178Y-102066032D01*
X67332021Y-101959570D01*
X67332275Y-101879052D01*
X67604289Y-101879052D01*
X67610590Y-101986070D01*
X67624925Y-102074278D01*
X67644331Y-102124090D01*
X67717746Y-102192162D01*
X67804914Y-102216564D01*
X67894804Y-102196831D01*
X67971617Y-102137968D01*
X68000708Y-102098379D01*
X68017717Y-102051138D01*
X68025684Y-101982181D01*
X68027647Y-101878607D01*
X68024134Y-101776039D01*
X68014857Y-101685921D01*
X68001706Y-101625613D01*
X67999514Y-101620208D01*
X67946478Y-101555940D01*
X67869067Y-101520656D01*
X67782454Y-101514959D01*
X67701807Y-101539453D01*
X67642297Y-101594742D01*
X67636124Y-101605743D01*
X67616801Y-101672827D01*
X67606274Y-101769284D01*
X67604289Y-101879052D01*
X67332275Y-101879052D01*
X67332404Y-101838225D01*
X67334194Y-101772918D01*
X67346373Y-101611355D01*
X67371685Y-101490053D01*
X67413793Y-101400379D01*
X67476359Y-101333699D01*
X67537100Y-101294557D01*
X67621964Y-101267040D01*
X67727515Y-101257603D01*
X67835598Y-101265290D01*
X67928058Y-101289146D01*
X67976910Y-101317685D01*
X68027647Y-101363601D01*
X68027647Y-100783137D01*
X68301568Y-100783137D01*
X68301568Y-102476471D01*
G36*
X66732764Y-101258921D02*
G01*
X66770030Y-101270091D01*
X66782043Y-101294633D01*
X66782549Y-101305712D01*
X66784704Y-101336572D01*
X66799551Y-101341417D01*
X66839657Y-101320260D01*
X66863480Y-101305806D01*
X66938638Y-101274850D01*
X67028406Y-101259544D01*
X67122529Y-101258367D01*
X67210754Y-101269799D01*
X67282826Y-101292320D01*
X67328492Y-101324409D01*
X67337498Y-101364545D01*
X67332953Y-101375415D01*
X67299821Y-101420534D01*
X67248445Y-101476026D01*
X67239152Y-101484996D01*
X67190182Y-101526245D01*
X67147931Y-101539572D01*
X67088841Y-101530271D01*
X67065169Y-101524090D01*
X66991504Y-101509246D01*
X66939710Y-101515921D01*
X66895969Y-101539465D01*
X66855902Y-101571061D01*
X66826392Y-101610798D01*
X66805884Y-101666252D01*
X66792824Y-101745003D01*
X66785656Y-101854629D01*
X66782824Y-102002706D01*
X66782549Y-102092111D01*
X66782549Y-102476471D01*
X66533529Y-102476471D01*
X66533529Y-101256275D01*
X66658039Y-101256275D01*
X66732764Y-101258921D01*
G37*
X66732764Y-101258921D02*
X66770030Y-101270091D01*
X66782043Y-101294633D01*
X66782549Y-101305712D01*
X66784704Y-101336572D01*
X66799551Y-101341417D01*
X66839657Y-101320260D01*
X66863480Y-101305806D01*
X66938638Y-101274850D01*
X67028406Y-101259544D01*
X67122529Y-101258367D01*
X67210754Y-101269799D01*
X67282826Y-101292320D01*
X67328492Y-101324409D01*
X67337498Y-101364545D01*
X67332953Y-101375415D01*
X67299821Y-101420534D01*
X67248445Y-101476026D01*
X67239152Y-101484996D01*
X67190182Y-101526245D01*
X67147931Y-101539572D01*
X67088841Y-101530271D01*
X67065169Y-101524090D01*
X66991504Y-101509246D01*
X66939710Y-101515921D01*
X66895969Y-101539465D01*
X66855902Y-101571061D01*
X66826392Y-101610798D01*
X66805884Y-101666252D01*
X66792824Y-101745003D01*
X66785656Y-101854629D01*
X66782824Y-102002706D01*
X66782549Y-102092111D01*
X66782549Y-102476471D01*
X66533529Y-102476471D01*
X66533529Y-101256275D01*
X66658039Y-101256275D01*
X66732764Y-101258921D01*
G36*
X65958720Y-101265922D02*
G01*
X66075870Y-101297180D01*
X66165051Y-101353837D01*
X66227984Y-101428045D01*
X66247548Y-101459716D01*
X66261992Y-101492891D01*
X66272089Y-101535329D01*
X66278615Y-101594788D01*
X66282342Y-101679029D01*
X66284046Y-101795810D01*
X66284500Y-101952890D01*
X66284509Y-101994565D01*
X66284509Y-102476471D01*
X66164980Y-102476471D01*
X66088739Y-102471131D01*
X66032366Y-102457604D01*
X66018242Y-102449262D01*
X65979630Y-102434864D01*
X65940192Y-102449262D01*
X65875262Y-102467237D01*
X65780945Y-102474472D01*
X65676407Y-102471333D01*
X65580811Y-102458186D01*
X65525000Y-102441318D01*
X65416998Y-102371986D01*
X65349503Y-102275772D01*
X65319159Y-102147844D01*
X65318877Y-102144559D01*
X65321540Y-102087808D01*
X65562353Y-102087808D01*
X65583405Y-102152358D01*
X65617697Y-102188686D01*
X65686532Y-102216162D01*
X65777390Y-102227129D01*
X65870042Y-102221731D01*
X65944256Y-102200110D01*
X65965049Y-102186239D01*
X66001381Y-102122143D01*
X66010588Y-102049278D01*
X66010588Y-101953530D01*
X65872827Y-101953530D01*
X65741953Y-101963605D01*
X65642741Y-101992148D01*
X65581023Y-102036639D01*
X65562353Y-102087808D01*
X65321540Y-102087808D01*
X65325436Y-102004790D01*
X65371534Y-101894282D01*
X65458200Y-101810712D01*
X65470179Y-101803110D01*
X65521655Y-101778357D01*
X65585368Y-101763368D01*
X65674435Y-101756082D01*
X65780245Y-101754407D01*
X66010588Y-101754314D01*
X66010588Y-101657755D01*
X66000817Y-101582836D01*
X65975884Y-101532644D01*
X65972965Y-101529972D01*
X65917481Y-101508015D01*
X65833727Y-101499505D01*
X65741167Y-101503687D01*
X65659270Y-101519809D01*
X65610673Y-101543990D01*
X65584341Y-101563359D01*
X65556535Y-101567057D01*
X65518161Y-101551188D01*
X65460125Y-101511855D01*
X65373331Y-101445164D01*
X65365365Y-101438916D01*
X65369447Y-101415800D01*
X65403501Y-101377352D01*
X65455260Y-101334627D01*
X65512455Y-101298679D01*
X65530425Y-101290191D01*
X65595972Y-101273252D01*
X65692020Y-101261170D01*
X65799329Y-101256323D01*
X65804347Y-101256313D01*
X65958720Y-101265922D01*
G37*
X65958720Y-101265922D02*
X66075870Y-101297180D01*
X66165051Y-101353837D01*
X66227984Y-101428045D01*
X66247548Y-101459716D01*
X66261992Y-101492891D01*
X66272089Y-101535329D01*
X66278615Y-101594788D01*
X66282342Y-101679029D01*
X66284046Y-101795810D01*
X66284500Y-101952890D01*
X66284509Y-101994565D01*
X66284509Y-102476471D01*
X66164980Y-102476471D01*
X66088739Y-102471131D01*
X66032366Y-102457604D01*
X66018242Y-102449262D01*
X65979630Y-102434864D01*
X65940192Y-102449262D01*
X65875262Y-102467237D01*
X65780945Y-102474472D01*
X65676407Y-102471333D01*
X65580811Y-102458186D01*
X65525000Y-102441318D01*
X65416998Y-102371986D01*
X65349503Y-102275772D01*
X65319159Y-102147844D01*
X65318877Y-102144559D01*
X65321540Y-102087808D01*
X65562353Y-102087808D01*
X65583405Y-102152358D01*
X65617697Y-102188686D01*
X65686532Y-102216162D01*
X65777390Y-102227129D01*
X65870042Y-102221731D01*
X65944256Y-102200110D01*
X65965049Y-102186239D01*
X66001381Y-102122143D01*
X66010588Y-102049278D01*
X66010588Y-101953530D01*
X65872827Y-101953530D01*
X65741953Y-101963605D01*
X65642741Y-101992148D01*
X65581023Y-102036639D01*
X65562353Y-102087808D01*
X65321540Y-102087808D01*
X65325436Y-102004790D01*
X65371534Y-101894282D01*
X65458200Y-101810712D01*
X65470179Y-101803110D01*
X65521655Y-101778357D01*
X65585368Y-101763368D01*
X65674435Y-101756082D01*
X65780245Y-101754407D01*
X66010588Y-101754314D01*
X66010588Y-101657755D01*
X66000817Y-101582836D01*
X65975884Y-101532644D01*
X65972965Y-101529972D01*
X65917481Y-101508015D01*
X65833727Y-101499505D01*
X65741167Y-101503687D01*
X65659270Y-101519809D01*
X65610673Y-101543990D01*
X65584341Y-101563359D01*
X65556535Y-101567057D01*
X65518161Y-101551188D01*
X65460125Y-101511855D01*
X65373331Y-101445164D01*
X65365365Y-101438916D01*
X65369447Y-101415800D01*
X65403501Y-101377352D01*
X65455260Y-101334627D01*
X65512455Y-101298679D01*
X65530425Y-101290191D01*
X65595972Y-101273252D01*
X65692020Y-101261170D01*
X65799329Y-101256323D01*
X65804347Y-101256313D01*
X65958720Y-101265922D01*
G36*
X64919909Y-99409560D02*
G01*
X64972412Y-99435499D01*
X65037158Y-99480700D01*
X65084347Y-99529991D01*
X65116665Y-99591885D01*
X65136797Y-99674896D01*
X65147430Y-99787538D01*
X65151247Y-99938324D01*
X65151470Y-100003149D01*
X65150818Y-100145221D01*
X65148112Y-100246757D01*
X65142224Y-100317015D01*
X65132027Y-100365256D01*
X65116394Y-100400738D01*
X65100128Y-100424943D01*
X64996295Y-100527929D01*
X64874021Y-100589874D01*
X64742114Y-100608506D01*
X64609384Y-100581549D01*
X64567333Y-100562486D01*
X64466666Y-100510015D01*
X64466666Y-101332259D01*
X64540135Y-101294267D01*
X64636941Y-101264872D01*
X64755928Y-101257342D01*
X64874745Y-101271245D01*
X64964473Y-101302476D01*
X65038899Y-101361954D01*
X65102490Y-101447066D01*
X65107271Y-101455805D01*
X65127437Y-101496966D01*
X65142165Y-101538454D01*
X65152303Y-101588713D01*
X65158699Y-101656184D01*
X65162201Y-101749309D01*
X65163658Y-101876531D01*
X65163921Y-102019701D01*
X65163921Y-102476471D01*
X64890000Y-102476471D01*
X64890000Y-101634231D01*
X64813383Y-101569763D01*
X64733793Y-101518194D01*
X64658422Y-101508818D01*
X64582633Y-101532947D01*
X64542241Y-101556574D01*
X64512179Y-101590227D01*
X64490797Y-101641087D01*
X64476450Y-101716334D01*
X64467490Y-101823146D01*
X64462270Y-101968704D01*
X64460431Y-102065588D01*
X64454215Y-102464020D01*
X64323480Y-102471547D01*
X64192745Y-102479073D01*
X64192745Y-100006582D01*
X64466666Y-100006582D01*
X64473650Y-100144423D01*
X64497182Y-100240107D01*
X64541135Y-100299641D01*
X64609382Y-100329029D01*
X64678333Y-100334902D01*
X64756386Y-100328154D01*
X64808189Y-100301594D01*
X64840583Y-100266499D01*
X64866084Y-100228752D01*
X64881265Y-100186700D01*
X64888019Y-100127779D01*
X64888241Y-100039428D01*
X64885968Y-99965448D01*
X64880749Y-99854000D01*
X64872979Y-99780833D01*
X64859895Y-99734422D01*
X64838732Y-99703244D01*
X64818760Y-99685223D01*
X64735314Y-99645925D01*
X64636551Y-99639579D01*
X64579841Y-99653116D01*
X64523692Y-99701233D01*
X64486499Y-99794833D01*
X64468472Y-99933254D01*
X64466666Y-100006582D01*
X64192745Y-100006582D01*
X64192745Y-99388628D01*
X64329705Y-99388628D01*
X64411935Y-99391879D01*
X64454360Y-99403426D01*
X64466661Y-99425952D01*
X64466666Y-99426620D01*
X64472374Y-99448681D01*
X64497547Y-99446176D01*
X64547598Y-99421935D01*
X64664219Y-99384851D01*
X64795429Y-99380953D01*
X64919909Y-99409560D01*
G37*
X64919909Y-99409560D02*
X64972412Y-99435499D01*
X65037158Y-99480700D01*
X65084347Y-99529991D01*
X65116665Y-99591885D01*
X65136797Y-99674896D01*
X65147430Y-99787538D01*
X65151247Y-99938324D01*
X65151470Y-100003149D01*
X65150818Y-100145221D01*
X65148112Y-100246757D01*
X65142224Y-100317015D01*
X65132027Y-100365256D01*
X65116394Y-100400738D01*
X65100128Y-100424943D01*
X64996295Y-100527929D01*
X64874021Y-100589874D01*
X64742114Y-100608506D01*
X64609384Y-100581549D01*
X64567333Y-100562486D01*
X64466666Y-100510015D01*
X64466666Y-101332259D01*
X64540135Y-101294267D01*
X64636941Y-101264872D01*
X64755928Y-101257342D01*
X64874745Y-101271245D01*
X64964473Y-101302476D01*
X65038899Y-101361954D01*
X65102490Y-101447066D01*
X65107271Y-101455805D01*
X65127437Y-101496966D01*
X65142165Y-101538454D01*
X65152303Y-101588713D01*
X65158699Y-101656184D01*
X65162201Y-101749309D01*
X65163658Y-101876531D01*
X65163921Y-102019701D01*
X65163921Y-102476471D01*
X64890000Y-102476471D01*
X64890000Y-101634231D01*
X64813383Y-101569763D01*
X64733793Y-101518194D01*
X64658422Y-101508818D01*
X64582633Y-101532947D01*
X64542241Y-101556574D01*
X64512179Y-101590227D01*
X64490797Y-101641087D01*
X64476450Y-101716334D01*
X64467490Y-101823146D01*
X64462270Y-101968704D01*
X64460431Y-102065588D01*
X64454215Y-102464020D01*
X64323480Y-102471547D01*
X64192745Y-102479073D01*
X64192745Y-100006582D01*
X64466666Y-100006582D01*
X64473650Y-100144423D01*
X64497182Y-100240107D01*
X64541135Y-100299641D01*
X64609382Y-100329029D01*
X64678333Y-100334902D01*
X64756386Y-100328154D01*
X64808189Y-100301594D01*
X64840583Y-100266499D01*
X64866084Y-100228752D01*
X64881265Y-100186700D01*
X64888019Y-100127779D01*
X64888241Y-100039428D01*
X64885968Y-99965448D01*
X64880749Y-99854000D01*
X64872979Y-99780833D01*
X64859895Y-99734422D01*
X64838732Y-99703244D01*
X64818760Y-99685223D01*
X64735314Y-99645925D01*
X64636551Y-99639579D01*
X64579841Y-99653116D01*
X64523692Y-99701233D01*
X64486499Y-99794833D01*
X64468472Y-99933254D01*
X64466666Y-100006582D01*
X64192745Y-100006582D01*
X64192745Y-99388628D01*
X64329705Y-99388628D01*
X64411935Y-99391879D01*
X64454360Y-99403426D01*
X64466661Y-99425952D01*
X64466666Y-99426620D01*
X64472374Y-99448681D01*
X64497547Y-99446176D01*
X64547598Y-99421935D01*
X64664219Y-99384851D01*
X64795429Y-99380953D01*
X64919909Y-99409560D01*
D12*
X115700000Y-119500000D02*
X115700000Y-115900000D01*
X115700000Y-117100000D02*
X114700000Y-117100000D01*
X114700000Y-117100000D02*
X116700000Y-117100000D01*
X115700000Y-117200000D02*
X114700000Y-118300000D01*
X114700000Y-118300000D02*
X116700000Y-118300000D01*
X116700000Y-118300000D02*
X115700000Y-117200000D01*
D16*
G36*
X116700000Y-118300000D02*
G01*
X114700000Y-118300000D01*
X115700000Y-117200000D01*
X116700000Y-118300000D01*
G37*
X116700000Y-118300000D02*
X114700000Y-118300000D01*
X115700000Y-117200000D01*
X116700000Y-118300000D01*
D12*
X111300000Y-121800000D02*
X111300000Y-113800000D01*
X111300000Y-113800000D02*
X120300000Y-113800000D01*
X120300000Y-113800000D02*
X120300000Y-121800000D01*
X120300000Y-121800000D02*
X111300000Y-121800000D01*
X131375000Y-97375000D02*
X131375000Y-97600000D01*
X138625000Y-97375000D02*
X138625000Y-97700000D01*
X138625000Y-104625000D02*
X138625000Y-104300000D01*
X131375000Y-104625000D02*
X131375000Y-104300000D01*
X131375000Y-97375000D02*
X131700000Y-97375000D01*
X131375000Y-104625000D02*
X131700000Y-104625000D01*
X138625000Y-104625000D02*
X138300000Y-104625000D01*
X138625000Y-97375000D02*
X138300000Y-97375000D01*
X131375000Y-97600000D02*
X129950000Y-97600000D01*
D17*
X107600000Y-128850000D02*
X119900000Y-128850000D01*
X119900000Y-133430000D02*
X119900000Y-136570000D01*
X119900000Y-141150000D02*
X107600000Y-141150000D01*
X107600000Y-131570000D02*
X107600000Y-128850000D01*
X118429050Y-135040000D02*
G75*
G03*
X118429050Y-135040000I-4579050J0D01*
G01*
X107600000Y-141150000D02*
X107600000Y-138430000D01*
X107600000Y-136570000D02*
X107600000Y-133430000D01*
X119900000Y-138430000D02*
X119900000Y-141150000D01*
X119900000Y-128850000D02*
X119900000Y-131570000D01*
X57600000Y-128850000D02*
X69900000Y-128850000D01*
X69900000Y-133430000D02*
X69900000Y-136570000D01*
X69900000Y-141150000D02*
X57600000Y-141150000D01*
X57600000Y-131570000D02*
X57600000Y-128850000D01*
X68429050Y-135040000D02*
G75*
G03*
X68429050Y-135040000I-4579050J0D01*
G01*
X57600000Y-141150000D02*
X57600000Y-138430000D01*
X57600000Y-136570000D02*
X57600000Y-133430000D01*
X69900000Y-138430000D02*
X69900000Y-141150000D01*
X69900000Y-128850000D02*
X69900000Y-131570000D01*
X132600000Y-128850000D02*
X144900000Y-128850000D01*
X144900000Y-133430000D02*
X144900000Y-136570000D01*
X144900000Y-141150000D02*
X132600000Y-141150000D01*
X132600000Y-131570000D02*
X132600000Y-128850000D01*
X143429050Y-135040000D02*
G75*
G03*
X143429050Y-135040000I-4579050J0D01*
G01*
X132600000Y-141150000D02*
X132600000Y-138430000D01*
X132600000Y-136570000D02*
X132600000Y-133430000D01*
X144900000Y-138430000D02*
X144900000Y-141150000D01*
X144900000Y-128850000D02*
X144900000Y-131570000D01*
X82600000Y-128850000D02*
X94900000Y-128850000D01*
X94900000Y-133430000D02*
X94900000Y-136570000D01*
X94900000Y-141150000D02*
X82600000Y-141150000D01*
X82600000Y-131570000D02*
X82600000Y-128850000D01*
X93429050Y-135040000D02*
G75*
G03*
X93429050Y-135040000I-4579050J0D01*
G01*
X82600000Y-141150000D02*
X82600000Y-138430000D01*
X82600000Y-136570000D02*
X82600000Y-133430000D01*
X94900000Y-138430000D02*
X94900000Y-141150000D01*
X94900000Y-128850000D02*
X94900000Y-131570000D01*
D12*
X145700000Y-119500000D02*
X145700000Y-115900000D01*
X145700000Y-117100000D02*
X144700000Y-117100000D01*
X144700000Y-117100000D02*
X146700000Y-117100000D01*
X145700000Y-117200000D02*
X144700000Y-118300000D01*
X144700000Y-118300000D02*
X146700000Y-118300000D01*
X146700000Y-118300000D02*
X145700000Y-117200000D01*
D16*
G36*
X146700000Y-118300000D02*
G01*
X144700000Y-118300000D01*
X145700000Y-117200000D01*
X146700000Y-118300000D01*
G37*
X146700000Y-118300000D02*
X144700000Y-118300000D01*
X145700000Y-117200000D01*
X146700000Y-118300000D01*
D12*
X141300000Y-121800000D02*
X141300000Y-113800000D01*
X141300000Y-113800000D02*
X150300000Y-113800000D01*
X150300000Y-113800000D02*
X150300000Y-121800000D01*
X150300000Y-121800000D02*
X141300000Y-121800000D01*
X85700000Y-119500000D02*
X85700000Y-115900000D01*
X85700000Y-117100000D02*
X84700000Y-117100000D01*
X84700000Y-117100000D02*
X86700000Y-117100000D01*
X85700000Y-117200000D02*
X84700000Y-118300000D01*
X84700000Y-118300000D02*
X86700000Y-118300000D01*
X86700000Y-118300000D02*
X85700000Y-117200000D01*
D16*
G36*
X86700000Y-118300000D02*
G01*
X84700000Y-118300000D01*
X85700000Y-117200000D01*
X86700000Y-118300000D01*
G37*
X86700000Y-118300000D02*
X84700000Y-118300000D01*
X85700000Y-117200000D01*
X86700000Y-118300000D01*
D12*
X81300000Y-121800000D02*
X81300000Y-113800000D01*
X81300000Y-113800000D02*
X90300000Y-113800000D01*
X90300000Y-113800000D02*
X90300000Y-121800000D01*
X90300000Y-121800000D02*
X81300000Y-121800000D01*
X130700000Y-119500000D02*
X130700000Y-115900000D01*
X130700000Y-117100000D02*
X129700000Y-117100000D01*
X129700000Y-117100000D02*
X131700000Y-117100000D01*
X130700000Y-117200000D02*
X129700000Y-118300000D01*
X129700000Y-118300000D02*
X131700000Y-118300000D01*
X131700000Y-118300000D02*
X130700000Y-117200000D01*
D16*
G36*
X131700000Y-118300000D02*
G01*
X129700000Y-118300000D01*
X130700000Y-117200000D01*
X131700000Y-118300000D01*
G37*
X131700000Y-118300000D02*
X129700000Y-118300000D01*
X130700000Y-117200000D01*
X131700000Y-118300000D01*
D12*
X126300000Y-121800000D02*
X126300000Y-113800000D01*
X126300000Y-113800000D02*
X135300000Y-113800000D01*
X135300000Y-113800000D02*
X135300000Y-121800000D01*
X135300000Y-121800000D02*
X126300000Y-121800000D01*
X70700000Y-119500000D02*
X70700000Y-115900000D01*
X70700000Y-117100000D02*
X69700000Y-117100000D01*
X69700000Y-117100000D02*
X71700000Y-117100000D01*
X70700000Y-117200000D02*
X69700000Y-118300000D01*
X69700000Y-118300000D02*
X71700000Y-118300000D01*
X71700000Y-118300000D02*
X70700000Y-117200000D01*
D16*
G36*
X71700000Y-118300000D02*
G01*
X69700000Y-118300000D01*
X70700000Y-117200000D01*
X71700000Y-118300000D01*
G37*
X71700000Y-118300000D02*
X69700000Y-118300000D01*
X70700000Y-117200000D01*
X71700000Y-118300000D01*
D12*
X66300000Y-121800000D02*
X66300000Y-113800000D01*
X66300000Y-113800000D02*
X75300000Y-113800000D01*
X75300000Y-113800000D02*
X75300000Y-121800000D01*
X75300000Y-121800000D02*
X66300000Y-121800000D01*
X100700000Y-119500000D02*
X100700000Y-115900000D01*
X100700000Y-117100000D02*
X99700000Y-117100000D01*
X99700000Y-117100000D02*
X101700000Y-117100000D01*
X100700000Y-117200000D02*
X99700000Y-118300000D01*
X99700000Y-118300000D02*
X101700000Y-118300000D01*
X101700000Y-118300000D02*
X100700000Y-117200000D01*
D16*
G36*
X101700000Y-118300000D02*
G01*
X99700000Y-118300000D01*
X100700000Y-117200000D01*
X101700000Y-118300000D01*
G37*
X101700000Y-118300000D02*
X99700000Y-118300000D01*
X100700000Y-117200000D01*
X101700000Y-118300000D01*
D12*
X96300000Y-121800000D02*
X96300000Y-113800000D01*
X96300000Y-113800000D02*
X105300000Y-113800000D01*
X105300000Y-113800000D02*
X105300000Y-121800000D01*
X105300000Y-121800000D02*
X96300000Y-121800000D01*
X55700000Y-119500000D02*
X55700000Y-115900000D01*
X55700000Y-117100000D02*
X54700000Y-117100000D01*
X54700000Y-117100000D02*
X56700000Y-117100000D01*
X55700000Y-117200000D02*
X54700000Y-118300000D01*
X54700000Y-118300000D02*
X56700000Y-118300000D01*
X56700000Y-118300000D02*
X55700000Y-117200000D01*
D16*
G36*
X56700000Y-118300000D02*
G01*
X54700000Y-118300000D01*
X55700000Y-117200000D01*
X56700000Y-118300000D01*
G37*
X56700000Y-118300000D02*
X54700000Y-118300000D01*
X55700000Y-117200000D01*
X56700000Y-118300000D01*
D12*
X51300000Y-121800000D02*
X51300000Y-113800000D01*
X51300000Y-113800000D02*
X60300000Y-113800000D01*
X60300000Y-113800000D02*
X60300000Y-121800000D01*
X60300000Y-121800000D02*
X51300000Y-121800000D01*
D17*
X113000000Y-96500000D02*
X114000000Y-96500000D01*
X113500000Y-96000000D02*
X113500000Y-97000000D01*
X119600000Y-100000000D02*
X119600000Y-102400000D01*
X119600000Y-95200000D02*
X119600000Y-97800000D01*
X119600000Y-90600000D02*
X119600000Y-93000000D01*
X106300000Y-92400000D02*
X106000000Y-92700000D01*
X105700000Y-92400000D02*
X106300000Y-92400000D01*
X106000000Y-92700000D02*
X105700000Y-92400000D01*
X107400000Y-90600000D02*
X107400000Y-102400000D01*
X111500000Y-90600000D02*
X107400000Y-90600000D01*
X111500000Y-102400000D02*
X107400000Y-102400000D01*
X119600000Y-102400000D02*
X115500000Y-102400000D01*
X115500000Y-90600000D02*
X119600000Y-90600000D01*
X116500000Y-96500000D02*
G75*
G03*
X116500000Y-96500000I-3000000J0D01*
G01*
X89000000Y-96500000D02*
X90000000Y-96500000D01*
X89500000Y-96000000D02*
X89500000Y-97000000D01*
X95600000Y-100000000D02*
X95600000Y-102400000D01*
X95600000Y-95200000D02*
X95600000Y-97800000D01*
X95600000Y-90600000D02*
X95600000Y-93000000D01*
X82300000Y-92400000D02*
X82000000Y-92700000D01*
X81700000Y-92400000D02*
X82300000Y-92400000D01*
X82000000Y-92700000D02*
X81700000Y-92400000D01*
X83400000Y-90600000D02*
X83400000Y-102400000D01*
X87500000Y-90600000D02*
X83400000Y-90600000D01*
X87500000Y-102400000D02*
X83400000Y-102400000D01*
X95600000Y-102400000D02*
X91500000Y-102400000D01*
X91500000Y-90600000D02*
X95600000Y-90600000D01*
X92500000Y-96500000D02*
G75*
G03*
X92500000Y-96500000I-3000000J0D01*
G01*
X136500000Y-90680000D02*
X135500000Y-90680000D01*
X135500000Y-89320000D02*
X136500000Y-89320000D01*
X136350000Y-92600000D02*
X135650000Y-92600000D01*
X135650000Y-91400000D02*
X136350000Y-91400000D01*
X128600000Y-100150000D02*
X128600000Y-100850000D01*
X127400000Y-100850000D02*
X127400000Y-100150000D01*
X141400000Y-102350000D02*
X141400000Y-101650000D01*
X142600000Y-101650000D02*
X142600000Y-102350000D01*
X127400000Y-106350000D02*
X127400000Y-105650000D01*
X128600000Y-105650000D02*
X128600000Y-106350000D01*
X122350000Y-105100000D02*
X121650000Y-105100000D01*
X121650000Y-103900000D02*
X122350000Y-103900000D01*
%LPC*%
D18*
X115700000Y-114950000D03*
X115750000Y-120550000D03*
X119000000Y-115500000D03*
X112500000Y-115500000D03*
X119000000Y-120000000D03*
X112500000Y-120000000D03*
D19*
X125000000Y-105880000D03*
X125000000Y-101000000D03*
D20*
X132200000Y-96750000D03*
X133000000Y-96750000D03*
X133800000Y-96750000D03*
X134600000Y-96750000D03*
X135400000Y-96750000D03*
X136200000Y-96750000D03*
X137000000Y-96750000D03*
X137800000Y-96750000D03*
D21*
X139250000Y-98200000D03*
X139250000Y-99000000D03*
X139250000Y-99800000D03*
X139250000Y-100600000D03*
X139250000Y-101400000D03*
X139250000Y-102200000D03*
X139250000Y-103000000D03*
X139250000Y-103800000D03*
D20*
X137800000Y-105250000D03*
X137000000Y-105250000D03*
X136200000Y-105250000D03*
X135400000Y-105250000D03*
X134600000Y-105250000D03*
X133800000Y-105250000D03*
X133000000Y-105250000D03*
X132200000Y-105250000D03*
D21*
X130750000Y-103800000D03*
X130750000Y-103000000D03*
X130750000Y-102200000D03*
X130750000Y-101400000D03*
X130750000Y-100600000D03*
X130750000Y-99800000D03*
X130750000Y-99000000D03*
X130750000Y-98200000D03*
D22*
X107500000Y-137500000D03*
X107500000Y-132500000D03*
X120000000Y-137500000D03*
X120000000Y-132500000D03*
X57500000Y-137500000D03*
X57500000Y-132500000D03*
X70000000Y-137500000D03*
X70000000Y-132500000D03*
X132500000Y-137500000D03*
X132500000Y-132500000D03*
X145000000Y-137500000D03*
X145000000Y-132500000D03*
X82500000Y-137500000D03*
X82500000Y-132500000D03*
X95000000Y-137500000D03*
X95000000Y-132500000D03*
D18*
X145700000Y-114950000D03*
X145750000Y-120550000D03*
X149000000Y-115500000D03*
X142500000Y-115500000D03*
X149000000Y-120000000D03*
X142500000Y-120000000D03*
X85700000Y-114950000D03*
X85750000Y-120550000D03*
X89000000Y-115500000D03*
X82500000Y-115500000D03*
X89000000Y-120000000D03*
X82500000Y-120000000D03*
X130700000Y-114950000D03*
X130750000Y-120550000D03*
X134000000Y-115500000D03*
X127500000Y-115500000D03*
X134000000Y-120000000D03*
X127500000Y-120000000D03*
X70700000Y-114950000D03*
X70750000Y-120550000D03*
X74000000Y-115500000D03*
X67500000Y-115500000D03*
X74000000Y-120000000D03*
X67500000Y-120000000D03*
X100700000Y-114950000D03*
X100750000Y-120550000D03*
X104000000Y-115500000D03*
X97500000Y-115500000D03*
X104000000Y-120000000D03*
X97500000Y-120000000D03*
X55700000Y-114950000D03*
X55750000Y-120550000D03*
X59000000Y-115500000D03*
X52500000Y-115500000D03*
X59000000Y-120000000D03*
X52500000Y-120000000D03*
D23*
X106000000Y-94000000D03*
D24*
X106000000Y-96500000D03*
X106000000Y-99000000D03*
D25*
X113500000Y-90900000D03*
X113500000Y-102100000D03*
D24*
X120500000Y-94000000D03*
X120500000Y-99000000D03*
D23*
X82000000Y-94000000D03*
D24*
X82000000Y-96500000D03*
X82000000Y-99000000D03*
D25*
X89500000Y-90900000D03*
X89500000Y-102100000D03*
D24*
X96500000Y-94000000D03*
X96500000Y-99000000D03*
D26*
X136750000Y-90000000D03*
X135250000Y-90000000D03*
D27*
X132540000Y-87000000D03*
X130000000Y-87000000D03*
D28*
X127460000Y-87000000D03*
D29*
X150540000Y-100920000D03*
X150540000Y-103460000D03*
X150540000Y-106000000D03*
X148000000Y-100920000D03*
X148000000Y-103460000D03*
G36*
G01*
X147150000Y-106600000D02*
X147150000Y-105400000D01*
G75*
G02*
X147400000Y-105150000I250000J0D01*
G01*
X148600000Y-105150000D01*
G75*
G02*
X148850000Y-105400000I0J-250000D01*
G01*
X148850000Y-106600000D01*
G75*
G02*
X148600000Y-106850000I-250000J0D01*
G01*
X147400000Y-106850000D01*
G75*
G02*
X147150000Y-106600000I0J250000D01*
G01*
G37*
D30*
X55000000Y-90000000D03*
X55000000Y-145000000D03*
X150000000Y-90000000D03*
X150000000Y-145000000D03*
D31*
X135050000Y-92000000D03*
X136950000Y-92000000D03*
D32*
X128000000Y-101450000D03*
X128000000Y-99550000D03*
X142000000Y-101050000D03*
X142000000Y-102950000D03*
X128000000Y-105050000D03*
X128000000Y-106950000D03*
D31*
X121050000Y-104500000D03*
X122950000Y-104500000D03*
M02*
