%FSLAX45Y45*%
G04 Gerber Fmt 4.5, Leading zero omitted, Abs format (unit mm)*
G04 Created by KiCad (PCBNEW (5.1.9)-1) date 2021-04-20 14:37:50*
%MOMM*%
%LPD*%
G01*
G04 APERTURE LIST*
%TA.AperFunction,Profile*%
%ADD10C,0.050000*%
%TD*%
%ADD11C,0.200000*%
%ADD12C,0.300000*%
G04 APERTURE END LIST*
D10*
X15500000Y-8500000D02*
X5000000Y-8500000D01*
X15500000Y-15000000D02*
X15500000Y-8500000D01*
X5000000Y-15000000D02*
X15500000Y-15000000D01*
X5000000Y-15000000D02*
X5000000Y-8500000D01*
D11*
X5410000Y-10970000D02*
X5450000Y-11010000D01*
X5450000Y-10970000D02*
X5410000Y-11010000D01*
X6320000Y-11140000D02*
X6360000Y-11180000D01*
X6360000Y-11140000D02*
X6320000Y-11180000D01*
X6510000Y-10670000D02*
X6550000Y-10710000D01*
X6550000Y-10670000D02*
X6510000Y-10710000D01*
X7780000Y-12400000D02*
X7820000Y-12440000D01*
X7820000Y-12400000D02*
X7780000Y-12440000D01*
X7790000Y-11250000D02*
X7830000Y-11290000D01*
X7830000Y-11250000D02*
X7790000Y-11290000D01*
X7800000Y-12850000D02*
X7840000Y-12890000D01*
X7840000Y-12850000D02*
X7800000Y-12890000D01*
X7920000Y-10710000D02*
X7960000Y-10750000D01*
X7960000Y-10710000D02*
X7920000Y-10750000D01*
X8540000Y-9560000D02*
X8580000Y-9600000D01*
X8580000Y-9560000D02*
X8540000Y-9600000D01*
X8900000Y-12340000D02*
X8940000Y-12380000D01*
X8940000Y-12340000D02*
X8900000Y-12380000D01*
X9150000Y-11240000D02*
X9190000Y-11280000D01*
X9190000Y-11240000D02*
X9150000Y-11280000D01*
X9510000Y-12190000D02*
X9550000Y-12230000D01*
X9550000Y-12190000D02*
X9510000Y-12230000D01*
X9710000Y-10680000D02*
X9750000Y-10720000D01*
X9750000Y-10680000D02*
X9710000Y-10720000D01*
X10180000Y-12910000D02*
X10220000Y-12950000D01*
X10220000Y-12910000D02*
X10180000Y-12950000D01*
X10230000Y-9420000D02*
X10270000Y-9460000D01*
X10270000Y-9420000D02*
X10230000Y-9460000D01*
X10560000Y-12160000D02*
X10600000Y-12200000D01*
X10600000Y-12160000D02*
X10560000Y-12200000D01*
X10650000Y-11300000D02*
X10690000Y-11340000D01*
X10690000Y-11300000D02*
X10650000Y-11340000D01*
X10920000Y-9630000D02*
X10960000Y-9670000D01*
X10960000Y-9630000D02*
X10920000Y-9670000D01*
X10990000Y-12070000D02*
X11030000Y-12110000D01*
X11030000Y-12070000D02*
X10990000Y-12110000D01*
X11410000Y-10710000D02*
X11450000Y-10750000D01*
X11450000Y-10710000D02*
X11410000Y-10750000D01*
X11655000Y-9675000D02*
X11695000Y-9715000D01*
X11695000Y-9675000D02*
X11655000Y-9715000D01*
X11670000Y-8770000D02*
X11710000Y-8810000D01*
X11710000Y-8770000D02*
X11670000Y-8810000D01*
X11730000Y-10240000D02*
X11770000Y-10280000D01*
X11770000Y-10240000D02*
X11730000Y-10280000D01*
X11760000Y-10460000D02*
X11800000Y-10500000D01*
X11800000Y-10460000D02*
X11760000Y-10500000D01*
X12040000Y-10140000D02*
X12080000Y-10180000D01*
X12080000Y-10140000D02*
X12040000Y-10180000D01*
X12130000Y-10580000D02*
X12170000Y-10620000D01*
X12170000Y-10580000D02*
X12130000Y-10620000D01*
X12310000Y-11330000D02*
X12350000Y-11370000D01*
X12350000Y-11330000D02*
X12310000Y-11370000D01*
X12330000Y-9570000D02*
X12370000Y-9610000D01*
X12370000Y-9570000D02*
X12330000Y-9610000D01*
X12420000Y-8720000D02*
X12460000Y-8760000D01*
X12460000Y-8720000D02*
X12420000Y-8760000D01*
X12550000Y-9030000D02*
X12590000Y-9070000D01*
X12590000Y-9030000D02*
X12550000Y-9070000D01*
X12580000Y-9850000D02*
X12620000Y-9890000D01*
X12620000Y-9850000D02*
X12580000Y-9890000D01*
X12630000Y-12990000D02*
X12670000Y-13030000D01*
X12670000Y-12990000D02*
X12630000Y-13030000D01*
X12940000Y-10530000D02*
X12980000Y-10570000D01*
X12980000Y-10530000D02*
X12940000Y-10570000D01*
X13040000Y-9460000D02*
X13080000Y-9500000D01*
X13080000Y-9460000D02*
X13040000Y-9500000D01*
X13290000Y-10290000D02*
X13330000Y-10330000D01*
X13330000Y-10290000D02*
X13290000Y-10330000D01*
X13320000Y-9860000D02*
X13360000Y-9900000D01*
X13360000Y-9860000D02*
X13320000Y-9900000D01*
X13340000Y-9400000D02*
X13380000Y-9440000D01*
X13380000Y-9400000D02*
X13340000Y-9440000D01*
X13400000Y-10190000D02*
X13440000Y-10230000D01*
X13440000Y-10190000D02*
X13400000Y-10230000D01*
X13590000Y-11980000D02*
X13630000Y-12020000D01*
X13630000Y-11980000D02*
X13590000Y-12020000D01*
X13600000Y-9340000D02*
X13640000Y-9380000D01*
X13640000Y-9340000D02*
X13600000Y-9380000D01*
X13600000Y-11080000D02*
X13640000Y-11120000D01*
X13640000Y-11080000D02*
X13600000Y-11120000D01*
X13620000Y-11440000D02*
X13660000Y-11480000D01*
X13660000Y-11440000D02*
X13620000Y-11480000D01*
X13620000Y-12330000D02*
X13660000Y-12370000D01*
X13660000Y-12330000D02*
X13620000Y-12370000D01*
X13640000Y-10060000D02*
X13680000Y-10100000D01*
X13680000Y-10060000D02*
X13640000Y-10100000D01*
X13640000Y-12120000D02*
X13680000Y-12160000D01*
X13680000Y-12120000D02*
X13640000Y-12160000D01*
X13710000Y-11790000D02*
X13750000Y-11830000D01*
X13750000Y-11790000D02*
X13710000Y-11830000D01*
X13770000Y-9320000D02*
X13810000Y-9360000D01*
X13810000Y-9320000D02*
X13770000Y-9360000D01*
X13810000Y-9180000D02*
X13850000Y-9220000D01*
X13850000Y-9180000D02*
X13810000Y-9220000D01*
X13900000Y-8830000D02*
X13940000Y-8870000D01*
X13940000Y-8830000D02*
X13900000Y-8870000D01*
X13900000Y-12240000D02*
X13940000Y-12280000D01*
X13940000Y-12240000D02*
X13900000Y-12280000D01*
X13930000Y-9320000D02*
X13970000Y-9360000D01*
X13970000Y-9320000D02*
X13930000Y-9360000D01*
X13970000Y-12720000D02*
X14010000Y-12760000D01*
X14010000Y-12720000D02*
X13970000Y-12760000D01*
X14040000Y-12370000D02*
X14080000Y-12410000D01*
X14080000Y-12370000D02*
X14040000Y-12410000D01*
X14090000Y-9330000D02*
X14130000Y-9370000D01*
X14130000Y-9330000D02*
X14090000Y-9370000D01*
X14190000Y-10880000D02*
X14230000Y-10920000D01*
X14230000Y-10880000D02*
X14190000Y-10920000D01*
X14210000Y-9630000D02*
X14250000Y-9670000D01*
X14250000Y-9630000D02*
X14210000Y-9670000D01*
X14230000Y-12310000D02*
X14270000Y-12350000D01*
X14270000Y-12310000D02*
X14230000Y-12350000D01*
X14290000Y-12720000D02*
X14330000Y-12760000D01*
X14330000Y-12720000D02*
X14290000Y-12760000D01*
X14310000Y-9420000D02*
X14350000Y-9460000D01*
X14350000Y-9420000D02*
X14310000Y-9460000D01*
X14320000Y-10170000D02*
X14360000Y-10210000D01*
X14360000Y-10170000D02*
X14320000Y-10210000D01*
X14340000Y-8700000D02*
X14380000Y-8740000D01*
X14380000Y-8700000D02*
X14340000Y-8740000D01*
X14350000Y-9630000D02*
X14390000Y-9670000D01*
X14390000Y-9630000D02*
X14350000Y-9670000D01*
X14360000Y-9870000D02*
X14400000Y-9910000D01*
X14400000Y-9870000D02*
X14360000Y-9910000D01*
X14510000Y-10000000D02*
X14550000Y-10040000D01*
X14550000Y-10000000D02*
X14510000Y-10040000D01*
X14530000Y-9710000D02*
X14570000Y-9750000D01*
X14570000Y-9710000D02*
X14530000Y-9750000D01*
X14670000Y-9720000D02*
X14710000Y-9760000D01*
X14710000Y-9720000D02*
X14670000Y-9760000D01*
X14700000Y-11150000D02*
X14740000Y-11190000D01*
X14740000Y-11150000D02*
X14700000Y-11190000D01*
X14830000Y-10900000D02*
X14870000Y-10940000D01*
X14870000Y-10900000D02*
X14830000Y-10940000D01*
X14920000Y-9850000D02*
X14960000Y-9890000D01*
X14960000Y-9850000D02*
X14920000Y-9890000D01*
X15010000Y-10890000D02*
X15050000Y-10930000D01*
X15050000Y-10890000D02*
X15010000Y-10930000D01*
X15080000Y-11110000D02*
X15120000Y-11150000D01*
X15120000Y-11110000D02*
X15080000Y-11150000D01*
X15100000Y-11730000D02*
X15140000Y-11770000D01*
X15140000Y-11730000D02*
X15100000Y-11770000D01*
X15160000Y-12570000D02*
X15200000Y-12610000D01*
X15200000Y-12570000D02*
X15160000Y-12610000D01*
X15240000Y-9690000D02*
X15280000Y-9730000D01*
X15280000Y-9690000D02*
X15240000Y-9730000D01*
X15370000Y-11660000D02*
X15410000Y-11700000D01*
X15410000Y-11660000D02*
X15370000Y-11700000D01*
X5288100Y-11550000D02*
G75*
G03*
X5288100Y-11550000I-38100J0D01*
G01*
X5288100Y-12000000D02*
G75*
G03*
X5288100Y-12000000I-38100J0D01*
G01*
X5608100Y-11495000D02*
G75*
G03*
X5608100Y-11495000I-38100J0D01*
G01*
X5613100Y-12055000D02*
G75*
G03*
X5613100Y-12055000I-38100J0D01*
G01*
X5938100Y-11550000D02*
G75*
G03*
X5938100Y-11550000I-38100J0D01*
G01*
X5938100Y-12000000D02*
G75*
G03*
X5938100Y-12000000I-38100J0D01*
G01*
X6788100Y-11550000D02*
G75*
G03*
X6788100Y-11550000I-38100J0D01*
G01*
X6788100Y-12000000D02*
G75*
G03*
X6788100Y-12000000I-38100J0D01*
G01*
X7108100Y-11495000D02*
G75*
G03*
X7108100Y-11495000I-38100J0D01*
G01*
X7113100Y-12055000D02*
G75*
G03*
X7113100Y-12055000I-38100J0D01*
G01*
X7438100Y-11550000D02*
G75*
G03*
X7438100Y-11550000I-38100J0D01*
G01*
X7438100Y-12000000D02*
G75*
G03*
X7438100Y-12000000I-38100J0D01*
G01*
X8288100Y-11550000D02*
G75*
G03*
X8288100Y-11550000I-38100J0D01*
G01*
X8288100Y-12000000D02*
G75*
G03*
X8288100Y-12000000I-38100J0D01*
G01*
X8608100Y-11495000D02*
G75*
G03*
X8608100Y-11495000I-38100J0D01*
G01*
X8613100Y-12055000D02*
G75*
G03*
X8613100Y-12055000I-38100J0D01*
G01*
X8938100Y-11550000D02*
G75*
G03*
X8938100Y-11550000I-38100J0D01*
G01*
X8938100Y-12000000D02*
G75*
G03*
X8938100Y-12000000I-38100J0D01*
G01*
X9788100Y-11550000D02*
G75*
G03*
X9788100Y-11550000I-38100J0D01*
G01*
X9788100Y-12000000D02*
G75*
G03*
X9788100Y-12000000I-38100J0D01*
G01*
X10108100Y-11495000D02*
G75*
G03*
X10108100Y-11495000I-38100J0D01*
G01*
X10113100Y-12055000D02*
G75*
G03*
X10113100Y-12055000I-38100J0D01*
G01*
X10438100Y-11550000D02*
G75*
G03*
X10438100Y-11550000I-38100J0D01*
G01*
X10438100Y-12000000D02*
G75*
G03*
X10438100Y-12000000I-38100J0D01*
G01*
X11288100Y-11550000D02*
G75*
G03*
X11288100Y-11550000I-38100J0D01*
G01*
X11288100Y-12000000D02*
G75*
G03*
X11288100Y-12000000I-38100J0D01*
G01*
X11608100Y-11495000D02*
G75*
G03*
X11608100Y-11495000I-38100J0D01*
G01*
X11613100Y-12055000D02*
G75*
G03*
X11613100Y-12055000I-38100J0D01*
G01*
X11938100Y-11550000D02*
G75*
G03*
X11938100Y-11550000I-38100J0D01*
G01*
X11938100Y-12000000D02*
G75*
G03*
X11938100Y-12000000I-38100J0D01*
G01*
X12788100Y-11550000D02*
G75*
G03*
X12788100Y-11550000I-38100J0D01*
G01*
X12788100Y-12000000D02*
G75*
G03*
X12788100Y-12000000I-38100J0D01*
G01*
X13108100Y-11495000D02*
G75*
G03*
X13108100Y-11495000I-38100J0D01*
G01*
X13113100Y-12055000D02*
G75*
G03*
X13113100Y-12055000I-38100J0D01*
G01*
X13438100Y-11550000D02*
G75*
G03*
X13438100Y-11550000I-38100J0D01*
G01*
X13438100Y-12000000D02*
G75*
G03*
X13438100Y-12000000I-38100J0D01*
G01*
X14288100Y-11550000D02*
G75*
G03*
X14288100Y-11550000I-38100J0D01*
G01*
X14288100Y-12000000D02*
G75*
G03*
X14288100Y-12000000I-38100J0D01*
G01*
X14608100Y-11495000D02*
G75*
G03*
X14608100Y-11495000I-38100J0D01*
G01*
X14613100Y-12055000D02*
G75*
G03*
X14613100Y-12055000I-38100J0D01*
G01*
X14938100Y-11550000D02*
G75*
G03*
X14938100Y-11550000I-38100J0D01*
G01*
X14938100Y-12000000D02*
G75*
G03*
X14938100Y-12000000I-38100J0D01*
G01*
X12500000Y-10060000D02*
X12500000Y-10140000D01*
X12460000Y-10100000D02*
X12540000Y-10100000D01*
X12500000Y-10548000D02*
X12500000Y-10628000D01*
X12460000Y-10588000D02*
X12540000Y-10588000D01*
X8235356Y-9435356D02*
X8235356Y-9364644D01*
X8164644Y-9364644D01*
X8164644Y-9435356D01*
X8235356Y-9435356D01*
X8235356Y-9685356D02*
X8235356Y-9614644D01*
X8164644Y-9614644D01*
X8164644Y-9685356D01*
X8235356Y-9685356D01*
X8235356Y-9935356D02*
X8235356Y-9864644D01*
X8164644Y-9864644D01*
X8164644Y-9935356D01*
X8235356Y-9935356D01*
X9685356Y-9435356D02*
X9685356Y-9364644D01*
X9614644Y-9364644D01*
X9614644Y-9435356D01*
X9685356Y-9435356D01*
X9685356Y-9935356D02*
X9685356Y-9864644D01*
X9614644Y-9864644D01*
X9614644Y-9935356D01*
X9685356Y-9935356D01*
X10635356Y-9435356D02*
X10635356Y-9364644D01*
X10564644Y-9364644D01*
X10564644Y-9435356D01*
X10635356Y-9435356D01*
X10635356Y-9685356D02*
X10635356Y-9614644D01*
X10564644Y-9614644D01*
X10564644Y-9685356D01*
X10635356Y-9685356D01*
X10635356Y-9935356D02*
X10635356Y-9864644D01*
X10564644Y-9864644D01*
X10564644Y-9935356D01*
X10635356Y-9935356D01*
X12085356Y-9435356D02*
X12085356Y-9364644D01*
X12014644Y-9364644D01*
X12014644Y-9435356D01*
X12085356Y-9435356D01*
X12085356Y-9935356D02*
X12085356Y-9864644D01*
X12014644Y-9864644D01*
X12014644Y-9935356D01*
X12085356Y-9935356D01*
X12781356Y-8735356D02*
X12781356Y-8664644D01*
X12710644Y-8664644D01*
X12710644Y-8735356D01*
X12781356Y-8735356D01*
X13035356Y-8735356D02*
X13035356Y-8664644D01*
X12964644Y-8664644D01*
X12964644Y-8735356D01*
X13035356Y-8735356D01*
X13289356Y-8735356D02*
X13289356Y-8664644D01*
X13218644Y-8664644D01*
X13218644Y-8735356D01*
X13289356Y-8735356D01*
X14835356Y-10127356D02*
X14835356Y-10056644D01*
X14764644Y-10056644D01*
X14764644Y-10127356D01*
X14835356Y-10127356D01*
X14835356Y-10381356D02*
X14835356Y-10310644D01*
X14764644Y-10310644D01*
X14764644Y-10381356D01*
X14835356Y-10381356D01*
X14835356Y-10635356D02*
X14835356Y-10564644D01*
X14764644Y-10564644D01*
X14764644Y-10635356D01*
X14835356Y-10635356D01*
X15089356Y-10127356D02*
X15089356Y-10056644D01*
X15018644Y-10056644D01*
X15018644Y-10127356D01*
X15089356Y-10127356D01*
X15089356Y-10381356D02*
X15089356Y-10310644D01*
X15018644Y-10310644D01*
X15018644Y-10381356D01*
X15089356Y-10381356D01*
X15089356Y-10635356D02*
X15089356Y-10564644D01*
X15018644Y-10564644D01*
X15018644Y-10635356D01*
X15089356Y-10635356D01*
X5750000Y-13315000D02*
X5815000Y-13250000D01*
X5750000Y-13185000D01*
X5685000Y-13250000D01*
X5750000Y-13315000D01*
X5750000Y-13815000D02*
X5815000Y-13750000D01*
X5750000Y-13685000D01*
X5685000Y-13750000D01*
X5750000Y-13815000D01*
X7000000Y-13315000D02*
X7065000Y-13250000D01*
X7000000Y-13185000D01*
X6935000Y-13250000D01*
X7000000Y-13315000D01*
X7000000Y-13815000D02*
X7065000Y-13750000D01*
X7000000Y-13685000D01*
X6935000Y-13750000D01*
X7000000Y-13815000D01*
X8250000Y-13315000D02*
X8315000Y-13250000D01*
X8250000Y-13185000D01*
X8185000Y-13250000D01*
X8250000Y-13315000D01*
X8250000Y-13815000D02*
X8315000Y-13750000D01*
X8250000Y-13685000D01*
X8185000Y-13750000D01*
X8250000Y-13815000D01*
X9500000Y-13315000D02*
X9565000Y-13250000D01*
X9500000Y-13185000D01*
X9435000Y-13250000D01*
X9500000Y-13315000D01*
X9500000Y-13815000D02*
X9565000Y-13750000D01*
X9500000Y-13685000D01*
X9435000Y-13750000D01*
X9500000Y-13815000D01*
X10750000Y-13315000D02*
X10815000Y-13250000D01*
X10750000Y-13185000D01*
X10685000Y-13250000D01*
X10750000Y-13315000D01*
X10750000Y-13815000D02*
X10815000Y-13750000D01*
X10750000Y-13685000D01*
X10685000Y-13750000D01*
X10750000Y-13815000D01*
X12000000Y-13315000D02*
X12065000Y-13250000D01*
X12000000Y-13185000D01*
X11935000Y-13250000D01*
X12000000Y-13315000D01*
X12000000Y-13815000D02*
X12065000Y-13750000D01*
X12000000Y-13685000D01*
X11935000Y-13750000D01*
X12000000Y-13815000D01*
X13250000Y-13315000D02*
X13315000Y-13250000D01*
X13250000Y-13185000D01*
X13185000Y-13250000D01*
X13250000Y-13315000D01*
X13250000Y-13815000D02*
X13315000Y-13750000D01*
X13250000Y-13685000D01*
X13185000Y-13750000D01*
X13250000Y-13815000D01*
X14500000Y-13315000D02*
X14565000Y-13250000D01*
X14500000Y-13185000D01*
X14435000Y-13250000D01*
X14500000Y-13315000D01*
X14500000Y-13815000D02*
X14565000Y-13750000D01*
X14500000Y-13685000D01*
X14435000Y-13750000D01*
X14500000Y-13815000D01*
X8875000Y-9015000D02*
X9025000Y-9165000D01*
X9025000Y-9015000D02*
X8875000Y-9165000D01*
X9025000Y-9090000D02*
G75*
G03*
X9025000Y-9090000I-75000J0D01*
G01*
X8885000Y-9155000D02*
X9015000Y-9155000D01*
X8885000Y-9025000D02*
X9015000Y-9025000D01*
X9015000Y-9155000D02*
G75*
G03*
X9015000Y-9025000I0J65000D01*
G01*
X8885000Y-9025000D02*
G75*
G03*
X8885000Y-9155000I0J-65000D01*
G01*
X8875000Y-10135000D02*
X9025000Y-10285000D01*
X9025000Y-10135000D02*
X8875000Y-10285000D01*
X9025000Y-10210000D02*
G75*
G03*
X9025000Y-10210000I-75000J0D01*
G01*
X8885000Y-10275000D02*
X9015000Y-10275000D01*
X8885000Y-10145000D02*
X9015000Y-10145000D01*
X9015000Y-10275000D02*
G75*
G03*
X9015000Y-10145000I0J65000D01*
G01*
X8885000Y-10145000D02*
G75*
G03*
X8885000Y-10275000I0J-65000D01*
G01*
X11275000Y-9015000D02*
X11425000Y-9165000D01*
X11425000Y-9015000D02*
X11275000Y-9165000D01*
X11425000Y-9090000D02*
G75*
G03*
X11425000Y-9090000I-75000J0D01*
G01*
X11285000Y-9155000D02*
X11415000Y-9155000D01*
X11285000Y-9025000D02*
X11415000Y-9025000D01*
X11415000Y-9155000D02*
G75*
G03*
X11415000Y-9025000I0J65000D01*
G01*
X11285000Y-9025000D02*
G75*
G03*
X11285000Y-9155000I0J-65000D01*
G01*
X11275000Y-10135000D02*
X11425000Y-10285000D01*
X11425000Y-10135000D02*
X11275000Y-10285000D01*
X11425000Y-10210000D02*
G75*
G03*
X11425000Y-10210000I-75000J0D01*
G01*
X11285000Y-10275000D02*
X11415000Y-10275000D01*
X11285000Y-10145000D02*
X11415000Y-10145000D01*
X11415000Y-10275000D02*
G75*
G03*
X11415000Y-10145000I0J65000D01*
G01*
X11285000Y-10145000D02*
G75*
G03*
X11285000Y-10275000I0J-65000D01*
G01*
D12*
X5283928Y-15468214D02*
X5283928Y-15168214D01*
X5355357Y-15168214D01*
X5398214Y-15182500D01*
X5426786Y-15211071D01*
X5441071Y-15239643D01*
X5455357Y-15296786D01*
X5455357Y-15339643D01*
X5441071Y-15396786D01*
X5426786Y-15425357D01*
X5398214Y-15453929D01*
X5355357Y-15468214D01*
X5283928Y-15468214D01*
X5583928Y-15468214D02*
X5583928Y-15268214D01*
X5583928Y-15325357D02*
X5598214Y-15296786D01*
X5612500Y-15282500D01*
X5641071Y-15268214D01*
X5669643Y-15268214D01*
X5769643Y-15468214D02*
X5769643Y-15268214D01*
X5769643Y-15168214D02*
X5755357Y-15182500D01*
X5769643Y-15196786D01*
X5783928Y-15182500D01*
X5769643Y-15168214D01*
X5769643Y-15196786D01*
X5955357Y-15468214D02*
X5926786Y-15453929D01*
X5912500Y-15425357D01*
X5912500Y-15168214D01*
X6112500Y-15468214D02*
X6083928Y-15453929D01*
X6069643Y-15425357D01*
X6069643Y-15168214D01*
X6455357Y-15468214D02*
X6455357Y-15168214D01*
X6555357Y-15382500D01*
X6655357Y-15168214D01*
X6655357Y-15468214D01*
X6926786Y-15468214D02*
X6926786Y-15311071D01*
X6912500Y-15282500D01*
X6883928Y-15268214D01*
X6826786Y-15268214D01*
X6798214Y-15282500D01*
X6926786Y-15453929D02*
X6898214Y-15468214D01*
X6826786Y-15468214D01*
X6798214Y-15453929D01*
X6783928Y-15425357D01*
X6783928Y-15396786D01*
X6798214Y-15368214D01*
X6826786Y-15353929D01*
X6898214Y-15353929D01*
X6926786Y-15339643D01*
X7069643Y-15268214D02*
X7069643Y-15568214D01*
X7069643Y-15282500D02*
X7098214Y-15268214D01*
X7155357Y-15268214D01*
X7183928Y-15282500D01*
X7198214Y-15296786D01*
X7212500Y-15325357D01*
X7212500Y-15411071D01*
X7198214Y-15439643D01*
X7183928Y-15453929D01*
X7155357Y-15468214D01*
X7098214Y-15468214D01*
X7069643Y-15453929D01*
X7341071Y-15439643D02*
X7355357Y-15453929D01*
X7341071Y-15468214D01*
X7326786Y-15453929D01*
X7341071Y-15439643D01*
X7341071Y-15468214D01*
X7341071Y-15282500D02*
X7355357Y-15296786D01*
X7341071Y-15311071D01*
X7326786Y-15296786D01*
X7341071Y-15282500D01*
X7341071Y-15311071D01*
X4957500Y-15942500D02*
X4997500Y-15982500D01*
X4997500Y-15942500D02*
X4957500Y-15982500D01*
X5341071Y-15798214D02*
X5369643Y-15798214D01*
X5398214Y-15812500D01*
X5412500Y-15826786D01*
X5426786Y-15855357D01*
X5441071Y-15912500D01*
X5441071Y-15983929D01*
X5426786Y-16041071D01*
X5412500Y-16069643D01*
X5398214Y-16083929D01*
X5369643Y-16098214D01*
X5341071Y-16098214D01*
X5312500Y-16083929D01*
X5298214Y-16069643D01*
X5283928Y-16041071D01*
X5269643Y-15983929D01*
X5269643Y-15912500D01*
X5283928Y-15855357D01*
X5298214Y-15826786D01*
X5312500Y-15812500D01*
X5341071Y-15798214D01*
X5569643Y-16069643D02*
X5583928Y-16083929D01*
X5569643Y-16098214D01*
X5555357Y-16083929D01*
X5569643Y-16069643D01*
X5569643Y-16098214D01*
X5841071Y-15898214D02*
X5841071Y-16098214D01*
X5769643Y-15783929D02*
X5698214Y-15998214D01*
X5883928Y-15998214D01*
X6055357Y-15798214D02*
X6083928Y-15798214D01*
X6112500Y-15812500D01*
X6126786Y-15826786D01*
X6141071Y-15855357D01*
X6155357Y-15912500D01*
X6155357Y-15983929D01*
X6141071Y-16041071D01*
X6126786Y-16069643D01*
X6112500Y-16083929D01*
X6083928Y-16098214D01*
X6055357Y-16098214D01*
X6026786Y-16083929D01*
X6012500Y-16069643D01*
X5998214Y-16041071D01*
X5983928Y-15983929D01*
X5983928Y-15912500D01*
X5998214Y-15855357D01*
X6012500Y-15826786D01*
X6026786Y-15812500D01*
X6055357Y-15798214D01*
X6283928Y-16098214D02*
X6283928Y-15898214D01*
X6283928Y-15926786D02*
X6298214Y-15912500D01*
X6326786Y-15898214D01*
X6369643Y-15898214D01*
X6398214Y-15912500D01*
X6412500Y-15941071D01*
X6412500Y-16098214D01*
X6412500Y-15941071D02*
X6426786Y-15912500D01*
X6455357Y-15898214D01*
X6498214Y-15898214D01*
X6526786Y-15912500D01*
X6541071Y-15941071D01*
X6541071Y-16098214D01*
X6683928Y-16098214D02*
X6683928Y-15898214D01*
X6683928Y-15926786D02*
X6698214Y-15912500D01*
X6726786Y-15898214D01*
X6769643Y-15898214D01*
X6798214Y-15912500D01*
X6812500Y-15941071D01*
X6812500Y-16098214D01*
X6812500Y-15941071D02*
X6826786Y-15912500D01*
X6855357Y-15898214D01*
X6898214Y-15898214D01*
X6926786Y-15912500D01*
X6941071Y-15941071D01*
X6941071Y-16098214D01*
X7526786Y-15783929D02*
X7269643Y-16169643D01*
X7912500Y-15798214D02*
X7941071Y-15798214D01*
X7969643Y-15812500D01*
X7983928Y-15826786D01*
X7998214Y-15855357D01*
X8012500Y-15912500D01*
X8012500Y-15983929D01*
X7998214Y-16041071D01*
X7983928Y-16069643D01*
X7969643Y-16083929D01*
X7941071Y-16098214D01*
X7912500Y-16098214D01*
X7883928Y-16083929D01*
X7869643Y-16069643D01*
X7855357Y-16041071D01*
X7841071Y-15983929D01*
X7841071Y-15912500D01*
X7855357Y-15855357D01*
X7869643Y-15826786D01*
X7883928Y-15812500D01*
X7912500Y-15798214D01*
X8141071Y-16069643D02*
X8155357Y-16083929D01*
X8141071Y-16098214D01*
X8126786Y-16083929D01*
X8141071Y-16069643D01*
X8141071Y-16098214D01*
X8341071Y-15798214D02*
X8369643Y-15798214D01*
X8398214Y-15812500D01*
X8412500Y-15826786D01*
X8426786Y-15855357D01*
X8441071Y-15912500D01*
X8441071Y-15983929D01*
X8426786Y-16041071D01*
X8412500Y-16069643D01*
X8398214Y-16083929D01*
X8369643Y-16098214D01*
X8341071Y-16098214D01*
X8312500Y-16083929D01*
X8298214Y-16069643D01*
X8283928Y-16041071D01*
X8269643Y-15983929D01*
X8269643Y-15912500D01*
X8283928Y-15855357D01*
X8298214Y-15826786D01*
X8312500Y-15812500D01*
X8341071Y-15798214D01*
X8726786Y-16098214D02*
X8555357Y-16098214D01*
X8641071Y-16098214D02*
X8641071Y-15798214D01*
X8612500Y-15841071D01*
X8583928Y-15869643D01*
X8555357Y-15883929D01*
X8983928Y-15798214D02*
X8926786Y-15798214D01*
X8898214Y-15812500D01*
X8883928Y-15826786D01*
X8855357Y-15869643D01*
X8841071Y-15926786D01*
X8841071Y-16041071D01*
X8855357Y-16069643D01*
X8869643Y-16083929D01*
X8898214Y-16098214D01*
X8955357Y-16098214D01*
X8983928Y-16083929D01*
X8998214Y-16069643D01*
X9012500Y-16041071D01*
X9012500Y-15969643D01*
X8998214Y-15941071D01*
X8983928Y-15926786D01*
X8955357Y-15912500D01*
X8898214Y-15912500D01*
X8869643Y-15926786D01*
X8855357Y-15941071D01*
X8841071Y-15969643D01*
X9126786Y-15798214D02*
X9126786Y-15855357D01*
X9241071Y-15798214D02*
X9241071Y-15855357D01*
X9683928Y-16212500D02*
X9669643Y-16198214D01*
X9641071Y-16155357D01*
X9626786Y-16126786D01*
X9612500Y-16083929D01*
X9598214Y-16012500D01*
X9598214Y-15955357D01*
X9612500Y-15883929D01*
X9626786Y-15841071D01*
X9641071Y-15812500D01*
X9669643Y-15769643D01*
X9683928Y-15755357D01*
X9769643Y-15798214D02*
X9969643Y-15798214D01*
X9841071Y-16098214D01*
X10212500Y-15898214D02*
X10212500Y-16098214D01*
X10141071Y-15783929D02*
X10069643Y-15998214D01*
X10255357Y-15998214D01*
X10598214Y-16098214D02*
X10598214Y-15798214D01*
X10726786Y-16098214D02*
X10726786Y-15941071D01*
X10712500Y-15912500D01*
X10683928Y-15898214D01*
X10641071Y-15898214D01*
X10612500Y-15912500D01*
X10598214Y-15926786D01*
X10912500Y-16098214D02*
X10883928Y-16083929D01*
X10869643Y-16069643D01*
X10855357Y-16041071D01*
X10855357Y-15955357D01*
X10869643Y-15926786D01*
X10883928Y-15912500D01*
X10912500Y-15898214D01*
X10955357Y-15898214D01*
X10983928Y-15912500D01*
X10998214Y-15926786D01*
X11012500Y-15955357D01*
X11012500Y-16041071D01*
X10998214Y-16069643D01*
X10983928Y-16083929D01*
X10955357Y-16098214D01*
X10912500Y-16098214D01*
X11183928Y-16098214D02*
X11155357Y-16083929D01*
X11141071Y-16055357D01*
X11141071Y-15798214D01*
X11412500Y-16083929D02*
X11383928Y-16098214D01*
X11326786Y-16098214D01*
X11298214Y-16083929D01*
X11283928Y-16055357D01*
X11283928Y-15941071D01*
X11298214Y-15912500D01*
X11326786Y-15898214D01*
X11383928Y-15898214D01*
X11412500Y-15912500D01*
X11426786Y-15941071D01*
X11426786Y-15969643D01*
X11283928Y-15998214D01*
X11541071Y-16083929D02*
X11569643Y-16098214D01*
X11626786Y-16098214D01*
X11655357Y-16083929D01*
X11669643Y-16055357D01*
X11669643Y-16041071D01*
X11655357Y-16012500D01*
X11626786Y-15998214D01*
X11583928Y-15998214D01*
X11555357Y-15983929D01*
X11541071Y-15955357D01*
X11541071Y-15941071D01*
X11555357Y-15912500D01*
X11583928Y-15898214D01*
X11626786Y-15898214D01*
X11655357Y-15912500D01*
X11769643Y-16212500D02*
X11783928Y-16198214D01*
X11812500Y-16155357D01*
X11826786Y-16126786D01*
X11841071Y-16083929D01*
X11855357Y-16012500D01*
X11855357Y-15955357D01*
X11841071Y-15883929D01*
X11826786Y-15841071D01*
X11812500Y-15812500D01*
X11783928Y-15769643D01*
X11769643Y-15755357D01*
X4997500Y-16358500D02*
G75*
G03*
X4997500Y-16358500I-38100J0D01*
G01*
X5341071Y-16194214D02*
X5369643Y-16194214D01*
X5398214Y-16208500D01*
X5412500Y-16222786D01*
X5426786Y-16251357D01*
X5441071Y-16308500D01*
X5441071Y-16379929D01*
X5426786Y-16437071D01*
X5412500Y-16465643D01*
X5398214Y-16479929D01*
X5369643Y-16494214D01*
X5341071Y-16494214D01*
X5312500Y-16479929D01*
X5298214Y-16465643D01*
X5283928Y-16437071D01*
X5269643Y-16379929D01*
X5269643Y-16308500D01*
X5283928Y-16251357D01*
X5298214Y-16222786D01*
X5312500Y-16208500D01*
X5341071Y-16194214D01*
X5569643Y-16465643D02*
X5583928Y-16479929D01*
X5569643Y-16494214D01*
X5555357Y-16479929D01*
X5569643Y-16465643D01*
X5569643Y-16494214D01*
X5683928Y-16194214D02*
X5883928Y-16194214D01*
X5755357Y-16494214D01*
X6126786Y-16194214D02*
X6069643Y-16194214D01*
X6041071Y-16208500D01*
X6026786Y-16222786D01*
X5998214Y-16265643D01*
X5983928Y-16322786D01*
X5983928Y-16437071D01*
X5998214Y-16465643D01*
X6012500Y-16479929D01*
X6041071Y-16494214D01*
X6098214Y-16494214D01*
X6126786Y-16479929D01*
X6141071Y-16465643D01*
X6155357Y-16437071D01*
X6155357Y-16365643D01*
X6141071Y-16337071D01*
X6126786Y-16322786D01*
X6098214Y-16308500D01*
X6041071Y-16308500D01*
X6012500Y-16322786D01*
X5998214Y-16337071D01*
X5983928Y-16365643D01*
X6283928Y-16494214D02*
X6283928Y-16294214D01*
X6283928Y-16322786D02*
X6298214Y-16308500D01*
X6326786Y-16294214D01*
X6369643Y-16294214D01*
X6398214Y-16308500D01*
X6412500Y-16337071D01*
X6412500Y-16494214D01*
X6412500Y-16337071D02*
X6426786Y-16308500D01*
X6455357Y-16294214D01*
X6498214Y-16294214D01*
X6526786Y-16308500D01*
X6541071Y-16337071D01*
X6541071Y-16494214D01*
X6683928Y-16494214D02*
X6683928Y-16294214D01*
X6683928Y-16322786D02*
X6698214Y-16308500D01*
X6726786Y-16294214D01*
X6769643Y-16294214D01*
X6798214Y-16308500D01*
X6812500Y-16337071D01*
X6812500Y-16494214D01*
X6812500Y-16337071D02*
X6826786Y-16308500D01*
X6855357Y-16294214D01*
X6898214Y-16294214D01*
X6926786Y-16308500D01*
X6941071Y-16337071D01*
X6941071Y-16494214D01*
X7526786Y-16179929D02*
X7269643Y-16565643D01*
X7912500Y-16194214D02*
X7941071Y-16194214D01*
X7969643Y-16208500D01*
X7983928Y-16222786D01*
X7998214Y-16251357D01*
X8012500Y-16308500D01*
X8012500Y-16379929D01*
X7998214Y-16437071D01*
X7983928Y-16465643D01*
X7969643Y-16479929D01*
X7941071Y-16494214D01*
X7912500Y-16494214D01*
X7883928Y-16479929D01*
X7869643Y-16465643D01*
X7855357Y-16437071D01*
X7841071Y-16379929D01*
X7841071Y-16308500D01*
X7855357Y-16251357D01*
X7869643Y-16222786D01*
X7883928Y-16208500D01*
X7912500Y-16194214D01*
X8141071Y-16465643D02*
X8155357Y-16479929D01*
X8141071Y-16494214D01*
X8126786Y-16479929D01*
X8141071Y-16465643D01*
X8141071Y-16494214D01*
X8341071Y-16194214D02*
X8369643Y-16194214D01*
X8398214Y-16208500D01*
X8412500Y-16222786D01*
X8426786Y-16251357D01*
X8441071Y-16308500D01*
X8441071Y-16379929D01*
X8426786Y-16437071D01*
X8412500Y-16465643D01*
X8398214Y-16479929D01*
X8369643Y-16494214D01*
X8341071Y-16494214D01*
X8312500Y-16479929D01*
X8298214Y-16465643D01*
X8283928Y-16437071D01*
X8269643Y-16379929D01*
X8269643Y-16308500D01*
X8283928Y-16251357D01*
X8298214Y-16222786D01*
X8312500Y-16208500D01*
X8341071Y-16194214D01*
X8541071Y-16194214D02*
X8726786Y-16194214D01*
X8626786Y-16308500D01*
X8669643Y-16308500D01*
X8698214Y-16322786D01*
X8712500Y-16337071D01*
X8726786Y-16365643D01*
X8726786Y-16437071D01*
X8712500Y-16465643D01*
X8698214Y-16479929D01*
X8669643Y-16494214D01*
X8583928Y-16494214D01*
X8555357Y-16479929D01*
X8541071Y-16465643D01*
X8912500Y-16194214D02*
X8941071Y-16194214D01*
X8969643Y-16208500D01*
X8983928Y-16222786D01*
X8998214Y-16251357D01*
X9012500Y-16308500D01*
X9012500Y-16379929D01*
X8998214Y-16437071D01*
X8983928Y-16465643D01*
X8969643Y-16479929D01*
X8941071Y-16494214D01*
X8912500Y-16494214D01*
X8883928Y-16479929D01*
X8869643Y-16465643D01*
X8855357Y-16437071D01*
X8841071Y-16379929D01*
X8841071Y-16308500D01*
X8855357Y-16251357D01*
X8869643Y-16222786D01*
X8883928Y-16208500D01*
X8912500Y-16194214D01*
X9126786Y-16194214D02*
X9126786Y-16251357D01*
X9241071Y-16194214D02*
X9241071Y-16251357D01*
X9683928Y-16608500D02*
X9669643Y-16594214D01*
X9641071Y-16551357D01*
X9626786Y-16522786D01*
X9612500Y-16479929D01*
X9598214Y-16408500D01*
X9598214Y-16351357D01*
X9612500Y-16279929D01*
X9626786Y-16237071D01*
X9641071Y-16208500D01*
X9669643Y-16165643D01*
X9683928Y-16151357D01*
X9926786Y-16294214D02*
X9926786Y-16494214D01*
X9855357Y-16179929D02*
X9783928Y-16394214D01*
X9969643Y-16394214D01*
X10069643Y-16222786D02*
X10083928Y-16208500D01*
X10112500Y-16194214D01*
X10183928Y-16194214D01*
X10212500Y-16208500D01*
X10226786Y-16222786D01*
X10241071Y-16251357D01*
X10241071Y-16279929D01*
X10226786Y-16322786D01*
X10055357Y-16494214D01*
X10241071Y-16494214D01*
X10598214Y-16494214D02*
X10598214Y-16194214D01*
X10726786Y-16494214D02*
X10726786Y-16337071D01*
X10712500Y-16308500D01*
X10683928Y-16294214D01*
X10641071Y-16294214D01*
X10612500Y-16308500D01*
X10598214Y-16322786D01*
X10912500Y-16494214D02*
X10883928Y-16479929D01*
X10869643Y-16465643D01*
X10855357Y-16437071D01*
X10855357Y-16351357D01*
X10869643Y-16322786D01*
X10883928Y-16308500D01*
X10912500Y-16294214D01*
X10955357Y-16294214D01*
X10983928Y-16308500D01*
X10998214Y-16322786D01*
X11012500Y-16351357D01*
X11012500Y-16437071D01*
X10998214Y-16465643D01*
X10983928Y-16479929D01*
X10955357Y-16494214D01*
X10912500Y-16494214D01*
X11183928Y-16494214D02*
X11155357Y-16479929D01*
X11141071Y-16451357D01*
X11141071Y-16194214D01*
X11412500Y-16479929D02*
X11383928Y-16494214D01*
X11326786Y-16494214D01*
X11298214Y-16479929D01*
X11283928Y-16451357D01*
X11283928Y-16337071D01*
X11298214Y-16308500D01*
X11326786Y-16294214D01*
X11383928Y-16294214D01*
X11412500Y-16308500D01*
X11426786Y-16337071D01*
X11426786Y-16365643D01*
X11283928Y-16394214D01*
X11541071Y-16479929D02*
X11569643Y-16494214D01*
X11626786Y-16494214D01*
X11655357Y-16479929D01*
X11669643Y-16451357D01*
X11669643Y-16437071D01*
X11655357Y-16408500D01*
X11626786Y-16394214D01*
X11583928Y-16394214D01*
X11555357Y-16379929D01*
X11541071Y-16351357D01*
X11541071Y-16337071D01*
X11555357Y-16308500D01*
X11583928Y-16294214D01*
X11626786Y-16294214D01*
X11655357Y-16308500D01*
X11769643Y-16608500D02*
X11783928Y-16594214D01*
X11812500Y-16551357D01*
X11826786Y-16522786D01*
X11841071Y-16479929D01*
X11855357Y-16408500D01*
X11855357Y-16351357D01*
X11841071Y-16279929D01*
X11826786Y-16237071D01*
X11812500Y-16208500D01*
X11783928Y-16165643D01*
X11769643Y-16151357D01*
X4957500Y-16714500D02*
X4957500Y-16794500D01*
X4917500Y-16754500D02*
X4997500Y-16754500D01*
X5341071Y-16590214D02*
X5369643Y-16590214D01*
X5398214Y-16604500D01*
X5412500Y-16618786D01*
X5426786Y-16647357D01*
X5441071Y-16704500D01*
X5441071Y-16775929D01*
X5426786Y-16833072D01*
X5412500Y-16861643D01*
X5398214Y-16875929D01*
X5369643Y-16890214D01*
X5341071Y-16890214D01*
X5312500Y-16875929D01*
X5298214Y-16861643D01*
X5283928Y-16833072D01*
X5269643Y-16775929D01*
X5269643Y-16704500D01*
X5283928Y-16647357D01*
X5298214Y-16618786D01*
X5312500Y-16604500D01*
X5341071Y-16590214D01*
X5569643Y-16861643D02*
X5583928Y-16875929D01*
X5569643Y-16890214D01*
X5555357Y-16875929D01*
X5569643Y-16861643D01*
X5569643Y-16890214D01*
X5755357Y-16718786D02*
X5726786Y-16704500D01*
X5712500Y-16690214D01*
X5698214Y-16661643D01*
X5698214Y-16647357D01*
X5712500Y-16618786D01*
X5726786Y-16604500D01*
X5755357Y-16590214D01*
X5812500Y-16590214D01*
X5841071Y-16604500D01*
X5855357Y-16618786D01*
X5869643Y-16647357D01*
X5869643Y-16661643D01*
X5855357Y-16690214D01*
X5841071Y-16704500D01*
X5812500Y-16718786D01*
X5755357Y-16718786D01*
X5726786Y-16733071D01*
X5712500Y-16747357D01*
X5698214Y-16775929D01*
X5698214Y-16833072D01*
X5712500Y-16861643D01*
X5726786Y-16875929D01*
X5755357Y-16890214D01*
X5812500Y-16890214D01*
X5841071Y-16875929D01*
X5855357Y-16861643D01*
X5869643Y-16833072D01*
X5869643Y-16775929D01*
X5855357Y-16747357D01*
X5841071Y-16733071D01*
X5812500Y-16718786D01*
X6055357Y-16590214D02*
X6083928Y-16590214D01*
X6112500Y-16604500D01*
X6126786Y-16618786D01*
X6141071Y-16647357D01*
X6155357Y-16704500D01*
X6155357Y-16775929D01*
X6141071Y-16833072D01*
X6126786Y-16861643D01*
X6112500Y-16875929D01*
X6083928Y-16890214D01*
X6055357Y-16890214D01*
X6026786Y-16875929D01*
X6012500Y-16861643D01*
X5998214Y-16833072D01*
X5983928Y-16775929D01*
X5983928Y-16704500D01*
X5998214Y-16647357D01*
X6012500Y-16618786D01*
X6026786Y-16604500D01*
X6055357Y-16590214D01*
X6283928Y-16890214D02*
X6283928Y-16690214D01*
X6283928Y-16718786D02*
X6298214Y-16704500D01*
X6326786Y-16690214D01*
X6369643Y-16690214D01*
X6398214Y-16704500D01*
X6412500Y-16733071D01*
X6412500Y-16890214D01*
X6412500Y-16733071D02*
X6426786Y-16704500D01*
X6455357Y-16690214D01*
X6498214Y-16690214D01*
X6526786Y-16704500D01*
X6541071Y-16733071D01*
X6541071Y-16890214D01*
X6683928Y-16890214D02*
X6683928Y-16690214D01*
X6683928Y-16718786D02*
X6698214Y-16704500D01*
X6726786Y-16690214D01*
X6769643Y-16690214D01*
X6798214Y-16704500D01*
X6812500Y-16733071D01*
X6812500Y-16890214D01*
X6812500Y-16733071D02*
X6826786Y-16704500D01*
X6855357Y-16690214D01*
X6898214Y-16690214D01*
X6926786Y-16704500D01*
X6941071Y-16733071D01*
X6941071Y-16890214D01*
X7526786Y-16575929D02*
X7269643Y-16961643D01*
X7912500Y-16590214D02*
X7941071Y-16590214D01*
X7969643Y-16604500D01*
X7983928Y-16618786D01*
X7998214Y-16647357D01*
X8012500Y-16704500D01*
X8012500Y-16775929D01*
X7998214Y-16833072D01*
X7983928Y-16861643D01*
X7969643Y-16875929D01*
X7941071Y-16890214D01*
X7912500Y-16890214D01*
X7883928Y-16875929D01*
X7869643Y-16861643D01*
X7855357Y-16833072D01*
X7841071Y-16775929D01*
X7841071Y-16704500D01*
X7855357Y-16647357D01*
X7869643Y-16618786D01*
X7883928Y-16604500D01*
X7912500Y-16590214D01*
X8141071Y-16861643D02*
X8155357Y-16875929D01*
X8141071Y-16890214D01*
X8126786Y-16875929D01*
X8141071Y-16861643D01*
X8141071Y-16890214D01*
X8341071Y-16590214D02*
X8369643Y-16590214D01*
X8398214Y-16604500D01*
X8412500Y-16618786D01*
X8426786Y-16647357D01*
X8441071Y-16704500D01*
X8441071Y-16775929D01*
X8426786Y-16833072D01*
X8412500Y-16861643D01*
X8398214Y-16875929D01*
X8369643Y-16890214D01*
X8341071Y-16890214D01*
X8312500Y-16875929D01*
X8298214Y-16861643D01*
X8283928Y-16833072D01*
X8269643Y-16775929D01*
X8269643Y-16704500D01*
X8283928Y-16647357D01*
X8298214Y-16618786D01*
X8312500Y-16604500D01*
X8341071Y-16590214D01*
X8541071Y-16590214D02*
X8726786Y-16590214D01*
X8626786Y-16704500D01*
X8669643Y-16704500D01*
X8698214Y-16718786D01*
X8712500Y-16733071D01*
X8726786Y-16761643D01*
X8726786Y-16833072D01*
X8712500Y-16861643D01*
X8698214Y-16875929D01*
X8669643Y-16890214D01*
X8583928Y-16890214D01*
X8555357Y-16875929D01*
X8541071Y-16861643D01*
X9012500Y-16890214D02*
X8841071Y-16890214D01*
X8926786Y-16890214D02*
X8926786Y-16590214D01*
X8898214Y-16633071D01*
X8869643Y-16661643D01*
X8841071Y-16675929D01*
X9126786Y-16590214D02*
X9126786Y-16647357D01*
X9241071Y-16590214D02*
X9241071Y-16647357D01*
X9683928Y-17004500D02*
X9669643Y-16990214D01*
X9641071Y-16947357D01*
X9626786Y-16918786D01*
X9612500Y-16875929D01*
X9598214Y-16804500D01*
X9598214Y-16747357D01*
X9612500Y-16675929D01*
X9626786Y-16633071D01*
X9641071Y-16604500D01*
X9669643Y-16561643D01*
X9683928Y-16547357D01*
X9783928Y-16618786D02*
X9798214Y-16604500D01*
X9826786Y-16590214D01*
X9898214Y-16590214D01*
X9926786Y-16604500D01*
X9941071Y-16618786D01*
X9955357Y-16647357D01*
X9955357Y-16675929D01*
X9941071Y-16718786D01*
X9769643Y-16890214D01*
X9955357Y-16890214D01*
X10312500Y-16890214D02*
X10312500Y-16590214D01*
X10441071Y-16890214D02*
X10441071Y-16733071D01*
X10426786Y-16704500D01*
X10398214Y-16690214D01*
X10355357Y-16690214D01*
X10326786Y-16704500D01*
X10312500Y-16718786D01*
X10626786Y-16890214D02*
X10598214Y-16875929D01*
X10583928Y-16861643D01*
X10569643Y-16833072D01*
X10569643Y-16747357D01*
X10583928Y-16718786D01*
X10598214Y-16704500D01*
X10626786Y-16690214D01*
X10669643Y-16690214D01*
X10698214Y-16704500D01*
X10712500Y-16718786D01*
X10726786Y-16747357D01*
X10726786Y-16833072D01*
X10712500Y-16861643D01*
X10698214Y-16875929D01*
X10669643Y-16890214D01*
X10626786Y-16890214D01*
X10898214Y-16890214D02*
X10869643Y-16875929D01*
X10855357Y-16847357D01*
X10855357Y-16590214D01*
X11126786Y-16875929D02*
X11098214Y-16890214D01*
X11041071Y-16890214D01*
X11012500Y-16875929D01*
X10998214Y-16847357D01*
X10998214Y-16733071D01*
X11012500Y-16704500D01*
X11041071Y-16690214D01*
X11098214Y-16690214D01*
X11126786Y-16704500D01*
X11141071Y-16733071D01*
X11141071Y-16761643D01*
X10998214Y-16790214D01*
X11255357Y-16875929D02*
X11283928Y-16890214D01*
X11341071Y-16890214D01*
X11369643Y-16875929D01*
X11383928Y-16847357D01*
X11383928Y-16833072D01*
X11369643Y-16804500D01*
X11341071Y-16790214D01*
X11298214Y-16790214D01*
X11269643Y-16775929D01*
X11255357Y-16747357D01*
X11255357Y-16733071D01*
X11269643Y-16704500D01*
X11298214Y-16690214D01*
X11341071Y-16690214D01*
X11369643Y-16704500D01*
X11483928Y-17004500D02*
X11498214Y-16990214D01*
X11526786Y-16947357D01*
X11541071Y-16918786D01*
X11555357Y-16875929D01*
X11569643Y-16804500D01*
X11569643Y-16747357D01*
X11555357Y-16675929D01*
X11541071Y-16633071D01*
X11526786Y-16604500D01*
X11498214Y-16561643D01*
X11483928Y-16547357D01*
X4982856Y-17185856D02*
X4982856Y-17115144D01*
X4912144Y-17115144D01*
X4912144Y-17185856D01*
X4982856Y-17185856D01*
X5441071Y-17286214D02*
X5269643Y-17286214D01*
X5355357Y-17286214D02*
X5355357Y-16986214D01*
X5326786Y-17029072D01*
X5298214Y-17057643D01*
X5269643Y-17071929D01*
X5569643Y-17257643D02*
X5583928Y-17271929D01*
X5569643Y-17286214D01*
X5555357Y-17271929D01*
X5569643Y-17257643D01*
X5569643Y-17286214D01*
X5769643Y-16986214D02*
X5798214Y-16986214D01*
X5826786Y-17000500D01*
X5841071Y-17014786D01*
X5855357Y-17043357D01*
X5869643Y-17100500D01*
X5869643Y-17171929D01*
X5855357Y-17229072D01*
X5841071Y-17257643D01*
X5826786Y-17271929D01*
X5798214Y-17286214D01*
X5769643Y-17286214D01*
X5741071Y-17271929D01*
X5726786Y-17257643D01*
X5712500Y-17229072D01*
X5698214Y-17171929D01*
X5698214Y-17100500D01*
X5712500Y-17043357D01*
X5726786Y-17014786D01*
X5741071Y-17000500D01*
X5769643Y-16986214D01*
X6055357Y-16986214D02*
X6083928Y-16986214D01*
X6112500Y-17000500D01*
X6126786Y-17014786D01*
X6141071Y-17043357D01*
X6155357Y-17100500D01*
X6155357Y-17171929D01*
X6141071Y-17229072D01*
X6126786Y-17257643D01*
X6112500Y-17271929D01*
X6083928Y-17286214D01*
X6055357Y-17286214D01*
X6026786Y-17271929D01*
X6012500Y-17257643D01*
X5998214Y-17229072D01*
X5983928Y-17171929D01*
X5983928Y-17100500D01*
X5998214Y-17043357D01*
X6012500Y-17014786D01*
X6026786Y-17000500D01*
X6055357Y-16986214D01*
X6283928Y-17286214D02*
X6283928Y-17086214D01*
X6283928Y-17114786D02*
X6298214Y-17100500D01*
X6326786Y-17086214D01*
X6369643Y-17086214D01*
X6398214Y-17100500D01*
X6412500Y-17129072D01*
X6412500Y-17286214D01*
X6412500Y-17129072D02*
X6426786Y-17100500D01*
X6455357Y-17086214D01*
X6498214Y-17086214D01*
X6526786Y-17100500D01*
X6541071Y-17129072D01*
X6541071Y-17286214D01*
X6683928Y-17286214D02*
X6683928Y-17086214D01*
X6683928Y-17114786D02*
X6698214Y-17100500D01*
X6726786Y-17086214D01*
X6769643Y-17086214D01*
X6798214Y-17100500D01*
X6812500Y-17129072D01*
X6812500Y-17286214D01*
X6812500Y-17129072D02*
X6826786Y-17100500D01*
X6855357Y-17086214D01*
X6898214Y-17086214D01*
X6926786Y-17100500D01*
X6941071Y-17129072D01*
X6941071Y-17286214D01*
X7526786Y-16971929D02*
X7269643Y-17357643D01*
X7912500Y-16986214D02*
X7941071Y-16986214D01*
X7969643Y-17000500D01*
X7983928Y-17014786D01*
X7998214Y-17043357D01*
X8012500Y-17100500D01*
X8012500Y-17171929D01*
X7998214Y-17229072D01*
X7983928Y-17257643D01*
X7969643Y-17271929D01*
X7941071Y-17286214D01*
X7912500Y-17286214D01*
X7883928Y-17271929D01*
X7869643Y-17257643D01*
X7855357Y-17229072D01*
X7841071Y-17171929D01*
X7841071Y-17100500D01*
X7855357Y-17043357D01*
X7869643Y-17014786D01*
X7883928Y-17000500D01*
X7912500Y-16986214D01*
X8141071Y-17257643D02*
X8155357Y-17271929D01*
X8141071Y-17286214D01*
X8126786Y-17271929D01*
X8141071Y-17257643D01*
X8141071Y-17286214D01*
X8341071Y-16986214D02*
X8369643Y-16986214D01*
X8398214Y-17000500D01*
X8412500Y-17014786D01*
X8426786Y-17043357D01*
X8441071Y-17100500D01*
X8441071Y-17171929D01*
X8426786Y-17229072D01*
X8412500Y-17257643D01*
X8398214Y-17271929D01*
X8369643Y-17286214D01*
X8341071Y-17286214D01*
X8312500Y-17271929D01*
X8298214Y-17257643D01*
X8283928Y-17229072D01*
X8269643Y-17171929D01*
X8269643Y-17100500D01*
X8283928Y-17043357D01*
X8298214Y-17014786D01*
X8312500Y-17000500D01*
X8341071Y-16986214D01*
X8541071Y-16986214D02*
X8726786Y-16986214D01*
X8626786Y-17100500D01*
X8669643Y-17100500D01*
X8698214Y-17114786D01*
X8712500Y-17129072D01*
X8726786Y-17157643D01*
X8726786Y-17229072D01*
X8712500Y-17257643D01*
X8698214Y-17271929D01*
X8669643Y-17286214D01*
X8583928Y-17286214D01*
X8555357Y-17271929D01*
X8541071Y-17257643D01*
X8869643Y-17286214D02*
X8926786Y-17286214D01*
X8955357Y-17271929D01*
X8969643Y-17257643D01*
X8998214Y-17214786D01*
X9012500Y-17157643D01*
X9012500Y-17043357D01*
X8998214Y-17014786D01*
X8983928Y-17000500D01*
X8955357Y-16986214D01*
X8898214Y-16986214D01*
X8869643Y-17000500D01*
X8855357Y-17014786D01*
X8841071Y-17043357D01*
X8841071Y-17114786D01*
X8855357Y-17143357D01*
X8869643Y-17157643D01*
X8898214Y-17171929D01*
X8955357Y-17171929D01*
X8983928Y-17157643D01*
X8998214Y-17143357D01*
X9012500Y-17114786D01*
X9126786Y-16986214D02*
X9126786Y-17043357D01*
X9241071Y-16986214D02*
X9241071Y-17043357D01*
X9683928Y-17400500D02*
X9669643Y-17386214D01*
X9641071Y-17343357D01*
X9626786Y-17314786D01*
X9612500Y-17271929D01*
X9598214Y-17200500D01*
X9598214Y-17143357D01*
X9612500Y-17071929D01*
X9626786Y-17029072D01*
X9641071Y-17000500D01*
X9669643Y-16957643D01*
X9683928Y-16943357D01*
X9955357Y-17286214D02*
X9783928Y-17286214D01*
X9869643Y-17286214D02*
X9869643Y-16986214D01*
X9841071Y-17029072D01*
X9812500Y-17057643D01*
X9783928Y-17071929D01*
X10098214Y-17286214D02*
X10155357Y-17286214D01*
X10183928Y-17271929D01*
X10198214Y-17257643D01*
X10226786Y-17214786D01*
X10241071Y-17157643D01*
X10241071Y-17043357D01*
X10226786Y-17014786D01*
X10212500Y-17000500D01*
X10183928Y-16986214D01*
X10126786Y-16986214D01*
X10098214Y-17000500D01*
X10083928Y-17014786D01*
X10069643Y-17043357D01*
X10069643Y-17114786D01*
X10083928Y-17143357D01*
X10098214Y-17157643D01*
X10126786Y-17171929D01*
X10183928Y-17171929D01*
X10212500Y-17157643D01*
X10226786Y-17143357D01*
X10241071Y-17114786D01*
X10598214Y-17286214D02*
X10598214Y-16986214D01*
X10726786Y-17286214D02*
X10726786Y-17129072D01*
X10712500Y-17100500D01*
X10683928Y-17086214D01*
X10641071Y-17086214D01*
X10612500Y-17100500D01*
X10598214Y-17114786D01*
X10912500Y-17286214D02*
X10883928Y-17271929D01*
X10869643Y-17257643D01*
X10855357Y-17229072D01*
X10855357Y-17143357D01*
X10869643Y-17114786D01*
X10883928Y-17100500D01*
X10912500Y-17086214D01*
X10955357Y-17086214D01*
X10983928Y-17100500D01*
X10998214Y-17114786D01*
X11012500Y-17143357D01*
X11012500Y-17229072D01*
X10998214Y-17257643D01*
X10983928Y-17271929D01*
X10955357Y-17286214D01*
X10912500Y-17286214D01*
X11183928Y-17286214D02*
X11155357Y-17271929D01*
X11141071Y-17243357D01*
X11141071Y-16986214D01*
X11412500Y-17271929D02*
X11383928Y-17286214D01*
X11326786Y-17286214D01*
X11298214Y-17271929D01*
X11283928Y-17243357D01*
X11283928Y-17129072D01*
X11298214Y-17100500D01*
X11326786Y-17086214D01*
X11383928Y-17086214D01*
X11412500Y-17100500D01*
X11426786Y-17129072D01*
X11426786Y-17157643D01*
X11283928Y-17186214D01*
X11541071Y-17271929D02*
X11569643Y-17286214D01*
X11626786Y-17286214D01*
X11655357Y-17271929D01*
X11669643Y-17243357D01*
X11669643Y-17229072D01*
X11655357Y-17200500D01*
X11626786Y-17186214D01*
X11583928Y-17186214D01*
X11555357Y-17171929D01*
X11541071Y-17143357D01*
X11541071Y-17129072D01*
X11555357Y-17100500D01*
X11583928Y-17086214D01*
X11626786Y-17086214D01*
X11655357Y-17100500D01*
X11769643Y-17400500D02*
X11783928Y-17386214D01*
X11812500Y-17343357D01*
X11826786Y-17314786D01*
X11841071Y-17271929D01*
X11855357Y-17200500D01*
X11855357Y-17143357D01*
X11841071Y-17071929D01*
X11826786Y-17029072D01*
X11812500Y-17000500D01*
X11783928Y-16957643D01*
X11769643Y-16943357D01*
X4932500Y-17611500D02*
X4997500Y-17546500D01*
X4932500Y-17481500D01*
X4867500Y-17546500D01*
X4932500Y-17611500D01*
X5441071Y-17682214D02*
X5269643Y-17682214D01*
X5355357Y-17682214D02*
X5355357Y-17382214D01*
X5326786Y-17425072D01*
X5298214Y-17453643D01*
X5269643Y-17467929D01*
X5569643Y-17653643D02*
X5583928Y-17667929D01*
X5569643Y-17682214D01*
X5555357Y-17667929D01*
X5569643Y-17653643D01*
X5569643Y-17682214D01*
X5683928Y-17382214D02*
X5869643Y-17382214D01*
X5769643Y-17496500D01*
X5812500Y-17496500D01*
X5841071Y-17510786D01*
X5855357Y-17525072D01*
X5869643Y-17553643D01*
X5869643Y-17625072D01*
X5855357Y-17653643D01*
X5841071Y-17667929D01*
X5812500Y-17682214D01*
X5726786Y-17682214D01*
X5698214Y-17667929D01*
X5683928Y-17653643D01*
X6055357Y-17382214D02*
X6083928Y-17382214D01*
X6112500Y-17396500D01*
X6126786Y-17410786D01*
X6141071Y-17439357D01*
X6155357Y-17496500D01*
X6155357Y-17567929D01*
X6141071Y-17625072D01*
X6126786Y-17653643D01*
X6112500Y-17667929D01*
X6083928Y-17682214D01*
X6055357Y-17682214D01*
X6026786Y-17667929D01*
X6012500Y-17653643D01*
X5998214Y-17625072D01*
X5983928Y-17567929D01*
X5983928Y-17496500D01*
X5998214Y-17439357D01*
X6012500Y-17410786D01*
X6026786Y-17396500D01*
X6055357Y-17382214D01*
X6283928Y-17682214D02*
X6283928Y-17482214D01*
X6283928Y-17510786D02*
X6298214Y-17496500D01*
X6326786Y-17482214D01*
X6369643Y-17482214D01*
X6398214Y-17496500D01*
X6412500Y-17525072D01*
X6412500Y-17682214D01*
X6412500Y-17525072D02*
X6426786Y-17496500D01*
X6455357Y-17482214D01*
X6498214Y-17482214D01*
X6526786Y-17496500D01*
X6541071Y-17525072D01*
X6541071Y-17682214D01*
X6683928Y-17682214D02*
X6683928Y-17482214D01*
X6683928Y-17510786D02*
X6698214Y-17496500D01*
X6726786Y-17482214D01*
X6769643Y-17482214D01*
X6798214Y-17496500D01*
X6812500Y-17525072D01*
X6812500Y-17682214D01*
X6812500Y-17525072D02*
X6826786Y-17496500D01*
X6855357Y-17482214D01*
X6898214Y-17482214D01*
X6926786Y-17496500D01*
X6941071Y-17525072D01*
X6941071Y-17682214D01*
X7526786Y-17367929D02*
X7269643Y-17753643D01*
X7912500Y-17382214D02*
X7941071Y-17382214D01*
X7969643Y-17396500D01*
X7983928Y-17410786D01*
X7998214Y-17439357D01*
X8012500Y-17496500D01*
X8012500Y-17567929D01*
X7998214Y-17625072D01*
X7983928Y-17653643D01*
X7969643Y-17667929D01*
X7941071Y-17682214D01*
X7912500Y-17682214D01*
X7883928Y-17667929D01*
X7869643Y-17653643D01*
X7855357Y-17625072D01*
X7841071Y-17567929D01*
X7841071Y-17496500D01*
X7855357Y-17439357D01*
X7869643Y-17410786D01*
X7883928Y-17396500D01*
X7912500Y-17382214D01*
X8141071Y-17653643D02*
X8155357Y-17667929D01*
X8141071Y-17682214D01*
X8126786Y-17667929D01*
X8141071Y-17653643D01*
X8141071Y-17682214D01*
X8341071Y-17382214D02*
X8369643Y-17382214D01*
X8398214Y-17396500D01*
X8412500Y-17410786D01*
X8426786Y-17439357D01*
X8441071Y-17496500D01*
X8441071Y-17567929D01*
X8426786Y-17625072D01*
X8412500Y-17653643D01*
X8398214Y-17667929D01*
X8369643Y-17682214D01*
X8341071Y-17682214D01*
X8312500Y-17667929D01*
X8298214Y-17653643D01*
X8283928Y-17625072D01*
X8269643Y-17567929D01*
X8269643Y-17496500D01*
X8283928Y-17439357D01*
X8298214Y-17410786D01*
X8312500Y-17396500D01*
X8341071Y-17382214D01*
X8712500Y-17382214D02*
X8569643Y-17382214D01*
X8555357Y-17525072D01*
X8569643Y-17510786D01*
X8598214Y-17496500D01*
X8669643Y-17496500D01*
X8698214Y-17510786D01*
X8712500Y-17525072D01*
X8726786Y-17553643D01*
X8726786Y-17625072D01*
X8712500Y-17653643D01*
X8698214Y-17667929D01*
X8669643Y-17682214D01*
X8598214Y-17682214D01*
X8569643Y-17667929D01*
X8555357Y-17653643D01*
X9012500Y-17682214D02*
X8841071Y-17682214D01*
X8926786Y-17682214D02*
X8926786Y-17382214D01*
X8898214Y-17425072D01*
X8869643Y-17453643D01*
X8841071Y-17467929D01*
X9126786Y-17382214D02*
X9126786Y-17439357D01*
X9241071Y-17382214D02*
X9241071Y-17439357D01*
X9683928Y-17796500D02*
X9669643Y-17782214D01*
X9641071Y-17739357D01*
X9626786Y-17710786D01*
X9612500Y-17667929D01*
X9598214Y-17596500D01*
X9598214Y-17539357D01*
X9612500Y-17467929D01*
X9626786Y-17425072D01*
X9641071Y-17396500D01*
X9669643Y-17353643D01*
X9683928Y-17339357D01*
X9955357Y-17682214D02*
X9783928Y-17682214D01*
X9869643Y-17682214D02*
X9869643Y-17382214D01*
X9841071Y-17425072D01*
X9812500Y-17453643D01*
X9783928Y-17467929D01*
X10212500Y-17382214D02*
X10155357Y-17382214D01*
X10126786Y-17396500D01*
X10112500Y-17410786D01*
X10083928Y-17453643D01*
X10069643Y-17510786D01*
X10069643Y-17625072D01*
X10083928Y-17653643D01*
X10098214Y-17667929D01*
X10126786Y-17682214D01*
X10183928Y-17682214D01*
X10212500Y-17667929D01*
X10226786Y-17653643D01*
X10241071Y-17625072D01*
X10241071Y-17553643D01*
X10226786Y-17525072D01*
X10212500Y-17510786D01*
X10183928Y-17496500D01*
X10126786Y-17496500D01*
X10098214Y-17510786D01*
X10083928Y-17525072D01*
X10069643Y-17553643D01*
X10598214Y-17682214D02*
X10598214Y-17382214D01*
X10726786Y-17682214D02*
X10726786Y-17525072D01*
X10712500Y-17496500D01*
X10683928Y-17482214D01*
X10641071Y-17482214D01*
X10612500Y-17496500D01*
X10598214Y-17510786D01*
X10912500Y-17682214D02*
X10883928Y-17667929D01*
X10869643Y-17653643D01*
X10855357Y-17625072D01*
X10855357Y-17539357D01*
X10869643Y-17510786D01*
X10883928Y-17496500D01*
X10912500Y-17482214D01*
X10955357Y-17482214D01*
X10983928Y-17496500D01*
X10998214Y-17510786D01*
X11012500Y-17539357D01*
X11012500Y-17625072D01*
X10998214Y-17653643D01*
X10983928Y-17667929D01*
X10955357Y-17682214D01*
X10912500Y-17682214D01*
X11183928Y-17682214D02*
X11155357Y-17667929D01*
X11141071Y-17639357D01*
X11141071Y-17382214D01*
X11412500Y-17667929D02*
X11383928Y-17682214D01*
X11326786Y-17682214D01*
X11298214Y-17667929D01*
X11283928Y-17639357D01*
X11283928Y-17525072D01*
X11298214Y-17496500D01*
X11326786Y-17482214D01*
X11383928Y-17482214D01*
X11412500Y-17496500D01*
X11426786Y-17525072D01*
X11426786Y-17553643D01*
X11283928Y-17582214D01*
X11541071Y-17667929D02*
X11569643Y-17682214D01*
X11626786Y-17682214D01*
X11655357Y-17667929D01*
X11669643Y-17639357D01*
X11669643Y-17625072D01*
X11655357Y-17596500D01*
X11626786Y-17582214D01*
X11583928Y-17582214D01*
X11555357Y-17567929D01*
X11541071Y-17539357D01*
X11541071Y-17525072D01*
X11555357Y-17496500D01*
X11583928Y-17482214D01*
X11626786Y-17482214D01*
X11655357Y-17496500D01*
X11769643Y-17796500D02*
X11783928Y-17782214D01*
X11812500Y-17739357D01*
X11826786Y-17710786D01*
X11841071Y-17667929D01*
X11855357Y-17596500D01*
X11855357Y-17539357D01*
X11841071Y-17467929D01*
X11826786Y-17425072D01*
X11812500Y-17396500D01*
X11783928Y-17353643D01*
X11769643Y-17339357D01*
X4847500Y-17867500D02*
X4997500Y-18017500D01*
X4997500Y-17867500D02*
X4847500Y-18017500D01*
X4997500Y-17942500D02*
G75*
G03*
X4997500Y-17942500I-75000J0D01*
G01*
X5441071Y-18078214D02*
X5269643Y-18078214D01*
X5355357Y-18078214D02*
X5355357Y-17778214D01*
X5326786Y-17821072D01*
X5298214Y-17849643D01*
X5269643Y-17863929D01*
X5569643Y-18049643D02*
X5583928Y-18063929D01*
X5569643Y-18078214D01*
X5555357Y-18063929D01*
X5569643Y-18049643D01*
X5569643Y-18078214D01*
X5855357Y-17778214D02*
X5712500Y-17778214D01*
X5698214Y-17921072D01*
X5712500Y-17906786D01*
X5741071Y-17892500D01*
X5812500Y-17892500D01*
X5841071Y-17906786D01*
X5855357Y-17921072D01*
X5869643Y-17949643D01*
X5869643Y-18021072D01*
X5855357Y-18049643D01*
X5841071Y-18063929D01*
X5812500Y-18078214D01*
X5741071Y-18078214D01*
X5712500Y-18063929D01*
X5698214Y-18049643D01*
X6055357Y-17778214D02*
X6083928Y-17778214D01*
X6112500Y-17792500D01*
X6126786Y-17806786D01*
X6141071Y-17835357D01*
X6155357Y-17892500D01*
X6155357Y-17963929D01*
X6141071Y-18021072D01*
X6126786Y-18049643D01*
X6112500Y-18063929D01*
X6083928Y-18078214D01*
X6055357Y-18078214D01*
X6026786Y-18063929D01*
X6012500Y-18049643D01*
X5998214Y-18021072D01*
X5983928Y-17963929D01*
X5983928Y-17892500D01*
X5998214Y-17835357D01*
X6012500Y-17806786D01*
X6026786Y-17792500D01*
X6055357Y-17778214D01*
X6283928Y-18078214D02*
X6283928Y-17878214D01*
X6283928Y-17906786D02*
X6298214Y-17892500D01*
X6326786Y-17878214D01*
X6369643Y-17878214D01*
X6398214Y-17892500D01*
X6412500Y-17921072D01*
X6412500Y-18078214D01*
X6412500Y-17921072D02*
X6426786Y-17892500D01*
X6455357Y-17878214D01*
X6498214Y-17878214D01*
X6526786Y-17892500D01*
X6541071Y-17921072D01*
X6541071Y-18078214D01*
X6683928Y-18078214D02*
X6683928Y-17878214D01*
X6683928Y-17906786D02*
X6698214Y-17892500D01*
X6726786Y-17878214D01*
X6769643Y-17878214D01*
X6798214Y-17892500D01*
X6812500Y-17921072D01*
X6812500Y-18078214D01*
X6812500Y-17921072D02*
X6826786Y-17892500D01*
X6855357Y-17878214D01*
X6898214Y-17878214D01*
X6926786Y-17892500D01*
X6941071Y-17921072D01*
X6941071Y-18078214D01*
X7526786Y-17763929D02*
X7269643Y-18149643D01*
X7912500Y-17778214D02*
X7941071Y-17778214D01*
X7969643Y-17792500D01*
X7983928Y-17806786D01*
X7998214Y-17835357D01*
X8012500Y-17892500D01*
X8012500Y-17963929D01*
X7998214Y-18021072D01*
X7983928Y-18049643D01*
X7969643Y-18063929D01*
X7941071Y-18078214D01*
X7912500Y-18078214D01*
X7883928Y-18063929D01*
X7869643Y-18049643D01*
X7855357Y-18021072D01*
X7841071Y-17963929D01*
X7841071Y-17892500D01*
X7855357Y-17835357D01*
X7869643Y-17806786D01*
X7883928Y-17792500D01*
X7912500Y-17778214D01*
X8141071Y-18049643D02*
X8155357Y-18063929D01*
X8141071Y-18078214D01*
X8126786Y-18063929D01*
X8141071Y-18049643D01*
X8141071Y-18078214D01*
X8341071Y-17778214D02*
X8369643Y-17778214D01*
X8398214Y-17792500D01*
X8412500Y-17806786D01*
X8426786Y-17835357D01*
X8441071Y-17892500D01*
X8441071Y-17963929D01*
X8426786Y-18021072D01*
X8412500Y-18049643D01*
X8398214Y-18063929D01*
X8369643Y-18078214D01*
X8341071Y-18078214D01*
X8312500Y-18063929D01*
X8298214Y-18049643D01*
X8283928Y-18021072D01*
X8269643Y-17963929D01*
X8269643Y-17892500D01*
X8283928Y-17835357D01*
X8298214Y-17806786D01*
X8312500Y-17792500D01*
X8341071Y-17778214D01*
X8712500Y-17778214D02*
X8569643Y-17778214D01*
X8555357Y-17921072D01*
X8569643Y-17906786D01*
X8598214Y-17892500D01*
X8669643Y-17892500D01*
X8698214Y-17906786D01*
X8712500Y-17921072D01*
X8726786Y-17949643D01*
X8726786Y-18021072D01*
X8712500Y-18049643D01*
X8698214Y-18063929D01*
X8669643Y-18078214D01*
X8598214Y-18078214D01*
X8569643Y-18063929D01*
X8555357Y-18049643D01*
X8869643Y-18078214D02*
X8926786Y-18078214D01*
X8955357Y-18063929D01*
X8969643Y-18049643D01*
X8998214Y-18006786D01*
X9012500Y-17949643D01*
X9012500Y-17835357D01*
X8998214Y-17806786D01*
X8983928Y-17792500D01*
X8955357Y-17778214D01*
X8898214Y-17778214D01*
X8869643Y-17792500D01*
X8855357Y-17806786D01*
X8841071Y-17835357D01*
X8841071Y-17906786D01*
X8855357Y-17935357D01*
X8869643Y-17949643D01*
X8898214Y-17963929D01*
X8955357Y-17963929D01*
X8983928Y-17949643D01*
X8998214Y-17935357D01*
X9012500Y-17906786D01*
X9126786Y-17778214D02*
X9126786Y-17835357D01*
X9241071Y-17778214D02*
X9241071Y-17835357D01*
X9683928Y-18192500D02*
X9669643Y-18178214D01*
X9641071Y-18135357D01*
X9626786Y-18106786D01*
X9612500Y-18063929D01*
X9598214Y-17992500D01*
X9598214Y-17935357D01*
X9612500Y-17863929D01*
X9626786Y-17821072D01*
X9641071Y-17792500D01*
X9669643Y-17749643D01*
X9683928Y-17735357D01*
X9855357Y-17778214D02*
X9883928Y-17778214D01*
X9912500Y-17792500D01*
X9926786Y-17806786D01*
X9941071Y-17835357D01*
X9955357Y-17892500D01*
X9955357Y-17963929D01*
X9941071Y-18021072D01*
X9926786Y-18049643D01*
X9912500Y-18063929D01*
X9883928Y-18078214D01*
X9855357Y-18078214D01*
X9826786Y-18063929D01*
X9812500Y-18049643D01*
X9798214Y-18021072D01*
X9783928Y-17963929D01*
X9783928Y-17892500D01*
X9798214Y-17835357D01*
X9812500Y-17806786D01*
X9826786Y-17792500D01*
X9855357Y-17778214D01*
X10312500Y-18078214D02*
X10312500Y-17778214D01*
X10441071Y-18078214D02*
X10441071Y-17921072D01*
X10426786Y-17892500D01*
X10398214Y-17878214D01*
X10355357Y-17878214D01*
X10326786Y-17892500D01*
X10312500Y-17906786D01*
X10626786Y-18078214D02*
X10598214Y-18063929D01*
X10583928Y-18049643D01*
X10569643Y-18021072D01*
X10569643Y-17935357D01*
X10583928Y-17906786D01*
X10598214Y-17892500D01*
X10626786Y-17878214D01*
X10669643Y-17878214D01*
X10698214Y-17892500D01*
X10712500Y-17906786D01*
X10726786Y-17935357D01*
X10726786Y-18021072D01*
X10712500Y-18049643D01*
X10698214Y-18063929D01*
X10669643Y-18078214D01*
X10626786Y-18078214D01*
X10898214Y-18078214D02*
X10869643Y-18063929D01*
X10855357Y-18035357D01*
X10855357Y-17778214D01*
X11126786Y-18063929D02*
X11098214Y-18078214D01*
X11041071Y-18078214D01*
X11012500Y-18063929D01*
X10998214Y-18035357D01*
X10998214Y-17921072D01*
X11012500Y-17892500D01*
X11041071Y-17878214D01*
X11098214Y-17878214D01*
X11126786Y-17892500D01*
X11141071Y-17921072D01*
X11141071Y-17949643D01*
X10998214Y-17978214D01*
X11255357Y-18063929D02*
X11283928Y-18078214D01*
X11341071Y-18078214D01*
X11369643Y-18063929D01*
X11383928Y-18035357D01*
X11383928Y-18021072D01*
X11369643Y-17992500D01*
X11341071Y-17978214D01*
X11298214Y-17978214D01*
X11269643Y-17963929D01*
X11255357Y-17935357D01*
X11255357Y-17921072D01*
X11269643Y-17892500D01*
X11298214Y-17878214D01*
X11341071Y-17878214D01*
X11369643Y-17892500D01*
X11741071Y-17963929D02*
X11969643Y-17963929D01*
X11855357Y-18078214D02*
X11855357Y-17849643D01*
X12469643Y-17878214D02*
X12469643Y-18078214D01*
X12398214Y-17763929D02*
X12326786Y-17978214D01*
X12512500Y-17978214D01*
X12841071Y-18063929D02*
X12869643Y-18078214D01*
X12926786Y-18078214D01*
X12955357Y-18063929D01*
X12969643Y-18035357D01*
X12969643Y-18021072D01*
X12955357Y-17992500D01*
X12926786Y-17978214D01*
X12883928Y-17978214D01*
X12855357Y-17963929D01*
X12841071Y-17935357D01*
X12841071Y-17921072D01*
X12855357Y-17892500D01*
X12883928Y-17878214D01*
X12926786Y-17878214D01*
X12955357Y-17892500D01*
X13141071Y-18078214D02*
X13112500Y-18063929D01*
X13098214Y-18035357D01*
X13098214Y-17778214D01*
X13298214Y-18078214D02*
X13269643Y-18063929D01*
X13255357Y-18049643D01*
X13241071Y-18021072D01*
X13241071Y-17935357D01*
X13255357Y-17906786D01*
X13269643Y-17892500D01*
X13298214Y-17878214D01*
X13341071Y-17878214D01*
X13369643Y-17892500D01*
X13383928Y-17906786D01*
X13398214Y-17935357D01*
X13398214Y-18021072D01*
X13383928Y-18049643D01*
X13369643Y-18063929D01*
X13341071Y-18078214D01*
X13298214Y-18078214D01*
X13483928Y-17878214D02*
X13598214Y-17878214D01*
X13526786Y-17778214D02*
X13526786Y-18035357D01*
X13541071Y-18063929D01*
X13569643Y-18078214D01*
X13598214Y-18078214D01*
X13683928Y-18063929D02*
X13712500Y-18078214D01*
X13769643Y-18078214D01*
X13798214Y-18063929D01*
X13812500Y-18035357D01*
X13812500Y-18021072D01*
X13798214Y-17992500D01*
X13769643Y-17978214D01*
X13726786Y-17978214D01*
X13698214Y-17963929D01*
X13683928Y-17935357D01*
X13683928Y-17921072D01*
X13698214Y-17892500D01*
X13726786Y-17878214D01*
X13769643Y-17878214D01*
X13798214Y-17892500D01*
X13912500Y-18192500D02*
X13926786Y-18178214D01*
X13955357Y-18135357D01*
X13969643Y-18106786D01*
X13983928Y-18063929D01*
X13998214Y-17992500D01*
X13998214Y-17935357D01*
X13983928Y-17863929D01*
X13969643Y-17821072D01*
X13955357Y-17792500D01*
X13926786Y-17749643D01*
X13912500Y-17735357D01*
M02*
