M48
; DRILL file {KiCad (5.1.9)-1} date 04/20/21 14:37:50
; FORMAT={-:-/ absolute / metric / decimal}
; #@! TF.CreationDate,2021-04-20T14:37:50+02:00
; #@! TF.GenerationSoftware,Kicad,Pcbnew,(5.1.9)-1
; #@! TF.FileFunction,Plated,1,2,PTH
FMAT,2
METRIC
T1C0.400
T2C0.762
T3C0.800
T4C1.000
T5C1.300
T6C1.500
%
G90
G05
T1
X54.3Y-109.9
X63.4Y-111.6
X65.3Y-106.9
X78.0Y-124.2
X78.1Y-112.7
X78.2Y-128.7
X79.4Y-107.3
X85.6Y-95.8
X89.2Y-123.6
X91.7Y-112.6
X95.3Y-122.1
X97.3Y-107.0
X102.0Y-129.3
X102.5Y-94.4
X105.8Y-121.8
X106.7Y-113.2
X109.4Y-96.5
X110.1Y-120.9
X114.3Y-107.3
X116.75Y-96.95
X116.9Y-87.9
X117.5Y-102.6
X117.8Y-104.8
X120.6Y-101.6
X121.5Y-106.0
X123.3Y-113.5
X123.5Y-95.9
X124.4Y-87.4
X125.7Y-90.5
X126.0Y-98.7
X126.5Y-130.1
X129.6Y-105.5
X130.6Y-94.8
X133.1Y-103.1
X133.4Y-98.8
X133.6Y-94.2
X134.2Y-102.1
X136.1Y-120.0
X136.2Y-93.6
X136.2Y-111.0
X136.4Y-114.6
X136.4Y-123.5
X136.6Y-100.8
X136.6Y-121.4
X137.3Y-118.1
X137.9Y-93.4
X138.3Y-92.0
X139.2Y-88.5
X139.2Y-122.6
X139.5Y-93.4
X139.9Y-127.4
X140.6Y-123.9
X141.1Y-93.5
X142.1Y-109.0
X142.3Y-96.5
X142.5Y-123.3
X143.1Y-127.4
X143.3Y-94.4
X143.4Y-101.9
X143.6Y-87.2
X143.7Y-96.5
X143.8Y-98.9
X145.3Y-100.2
X145.5Y-97.3
X146.9Y-97.4
X147.2Y-111.7
X148.5Y-109.2
X149.4Y-98.7
X150.3Y-109.1
X151.0Y-111.3
X151.2Y-117.5
X151.8Y-125.9
X152.6Y-97.1
X153.9Y-116.8
T2
X52.5Y-115.5
X52.5Y-120.0
X55.7Y-114.95
X55.75Y-120.55
X59.0Y-115.5
X59.0Y-120.0
X67.5Y-115.5
X67.5Y-120.0
X70.7Y-114.95
X70.75Y-120.55
X74.0Y-115.5
X74.0Y-120.0
X82.5Y-115.5
X82.5Y-120.0
X85.7Y-114.95
X85.75Y-120.55
X89.0Y-115.5
X89.0Y-120.0
X97.5Y-115.5
X97.5Y-120.0
X100.7Y-114.95
X100.75Y-120.55
X104.0Y-115.5
X104.0Y-120.0
X112.5Y-115.5
X112.5Y-120.0
X115.7Y-114.95
X115.75Y-120.55
X119.0Y-115.5
X119.0Y-120.0
X127.5Y-115.5
X127.5Y-120.0
X130.7Y-114.95
X130.75Y-120.55
X134.0Y-115.5
X134.0Y-120.0
X142.5Y-115.5
X142.5Y-120.0
X145.7Y-114.95
X145.75Y-120.55
X149.0Y-115.5
X149.0Y-120.0
T3
X125.0Y-101.0
X125.0Y-105.88
T4
X82.0Y-94.0
X82.0Y-96.5
X82.0Y-99.0
X96.5Y-94.0
X96.5Y-99.0
X106.0Y-94.0
X106.0Y-96.5
X106.0Y-99.0
X120.5Y-94.0
X120.5Y-99.0
X127.46Y-87.0
X130.0Y-87.0
X132.54Y-87.0
X148.0Y-100.92
X148.0Y-103.46
X148.0Y-106.0
X150.54Y-100.92
X150.54Y-103.46
X150.54Y-106.0
T5
X57.5Y-132.5
X57.5Y-137.5
X70.0Y-132.5
X70.0Y-137.5
X82.5Y-132.5
X82.5Y-137.5
X95.0Y-132.5
X95.0Y-137.5
X107.5Y-132.5
X107.5Y-137.5
X120.0Y-132.5
X120.0Y-137.5
X132.5Y-132.5
X132.5Y-137.5
X145.0Y-132.5
X145.0Y-137.5
T6
X88.85Y-90.9G85X90.15Y-90.9
G05
X88.85Y-102.1G85X90.15Y-102.1
G05
X112.85Y-90.9G85X114.15Y-90.9
G05
X112.85Y-102.1G85X114.15Y-102.1
G05
T0
M30
