G04 #@! TF.GenerationSoftware,KiCad,Pcbnew,(5.1.9)-1*
G04 #@! TF.CreationDate,2021-04-20T14:37:47+02:00*
G04 #@! TF.ProjectId,light-external-controller,6c696768-742d-4657-9874-65726e616c2d,rev?*
G04 #@! TF.SameCoordinates,Original*
G04 #@! TF.FileFunction,Soldermask,Top*
G04 #@! TF.FilePolarity,Negative*
%FSLAX46Y46*%
G04 Gerber Fmt 4.6, Leading zero omitted, Abs format (unit mm)*
G04 Created by KiCad (PCBNEW (5.1.9)-1) date 2021-04-20 14:37:47*
%MOMM*%
%LPD*%
G01*
G04 APERTURE LIST*
%ADD10C,1.524000*%
%ADD11C,1.500000*%
%ADD12R,0.550000X1.600000*%
%ADD13R,1.600000X0.550000*%
%ADD14O,3.048000X1.850000*%
%ADD15R,2.000000X2.000000*%
%ADD16C,2.000000*%
%ADD17R,3.200000X2.000000*%
%ADD18R,0.500000X0.900000*%
%ADD19O,1.700000X1.700000*%
%ADD20R,1.700000X1.700000*%
%ADD21C,1.700000*%
%ADD22C,3.700000*%
%ADD23R,1.200000X0.750000*%
%ADD24R,0.750000X1.200000*%
G04 APERTURE END LIST*
D10*
X115700000Y-114950000D03*
X115750000Y-120550000D03*
X119000000Y-115500000D03*
X112500000Y-115500000D03*
X119000000Y-120000000D03*
X112500000Y-120000000D03*
D11*
X125000000Y-105880000D03*
X125000000Y-101000000D03*
D12*
X132200000Y-96750000D03*
X133000000Y-96750000D03*
X133800000Y-96750000D03*
X134600000Y-96750000D03*
X135400000Y-96750000D03*
X136200000Y-96750000D03*
X137000000Y-96750000D03*
X137800000Y-96750000D03*
D13*
X139250000Y-98200000D03*
X139250000Y-99000000D03*
X139250000Y-99800000D03*
X139250000Y-100600000D03*
X139250000Y-101400000D03*
X139250000Y-102200000D03*
X139250000Y-103000000D03*
X139250000Y-103800000D03*
D12*
X137800000Y-105250000D03*
X137000000Y-105250000D03*
X136200000Y-105250000D03*
X135400000Y-105250000D03*
X134600000Y-105250000D03*
X133800000Y-105250000D03*
X133000000Y-105250000D03*
X132200000Y-105250000D03*
D13*
X130750000Y-103800000D03*
X130750000Y-103000000D03*
X130750000Y-102200000D03*
X130750000Y-101400000D03*
X130750000Y-100600000D03*
X130750000Y-99800000D03*
X130750000Y-99000000D03*
X130750000Y-98200000D03*
D14*
X107500000Y-137500000D03*
X107500000Y-132500000D03*
X120000000Y-137500000D03*
X120000000Y-132500000D03*
X57500000Y-137500000D03*
X57500000Y-132500000D03*
X70000000Y-137500000D03*
X70000000Y-132500000D03*
X132500000Y-137500000D03*
X132500000Y-132500000D03*
X145000000Y-137500000D03*
X145000000Y-132500000D03*
X82500000Y-137500000D03*
X82500000Y-132500000D03*
X95000000Y-137500000D03*
X95000000Y-132500000D03*
D10*
X145700000Y-114950000D03*
X145750000Y-120550000D03*
X149000000Y-115500000D03*
X142500000Y-115500000D03*
X149000000Y-120000000D03*
X142500000Y-120000000D03*
X85700000Y-114950000D03*
X85750000Y-120550000D03*
X89000000Y-115500000D03*
X82500000Y-115500000D03*
X89000000Y-120000000D03*
X82500000Y-120000000D03*
X130700000Y-114950000D03*
X130750000Y-120550000D03*
X134000000Y-115500000D03*
X127500000Y-115500000D03*
X134000000Y-120000000D03*
X127500000Y-120000000D03*
X70700000Y-114950000D03*
X70750000Y-120550000D03*
X74000000Y-115500000D03*
X67500000Y-115500000D03*
X74000000Y-120000000D03*
X67500000Y-120000000D03*
X100700000Y-114950000D03*
X100750000Y-120550000D03*
X104000000Y-115500000D03*
X97500000Y-115500000D03*
X104000000Y-120000000D03*
X97500000Y-120000000D03*
X55700000Y-114950000D03*
X55750000Y-120550000D03*
X59000000Y-115500000D03*
X52500000Y-115500000D03*
X59000000Y-120000000D03*
X52500000Y-120000000D03*
D15*
X106000000Y-94000000D03*
D16*
X106000000Y-96500000D03*
X106000000Y-99000000D03*
D17*
X113500000Y-90900000D03*
X113500000Y-102100000D03*
D16*
X120500000Y-94000000D03*
X120500000Y-99000000D03*
D15*
X82000000Y-94000000D03*
D16*
X82000000Y-96500000D03*
X82000000Y-99000000D03*
D17*
X89500000Y-90900000D03*
X89500000Y-102100000D03*
D16*
X96500000Y-94000000D03*
X96500000Y-99000000D03*
D18*
X136750000Y-90000000D03*
X135250000Y-90000000D03*
D19*
X132540000Y-87000000D03*
X130000000Y-87000000D03*
D20*
X127460000Y-87000000D03*
D21*
X150540000Y-100920000D03*
X150540000Y-103460000D03*
X150540000Y-106000000D03*
X148000000Y-100920000D03*
X148000000Y-103460000D03*
G36*
G01*
X147150000Y-106600000D02*
X147150000Y-105400000D01*
G75*
G02*
X147400000Y-105150000I250000J0D01*
G01*
X148600000Y-105150000D01*
G75*
G02*
X148850000Y-105400000I0J-250000D01*
G01*
X148850000Y-106600000D01*
G75*
G02*
X148600000Y-106850000I-250000J0D01*
G01*
X147400000Y-106850000D01*
G75*
G02*
X147150000Y-106600000I0J250000D01*
G01*
G37*
D22*
X55000000Y-90000000D03*
X55000000Y-145000000D03*
X150000000Y-90000000D03*
X150000000Y-145000000D03*
D23*
X135050000Y-92000000D03*
X136950000Y-92000000D03*
D24*
X128000000Y-101450000D03*
X128000000Y-99550000D03*
X142000000Y-101050000D03*
X142000000Y-102950000D03*
X128000000Y-105050000D03*
X128000000Y-106950000D03*
D23*
X121050000Y-104500000D03*
X122950000Y-104500000D03*
M02*
